<?xml version="1.0" encoding="UTF-8" standalone="no"?>
<!DOCTYPE svg PUBLIC "-//W3C//DTD SVG 1.1//EN"
 "http://www.w3.org/Graphics/SVG/1.1/DTD/svg11.dtd">
<!-- Generated by graphviz version 2.40.1 (20161225.0304)
 -->
<!-- Title: Vala.CCodeVariableDeclarator Pages: 1 -->
<svg width="217pt" height="188pt"
 viewBox="0.00 0.00 217.00 188.00" xmlns="http://www.w3.org/2000/svg" xmlns:xlink="http://www.w3.org/1999/xlink">
<g id="graph0" class="graph" transform="scale(1 1) rotate(0) translate(4 184)">
<title>Vala.CCodeVariableDeclarator</title>
<polygon fill="#ffffff" stroke="transparent" points="-4,4 -4,-184 213,-184 213,4 -4,4"/>
<!-- Vala.CCodeVariableDeclarator -->
<g id="node1" class="node">
<title>Vala.CCodeVariableDeclarator</title>
<g id="a_node1"><a xlink:href="Vala.CCodeVariableDeclarator.html" xlink:title="Vala.CCodeVariableDeclarator">
<polygon fill="none" stroke="#000000" stroke-width="2" points="209,-36 0,-36 0,0 209,0 209,-36"/>
<text text-anchor="middle" x="104.5" y="-14.3" font-family="Times" font-size="14.00" fill="#000000">Vala.CCodeVariableDeclarator</text>
</a>
</g>
</g>
<!-- Vala.CCodeDeclarator -->
<g id="node2" class="node">
<title>Vala.CCodeDeclarator</title>
<g id="a_node2"><a xlink:href="Vala.CCodeDeclarator.html" xlink:title="Vala.CCodeDeclarator">
<polygon fill="none" stroke="#000000" stroke-width="2" points="183,-108 26,-108 26,-72 183,-72 183,-108"/>
<text text-anchor="middle" x="104.5" y="-86.3" font-family="Times" font-size="14.00" fill="#000000">Vala.CCodeDeclarator</text>
</a>
</g>
</g>
<!-- Vala.CCodeDeclarator&#45;&gt;Vala.CCodeVariableDeclarator -->
<g id="edge1" class="edge">
<title>Vala.CCodeDeclarator&#45;&gt;Vala.CCodeVariableDeclarator</title>
<path fill="none" stroke="#000000" d="M104.5,-61.5726C104.5,-53.1084 104.5,-44.0593 104.5,-36.4133"/>
<polygon fill="#000000" stroke="#000000" points="101.0001,-61.8313 104.5,-71.8314 108.0001,-61.8314 101.0001,-61.8313"/>
</g>
<!-- Vala.CCodeNode -->
<g id="node3" class="node">
<title>Vala.CCodeNode</title>
<g id="a_node3"><a xlink:href="Vala.CCodeNode.html" xlink:title="Vala.CCodeNode">
<polygon fill="none" stroke="#000000" stroke-width="2" points="165.5,-180 43.5,-180 43.5,-144 165.5,-144 165.5,-180"/>
<text text-anchor="middle" x="104.5" y="-158.3" font-family="Times" font-size="14.00" fill="#000000">Vala.CCodeNode</text>
</a>
</g>
</g>
<!-- Vala.CCodeNode&#45;&gt;Vala.CCodeDeclarator -->
<g id="edge2" class="edge">
<title>Vala.CCodeNode&#45;&gt;Vala.CCodeDeclarator</title>
<path fill="none" stroke="#000000" d="M104.5,-133.5726C104.5,-125.1084 104.5,-116.0593 104.5,-108.4133"/>
<polygon fill="#000000" stroke="#000000" points="101.0001,-133.8313 104.5,-143.8314 108.0001,-133.8314 101.0001,-133.8313"/>
</g>
</g>
</svg>
