<?xml version="1.0" encoding="UTF-8" standalone="no"?>
<!DOCTYPE svg PUBLIC "-//W3C//DTD SVG 1.1//EN"
 "http://www.w3.org/Graphics/SVG/1.1/DTD/svg11.dtd">
<!-- Generated by graphviz version 2.40.1 (0)
 -->
<!-- Title: Vala.CCodeMemberAccess Pages: 1 -->
<svg width="176pt" height="188pt"
 viewBox="0.00 0.00 176.00 188.00" xmlns="http://www.w3.org/2000/svg" xmlns:xlink="http://www.w3.org/1999/xlink">
<g id="graph0" class="graph" transform="scale(1 1) rotate(0) translate(4 184)">
<title>Vala.CCodeMemberAccess</title>
<polygon fill="#ffffff" stroke="transparent" points="-4,4 -4,-184 172,-184 172,4 -4,4"/>
<!-- Vala.CCodeMemberAccess -->
<g id="node1" class="node">
<title>Vala.CCodeMemberAccess</title>
<g id="a_node1"><a xlink:href="Vala.CCodeMemberAccess.html" xlink:title="Vala.CCodeMemberAccess">
<polygon fill="none" stroke="#000000" stroke-width="2" points="168,-36 0,-36 0,0 168,0 168,-36"/>
<text text-anchor="middle" x="84" y="-14.3" font-family="Times" font-size="14.00" fill="#000000">Vala.CCodeMemberAccess</text>
</a>
</g>
</g>
<!-- Vala.CCodeExpression -->
<g id="node2" class="node">
<title>Vala.CCodeExpression</title>
<g id="a_node2"><a xlink:href="Vala.CCodeExpression.html" xlink:title="Vala.CCodeExpression">
<polygon fill="none" stroke="#000000" stroke-width="2" points="155.5,-108 12.5,-108 12.5,-72 155.5,-72 155.5,-108"/>
<text text-anchor="middle" x="84" y="-86.3" font-family="Times" font-size="14.00" fill="#000000">Vala.CCodeExpression</text>
</a>
</g>
</g>
<!-- Vala.CCodeExpression&#45;&gt;Vala.CCodeMemberAccess -->
<g id="edge1" class="edge">
<title>Vala.CCodeExpression&#45;&gt;Vala.CCodeMemberAccess</title>
<path fill="none" stroke="#000000" d="M84,-61.5726C84,-53.1084 84,-44.0593 84,-36.4133"/>
<polygon fill="#000000" stroke="#000000" points="80.5001,-61.8313 84,-71.8314 87.5001,-61.8314 80.5001,-61.8313"/>
</g>
<!-- Vala.CCodeNode -->
<g id="node3" class="node">
<title>Vala.CCodeNode</title>
<g id="a_node3"><a xlink:href="Vala.CCodeNode.html" xlink:title="Vala.CCodeNode">
<polygon fill="none" stroke="#000000" stroke-width="2" points="140,-180 28,-180 28,-144 140,-144 140,-180"/>
<text text-anchor="middle" x="84" y="-158.3" font-family="Times" font-size="14.00" fill="#000000">Vala.CCodeNode</text>
</a>
</g>
</g>
<!-- Vala.CCodeNode&#45;&gt;Vala.CCodeExpression -->
<g id="edge2" class="edge">
<title>Vala.CCodeNode&#45;&gt;Vala.CCodeExpression</title>
<path fill="none" stroke="#000000" d="M84,-133.5726C84,-125.1084 84,-116.0593 84,-108.4133"/>
<polygon fill="#000000" stroke="#000000" points="80.5001,-133.8313 84,-143.8314 87.5001,-133.8314 80.5001,-133.8313"/>
</g>
</g>
</svg>
