<?xml version="1.0" encoding="UTF-8" standalone="no"?>
<!DOCTYPE svg PUBLIC "-//W3C//DTD SVG 1.1//EN"
 "http://www.w3.org/Graphics/SVG/1.1/DTD/svg11.dtd">
<!-- Generated by graphviz version 2.42.3 (0)
 -->
<!-- Title: Vala.CCodeOnceSection Pages: 1 -->
<svg width="160pt" height="188pt"
 viewBox="0.00 0.00 160.00 188.00" xmlns="http://www.w3.org/2000/svg" xmlns:xlink="http://www.w3.org/1999/xlink">
<g id="graph0" class="graph" transform="scale(1 1) rotate(0) translate(4 184)">
<title>Vala.CCodeOnceSection</title>
<polygon fill="white" stroke="transparent" points="-4,4 -4,-184 156,-184 156,4 -4,4"/>
<!-- Vala.CCodeOnceSection -->
<g id="node1" class="node">
<title>Vala.CCodeOnceSection</title>
<g id="a_node1"><a xlink:href="Vala.CCodeOnceSection.html" xlink:title="Vala.CCodeOnceSection">
<polygon fill="none" stroke="black" stroke-width="2" points="152,-36 0,-36 0,0 152,0 152,-36"/>
<text text-anchor="middle" x="76" y="-14.3" font-family="Times" font-size="14.00">Vala.CCodeOnceSection</text>
</a>
</g>
</g>
<!-- Vala.CCodeFragment -->
<g id="node2" class="node">
<title>Vala.CCodeFragment</title>
<g id="a_node2"><a xlink:href="Vala.CCodeFragment.html" xlink:title="Vala.CCodeFragment">
<polygon fill="none" stroke="black" stroke-width="2" points="143.5,-108 8.5,-108 8.5,-72 143.5,-72 143.5,-108"/>
<text text-anchor="middle" x="76" y="-86.3" font-family="Times" font-size="14.00">Vala.CCodeFragment</text>
</a>
</g>
</g>
<!-- Vala.CCodeFragment&#45;&gt;Vala.CCodeOnceSection -->
<g id="edge1" class="edge">
<title>Vala.CCodeFragment&#45;&gt;Vala.CCodeOnceSection</title>
<path fill="none" stroke="black" d="M76,-61.67C76,-53.05 76,-43.79 76,-36.1"/>
<polygon fill="black" stroke="black" points="72.5,-61.7 76,-71.7 79.5,-61.7 72.5,-61.7"/>
</g>
<!-- Vala.CCodeNode -->
<g id="node3" class="node">
<title>Vala.CCodeNode</title>
<g id="a_node3"><a xlink:href="Vala.CCodeNode.html" xlink:title="Vala.CCodeNode">
<polygon fill="none" stroke="black" stroke-width="2" points="132,-180 20,-180 20,-144 132,-144 132,-180"/>
<text text-anchor="middle" x="76" y="-158.3" font-family="Times" font-size="14.00">Vala.CCodeNode</text>
</a>
</g>
</g>
<!-- Vala.CCodeNode&#45;&gt;Vala.CCodeFragment -->
<g id="edge2" class="edge">
<title>Vala.CCodeNode&#45;&gt;Vala.CCodeFragment</title>
<path fill="none" stroke="black" d="M76,-133.67C76,-125.05 76,-115.79 76,-108.1"/>
<polygon fill="black" stroke="black" points="72.5,-133.7 76,-143.7 79.5,-133.7 72.5,-133.7"/>
</g>
</g>
</svg>
