<?xml version="1.0" encoding="UTF-8" standalone="no"?>
<!DOCTYPE svg PUBLIC "-//W3C//DTD SVG 1.1//EN"
 "http://www.w3.org/Graphics/SVG/1.1/DTD/svg11.dtd">
<!-- Generated by graphviz version 2.42.3 (0)
 -->
<!-- Title: Vala.CCodeFunctionDeclarator Pages: 1 -->
<svg width="196pt" height="188pt"
 viewBox="0.00 0.00 196.00 188.00" xmlns="http://www.w3.org/2000/svg" xmlns:xlink="http://www.w3.org/1999/xlink">
<g id="graph0" class="graph" transform="scale(1 1) rotate(0) translate(4 184)">
<title>Vala.CCodeFunctionDeclarator</title>
<polygon fill="white" stroke="transparent" points="-4,4 -4,-184 192,-184 192,4 -4,4"/>
<!-- Vala.CCodeFunctionDeclarator -->
<g id="node1" class="node">
<title>Vala.CCodeFunctionDeclarator</title>
<g id="a_node1"><a xlink:href="Vala.CCodeFunctionDeclarator.html" xlink:title="Vala.CCodeFunctionDeclarator">
<polygon fill="none" stroke="black" stroke-width="2" points="188,-36 0,-36 0,0 188,0 188,-36"/>
<text text-anchor="middle" x="94" y="-14.3" font-family="Times" font-size="14.00">Vala.CCodeFunctionDeclarator</text>
</a>
</g>
</g>
<!-- Vala.CCodeDeclarator -->
<g id="node2" class="node">
<title>Vala.CCodeDeclarator</title>
<g id="a_node2"><a xlink:href="Vala.CCodeDeclarator.html" xlink:title="Vala.CCodeDeclarator">
<polygon fill="none" stroke="black" stroke-width="2" points="164,-108 24,-108 24,-72 164,-72 164,-108"/>
<text text-anchor="middle" x="94" y="-86.3" font-family="Times" font-size="14.00">Vala.CCodeDeclarator</text>
</a>
</g>
</g>
<!-- Vala.CCodeDeclarator&#45;&gt;Vala.CCodeFunctionDeclarator -->
<g id="edge1" class="edge">
<title>Vala.CCodeDeclarator&#45;&gt;Vala.CCodeFunctionDeclarator</title>
<path fill="none" stroke="black" d="M94,-61.67C94,-53.05 94,-43.79 94,-36.1"/>
<polygon fill="black" stroke="black" points="90.5,-61.7 94,-71.7 97.5,-61.7 90.5,-61.7"/>
</g>
<!-- Vala.CCodeNode -->
<g id="node3" class="node">
<title>Vala.CCodeNode</title>
<g id="a_node3"><a xlink:href="Vala.CCodeNode.html" xlink:title="Vala.CCodeNode">
<polygon fill="none" stroke="black" stroke-width="2" points="150,-180 38,-180 38,-144 150,-144 150,-180"/>
<text text-anchor="middle" x="94" y="-158.3" font-family="Times" font-size="14.00">Vala.CCodeNode</text>
</a>
</g>
</g>
<!-- Vala.CCodeNode&#45;&gt;Vala.CCodeDeclarator -->
<g id="edge2" class="edge">
<title>Vala.CCodeNode&#45;&gt;Vala.CCodeDeclarator</title>
<path fill="none" stroke="black" d="M94,-133.67C94,-125.05 94,-115.79 94,-108.1"/>
<polygon fill="black" stroke="black" points="90.5,-133.7 94,-143.7 97.5,-133.7 90.5,-133.7"/>
</g>
</g>
</svg>
