<?xml version="1.0" encoding="UTF-8" standalone="no"?>
<!DOCTYPE svg PUBLIC "-//W3C//DTD SVG 1.1//EN"
 "http://www.w3.org/Graphics/SVG/1.1/DTD/svg11.dtd">
<!-- Generated by graphviz version 2.40.1 (0)
 -->
<!-- Title: Vala.CCodeFunctionDeclarator Pages: 1 -->
<svg width="196pt" height="188pt"
 viewBox="0.00 0.00 196.00 188.00" xmlns="http://www.w3.org/2000/svg" xmlns:xlink="http://www.w3.org/1999/xlink">
<g id="graph0" class="graph" transform="scale(1 1) rotate(0) translate(4 184)">
<title>Vala.CCodeFunctionDeclarator</title>
<polygon fill="#ffffff" stroke="transparent" points="-4,4 -4,-184 192,-184 192,4 -4,4"/>
<!-- Vala.CCodeFunctionDeclarator -->
<g id="node1" class="node">
<title>Vala.CCodeFunctionDeclarator</title>
<g id="a_node1"><a xlink:href="Vala.CCodeFunctionDeclarator.html" xlink:title="Vala.CCodeFunctionDeclarator">
<polygon fill="none" stroke="#000000" stroke-width="2" points="188,-36 0,-36 0,0 188,0 188,-36"/>
<text text-anchor="middle" x="94" y="-14.3" font-family="Times" font-size="14.00" fill="#000000">Vala.CCodeFunctionDeclarator</text>
</a>
</g>
</g>
<!-- Vala.CCodeDeclarator -->
<g id="node2" class="node">
<title>Vala.CCodeDeclarator</title>
<g id="a_node2"><a xlink:href="Vala.CCodeDeclarator.html" xlink:title="Vala.CCodeDeclarator">
<polygon fill="none" stroke="#000000" stroke-width="2" points="164,-108 24,-108 24,-72 164,-72 164,-108"/>
<text text-anchor="middle" x="94" y="-86.3" font-family="Times" font-size="14.00" fill="#000000">Vala.CCodeDeclarator</text>
</a>
</g>
</g>
<!-- Vala.CCodeDeclarator&#45;&gt;Vala.CCodeFunctionDeclarator -->
<g id="edge1" class="edge">
<title>Vala.CCodeDeclarator&#45;&gt;Vala.CCodeFunctionDeclarator</title>
<path fill="none" stroke="#000000" d="M94,-61.5726C94,-53.1084 94,-44.0593 94,-36.4133"/>
<polygon fill="#000000" stroke="#000000" points="90.5001,-61.8313 94,-71.8314 97.5001,-61.8314 90.5001,-61.8313"/>
</g>
<!-- Vala.CCodeNode -->
<g id="node3" class="node">
<title>Vala.CCodeNode</title>
<g id="a_node3"><a xlink:href="Vala.CCodeNode.html" xlink:title="Vala.CCodeNode">
<polygon fill="none" stroke="#000000" stroke-width="2" points="150,-180 38,-180 38,-144 150,-144 150,-180"/>
<text text-anchor="middle" x="94" y="-158.3" font-family="Times" font-size="14.00" fill="#000000">Vala.CCodeNode</text>
</a>
</g>
</g>
<!-- Vala.CCodeNode&#45;&gt;Vala.CCodeDeclarator -->
<g id="edge2" class="edge">
<title>Vala.CCodeNode&#45;&gt;Vala.CCodeDeclarator</title>
<path fill="none" stroke="#000000" d="M94,-133.5726C94,-125.1084 94,-116.0593 94,-108.4133"/>
<polygon fill="#000000" stroke="#000000" points="90.5001,-133.8313 94,-143.8314 97.5001,-133.8314 90.5001,-133.8313"/>
</g>
</g>
</svg>
