<?xml version="1.0" encoding="UTF-8" standalone="no"?>
<!DOCTYPE svg PUBLIC "-//W3C//DTD SVG 1.1//EN"
 "http://www.w3.org/Graphics/SVG/1.1/DTD/svg11.dtd">
<!-- Generated by graphviz version 2.42.3 (0)
 -->
<!-- Title: Vala.CCodeGGnucSection Pages: 1 -->
<svg width="170pt" height="188pt"
 viewBox="0.00 0.00 170.00 188.00" xmlns="http://www.w3.org/2000/svg" xmlns:xlink="http://www.w3.org/1999/xlink">
<g id="graph0" class="graph" transform="scale(1 1) rotate(0) translate(4 184)">
<title>Vala.CCodeGGnucSection</title>
<polygon fill="white" stroke="transparent" points="-4,4 -4,-184 166,-184 166,4 -4,4"/>
<!-- Vala.CCodeGGnucSection -->
<g id="node1" class="node">
<title>Vala.CCodeGGnucSection</title>
<g id="a_node1"><a xlink:href="Vala.CCodeGGnucSection.html" xlink:title="Vala.CCodeGGnucSection">
<polygon fill="none" stroke="black" stroke-width="2" points="162,-36 0,-36 0,0 162,0 162,-36"/>
<text text-anchor="middle" x="81" y="-14.3" font-family="Times" font-size="14.00">Vala.CCodeGGnucSection</text>
</a>
</g>
</g>
<!-- Vala.CCodeFragment -->
<g id="node2" class="node">
<title>Vala.CCodeFragment</title>
<g id="a_node2"><a xlink:href="Vala.CCodeFragment.html" xlink:title="Vala.CCodeFragment">
<polygon fill="none" stroke="black" stroke-width="2" points="148.5,-108 13.5,-108 13.5,-72 148.5,-72 148.5,-108"/>
<text text-anchor="middle" x="81" y="-86.3" font-family="Times" font-size="14.00">Vala.CCodeFragment</text>
</a>
</g>
</g>
<!-- Vala.CCodeFragment&#45;&gt;Vala.CCodeGGnucSection -->
<g id="edge1" class="edge">
<title>Vala.CCodeFragment&#45;&gt;Vala.CCodeGGnucSection</title>
<path fill="none" stroke="black" d="M81,-61.67C81,-53.05 81,-43.79 81,-36.1"/>
<polygon fill="black" stroke="black" points="77.5,-61.7 81,-71.7 84.5,-61.7 77.5,-61.7"/>
</g>
<!-- Vala.CCodeNode -->
<g id="node3" class="node">
<title>Vala.CCodeNode</title>
<g id="a_node3"><a xlink:href="Vala.CCodeNode.html" xlink:title="Vala.CCodeNode">
<polygon fill="none" stroke="black" stroke-width="2" points="137,-180 25,-180 25,-144 137,-144 137,-180"/>
<text text-anchor="middle" x="81" y="-158.3" font-family="Times" font-size="14.00">Vala.CCodeNode</text>
</a>
</g>
</g>
<!-- Vala.CCodeNode&#45;&gt;Vala.CCodeFragment -->
<g id="edge2" class="edge">
<title>Vala.CCodeNode&#45;&gt;Vala.CCodeFragment</title>
<path fill="none" stroke="black" d="M81,-133.67C81,-125.05 81,-115.79 81,-108.1"/>
<polygon fill="black" stroke="black" points="77.5,-133.7 81,-143.7 84.5,-133.7 77.5,-133.7"/>
</g>
</g>
</svg>
