<?xml version="1.0" encoding="UTF-8" standalone="no"?>
<!DOCTYPE svg PUBLIC "-//W3C//DTD SVG 1.1//EN"
 "http://www.w3.org/Graphics/SVG/1.1/DTD/svg11.dtd">
<!-- Generated by graphviz version 2.40.1 (20161225.0304)
 -->
<!-- Title: Vala.CCodeGGnucSection Pages: 1 -->
<svg width="169pt" height="188pt"
 viewBox="0.00 0.00 169.00 188.00" xmlns="http://www.w3.org/2000/svg" xmlns:xlink="http://www.w3.org/1999/xlink">
<g id="graph0" class="graph" transform="scale(1 1) rotate(0) translate(4 184)">
<title>Vala.CCodeGGnucSection</title>
<polygon fill="#ffffff" stroke="transparent" points="-4,4 -4,-184 165,-184 165,4 -4,4"/>
<!-- Vala.CCodeGGnucSection -->
<g id="node1" class="node">
<title>Vala.CCodeGGnucSection</title>
<g id="a_node1"><a xlink:href="Vala.CCodeGGnucSection.html" xlink:title="Vala.CCodeGGnucSection">
<polygon fill="none" stroke="#000000" stroke-width="2" points="161,-36 0,-36 0,0 161,0 161,-36"/>
<text text-anchor="middle" x="80.5" y="-14.3" font-family="Times" font-size="14.00" fill="#000000">Vala.CCodeGGnucSection</text>
</a>
</g>
</g>
<!-- Vala.CCodeFragment -->
<g id="node2" class="node">
<title>Vala.CCodeFragment</title>
<g id="a_node2"><a xlink:href="Vala.CCodeFragment.html" xlink:title="Vala.CCodeFragment">
<polygon fill="none" stroke="#000000" stroke-width="2" points="147.5,-108 13.5,-108 13.5,-72 147.5,-72 147.5,-108"/>
<text text-anchor="middle" x="80.5" y="-86.3" font-family="Times" font-size="14.00" fill="#000000">Vala.CCodeFragment</text>
</a>
</g>
</g>
<!-- Vala.CCodeFragment&#45;&gt;Vala.CCodeGGnucSection -->
<g id="edge1" class="edge">
<title>Vala.CCodeFragment&#45;&gt;Vala.CCodeGGnucSection</title>
<path fill="none" stroke="#000000" d="M80.5,-61.5726C80.5,-53.1084 80.5,-44.0593 80.5,-36.4133"/>
<polygon fill="#000000" stroke="#000000" points="77.0001,-61.8313 80.5,-71.8314 84.0001,-61.8314 77.0001,-61.8313"/>
</g>
<!-- Vala.CCodeNode -->
<g id="node3" class="node">
<title>Vala.CCodeNode</title>
<g id="a_node3"><a xlink:href="Vala.CCodeNode.html" xlink:title="Vala.CCodeNode">
<polygon fill="none" stroke="#000000" stroke-width="2" points="136,-180 25,-180 25,-144 136,-144 136,-180"/>
<text text-anchor="middle" x="80.5" y="-158.3" font-family="Times" font-size="14.00" fill="#000000">Vala.CCodeNode</text>
</a>
</g>
</g>
<!-- Vala.CCodeNode&#45;&gt;Vala.CCodeFragment -->
<g id="edge2" class="edge">
<title>Vala.CCodeNode&#45;&gt;Vala.CCodeFragment</title>
<path fill="none" stroke="#000000" d="M80.5,-133.5726C80.5,-125.1084 80.5,-116.0593 80.5,-108.4133"/>
<polygon fill="#000000" stroke="#000000" points="77.0001,-133.8313 80.5,-143.8314 84.0001,-133.8314 77.0001,-133.8313"/>
</g>
</g>
</svg>
