<?xml version="1.0" encoding="UTF-8" standalone="no"?>
<!DOCTYPE svg PUBLIC "-//W3C//DTD SVG 1.1//EN"
 "http://www.w3.org/Graphics/SVG/1.1/DTD/svg11.dtd">
<!-- Generated by graphviz version 2.42.3 (0)
 -->
<!-- Title: Vala.CCodeForStatement Pages: 1 -->
<svg width="164pt" height="188pt"
 viewBox="0.00 0.00 164.00 188.00" xmlns="http://www.w3.org/2000/svg" xmlns:xlink="http://www.w3.org/1999/xlink">
<g id="graph0" class="graph" transform="scale(1 1) rotate(0) translate(4 184)">
<title>Vala.CCodeForStatement</title>
<polygon fill="white" stroke="transparent" points="-4,4 -4,-184 160,-184 160,4 -4,4"/>
<!-- Vala.CCodeForStatement -->
<g id="node1" class="node">
<title>Vala.CCodeForStatement</title>
<g id="a_node1"><a xlink:href="Vala.CCodeForStatement.html" xlink:title="Vala.CCodeForStatement">
<polygon fill="none" stroke="black" stroke-width="2" points="156,-36 0,-36 0,0 156,0 156,-36"/>
<text text-anchor="middle" x="78" y="-14.3" font-family="Times" font-size="14.00">Vala.CCodeForStatement</text>
</a>
</g>
</g>
<!-- Vala.CCodeStatement -->
<g id="node2" class="node">
<title>Vala.CCodeStatement</title>
<g id="a_node2"><a xlink:href="Vala.CCodeStatement.html" xlink:title="Vala.CCodeStatement">
<polygon fill="none" stroke="black" stroke-width="2" points="146.5,-108 9.5,-108 9.5,-72 146.5,-72 146.5,-108"/>
<text text-anchor="middle" x="78" y="-86.3" font-family="Times" font-size="14.00">Vala.CCodeStatement</text>
</a>
</g>
</g>
<!-- Vala.CCodeStatement&#45;&gt;Vala.CCodeForStatement -->
<g id="edge1" class="edge">
<title>Vala.CCodeStatement&#45;&gt;Vala.CCodeForStatement</title>
<path fill="none" stroke="black" d="M78,-61.67C78,-53.05 78,-43.79 78,-36.1"/>
<polygon fill="black" stroke="black" points="74.5,-61.7 78,-71.7 81.5,-61.7 74.5,-61.7"/>
</g>
<!-- Vala.CCodeNode -->
<g id="node3" class="node">
<title>Vala.CCodeNode</title>
<g id="a_node3"><a xlink:href="Vala.CCodeNode.html" xlink:title="Vala.CCodeNode">
<polygon fill="none" stroke="black" stroke-width="2" points="134,-180 22,-180 22,-144 134,-144 134,-180"/>
<text text-anchor="middle" x="78" y="-158.3" font-family="Times" font-size="14.00">Vala.CCodeNode</text>
</a>
</g>
</g>
<!-- Vala.CCodeNode&#45;&gt;Vala.CCodeStatement -->
<g id="edge2" class="edge">
<title>Vala.CCodeNode&#45;&gt;Vala.CCodeStatement</title>
<path fill="none" stroke="black" d="M78,-133.67C78,-125.05 78,-115.79 78,-108.1"/>
<polygon fill="black" stroke="black" points="74.5,-133.7 78,-143.7 81.5,-133.7 74.5,-133.7"/>
</g>
</g>
</svg>
