<?xml version="1.0" encoding="UTF-8" standalone="no"?>
<!DOCTYPE svg PUBLIC "-//W3C//DTD SVG 1.1//EN"
 "http://www.w3.org/Graphics/SVG/1.1/DTD/svg11.dtd">
<!-- Generated by graphviz version 2.40.1 (0)
 -->
<!-- Title: Vala.CCodeIdentifier Pages: 1 -->
<svg width="151pt" height="188pt"
 viewBox="0.00 0.00 151.00 188.00" xmlns="http://www.w3.org/2000/svg" xmlns:xlink="http://www.w3.org/1999/xlink">
<g id="graph0" class="graph" transform="scale(1 1) rotate(0) translate(4 184)">
<title>Vala.CCodeIdentifier</title>
<polygon fill="#ffffff" stroke="transparent" points="-4,4 -4,-184 147,-184 147,4 -4,4"/>
<!-- Vala.CCodeIdentifier -->
<g id="node1" class="node">
<title>Vala.CCodeIdentifier</title>
<g id="a_node1"><a xlink:href="Vala.CCodeIdentifier.html" xlink:title="Vala.CCodeIdentifier">
<polygon fill="none" stroke="#000000" stroke-width="2" points="137.5,-36 5.5,-36 5.5,0 137.5,0 137.5,-36"/>
<text text-anchor="middle" x="71.5" y="-14.3" font-family="Times" font-size="14.00" fill="#000000">Vala.CCodeIdentifier</text>
</a>
</g>
</g>
<!-- Vala.CCodeExpression -->
<g id="node2" class="node">
<title>Vala.CCodeExpression</title>
<g id="a_node2"><a xlink:href="Vala.CCodeExpression.html" xlink:title="Vala.CCodeExpression">
<polygon fill="none" stroke="#000000" stroke-width="2" points="143,-108 0,-108 0,-72 143,-72 143,-108"/>
<text text-anchor="middle" x="71.5" y="-86.3" font-family="Times" font-size="14.00" fill="#000000">Vala.CCodeExpression</text>
</a>
</g>
</g>
<!-- Vala.CCodeExpression&#45;&gt;Vala.CCodeIdentifier -->
<g id="edge1" class="edge">
<title>Vala.CCodeExpression&#45;&gt;Vala.CCodeIdentifier</title>
<path fill="none" stroke="#000000" d="M71.5,-61.5726C71.5,-53.1084 71.5,-44.0593 71.5,-36.4133"/>
<polygon fill="#000000" stroke="#000000" points="68.0001,-61.8313 71.5,-71.8314 75.0001,-61.8314 68.0001,-61.8313"/>
</g>
<!-- Vala.CCodeNode -->
<g id="node3" class="node">
<title>Vala.CCodeNode</title>
<g id="a_node3"><a xlink:href="Vala.CCodeNode.html" xlink:title="Vala.CCodeNode">
<polygon fill="none" stroke="#000000" stroke-width="2" points="127.5,-180 15.5,-180 15.5,-144 127.5,-144 127.5,-180"/>
<text text-anchor="middle" x="71.5" y="-158.3" font-family="Times" font-size="14.00" fill="#000000">Vala.CCodeNode</text>
</a>
</g>
</g>
<!-- Vala.CCodeNode&#45;&gt;Vala.CCodeExpression -->
<g id="edge2" class="edge">
<title>Vala.CCodeNode&#45;&gt;Vala.CCodeExpression</title>
<path fill="none" stroke="#000000" d="M71.5,-133.5726C71.5,-125.1084 71.5,-116.0593 71.5,-108.4133"/>
<polygon fill="#000000" stroke="#000000" points="68.0001,-133.8313 71.5,-143.8314 75.0001,-133.8314 68.0001,-133.8313"/>
</g>
</g>
</svg>
