<?xml version="1.0" encoding="UTF-8" standalone="no"?>
<!DOCTYPE svg PUBLIC "-//W3C//DTD SVG 1.1//EN"
 "http://www.w3.org/Graphics/SVG/1.1/DTD/svg11.dtd">
<!-- Generated by graphviz version 2.42.3 (0)
 -->
<!-- Title: Vala.CCodeWhileStatement Pages: 1 -->
<svg width="179pt" height="188pt"
 viewBox="0.00 0.00 179.00 188.00" xmlns="http://www.w3.org/2000/svg" xmlns:xlink="http://www.w3.org/1999/xlink">
<g id="graph0" class="graph" transform="scale(1 1) rotate(0) translate(4 184)">
<title>Vala.CCodeWhileStatement</title>
<polygon fill="white" stroke="transparent" points="-4,4 -4,-184 175,-184 175,4 -4,4"/>
<!-- Vala.CCodeWhileStatement -->
<g id="node1" class="node">
<title>Vala.CCodeWhileStatement</title>
<g id="a_node1"><a xlink:href="Vala.CCodeWhileStatement.html" xlink:title="Vala.CCodeWhileStatement">
<polygon fill="none" stroke="black" stroke-width="2" points="171,-36 0,-36 0,0 171,0 171,-36"/>
<text text-anchor="middle" x="85.5" y="-14.3" font-family="Times" font-size="14.00">Vala.CCodeWhileStatement</text>
</a>
</g>
</g>
<!-- Vala.CCodeStatement -->
<g id="node2" class="node">
<title>Vala.CCodeStatement</title>
<g id="a_node2"><a xlink:href="Vala.CCodeStatement.html" xlink:title="Vala.CCodeStatement">
<polygon fill="none" stroke="black" stroke-width="2" points="154,-108 17,-108 17,-72 154,-72 154,-108"/>
<text text-anchor="middle" x="85.5" y="-86.3" font-family="Times" font-size="14.00">Vala.CCodeStatement</text>
</a>
</g>
</g>
<!-- Vala.CCodeStatement&#45;&gt;Vala.CCodeWhileStatement -->
<g id="edge1" class="edge">
<title>Vala.CCodeStatement&#45;&gt;Vala.CCodeWhileStatement</title>
<path fill="none" stroke="black" d="M85.5,-61.67C85.5,-53.05 85.5,-43.79 85.5,-36.1"/>
<polygon fill="black" stroke="black" points="82,-61.7 85.5,-71.7 89,-61.7 82,-61.7"/>
</g>
<!-- Vala.CCodeNode -->
<g id="node3" class="node">
<title>Vala.CCodeNode</title>
<g id="a_node3"><a xlink:href="Vala.CCodeNode.html" xlink:title="Vala.CCodeNode">
<polygon fill="none" stroke="black" stroke-width="2" points="141.5,-180 29.5,-180 29.5,-144 141.5,-144 141.5,-180"/>
<text text-anchor="middle" x="85.5" y="-158.3" font-family="Times" font-size="14.00">Vala.CCodeNode</text>
</a>
</g>
</g>
<!-- Vala.CCodeNode&#45;&gt;Vala.CCodeStatement -->
<g id="edge2" class="edge">
<title>Vala.CCodeNode&#45;&gt;Vala.CCodeStatement</title>
<path fill="none" stroke="black" d="M85.5,-133.67C85.5,-125.05 85.5,-115.79 85.5,-108.1"/>
<polygon fill="black" stroke="black" points="82,-133.7 85.5,-143.7 89,-133.7 82,-133.7"/>
</g>
</g>
</svg>
