<?xml version="1.0" encoding="UTF-8" standalone="no"?>
<!DOCTYPE svg PUBLIC "-//W3C//DTD SVG 1.1//EN"
 "http://www.w3.org/Graphics/SVG/1.1/DTD/svg11.dtd">
<!-- Generated by graphviz version 2.42.3 (0)
 -->
<!-- Title: Vala.CCodeCaseStatement Pages: 1 -->
<svg width="172pt" height="188pt"
 viewBox="0.00 0.00 172.00 188.00" xmlns="http://www.w3.org/2000/svg" xmlns:xlink="http://www.w3.org/1999/xlink">
<g id="graph0" class="graph" transform="scale(1 1) rotate(0) translate(4 184)">
<title>Vala.CCodeCaseStatement</title>
<polygon fill="white" stroke="transparent" points="-4,4 -4,-184 168,-184 168,4 -4,4"/>
<!-- Vala.CCodeCaseStatement -->
<g id="node1" class="node">
<title>Vala.CCodeCaseStatement</title>
<g id="a_node1"><a xlink:href="Vala.CCodeCaseStatement.html" xlink:title="Vala.CCodeCaseStatement">
<polygon fill="none" stroke="black" stroke-width="2" points="164,-36 0,-36 0,0 164,0 164,-36"/>
<text text-anchor="middle" x="82" y="-14.3" font-family="Times" font-size="14.00">Vala.CCodeCaseStatement</text>
</a>
</g>
</g>
<!-- Vala.CCodeStatement -->
<g id="node2" class="node">
<title>Vala.CCodeStatement</title>
<g id="a_node2"><a xlink:href="Vala.CCodeStatement.html" xlink:title="Vala.CCodeStatement">
<polygon fill="none" stroke="black" stroke-width="2" points="150.5,-108 13.5,-108 13.5,-72 150.5,-72 150.5,-108"/>
<text text-anchor="middle" x="82" y="-86.3" font-family="Times" font-size="14.00">Vala.CCodeStatement</text>
</a>
</g>
</g>
<!-- Vala.CCodeStatement&#45;&gt;Vala.CCodeCaseStatement -->
<g id="edge1" class="edge">
<title>Vala.CCodeStatement&#45;&gt;Vala.CCodeCaseStatement</title>
<path fill="none" stroke="black" d="M82,-61.67C82,-53.05 82,-43.79 82,-36.1"/>
<polygon fill="black" stroke="black" points="78.5,-61.7 82,-71.7 85.5,-61.7 78.5,-61.7"/>
</g>
<!-- Vala.CCodeNode -->
<g id="node3" class="node">
<title>Vala.CCodeNode</title>
<g id="a_node3"><a xlink:href="Vala.CCodeNode.html" xlink:title="Vala.CCodeNode">
<polygon fill="none" stroke="black" stroke-width="2" points="138,-180 26,-180 26,-144 138,-144 138,-180"/>
<text text-anchor="middle" x="82" y="-158.3" font-family="Times" font-size="14.00">Vala.CCodeNode</text>
</a>
</g>
</g>
<!-- Vala.CCodeNode&#45;&gt;Vala.CCodeStatement -->
<g id="edge2" class="edge">
<title>Vala.CCodeNode&#45;&gt;Vala.CCodeStatement</title>
<path fill="none" stroke="black" d="M82,-133.67C82,-125.05 82,-115.79 82,-108.1"/>
<polygon fill="black" stroke="black" points="78.5,-133.7 82,-143.7 85.5,-133.7 78.5,-133.7"/>
</g>
</g>
</svg>
