<?xml version="1.0" encoding="UTF-8" standalone="no"?>
<!DOCTYPE svg PUBLIC "-//W3C//DTD SVG 1.1//EN"
 "http://www.w3.org/Graphics/SVG/1.1/DTD/svg11.dtd">
<!-- Generated by graphviz version 2.40.1 (20161225.0304)
 -->
<!-- Title: Vala.CCodeBinaryExpression Pages: 1 -->
<svg width="208pt" height="188pt"
 viewBox="0.00 0.00 208.00 188.00" xmlns="http://www.w3.org/2000/svg" xmlns:xlink="http://www.w3.org/1999/xlink">
<g id="graph0" class="graph" transform="scale(1 1) rotate(0) translate(4 184)">
<title>Vala.CCodeBinaryExpression</title>
<polygon fill="#ffffff" stroke="transparent" points="-4,4 -4,-184 204,-184 204,4 -4,4"/>
<!-- Vala.CCodeBinaryExpression -->
<g id="node1" class="node">
<title>Vala.CCodeBinaryExpression</title>
<g id="a_node1"><a xlink:href="Vala.CCodeBinaryExpression.html" xlink:title="Vala.CCodeBinaryExpression">
<polygon fill="none" stroke="#000000" stroke-width="2" points="200,-36 0,-36 0,0 200,0 200,-36"/>
<text text-anchor="middle" x="100" y="-14.3" font-family="Times" font-size="14.00" fill="#000000">Vala.CCodeBinaryExpression</text>
</a>
</g>
</g>
<!-- Vala.CCodeExpression -->
<g id="node2" class="node">
<title>Vala.CCodeExpression</title>
<g id="a_node2"><a xlink:href="Vala.CCodeExpression.html" xlink:title="Vala.CCodeExpression">
<polygon fill="none" stroke="#000000" stroke-width="2" points="179,-108 21,-108 21,-72 179,-72 179,-108"/>
<text text-anchor="middle" x="100" y="-86.3" font-family="Times" font-size="14.00" fill="#000000">Vala.CCodeExpression</text>
</a>
</g>
</g>
<!-- Vala.CCodeExpression&#45;&gt;Vala.CCodeBinaryExpression -->
<g id="edge1" class="edge">
<title>Vala.CCodeExpression&#45;&gt;Vala.CCodeBinaryExpression</title>
<path fill="none" stroke="#000000" d="M100,-61.5726C100,-53.1084 100,-44.0593 100,-36.4133"/>
<polygon fill="#000000" stroke="#000000" points="96.5001,-61.8313 100,-71.8314 103.5001,-61.8314 96.5001,-61.8313"/>
</g>
<!-- Vala.CCodeNode -->
<g id="node3" class="node">
<title>Vala.CCodeNode</title>
<g id="a_node3"><a xlink:href="Vala.CCodeNode.html" xlink:title="Vala.CCodeNode">
<polygon fill="none" stroke="#000000" stroke-width="2" points="161,-180 39,-180 39,-144 161,-144 161,-180"/>
<text text-anchor="middle" x="100" y="-158.3" font-family="Times" font-size="14.00" fill="#000000">Vala.CCodeNode</text>
</a>
</g>
</g>
<!-- Vala.CCodeNode&#45;&gt;Vala.CCodeExpression -->
<g id="edge2" class="edge">
<title>Vala.CCodeNode&#45;&gt;Vala.CCodeExpression</title>
<path fill="none" stroke="#000000" d="M100,-133.5726C100,-125.1084 100,-116.0593 100,-108.4133"/>
<polygon fill="#000000" stroke="#000000" points="96.5001,-133.8313 100,-143.8314 103.5001,-133.8314 96.5001,-133.8313"/>
</g>
</g>
</svg>
