<?xml version="1.0" encoding="UTF-8" standalone="no"?>
<!DOCTYPE svg PUBLIC "-//W3C//DTD SVG 1.1//EN"
 "http://www.w3.org/Graphics/SVG/1.1/DTD/svg11.dtd">
<!-- Generated by graphviz version 2.40.1 (20161225.0304)
 -->
<!-- Title: Vala.CCodeIfSection Pages: 1 -->
<svg width="158pt" height="188pt"
 viewBox="0.00 0.00 158.00 188.00" xmlns="http://www.w3.org/2000/svg" xmlns:xlink="http://www.w3.org/1999/xlink">
<g id="graph0" class="graph" transform="scale(1 1) rotate(0) translate(4 184)">
<title>Vala.CCodeIfSection</title>
<polygon fill="#ffffff" stroke="transparent" points="-4,4 -4,-184 154,-184 154,4 -4,4"/>
<!-- Vala.CCodeIfSection -->
<g id="node1" class="node">
<title>Vala.CCodeIfSection</title>
<g id="a_node1"><a xlink:href="Vala.CCodeIfSection.html" xlink:title="Vala.CCodeIfSection">
<polygon fill="none" stroke="#000000" stroke-width="2" points="148.5,-36 1.5,-36 1.5,0 148.5,0 148.5,-36"/>
<text text-anchor="middle" x="75" y="-14.3" font-family="Times" font-size="14.00" fill="#000000">Vala.CCodeIfSection</text>
</a>
</g>
</g>
<!-- Vala.CCodeFragment -->
<g id="node2" class="node">
<title>Vala.CCodeFragment</title>
<g id="a_node2"><a xlink:href="Vala.CCodeFragment.html" xlink:title="Vala.CCodeFragment">
<polygon fill="none" stroke="#000000" stroke-width="2" points="150,-108 0,-108 0,-72 150,-72 150,-108"/>
<text text-anchor="middle" x="75" y="-86.3" font-family="Times" font-size="14.00" fill="#000000">Vala.CCodeFragment</text>
</a>
</g>
</g>
<!-- Vala.CCodeFragment&#45;&gt;Vala.CCodeIfSection -->
<g id="edge1" class="edge">
<title>Vala.CCodeFragment&#45;&gt;Vala.CCodeIfSection</title>
<path fill="none" stroke="#000000" d="M75,-61.5726C75,-53.1084 75,-44.0593 75,-36.4133"/>
<polygon fill="#000000" stroke="#000000" points="71.5001,-61.8313 75,-71.8314 78.5001,-61.8314 71.5001,-61.8313"/>
</g>
<!-- Vala.CCodeNode -->
<g id="node3" class="node">
<title>Vala.CCodeNode</title>
<g id="a_node3"><a xlink:href="Vala.CCodeNode.html" xlink:title="Vala.CCodeNode">
<polygon fill="none" stroke="#000000" stroke-width="2" points="136,-180 14,-180 14,-144 136,-144 136,-180"/>
<text text-anchor="middle" x="75" y="-158.3" font-family="Times" font-size="14.00" fill="#000000">Vala.CCodeNode</text>
</a>
</g>
</g>
<!-- Vala.CCodeNode&#45;&gt;Vala.CCodeFragment -->
<g id="edge2" class="edge">
<title>Vala.CCodeNode&#45;&gt;Vala.CCodeFragment</title>
<path fill="none" stroke="#000000" d="M75,-133.5726C75,-125.1084 75,-116.0593 75,-108.4133"/>
<polygon fill="#000000" stroke="#000000" points="71.5001,-133.8313 75,-143.8314 78.5001,-133.8314 71.5001,-133.8313"/>
</g>
</g>
</svg>
