<?xml version="1.0" encoding="UTF-8" standalone="no"?>
<!DOCTYPE svg PUBLIC "-//W3C//DTD SVG 1.1//EN"
 "http://www.w3.org/Graphics/SVG/1.1/DTD/svg11.dtd">
<!-- Generated by graphviz version 2.40.1 (20161225.0304)
 -->
<!-- Title: Vala.CCodeSwitchStatement Pages: 1 -->
<svg width="207pt" height="260pt"
 viewBox="0.00 0.00 207.00 260.00" xmlns="http://www.w3.org/2000/svg" xmlns:xlink="http://www.w3.org/1999/xlink">
<g id="graph0" class="graph" transform="scale(1 1) rotate(0) translate(4 256)">
<title>Vala.CCodeSwitchStatement</title>
<polygon fill="#ffffff" stroke="transparent" points="-4,4 -4,-256 203,-256 203,4 -4,4"/>
<!-- Vala.CCodeSwitchStatement -->
<g id="node1" class="node">
<title>Vala.CCodeSwitchStatement</title>
<g id="a_node1"><a xlink:href="Vala.CCodeSwitchStatement.html" xlink:title="Vala.CCodeSwitchStatement">
<polygon fill="none" stroke="#000000" stroke-width="2" points="199,-36 0,-36 0,0 199,0 199,-36"/>
<text text-anchor="middle" x="99.5" y="-14.3" font-family="Times" font-size="14.00" fill="#000000">Vala.CCodeSwitchStatement</text>
</a>
</g>
</g>
<!-- Vala.CCodeBlock -->
<g id="node2" class="node">
<title>Vala.CCodeBlock</title>
<g id="a_node2"><a xlink:href="Vala.CCodeBlock.html" xlink:title="Vala.CCodeBlock">
<polygon fill="none" stroke="#000000" stroke-width="2" points="162,-108 37,-108 37,-72 162,-72 162,-108"/>
<text text-anchor="middle" x="99.5" y="-86.3" font-family="Times" font-size="14.00" fill="#000000">Vala.CCodeBlock</text>
</a>
</g>
</g>
<!-- Vala.CCodeBlock&#45;&gt;Vala.CCodeSwitchStatement -->
<g id="edge1" class="edge">
<title>Vala.CCodeBlock&#45;&gt;Vala.CCodeSwitchStatement</title>
<path fill="none" stroke="#000000" d="M99.5,-61.5726C99.5,-53.1084 99.5,-44.0593 99.5,-36.4133"/>
<polygon fill="#000000" stroke="#000000" points="96.0001,-61.8313 99.5,-71.8314 103.0001,-61.8314 96.0001,-61.8313"/>
</g>
<!-- Vala.CCodeStatement -->
<g id="node3" class="node">
<title>Vala.CCodeStatement</title>
<g id="a_node3"><a xlink:href="Vala.CCodeStatement.html" xlink:title="Vala.CCodeStatement">
<polygon fill="none" stroke="#000000" stroke-width="2" points="177,-180 22,-180 22,-144 177,-144 177,-180"/>
<text text-anchor="middle" x="99.5" y="-158.3" font-family="Times" font-size="14.00" fill="#000000">Vala.CCodeStatement</text>
</a>
</g>
</g>
<!-- Vala.CCodeStatement&#45;&gt;Vala.CCodeBlock -->
<g id="edge2" class="edge">
<title>Vala.CCodeStatement&#45;&gt;Vala.CCodeBlock</title>
<path fill="none" stroke="#000000" d="M99.5,-133.5726C99.5,-125.1084 99.5,-116.0593 99.5,-108.4133"/>
<polygon fill="#000000" stroke="#000000" points="96.0001,-133.8313 99.5,-143.8314 103.0001,-133.8314 96.0001,-133.8313"/>
</g>
<!-- Vala.CCodeNode -->
<g id="node4" class="node">
<title>Vala.CCodeNode</title>
<g id="a_node4"><a xlink:href="Vala.CCodeNode.html" xlink:title="Vala.CCodeNode">
<polygon fill="none" stroke="#000000" stroke-width="2" points="160.5,-252 38.5,-252 38.5,-216 160.5,-216 160.5,-252"/>
<text text-anchor="middle" x="99.5" y="-230.3" font-family="Times" font-size="14.00" fill="#000000">Vala.CCodeNode</text>
</a>
</g>
</g>
<!-- Vala.CCodeNode&#45;&gt;Vala.CCodeStatement -->
<g id="edge3" class="edge">
<title>Vala.CCodeNode&#45;&gt;Vala.CCodeStatement</title>
<path fill="none" stroke="#000000" d="M99.5,-205.5726C99.5,-197.1084 99.5,-188.0593 99.5,-180.4133"/>
<polygon fill="#000000" stroke="#000000" points="96.0001,-205.8313 99.5,-215.8314 103.0001,-205.8314 96.0001,-205.8313"/>
</g>
</g>
</svg>
