<?xml version="1.0" encoding="UTF-8" standalone="no"?>
<!DOCTYPE svg PUBLIC "-//W3C//DTD SVG 1.1//EN"
 "http://www.w3.org/Graphics/SVG/1.1/DTD/svg11.dtd">
<!-- Generated by graphviz version 2.42.3 (0)
 -->
<!-- Title: Vala.CCodeCommaExpression Pages: 1 -->
<svg width="195pt" height="188pt"
 viewBox="0.00 0.00 195.00 188.00" xmlns="http://www.w3.org/2000/svg" xmlns:xlink="http://www.w3.org/1999/xlink">
<g id="graph0" class="graph" transform="scale(1 1) rotate(0) translate(4 184)">
<title>Vala.CCodeCommaExpression</title>
<polygon fill="white" stroke="transparent" points="-4,4 -4,-184 191,-184 191,4 -4,4"/>
<!-- Vala.CCodeCommaExpression -->
<g id="node1" class="node">
<title>Vala.CCodeCommaExpression</title>
<g id="a_node1"><a xlink:href="Vala.CCodeCommaExpression.html" xlink:title="Vala.CCodeCommaExpression">
<polygon fill="none" stroke="black" stroke-width="2" points="187,-36 0,-36 0,0 187,0 187,-36"/>
<text text-anchor="middle" x="93.5" y="-14.3" font-family="Times" font-size="14.00">Vala.CCodeCommaExpression</text>
</a>
</g>
</g>
<!-- Vala.CCodeExpression -->
<g id="node2" class="node">
<title>Vala.CCodeExpression</title>
<g id="a_node2"><a xlink:href="Vala.CCodeExpression.html" xlink:title="Vala.CCodeExpression">
<polygon fill="none" stroke="black" stroke-width="2" points="165,-108 22,-108 22,-72 165,-72 165,-108"/>
<text text-anchor="middle" x="93.5" y="-86.3" font-family="Times" font-size="14.00">Vala.CCodeExpression</text>
</a>
</g>
</g>
<!-- Vala.CCodeExpression&#45;&gt;Vala.CCodeCommaExpression -->
<g id="edge1" class="edge">
<title>Vala.CCodeExpression&#45;&gt;Vala.CCodeCommaExpression</title>
<path fill="none" stroke="black" d="M93.5,-61.67C93.5,-53.05 93.5,-43.79 93.5,-36.1"/>
<polygon fill="black" stroke="black" points="90,-61.7 93.5,-71.7 97,-61.7 90,-61.7"/>
</g>
<!-- Vala.CCodeNode -->
<g id="node3" class="node">
<title>Vala.CCodeNode</title>
<g id="a_node3"><a xlink:href="Vala.CCodeNode.html" xlink:title="Vala.CCodeNode">
<polygon fill="none" stroke="black" stroke-width="2" points="149.5,-180 37.5,-180 37.5,-144 149.5,-144 149.5,-180"/>
<text text-anchor="middle" x="93.5" y="-158.3" font-family="Times" font-size="14.00">Vala.CCodeNode</text>
</a>
</g>
</g>
<!-- Vala.CCodeNode&#45;&gt;Vala.CCodeExpression -->
<g id="edge2" class="edge">
<title>Vala.CCodeNode&#45;&gt;Vala.CCodeExpression</title>
<path fill="none" stroke="black" d="M93.5,-133.67C93.5,-125.05 93.5,-115.79 93.5,-108.1"/>
<polygon fill="black" stroke="black" points="90,-133.7 93.5,-143.7 97,-133.7 90,-133.7"/>
</g>
</g>
</svg>
