<?xml version="1.0" encoding="UTF-8" standalone="no"?>
<!DOCTYPE svg PUBLIC "-//W3C//DTD SVG 1.1//EN"
 "http://www.w3.org/Graphics/SVG/1.1/DTD/svg11.dtd">
<!-- Generated by graphviz version 2.42.3 (0)
 -->
<!-- Title: Vala.CCodeEmptyStatement Pages: 1 -->
<svg width="181pt" height="188pt"
 viewBox="0.00 0.00 181.00 188.00" xmlns="http://www.w3.org/2000/svg" xmlns:xlink="http://www.w3.org/1999/xlink">
<g id="graph0" class="graph" transform="scale(1 1) rotate(0) translate(4 184)">
<title>Vala.CCodeEmptyStatement</title>
<polygon fill="white" stroke="transparent" points="-4,4 -4,-184 177,-184 177,4 -4,4"/>
<!-- Vala.CCodeEmptyStatement -->
<g id="node1" class="node">
<title>Vala.CCodeEmptyStatement</title>
<g id="a_node1"><a xlink:href="Vala.CCodeEmptyStatement.html" xlink:title="Vala.CCodeEmptyStatement">
<polygon fill="none" stroke="black" stroke-width="2" points="173,-36 0,-36 0,0 173,0 173,-36"/>
<text text-anchor="middle" x="86.5" y="-14.3" font-family="Times" font-size="14.00">Vala.CCodeEmptyStatement</text>
</a>
</g>
</g>
<!-- Vala.CCodeStatement -->
<g id="node2" class="node">
<title>Vala.CCodeStatement</title>
<g id="a_node2"><a xlink:href="Vala.CCodeStatement.html" xlink:title="Vala.CCodeStatement">
<polygon fill="none" stroke="black" stroke-width="2" points="155,-108 18,-108 18,-72 155,-72 155,-108"/>
<text text-anchor="middle" x="86.5" y="-86.3" font-family="Times" font-size="14.00">Vala.CCodeStatement</text>
</a>
</g>
</g>
<!-- Vala.CCodeStatement&#45;&gt;Vala.CCodeEmptyStatement -->
<g id="edge1" class="edge">
<title>Vala.CCodeStatement&#45;&gt;Vala.CCodeEmptyStatement</title>
<path fill="none" stroke="black" d="M86.5,-61.67C86.5,-53.05 86.5,-43.79 86.5,-36.1"/>
<polygon fill="black" stroke="black" points="83,-61.7 86.5,-71.7 90,-61.7 83,-61.7"/>
</g>
<!-- Vala.CCodeNode -->
<g id="node3" class="node">
<title>Vala.CCodeNode</title>
<g id="a_node3"><a xlink:href="Vala.CCodeNode.html" xlink:title="Vala.CCodeNode">
<polygon fill="none" stroke="black" stroke-width="2" points="142.5,-180 30.5,-180 30.5,-144 142.5,-144 142.5,-180"/>
<text text-anchor="middle" x="86.5" y="-158.3" font-family="Times" font-size="14.00">Vala.CCodeNode</text>
</a>
</g>
</g>
<!-- Vala.CCodeNode&#45;&gt;Vala.CCodeStatement -->
<g id="edge2" class="edge">
<title>Vala.CCodeNode&#45;&gt;Vala.CCodeStatement</title>
<path fill="none" stroke="black" d="M86.5,-133.67C86.5,-125.05 86.5,-115.79 86.5,-108.1"/>
<polygon fill="black" stroke="black" points="83,-133.7 86.5,-143.7 90,-133.7 83,-133.7"/>
</g>
</g>
</svg>
