<?xml version="1.0" encoding="UTF-8" standalone="no"?>
<!DOCTYPE svg PUBLIC "-//W3C//DTD SVG 1.1//EN"
 "http://www.w3.org/Graphics/SVG/1.1/DTD/svg11.dtd">
<!-- Generated by graphviz version 2.40.1 (20161225.0304)
 -->
<!-- Title: Vala.CCodeWhileStatement Pages: 1 -->
<svg width="199pt" height="188pt"
 viewBox="0.00 0.00 199.00 188.00" xmlns="http://www.w3.org/2000/svg" xmlns:xlink="http://www.w3.org/1999/xlink">
<g id="graph0" class="graph" transform="scale(1 1) rotate(0) translate(4 184)">
<title>Vala.CCodeWhileStatement</title>
<polygon fill="#ffffff" stroke="transparent" points="-4,4 -4,-184 195,-184 195,4 -4,4"/>
<!-- Vala.CCodeWhileStatement -->
<g id="node1" class="node">
<title>Vala.CCodeWhileStatement</title>
<g id="a_node1"><a xlink:href="Vala.CCodeWhileStatement.html" xlink:title="Vala.CCodeWhileStatement">
<polygon fill="none" stroke="#000000" stroke-width="2" points="191,-36 0,-36 0,0 191,0 191,-36"/>
<text text-anchor="middle" x="95.5" y="-14.3" font-family="Times" font-size="14.00" fill="#000000">Vala.CCodeWhileStatement</text>
</a>
</g>
</g>
<!-- Vala.CCodeStatement -->
<g id="node2" class="node">
<title>Vala.CCodeStatement</title>
<g id="a_node2"><a xlink:href="Vala.CCodeStatement.html" xlink:title="Vala.CCodeStatement">
<polygon fill="none" stroke="#000000" stroke-width="2" points="173,-108 18,-108 18,-72 173,-72 173,-108"/>
<text text-anchor="middle" x="95.5" y="-86.3" font-family="Times" font-size="14.00" fill="#000000">Vala.CCodeStatement</text>
</a>
</g>
</g>
<!-- Vala.CCodeStatement&#45;&gt;Vala.CCodeWhileStatement -->
<g id="edge1" class="edge">
<title>Vala.CCodeStatement&#45;&gt;Vala.CCodeWhileStatement</title>
<path fill="none" stroke="#000000" d="M95.5,-61.5726C95.5,-53.1084 95.5,-44.0593 95.5,-36.4133"/>
<polygon fill="#000000" stroke="#000000" points="92.0001,-61.8313 95.5,-71.8314 99.0001,-61.8314 92.0001,-61.8313"/>
</g>
<!-- Vala.CCodeNode -->
<g id="node3" class="node">
<title>Vala.CCodeNode</title>
<g id="a_node3"><a xlink:href="Vala.CCodeNode.html" xlink:title="Vala.CCodeNode">
<polygon fill="none" stroke="#000000" stroke-width="2" points="156.5,-180 34.5,-180 34.5,-144 156.5,-144 156.5,-180"/>
<text text-anchor="middle" x="95.5" y="-158.3" font-family="Times" font-size="14.00" fill="#000000">Vala.CCodeNode</text>
</a>
</g>
</g>
<!-- Vala.CCodeNode&#45;&gt;Vala.CCodeStatement -->
<g id="edge2" class="edge">
<title>Vala.CCodeNode&#45;&gt;Vala.CCodeStatement</title>
<path fill="none" stroke="#000000" d="M95.5,-133.5726C95.5,-125.1084 95.5,-116.0593 95.5,-108.4133"/>
<polygon fill="#000000" stroke="#000000" points="92.0001,-133.8313 95.5,-143.8314 99.0001,-133.8314 92.0001,-133.8313"/>
</g>
</g>
</svg>
