<?xml version="1.0" encoding="UTF-8" standalone="no"?>
<!DOCTYPE svg PUBLIC "-//W3C//DTD SVG 1.1//EN"
 "http://www.w3.org/Graphics/SVG/1.1/DTD/svg11.dtd">
<!-- Generated by graphviz version 2.40.1 (20161225.0304)
 -->
<!-- Title: Vala.CCodeOnceSection Pages: 1 -->
<svg width="159pt" height="188pt"
 viewBox="0.00 0.00 159.00 188.00" xmlns="http://www.w3.org/2000/svg" xmlns:xlink="http://www.w3.org/1999/xlink">
<g id="graph0" class="graph" transform="scale(1 1) rotate(0) translate(4 184)">
<title>Vala.CCodeOnceSection</title>
<polygon fill="#ffffff" stroke="transparent" points="-4,4 -4,-184 155,-184 155,4 -4,4"/>
<!-- Vala.CCodeOnceSection -->
<g id="node1" class="node">
<title>Vala.CCodeOnceSection</title>
<g id="a_node1"><a xlink:href="Vala.CCodeOnceSection.html" xlink:title="Vala.CCodeOnceSection">
<polygon fill="none" stroke="#000000" stroke-width="2" points="151,-36 0,-36 0,0 151,0 151,-36"/>
<text text-anchor="middle" x="75.5" y="-14.3" font-family="Times" font-size="14.00" fill="#000000">Vala.CCodeOnceSection</text>
</a>
</g>
</g>
<!-- Vala.CCodeFragment -->
<g id="node2" class="node">
<title>Vala.CCodeFragment</title>
<g id="a_node2"><a xlink:href="Vala.CCodeFragment.html" xlink:title="Vala.CCodeFragment">
<polygon fill="none" stroke="#000000" stroke-width="2" points="142.5,-108 8.5,-108 8.5,-72 142.5,-72 142.5,-108"/>
<text text-anchor="middle" x="75.5" y="-86.3" font-family="Times" font-size="14.00" fill="#000000">Vala.CCodeFragment</text>
</a>
</g>
</g>
<!-- Vala.CCodeFragment&#45;&gt;Vala.CCodeOnceSection -->
<g id="edge1" class="edge">
<title>Vala.CCodeFragment&#45;&gt;Vala.CCodeOnceSection</title>
<path fill="none" stroke="#000000" d="M75.5,-61.5726C75.5,-53.1084 75.5,-44.0593 75.5,-36.4133"/>
<polygon fill="#000000" stroke="#000000" points="72.0001,-61.8313 75.5,-71.8314 79.0001,-61.8314 72.0001,-61.8313"/>
</g>
<!-- Vala.CCodeNode -->
<g id="node3" class="node">
<title>Vala.CCodeNode</title>
<g id="a_node3"><a xlink:href="Vala.CCodeNode.html" xlink:title="Vala.CCodeNode">
<polygon fill="none" stroke="#000000" stroke-width="2" points="131,-180 20,-180 20,-144 131,-144 131,-180"/>
<text text-anchor="middle" x="75.5" y="-158.3" font-family="Times" font-size="14.00" fill="#000000">Vala.CCodeNode</text>
</a>
</g>
</g>
<!-- Vala.CCodeNode&#45;&gt;Vala.CCodeFragment -->
<g id="edge2" class="edge">
<title>Vala.CCodeNode&#45;&gt;Vala.CCodeFragment</title>
<path fill="none" stroke="#000000" d="M75.5,-133.5726C75.5,-125.1084 75.5,-116.0593 75.5,-108.4133"/>
<polygon fill="#000000" stroke="#000000" points="72.0001,-133.8313 75.5,-143.8314 79.0001,-133.8314 72.0001,-133.8313"/>
</g>
</g>
</svg>
