<?xml version="1.0" encoding="UTF-8" standalone="no"?>
<!DOCTYPE svg PUBLIC "-//W3C//DTD SVG 1.1//EN"
 "http://www.w3.org/Graphics/SVG/1.1/DTD/svg11.dtd">
<!-- Generated by graphviz version 2.42.3 (0)
 -->
<!-- Title: Vala.CCodeReturnStatement Pages: 1 -->
<svg width="183pt" height="188pt"
 viewBox="0.00 0.00 183.00 188.00" xmlns="http://www.w3.org/2000/svg" xmlns:xlink="http://www.w3.org/1999/xlink">
<g id="graph0" class="graph" transform="scale(1 1) rotate(0) translate(4 184)">
<title>Vala.CCodeReturnStatement</title>
<polygon fill="white" stroke="transparent" points="-4,4 -4,-184 179,-184 179,4 -4,4"/>
<!-- Vala.CCodeReturnStatement -->
<g id="node1" class="node">
<title>Vala.CCodeReturnStatement</title>
<g id="a_node1"><a xlink:href="Vala.CCodeReturnStatement.html" xlink:title="Vala.CCodeReturnStatement">
<polygon fill="none" stroke="black" stroke-width="2" points="175,-36 0,-36 0,0 175,0 175,-36"/>
<text text-anchor="middle" x="87.5" y="-14.3" font-family="Times" font-size="14.00">Vala.CCodeReturnStatement</text>
</a>
</g>
</g>
<!-- Vala.CCodeStatement -->
<g id="node2" class="node">
<title>Vala.CCodeStatement</title>
<g id="a_node2"><a xlink:href="Vala.CCodeStatement.html" xlink:title="Vala.CCodeStatement">
<polygon fill="none" stroke="black" stroke-width="2" points="156,-108 19,-108 19,-72 156,-72 156,-108"/>
<text text-anchor="middle" x="87.5" y="-86.3" font-family="Times" font-size="14.00">Vala.CCodeStatement</text>
</a>
</g>
</g>
<!-- Vala.CCodeStatement&#45;&gt;Vala.CCodeReturnStatement -->
<g id="edge1" class="edge">
<title>Vala.CCodeStatement&#45;&gt;Vala.CCodeReturnStatement</title>
<path fill="none" stroke="black" d="M87.5,-61.67C87.5,-53.05 87.5,-43.79 87.5,-36.1"/>
<polygon fill="black" stroke="black" points="84,-61.7 87.5,-71.7 91,-61.7 84,-61.7"/>
</g>
<!-- Vala.CCodeNode -->
<g id="node3" class="node">
<title>Vala.CCodeNode</title>
<g id="a_node3"><a xlink:href="Vala.CCodeNode.html" xlink:title="Vala.CCodeNode">
<polygon fill="none" stroke="black" stroke-width="2" points="143.5,-180 31.5,-180 31.5,-144 143.5,-144 143.5,-180"/>
<text text-anchor="middle" x="87.5" y="-158.3" font-family="Times" font-size="14.00">Vala.CCodeNode</text>
</a>
</g>
</g>
<!-- Vala.CCodeNode&#45;&gt;Vala.CCodeStatement -->
<g id="edge2" class="edge">
<title>Vala.CCodeNode&#45;&gt;Vala.CCodeStatement</title>
<path fill="none" stroke="black" d="M87.5,-133.67C87.5,-125.05 87.5,-115.79 87.5,-108.1"/>
<polygon fill="black" stroke="black" points="84,-133.7 87.5,-143.7 91,-133.7 84,-133.7"/>
</g>
</g>
</svg>
