<?xml version="1.0" encoding="UTF-8" standalone="no"?>
<!DOCTYPE svg PUBLIC "-//W3C//DTD SVG 1.1//EN"
 "http://www.w3.org/Graphics/SVG/1.1/DTD/svg11.dtd">
<!-- Generated by graphviz version 2.42.3 (0)
 -->
<!-- Title: Vala.CCodeDoStatement Pages: 1 -->
<svg width="162pt" height="188pt"
 viewBox="0.00 0.00 162.00 188.00" xmlns="http://www.w3.org/2000/svg" xmlns:xlink="http://www.w3.org/1999/xlink">
<g id="graph0" class="graph" transform="scale(1 1) rotate(0) translate(4 184)">
<title>Vala.CCodeDoStatement</title>
<polygon fill="white" stroke="transparent" points="-4,4 -4,-184 158,-184 158,4 -4,4"/>
<!-- Vala.CCodeDoStatement -->
<g id="node1" class="node">
<title>Vala.CCodeDoStatement</title>
<g id="a_node1"><a xlink:href="Vala.CCodeDoStatement.html" xlink:title="Vala.CCodeDoStatement">
<polygon fill="none" stroke="black" stroke-width="2" points="154,-36 0,-36 0,0 154,0 154,-36"/>
<text text-anchor="middle" x="77" y="-14.3" font-family="Times" font-size="14.00">Vala.CCodeDoStatement</text>
</a>
</g>
</g>
<!-- Vala.CCodeStatement -->
<g id="node2" class="node">
<title>Vala.CCodeStatement</title>
<g id="a_node2"><a xlink:href="Vala.CCodeStatement.html" xlink:title="Vala.CCodeStatement">
<polygon fill="none" stroke="black" stroke-width="2" points="145.5,-108 8.5,-108 8.5,-72 145.5,-72 145.5,-108"/>
<text text-anchor="middle" x="77" y="-86.3" font-family="Times" font-size="14.00">Vala.CCodeStatement</text>
</a>
</g>
</g>
<!-- Vala.CCodeStatement&#45;&gt;Vala.CCodeDoStatement -->
<g id="edge1" class="edge">
<title>Vala.CCodeStatement&#45;&gt;Vala.CCodeDoStatement</title>
<path fill="none" stroke="black" d="M77,-61.67C77,-53.05 77,-43.79 77,-36.1"/>
<polygon fill="black" stroke="black" points="73.5,-61.7 77,-71.7 80.5,-61.7 73.5,-61.7"/>
</g>
<!-- Vala.CCodeNode -->
<g id="node3" class="node">
<title>Vala.CCodeNode</title>
<g id="a_node3"><a xlink:href="Vala.CCodeNode.html" xlink:title="Vala.CCodeNode">
<polygon fill="none" stroke="black" stroke-width="2" points="133,-180 21,-180 21,-144 133,-144 133,-180"/>
<text text-anchor="middle" x="77" y="-158.3" font-family="Times" font-size="14.00">Vala.CCodeNode</text>
</a>
</g>
</g>
<!-- Vala.CCodeNode&#45;&gt;Vala.CCodeStatement -->
<g id="edge2" class="edge">
<title>Vala.CCodeNode&#45;&gt;Vala.CCodeStatement</title>
<path fill="none" stroke="black" d="M77,-133.67C77,-125.05 77,-115.79 77,-108.1"/>
<polygon fill="black" stroke="black" points="73.5,-133.7 77,-143.7 80.5,-133.7 73.5,-133.7"/>
</g>
</g>
</svg>
