<?xml version="1.0" encoding="UTF-8" standalone="no"?>
<!DOCTYPE svg PUBLIC "-//W3C//DTD SVG 1.1//EN"
 "http://www.w3.org/Graphics/SVG/1.1/DTD/svg11.dtd">
<!-- Generated by graphviz version 2.42.3 (0)
 -->
<!-- Title: Vala.CCodeIfStatement Pages: 1 -->
<svg width="154pt" height="188pt"
 viewBox="0.00 0.00 154.00 188.00" xmlns="http://www.w3.org/2000/svg" xmlns:xlink="http://www.w3.org/1999/xlink">
<g id="graph0" class="graph" transform="scale(1 1) rotate(0) translate(4 184)">
<title>Vala.CCodeIfStatement</title>
<polygon fill="white" stroke="transparent" points="-4,4 -4,-184 150,-184 150,4 -4,4"/>
<!-- Vala.CCodeIfStatement -->
<g id="node1" class="node">
<title>Vala.CCodeIfStatement</title>
<g id="a_node1"><a xlink:href="Vala.CCodeIfStatement.html" xlink:title="Vala.CCodeIfStatement">
<polygon fill="none" stroke="black" stroke-width="2" points="146,-36 0,-36 0,0 146,0 146,-36"/>
<text text-anchor="middle" x="73" y="-14.3" font-family="Times" font-size="14.00">Vala.CCodeIfStatement</text>
</a>
</g>
</g>
<!-- Vala.CCodeStatement -->
<g id="node2" class="node">
<title>Vala.CCodeStatement</title>
<g id="a_node2"><a xlink:href="Vala.CCodeStatement.html" xlink:title="Vala.CCodeStatement">
<polygon fill="none" stroke="black" stroke-width="2" points="141.5,-108 4.5,-108 4.5,-72 141.5,-72 141.5,-108"/>
<text text-anchor="middle" x="73" y="-86.3" font-family="Times" font-size="14.00">Vala.CCodeStatement</text>
</a>
</g>
</g>
<!-- Vala.CCodeStatement&#45;&gt;Vala.CCodeIfStatement -->
<g id="edge1" class="edge">
<title>Vala.CCodeStatement&#45;&gt;Vala.CCodeIfStatement</title>
<path fill="none" stroke="black" d="M73,-61.67C73,-53.05 73,-43.79 73,-36.1"/>
<polygon fill="black" stroke="black" points="69.5,-61.7 73,-71.7 76.5,-61.7 69.5,-61.7"/>
</g>
<!-- Vala.CCodeNode -->
<g id="node3" class="node">
<title>Vala.CCodeNode</title>
<g id="a_node3"><a xlink:href="Vala.CCodeNode.html" xlink:title="Vala.CCodeNode">
<polygon fill="none" stroke="black" stroke-width="2" points="129,-180 17,-180 17,-144 129,-144 129,-180"/>
<text text-anchor="middle" x="73" y="-158.3" font-family="Times" font-size="14.00">Vala.CCodeNode</text>
</a>
</g>
</g>
<!-- Vala.CCodeNode&#45;&gt;Vala.CCodeStatement -->
<g id="edge2" class="edge">
<title>Vala.CCodeNode&#45;&gt;Vala.CCodeStatement</title>
<path fill="none" stroke="black" d="M73,-133.67C73,-125.05 73,-115.79 73,-108.1"/>
<polygon fill="black" stroke="black" points="69.5,-133.7 73,-143.7 76.5,-133.7 69.5,-133.7"/>
</g>
</g>
</svg>
