<?xml version="1.0" encoding="UTF-8" standalone="no"?>
<!DOCTYPE svg PUBLIC "-//W3C//DTD SVG 1.1//EN"
 "http://www.w3.org/Graphics/SVG/1.1/DTD/svg11.dtd">
<!-- Generated by graphviz version 2.40.1 (20161225.0304)
 -->
<!-- Title: Vala.CCodeBinaryExpression Pages: 1 -->
<svg width="187pt" height="188pt"
 viewBox="0.00 0.00 187.00 188.00" xmlns="http://www.w3.org/2000/svg" xmlns:xlink="http://www.w3.org/1999/xlink">
<g id="graph0" class="graph" transform="scale(1 1) rotate(0) translate(4 184)">
<title>Vala.CCodeBinaryExpression</title>
<polygon fill="#ffffff" stroke="transparent" points="-4,4 -4,-184 183,-184 183,4 -4,4"/>
<!-- Vala.CCodeBinaryExpression -->
<g id="node1" class="node">
<title>Vala.CCodeBinaryExpression</title>
<g id="a_node1"><a xlink:href="Vala.CCodeBinaryExpression.html" xlink:title="Vala.CCodeBinaryExpression">
<polygon fill="none" stroke="#000000" stroke-width="2" points="179,-36 0,-36 0,0 179,0 179,-36"/>
<text text-anchor="middle" x="89.5" y="-14.3" font-family="Times" font-size="14.00" fill="#000000">Vala.CCodeBinaryExpression</text>
</a>
</g>
</g>
<!-- Vala.CCodeExpression -->
<g id="node2" class="node">
<title>Vala.CCodeExpression</title>
<g id="a_node2"><a xlink:href="Vala.CCodeExpression.html" xlink:title="Vala.CCodeExpression">
<polygon fill="none" stroke="#000000" stroke-width="2" points="160.5,-108 18.5,-108 18.5,-72 160.5,-72 160.5,-108"/>
<text text-anchor="middle" x="89.5" y="-86.3" font-family="Times" font-size="14.00" fill="#000000">Vala.CCodeExpression</text>
</a>
</g>
</g>
<!-- Vala.CCodeExpression&#45;&gt;Vala.CCodeBinaryExpression -->
<g id="edge1" class="edge">
<title>Vala.CCodeExpression&#45;&gt;Vala.CCodeBinaryExpression</title>
<path fill="none" stroke="#000000" d="M89.5,-61.5726C89.5,-53.1084 89.5,-44.0593 89.5,-36.4133"/>
<polygon fill="#000000" stroke="#000000" points="86.0001,-61.8313 89.5,-71.8314 93.0001,-61.8314 86.0001,-61.8313"/>
</g>
<!-- Vala.CCodeNode -->
<g id="node3" class="node">
<title>Vala.CCodeNode</title>
<g id="a_node3"><a xlink:href="Vala.CCodeNode.html" xlink:title="Vala.CCodeNode">
<polygon fill="none" stroke="#000000" stroke-width="2" points="145,-180 34,-180 34,-144 145,-144 145,-180"/>
<text text-anchor="middle" x="89.5" y="-158.3" font-family="Times" font-size="14.00" fill="#000000">Vala.CCodeNode</text>
</a>
</g>
</g>
<!-- Vala.CCodeNode&#45;&gt;Vala.CCodeExpression -->
<g id="edge2" class="edge">
<title>Vala.CCodeNode&#45;&gt;Vala.CCodeExpression</title>
<path fill="none" stroke="#000000" d="M89.5,-133.5726C89.5,-125.1084 89.5,-116.0593 89.5,-108.4133"/>
<polygon fill="#000000" stroke="#000000" points="86.0001,-133.8313 89.5,-143.8314 93.0001,-133.8314 86.0001,-133.8313"/>
</g>
</g>
</svg>
