<?xml version="1.0" encoding="UTF-8" standalone="no"?>
<!DOCTYPE svg PUBLIC "-//W3C//DTD SVG 1.1//EN"
 "http://www.w3.org/Graphics/SVG/1.1/DTD/svg11.dtd">
<!-- Generated by graphviz version 2.42.3 (0)
 -->
<!-- Title: Vala.CCodeBlock Pages: 1 -->
<svg width="145pt" height="188pt"
 viewBox="0.00 0.00 145.00 188.00" xmlns="http://www.w3.org/2000/svg" xmlns:xlink="http://www.w3.org/1999/xlink">
<g id="graph0" class="graph" transform="scale(1 1) rotate(0) translate(4 184)">
<title>Vala.CCodeBlock</title>
<polygon fill="white" stroke="transparent" points="-4,4 -4,-184 141,-184 141,4 -4,4"/>
<!-- Vala.CCodeBlock -->
<g id="node1" class="node">
<title>Vala.CCodeBlock</title>
<g id="a_node1"><a xlink:href="Vala.CCodeBlock.html" xlink:title="Vala.CCodeBlock">
<polygon fill="none" stroke="black" stroke-width="2" points="126,-36 11,-36 11,0 126,0 126,-36"/>
<text text-anchor="middle" x="68.5" y="-14.3" font-family="Times" font-size="14.00">Vala.CCodeBlock</text>
</a>
</g>
</g>
<!-- Vala.CCodeStatement -->
<g id="node2" class="node">
<title>Vala.CCodeStatement</title>
<g id="a_node2"><a xlink:href="Vala.CCodeStatement.html" xlink:title="Vala.CCodeStatement">
<polygon fill="none" stroke="black" stroke-width="2" points="137,-108 0,-108 0,-72 137,-72 137,-108"/>
<text text-anchor="middle" x="68.5" y="-86.3" font-family="Times" font-size="14.00">Vala.CCodeStatement</text>
</a>
</g>
</g>
<!-- Vala.CCodeStatement&#45;&gt;Vala.CCodeBlock -->
<g id="edge1" class="edge">
<title>Vala.CCodeStatement&#45;&gt;Vala.CCodeBlock</title>
<path fill="none" stroke="black" d="M68.5,-61.67C68.5,-53.05 68.5,-43.79 68.5,-36.1"/>
<polygon fill="black" stroke="black" points="65,-61.7 68.5,-71.7 72,-61.7 65,-61.7"/>
</g>
<!-- Vala.CCodeNode -->
<g id="node3" class="node">
<title>Vala.CCodeNode</title>
<g id="a_node3"><a xlink:href="Vala.CCodeNode.html" xlink:title="Vala.CCodeNode">
<polygon fill="none" stroke="black" stroke-width="2" points="124.5,-180 12.5,-180 12.5,-144 124.5,-144 124.5,-180"/>
<text text-anchor="middle" x="68.5" y="-158.3" font-family="Times" font-size="14.00">Vala.CCodeNode</text>
</a>
</g>
</g>
<!-- Vala.CCodeNode&#45;&gt;Vala.CCodeStatement -->
<g id="edge2" class="edge">
<title>Vala.CCodeNode&#45;&gt;Vala.CCodeStatement</title>
<path fill="none" stroke="black" d="M68.5,-133.67C68.5,-125.05 68.5,-115.79 68.5,-108.1"/>
<polygon fill="black" stroke="black" points="65,-133.7 68.5,-143.7 72,-133.7 65,-133.7"/>
</g>
</g>
</svg>
