<?xml version="1.0" encoding="UTF-8" standalone="no"?>
<!DOCTYPE svg PUBLIC "-//W3C//DTD SVG 1.1//EN"
 "http://www.w3.org/Graphics/SVG/1.1/DTD/svg11.dtd">
<!-- Generated by graphviz version 2.42.3 (0)
 -->
<!-- Title: Vala.CCodeMacroReplacement Pages: 1 -->
<svg width="198pt" height="188pt"
 viewBox="0.00 0.00 198.00 188.00" xmlns="http://www.w3.org/2000/svg" xmlns:xlink="http://www.w3.org/1999/xlink">
<g id="graph0" class="graph" transform="scale(1 1) rotate(0) translate(4 184)">
<title>Vala.CCodeMacroReplacement</title>
<polygon fill="white" stroke="transparent" points="-4,4 -4,-184 194,-184 194,4 -4,4"/>
<!-- Vala.CCodeMacroReplacement -->
<g id="node1" class="node">
<title>Vala.CCodeMacroReplacement</title>
<g id="a_node1"><a xlink:href="Vala.CCodeMacroReplacement.html" xlink:title="Vala.CCodeMacroReplacement">
<polygon fill="none" stroke="black" stroke-width="2" points="190,-36 0,-36 0,0 190,0 190,-36"/>
<text text-anchor="middle" x="95" y="-14.3" font-family="Times" font-size="14.00">Vala.CCodeMacroReplacement</text>
</a>
</g>
</g>
<!-- Vala.CCodeDefine -->
<g id="node2" class="node">
<title>Vala.CCodeDefine</title>
<g id="a_node2"><a xlink:href="Vala.CCodeDefine.html" xlink:title="Vala.CCodeDefine">
<polygon fill="none" stroke="black" stroke-width="2" points="154.5,-108 35.5,-108 35.5,-72 154.5,-72 154.5,-108"/>
<text text-anchor="middle" x="95" y="-86.3" font-family="Times" font-size="14.00">Vala.CCodeDefine</text>
</a>
</g>
</g>
<!-- Vala.CCodeDefine&#45;&gt;Vala.CCodeMacroReplacement -->
<g id="edge1" class="edge">
<title>Vala.CCodeDefine&#45;&gt;Vala.CCodeMacroReplacement</title>
<path fill="none" stroke="black" d="M95,-61.67C95,-53.05 95,-43.79 95,-36.1"/>
<polygon fill="black" stroke="black" points="91.5,-61.7 95,-71.7 98.5,-61.7 91.5,-61.7"/>
</g>
<!-- Vala.CCodeNode -->
<g id="node3" class="node">
<title>Vala.CCodeNode</title>
<g id="a_node3"><a xlink:href="Vala.CCodeNode.html" xlink:title="Vala.CCodeNode">
<polygon fill="none" stroke="black" stroke-width="2" points="151,-180 39,-180 39,-144 151,-144 151,-180"/>
<text text-anchor="middle" x="95" y="-158.3" font-family="Times" font-size="14.00">Vala.CCodeNode</text>
</a>
</g>
</g>
<!-- Vala.CCodeNode&#45;&gt;Vala.CCodeDefine -->
<g id="edge2" class="edge">
<title>Vala.CCodeNode&#45;&gt;Vala.CCodeDefine</title>
<path fill="none" stroke="black" d="M95,-133.67C95,-125.05 95,-115.79 95,-108.1"/>
<polygon fill="black" stroke="black" points="91.5,-133.7 95,-143.7 98.5,-133.7 91.5,-133.7"/>
</g>
</g>
</svg>
