<?xml version="1.0" encoding="UTF-8" standalone="no"?>
<!DOCTYPE svg PUBLIC "-//W3C//DTD SVG 1.1//EN"
 "http://www.w3.org/Graphics/SVG/1.1/DTD/svg11.dtd">
<!-- Generated by graphviz version 2.40.1 (0)
 -->
<!-- Title: Vala.CCodeIfSection Pages: 1 -->
<svg width="143pt" height="188pt"
 viewBox="0.00 0.00 143.00 188.00" xmlns="http://www.w3.org/2000/svg" xmlns:xlink="http://www.w3.org/1999/xlink">
<g id="graph0" class="graph" transform="scale(1 1) rotate(0) translate(4 184)">
<title>Vala.CCodeIfSection</title>
<polygon fill="#ffffff" stroke="transparent" points="-4,4 -4,-184 139,-184 139,4 -4,4"/>
<!-- Vala.CCodeIfSection -->
<g id="node1" class="node">
<title>Vala.CCodeIfSection</title>
<g id="a_node1"><a xlink:href="Vala.CCodeIfSection.html" xlink:title="Vala.CCodeIfSection">
<polygon fill="none" stroke="#000000" stroke-width="2" points="133.5,-36 1.5,-36 1.5,0 133.5,0 133.5,-36"/>
<text text-anchor="middle" x="67.5" y="-14.3" font-family="Times" font-size="14.00" fill="#000000">Vala.CCodeIfSection</text>
</a>
</g>
</g>
<!-- Vala.CCodeFragment -->
<g id="node2" class="node">
<title>Vala.CCodeFragment</title>
<g id="a_node2"><a xlink:href="Vala.CCodeFragment.html" xlink:title="Vala.CCodeFragment">
<polygon fill="none" stroke="#000000" stroke-width="2" points="135,-108 0,-108 0,-72 135,-72 135,-108"/>
<text text-anchor="middle" x="67.5" y="-86.3" font-family="Times" font-size="14.00" fill="#000000">Vala.CCodeFragment</text>
</a>
</g>
</g>
<!-- Vala.CCodeFragment&#45;&gt;Vala.CCodeIfSection -->
<g id="edge1" class="edge">
<title>Vala.CCodeFragment&#45;&gt;Vala.CCodeIfSection</title>
<path fill="none" stroke="#000000" d="M67.5,-61.5726C67.5,-53.1084 67.5,-44.0593 67.5,-36.4133"/>
<polygon fill="#000000" stroke="#000000" points="64.0001,-61.8313 67.5,-71.8314 71.0001,-61.8314 64.0001,-61.8313"/>
</g>
<!-- Vala.CCodeNode -->
<g id="node3" class="node">
<title>Vala.CCodeNode</title>
<g id="a_node3"><a xlink:href="Vala.CCodeNode.html" xlink:title="Vala.CCodeNode">
<polygon fill="none" stroke="#000000" stroke-width="2" points="123.5,-180 11.5,-180 11.5,-144 123.5,-144 123.5,-180"/>
<text text-anchor="middle" x="67.5" y="-158.3" font-family="Times" font-size="14.00" fill="#000000">Vala.CCodeNode</text>
</a>
</g>
</g>
<!-- Vala.CCodeNode&#45;&gt;Vala.CCodeFragment -->
<g id="edge2" class="edge">
<title>Vala.CCodeNode&#45;&gt;Vala.CCodeFragment</title>
<path fill="none" stroke="#000000" d="M67.5,-133.5726C67.5,-125.1084 67.5,-116.0593 67.5,-108.4133"/>
<polygon fill="#000000" stroke="#000000" points="64.0001,-133.8313 67.5,-143.8314 71.0001,-133.8314 64.0001,-133.8313"/>
</g>
</g>
</svg>
