<?xml version="1.0" encoding="UTF-8" standalone="no"?>
<!DOCTYPE svg PUBLIC "-//W3C//DTD SVG 1.1//EN"
 "http://www.w3.org/Graphics/SVG/1.1/DTD/svg11.dtd">
<!-- Generated by graphviz version 2.42.3 (0)
 -->
<!-- Title: Vala.CCodeFunctionCall Pages: 1 -->
<svg width="161pt" height="188pt"
 viewBox="0.00 0.00 161.00 188.00" xmlns="http://www.w3.org/2000/svg" xmlns:xlink="http://www.w3.org/1999/xlink">
<g id="graph0" class="graph" transform="scale(1 1) rotate(0) translate(4 184)">
<title>Vala.CCodeFunctionCall</title>
<polygon fill="white" stroke="transparent" points="-4,4 -4,-184 157,-184 157,4 -4,4"/>
<!-- Vala.CCodeFunctionCall -->
<g id="node1" class="node">
<title>Vala.CCodeFunctionCall</title>
<g id="a_node1"><a xlink:href="Vala.CCodeFunctionCall.html" xlink:title="Vala.CCodeFunctionCall">
<polygon fill="none" stroke="black" stroke-width="2" points="153,-36 0,-36 0,0 153,0 153,-36"/>
<text text-anchor="middle" x="76.5" y="-14.3" font-family="Times" font-size="14.00">Vala.CCodeFunctionCall</text>
</a>
</g>
</g>
<!-- Vala.CCodeExpression -->
<g id="node2" class="node">
<title>Vala.CCodeExpression</title>
<g id="a_node2"><a xlink:href="Vala.CCodeExpression.html" xlink:title="Vala.CCodeExpression">
<polygon fill="none" stroke="black" stroke-width="2" points="148,-108 5,-108 5,-72 148,-72 148,-108"/>
<text text-anchor="middle" x="76.5" y="-86.3" font-family="Times" font-size="14.00">Vala.CCodeExpression</text>
</a>
</g>
</g>
<!-- Vala.CCodeExpression&#45;&gt;Vala.CCodeFunctionCall -->
<g id="edge1" class="edge">
<title>Vala.CCodeExpression&#45;&gt;Vala.CCodeFunctionCall</title>
<path fill="none" stroke="black" d="M76.5,-61.67C76.5,-53.05 76.5,-43.79 76.5,-36.1"/>
<polygon fill="black" stroke="black" points="73,-61.7 76.5,-71.7 80,-61.7 73,-61.7"/>
</g>
<!-- Vala.CCodeNode -->
<g id="node3" class="node">
<title>Vala.CCodeNode</title>
<g id="a_node3"><a xlink:href="Vala.CCodeNode.html" xlink:title="Vala.CCodeNode">
<polygon fill="none" stroke="black" stroke-width="2" points="132.5,-180 20.5,-180 20.5,-144 132.5,-144 132.5,-180"/>
<text text-anchor="middle" x="76.5" y="-158.3" font-family="Times" font-size="14.00">Vala.CCodeNode</text>
</a>
</g>
</g>
<!-- Vala.CCodeNode&#45;&gt;Vala.CCodeExpression -->
<g id="edge2" class="edge">
<title>Vala.CCodeNode&#45;&gt;Vala.CCodeExpression</title>
<path fill="none" stroke="black" d="M76.5,-133.67C76.5,-125.05 76.5,-115.79 76.5,-108.1"/>
<polygon fill="black" stroke="black" points="73,-133.7 76.5,-143.7 80,-133.7 73,-133.7"/>
</g>
</g>
</svg>
