<?xml version="1.0" encoding="UTF-8" standalone="no"?>
<!DOCTYPE svg PUBLIC "-//W3C//DTD SVG 1.1//EN"
 "http://www.w3.org/Graphics/SVG/1.1/DTD/svg11.dtd">
<!-- Generated by graphviz version 2.40.1 (20161225.0304)
 -->
<!-- Title: Vala.CCodeExpressionStatement Pages: 1 -->
<svg width="233pt" height="188pt"
 viewBox="0.00 0.00 233.00 188.00" xmlns="http://www.w3.org/2000/svg" xmlns:xlink="http://www.w3.org/1999/xlink">
<g id="graph0" class="graph" transform="scale(1 1) rotate(0) translate(4 184)">
<title>Vala.CCodeExpressionStatement</title>
<polygon fill="#ffffff" stroke="transparent" points="-4,4 -4,-184 229,-184 229,4 -4,4"/>
<!-- Vala.CCodeExpressionStatement -->
<g id="node1" class="node">
<title>Vala.CCodeExpressionStatement</title>
<g id="a_node1"><a xlink:href="Vala.CCodeExpressionStatement.html" xlink:title="Vala.CCodeExpressionStatement">
<polygon fill="none" stroke="#000000" stroke-width="2" points="225,-36 0,-36 0,0 225,0 225,-36"/>
<text text-anchor="middle" x="112.5" y="-14.3" font-family="Times" font-size="14.00" fill="#000000">Vala.CCodeExpressionStatement</text>
</a>
</g>
</g>
<!-- Vala.CCodeStatement -->
<g id="node2" class="node">
<title>Vala.CCodeStatement</title>
<g id="a_node2"><a xlink:href="Vala.CCodeStatement.html" xlink:title="Vala.CCodeStatement">
<polygon fill="none" stroke="#000000" stroke-width="2" points="190,-108 35,-108 35,-72 190,-72 190,-108"/>
<text text-anchor="middle" x="112.5" y="-86.3" font-family="Times" font-size="14.00" fill="#000000">Vala.CCodeStatement</text>
</a>
</g>
</g>
<!-- Vala.CCodeStatement&#45;&gt;Vala.CCodeExpressionStatement -->
<g id="edge1" class="edge">
<title>Vala.CCodeStatement&#45;&gt;Vala.CCodeExpressionStatement</title>
<path fill="none" stroke="#000000" d="M112.5,-61.5726C112.5,-53.1084 112.5,-44.0593 112.5,-36.4133"/>
<polygon fill="#000000" stroke="#000000" points="109.0001,-61.8313 112.5,-71.8314 116.0001,-61.8314 109.0001,-61.8313"/>
</g>
<!-- Vala.CCodeNode -->
<g id="node3" class="node">
<title>Vala.CCodeNode</title>
<g id="a_node3"><a xlink:href="Vala.CCodeNode.html" xlink:title="Vala.CCodeNode">
<polygon fill="none" stroke="#000000" stroke-width="2" points="173.5,-180 51.5,-180 51.5,-144 173.5,-144 173.5,-180"/>
<text text-anchor="middle" x="112.5" y="-158.3" font-family="Times" font-size="14.00" fill="#000000">Vala.CCodeNode</text>
</a>
</g>
</g>
<!-- Vala.CCodeNode&#45;&gt;Vala.CCodeStatement -->
<g id="edge2" class="edge">
<title>Vala.CCodeNode&#45;&gt;Vala.CCodeStatement</title>
<path fill="none" stroke="#000000" d="M112.5,-133.5726C112.5,-125.1084 112.5,-116.0593 112.5,-108.4133"/>
<polygon fill="#000000" stroke="#000000" points="109.0001,-133.8313 112.5,-143.8314 116.0001,-133.8314 109.0001,-133.8313"/>
</g>
</g>
</svg>
