<?xml version="1.0" encoding="UTF-8" standalone="no"?>
<!DOCTYPE svg PUBLIC "-//W3C//DTD SVG 1.1//EN"
 "http://www.w3.org/Graphics/SVG/1.1/DTD/svg11.dtd">
<!-- Generated by graphviz version 2.40.1 (20161225.0304)
 -->
<!-- Title: Vala.CCodeReturnStatement Pages: 1 -->
<svg width="207pt" height="188pt"
 viewBox="0.00 0.00 207.00 188.00" xmlns="http://www.w3.org/2000/svg" xmlns:xlink="http://www.w3.org/1999/xlink">
<g id="graph0" class="graph" transform="scale(1 1) rotate(0) translate(4 184)">
<title>Vala.CCodeReturnStatement</title>
<polygon fill="#ffffff" stroke="transparent" points="-4,4 -4,-184 203,-184 203,4 -4,4"/>
<!-- Vala.CCodeReturnStatement -->
<g id="node1" class="node">
<title>Vala.CCodeReturnStatement</title>
<g id="a_node1"><a xlink:href="Vala.CCodeReturnStatement.html" xlink:title="Vala.CCodeReturnStatement">
<polygon fill="none" stroke="#000000" stroke-width="2" points="199,-36 0,-36 0,0 199,0 199,-36"/>
<text text-anchor="middle" x="99.5" y="-14.3" font-family="Times" font-size="14.00" fill="#000000">Vala.CCodeReturnStatement</text>
</a>
</g>
</g>
<!-- Vala.CCodeStatement -->
<g id="node2" class="node">
<title>Vala.CCodeStatement</title>
<g id="a_node2"><a xlink:href="Vala.CCodeStatement.html" xlink:title="Vala.CCodeStatement">
<polygon fill="none" stroke="#000000" stroke-width="2" points="177,-108 22,-108 22,-72 177,-72 177,-108"/>
<text text-anchor="middle" x="99.5" y="-86.3" font-family="Times" font-size="14.00" fill="#000000">Vala.CCodeStatement</text>
</a>
</g>
</g>
<!-- Vala.CCodeStatement&#45;&gt;Vala.CCodeReturnStatement -->
<g id="edge1" class="edge">
<title>Vala.CCodeStatement&#45;&gt;Vala.CCodeReturnStatement</title>
<path fill="none" stroke="#000000" d="M99.5,-61.5726C99.5,-53.1084 99.5,-44.0593 99.5,-36.4133"/>
<polygon fill="#000000" stroke="#000000" points="96.0001,-61.8313 99.5,-71.8314 103.0001,-61.8314 96.0001,-61.8313"/>
</g>
<!-- Vala.CCodeNode -->
<g id="node3" class="node">
<title>Vala.CCodeNode</title>
<g id="a_node3"><a xlink:href="Vala.CCodeNode.html" xlink:title="Vala.CCodeNode">
<polygon fill="none" stroke="#000000" stroke-width="2" points="160.5,-180 38.5,-180 38.5,-144 160.5,-144 160.5,-180"/>
<text text-anchor="middle" x="99.5" y="-158.3" font-family="Times" font-size="14.00" fill="#000000">Vala.CCodeNode</text>
</a>
</g>
</g>
<!-- Vala.CCodeNode&#45;&gt;Vala.CCodeStatement -->
<g id="edge2" class="edge">
<title>Vala.CCodeNode&#45;&gt;Vala.CCodeStatement</title>
<path fill="none" stroke="#000000" d="M99.5,-133.5726C99.5,-125.1084 99.5,-116.0593 99.5,-108.4133"/>
<polygon fill="#000000" stroke="#000000" points="96.0001,-133.8313 99.5,-143.8314 103.0001,-133.8314 96.0001,-133.8313"/>
</g>
</g>
</svg>
