<?xml version="1.0" encoding="UTF-8" standalone="no"?>
<!DOCTYPE svg PUBLIC "-//W3C//DTD SVG 1.1//EN"
 "http://www.w3.org/Graphics/SVG/1.1/DTD/svg11.dtd">
<!-- Generated by graphviz version 2.40.1 (20161225.0304)
 -->
<!-- Title: Vala.CCodeEmptyStatement Pages: 1 -->
<svg width="181pt" height="188pt"
 viewBox="0.00 0.00 181.00 188.00" xmlns="http://www.w3.org/2000/svg" xmlns:xlink="http://www.w3.org/1999/xlink">
<g id="graph0" class="graph" transform="scale(1 1) rotate(0) translate(4 184)">
<title>Vala.CCodeEmptyStatement</title>
<polygon fill="#ffffff" stroke="transparent" points="-4,4 -4,-184 177,-184 177,4 -4,4"/>
<!-- Vala.CCodeEmptyStatement -->
<g id="node1" class="node">
<title>Vala.CCodeEmptyStatement</title>
<g id="a_node1"><a xlink:href="Vala.CCodeEmptyStatement.html" xlink:title="Vala.CCodeEmptyStatement">
<polygon fill="none" stroke="#000000" stroke-width="2" points="173,-36 0,-36 0,0 173,0 173,-36"/>
<text text-anchor="middle" x="86.5" y="-14.3" font-family="Times" font-size="14.00" fill="#000000">Vala.CCodeEmptyStatement</text>
</a>
</g>
</g>
<!-- Vala.CCodeStatement -->
<g id="node2" class="node">
<title>Vala.CCodeStatement</title>
<g id="a_node2"><a xlink:href="Vala.CCodeStatement.html" xlink:title="Vala.CCodeStatement">
<polygon fill="none" stroke="#000000" stroke-width="2" points="155,-108 18,-108 18,-72 155,-72 155,-108"/>
<text text-anchor="middle" x="86.5" y="-86.3" font-family="Times" font-size="14.00" fill="#000000">Vala.CCodeStatement</text>
</a>
</g>
</g>
<!-- Vala.CCodeStatement&#45;&gt;Vala.CCodeEmptyStatement -->
<g id="edge1" class="edge">
<title>Vala.CCodeStatement&#45;&gt;Vala.CCodeEmptyStatement</title>
<path fill="none" stroke="#000000" d="M86.5,-61.5726C86.5,-53.1084 86.5,-44.0593 86.5,-36.4133"/>
<polygon fill="#000000" stroke="#000000" points="83.0001,-61.8313 86.5,-71.8314 90.0001,-61.8314 83.0001,-61.8313"/>
</g>
<!-- Vala.CCodeNode -->
<g id="node3" class="node">
<title>Vala.CCodeNode</title>
<g id="a_node3"><a xlink:href="Vala.CCodeNode.html" xlink:title="Vala.CCodeNode">
<polygon fill="none" stroke="#000000" stroke-width="2" points="142,-180 31,-180 31,-144 142,-144 142,-180"/>
<text text-anchor="middle" x="86.5" y="-158.3" font-family="Times" font-size="14.00" fill="#000000">Vala.CCodeNode</text>
</a>
</g>
</g>
<!-- Vala.CCodeNode&#45;&gt;Vala.CCodeStatement -->
<g id="edge2" class="edge">
<title>Vala.CCodeNode&#45;&gt;Vala.CCodeStatement</title>
<path fill="none" stroke="#000000" d="M86.5,-133.5726C86.5,-125.1084 86.5,-116.0593 86.5,-108.4133"/>
<polygon fill="#000000" stroke="#000000" points="83.0001,-133.8313 86.5,-143.8314 90.0001,-133.8314 83.0001,-133.8313"/>
</g>
</g>
</svg>
