<?xml version="1.0" encoding="UTF-8" standalone="no"?>
<!DOCTYPE svg PUBLIC "-//W3C//DTD SVG 1.1//EN"
 "http://www.w3.org/Graphics/SVG/1.1/DTD/svg11.dtd">
<!-- Generated by graphviz version 2.40.1 (20161225.0304)
 -->
<!-- Title: Vala.CCodeUnaryExpression Pages: 1 -->
<svg width="205pt" height="188pt"
 viewBox="0.00 0.00 205.00 188.00" xmlns="http://www.w3.org/2000/svg" xmlns:xlink="http://www.w3.org/1999/xlink">
<g id="graph0" class="graph" transform="scale(1 1) rotate(0) translate(4 184)">
<title>Vala.CCodeUnaryExpression</title>
<polygon fill="#ffffff" stroke="transparent" points="-4,4 -4,-184 201,-184 201,4 -4,4"/>
<!-- Vala.CCodeUnaryExpression -->
<g id="node1" class="node">
<title>Vala.CCodeUnaryExpression</title>
<g id="a_node1"><a xlink:href="Vala.CCodeUnaryExpression.html" xlink:title="Vala.CCodeUnaryExpression">
<polygon fill="none" stroke="#000000" stroke-width="2" points="197,-36 0,-36 0,0 197,0 197,-36"/>
<text text-anchor="middle" x="98.5" y="-14.3" font-family="Times" font-size="14.00" fill="#000000">Vala.CCodeUnaryExpression</text>
</a>
</g>
</g>
<!-- Vala.CCodeExpression -->
<g id="node2" class="node">
<title>Vala.CCodeExpression</title>
<g id="a_node2"><a xlink:href="Vala.CCodeExpression.html" xlink:title="Vala.CCodeExpression">
<polygon fill="none" stroke="#000000" stroke-width="2" points="177.5,-108 19.5,-108 19.5,-72 177.5,-72 177.5,-108"/>
<text text-anchor="middle" x="98.5" y="-86.3" font-family="Times" font-size="14.00" fill="#000000">Vala.CCodeExpression</text>
</a>
</g>
</g>
<!-- Vala.CCodeExpression&#45;&gt;Vala.CCodeUnaryExpression -->
<g id="edge1" class="edge">
<title>Vala.CCodeExpression&#45;&gt;Vala.CCodeUnaryExpression</title>
<path fill="none" stroke="#000000" d="M98.5,-61.5726C98.5,-53.1084 98.5,-44.0593 98.5,-36.4133"/>
<polygon fill="#000000" stroke="#000000" points="95.0001,-61.8313 98.5,-71.8314 102.0001,-61.8314 95.0001,-61.8313"/>
</g>
<!-- Vala.CCodeNode -->
<g id="node3" class="node">
<title>Vala.CCodeNode</title>
<g id="a_node3"><a xlink:href="Vala.CCodeNode.html" xlink:title="Vala.CCodeNode">
<polygon fill="none" stroke="#000000" stroke-width="2" points="159.5,-180 37.5,-180 37.5,-144 159.5,-144 159.5,-180"/>
<text text-anchor="middle" x="98.5" y="-158.3" font-family="Times" font-size="14.00" fill="#000000">Vala.CCodeNode</text>
</a>
</g>
</g>
<!-- Vala.CCodeNode&#45;&gt;Vala.CCodeExpression -->
<g id="edge2" class="edge">
<title>Vala.CCodeNode&#45;&gt;Vala.CCodeExpression</title>
<path fill="none" stroke="#000000" d="M98.5,-133.5726C98.5,-125.1084 98.5,-116.0593 98.5,-108.4133"/>
<polygon fill="#000000" stroke="#000000" points="95.0001,-133.8313 98.5,-143.8314 102.0001,-133.8314 95.0001,-133.8313"/>
</g>
</g>
</svg>
