<?xml version="1.0" encoding="UTF-8" standalone="no"?>
<!DOCTYPE svg PUBLIC "-//W3C//DTD SVG 1.1//EN"
 "http://www.w3.org/Graphics/SVG/1.1/DTD/svg11.dtd">
<!-- Generated by graphviz version 2.42.3 (0)
 -->
<!-- Title: Vala.CCodeAssignment Pages: 1 -->
<svg width="156pt" height="188pt"
 viewBox="0.00 0.00 156.00 188.00" xmlns="http://www.w3.org/2000/svg" xmlns:xlink="http://www.w3.org/1999/xlink">
<g id="graph0" class="graph" transform="scale(1 1) rotate(0) translate(4 184)">
<title>Vala.CCodeAssignment</title>
<polygon fill="white" stroke="transparent" points="-4,4 -4,-184 152,-184 152,4 -4,4"/>
<!-- Vala.CCodeAssignment -->
<g id="node1" class="node">
<title>Vala.CCodeAssignment</title>
<g id="a_node1"><a xlink:href="Vala.CCodeAssignment.html" xlink:title="Vala.CCodeAssignment">
<polygon fill="none" stroke="black" stroke-width="2" points="148,-36 0,-36 0,0 148,0 148,-36"/>
<text text-anchor="middle" x="74" y="-14.3" font-family="Times" font-size="14.00">Vala.CCodeAssignment</text>
</a>
</g>
</g>
<!-- Vala.CCodeExpression -->
<g id="node2" class="node">
<title>Vala.CCodeExpression</title>
<g id="a_node2"><a xlink:href="Vala.CCodeExpression.html" xlink:title="Vala.CCodeExpression">
<polygon fill="none" stroke="black" stroke-width="2" points="145.5,-108 2.5,-108 2.5,-72 145.5,-72 145.5,-108"/>
<text text-anchor="middle" x="74" y="-86.3" font-family="Times" font-size="14.00">Vala.CCodeExpression</text>
</a>
</g>
</g>
<!-- Vala.CCodeExpression&#45;&gt;Vala.CCodeAssignment -->
<g id="edge1" class="edge">
<title>Vala.CCodeExpression&#45;&gt;Vala.CCodeAssignment</title>
<path fill="none" stroke="black" d="M74,-61.67C74,-53.05 74,-43.79 74,-36.1"/>
<polygon fill="black" stroke="black" points="70.5,-61.7 74,-71.7 77.5,-61.7 70.5,-61.7"/>
</g>
<!-- Vala.CCodeNode -->
<g id="node3" class="node">
<title>Vala.CCodeNode</title>
<g id="a_node3"><a xlink:href="Vala.CCodeNode.html" xlink:title="Vala.CCodeNode">
<polygon fill="none" stroke="black" stroke-width="2" points="130,-180 18,-180 18,-144 130,-144 130,-180"/>
<text text-anchor="middle" x="74" y="-158.3" font-family="Times" font-size="14.00">Vala.CCodeNode</text>
</a>
</g>
</g>
<!-- Vala.CCodeNode&#45;&gt;Vala.CCodeExpression -->
<g id="edge2" class="edge">
<title>Vala.CCodeNode&#45;&gt;Vala.CCodeExpression</title>
<path fill="none" stroke="black" d="M74,-133.67C74,-125.05 74,-115.79 74,-108.1"/>
<polygon fill="black" stroke="black" points="70.5,-133.7 74,-143.7 77.5,-133.7 70.5,-133.7"/>
</g>
</g>
</svg>
