<?xml version="1.0" encoding="UTF-8" standalone="no"?>
<!DOCTYPE svg PUBLIC "-//W3C//DTD SVG 1.1//EN"
 "http://www.w3.org/Graphics/SVG/1.1/DTD/svg11.dtd">
<!-- Generated by graphviz version 2.40.1 (20161225.0304)
 -->
<!-- Title: Vala.CCodeBreakStatement Pages: 1 -->
<svg width="200pt" height="188pt"
 viewBox="0.00 0.00 200.00 188.00" xmlns="http://www.w3.org/2000/svg" xmlns:xlink="http://www.w3.org/1999/xlink">
<g id="graph0" class="graph" transform="scale(1 1) rotate(0) translate(4 184)">
<title>Vala.CCodeBreakStatement</title>
<polygon fill="#ffffff" stroke="transparent" points="-4,4 -4,-184 196,-184 196,4 -4,4"/>
<!-- Vala.CCodeBreakStatement -->
<g id="node1" class="node">
<title>Vala.CCodeBreakStatement</title>
<g id="a_node1"><a xlink:href="Vala.CCodeBreakStatement.html" xlink:title="Vala.CCodeBreakStatement">
<polygon fill="none" stroke="#000000" stroke-width="2" points="192,-36 0,-36 0,0 192,0 192,-36"/>
<text text-anchor="middle" x="96" y="-14.3" font-family="Times" font-size="14.00" fill="#000000">Vala.CCodeBreakStatement</text>
</a>
</g>
</g>
<!-- Vala.CCodeStatement -->
<g id="node2" class="node">
<title>Vala.CCodeStatement</title>
<g id="a_node2"><a xlink:href="Vala.CCodeStatement.html" xlink:title="Vala.CCodeStatement">
<polygon fill="none" stroke="#000000" stroke-width="2" points="173.5,-108 18.5,-108 18.5,-72 173.5,-72 173.5,-108"/>
<text text-anchor="middle" x="96" y="-86.3" font-family="Times" font-size="14.00" fill="#000000">Vala.CCodeStatement</text>
</a>
</g>
</g>
<!-- Vala.CCodeStatement&#45;&gt;Vala.CCodeBreakStatement -->
<g id="edge1" class="edge">
<title>Vala.CCodeStatement&#45;&gt;Vala.CCodeBreakStatement</title>
<path fill="none" stroke="#000000" d="M96,-61.5726C96,-53.1084 96,-44.0593 96,-36.4133"/>
<polygon fill="#000000" stroke="#000000" points="92.5001,-61.8313 96,-71.8314 99.5001,-61.8314 92.5001,-61.8313"/>
</g>
<!-- Vala.CCodeNode -->
<g id="node3" class="node">
<title>Vala.CCodeNode</title>
<g id="a_node3"><a xlink:href="Vala.CCodeNode.html" xlink:title="Vala.CCodeNode">
<polygon fill="none" stroke="#000000" stroke-width="2" points="157,-180 35,-180 35,-144 157,-144 157,-180"/>
<text text-anchor="middle" x="96" y="-158.3" font-family="Times" font-size="14.00" fill="#000000">Vala.CCodeNode</text>
</a>
</g>
</g>
<!-- Vala.CCodeNode&#45;&gt;Vala.CCodeStatement -->
<g id="edge2" class="edge">
<title>Vala.CCodeNode&#45;&gt;Vala.CCodeStatement</title>
<path fill="none" stroke="#000000" d="M96,-133.5726C96,-125.1084 96,-116.0593 96,-108.4133"/>
<polygon fill="#000000" stroke="#000000" points="92.5001,-133.8313 96,-143.8314 99.5001,-133.8314 92.5001,-133.8313"/>
</g>
</g>
</svg>
