<?xml version="1.0" encoding="UTF-8" standalone="no"?>
<!DOCTYPE svg PUBLIC "-//W3C//DTD SVG 1.1//EN"
 "http://www.w3.org/Graphics/SVG/1.1/DTD/svg11.dtd">
<!-- Generated by graphviz version 2.42.3 (0)
 -->
<!-- Title: Vala.CCodeParenthesizedExpression Pages: 1 -->
<svg width="226pt" height="188pt"
 viewBox="0.00 0.00 226.00 188.00" xmlns="http://www.w3.org/2000/svg" xmlns:xlink="http://www.w3.org/1999/xlink">
<g id="graph0" class="graph" transform="scale(1 1) rotate(0) translate(4 184)">
<title>Vala.CCodeParenthesizedExpression</title>
<polygon fill="white" stroke="transparent" points="-4,4 -4,-184 222,-184 222,4 -4,4"/>
<!-- Vala.CCodeParenthesizedExpression -->
<g id="node1" class="node">
<title>Vala.CCodeParenthesizedExpression</title>
<g id="a_node1"><a xlink:href="Vala.CCodeParenthesizedExpression.html" xlink:title="Vala.CCodeParenthesizedExpression">
<polygon fill="none" stroke="black" stroke-width="2" points="218,-36 0,-36 0,0 218,0 218,-36"/>
<text text-anchor="middle" x="109" y="-14.3" font-family="Times" font-size="14.00">Vala.CCodeParenthesizedExpression</text>
</a>
</g>
</g>
<!-- Vala.CCodeExpression -->
<g id="node2" class="node">
<title>Vala.CCodeExpression</title>
<g id="a_node2"><a xlink:href="Vala.CCodeExpression.html" xlink:title="Vala.CCodeExpression">
<polygon fill="none" stroke="black" stroke-width="2" points="180.5,-108 37.5,-108 37.5,-72 180.5,-72 180.5,-108"/>
<text text-anchor="middle" x="109" y="-86.3" font-family="Times" font-size="14.00">Vala.CCodeExpression</text>
</a>
</g>
</g>
<!-- Vala.CCodeExpression&#45;&gt;Vala.CCodeParenthesizedExpression -->
<g id="edge1" class="edge">
<title>Vala.CCodeExpression&#45;&gt;Vala.CCodeParenthesizedExpression</title>
<path fill="none" stroke="black" d="M109,-61.67C109,-53.05 109,-43.79 109,-36.1"/>
<polygon fill="black" stroke="black" points="105.5,-61.7 109,-71.7 112.5,-61.7 105.5,-61.7"/>
</g>
<!-- Vala.CCodeNode -->
<g id="node3" class="node">
<title>Vala.CCodeNode</title>
<g id="a_node3"><a xlink:href="Vala.CCodeNode.html" xlink:title="Vala.CCodeNode">
<polygon fill="none" stroke="black" stroke-width="2" points="165,-180 53,-180 53,-144 165,-144 165,-180"/>
<text text-anchor="middle" x="109" y="-158.3" font-family="Times" font-size="14.00">Vala.CCodeNode</text>
</a>
</g>
</g>
<!-- Vala.CCodeNode&#45;&gt;Vala.CCodeExpression -->
<g id="edge2" class="edge">
<title>Vala.CCodeNode&#45;&gt;Vala.CCodeExpression</title>
<path fill="none" stroke="black" d="M109,-133.67C109,-125.05 109,-115.79 109,-108.1"/>
<polygon fill="black" stroke="black" points="105.5,-133.7 109,-143.7 112.5,-133.7 105.5,-133.7"/>
</g>
</g>
</svg>
