<?xml version="1.0" encoding="UTF-8" standalone="no"?>
<!DOCTYPE svg PUBLIC "-//W3C//DTD SVG 1.1//EN"
 "http://www.w3.org/Graphics/SVG/1.1/DTD/svg11.dtd">
<!-- Generated by graphviz version 2.40.1 (20161225.0304)
 -->
<!-- Title: Valadoc.Content.Embedded Pages: 1 -->
<svg width="662pt" height="188pt"
 viewBox="0.00 0.00 662.00 188.00" xmlns="http://www.w3.org/2000/svg" xmlns:xlink="http://www.w3.org/1999/xlink">
<g id="graph0" class="graph" transform="scale(1 1) rotate(0) translate(4 184)">
<title>Valadoc.Content.Embedded</title>
<polygon fill="#ffffff" stroke="transparent" points="-4,4 -4,-184 658,-184 658,4 -4,4"/>
<!-- Valadoc.Content.Embedded -->
<g id="node1" class="node">
<title>Valadoc.Content.Embedded</title>
<g id="a_node1"><a xlink:href="Valadoc.Content.Embedded.html" xlink:title="Valadoc.Content.Embedded">
<polygon fill="none" stroke="#000000" stroke-width="2" points="427,-36 233,-36 233,0 427,0 427,-36"/>
<text text-anchor="middle" x="330" y="-14.3" font-family="Times" font-size="14.00" fill="#000000">Valadoc.Content.Embedded</text>
</a>
</g>
</g>
<!-- Valadoc.Content.ContentElement -->
<g id="node2" class="node">
<title>Valadoc.Content.ContentElement</title>
<g id="a_node2"><a xlink:href="Valadoc.Content.ContentElement.html" xlink:title="Valadoc.Content.ContentElement">
<polygon fill="none" stroke="#000000" stroke-width="2" points="230,-108 0,-108 0,-72 230,-72 230,-108"/>
<text text-anchor="middle" x="115" y="-86.3" font-family="Times" font-size="14.00" fill="#000000">Valadoc.Content.ContentElement</text>
</a>
</g>
</g>
<!-- Valadoc.Content.ContentElement&#45;&gt;Valadoc.Content.Embedded -->
<g id="edge1" class="edge">
<title>Valadoc.Content.ContentElement&#45;&gt;Valadoc.Content.Embedded</title>
<path fill="none" stroke="#000000" d="M178.7978,-68.6351C209.7294,-58.2767 246.4786,-45.97 276.0017,-36.0831"/>
<polygon fill="#000000" stroke="#000000" points="177.347,-65.4299 168.9761,-71.9243 179.5699,-72.0676 177.347,-65.4299"/>
</g>
<!-- GLib.Object -->
<g id="node3" class="node">
<title>GLib.Object</title>
<polygon fill="none" stroke="#000000" stroke-width="2" points="161,-180 69,-180 69,-144 161,-144 161,-180"/>
<text text-anchor="middle" x="115" y="-158.3" font-family="Times" font-size="14.00" fill="#000000">GLib.Object</text>
</g>
<!-- GLib.Object&#45;&gt;Valadoc.Content.ContentElement -->
<g id="edge2" class="edge">
<title>GLib.Object&#45;&gt;Valadoc.Content.ContentElement</title>
<path fill="none" stroke="#000000" d="M115,-133.5726C115,-125.1084 115,-116.0593 115,-108.4133"/>
<polygon fill="#000000" stroke="#000000" points="111.5001,-133.8313 115,-143.8314 118.5001,-133.8314 111.5001,-133.8313"/>
</g>
<!-- Valadoc.Content.Inline -->
<g id="node4" class="node">
<title>Valadoc.Content.Inline</title>
<g id="a_node4"><a xlink:href="Valadoc.Content.Inline.html" xlink:title="Valadoc.Content.Inline">
<polygon fill="none" stroke="#000000" points="411.5,-108 248.5,-108 248.5,-72 411.5,-72 411.5,-108"/>
<text text-anchor="middle" x="330" y="-86.3" font-family="Times" font-size="14.00" fill="#000000">Valadoc.Content.Inline</text>
</a>
</g>
</g>
<!-- Valadoc.Content.Inline&#45;&gt;Valadoc.Content.Embedded -->
<g id="edge3" class="edge">
<title>Valadoc.Content.Inline&#45;&gt;Valadoc.Content.Embedded</title>
<path fill="none" stroke="#000000" d="M330,-61.5726C330,-53.1084 330,-44.0593 330,-36.4133"/>
<polygon fill="#000000" stroke="#000000" points="326.5001,-61.8313 330,-71.8314 333.5001,-61.8314 326.5001,-61.8313"/>
</g>
<!-- Valadoc.Content.StyleAttributes -->
<g id="node5" class="node">
<title>Valadoc.Content.StyleAttributes</title>
<g id="a_node5"><a xlink:href="Valadoc.Content.StyleAttributes.html" xlink:title="Valadoc.Content.StyleAttributes">
<polygon fill="none" stroke="#000000" points="654,-108 430,-108 430,-72 654,-72 654,-108"/>
<text text-anchor="middle" x="542" y="-86.3" font-family="Times" font-size="14.00" fill="#000000">Valadoc.Content.StyleAttributes</text>
</a>
</g>
</g>
<!-- Valadoc.Content.StyleAttributes&#45;&gt;Valadoc.Content.Embedded -->
<g id="edge4" class="edge">
<title>Valadoc.Content.StyleAttributes&#45;&gt;Valadoc.Content.Embedded</title>
<path fill="none" stroke="#000000" d="M479.0924,-68.6351C448.5924,-58.2767 412.356,-45.97 383.2448,-36.0831"/>
<polygon fill="#000000" stroke="#000000" points="478.1827,-72.0225 488.7771,-71.9243 480.4338,-65.3943 478.1827,-72.0225"/>
</g>
</g>
</svg>
