<?xml version="1.0" encoding="UTF-8" standalone="no"?>
<!DOCTYPE svg PUBLIC "-//W3C//DTD SVG 1.1//EN"
 "http://www.w3.org/Graphics/SVG/1.1/DTD/svg11.dtd">
<!-- Generated by graphviz version 2.40.1 (0)
 -->
<!-- Title: Valadoc.Html.BasicDoclet Pages: 1 -->
<svg width="254pt" height="188pt"
 viewBox="0.00 0.00 253.50 188.00" xmlns="http://www.w3.org/2000/svg" xmlns:xlink="http://www.w3.org/1999/xlink">
<g id="graph0" class="graph" transform="scale(1 1) rotate(0) translate(4 184)">
<title>Valadoc.Html.BasicDoclet</title>
<polygon fill="#ffffff" stroke="transparent" points="-4,4 -4,-184 249.5,-184 249.5,4 -4,4"/>
<!-- Valadoc.Html.BasicDoclet -->
<g id="node1" class="node">
<title>Valadoc.Html.BasicDoclet</title>
<g id="a_node1"><a xlink:href="Valadoc.Html.BasicDoclet.html" xlink:title="Valadoc.Html.BasicDoclet">
<polygon fill="none" stroke="#000000" stroke-width="2" points="210.5,-36 47.5,-36 47.5,0 210.5,0 210.5,-36"/>
<text text-anchor="middle" x="129" y="-14.3" font-family="Times" font-size="14.00" fill="#000000">Valadoc.Html.BasicDoclet</text>
</a>
</g>
</g>
<!-- Valadoc.Api.Visitor -->
<g id="node2" class="node">
<title>Valadoc.Api.Visitor</title>
<g id="a_node2"><a xlink:href="Valadoc.Api.Visitor.html" xlink:title="Valadoc.Api.Visitor">
<polygon fill="none" stroke="#000000" stroke-width="2" points="126,-108 0,-108 0,-72 126,-72 126,-108"/>
<text text-anchor="middle" x="63" y="-86.3" font-family="Times" font-size="14.00" fill="#000000">Valadoc.Api.Visitor</text>
</a>
</g>
</g>
<!-- Valadoc.Api.Visitor&#45;&gt;Valadoc.Html.BasicDoclet -->
<g id="edge1" class="edge">
<title>Valadoc.Api.Visitor&#45;&gt;Valadoc.Html.BasicDoclet</title>
<path fill="none" stroke="#000000" d="M86.4946,-64.3696C94.9581,-55.1366 104.3336,-44.9088 112.1212,-36.4133"/>
<polygon fill="#000000" stroke="#000000" points="83.8318,-62.0947 79.6546,-71.8314 88.9919,-66.8248 83.8318,-62.0947"/>
</g>
<!-- GLib.Object -->
<g id="node3" class="node">
<title>GLib.Object</title>
<g id="a_node3"><a xlink:href="../gobject-2.0/GLib.Object.html" xlink:title="GLib.Object">
<polygon fill="none" stroke="#000000" stroke-width="2" points="105.5,-180 20.5,-180 20.5,-144 105.5,-144 105.5,-180"/>
<text text-anchor="middle" x="63" y="-158.3" font-family="Times" font-size="14.00" fill="#000000">GLib.Object</text>
</a>
</g>
</g>
<!-- GLib.Object&#45;&gt;Valadoc.Api.Visitor -->
<g id="edge2" class="edge">
<title>GLib.Object&#45;&gt;Valadoc.Api.Visitor</title>
<path fill="none" stroke="#000000" d="M63,-133.5726C63,-125.1084 63,-116.0593 63,-108.4133"/>
<polygon fill="#000000" stroke="#000000" points="59.5001,-133.8313 63,-143.8314 66.5001,-133.8314 59.5001,-133.8313"/>
</g>
<!-- Valadoc.Doclet -->
<g id="node4" class="node">
<title>Valadoc.Doclet</title>
<g id="a_node4"><a xlink:href="Valadoc.Doclet.html" xlink:title="Valadoc.Doclet">
<polygon fill="none" stroke="#000000" points="245.5,-108 144.5,-108 144.5,-72 245.5,-72 245.5,-108"/>
<text text-anchor="middle" x="195" y="-86.3" font-family="Times" font-size="14.00" fill="#000000">Valadoc.Doclet</text>
</a>
</g>
</g>
<!-- Valadoc.Doclet&#45;&gt;Valadoc.Html.BasicDoclet -->
<g id="edge3" class="edge">
<title>Valadoc.Doclet&#45;&gt;Valadoc.Html.BasicDoclet</title>
<path fill="none" stroke="#000000" d="M171.5054,-64.3696C163.0419,-55.1366 153.6664,-44.9088 145.8788,-36.4133"/>
<polygon fill="#000000" stroke="#000000" points="169.0081,-66.8248 178.3454,-71.8314 174.1682,-62.0947 169.0081,-66.8248"/>
</g>
</g>
</svg>
