<?xml version="1.0" encoding="UTF-8" standalone="no"?>
<!DOCTYPE svg PUBLIC "-//W3C//DTD SVG 1.1//EN"
 "http://www.w3.org/Graphics/SVG/1.1/DTD/svg11.dtd">
<!-- Generated by graphviz version 2.42.3 (0)
 -->
<!-- Title: Valadoc.SequenceRule Pages: 1 -->
<svg width="150pt" height="188pt"
 viewBox="0.00 0.00 150.00 188.00" xmlns="http://www.w3.org/2000/svg" xmlns:xlink="http://www.w3.org/1999/xlink">
<g id="graph0" class="graph" transform="scale(1 1) rotate(0) translate(4 184)">
<title>Valadoc.SequenceRule</title>
<polygon fill="white" stroke="transparent" points="-4,4 -4,-184 146,-184 146,4 -4,4"/>
<!-- Valadoc.SequenceRule -->
<g id="node1" class="node">
<title>Valadoc.SequenceRule</title>
<g id="a_node1"><a xlink:href="Valadoc.SequenceRule.html" xlink:title="Valadoc.SequenceRule">
<polygon fill="none" stroke="black" stroke-width="2" points="142,-36 0,-36 0,0 142,0 142,-36"/>
<text text-anchor="middle" x="71" y="-14.3" font-family="Times" font-size="14.00">Valadoc.SequenceRule</text>
</a>
</g>
</g>
<!-- Valadoc.Rule -->
<g id="node2" class="node">
<title>Valadoc.Rule</title>
<g id="a_node2"><a xlink:href="Valadoc.Rule.html" xlink:title="Valadoc.Rule">
<polygon fill="none" stroke="black" stroke-width="2" points="116,-108 26,-108 26,-72 116,-72 116,-108"/>
<text text-anchor="middle" x="71" y="-86.3" font-family="Times" font-size="14.00">Valadoc.Rule</text>
</a>
</g>
</g>
<!-- Valadoc.Rule&#45;&gt;Valadoc.SequenceRule -->
<g id="edge1" class="edge">
<title>Valadoc.Rule&#45;&gt;Valadoc.SequenceRule</title>
<path fill="none" stroke="black" d="M71,-61.67C71,-53.05 71,-43.79 71,-36.1"/>
<polygon fill="black" stroke="black" points="67.5,-61.7 71,-71.7 74.5,-61.7 67.5,-61.7"/>
</g>
<!-- GLib.Object -->
<g id="node3" class="node">
<title>GLib.Object</title>
<g id="a_node3"><a xlink:href="../gobject-2.0/GLib.Object.html" xlink:title="GLib.Object">
<polygon fill="none" stroke="black" stroke-width="2" points="113.5,-180 28.5,-180 28.5,-144 113.5,-144 113.5,-180"/>
<text text-anchor="middle" x="71" y="-158.3" font-family="Times" font-size="14.00">GLib.Object</text>
</a>
</g>
</g>
<!-- GLib.Object&#45;&gt;Valadoc.Rule -->
<g id="edge2" class="edge">
<title>GLib.Object&#45;&gt;Valadoc.Rule</title>
<path fill="none" stroke="black" d="M71,-133.67C71,-125.05 71,-115.79 71,-108.1"/>
<polygon fill="black" stroke="black" points="67.5,-133.7 71,-143.7 74.5,-133.7 67.5,-133.7"/>
</g>
</g>
</svg>
