<?xml version="1.0" encoding="UTF-8" standalone="no"?>
<!DOCTYPE svg PUBLIC "-//W3C//DTD SVG 1.1//EN"
 "http://www.w3.org/Graphics/SVG/1.1/DTD/svg11.dtd">
<!-- Generated by graphviz version 2.40.1 (20161225.0304)
 -->
<!-- Title: Valadoc.Content.InlineTaglet Pages: 1 -->
<svg width="530pt" height="188pt"
 viewBox="0.00 0.00 529.50 188.00" xmlns="http://www.w3.org/2000/svg" xmlns:xlink="http://www.w3.org/1999/xlink">
<g id="graph0" class="graph" transform="scale(1 1) rotate(0) translate(4 184)">
<title>Valadoc.Content.InlineTaglet</title>
<polygon fill="#ffffff" stroke="transparent" points="-4,4 -4,-184 525.5,-184 525.5,4 -4,4"/>
<!-- Valadoc.Content.InlineTaglet -->
<g id="node1" class="node">
<title>Valadoc.Content.InlineTaglet</title>
<g id="a_node1"><a xlink:href="Valadoc.Content.InlineTaglet.html" xlink:title="Valadoc.Content.InlineTaglet">
<polygon fill="none" stroke="#000000" stroke-width="2" points="377.5,-36 201.5,-36 201.5,0 377.5,0 377.5,-36"/>
<text text-anchor="middle" x="289.5" y="-14.3" font-family="Times" font-size="14.00" fill="#000000">Valadoc.Content.InlineTaglet</text>
</a>
</g>
</g>
<!-- Valadoc.Content.ContentElement -->
<g id="node2" class="node">
<title>Valadoc.Content.ContentElement</title>
<g id="a_node2"><a xlink:href="Valadoc.Content.ContentElement.html" xlink:title="Valadoc.Content.ContentElement">
<polygon fill="none" stroke="#000000" stroke-width="2" points="199,-108 0,-108 0,-72 199,-72 199,-108"/>
<text text-anchor="middle" x="99.5" y="-86.3" font-family="Times" font-size="14.00" fill="#000000">Valadoc.Content.ContentElement</text>
</a>
</g>
</g>
<!-- Valadoc.Content.ContentElement&#45;&gt;Valadoc.Content.InlineTaglet -->
<g id="edge1" class="edge">
<title>Valadoc.Content.ContentElement&#45;&gt;Valadoc.Content.InlineTaglet</title>
<path fill="none" stroke="#000000" d="M156.8344,-68.2733C184.01,-57.9752 216.0922,-45.8177 241.8997,-36.038"/>
<polygon fill="#000000" stroke="#000000" points="155.5559,-65.0148 147.445,-71.8314 158.0364,-71.5606 155.5559,-65.0148"/>
</g>
<!-- GLib.Object -->
<g id="node3" class="node">
<title>GLib.Object</title>
<polygon fill="none" stroke="#000000" stroke-width="2" points="142,-180 57,-180 57,-144 142,-144 142,-180"/>
<text text-anchor="middle" x="99.5" y="-158.3" font-family="Times" font-size="14.00" fill="#000000">GLib.Object</text>
</g>
<!-- GLib.Object&#45;&gt;Valadoc.Content.ContentElement -->
<g id="edge2" class="edge">
<title>GLib.Object&#45;&gt;Valadoc.Content.ContentElement</title>
<path fill="none" stroke="#000000" d="M99.5,-133.5726C99.5,-125.1084 99.5,-116.0593 99.5,-108.4133"/>
<polygon fill="#000000" stroke="#000000" points="96.0001,-133.8313 99.5,-143.8314 103.0001,-133.8314 96.0001,-133.8313"/>
</g>
<!-- Valadoc.Content.Taglet -->
<g id="node4" class="node">
<title>Valadoc.Content.Taglet</title>
<g id="a_node4"><a xlink:href="Valadoc.Content.Taglet.html" xlink:title="Valadoc.Content.Taglet">
<polygon fill="none" stroke="#000000" points="361.5,-108 217.5,-108 217.5,-72 361.5,-72 361.5,-108"/>
<text text-anchor="middle" x="289.5" y="-86.3" font-family="Times" font-size="14.00" fill="#000000">Valadoc.Content.Taglet</text>
</a>
</g>
</g>
<!-- Valadoc.Content.Taglet&#45;&gt;Valadoc.Content.InlineTaglet -->
<g id="edge3" class="edge">
<title>Valadoc.Content.Taglet&#45;&gt;Valadoc.Content.InlineTaglet</title>
<path fill="none" stroke="#000000" d="M289.5,-61.5726C289.5,-53.1084 289.5,-44.0593 289.5,-36.4133"/>
<polygon fill="#000000" stroke="#000000" points="286.0001,-61.8313 289.5,-71.8314 293.0001,-61.8314 286.0001,-61.8313"/>
</g>
<!-- Valadoc.Content.Inline -->
<g id="node5" class="node">
<title>Valadoc.Content.Inline</title>
<g id="a_node5"><a xlink:href="Valadoc.Content.Inline.html" xlink:title="Valadoc.Content.Inline">
<polygon fill="none" stroke="#000000" points="521.5,-108 379.5,-108 379.5,-72 521.5,-72 521.5,-108"/>
<text text-anchor="middle" x="450.5" y="-86.3" font-family="Times" font-size="14.00" fill="#000000">Valadoc.Content.Inline</text>
</a>
</g>
</g>
<!-- Valadoc.Content.Inline&#45;&gt;Valadoc.Content.InlineTaglet -->
<g id="edge4" class="edge">
<title>Valadoc.Content.Inline&#45;&gt;Valadoc.Content.InlineTaglet</title>
<path fill="none" stroke="#000000" d="M400.7062,-67.732C377.9408,-57.5512 351.3215,-45.6469 329.835,-36.038"/>
<polygon fill="#000000" stroke="#000000" points="399.3153,-70.9439 409.8729,-71.8314 402.173,-64.5538 399.3153,-70.9439"/>
</g>
</g>
</svg>
