<?xml version="1.0" encoding="UTF-8" standalone="no"?>
<!DOCTYPE svg PUBLIC "-//W3C//DTD SVG 1.1//EN"
 "http://www.w3.org/Graphics/SVG/1.1/DTD/svg11.dtd">
<!-- Generated by graphviz version 2.42.3 (0)
 -->
<!-- Title: Valadoc.Charts.Hierarchy Pages: 1 -->
<svg width="166pt" height="260pt"
 viewBox="0.00 0.00 166.00 260.00" xmlns="http://www.w3.org/2000/svg" xmlns:xlink="http://www.w3.org/1999/xlink">
<g id="graph0" class="graph" transform="scale(1 1) rotate(0) translate(4 256)">
<title>Valadoc.Charts.Hierarchy</title>
<polygon fill="white" stroke="transparent" points="-4,4 -4,-256 162,-256 162,4 -4,4"/>
<!-- Valadoc.Charts.Hierarchy -->
<g id="node1" class="node">
<title>Valadoc.Charts.Hierarchy</title>
<g id="a_node1"><a xlink:href="Valadoc.Charts.Hierarchy.html" xlink:title="Valadoc.Charts.Hierarchy">
<polygon fill="none" stroke="black" stroke-width="2" points="158,-36 0,-36 0,0 158,0 158,-36"/>
<text text-anchor="middle" x="79" y="-14.3" font-family="Times" font-size="14.00">Valadoc.Charts.Hierarchy</text>
</a>
</g>
</g>
<!-- Valadoc.Charts.Chart -->
<g id="node2" class="node">
<title>Valadoc.Charts.Chart</title>
<g id="a_node2"><a xlink:href="Valadoc.Charts.Chart.html" xlink:title="Valadoc.Charts.Chart">
<polygon fill="none" stroke="black" stroke-width="2" points="146.5,-108 11.5,-108 11.5,-72 146.5,-72 146.5,-108"/>
<text text-anchor="middle" x="79" y="-86.3" font-family="Times" font-size="14.00">Valadoc.Charts.Chart</text>
</a>
</g>
</g>
<!-- Valadoc.Charts.Chart&#45;&gt;Valadoc.Charts.Hierarchy -->
<g id="edge1" class="edge">
<title>Valadoc.Charts.Chart&#45;&gt;Valadoc.Charts.Hierarchy</title>
<path fill="none" stroke="black" d="M79,-61.67C79,-53.05 79,-43.79 79,-36.1"/>
<polygon fill="black" stroke="black" points="75.5,-61.7 79,-71.7 82.5,-61.7 75.5,-61.7"/>
</g>
<!-- Valadoc.Api.Visitor -->
<g id="node3" class="node">
<title>Valadoc.Api.Visitor</title>
<g id="a_node3"><a xlink:href="Valadoc.Api.Visitor.html" xlink:title="Valadoc.Api.Visitor">
<polygon fill="none" stroke="black" stroke-width="2" points="142,-180 16,-180 16,-144 142,-144 142,-180"/>
<text text-anchor="middle" x="79" y="-158.3" font-family="Times" font-size="14.00">Valadoc.Api.Visitor</text>
</a>
</g>
</g>
<!-- Valadoc.Api.Visitor&#45;&gt;Valadoc.Charts.Chart -->
<g id="edge2" class="edge">
<title>Valadoc.Api.Visitor&#45;&gt;Valadoc.Charts.Chart</title>
<path fill="none" stroke="black" d="M79,-133.67C79,-125.05 79,-115.79 79,-108.1"/>
<polygon fill="black" stroke="black" points="75.5,-133.7 79,-143.7 82.5,-133.7 75.5,-133.7"/>
</g>
<!-- GLib.Object -->
<g id="node4" class="node">
<title>GLib.Object</title>
<g id="a_node4"><a xlink:href="../gobject-2.0/GLib.Object.html" xlink:title="GLib.Object">
<polygon fill="none" stroke="black" stroke-width="2" points="121.5,-252 36.5,-252 36.5,-216 121.5,-216 121.5,-252"/>
<text text-anchor="middle" x="79" y="-230.3" font-family="Times" font-size="14.00">GLib.Object</text>
</a>
</g>
</g>
<!-- GLib.Object&#45;&gt;Valadoc.Api.Visitor -->
<g id="edge3" class="edge">
<title>GLib.Object&#45;&gt;Valadoc.Api.Visitor</title>
<path fill="none" stroke="black" d="M79,-205.67C79,-197.05 79,-187.79 79,-180.1"/>
<polygon fill="black" stroke="black" points="75.5,-205.7 79,-215.7 82.5,-205.7 75.5,-205.7"/>
</g>
</g>
</svg>
