<?xml version="1.0" encoding="UTF-8" standalone="no"?>
<!DOCTYPE svg PUBLIC "-//W3C//DTD SVG 1.1//EN"
 "http://www.w3.org/Graphics/SVG/1.1/DTD/svg11.dtd">
<!-- Generated by graphviz version 2.40.1 (20161225.0304)
 -->
<!-- Title: Valadoc.Api.AttributeArgument Pages: 1 -->
<svg width="226pt" height="188pt"
 viewBox="0.00 0.00 226.00 188.00" xmlns="http://www.w3.org/2000/svg" xmlns:xlink="http://www.w3.org/1999/xlink">
<g id="graph0" class="graph" transform="scale(1 1) rotate(0) translate(4 184)">
<title>Valadoc.Api.AttributeArgument</title>
<polygon fill="#ffffff" stroke="transparent" points="-4,4 -4,-184 222,-184 222,4 -4,4"/>
<!-- Valadoc.Api.AttributeArgument -->
<g id="node1" class="node">
<title>Valadoc.Api.AttributeArgument</title>
<g id="a_node1"><a xlink:href="Valadoc.Api.AttributeArgument.html" xlink:title="Valadoc.Api.AttributeArgument">
<polygon fill="none" stroke="#000000" stroke-width="2" points="218,-36 0,-36 0,0 218,0 218,-36"/>
<text text-anchor="middle" x="109" y="-14.3" font-family="Times" font-size="14.00" fill="#000000">Valadoc.Api.AttributeArgument</text>
</a>
</g>
</g>
<!-- Valadoc.Api.Item -->
<g id="node2" class="node">
<title>Valadoc.Api.Item</title>
<g id="a_node2"><a xlink:href="Valadoc.Api.Item.html" xlink:title="Valadoc.Api.Item">
<polygon fill="none" stroke="#000000" stroke-width="2" points="171.5,-108 46.5,-108 46.5,-72 171.5,-72 171.5,-108"/>
<text text-anchor="middle" x="109" y="-86.3" font-family="Times" font-size="14.00" fill="#000000">Valadoc.Api.Item</text>
</a>
</g>
</g>
<!-- Valadoc.Api.Item&#45;&gt;Valadoc.Api.AttributeArgument -->
<g id="edge1" class="edge">
<title>Valadoc.Api.Item&#45;&gt;Valadoc.Api.AttributeArgument</title>
<path fill="none" stroke="#000000" d="M109,-61.5726C109,-53.1084 109,-44.0593 109,-36.4133"/>
<polygon fill="#000000" stroke="#000000" points="105.5001,-61.8313 109,-71.8314 112.5001,-61.8314 105.5001,-61.8313"/>
</g>
<!-- GLib.Object -->
<g id="node3" class="node">
<title>GLib.Object</title>
<polygon fill="none" stroke="#000000" stroke-width="2" points="155,-180 63,-180 63,-144 155,-144 155,-180"/>
<text text-anchor="middle" x="109" y="-158.3" font-family="Times" font-size="14.00" fill="#000000">GLib.Object</text>
</g>
<!-- GLib.Object&#45;&gt;Valadoc.Api.Item -->
<g id="edge2" class="edge">
<title>GLib.Object&#45;&gt;Valadoc.Api.Item</title>
<path fill="none" stroke="#000000" d="M109,-133.5726C109,-125.1084 109,-116.0593 109,-108.4133"/>
<polygon fill="#000000" stroke="#000000" points="105.5001,-133.8313 109,-143.8314 112.5001,-133.8314 105.5001,-133.8313"/>
</g>
</g>
</svg>
