<?xml version="1.0" encoding="UTF-8" standalone="no"?>
<!DOCTYPE svg PUBLIC "-//W3C//DTD SVG 1.1//EN"
 "http://www.w3.org/Graphics/SVG/1.1/DTD/svg11.dtd">
<!-- Generated by graphviz version 2.40.1 (20161225.0304)
 -->
<!-- Title: Valadoc.Api.Browsable Pages: 1 -->
<svg width="170pt" height="188pt"
 viewBox="0.00 0.00 170.00 188.00" xmlns="http://www.w3.org/2000/svg" xmlns:xlink="http://www.w3.org/1999/xlink">
<g id="graph0" class="graph" transform="scale(1 1) rotate(0) translate(4 184)">
<title>Valadoc.Api.Browsable</title>
<polygon fill="#ffffff" stroke="transparent" points="-4,4 -4,-184 166,-184 166,4 -4,4"/>
<!-- Valadoc.Api.Browsable -->
<g id="node1" class="node">
<title>Valadoc.Api.Browsable</title>
<g id="a_node1"><a xlink:href="Valadoc.Api.Browsable.html" xlink:title="Valadoc.Api.Browsable">
<polygon fill="none" stroke="#000000" points="162,-36 0,-36 0,0 162,0 162,-36"/>
<text text-anchor="middle" x="81" y="-14.3" font-family="Times" font-size="14.00" fill="#000000">Valadoc.Api.Browsable</text>
</a>
</g>
</g>
<!-- Valadoc.Api.Item -->
<g id="node2" class="node">
<title>Valadoc.Api.Item</title>
<g id="a_node2"><a xlink:href="Valadoc.Api.Item.html" xlink:title="Valadoc.Api.Item">
<polygon fill="none" stroke="#000000" stroke-width="2" points="143.5,-108 18.5,-108 18.5,-72 143.5,-72 143.5,-108"/>
<text text-anchor="middle" x="81" y="-86.3" font-family="Times" font-size="14.00" fill="#000000">Valadoc.Api.Item</text>
</a>
</g>
</g>
<!-- Valadoc.Api.Item&#45;&gt;Valadoc.Api.Browsable -->
<g id="edge1" class="edge">
<title>Valadoc.Api.Item&#45;&gt;Valadoc.Api.Browsable</title>
<path fill="none" stroke="#000000" d="M81,-61.5726C81,-53.1084 81,-44.0593 81,-36.4133"/>
<polygon fill="#000000" stroke="#000000" points="77.5001,-61.8313 81,-71.8314 84.5001,-61.8314 77.5001,-61.8313"/>
</g>
<!-- GLib.Object -->
<g id="node3" class="node">
<title>GLib.Object</title>
<polygon fill="none" stroke="#000000" stroke-width="2" points="127,-180 35,-180 35,-144 127,-144 127,-180"/>
<text text-anchor="middle" x="81" y="-158.3" font-family="Times" font-size="14.00" fill="#000000">GLib.Object</text>
</g>
<!-- GLib.Object&#45;&gt;Valadoc.Api.Item -->
<g id="edge2" class="edge">
<title>GLib.Object&#45;&gt;Valadoc.Api.Item</title>
<path fill="none" stroke="#000000" d="M81,-133.5726C81,-125.1084 81,-116.0593 81,-108.4133"/>
<polygon fill="#000000" stroke="#000000" points="77.5001,-133.8313 81,-143.8314 84.5001,-133.8314 77.5001,-133.8313"/>
</g>
</g>
</svg>
