<?xml version="1.0" encoding="UTF-8" standalone="no"?>
<!DOCTYPE svg PUBLIC "-//W3C//DTD SVG 1.1//EN"
 "http://www.w3.org/Graphics/SVG/1.1/DTD/svg11.dtd">
<!-- Generated by graphviz version 2.40.1 (20161225.0304)
 -->
<!-- Title: Valadoc.Content.TableCell Pages: 1 -->
<svg width="409pt" height="260pt"
 viewBox="0.00 0.00 409.00 260.00" xmlns="http://www.w3.org/2000/svg" xmlns:xlink="http://www.w3.org/1999/xlink">
<g id="graph0" class="graph" transform="scale(1 1) rotate(0) translate(4 256)">
<title>Valadoc.Content.TableCell</title>
<polygon fill="#ffffff" stroke="transparent" points="-4,4 -4,-256 405,-256 405,4 -4,4"/>
<!-- Valadoc.Content.TableCell -->
<g id="node1" class="node">
<title>Valadoc.Content.TableCell</title>
<g id="a_node1"><a xlink:href="Valadoc.Content.TableCell.html" xlink:title="Valadoc.Content.TableCell">
<polygon fill="none" stroke="#000000" stroke-width="2" points="284,-36 121,-36 121,0 284,0 284,-36"/>
<text text-anchor="middle" x="202.5" y="-14.3" font-family="Times" font-size="14.00" fill="#000000">Valadoc.Content.TableCell</text>
</a>
</g>
</g>
<!-- Valadoc.Content.InlineContent -->
<g id="node2" class="node">
<title>Valadoc.Content.InlineContent</title>
<g id="a_node2"><a xlink:href="Valadoc.Content.InlineContent.html" xlink:title="Valadoc.Content.InlineContent">
<polygon fill="none" stroke="#000000" stroke-width="2" points="192,-108 7,-108 7,-72 192,-72 192,-108"/>
<text text-anchor="middle" x="99.5" y="-86.3" font-family="Times" font-size="14.00" fill="#000000">Valadoc.Content.InlineContent</text>
</a>
</g>
</g>
<!-- Valadoc.Content.InlineContent&#45;&gt;Valadoc.Content.TableCell -->
<g id="edge1" class="edge">
<title>Valadoc.Content.InlineContent&#45;&gt;Valadoc.Content.TableCell</title>
<path fill="none" stroke="#000000" d="M133.8706,-65.9739C147.7876,-56.2456 163.5879,-45.2007 176.5171,-36.1628"/>
<polygon fill="#000000" stroke="#000000" points="131.6821,-63.2334 125.4912,-71.8314 135.6926,-68.9707 131.6821,-63.2334"/>
</g>
<!-- Valadoc.Content.ContentElement -->
<g id="node3" class="node">
<title>Valadoc.Content.ContentElement</title>
<g id="a_node3"><a xlink:href="Valadoc.Content.ContentElement.html" xlink:title="Valadoc.Content.ContentElement">
<polygon fill="none" stroke="#000000" stroke-width="2" points="199,-180 0,-180 0,-144 199,-144 199,-180"/>
<text text-anchor="middle" x="99.5" y="-158.3" font-family="Times" font-size="14.00" fill="#000000">Valadoc.Content.ContentElement</text>
</a>
</g>
</g>
<!-- Valadoc.Content.ContentElement&#45;&gt;Valadoc.Content.InlineContent -->
<g id="edge2" class="edge">
<title>Valadoc.Content.ContentElement&#45;&gt;Valadoc.Content.InlineContent</title>
<path fill="none" stroke="#000000" d="M99.5,-133.5726C99.5,-125.1084 99.5,-116.0593 99.5,-108.4133"/>
<polygon fill="#000000" stroke="#000000" points="96.0001,-133.8313 99.5,-143.8314 103.0001,-133.8314 96.0001,-133.8313"/>
</g>
<!-- GLib.Object -->
<g id="node4" class="node">
<title>GLib.Object</title>
<polygon fill="none" stroke="#000000" stroke-width="2" points="142,-252 57,-252 57,-216 142,-216 142,-252"/>
<text text-anchor="middle" x="99.5" y="-230.3" font-family="Times" font-size="14.00" fill="#000000">GLib.Object</text>
</g>
<!-- GLib.Object&#45;&gt;Valadoc.Content.ContentElement -->
<g id="edge3" class="edge">
<title>GLib.Object&#45;&gt;Valadoc.Content.ContentElement</title>
<path fill="none" stroke="#000000" d="M99.5,-205.5726C99.5,-197.1084 99.5,-188.0593 99.5,-180.4133"/>
<polygon fill="#000000" stroke="#000000" points="96.0001,-205.8313 99.5,-215.8314 103.0001,-205.8314 96.0001,-205.8313"/>
</g>
<!-- Valadoc.Content.StyleAttributes -->
<g id="node5" class="node">
<title>Valadoc.Content.StyleAttributes</title>
<g id="a_node5"><a xlink:href="Valadoc.Content.StyleAttributes.html" xlink:title="Valadoc.Content.StyleAttributes">
<polygon fill="none" stroke="#000000" points="401,-108 210,-108 210,-72 401,-72 401,-108"/>
<text text-anchor="middle" x="305.5" y="-86.3" font-family="Times" font-size="14.00" fill="#000000">Valadoc.Content.StyleAttributes</text>
</a>
</g>
</g>
<!-- Valadoc.Content.StyleAttributes&#45;&gt;Valadoc.Content.TableCell -->
<g id="edge4" class="edge">
<title>Valadoc.Content.StyleAttributes&#45;&gt;Valadoc.Content.TableCell</title>
<path fill="none" stroke="#000000" d="M271.1294,-65.9739C257.2124,-56.2456 241.4121,-45.2007 228.4829,-36.1628"/>
<polygon fill="#000000" stroke="#000000" points="269.3074,-68.9707 279.5088,-71.8314 273.3179,-63.2334 269.3074,-68.9707"/>
</g>
</g>
</svg>
