<?xml version="1.0" encoding="UTF-8" standalone="no"?>
<!DOCTYPE svg PUBLIC "-//W3C//DTD SVG 1.1//EN"
 "http://www.w3.org/Graphics/SVG/1.1/DTD/svg11.dtd">
<!-- Generated by graphviz version 2.42.3 (0)
 -->
<!-- Title: Valadoc.Content.Embedded Pages: 1 -->
<svg width="582pt" height="188pt"
 viewBox="0.00 0.00 582.00 188.00" xmlns="http://www.w3.org/2000/svg" xmlns:xlink="http://www.w3.org/1999/xlink">
<g id="graph0" class="graph" transform="scale(1 1) rotate(0) translate(4 184)">
<title>Valadoc.Content.Embedded</title>
<polygon fill="white" stroke="transparent" points="-4,4 -4,-184 578,-184 578,4 -4,4"/>
<!-- Valadoc.Content.Embedded -->
<g id="node1" class="node">
<title>Valadoc.Content.Embedded</title>
<g id="a_node1"><a xlink:href="Valadoc.Content.Embedded.html" xlink:title="Valadoc.Content.Embedded">
<polygon fill="none" stroke="black" stroke-width="2" points="375,-36 205,-36 205,0 375,0 375,-36"/>
<text text-anchor="middle" x="290" y="-14.3" font-family="Times" font-size="14.00">Valadoc.Content.Embedded</text>
</a>
</g>
</g>
<!-- Valadoc.Content.ContentElement -->
<g id="node2" class="node">
<title>Valadoc.Content.ContentElement</title>
<g id="a_node2"><a xlink:href="Valadoc.Content.ContentElement.html" xlink:title="Valadoc.Content.ContentElement">
<polygon fill="none" stroke="black" stroke-width="2" points="200,-108 0,-108 0,-72 200,-72 200,-108"/>
<text text-anchor="middle" x="100" y="-86.3" font-family="Times" font-size="14.00">Valadoc.Content.ContentElement</text>
</a>
</g>
</g>
<!-- Valadoc.Content.ContentElement&#45;&gt;Valadoc.Content.Embedded -->
<g id="edge1" class="edge">
<title>Valadoc.Content.ContentElement&#45;&gt;Valadoc.Content.Embedded</title>
<path fill="none" stroke="black" d="M156.1,-68.33C183.98,-58.06 217.26,-45.8 243.67,-36.07"/>
<polygon fill="black" stroke="black" points="154.65,-65.13 146.48,-71.88 157.07,-71.7 154.65,-65.13"/>
</g>
<!-- GLib.Object -->
<g id="node3" class="node">
<title>GLib.Object</title>
<g id="a_node3"><a xlink:href="../gobject-2.0/GLib.Object.html" xlink:title="GLib.Object">
<polygon fill="none" stroke="black" stroke-width="2" points="142.5,-180 57.5,-180 57.5,-144 142.5,-144 142.5,-180"/>
<text text-anchor="middle" x="100" y="-158.3" font-family="Times" font-size="14.00">GLib.Object</text>
</a>
</g>
</g>
<!-- GLib.Object&#45;&gt;Valadoc.Content.ContentElement -->
<g id="edge2" class="edge">
<title>GLib.Object&#45;&gt;Valadoc.Content.ContentElement</title>
<path fill="none" stroke="black" d="M100,-133.67C100,-125.05 100,-115.79 100,-108.1"/>
<polygon fill="black" stroke="black" points="96.5,-133.7 100,-143.7 103.5,-133.7 96.5,-133.7"/>
</g>
<!-- Valadoc.Content.Inline -->
<g id="node4" class="node">
<title>Valadoc.Content.Inline</title>
<g id="a_node4"><a xlink:href="Valadoc.Content.Inline.html" xlink:title="Valadoc.Content.Inline">
<polygon fill="none" stroke="black" points="361.5,-108 218.5,-108 218.5,-72 361.5,-72 361.5,-108"/>
<text text-anchor="middle" x="290" y="-86.3" font-family="Times" font-size="14.00">Valadoc.Content.Inline</text>
</a>
</g>
</g>
<!-- Valadoc.Content.Inline&#45;&gt;Valadoc.Content.Embedded -->
<g id="edge3" class="edge">
<title>Valadoc.Content.Inline&#45;&gt;Valadoc.Content.Embedded</title>
<path fill="none" stroke="black" d="M290,-61.67C290,-53.05 290,-43.79 290,-36.1"/>
<polygon fill="black" stroke="black" points="286.5,-61.7 290,-71.7 293.5,-61.7 286.5,-61.7"/>
</g>
<!-- Valadoc.Content.StyleAttributes -->
<g id="node5" class="node">
<title>Valadoc.Content.StyleAttributes</title>
<g id="a_node5"><a xlink:href="Valadoc.Content.StyleAttributes.html" xlink:title="Valadoc.Content.StyleAttributes">
<polygon fill="none" stroke="black" points="574,-108 380,-108 380,-72 574,-72 574,-108"/>
<text text-anchor="middle" x="477" y="-86.3" font-family="Times" font-size="14.00">Valadoc.Content.StyleAttributes</text>
</a>
</g>
</g>
<!-- Valadoc.Content.StyleAttributes&#45;&gt;Valadoc.Content.Embedded -->
<g id="edge4" class="edge">
<title>Valadoc.Content.StyleAttributes&#45;&gt;Valadoc.Content.Embedded</title>
<path fill="none" stroke="black" d="M421.79,-68.33C394.35,-58.06 361.59,-45.8 335.6,-36.07"/>
<polygon fill="black" stroke="black" points="420.66,-71.65 431.25,-71.88 423.12,-65.09 420.66,-71.65"/>
</g>
</g>
</svg>
