<?xml version="1.0" encoding="UTF-8" standalone="no"?>
<!DOCTYPE svg PUBLIC "-//W3C//DTD SVG 1.1//EN"
 "http://www.w3.org/Graphics/SVG/1.1/DTD/svg11.dtd">
<!-- Generated by graphviz version 2.40.1 (0)
 -->
<!-- Title: Valadoc.Content.SymbolLink Pages: 1 -->
<svg width="362pt" height="260pt"
 viewBox="0.00 0.00 361.50 260.00" xmlns="http://www.w3.org/2000/svg" xmlns:xlink="http://www.w3.org/1999/xlink">
<g id="graph0" class="graph" transform="scale(1 1) rotate(0) translate(4 256)">
<title>Valadoc.Content.SymbolLink</title>
<polygon fill="#ffffff" stroke="transparent" points="-4,4 -4,-256 357.5,-256 357.5,4 -4,4"/>
<!-- Valadoc.Content.SymbolLink -->
<g id="node1" class="node">
<title>Valadoc.Content.SymbolLink</title>
<g id="a_node1"><a xlink:href="Valadoc.Content.SymbolLink.html" xlink:title="Valadoc.Content.SymbolLink">
<polygon fill="none" stroke="#000000" stroke-width="2" points="280.5,-36 101.5,-36 101.5,0 280.5,0 280.5,-36"/>
<text text-anchor="middle" x="191" y="-14.3" font-family="Times" font-size="14.00" fill="#000000">Valadoc.Content.SymbolLink</text>
</a>
</g>
</g>
<!-- Valadoc.Content.InlineContent -->
<g id="node2" class="node">
<title>Valadoc.Content.InlineContent</title>
<g id="a_node2"><a xlink:href="Valadoc.Content.InlineContent.html" xlink:title="Valadoc.Content.InlineContent">
<polygon fill="none" stroke="#000000" stroke-width="2" points="192.5,-108 7.5,-108 7.5,-72 192.5,-72 192.5,-108"/>
<text text-anchor="middle" x="100" y="-86.3" font-family="Times" font-size="14.00" fill="#000000">Valadoc.Content.InlineContent</text>
</a>
</g>
</g>
<!-- Valadoc.Content.InlineContent&#45;&gt;Valadoc.Content.SymbolLink -->
<g id="edge1" class="edge">
<title>Valadoc.Content.InlineContent&#45;&gt;Valadoc.Content.SymbolLink</title>
<path fill="none" stroke="#000000" d="M131.064,-65.4219C143.1877,-55.8295 156.8369,-45.0301 168.0442,-36.1628"/>
<polygon fill="#000000" stroke="#000000" points="128.6337,-62.8817 122.9631,-71.8314 132.9771,-68.3713 128.6337,-62.8817"/>
</g>
<!-- Valadoc.Content.ContentElement -->
<g id="node3" class="node">
<title>Valadoc.Content.ContentElement</title>
<g id="a_node3"><a xlink:href="Valadoc.Content.ContentElement.html" xlink:title="Valadoc.Content.ContentElement">
<polygon fill="none" stroke="#000000" stroke-width="2" points="200,-180 0,-180 0,-144 200,-144 200,-180"/>
<text text-anchor="middle" x="100" y="-158.3" font-family="Times" font-size="14.00" fill="#000000">Valadoc.Content.ContentElement</text>
</a>
</g>
</g>
<!-- Valadoc.Content.ContentElement&#45;&gt;Valadoc.Content.InlineContent -->
<g id="edge2" class="edge">
<title>Valadoc.Content.ContentElement&#45;&gt;Valadoc.Content.InlineContent</title>
<path fill="none" stroke="#000000" d="M100,-133.5726C100,-125.1084 100,-116.0593 100,-108.4133"/>
<polygon fill="#000000" stroke="#000000" points="96.5001,-133.8313 100,-143.8314 103.5001,-133.8314 96.5001,-133.8313"/>
</g>
<!-- GLib.Object -->
<g id="node4" class="node">
<title>GLib.Object</title>
<g id="a_node4"><a xlink:href="../gobject-2.0/GLib.Object.html" xlink:title="GLib.Object">
<polygon fill="none" stroke="#000000" stroke-width="2" points="142.5,-252 57.5,-252 57.5,-216 142.5,-216 142.5,-252"/>
<text text-anchor="middle" x="100" y="-230.3" font-family="Times" font-size="14.00" fill="#000000">GLib.Object</text>
</a>
</g>
</g>
<!-- GLib.Object&#45;&gt;Valadoc.Content.ContentElement -->
<g id="edge3" class="edge">
<title>GLib.Object&#45;&gt;Valadoc.Content.ContentElement</title>
<path fill="none" stroke="#000000" d="M100,-205.5726C100,-197.1084 100,-188.0593 100,-180.4133"/>
<polygon fill="#000000" stroke="#000000" points="96.5001,-205.8313 100,-215.8314 103.5001,-205.8314 96.5001,-205.8313"/>
</g>
<!-- Valadoc.Content.Inline -->
<g id="node5" class="node">
<title>Valadoc.Content.Inline</title>
<g id="a_node5"><a xlink:href="Valadoc.Content.Inline.html" xlink:title="Valadoc.Content.Inline">
<polygon fill="none" stroke="#000000" points="353.5,-108 210.5,-108 210.5,-72 353.5,-72 353.5,-108"/>
<text text-anchor="middle" x="282" y="-86.3" font-family="Times" font-size="14.00" fill="#000000">Valadoc.Content.Inline</text>
</a>
</g>
</g>
<!-- Valadoc.Content.Inline&#45;&gt;Valadoc.Content.SymbolLink -->
<g id="edge4" class="edge">
<title>Valadoc.Content.Inline&#45;&gt;Valadoc.Content.SymbolLink</title>
<path fill="none" stroke="#000000" d="M250.936,-65.4219C238.8123,-55.8295 225.1631,-45.0301 213.9558,-36.1628"/>
<polygon fill="#000000" stroke="#000000" points="249.0229,-68.3713 259.0369,-71.8314 253.3663,-62.8817 249.0229,-68.3713"/>
</g>
</g>
</svg>
