<?xml version="1.0" encoding="UTF-8" standalone="no"?>
<!DOCTYPE svg PUBLIC "-//W3C//DTD SVG 1.1//EN"
 "http://www.w3.org/Graphics/SVG/1.1/DTD/svg11.dtd">
<!-- Generated by graphviz version 2.40.1 (20161225.0304)
 -->
<!-- Title: Valadoc.Api.PropertyAccessor Pages: 1 -->
<svg width="502pt" height="332pt"
 viewBox="0.00 0.00 501.50 332.00" xmlns="http://www.w3.org/2000/svg" xmlns:xlink="http://www.w3.org/1999/xlink">
<g id="graph0" class="graph" transform="scale(1 1) rotate(0) translate(4 328)">
<title>Valadoc.Api.PropertyAccessor</title>
<polygon fill="#ffffff" stroke="transparent" points="-4,4 -4,-328 497.5,-328 497.5,4 -4,4"/>
<!-- Valadoc.Api.PropertyAccessor -->
<g id="node1" class="node">
<title>Valadoc.Api.PropertyAccessor</title>
<g id="a_node1"><a xlink:href="Valadoc.Api.PropertyAccessor.html" xlink:title="Valadoc.Api.PropertyAccessor">
<polygon fill="none" stroke="#000000" stroke-width="2" points="330,-36 119,-36 119,0 330,0 330,-36"/>
<text text-anchor="middle" x="224.5" y="-14.3" font-family="Times" font-size="14.00" fill="#000000">Valadoc.Api.PropertyAccessor</text>
</a>
</g>
</g>
<!-- Valadoc.Api.Symbol -->
<g id="node2" class="node">
<title>Valadoc.Api.Symbol</title>
<g id="a_node2"><a xlink:href="Valadoc.Api.Symbol.html" xlink:title="Valadoc.Api.Symbol">
<polygon fill="none" stroke="#000000" stroke-width="2" points="296,-108 153,-108 153,-72 296,-72 296,-108"/>
<text text-anchor="middle" x="224.5" y="-86.3" font-family="Times" font-size="14.00" fill="#000000">Valadoc.Api.Symbol</text>
</a>
</g>
</g>
<!-- Valadoc.Api.Symbol&#45;&gt;Valadoc.Api.PropertyAccessor -->
<g id="edge1" class="edge">
<title>Valadoc.Api.Symbol&#45;&gt;Valadoc.Api.PropertyAccessor</title>
<path fill="none" stroke="#000000" d="M224.5,-61.5726C224.5,-53.1084 224.5,-44.0593 224.5,-36.4133"/>
<polygon fill="#000000" stroke="#000000" points="221.0001,-61.8313 224.5,-71.8314 228.0001,-61.8314 221.0001,-61.8313"/>
</g>
<!-- Valadoc.Api.Node -->
<g id="node3" class="node">
<title>Valadoc.Api.Node</title>
<g id="a_node3"><a xlink:href="Valadoc.Api.Node.html" xlink:title="Valadoc.Api.Node">
<polygon fill="none" stroke="#000000" stroke-width="2" points="289,-180 160,-180 160,-144 289,-144 289,-180"/>
<text text-anchor="middle" x="224.5" y="-158.3" font-family="Times" font-size="14.00" fill="#000000">Valadoc.Api.Node</text>
</a>
</g>
</g>
<!-- Valadoc.Api.Node&#45;&gt;Valadoc.Api.Symbol -->
<g id="edge2" class="edge">
<title>Valadoc.Api.Node&#45;&gt;Valadoc.Api.Symbol</title>
<path fill="none" stroke="#000000" d="M224.5,-133.5726C224.5,-125.1084 224.5,-116.0593 224.5,-108.4133"/>
<polygon fill="#000000" stroke="#000000" points="221.0001,-133.8313 224.5,-143.8314 228.0001,-133.8314 221.0001,-133.8313"/>
</g>
<!-- Valadoc.Api.Item -->
<g id="node4" class="node">
<title>Valadoc.Api.Item</title>
<g id="a_node4"><a xlink:href="Valadoc.Api.Item.html" xlink:title="Valadoc.Api.Item">
<polygon fill="none" stroke="#000000" stroke-width="2" points="125,-252 0,-252 0,-216 125,-216 125,-252"/>
<text text-anchor="middle" x="62.5" y="-230.3" font-family="Times" font-size="14.00" fill="#000000">Valadoc.Api.Item</text>
</a>
</g>
</g>
<!-- Valadoc.Api.Item&#45;&gt;Valadoc.Api.Node -->
<g id="edge3" class="edge">
<title>Valadoc.Api.Item&#45;&gt;Valadoc.Api.Node</title>
<path fill="none" stroke="#000000" d="M112.6031,-211.732C135.5099,-201.5512 162.2946,-189.6469 183.9145,-180.038"/>
<polygon fill="#000000" stroke="#000000" points="111.0961,-208.5716 103.3794,-215.8314 113.9391,-214.9683 111.0961,-208.5716"/>
</g>
<!-- GLib.Object -->
<g id="node5" class="node">
<title>GLib.Object</title>
<polygon fill="none" stroke="#000000" stroke-width="2" points="108.5,-324 16.5,-324 16.5,-288 108.5,-288 108.5,-324"/>
<text text-anchor="middle" x="62.5" y="-302.3" font-family="Times" font-size="14.00" fill="#000000">GLib.Object</text>
</g>
<!-- GLib.Object&#45;&gt;Valadoc.Api.Item -->
<g id="edge4" class="edge">
<title>GLib.Object&#45;&gt;Valadoc.Api.Item</title>
<path fill="none" stroke="#000000" d="M62.5,-277.5726C62.5,-269.1084 62.5,-260.0593 62.5,-252.4133"/>
<polygon fill="#000000" stroke="#000000" points="59.0001,-277.8313 62.5,-287.8314 66.0001,-277.8314 59.0001,-277.8313"/>
</g>
<!-- Valadoc.Api.Browsable -->
<g id="node6" class="node">
<title>Valadoc.Api.Browsable</title>
<g id="a_node6"><a xlink:href="Valadoc.Api.Browsable.html" xlink:title="Valadoc.Api.Browsable">
<polygon fill="none" stroke="#000000" points="305.5,-252 143.5,-252 143.5,-216 305.5,-216 305.5,-252"/>
<text text-anchor="middle" x="224.5" y="-230.3" font-family="Times" font-size="14.00" fill="#000000">Valadoc.Api.Browsable</text>
</a>
</g>
</g>
<!-- Valadoc.Api.Browsable&#45;&gt;Valadoc.Api.Node -->
<g id="edge5" class="edge">
<title>Valadoc.Api.Browsable&#45;&gt;Valadoc.Api.Node</title>
<path fill="none" stroke="#000000" d="M224.5,-205.5726C224.5,-197.1084 224.5,-188.0593 224.5,-180.4133"/>
<polygon fill="#000000" stroke="#000000" points="221.0001,-205.8313 224.5,-215.8314 228.0001,-205.8314 221.0001,-205.8313"/>
</g>
<!-- Valadoc.Documentation -->
<g id="node7" class="node">
<title>Valadoc.Documentation</title>
<g id="a_node7"><a xlink:href="Valadoc.Documentation.html" xlink:title="Valadoc.Documentation">
<polygon fill="none" stroke="#000000" points="493.5,-252 323.5,-252 323.5,-216 493.5,-216 493.5,-252"/>
<text text-anchor="middle" x="408.5" y="-230.3" font-family="Times" font-size="14.00" fill="#000000">Valadoc.Documentation</text>
</a>
</g>
</g>
<!-- Valadoc.Documentation&#45;&gt;Valadoc.Api.Node -->
<g id="edge6" class="edge">
<title>Valadoc.Documentation&#45;&gt;Valadoc.Api.Node</title>
<path fill="none" stroke="#000000" d="M352.6311,-212.1383C326.3875,-201.869 295.4805,-189.775 270.5971,-180.038"/>
<polygon fill="#000000" stroke="#000000" points="351.4812,-215.4467 362.069,-215.8314 354.032,-208.928 351.4812,-215.4467"/>
</g>
</g>
</svg>
