<?xml version="1.0" encoding="UTF-8" standalone="no"?>
<!DOCTYPE svg PUBLIC "-//W3C//DTD SVG 1.1//EN"
 "http://www.w3.org/Graphics/SVG/1.1/DTD/svg11.dtd">
<!-- Generated by graphviz version 2.40.1 (20161225.0304)
 -->
<!-- Title: Valadoc.Importer.GirDocumentationImporter Pages: 1 -->
<svg width="329pt" height="188pt"
 viewBox="0.00 0.00 329.00 188.00" xmlns="http://www.w3.org/2000/svg" xmlns:xlink="http://www.w3.org/1999/xlink">
<g id="graph0" class="graph" transform="scale(1 1) rotate(0) translate(4 184)">
<title>Valadoc.Importer.GirDocumentationImporter</title>
<polygon fill="#ffffff" stroke="transparent" points="-4,4 -4,-184 325,-184 325,4 -4,4"/>
<!-- Valadoc.Importer.GirDocumentationImporter -->
<g id="node1" class="node">
<title>Valadoc.Importer.GirDocumentationImporter</title>
<g id="a_node1"><a xlink:href="Valadoc.Importer.GirDocumentationImporter.html" xlink:title="Valadoc.Importer.GirDocumentationImporter">
<polygon fill="none" stroke="#000000" stroke-width="2" points="308,-36 0,-36 0,0 308,0 308,-36"/>
<text text-anchor="middle" x="154" y="-14.3" font-family="Times" font-size="14.00" fill="#000000">Valadoc.Importer.GirDocumentationImporter</text>
</a>
</g>
</g>
<!-- Valadoc.Importer.DocumentationImporter -->
<g id="node2" class="node">
<title>Valadoc.Importer.DocumentationImporter</title>
<g id="a_node2"><a xlink:href="Valadoc.Importer.DocumentationImporter.html" xlink:title="Valadoc.Importer.DocumentationImporter">
<polygon fill="none" stroke="#000000" stroke-width="2" points="298.5,-108 9.5,-108 9.5,-72 298.5,-72 298.5,-108"/>
<text text-anchor="middle" x="154" y="-86.3" font-family="Times" font-size="14.00" fill="#000000">Valadoc.Importer.DocumentationImporter</text>
</a>
</g>
</g>
<!-- Valadoc.Importer.DocumentationImporter&#45;&gt;Valadoc.Importer.GirDocumentationImporter -->
<g id="edge1" class="edge">
<title>Valadoc.Importer.DocumentationImporter&#45;&gt;Valadoc.Importer.GirDocumentationImporter</title>
<path fill="none" stroke="#000000" d="M154,-61.5726C154,-53.1084 154,-44.0593 154,-36.4133"/>
<polygon fill="#000000" stroke="#000000" points="150.5001,-61.8313 154,-71.8314 157.5001,-61.8314 150.5001,-61.8313"/>
</g>
<!-- GLib.Object -->
<g id="node3" class="node">
<title>GLib.Object</title>
<polygon fill="none" stroke="#000000" stroke-width="2" points="123,-180 31,-180 31,-144 123,-144 123,-180"/>
<text text-anchor="middle" x="77" y="-158.3" font-family="Times" font-size="14.00" fill="#000000">GLib.Object</text>
</g>
<!-- GLib.Object&#45;&gt;Valadoc.Importer.DocumentationImporter -->
<g id="edge2" class="edge">
<title>GLib.Object&#45;&gt;Valadoc.Importer.DocumentationImporter</title>
<path fill="none" stroke="#000000" d="M103.8782,-136.8672C113.9869,-127.4149 125.2751,-116.8596 134.5759,-108.1628"/>
<polygon fill="#000000" stroke="#000000" points="101.3441,-134.4449 96.4304,-143.8314 106.1251,-139.5579 101.3441,-134.4449"/>
</g>
<!-- Valadoc.ResourceLocator -->
<g id="node4" class="node">
<title>Valadoc.ResourceLocator</title>
<g id="a_node4"><a xlink:href="Valadoc.ResourceLocator.html" xlink:title="Valadoc.ResourceLocator">
<polygon fill="none" stroke="#000000" points="321,-180 141,-180 141,-144 321,-144 321,-180"/>
<text text-anchor="middle" x="231" y="-158.3" font-family="Times" font-size="14.00" fill="#000000">Valadoc.ResourceLocator</text>
</a>
</g>
</g>
<!-- Valadoc.ResourceLocator&#45;&gt;Valadoc.Importer.DocumentationImporter -->
<g id="edge3" class="edge">
<title>Valadoc.ResourceLocator&#45;&gt;Valadoc.Importer.DocumentationImporter</title>
<path fill="none" stroke="#000000" d="M204.1218,-136.8672C194.0131,-127.4149 182.7249,-116.8596 173.4241,-108.1628"/>
<polygon fill="#000000" stroke="#000000" points="201.8749,-139.5579 211.5696,-143.8314 206.6559,-134.4449 201.8749,-139.5579"/>
</g>
</g>
</svg>
