<?xml version="1.0" encoding="UTF-8" standalone="no"?>
<!DOCTYPE svg PUBLIC "-//W3C//DTD SVG 1.1//EN"
 "http://www.w3.org/Graphics/SVG/1.1/DTD/svg11.dtd">
<!-- Generated by graphviz version 2.40.1 (20161225.0304)
 -->
<!-- Title: Valadoc.Content.InlineContent Pages: 1 -->
<svg width="238pt" height="188pt"
 viewBox="0.00 0.00 238.00 188.00" xmlns="http://www.w3.org/2000/svg" xmlns:xlink="http://www.w3.org/1999/xlink">
<g id="graph0" class="graph" transform="scale(1 1) rotate(0) translate(4 184)">
<title>Valadoc.Content.InlineContent</title>
<polygon fill="#ffffff" stroke="transparent" points="-4,4 -4,-184 234,-184 234,4 -4,4"/>
<!-- Valadoc.Content.InlineContent -->
<g id="node1" class="node">
<title>Valadoc.Content.InlineContent</title>
<g id="a_node1"><a xlink:href="Valadoc.Content.InlineContent.html" xlink:title="Valadoc.Content.InlineContent">
<polygon fill="none" stroke="#000000" stroke-width="2" points="222.5,-36 7.5,-36 7.5,0 222.5,0 222.5,-36"/>
<text text-anchor="middle" x="115" y="-14.3" font-family="Times" font-size="14.00" fill="#000000">Valadoc.Content.InlineContent</text>
</a>
</g>
</g>
<!-- Valadoc.Content.ContentElement -->
<g id="node2" class="node">
<title>Valadoc.Content.ContentElement</title>
<g id="a_node2"><a xlink:href="Valadoc.Content.ContentElement.html" xlink:title="Valadoc.Content.ContentElement">
<polygon fill="none" stroke="#000000" stroke-width="2" points="230,-108 0,-108 0,-72 230,-72 230,-108"/>
<text text-anchor="middle" x="115" y="-86.3" font-family="Times" font-size="14.00" fill="#000000">Valadoc.Content.ContentElement</text>
</a>
</g>
</g>
<!-- Valadoc.Content.ContentElement&#45;&gt;Valadoc.Content.InlineContent -->
<g id="edge1" class="edge">
<title>Valadoc.Content.ContentElement&#45;&gt;Valadoc.Content.InlineContent</title>
<path fill="none" stroke="#000000" d="M115,-61.5726C115,-53.1084 115,-44.0593 115,-36.4133"/>
<polygon fill="#000000" stroke="#000000" points="111.5001,-61.8313 115,-71.8314 118.5001,-61.8314 111.5001,-61.8313"/>
</g>
<!-- GLib.Object -->
<g id="node3" class="node">
<title>GLib.Object</title>
<polygon fill="none" stroke="#000000" stroke-width="2" points="161,-180 69,-180 69,-144 161,-144 161,-180"/>
<text text-anchor="middle" x="115" y="-158.3" font-family="Times" font-size="14.00" fill="#000000">GLib.Object</text>
</g>
<!-- GLib.Object&#45;&gt;Valadoc.Content.ContentElement -->
<g id="edge2" class="edge">
<title>GLib.Object&#45;&gt;Valadoc.Content.ContentElement</title>
<path fill="none" stroke="#000000" d="M115,-133.5726C115,-125.1084 115,-116.0593 115,-108.4133"/>
<polygon fill="#000000" stroke="#000000" points="111.5001,-133.8313 115,-143.8314 118.5001,-133.8314 111.5001,-133.8313"/>
</g>
</g>
</svg>
