<?xml version="1.0" encoding="UTF-8" standalone="no"?>
<!DOCTYPE svg PUBLIC "-//W3C//DTD SVG 1.1//EN"
 "http://www.w3.org/Graphics/SVG/1.1/DTD/svg11.dtd">
<!-- Generated by graphviz version 2.40.1 (20161225.0304)
 -->
<!-- Title: Valadoc.Importer.ValadocDocumentationImporter Pages: 1 -->
<svg width="407pt" height="188pt"
 viewBox="0.00 0.00 407.50 188.00" xmlns="http://www.w3.org/2000/svg" xmlns:xlink="http://www.w3.org/1999/xlink">
<g id="graph0" class="graph" transform="scale(1 1) rotate(0) translate(4 184)">
<title>Valadoc.Importer.ValadocDocumentationImporter</title>
<polygon fill="#ffffff" stroke="transparent" points="-4,4 -4,-184 403.5,-184 403.5,4 -4,4"/>
<!-- Valadoc.Importer.ValadocDocumentationImporter -->
<g id="node1" class="node">
<title>Valadoc.Importer.ValadocDocumentationImporter</title>
<g id="a_node1"><a xlink:href="Valadoc.Importer.ValadocDocumentationImporter.html" xlink:title="Valadoc.Importer.ValadocDocumentationImporter">
<polygon fill="none" stroke="#000000" stroke-width="2" points="399.5,-36 61.5,-36 61.5,0 399.5,0 399.5,-36"/>
<text text-anchor="middle" x="230.5" y="-14.3" font-family="Times" font-size="14.00" fill="#000000">Valadoc.Importer.ValadocDocumentationImporter</text>
</a>
</g>
</g>
<!-- Valadoc.Importer.DocumentationImporter -->
<g id="node2" class="node">
<title>Valadoc.Importer.DocumentationImporter</title>
<g id="a_node2"><a xlink:href="Valadoc.Importer.DocumentationImporter.html" xlink:title="Valadoc.Importer.DocumentationImporter">
<polygon fill="none" stroke="#000000" stroke-width="2" points="289,-108 0,-108 0,-72 289,-72 289,-108"/>
<text text-anchor="middle" x="144.5" y="-86.3" font-family="Times" font-size="14.00" fill="#000000">Valadoc.Importer.DocumentationImporter</text>
</a>
</g>
</g>
<!-- Valadoc.Importer.DocumentationImporter&#45;&gt;Valadoc.Importer.ValadocDocumentationImporter -->
<g id="edge1" class="edge">
<title>Valadoc.Importer.DocumentationImporter&#45;&gt;Valadoc.Importer.ValadocDocumentationImporter</title>
<path fill="none" stroke="#000000" d="M174.1881,-65.1448C185.5626,-55.622 198.3158,-44.9449 208.8055,-36.1628"/>
<polygon fill="#000000" stroke="#000000" points="171.6222,-62.7283 166.2014,-71.8314 176.1158,-68.0956 171.6222,-62.7283"/>
</g>
<!-- GLib.Object -->
<g id="node3" class="node">
<title>GLib.Object</title>
<polygon fill="none" stroke="#000000" stroke-width="2" points="190.5,-180 98.5,-180 98.5,-144 190.5,-144 190.5,-180"/>
<text text-anchor="middle" x="144.5" y="-158.3" font-family="Times" font-size="14.00" fill="#000000">GLib.Object</text>
</g>
<!-- GLib.Object&#45;&gt;Valadoc.Importer.DocumentationImporter -->
<g id="edge2" class="edge">
<title>GLib.Object&#45;&gt;Valadoc.Importer.DocumentationImporter</title>
<path fill="none" stroke="#000000" d="M144.5,-133.5726C144.5,-125.1084 144.5,-116.0593 144.5,-108.4133"/>
<polygon fill="#000000" stroke="#000000" points="141.0001,-133.8313 144.5,-143.8314 148.0001,-133.8314 141.0001,-133.8313"/>
</g>
<!-- Valadoc.ResourceLocator -->
<g id="node4" class="node">
<title>Valadoc.ResourceLocator</title>
<g id="a_node4"><a xlink:href="Valadoc.ResourceLocator.html" xlink:title="Valadoc.ResourceLocator">
<polygon fill="none" stroke="#000000" points="397.5,-180 217.5,-180 217.5,-144 397.5,-144 397.5,-180"/>
<text text-anchor="middle" x="307.5" y="-158.3" font-family="Times" font-size="14.00" fill="#000000">Valadoc.ResourceLocator</text>
</a>
</g>
</g>
<!-- Valadoc.ResourceLocator&#45;&gt;Valadoc.Importer.ValadocDocumentationImporter -->
<g id="edge4" class="edge">
<title>Valadoc.ResourceLocator&#45;&gt;Valadoc.Importer.ValadocDocumentationImporter</title>
<path fill="none" stroke="#000000" d="M309.7429,-133.677C309.9674,-115.0681 307.7989,-90.7831 297.5,-72 289.4554,-57.3283 275.6256,-45.1584 262.6125,-36.1095"/>
<polygon fill="#000000" stroke="#000000" points="306.2372,-133.7744 309.3775,-143.8932 313.2328,-134.0247 306.2372,-133.7744"/>
</g>
<!-- Valadoc.ResourceLocator&#45;&gt;Valadoc.Importer.DocumentationImporter -->
<g id="edge3" class="edge">
<title>Valadoc.ResourceLocator&#45;&gt;Valadoc.Importer.DocumentationImporter</title>
<path fill="none" stroke="#000000" d="M257.0876,-139.732C234.0395,-129.5512 207.0894,-117.6469 185.336,-108.038"/>
<polygon fill="#000000" stroke="#000000" points="255.8066,-142.9923 266.3682,-143.8314 258.6351,-136.5892 255.8066,-142.9923"/>
</g>
</g>
</svg>
