<?xml version="1.0" encoding="UTF-8" standalone="no"?>
<!DOCTYPE svg PUBLIC "-//W3C//DTD SVG 1.1//EN"
 "http://www.w3.org/Graphics/SVG/1.1/DTD/svg11.dtd">
<!-- Generated by graphviz version 2.40.1 (0)
 -->
<!-- Title: Valadoc.Importer.ValadocDocumentationScanner Pages: 1 -->
<svg width="295pt" height="116pt"
 viewBox="0.00 0.00 295.00 116.00" xmlns="http://www.w3.org/2000/svg" xmlns:xlink="http://www.w3.org/1999/xlink">
<g id="graph0" class="graph" transform="scale(1 1) rotate(0) translate(4 112)">
<title>Valadoc.Importer.ValadocDocumentationScanner</title>
<polygon fill="#ffffff" stroke="transparent" points="-4,4 -4,-112 291,-112 291,4 -4,4"/>
<!-- Valadoc.Importer.ValadocDocumentationScanner -->
<g id="node1" class="node">
<title>Valadoc.Importer.ValadocDocumentationScanner</title>
<g id="a_node1"><a xlink:href="Valadoc.Importer.ValadocDocumentationScanner.html" xlink:title="Valadoc.Importer.ValadocDocumentationScanner">
<polygon fill="none" stroke="#000000" stroke-width="2" points="287,-36 0,-36 0,0 287,0 287,-36"/>
<text text-anchor="middle" x="143.5" y="-14.3" font-family="Times" font-size="14.00" fill="#000000">Valadoc.Importer.ValadocDocumentationScanner</text>
</a>
</g>
</g>
<!-- GLib.Object -->
<g id="node2" class="node">
<title>GLib.Object</title>
<g id="a_node2"><a xlink:href="../gobject-2.0/GLib.Object.html" xlink:title="GLib.Object">
<polygon fill="none" stroke="#000000" stroke-width="2" points="129,-108 44,-108 44,-72 129,-72 129,-108"/>
<text text-anchor="middle" x="86.5" y="-86.3" font-family="Times" font-size="14.00" fill="#000000">GLib.Object</text>
</a>
</g>
</g>
<!-- GLib.Object&#45;&gt;Valadoc.Importer.ValadocDocumentationScanner -->
<g id="edge1" class="edge">
<title>GLib.Object&#45;&gt;Valadoc.Importer.ValadocDocumentationScanner</title>
<path fill="none" stroke="#000000" d="M107.2303,-63.8144C114.4235,-54.7282 122.3317,-44.7389 128.9228,-36.4133"/>
<polygon fill="#000000" stroke="#000000" points="104.3464,-61.8184 100.8835,-71.8314 109.8347,-66.1634 104.3464,-61.8184"/>
</g>
<!-- Valadoc.Scanner -->
<g id="node3" class="node">
<title>Valadoc.Scanner</title>
<g id="a_node3"><a xlink:href="Valadoc.Scanner.html" xlink:title="Valadoc.Scanner">
<polygon fill="none" stroke="#000000" points="255.5,-108 147.5,-108 147.5,-72 255.5,-72 255.5,-108"/>
<text text-anchor="middle" x="201.5" y="-86.3" font-family="Times" font-size="14.00" fill="#000000">Valadoc.Scanner</text>
</a>
</g>
</g>
<!-- Valadoc.Scanner&#45;&gt;Valadoc.Importer.ValadocDocumentationScanner -->
<g id="edge2" class="edge">
<title>Valadoc.Scanner&#45;&gt;Valadoc.Importer.ValadocDocumentationScanner</title>
<path fill="none" stroke="#000000" d="M180.4061,-63.8144C173.0866,-54.7282 165.0397,-44.7389 158.3329,-36.4133"/>
<polygon fill="#000000" stroke="#000000" points="177.8652,-66.2395 186.8642,-71.8314 183.3165,-61.8481 177.8652,-66.2395"/>
</g>
</g>
</svg>
