<?xml version="1.0" encoding="UTF-8" standalone="no"?>
<!DOCTYPE svg PUBLIC "-//W3C//DTD SVG 1.1//EN"
 "http://www.w3.org/Graphics/SVG/1.1/DTD/svg11.dtd">
<!-- Generated by graphviz version 2.42.3 (0)
 -->
<!-- Title: Valadoc.Gtkdoc.Parser Pages: 1 -->
<svg width="270pt" height="116pt"
 viewBox="0.00 0.00 269.50 116.00" xmlns="http://www.w3.org/2000/svg" xmlns:xlink="http://www.w3.org/1999/xlink">
<g id="graph0" class="graph" transform="scale(1 1) rotate(0) translate(4 112)">
<title>Valadoc.Gtkdoc.Parser</title>
<polygon fill="white" stroke="transparent" points="-4,4 -4,-112 265.5,-112 265.5,4 -4,4"/>
<!-- Valadoc.Gtkdoc.Parser -->
<g id="node1" class="node">
<title>Valadoc.Gtkdoc.Parser</title>
<g id="a_node1"><a xlink:href="Valadoc.Gtkdoc.Parser.html" xlink:title="Valadoc.Gtkdoc.Parser">
<polygon fill="none" stroke="black" stroke-width="2" points="183.5,-36 41.5,-36 41.5,0 183.5,0 183.5,-36"/>
<text text-anchor="middle" x="112.5" y="-14.3" font-family="Times" font-size="14.00">Valadoc.Gtkdoc.Parser</text>
</a>
</g>
</g>
<!-- GLib.Object -->
<g id="node2" class="node">
<title>GLib.Object</title>
<g id="a_node2"><a xlink:href="../gobject-2.0/GLib.Object.html" xlink:title="GLib.Object">
<polygon fill="none" stroke="black" stroke-width="2" points="85,-108 0,-108 0,-72 85,-72 85,-108"/>
<text text-anchor="middle" x="42.5" y="-86.3" font-family="Times" font-size="14.00">GLib.Object</text>
</a>
</g>
</g>
<!-- GLib.Object&#45;&gt;Valadoc.Gtkdoc.Parser -->
<g id="edge1" class="edge">
<title>GLib.Object&#45;&gt;Valadoc.Gtkdoc.Parser</title>
<path fill="none" stroke="black" d="M67.02,-64.48C76.39,-55.11 86.86,-44.64 95.4,-36.1"/>
<polygon fill="black" stroke="black" points="64.4,-62.15 59.8,-71.7 69.35,-67.1 64.4,-62.15"/>
</g>
<!-- Valadoc.ResourceLocator -->
<g id="node3" class="node">
<title>Valadoc.ResourceLocator</title>
<g id="a_node3"><a xlink:href="Valadoc.ResourceLocator.html" xlink:title="Valadoc.ResourceLocator">
<polygon fill="none" stroke="black" points="261.5,-108 103.5,-108 103.5,-72 261.5,-72 261.5,-108"/>
<text text-anchor="middle" x="182.5" y="-86.3" font-family="Times" font-size="14.00">Valadoc.ResourceLocator</text>
</a>
</g>
</g>
<!-- Valadoc.ResourceLocator&#45;&gt;Valadoc.Gtkdoc.Parser -->
<g id="edge2" class="edge">
<title>Valadoc.ResourceLocator&#45;&gt;Valadoc.Gtkdoc.Parser</title>
<path fill="none" stroke="black" d="M157.98,-64.48C148.61,-55.11 138.14,-44.64 129.6,-36.1"/>
<polygon fill="black" stroke="black" points="155.65,-67.1 165.2,-71.7 160.6,-62.15 155.65,-67.1"/>
</g>
</g>
</svg>
