<?xml version="1.0" encoding="UTF-8" standalone="no"?>
<!DOCTYPE svg PUBLIC "-//W3C//DTD SVG 1.1//EN"
 "http://www.w3.org/Graphics/SVG/1.1/DTD/svg11.dtd">
<!-- Generated by graphviz version 2.42.3 (0)
 -->
<!-- Title: Valadoc.Charts.Chart Pages: 1 -->
<svg width="143pt" height="188pt"
 viewBox="0.00 0.00 143.00 188.00" xmlns="http://www.w3.org/2000/svg" xmlns:xlink="http://www.w3.org/1999/xlink">
<g id="graph0" class="graph" transform="scale(1 1) rotate(0) translate(4 184)">
<title>Valadoc.Charts.Chart</title>
<polygon fill="white" stroke="transparent" points="-4,4 -4,-184 139,-184 139,4 -4,4"/>
<!-- Valadoc.Charts.Chart -->
<g id="node1" class="node">
<title>Valadoc.Charts.Chart</title>
<g id="a_node1"><a xlink:href="Valadoc.Charts.Chart.html" xlink:title="Valadoc.Charts.Chart">
<polygon fill="none" stroke="black" stroke-width="2" points="135,-36 0,-36 0,0 135,0 135,-36"/>
<text text-anchor="middle" x="67.5" y="-14.3" font-family="Times" font-size="14.00">Valadoc.Charts.Chart</text>
</a>
</g>
</g>
<!-- Valadoc.Api.Visitor -->
<g id="node2" class="node">
<title>Valadoc.Api.Visitor</title>
<g id="a_node2"><a xlink:href="Valadoc.Api.Visitor.html" xlink:title="Valadoc.Api.Visitor">
<polygon fill="none" stroke="black" stroke-width="2" points="130.5,-108 4.5,-108 4.5,-72 130.5,-72 130.5,-108"/>
<text text-anchor="middle" x="67.5" y="-86.3" font-family="Times" font-size="14.00">Valadoc.Api.Visitor</text>
</a>
</g>
</g>
<!-- Valadoc.Api.Visitor&#45;&gt;Valadoc.Charts.Chart -->
<g id="edge1" class="edge">
<title>Valadoc.Api.Visitor&#45;&gt;Valadoc.Charts.Chart</title>
<path fill="none" stroke="black" d="M67.5,-61.67C67.5,-53.05 67.5,-43.79 67.5,-36.1"/>
<polygon fill="black" stroke="black" points="64,-61.7 67.5,-71.7 71,-61.7 64,-61.7"/>
</g>
<!-- GLib.Object -->
<g id="node3" class="node">
<title>GLib.Object</title>
<g id="a_node3"><a xlink:href="../gobject-2.0/GLib.Object.html" xlink:title="GLib.Object">
<polygon fill="none" stroke="black" stroke-width="2" points="110,-180 25,-180 25,-144 110,-144 110,-180"/>
<text text-anchor="middle" x="67.5" y="-158.3" font-family="Times" font-size="14.00">GLib.Object</text>
</a>
</g>
</g>
<!-- GLib.Object&#45;&gt;Valadoc.Api.Visitor -->
<g id="edge2" class="edge">
<title>GLib.Object&#45;&gt;Valadoc.Api.Visitor</title>
<path fill="none" stroke="black" d="M67.5,-133.67C67.5,-125.05 67.5,-115.79 67.5,-108.1"/>
<polygon fill="black" stroke="black" points="64,-133.7 67.5,-143.7 71,-133.7 64,-133.7"/>
</g>
</g>
</svg>
