<?xml version="1.0" encoding="UTF-8" standalone="no"?>
<!DOCTYPE svg PUBLIC "-//W3C//DTD SVG 1.1//EN"
 "http://www.w3.org/Graphics/SVG/1.1/DTD/svg11.dtd">
<!-- Generated by graphviz version 2.40.1 (20161225.0304)
 -->
<!-- Title: Valadoc.Taglets.Link Pages: 1 -->
<svg width="602pt" height="260pt"
 viewBox="0.00 0.00 601.50 260.00" xmlns="http://www.w3.org/2000/svg" xmlns:xlink="http://www.w3.org/1999/xlink">
<g id="graph0" class="graph" transform="scale(1 1) rotate(0) translate(4 256)">
<title>Valadoc.Taglets.Link</title>
<polygon fill="#ffffff" stroke="transparent" points="-4,4 -4,-256 597.5,-256 597.5,4 -4,4"/>
<!-- Valadoc.Taglets.Link -->
<g id="node1" class="node">
<title>Valadoc.Taglets.Link</title>
<g id="a_node1"><a xlink:href="Valadoc.Taglets.Link.html" xlink:title="Valadoc.Taglets.Link">
<polygon fill="none" stroke="#000000" stroke-width="2" points="403,-36 257,-36 257,0 403,0 403,-36"/>
<text text-anchor="middle" x="330" y="-14.3" font-family="Times" font-size="14.00" fill="#000000">Valadoc.Taglets.Link</text>
</a>
</g>
</g>
<!-- Valadoc.Content.InlineTaglet -->
<g id="node2" class="node">
<title>Valadoc.Content.InlineTaglet</title>
<g id="a_node2"><a xlink:href="Valadoc.Content.InlineTaglet.html" xlink:title="Valadoc.Content.InlineTaglet">
<polygon fill="none" stroke="#000000" stroke-width="2" points="431,-108 229,-108 229,-72 431,-72 431,-108"/>
<text text-anchor="middle" x="330" y="-86.3" font-family="Times" font-size="14.00" fill="#000000">Valadoc.Content.InlineTaglet</text>
</a>
</g>
</g>
<!-- Valadoc.Content.InlineTaglet&#45;&gt;Valadoc.Taglets.Link -->
<g id="edge1" class="edge">
<title>Valadoc.Content.InlineTaglet&#45;&gt;Valadoc.Taglets.Link</title>
<path fill="none" stroke="#000000" d="M330,-61.5726C330,-53.1084 330,-44.0593 330,-36.4133"/>
<polygon fill="#000000" stroke="#000000" points="326.5001,-61.8313 330,-71.8314 333.5001,-61.8314 326.5001,-61.8313"/>
</g>
<!-- Valadoc.Content.ContentElement -->
<g id="node3" class="node">
<title>Valadoc.Content.ContentElement</title>
<g id="a_node3"><a xlink:href="Valadoc.Content.ContentElement.html" xlink:title="Valadoc.Content.ContentElement">
<polygon fill="none" stroke="#000000" stroke-width="2" points="230,-180 0,-180 0,-144 230,-144 230,-180"/>
<text text-anchor="middle" x="115" y="-158.3" font-family="Times" font-size="14.00" fill="#000000">Valadoc.Content.ContentElement</text>
</a>
</g>
</g>
<!-- Valadoc.Content.ContentElement&#45;&gt;Valadoc.Content.InlineTaglet -->
<g id="edge2" class="edge">
<title>Valadoc.Content.ContentElement&#45;&gt;Valadoc.Content.InlineTaglet</title>
<path fill="none" stroke="#000000" d="M178.7978,-140.6351C209.7294,-130.2767 246.4786,-117.97 276.0017,-108.0831"/>
<polygon fill="#000000" stroke="#000000" points="177.347,-137.4299 168.9761,-143.9243 179.5699,-144.0676 177.347,-137.4299"/>
</g>
<!-- GLib.Object -->
<g id="node4" class="node">
<title>GLib.Object</title>
<polygon fill="none" stroke="#000000" stroke-width="2" points="161,-252 69,-252 69,-216 161,-216 161,-252"/>
<text text-anchor="middle" x="115" y="-230.3" font-family="Times" font-size="14.00" fill="#000000">GLib.Object</text>
</g>
<!-- GLib.Object&#45;&gt;Valadoc.Content.ContentElement -->
<g id="edge3" class="edge">
<title>GLib.Object&#45;&gt;Valadoc.Content.ContentElement</title>
<path fill="none" stroke="#000000" d="M115,-205.5726C115,-197.1084 115,-188.0593 115,-180.4133"/>
<polygon fill="#000000" stroke="#000000" points="111.5001,-205.8313 115,-215.8314 118.5001,-205.8314 111.5001,-205.8313"/>
</g>
<!-- Valadoc.Content.Taglet -->
<g id="node5" class="node">
<title>Valadoc.Content.Taglet</title>
<g id="a_node5"><a xlink:href="Valadoc.Content.Taglet.html" xlink:title="Valadoc.Content.Taglet">
<polygon fill="none" stroke="#000000" points="412,-180 248,-180 248,-144 412,-144 412,-180"/>
<text text-anchor="middle" x="330" y="-158.3" font-family="Times" font-size="14.00" fill="#000000">Valadoc.Content.Taglet</text>
</a>
</g>
</g>
<!-- Valadoc.Content.Taglet&#45;&gt;Valadoc.Content.InlineTaglet -->
<g id="edge4" class="edge">
<title>Valadoc.Content.Taglet&#45;&gt;Valadoc.Content.InlineTaglet</title>
<path fill="none" stroke="#000000" d="M330,-133.5726C330,-125.1084 330,-116.0593 330,-108.4133"/>
<polygon fill="#000000" stroke="#000000" points="326.5001,-133.8313 330,-143.8314 333.5001,-133.8314 326.5001,-133.8313"/>
</g>
<!-- Valadoc.Content.Inline -->
<g id="node6" class="node">
<title>Valadoc.Content.Inline</title>
<g id="a_node6"><a xlink:href="Valadoc.Content.Inline.html" xlink:title="Valadoc.Content.Inline">
<polygon fill="none" stroke="#000000" points="593.5,-180 430.5,-180 430.5,-144 593.5,-144 593.5,-180"/>
<text text-anchor="middle" x="512" y="-158.3" font-family="Times" font-size="14.00" fill="#000000">Valadoc.Content.Inline</text>
</a>
</g>
</g>
<!-- Valadoc.Content.Inline&#45;&gt;Valadoc.Content.InlineTaglet -->
<g id="edge5" class="edge">
<title>Valadoc.Content.Inline&#45;&gt;Valadoc.Content.InlineTaglet</title>
<path fill="none" stroke="#000000" d="M456.7384,-140.1383C430.78,-129.869 400.209,-117.775 375.596,-108.038"/>
<polygon fill="#000000" stroke="#000000" points="455.4874,-143.4072 466.0737,-143.8314 458.0625,-136.8981 455.4874,-143.4072"/>
</g>
</g>
</svg>
