<?xml version="1.0" encoding="UTF-8" standalone="no"?>
<!DOCTYPE svg PUBLIC "-//W3C//DTD SVG 1.1//EN"
 "http://www.w3.org/Graphics/SVG/1.1/DTD/svg11.dtd">
<!-- Generated by graphviz version 2.40.1 (20161225.0304)
 -->
<!-- Title: Valadoc.WikiPage Pages: 1 -->
<svg width="288pt" height="116pt"
 viewBox="0.00 0.00 288.00 116.00" xmlns="http://www.w3.org/2000/svg" xmlns:xlink="http://www.w3.org/1999/xlink">
<g id="graph0" class="graph" transform="scale(1 1) rotate(0) translate(4 112)">
<title>Valadoc.WikiPage</title>
<polygon fill="#ffffff" stroke="transparent" points="-4,4 -4,-112 284,-112 284,4 -4,4"/>
<!-- Valadoc.WikiPage -->
<g id="node1" class="node">
<title>Valadoc.WikiPage</title>
<g id="a_node1"><a xlink:href="Valadoc.WikiPage.html" xlink:title="Valadoc.WikiPage">
<polygon fill="none" stroke="#000000" stroke-width="2" points="184,-36 56,-36 56,0 184,0 184,-36"/>
<text text-anchor="middle" x="120" y="-14.3" font-family="Times" font-size="14.00" fill="#000000">Valadoc.WikiPage</text>
</a>
</g>
</g>
<!-- GLib.Object -->
<g id="node2" class="node">
<title>GLib.Object</title>
<polygon fill="none" stroke="#000000" stroke-width="2" points="92,-108 0,-108 0,-72 92,-72 92,-108"/>
<text text-anchor="middle" x="46" y="-86.3" font-family="Times" font-size="14.00" fill="#000000">GLib.Object</text>
</g>
<!-- GLib.Object&#45;&gt;Valadoc.WikiPage -->
<g id="edge1" class="edge">
<title>GLib.Object&#45;&gt;Valadoc.WikiPage</title>
<path fill="none" stroke="#000000" d="M72.117,-64.5888C81.7584,-55.2081 92.4819,-44.7744 101.3326,-36.1628"/>
<polygon fill="#000000" stroke="#000000" points="69.3999,-62.3492 64.6733,-71.8314 74.2814,-67.3663 69.3999,-62.3492"/>
</g>
<!-- Valadoc.Documentation -->
<g id="node3" class="node">
<title>Valadoc.Documentation</title>
<g id="a_node3"><a xlink:href="Valadoc.Documentation.html" xlink:title="Valadoc.Documentation">
<polygon fill="none" stroke="#000000" points="280,-108 110,-108 110,-72 280,-72 280,-108"/>
<text text-anchor="middle" x="195" y="-86.3" font-family="Times" font-size="14.00" fill="#000000">Valadoc.Documentation</text>
</a>
</g>
</g>
<!-- Valadoc.Documentation&#45;&gt;Valadoc.WikiPage -->
<g id="edge2" class="edge">
<title>Valadoc.Documentation&#45;&gt;Valadoc.WikiPage</title>
<path fill="none" stroke="#000000" d="M168.82,-64.8672C158.9738,-55.4149 147.9788,-44.8596 138.9196,-36.1628"/>
<polygon fill="#000000" stroke="#000000" points="166.4366,-67.4309 176.0743,-71.8314 171.2843,-62.3811 166.4366,-67.4309"/>
</g>
</g>
</svg>
