<?xml version="1.0" encoding="UTF-8" standalone="no"?>
<!DOCTYPE svg PUBLIC "-//W3C//DTD SVG 1.1//EN"
 "http://www.w3.org/Graphics/SVG/1.1/DTD/svg11.dtd">
<!-- Generated by graphviz version 2.40.1 (20161225.0304)
 -->
<!-- Title: Valadoc.CommentScanner Pages: 1 -->
<svg width="218pt" height="188pt"
 viewBox="0.00 0.00 218.00 188.00" xmlns="http://www.w3.org/2000/svg" xmlns:xlink="http://www.w3.org/1999/xlink">
<g id="graph0" class="graph" transform="scale(1 1) rotate(0) translate(4 184)">
<title>Valadoc.CommentScanner</title>
<polygon fill="#ffffff" stroke="transparent" points="-4,4 -4,-184 214,-184 214,4 -4,4"/>
<!-- Valadoc.CommentScanner -->
<g id="node1" class="node">
<title>Valadoc.CommentScanner</title>
<g id="a_node1"><a xlink:href="Valadoc.CommentScanner.html" xlink:title="Valadoc.CommentScanner">
<polygon fill="none" stroke="#000000" stroke-width="2" points="180.5,-36 18.5,-36 18.5,0 180.5,0 180.5,-36"/>
<text text-anchor="middle" x="99.5" y="-14.3" font-family="Times" font-size="14.00" fill="#000000">Valadoc.CommentScanner</text>
</a>
</g>
</g>
<!-- Valadoc.WikiScanner -->
<g id="node2" class="node">
<title>Valadoc.WikiScanner</title>
<g id="a_node2"><a xlink:href="Valadoc.WikiScanner.html" xlink:title="Valadoc.WikiScanner">
<polygon fill="none" stroke="#000000" stroke-width="2" points="167,-108 32,-108 32,-72 167,-72 167,-108"/>
<text text-anchor="middle" x="99.5" y="-86.3" font-family="Times" font-size="14.00" fill="#000000">Valadoc.WikiScanner</text>
</a>
</g>
</g>
<!-- Valadoc.WikiScanner&#45;&gt;Valadoc.CommentScanner -->
<g id="edge1" class="edge">
<title>Valadoc.WikiScanner&#45;&gt;Valadoc.CommentScanner</title>
<path fill="none" stroke="#000000" d="M99.5,-61.5726C99.5,-53.1084 99.5,-44.0593 99.5,-36.4133"/>
<polygon fill="#000000" stroke="#000000" points="96.0001,-61.8313 99.5,-71.8314 103.0001,-61.8314 96.0001,-61.8313"/>
</g>
<!-- GLib.Object -->
<g id="node3" class="node">
<title>GLib.Object</title>
<polygon fill="none" stroke="#000000" stroke-width="2" points="85,-180 0,-180 0,-144 85,-144 85,-180"/>
<text text-anchor="middle" x="42.5" y="-158.3" font-family="Times" font-size="14.00" fill="#000000">GLib.Object</text>
</g>
<!-- GLib.Object&#45;&gt;Valadoc.WikiScanner -->
<g id="edge2" class="edge">
<title>GLib.Object&#45;&gt;Valadoc.WikiScanner</title>
<path fill="none" stroke="#000000" d="M63.2303,-135.8144C70.4235,-126.7282 78.3317,-116.7389 84.9228,-108.4133"/>
<polygon fill="#000000" stroke="#000000" points="60.3464,-133.8184 56.8835,-143.8314 65.8347,-138.1634 60.3464,-133.8184"/>
</g>
<!-- Valadoc.Scanner -->
<g id="node4" class="node">
<title>Valadoc.Scanner</title>
<g id="a_node4"><a xlink:href="Valadoc.Scanner.html" xlink:title="Valadoc.Scanner">
<polygon fill="none" stroke="#000000" points="210,-180 103,-180 103,-144 210,-144 210,-180"/>
<text text-anchor="middle" x="156.5" y="-158.3" font-family="Times" font-size="14.00" fill="#000000">Valadoc.Scanner</text>
</a>
</g>
</g>
<!-- Valadoc.Scanner&#45;&gt;Valadoc.WikiScanner -->
<g id="edge3" class="edge">
<title>Valadoc.Scanner&#45;&gt;Valadoc.WikiScanner</title>
<path fill="none" stroke="#000000" d="M135.7697,-135.8144C128.5765,-126.7282 120.6683,-116.7389 114.0772,-108.4133"/>
<polygon fill="#000000" stroke="#000000" points="133.1653,-138.1634 142.1165,-143.8314 138.6536,-133.8184 133.1653,-138.1634"/>
</g>
</g>
</svg>
