<?xml version="1.0" encoding="UTF-8" standalone="no"?>
<!DOCTYPE svg PUBLIC "-//W3C//DTD SVG 1.1//EN"
 "http://www.w3.org/Graphics/SVG/1.1/DTD/svg11.dtd">
<!-- Generated by graphviz version 2.40.1 (20161225.0304)
 -->
<!-- Title: Valadoc.Highlighter.XmlScanner Pages: 1 -->
<svg width="318pt" height="116pt"
 viewBox="0.00 0.00 317.50 116.00" xmlns="http://www.w3.org/2000/svg" xmlns:xlink="http://www.w3.org/1999/xlink">
<g id="graph0" class="graph" transform="scale(1 1) rotate(0) translate(4 112)">
<title>Valadoc.Highlighter.XmlScanner</title>
<polygon fill="#ffffff" stroke="transparent" points="-4,4 -4,-112 313.5,-112 313.5,4 -4,4"/>
<!-- Valadoc.Highlighter.XmlScanner -->
<g id="node1" class="node">
<title>Valadoc.Highlighter.XmlScanner</title>
<g id="a_node1"><a xlink:href="Valadoc.Highlighter.XmlScanner.html" xlink:title="Valadoc.Highlighter.XmlScanner">
<polygon fill="none" stroke="#000000" stroke-width="2" points="239.5,-36 16.5,-36 16.5,0 239.5,0 239.5,-36"/>
<text text-anchor="middle" x="128" y="-14.3" font-family="Times" font-size="14.00" fill="#000000">Valadoc.Highlighter.XmlScanner</text>
</a>
</g>
</g>
<!-- GLib.Object -->
<g id="node2" class="node">
<title>GLib.Object</title>
<polygon fill="none" stroke="#000000" stroke-width="2" points="92,-108 0,-108 0,-72 92,-72 92,-108"/>
<text text-anchor="middle" x="46" y="-86.3" font-family="Times" font-size="14.00" fill="#000000">GLib.Object</text>
</g>
<!-- GLib.Object&#45;&gt;Valadoc.Highlighter.XmlScanner -->
<g id="edge1" class="edge">
<title>GLib.Object&#45;&gt;Valadoc.Highlighter.XmlScanner</title>
<path fill="none" stroke="#000000" d="M74.3073,-65.1448C85.1527,-55.622 97.3128,-44.9449 107.3146,-36.1628"/>
<polygon fill="#000000" stroke="#000000" points="71.8972,-62.6033 66.6921,-71.8314 76.5158,-67.8634 71.8972,-62.6033"/>
</g>
<!-- Valadoc.Highlighter.Scanner -->
<g id="node3" class="node">
<title>Valadoc.Highlighter.Scanner</title>
<g id="a_node3"><a xlink:href="Valadoc.Highlighter.Scanner.html" xlink:title="Valadoc.Highlighter.Scanner">
<polygon fill="none" stroke="#000000" points="309.5,-108 110.5,-108 110.5,-72 309.5,-72 309.5,-108"/>
<text text-anchor="middle" x="210" y="-86.3" font-family="Times" font-size="14.00" fill="#000000">Valadoc.Highlighter.Scanner</text>
</a>
</g>
</g>
<!-- Valadoc.Highlighter.Scanner&#45;&gt;Valadoc.Highlighter.XmlScanner -->
<g id="edge2" class="edge">
<title>Valadoc.Highlighter.Scanner&#45;&gt;Valadoc.Highlighter.XmlScanner</title>
<path fill="none" stroke="#000000" d="M181.6927,-65.1448C170.8473,-55.622 158.6872,-44.9449 148.6854,-36.1628"/>
<polygon fill="#000000" stroke="#000000" points="179.4842,-67.8634 189.3079,-71.8314 184.1028,-62.6033 179.4842,-67.8634"/>
</g>
</g>
</svg>
