<?xml version="1.0" encoding="UTF-8" standalone="no"?>
<!DOCTYPE svg PUBLIC "-//W3C//DTD SVG 1.1//EN"
 "http://www.w3.org/Graphics/SVG/1.1/DTD/svg11.dtd">
<!-- Generated by graphviz version 2.42.3 (0)
 -->
<!-- Title: Valadoc.Highlighter.CodeScanner Pages: 1 -->
<svg width="284pt" height="116pt"
 viewBox="0.00 0.00 284.00 116.00" xmlns="http://www.w3.org/2000/svg" xmlns:xlink="http://www.w3.org/1999/xlink">
<g id="graph0" class="graph" transform="scale(1 1) rotate(0) translate(4 112)">
<title>Valadoc.Highlighter.CodeScanner</title>
<polygon fill="white" stroke="transparent" points="-4,4 -4,-112 280,-112 280,4 -4,4"/>
<!-- Valadoc.Highlighter.CodeScanner -->
<g id="node1" class="node">
<title>Valadoc.Highlighter.CodeScanner</title>
<g id="a_node1"><a xlink:href="Valadoc.Highlighter.CodeScanner.html" xlink:title="Valadoc.Highlighter.CodeScanner">
<polygon fill="none" stroke="black" stroke-width="2" points="216.5,-36 14.5,-36 14.5,0 216.5,0 216.5,-36"/>
<text text-anchor="middle" x="115.5" y="-14.3" font-family="Times" font-size="14.00">Valadoc.Highlighter.CodeScanner</text>
</a>
</g>
</g>
<!-- GLib.Object -->
<g id="node2" class="node">
<title>GLib.Object</title>
<g id="a_node2"><a xlink:href="../gobject-2.0/GLib.Object.html" xlink:title="GLib.Object">
<polygon fill="none" stroke="black" stroke-width="2" points="85,-108 0,-108 0,-72 85,-72 85,-108"/>
<text text-anchor="middle" x="42.5" y="-86.3" font-family="Times" font-size="14.00">GLib.Object</text>
</a>
</g>
</g>
<!-- GLib.Object&#45;&gt;Valadoc.Highlighter.CodeScanner -->
<g id="edge1" class="edge">
<title>GLib.Object&#45;&gt;Valadoc.Highlighter.CodeScanner</title>
<path fill="none" stroke="black" d="M67.78,-64.76C77.63,-55.32 88.68,-44.72 97.66,-36.1"/>
<polygon fill="black" stroke="black" points="65.34,-62.25 60.54,-71.7 70.19,-67.3 65.34,-62.25"/>
</g>
<!-- Valadoc.Highlighter.Scanner -->
<g id="node3" class="node">
<title>Valadoc.Highlighter.Scanner</title>
<g id="a_node3"><a xlink:href="Valadoc.Highlighter.Scanner.html" xlink:title="Valadoc.Highlighter.Scanner">
<polygon fill="none" stroke="black" points="276,-108 103,-108 103,-72 276,-72 276,-108"/>
<text text-anchor="middle" x="189.5" y="-86.3" font-family="Times" font-size="14.00">Valadoc.Highlighter.Scanner</text>
</a>
</g>
</g>
<!-- Valadoc.Highlighter.Scanner&#45;&gt;Valadoc.Highlighter.CodeScanner -->
<g id="edge2" class="edge">
<title>Valadoc.Highlighter.Scanner&#45;&gt;Valadoc.Highlighter.CodeScanner</title>
<path fill="none" stroke="black" d="M163.87,-64.76C153.89,-55.32 142.69,-44.72 133.58,-36.1"/>
<polygon fill="black" stroke="black" points="161.54,-67.37 171.21,-71.7 166.35,-62.28 161.54,-67.37"/>
</g>
</g>
</svg>
