<?xml version="1.0" encoding="UTF-8" standalone="no"?>
<!DOCTYPE svg PUBLIC "-//W3C//DTD SVG 1.1//EN"
 "http://www.w3.org/Graphics/SVG/1.1/DTD/svg11.dtd">
<!-- Generated by graphviz version 2.42.3 (0)
 -->
<!-- Title: Valadoc.Importer.GirDocumentationImporter Pages: 1 -->
<svg width="290pt" height="188pt"
 viewBox="0.00 0.00 290.00 188.00" xmlns="http://www.w3.org/2000/svg" xmlns:xlink="http://www.w3.org/1999/xlink">
<g id="graph0" class="graph" transform="scale(1 1) rotate(0) translate(4 184)">
<title>Valadoc.Importer.GirDocumentationImporter</title>
<polygon fill="white" stroke="transparent" points="-4,4 -4,-184 286,-184 286,4 -4,4"/>
<!-- Valadoc.Importer.GirDocumentationImporter -->
<g id="node1" class="node">
<title>Valadoc.Importer.GirDocumentationImporter</title>
<g id="a_node1"><a xlink:href="Valadoc.Importer.GirDocumentationImporter.html" xlink:title="Valadoc.Importer.GirDocumentationImporter">
<polygon fill="none" stroke="black" stroke-width="2" points="266,-36 0,-36 0,0 266,0 266,-36"/>
<text text-anchor="middle" x="133" y="-14.3" font-family="Times" font-size="14.00">Valadoc.Importer.GirDocumentationImporter</text>
</a>
</g>
</g>
<!-- Valadoc.Importer.DocumentationImporter -->
<g id="node2" class="node">
<title>Valadoc.Importer.DocumentationImporter</title>
<g id="a_node2"><a xlink:href="Valadoc.Importer.DocumentationImporter.html" xlink:title="Valadoc.Importer.DocumentationImporter">
<polygon fill="none" stroke="black" stroke-width="2" points="257,-108 9,-108 9,-72 257,-72 257,-108"/>
<text text-anchor="middle" x="133" y="-86.3" font-family="Times" font-size="14.00">Valadoc.Importer.DocumentationImporter</text>
</a>
</g>
</g>
<!-- Valadoc.Importer.DocumentationImporter&#45;&gt;Valadoc.Importer.GirDocumentationImporter -->
<g id="edge1" class="edge">
<title>Valadoc.Importer.DocumentationImporter&#45;&gt;Valadoc.Importer.GirDocumentationImporter</title>
<path fill="none" stroke="black" d="M133,-61.67C133,-53.05 133,-43.79 133,-36.1"/>
<polygon fill="black" stroke="black" points="129.5,-61.7 133,-71.7 136.5,-61.7 129.5,-61.7"/>
</g>
<!-- GLib.Object -->
<g id="node3" class="node">
<title>GLib.Object</title>
<g id="a_node3"><a xlink:href="../gobject-2.0/GLib.Object.html" xlink:title="GLib.Object">
<polygon fill="none" stroke="black" stroke-width="2" points="105.5,-180 20.5,-180 20.5,-144 105.5,-144 105.5,-180"/>
<text text-anchor="middle" x="63" y="-158.3" font-family="Times" font-size="14.00">GLib.Object</text>
</a>
</g>
</g>
<!-- GLib.Object&#45;&gt;Valadoc.Importer.DocumentationImporter -->
<g id="edge2" class="edge">
<title>GLib.Object&#45;&gt;Valadoc.Importer.DocumentationImporter</title>
<path fill="none" stroke="black" d="M87.52,-136.48C96.89,-127.11 107.36,-116.64 115.9,-108.1"/>
<polygon fill="black" stroke="black" points="84.9,-134.15 80.3,-143.7 89.85,-139.1 84.9,-134.15"/>
</g>
<!-- Valadoc.ResourceLocator -->
<g id="node4" class="node">
<title>Valadoc.ResourceLocator</title>
<g id="a_node4"><a xlink:href="Valadoc.ResourceLocator.html" xlink:title="Valadoc.ResourceLocator">
<polygon fill="none" stroke="black" points="282,-180 124,-180 124,-144 282,-144 282,-180"/>
<text text-anchor="middle" x="203" y="-158.3" font-family="Times" font-size="14.00">Valadoc.ResourceLocator</text>
</a>
</g>
</g>
<!-- Valadoc.ResourceLocator&#45;&gt;Valadoc.Importer.DocumentationImporter -->
<g id="edge3" class="edge">
<title>Valadoc.ResourceLocator&#45;&gt;Valadoc.Importer.DocumentationImporter</title>
<path fill="none" stroke="black" d="M178.48,-136.48C169.11,-127.11 158.64,-116.64 150.1,-108.1"/>
<polygon fill="black" stroke="black" points="176.15,-139.1 185.7,-143.7 181.1,-134.15 176.15,-139.1"/>
</g>
</g>
</svg>
