<?xml version="1.0" encoding="UTF-8" standalone="no"?>
<!DOCTYPE svg PUBLIC "-//W3C//DTD SVG 1.1//EN"
 "http://www.w3.org/Graphics/SVG/1.1/DTD/svg11.dtd">
<!-- Generated by graphviz version 2.40.1 (20161225.0304)
 -->
<!-- Title: Valadoc.Content.SourceCode Pages: 1 -->
<svg width="420pt" height="188pt"
 viewBox="0.00 0.00 419.50 188.00" xmlns="http://www.w3.org/2000/svg" xmlns:xlink="http://www.w3.org/1999/xlink">
<g id="graph0" class="graph" transform="scale(1 1) rotate(0) translate(4 184)">
<title>Valadoc.Content.SourceCode</title>
<polygon fill="#ffffff" stroke="transparent" points="-4,4 -4,-184 415.5,-184 415.5,4 -4,4"/>
<!-- Valadoc.Content.SourceCode -->
<g id="node1" class="node">
<title>Valadoc.Content.SourceCode</title>
<g id="a_node1"><a xlink:href="Valadoc.Content.SourceCode.html" xlink:title="Valadoc.Content.SourceCode">
<polygon fill="none" stroke="#000000" stroke-width="2" points="324,-36 120,-36 120,0 324,0 324,-36"/>
<text text-anchor="middle" x="222" y="-14.3" font-family="Times" font-size="14.00" fill="#000000">Valadoc.Content.SourceCode</text>
</a>
</g>
</g>
<!-- Valadoc.Content.ContentElement -->
<g id="node2" class="node">
<title>Valadoc.Content.ContentElement</title>
<g id="a_node2"><a xlink:href="Valadoc.Content.ContentElement.html" xlink:title="Valadoc.Content.ContentElement">
<polygon fill="none" stroke="#000000" stroke-width="2" points="230,-108 0,-108 0,-72 230,-72 230,-108"/>
<text text-anchor="middle" x="115" y="-86.3" font-family="Times" font-size="14.00" fill="#000000">Valadoc.Content.ContentElement</text>
</a>
</g>
</g>
<!-- Valadoc.Content.ContentElement&#45;&gt;Valadoc.Content.SourceCode -->
<g id="edge1" class="edge">
<title>Valadoc.Content.ContentElement&#45;&gt;Valadoc.Content.SourceCode</title>
<path fill="none" stroke="#000000" d="M150.7054,-65.9739C165.1628,-56.2456 181.5768,-45.2007 195.008,-36.1628"/>
<polygon fill="#000000" stroke="#000000" points="148.3432,-63.3448 142.0006,-71.8314 152.2512,-69.1524 148.3432,-63.3448"/>
</g>
<!-- GLib.Object -->
<g id="node3" class="node">
<title>GLib.Object</title>
<polygon fill="none" stroke="#000000" stroke-width="2" points="161,-180 69,-180 69,-144 161,-144 161,-180"/>
<text text-anchor="middle" x="115" y="-158.3" font-family="Times" font-size="14.00" fill="#000000">GLib.Object</text>
</g>
<!-- GLib.Object&#45;&gt;Valadoc.Content.ContentElement -->
<g id="edge2" class="edge">
<title>GLib.Object&#45;&gt;Valadoc.Content.ContentElement</title>
<path fill="none" stroke="#000000" d="M115,-133.5726C115,-125.1084 115,-116.0593 115,-108.4133"/>
<polygon fill="#000000" stroke="#000000" points="111.5001,-133.8313 115,-143.8314 118.5001,-133.8314 111.5001,-133.8313"/>
</g>
<!-- Valadoc.Content.Inline -->
<g id="node4" class="node">
<title>Valadoc.Content.Inline</title>
<g id="a_node4"><a xlink:href="Valadoc.Content.Inline.html" xlink:title="Valadoc.Content.Inline">
<polygon fill="none" stroke="#000000" points="411.5,-108 248.5,-108 248.5,-72 411.5,-72 411.5,-108"/>
<text text-anchor="middle" x="330" y="-86.3" font-family="Times" font-size="14.00" fill="#000000">Valadoc.Content.Inline</text>
</a>
</g>
</g>
<!-- Valadoc.Content.Inline&#45;&gt;Valadoc.Content.SourceCode -->
<g id="edge3" class="edge">
<title>Valadoc.Content.Inline&#45;&gt;Valadoc.Content.SourceCode</title>
<path fill="none" stroke="#000000" d="M294.3734,-66.2489C279.6812,-56.4541 262.9289,-45.2859 249.2442,-36.1628"/>
<polygon fill="#000000" stroke="#000000" points="292.4851,-69.1965 302.747,-71.8314 296.368,-63.3721 292.4851,-69.1965"/>
</g>
</g>
</svg>
