<?xml version="1.0" encoding="UTF-8" standalone="no"?>
<!DOCTYPE svg PUBLIC "-//W3C//DTD SVG 1.1//EN"
 "http://www.w3.org/Graphics/SVG/1.1/DTD/svg11.dtd">
<!-- Generated by graphviz version 2.40.1 (20161225.0304)
 -->
<!-- Title: Valadoc.Api.Pointer Pages: 1 -->
<svg width="151pt" height="188pt"
 viewBox="0.00 0.00 151.00 188.00" xmlns="http://www.w3.org/2000/svg" xmlns:xlink="http://www.w3.org/1999/xlink">
<g id="graph0" class="graph" transform="scale(1 1) rotate(0) translate(4 184)">
<title>Valadoc.Api.Pointer</title>
<polygon fill="#ffffff" stroke="transparent" points="-4,4 -4,-184 147,-184 147,4 -4,4"/>
<!-- Valadoc.Api.Pointer -->
<g id="node1" class="node">
<title>Valadoc.Api.Pointer</title>
<g id="a_node1"><a xlink:href="Valadoc.Api.Pointer.html" xlink:title="Valadoc.Api.Pointer">
<polygon fill="none" stroke="#000000" stroke-width="2" points="143,-36 0,-36 0,0 143,0 143,-36"/>
<text text-anchor="middle" x="71.5" y="-14.3" font-family="Times" font-size="14.00" fill="#000000">Valadoc.Api.Pointer</text>
</a>
</g>
</g>
<!-- Valadoc.Api.Item -->
<g id="node2" class="node">
<title>Valadoc.Api.Item</title>
<g id="a_node2"><a xlink:href="Valadoc.Api.Item.html" xlink:title="Valadoc.Api.Item">
<polygon fill="none" stroke="#000000" stroke-width="2" points="134,-108 9,-108 9,-72 134,-72 134,-108"/>
<text text-anchor="middle" x="71.5" y="-86.3" font-family="Times" font-size="14.00" fill="#000000">Valadoc.Api.Item</text>
</a>
</g>
</g>
<!-- Valadoc.Api.Item&#45;&gt;Valadoc.Api.Pointer -->
<g id="edge1" class="edge">
<title>Valadoc.Api.Item&#45;&gt;Valadoc.Api.Pointer</title>
<path fill="none" stroke="#000000" d="M71.5,-61.5726C71.5,-53.1084 71.5,-44.0593 71.5,-36.4133"/>
<polygon fill="#000000" stroke="#000000" points="68.0001,-61.8313 71.5,-71.8314 75.0001,-61.8314 68.0001,-61.8313"/>
</g>
<!-- GLib.Object -->
<g id="node3" class="node">
<title>GLib.Object</title>
<polygon fill="none" stroke="#000000" stroke-width="2" points="117.5,-180 25.5,-180 25.5,-144 117.5,-144 117.5,-180"/>
<text text-anchor="middle" x="71.5" y="-158.3" font-family="Times" font-size="14.00" fill="#000000">GLib.Object</text>
</g>
<!-- GLib.Object&#45;&gt;Valadoc.Api.Item -->
<g id="edge2" class="edge">
<title>GLib.Object&#45;&gt;Valadoc.Api.Item</title>
<path fill="none" stroke="#000000" d="M71.5,-133.5726C71.5,-125.1084 71.5,-116.0593 71.5,-108.4133"/>
<polygon fill="#000000" stroke="#000000" points="68.0001,-133.8313 71.5,-143.8314 75.0001,-133.8314 68.0001,-133.8313"/>
</g>
</g>
</svg>
