<?xml version="1.0" encoding="UTF-8" standalone="no"?>
<!DOCTYPE svg PUBLIC "-//W3C//DTD SVG 1.1//EN"
 "http://www.w3.org/Graphics/SVG/1.1/DTD/svg11.dtd">
<!-- Generated by graphviz version 2.40.1 (20161225.0304)
 -->
<!-- Title: Valadoc.Importer.ValadocDocumentationImporter Pages: 1 -->
<svg width="355pt" height="188pt"
 viewBox="0.00 0.00 354.50 188.00" xmlns="http://www.w3.org/2000/svg" xmlns:xlink="http://www.w3.org/1999/xlink">
<g id="graph0" class="graph" transform="scale(1 1) rotate(0) translate(4 184)">
<title>Valadoc.Importer.ValadocDocumentationImporter</title>
<polygon fill="#ffffff" stroke="transparent" points="-4,4 -4,-184 350.5,-184 350.5,4 -4,4"/>
<!-- Valadoc.Importer.ValadocDocumentationImporter -->
<g id="node1" class="node">
<title>Valadoc.Importer.ValadocDocumentationImporter</title>
<g id="a_node1"><a xlink:href="Valadoc.Importer.ValadocDocumentationImporter.html" xlink:title="Valadoc.Importer.ValadocDocumentationImporter">
<polygon fill="none" stroke="#000000" stroke-width="2" points="344.5,-36 54.5,-36 54.5,0 344.5,0 344.5,-36"/>
<text text-anchor="middle" x="199.5" y="-14.3" font-family="Times" font-size="14.00" fill="#000000">Valadoc.Importer.ValadocDocumentationImporter</text>
</a>
</g>
</g>
<!-- Valadoc.Importer.DocumentationImporter -->
<g id="node2" class="node">
<title>Valadoc.Importer.DocumentationImporter</title>
<g id="a_node2"><a xlink:href="Valadoc.Importer.DocumentationImporter.html" xlink:title="Valadoc.Importer.DocumentationImporter">
<polygon fill="none" stroke="#000000" stroke-width="2" points="247,-108 0,-108 0,-72 247,-72 247,-108"/>
<text text-anchor="middle" x="123.5" y="-86.3" font-family="Times" font-size="14.00" fill="#000000">Valadoc.Importer.DocumentationImporter</text>
</a>
</g>
</g>
<!-- Valadoc.Importer.DocumentationImporter&#45;&gt;Valadoc.Importer.ValadocDocumentationImporter -->
<g id="edge1" class="edge">
<title>Valadoc.Importer.DocumentationImporter&#45;&gt;Valadoc.Importer.ValadocDocumentationImporter</title>
<path fill="none" stroke="#000000" d="M150.0291,-64.8672C160.0065,-55.4149 171.1482,-44.8596 180.3281,-36.1628"/>
<polygon fill="#000000" stroke="#000000" points="147.5304,-62.413 142.678,-71.8314 152.3447,-67.4947 147.5304,-62.413"/>
</g>
<!-- GLib.Object -->
<g id="node3" class="node">
<title>GLib.Object</title>
<polygon fill="none" stroke="#000000" stroke-width="2" points="166,-180 81,-180 81,-144 166,-144 166,-180"/>
<text text-anchor="middle" x="123.5" y="-158.3" font-family="Times" font-size="14.00" fill="#000000">GLib.Object</text>
</g>
<!-- GLib.Object&#45;&gt;Valadoc.Importer.DocumentationImporter -->
<g id="edge2" class="edge">
<title>GLib.Object&#45;&gt;Valadoc.Importer.DocumentationImporter</title>
<path fill="none" stroke="#000000" d="M123.5,-133.5726C123.5,-125.1084 123.5,-116.0593 123.5,-108.4133"/>
<polygon fill="#000000" stroke="#000000" points="120.0001,-133.8313 123.5,-143.8314 127.0001,-133.8314 120.0001,-133.8313"/>
</g>
<!-- Valadoc.ResourceLocator -->
<g id="node4" class="node">
<title>Valadoc.ResourceLocator</title>
<g id="a_node4"><a xlink:href="Valadoc.ResourceLocator.html" xlink:title="Valadoc.ResourceLocator">
<polygon fill="none" stroke="#000000" points="346.5,-180 190.5,-180 190.5,-144 346.5,-144 346.5,-180"/>
<text text-anchor="middle" x="268.5" y="-158.3" font-family="Times" font-size="14.00" fill="#000000">Valadoc.ResourceLocator</text>
</a>
</g>
</g>
<!-- Valadoc.ResourceLocator&#45;&gt;Valadoc.Importer.ValadocDocumentationImporter -->
<g id="edge4" class="edge">
<title>Valadoc.ResourceLocator&#45;&gt;Valadoc.Importer.ValadocDocumentationImporter</title>
<path fill="none" stroke="#000000" d="M269.0533,-133.5728C268.3218,-115.1086 265.2493,-91.0269 255.5,-72 248.294,-57.9367 235.9776,-45.4487 224.7272,-36.0336"/>
<polygon fill="#000000" stroke="#000000" points="265.5566,-133.7829 269.2463,-143.7144 272.5553,-133.6496 265.5566,-133.7829"/>
</g>
<!-- Valadoc.ResourceLocator&#45;&gt;Valadoc.Importer.DocumentationImporter -->
<g id="edge3" class="edge">
<title>Valadoc.ResourceLocator&#45;&gt;Valadoc.Importer.DocumentationImporter</title>
<path fill="none" stroke="#000000" d="M222.8327,-139.3238C202.5132,-129.2341 178.9197,-117.5187 159.8265,-108.038"/>
<polygon fill="#000000" stroke="#000000" points="221.3972,-142.5187 231.9104,-143.8314 224.5104,-136.2491 221.3972,-142.5187"/>
</g>
</g>
</svg>
