<?xml version="1.0" encoding="UTF-8" standalone="no"?>
<!DOCTYPE svg PUBLIC "-//W3C//DTD SVG 1.1//EN"
 "http://www.w3.org/Graphics/SVG/1.1/DTD/svg11.dtd">
<!-- Generated by graphviz version 2.40.1 (0)
 -->
<!-- Title: Valadoc.Api.Array Pages: 1 -->
<svg width="129pt" height="188pt"
 viewBox="0.00 0.00 129.00 188.00" xmlns="http://www.w3.org/2000/svg" xmlns:xlink="http://www.w3.org/1999/xlink">
<g id="graph0" class="graph" transform="scale(1 1) rotate(0) translate(4 184)">
<title>Valadoc.Api.Array</title>
<polygon fill="#ffffff" stroke="transparent" points="-4,4 -4,-184 125,-184 125,4 -4,4"/>
<!-- Valadoc.Api.Array -->
<g id="node1" class="node">
<title>Valadoc.Api.Array</title>
<g id="a_node1"><a xlink:href="Valadoc.Api.Array.html" xlink:title="Valadoc.Api.Array">
<polygon fill="none" stroke="#000000" stroke-width="2" points="121,-36 0,-36 0,0 121,0 121,-36"/>
<text text-anchor="middle" x="60.5" y="-14.3" font-family="Times" font-size="14.00" fill="#000000">Valadoc.Api.Array</text>
</a>
</g>
</g>
<!-- Valadoc.Api.Item -->
<g id="node2" class="node">
<title>Valadoc.Api.Item</title>
<g id="a_node2"><a xlink:href="Valadoc.Api.Item.html" xlink:title="Valadoc.Api.Item">
<polygon fill="none" stroke="#000000" stroke-width="2" points="117.5,-108 3.5,-108 3.5,-72 117.5,-72 117.5,-108"/>
<text text-anchor="middle" x="60.5" y="-86.3" font-family="Times" font-size="14.00" fill="#000000">Valadoc.Api.Item</text>
</a>
</g>
</g>
<!-- Valadoc.Api.Item&#45;&gt;Valadoc.Api.Array -->
<g id="edge1" class="edge">
<title>Valadoc.Api.Item&#45;&gt;Valadoc.Api.Array</title>
<path fill="none" stroke="#000000" d="M60.5,-61.5726C60.5,-53.1084 60.5,-44.0593 60.5,-36.4133"/>
<polygon fill="#000000" stroke="#000000" points="57.0001,-61.8313 60.5,-71.8314 64.0001,-61.8314 57.0001,-61.8313"/>
</g>
<!-- GLib.Object -->
<g id="node3" class="node">
<title>GLib.Object</title>
<g id="a_node3"><a xlink:href="../gobject-2.0/GLib.Object.html" xlink:title="GLib.Object">
<polygon fill="none" stroke="#000000" stroke-width="2" points="103,-180 18,-180 18,-144 103,-144 103,-180"/>
<text text-anchor="middle" x="60.5" y="-158.3" font-family="Times" font-size="14.00" fill="#000000">GLib.Object</text>
</a>
</g>
</g>
<!-- GLib.Object&#45;&gt;Valadoc.Api.Item -->
<g id="edge2" class="edge">
<title>GLib.Object&#45;&gt;Valadoc.Api.Item</title>
<path fill="none" stroke="#000000" d="M60.5,-133.5726C60.5,-125.1084 60.5,-116.0593 60.5,-108.4133"/>
<polygon fill="#000000" stroke="#000000" points="57.0001,-133.8313 60.5,-143.8314 64.0001,-133.8314 57.0001,-133.8313"/>
</g>
</g>
</svg>
