<?xml version="1.0" encoding="UTF-8" standalone="no"?>
<!DOCTYPE svg PUBLIC "-//W3C//DTD SVG 1.1//EN"
 "http://www.w3.org/Graphics/SVG/1.1/DTD/svg11.dtd">
<!-- Generated by graphviz version 2.42.3 (0)
 -->
<!-- Title: Valadoc.Content.ContentRenderer Pages: 1 -->
<svg width="211pt" height="188pt"
 viewBox="0.00 0.00 211.00 188.00" xmlns="http://www.w3.org/2000/svg" xmlns:xlink="http://www.w3.org/1999/xlink">
<g id="graph0" class="graph" transform="scale(1 1) rotate(0) translate(4 184)">
<title>Valadoc.Content.ContentRenderer</title>
<polygon fill="white" stroke="transparent" points="-4,4 -4,-184 207,-184 207,4 -4,4"/>
<!-- Valadoc.Content.ContentRenderer -->
<g id="node1" class="node">
<title>Valadoc.Content.ContentRenderer</title>
<g id="a_node1"><a xlink:href="Valadoc.Content.ContentRenderer.html" xlink:title="Valadoc.Content.ContentRenderer">
<polygon fill="none" stroke="black" stroke-width="2" points="203,-36 0,-36 0,0 203,0 203,-36"/>
<text text-anchor="middle" x="101.5" y="-14.3" font-family="Times" font-size="14.00">Valadoc.Content.ContentRenderer</text>
</a>
</g>
</g>
<!-- Valadoc.Content.ContentVisitor -->
<g id="node2" class="node">
<title>Valadoc.Content.ContentVisitor</title>
<g id="a_node2"><a xlink:href="Valadoc.Content.ContentVisitor.html" xlink:title="Valadoc.Content.ContentVisitor">
<polygon fill="none" stroke="black" stroke-width="2" points="197,-108 6,-108 6,-72 197,-72 197,-108"/>
<text text-anchor="middle" x="101.5" y="-86.3" font-family="Times" font-size="14.00">Valadoc.Content.ContentVisitor</text>
</a>
</g>
</g>
<!-- Valadoc.Content.ContentVisitor&#45;&gt;Valadoc.Content.ContentRenderer -->
<g id="edge1" class="edge">
<title>Valadoc.Content.ContentVisitor&#45;&gt;Valadoc.Content.ContentRenderer</title>
<path fill="none" stroke="black" d="M101.5,-61.67C101.5,-53.05 101.5,-43.79 101.5,-36.1"/>
<polygon fill="black" stroke="black" points="98,-61.7 101.5,-71.7 105,-61.7 98,-61.7"/>
</g>
<!-- GLib.Object -->
<g id="node3" class="node">
<title>GLib.Object</title>
<g id="a_node3"><a xlink:href="../gobject-2.0/GLib.Object.html" xlink:title="GLib.Object">
<polygon fill="none" stroke="black" stroke-width="2" points="144,-180 59,-180 59,-144 144,-144 144,-180"/>
<text text-anchor="middle" x="101.5" y="-158.3" font-family="Times" font-size="14.00">GLib.Object</text>
</a>
</g>
</g>
<!-- GLib.Object&#45;&gt;Valadoc.Content.ContentVisitor -->
<g id="edge2" class="edge">
<title>GLib.Object&#45;&gt;Valadoc.Content.ContentVisitor</title>
<path fill="none" stroke="black" d="M101.5,-133.67C101.5,-125.05 101.5,-115.79 101.5,-108.1"/>
<polygon fill="black" stroke="black" points="98,-133.7 101.5,-143.7 105,-133.7 98,-133.7"/>
</g>
</g>
</svg>
