<?xml version="1.0" encoding="UTF-8" standalone="no"?>
<!DOCTYPE svg PUBLIC "-//W3C//DTD SVG 1.1//EN"
 "http://www.w3.org/Graphics/SVG/1.1/DTD/svg11.dtd">
<!-- Generated by graphviz version 2.40.1 (20161225.0304)
 -->
<!-- Title: Valadoc.Importer.DocumentationImporter Pages: 1 -->
<svg width="280pt" height="116pt"
 viewBox="0.00 0.00 279.50 116.00" xmlns="http://www.w3.org/2000/svg" xmlns:xlink="http://www.w3.org/1999/xlink">
<g id="graph0" class="graph" transform="scale(1 1) rotate(0) translate(4 112)">
<title>Valadoc.Importer.DocumentationImporter</title>
<polygon fill="#ffffff" stroke="transparent" points="-4,4 -4,-112 275.5,-112 275.5,4 -4,4"/>
<!-- Valadoc.Importer.DocumentationImporter -->
<g id="node1" class="node">
<title>Valadoc.Importer.DocumentationImporter</title>
<g id="a_node1"><a xlink:href="Valadoc.Importer.DocumentationImporter.html" xlink:title="Valadoc.Importer.DocumentationImporter">
<polygon fill="none" stroke="#000000" stroke-width="2" points="247,-36 0,-36 0,0 247,0 247,-36"/>
<text text-anchor="middle" x="123.5" y="-14.3" font-family="Times" font-size="14.00" fill="#000000">Valadoc.Importer.DocumentationImporter</text>
</a>
</g>
</g>
<!-- GLib.Object -->
<g id="node2" class="node">
<title>GLib.Object</title>
<polygon fill="none" stroke="#000000" stroke-width="2" points="97,-108 12,-108 12,-72 97,-72 97,-108"/>
<text text-anchor="middle" x="54.5" y="-86.3" font-family="Times" font-size="14.00" fill="#000000">GLib.Object</text>
</g>
<!-- GLib.Object&#45;&gt;Valadoc.Importer.DocumentationImporter -->
<g id="edge1" class="edge">
<title>GLib.Object&#45;&gt;Valadoc.Importer.DocumentationImporter</title>
<path fill="none" stroke="#000000" d="M79.0625,-64.3696C87.9107,-55.1366 97.7124,-44.9088 105.854,-36.4133"/>
<polygon fill="#000000" stroke="#000000" points="76.3037,-62.1898 71.9116,-71.8314 81.3577,-67.0331 76.3037,-62.1898"/>
</g>
<!-- Valadoc.ResourceLocator -->
<g id="node3" class="node">
<title>Valadoc.ResourceLocator</title>
<g id="a_node3"><a xlink:href="Valadoc.ResourceLocator.html" xlink:title="Valadoc.ResourceLocator">
<polygon fill="none" stroke="#000000" points="271.5,-108 115.5,-108 115.5,-72 271.5,-72 271.5,-108"/>
<text text-anchor="middle" x="193.5" y="-86.3" font-family="Times" font-size="14.00" fill="#000000">Valadoc.ResourceLocator</text>
</a>
</g>
</g>
<!-- Valadoc.ResourceLocator&#45;&gt;Valadoc.Importer.DocumentationImporter -->
<g id="edge2" class="edge">
<title>Valadoc.ResourceLocator&#45;&gt;Valadoc.Importer.DocumentationImporter</title>
<path fill="none" stroke="#000000" d="M168.8505,-64.6463C159.8041,-55.3414 149.744,-44.9938 141.4018,-36.4133"/>
<polygon fill="#000000" stroke="#000000" points="166.3557,-67.1012 175.836,-71.8314 171.3747,-62.2216 166.3557,-67.1012"/>
</g>
</g>
</svg>
