<?xml version="1.0" encoding="UTF-8" standalone="no"?>
<!DOCTYPE svg PUBLIC "-//W3C//DTD SVG 1.1//EN"
 "http://www.w3.org/Graphics/SVG/1.1/DTD/svg11.dtd">
<!-- Generated by graphviz version 2.42.3 (0)
 -->
<!-- Title: Valadoc.Content.Paragraph Pages: 1 -->
<svg width="574pt" height="260pt"
 viewBox="0.00 0.00 574.00 260.00" xmlns="http://www.w3.org/2000/svg" xmlns:xlink="http://www.w3.org/1999/xlink">
<g id="graph0" class="graph" transform="scale(1 1) rotate(0) translate(4 256)">
<title>Valadoc.Content.Paragraph</title>
<polygon fill="white" stroke="transparent" points="-4,4 -4,-256 570,-256 570,4 -4,4"/>
<!-- Valadoc.Content.Paragraph -->
<g id="node1" class="node">
<title>Valadoc.Content.Paragraph</title>
<g id="a_node1"><a xlink:href="Valadoc.Content.Paragraph.html" xlink:title="Valadoc.Content.Paragraph">
<polygon fill="none" stroke="black" stroke-width="2" points="365.5,-36 198.5,-36 198.5,0 365.5,0 365.5,-36"/>
<text text-anchor="middle" x="282" y="-14.3" font-family="Times" font-size="14.00">Valadoc.Content.Paragraph</text>
</a>
</g>
</g>
<!-- Valadoc.Content.InlineContent -->
<g id="node2" class="node">
<title>Valadoc.Content.InlineContent</title>
<g id="a_node2"><a xlink:href="Valadoc.Content.InlineContent.html" xlink:title="Valadoc.Content.InlineContent">
<polygon fill="none" stroke="black" stroke-width="2" points="192.5,-108 7.5,-108 7.5,-72 192.5,-72 192.5,-108"/>
<text text-anchor="middle" x="100" y="-86.3" font-family="Times" font-size="14.00">Valadoc.Content.InlineContent</text>
</a>
</g>
</g>
<!-- Valadoc.Content.InlineContent&#45;&gt;Valadoc.Content.Paragraph -->
<g id="edge1" class="edge">
<title>Valadoc.Content.InlineContent&#45;&gt;Valadoc.Content.Paragraph</title>
<path fill="none" stroke="black" d="M154.08,-68.2C180.72,-57.95 212.44,-45.76 237.62,-36.07"/>
<polygon fill="black" stroke="black" points="152.6,-65.02 144.52,-71.88 155.11,-71.55 152.6,-65.02"/>
</g>
<!-- Valadoc.Content.ContentElement -->
<g id="node3" class="node">
<title>Valadoc.Content.ContentElement</title>
<g id="a_node3"><a xlink:href="Valadoc.Content.ContentElement.html" xlink:title="Valadoc.Content.ContentElement">
<polygon fill="none" stroke="black" stroke-width="2" points="200,-180 0,-180 0,-144 200,-144 200,-180"/>
<text text-anchor="middle" x="100" y="-158.3" font-family="Times" font-size="14.00">Valadoc.Content.ContentElement</text>
</a>
</g>
</g>
<!-- Valadoc.Content.ContentElement&#45;&gt;Valadoc.Content.InlineContent -->
<g id="edge2" class="edge">
<title>Valadoc.Content.ContentElement&#45;&gt;Valadoc.Content.InlineContent</title>
<path fill="none" stroke="black" d="M100,-133.67C100,-125.05 100,-115.79 100,-108.1"/>
<polygon fill="black" stroke="black" points="96.5,-133.7 100,-143.7 103.5,-133.7 96.5,-133.7"/>
</g>
<!-- GLib.Object -->
<g id="node4" class="node">
<title>GLib.Object</title>
<g id="a_node4"><a xlink:href="../gobject-2.0/GLib.Object.html" xlink:title="GLib.Object">
<polygon fill="none" stroke="black" stroke-width="2" points="142.5,-252 57.5,-252 57.5,-216 142.5,-216 142.5,-252"/>
<text text-anchor="middle" x="100" y="-230.3" font-family="Times" font-size="14.00">GLib.Object</text>
</a>
</g>
</g>
<!-- GLib.Object&#45;&gt;Valadoc.Content.ContentElement -->
<g id="edge3" class="edge">
<title>GLib.Object&#45;&gt;Valadoc.Content.ContentElement</title>
<path fill="none" stroke="black" d="M100,-205.67C100,-197.05 100,-187.79 100,-180.1"/>
<polygon fill="black" stroke="black" points="96.5,-205.7 100,-215.7 103.5,-205.7 96.5,-205.7"/>
</g>
<!-- Valadoc.Content.Block -->
<g id="node5" class="node">
<title>Valadoc.Content.Block</title>
<g id="a_node5"><a xlink:href="Valadoc.Content.Block.html" xlink:title="Valadoc.Content.Block">
<polygon fill="none" stroke="black" points="353.5,-108 210.5,-108 210.5,-72 353.5,-72 353.5,-108"/>
<text text-anchor="middle" x="282" y="-86.3" font-family="Times" font-size="14.00">Valadoc.Content.Block</text>
</a>
</g>
</g>
<!-- Valadoc.Content.Block&#45;&gt;Valadoc.Content.Paragraph -->
<g id="edge4" class="edge">
<title>Valadoc.Content.Block&#45;&gt;Valadoc.Content.Paragraph</title>
<path fill="none" stroke="black" d="M282,-61.67C282,-53.05 282,-43.79 282,-36.1"/>
<polygon fill="black" stroke="black" points="278.5,-61.7 282,-71.7 285.5,-61.7 278.5,-61.7"/>
</g>
<!-- Valadoc.Content.StyleAttributes -->
<g id="node6" class="node">
<title>Valadoc.Content.StyleAttributes</title>
<g id="a_node6"><a xlink:href="Valadoc.Content.StyleAttributes.html" xlink:title="Valadoc.Content.StyleAttributes">
<polygon fill="none" stroke="black" points="566,-108 372,-108 372,-72 566,-72 566,-108"/>
<text text-anchor="middle" x="469" y="-86.3" font-family="Times" font-size="14.00">Valadoc.Content.StyleAttributes</text>
</a>
</g>
</g>
<!-- Valadoc.Content.StyleAttributes&#45;&gt;Valadoc.Content.Paragraph -->
<g id="edge5" class="edge">
<title>Valadoc.Content.StyleAttributes&#45;&gt;Valadoc.Content.Paragraph</title>
<path fill="none" stroke="black" d="M413.79,-68.33C386.35,-58.06 353.59,-45.8 327.6,-36.07"/>
<polygon fill="black" stroke="black" points="412.66,-71.65 423.25,-71.88 415.12,-65.09 412.66,-71.65"/>
</g>
</g>
</svg>
