<?xml version="1.0" encoding="UTF-8" standalone="no"?>
<!DOCTYPE svg PUBLIC "-//W3C//DTD SVG 1.1//EN"
 "http://www.w3.org/Graphics/SVG/1.1/DTD/svg11.dtd">
<!-- Generated by graphviz version 2.40.1 (0)
 -->
<!-- Title: Valadoc.Charts.SimpleFactory Pages: 1 -->
<svg width="193pt" height="188pt"
 viewBox="0.00 0.00 193.00 188.00" xmlns="http://www.w3.org/2000/svg" xmlns:xlink="http://www.w3.org/1999/xlink">
<g id="graph0" class="graph" transform="scale(1 1) rotate(0) translate(4 184)">
<title>Valadoc.Charts.SimpleFactory</title>
<polygon fill="#ffffff" stroke="transparent" points="-4,4 -4,-184 189,-184 189,4 -4,4"/>
<!-- Valadoc.Charts.SimpleFactory -->
<g id="node1" class="node">
<title>Valadoc.Charts.SimpleFactory</title>
<g id="a_node1"><a xlink:href="Valadoc.Charts.SimpleFactory.html" xlink:title="Valadoc.Charts.SimpleFactory">
<polygon fill="none" stroke="#000000" stroke-width="2" points="185,-36 0,-36 0,0 185,0 185,-36"/>
<text text-anchor="middle" x="92.5" y="-14.3" font-family="Times" font-size="14.00" fill="#000000">Valadoc.Charts.SimpleFactory</text>
</a>
</g>
</g>
<!-- Valadoc.Charts.Factory -->
<g id="node2" class="node">
<title>Valadoc.Charts.Factory</title>
<g id="a_node2"><a xlink:href="Valadoc.Charts.Factory.html" xlink:title="Valadoc.Charts.Factory">
<polygon fill="none" stroke="#000000" stroke-width="2" points="165.5,-108 19.5,-108 19.5,-72 165.5,-72 165.5,-108"/>
<text text-anchor="middle" x="92.5" y="-86.3" font-family="Times" font-size="14.00" fill="#000000">Valadoc.Charts.Factory</text>
</a>
</g>
</g>
<!-- Valadoc.Charts.Factory&#45;&gt;Valadoc.Charts.SimpleFactory -->
<g id="edge1" class="edge">
<title>Valadoc.Charts.Factory&#45;&gt;Valadoc.Charts.SimpleFactory</title>
<path fill="none" stroke="#000000" d="M92.5,-61.5726C92.5,-53.1084 92.5,-44.0593 92.5,-36.4133"/>
<polygon fill="#000000" stroke="#000000" points="89.0001,-61.8313 92.5,-71.8314 96.0001,-61.8314 89.0001,-61.8313"/>
</g>
<!-- GLib.Object -->
<g id="node3" class="node">
<title>GLib.Object</title>
<g id="a_node3"><a xlink:href="../gobject-2.0/GLib.Object.html" xlink:title="GLib.Object">
<polygon fill="none" stroke="#000000" stroke-width="2" points="135,-180 50,-180 50,-144 135,-144 135,-180"/>
<text text-anchor="middle" x="92.5" y="-158.3" font-family="Times" font-size="14.00" fill="#000000">GLib.Object</text>
</a>
</g>
</g>
<!-- GLib.Object&#45;&gt;Valadoc.Charts.Factory -->
<g id="edge2" class="edge">
<title>GLib.Object&#45;&gt;Valadoc.Charts.Factory</title>
<path fill="none" stroke="#000000" d="M92.5,-133.5726C92.5,-125.1084 92.5,-116.0593 92.5,-108.4133"/>
<polygon fill="#000000" stroke="#000000" points="89.0001,-133.8313 92.5,-143.8314 96.0001,-133.8314 89.0001,-133.8313"/>
</g>
</g>
</svg>
