<?xml version="1.0" encoding="UTF-8" standalone="no"?>
<!DOCTYPE svg PUBLIC "-//W3C//DTD SVG 1.1//EN"
 "http://www.w3.org/Graphics/SVG/1.1/DTD/svg11.dtd">
<!-- Generated by graphviz version 2.40.1 (20161225.0304)
 -->
<!-- Title: Valadoc.Content.Warning Pages: 1 -->
<svg width="410pt" height="260pt"
 viewBox="0.00 0.00 410.00 260.00" xmlns="http://www.w3.org/2000/svg" xmlns:xlink="http://www.w3.org/1999/xlink">
<g id="graph0" class="graph" transform="scale(1 1) rotate(0) translate(4 256)">
<title>Valadoc.Content.Warning</title>
<polygon fill="#ffffff" stroke="transparent" points="-4,4 -4,-256 406,-256 406,4 -4,4"/>
<!-- Valadoc.Content.Warning -->
<g id="node1" class="node">
<title>Valadoc.Content.Warning</title>
<g id="a_node1"><a xlink:href="Valadoc.Content.Warning.html" xlink:title="Valadoc.Content.Warning">
<polygon fill="none" stroke="#000000" stroke-width="2" points="307.5,-36 128.5,-36 128.5,0 307.5,0 307.5,-36"/>
<text text-anchor="middle" x="218" y="-14.3" font-family="Times" font-size="14.00" fill="#000000">Valadoc.Content.Warning</text>
</a>
</g>
</g>
<!-- Valadoc.Content.BlockContent -->
<g id="node2" class="node">
<title>Valadoc.Content.BlockContent</title>
<g id="a_node2"><a xlink:href="Valadoc.Content.BlockContent.html" xlink:title="Valadoc.Content.BlockContent">
<polygon fill="none" stroke="#000000" stroke-width="2" points="222,-108 8,-108 8,-72 222,-72 222,-108"/>
<text text-anchor="middle" x="115" y="-86.3" font-family="Times" font-size="14.00" fill="#000000">Valadoc.Content.BlockContent</text>
</a>
</g>
</g>
<!-- Valadoc.Content.BlockContent&#45;&gt;Valadoc.Content.Warning -->
<g id="edge1" class="edge">
<title>Valadoc.Content.BlockContent&#45;&gt;Valadoc.Content.Warning</title>
<path fill="none" stroke="#000000" d="M149.3706,-65.9739C163.2876,-56.2456 179.0879,-45.2007 192.0171,-36.1628"/>
<polygon fill="#000000" stroke="#000000" points="147.1821,-63.2334 140.9912,-71.8314 151.1926,-68.9707 147.1821,-63.2334"/>
</g>
<!-- Valadoc.Content.ContentElement -->
<g id="node3" class="node">
<title>Valadoc.Content.ContentElement</title>
<g id="a_node3"><a xlink:href="Valadoc.Content.ContentElement.html" xlink:title="Valadoc.Content.ContentElement">
<polygon fill="none" stroke="#000000" stroke-width="2" points="230,-180 0,-180 0,-144 230,-144 230,-180"/>
<text text-anchor="middle" x="115" y="-158.3" font-family="Times" font-size="14.00" fill="#000000">Valadoc.Content.ContentElement</text>
</a>
</g>
</g>
<!-- Valadoc.Content.ContentElement&#45;&gt;Valadoc.Content.BlockContent -->
<g id="edge2" class="edge">
<title>Valadoc.Content.ContentElement&#45;&gt;Valadoc.Content.BlockContent</title>
<path fill="none" stroke="#000000" d="M115,-133.5726C115,-125.1084 115,-116.0593 115,-108.4133"/>
<polygon fill="#000000" stroke="#000000" points="111.5001,-133.8313 115,-143.8314 118.5001,-133.8314 111.5001,-133.8313"/>
</g>
<!-- GLib.Object -->
<g id="node4" class="node">
<title>GLib.Object</title>
<polygon fill="none" stroke="#000000" stroke-width="2" points="161,-252 69,-252 69,-216 161,-216 161,-252"/>
<text text-anchor="middle" x="115" y="-230.3" font-family="Times" font-size="14.00" fill="#000000">GLib.Object</text>
</g>
<!-- GLib.Object&#45;&gt;Valadoc.Content.ContentElement -->
<g id="edge3" class="edge">
<title>GLib.Object&#45;&gt;Valadoc.Content.ContentElement</title>
<path fill="none" stroke="#000000" d="M115,-205.5726C115,-197.1084 115,-188.0593 115,-180.4133"/>
<polygon fill="#000000" stroke="#000000" points="111.5001,-205.8313 115,-215.8314 118.5001,-205.8314 111.5001,-205.8313"/>
</g>
<!-- Valadoc.Content.Block -->
<g id="node5" class="node">
<title>Valadoc.Content.Block</title>
<g id="a_node5"><a xlink:href="Valadoc.Content.Block.html" xlink:title="Valadoc.Content.Block">
<polygon fill="none" stroke="#000000" points="402,-108 240,-108 240,-72 402,-72 402,-108"/>
<text text-anchor="middle" x="321" y="-86.3" font-family="Times" font-size="14.00" fill="#000000">Valadoc.Content.Block</text>
</a>
</g>
</g>
<!-- Valadoc.Content.Block&#45;&gt;Valadoc.Content.Warning -->
<g id="edge4" class="edge">
<title>Valadoc.Content.Block&#45;&gt;Valadoc.Content.Warning</title>
<path fill="none" stroke="#000000" d="M286.6294,-65.9739C272.7124,-56.2456 256.9121,-45.2007 243.9829,-36.1628"/>
<polygon fill="#000000" stroke="#000000" points="284.8074,-68.9707 295.0088,-71.8314 288.8179,-63.2334 284.8074,-68.9707"/>
</g>
</g>
</svg>
