<?xml version="1.0" encoding="UTF-8" standalone="no"?>
<!DOCTYPE svg PUBLIC "-//W3C//DTD SVG 1.1//EN"
 "http://www.w3.org/Graphics/SVG/1.1/DTD/svg11.dtd">
<!-- Generated by graphviz version 2.40.1 (20161225.0304)
 -->
<!-- Title: Valadoc.Html.BasicDoclet Pages: 1 -->
<svg width="276pt" height="188pt"
 viewBox="0.00 0.00 275.50 188.00" xmlns="http://www.w3.org/2000/svg" xmlns:xlink="http://www.w3.org/1999/xlink">
<g id="graph0" class="graph" transform="scale(1 1) rotate(0) translate(4 184)">
<title>Valadoc.Html.BasicDoclet</title>
<polygon fill="#ffffff" stroke="transparent" points="-4,4 -4,-184 271.5,-184 271.5,4 -4,4"/>
<!-- Valadoc.Html.BasicDoclet -->
<g id="node1" class="node">
<title>Valadoc.Html.BasicDoclet</title>
<g id="a_node1"><a xlink:href="Valadoc.Html.BasicDoclet.html" xlink:title="Valadoc.Html.BasicDoclet">
<polygon fill="none" stroke="#000000" stroke-width="2" points="230,-36 49,-36 49,0 230,0 230,-36"/>
<text text-anchor="middle" x="139.5" y="-14.3" font-family="Times" font-size="14.00" fill="#000000">Valadoc.Html.BasicDoclet</text>
</a>
</g>
</g>
<!-- Valadoc.Api.Visitor -->
<g id="node2" class="node">
<title>Valadoc.Api.Visitor</title>
<g id="a_node2"><a xlink:href="Valadoc.Api.Visitor.html" xlink:title="Valadoc.Api.Visitor">
<polygon fill="none" stroke="#000000" stroke-width="2" points="137,-108 0,-108 0,-72 137,-72 137,-108"/>
<text text-anchor="middle" x="68.5" y="-86.3" font-family="Times" font-size="14.00" fill="#000000">Valadoc.Api.Visitor</text>
</a>
</g>
</g>
<!-- Valadoc.Api.Visitor&#45;&gt;Valadoc.Html.BasicDoclet -->
<g id="edge1" class="edge">
<title>Valadoc.Api.Visitor&#45;&gt;Valadoc.Html.BasicDoclet</title>
<path fill="none" stroke="#000000" d="M93.5016,-64.6463C102.6773,-55.3414 112.8811,-44.9938 121.3425,-36.4133"/>
<polygon fill="#000000" stroke="#000000" points="90.9456,-62.2535 86.4163,-71.8314 95.9299,-67.1685 90.9456,-62.2535"/>
</g>
<!-- GLib.Object -->
<g id="node3" class="node">
<title>GLib.Object</title>
<polygon fill="none" stroke="#000000" stroke-width="2" points="114.5,-180 22.5,-180 22.5,-144 114.5,-144 114.5,-180"/>
<text text-anchor="middle" x="68.5" y="-158.3" font-family="Times" font-size="14.00" fill="#000000">GLib.Object</text>
</g>
<!-- GLib.Object&#45;&gt;Valadoc.Api.Visitor -->
<g id="edge2" class="edge">
<title>GLib.Object&#45;&gt;Valadoc.Api.Visitor</title>
<path fill="none" stroke="#000000" d="M68.5,-133.5726C68.5,-125.1084 68.5,-116.0593 68.5,-108.4133"/>
<polygon fill="#000000" stroke="#000000" points="65.0001,-133.8313 68.5,-143.8314 72.0001,-133.8314 65.0001,-133.8313"/>
</g>
<!-- Valadoc.Doclet -->
<g id="node4" class="node">
<title>Valadoc.Doclet</title>
<g id="a_node4"><a xlink:href="Valadoc.Doclet.html" xlink:title="Valadoc.Doclet">
<polygon fill="none" stroke="#000000" points="267.5,-108 155.5,-108 155.5,-72 267.5,-72 267.5,-108"/>
<text text-anchor="middle" x="211.5" y="-86.3" font-family="Times" font-size="14.00" fill="#000000">Valadoc.Doclet</text>
</a>
</g>
</g>
<!-- Valadoc.Doclet&#45;&gt;Valadoc.Html.BasicDoclet -->
<g id="edge3" class="edge">
<title>Valadoc.Doclet&#45;&gt;Valadoc.Html.BasicDoclet</title>
<path fill="none" stroke="#000000" d="M186.1463,-64.6463C176.8414,-55.3414 166.4938,-44.9938 157.9133,-36.4133"/>
<polygon fill="#000000" stroke="#000000" points="183.7854,-67.2351 193.3314,-71.8314 188.7351,-62.2854 183.7854,-67.2351"/>
</g>
</g>
</svg>
