<?xml version="1.0" encoding="UTF-8" standalone="no"?>
<!DOCTYPE svg PUBLIC "-//W3C//DTD SVG 1.1//EN"
 "http://www.w3.org/Graphics/SVG/1.1/DTD/svg11.dtd">
<!-- Generated by graphviz version 2.40.1 (0)
 -->
<!-- Title: Valadoc.SequenceRule Pages: 1 -->
<svg width="150pt" height="188pt"
 viewBox="0.00 0.00 150.00 188.00" xmlns="http://www.w3.org/2000/svg" xmlns:xlink="http://www.w3.org/1999/xlink">
<g id="graph0" class="graph" transform="scale(1 1) rotate(0) translate(4 184)">
<title>Valadoc.SequenceRule</title>
<polygon fill="#ffffff" stroke="transparent" points="-4,4 -4,-184 146,-184 146,4 -4,4"/>
<!-- Valadoc.SequenceRule -->
<g id="node1" class="node">
<title>Valadoc.SequenceRule</title>
<g id="a_node1"><a xlink:href="Valadoc.SequenceRule.html" xlink:title="Valadoc.SequenceRule">
<polygon fill="none" stroke="#000000" stroke-width="2" points="142,-36 0,-36 0,0 142,0 142,-36"/>
<text text-anchor="middle" x="71" y="-14.3" font-family="Times" font-size="14.00" fill="#000000">Valadoc.SequenceRule</text>
</a>
</g>
</g>
<!-- Valadoc.Rule -->
<g id="node2" class="node">
<title>Valadoc.Rule</title>
<g id="a_node2"><a xlink:href="Valadoc.Rule.html" xlink:title="Valadoc.Rule">
<polygon fill="none" stroke="#000000" stroke-width="2" points="116,-108 26,-108 26,-72 116,-72 116,-108"/>
<text text-anchor="middle" x="71" y="-86.3" font-family="Times" font-size="14.00" fill="#000000">Valadoc.Rule</text>
</a>
</g>
</g>
<!-- Valadoc.Rule&#45;&gt;Valadoc.SequenceRule -->
<g id="edge1" class="edge">
<title>Valadoc.Rule&#45;&gt;Valadoc.SequenceRule</title>
<path fill="none" stroke="#000000" d="M71,-61.5726C71,-53.1084 71,-44.0593 71,-36.4133"/>
<polygon fill="#000000" stroke="#000000" points="67.5001,-61.8313 71,-71.8314 74.5001,-61.8314 67.5001,-61.8313"/>
</g>
<!-- GLib.Object -->
<g id="node3" class="node">
<title>GLib.Object</title>
<g id="a_node3"><a xlink:href="../gobject-2.0/GLib.Object.html" xlink:title="GLib.Object">
<polygon fill="none" stroke="#000000" stroke-width="2" points="113.5,-180 28.5,-180 28.5,-144 113.5,-144 113.5,-180"/>
<text text-anchor="middle" x="71" y="-158.3" font-family="Times" font-size="14.00" fill="#000000">GLib.Object</text>
</a>
</g>
</g>
<!-- GLib.Object&#45;&gt;Valadoc.Rule -->
<g id="edge2" class="edge">
<title>GLib.Object&#45;&gt;Valadoc.Rule</title>
<path fill="none" stroke="#000000" d="M71,-133.5726C71,-125.1084 71,-116.0593 71,-108.4133"/>
<polygon fill="#000000" stroke="#000000" points="67.5001,-133.8313 71,-143.8314 74.5001,-133.8314 67.5001,-133.8313"/>
</g>
</g>
</svg>
