<?xml version="1.0" encoding="UTF-8" standalone="no"?>
<!DOCTYPE svg PUBLIC "-//W3C//DTD SVG 1.1//EN"
 "http://www.w3.org/Graphics/SVG/1.1/DTD/svg11.dtd">
<!-- Generated by graphviz version 2.40.1 (20161225.0304)
 -->
<!-- Title: Valadoc.Gtkdoc.MarkdownScanner Pages: 1 -->
<svg width="224pt" height="116pt"
 viewBox="0.00 0.00 223.50 116.00" xmlns="http://www.w3.org/2000/svg" xmlns:xlink="http://www.w3.org/1999/xlink">
<g id="graph0" class="graph" transform="scale(1 1) rotate(0) translate(4 112)">
<title>Valadoc.Gtkdoc.MarkdownScanner</title>
<polygon fill="#ffffff" stroke="transparent" points="-4,4 -4,-112 219.5,-112 219.5,4 -4,4"/>
<!-- Valadoc.Gtkdoc.MarkdownScanner -->
<g id="node1" class="node">
<title>Valadoc.Gtkdoc.MarkdownScanner</title>
<g id="a_node1"><a xlink:href="Valadoc.Gtkdoc.MarkdownScanner.html" xlink:title="Valadoc.Gtkdoc.MarkdownScanner">
<polygon fill="none" stroke="#000000" stroke-width="2" points="210,-36 0,-36 0,0 210,0 210,-36"/>
<text text-anchor="middle" x="105" y="-14.3" font-family="Times" font-size="14.00" fill="#000000">Valadoc.Gtkdoc.MarkdownScanner</text>
</a>
</g>
</g>
<!-- GLib.Object -->
<g id="node2" class="node">
<title>GLib.Object</title>
<polygon fill="none" stroke="#000000" stroke-width="2" points="90.5,-108 5.5,-108 5.5,-72 90.5,-72 90.5,-108"/>
<text text-anchor="middle" x="48" y="-86.3" font-family="Times" font-size="14.00" fill="#000000">GLib.Object</text>
</g>
<!-- GLib.Object&#45;&gt;Valadoc.Gtkdoc.MarkdownScanner -->
<g id="edge1" class="edge">
<title>GLib.Object&#45;&gt;Valadoc.Gtkdoc.MarkdownScanner</title>
<path fill="none" stroke="#000000" d="M68.7303,-63.8144C75.9235,-54.7282 83.8317,-44.7389 90.4228,-36.4133"/>
<polygon fill="#000000" stroke="#000000" points="65.8464,-61.8184 62.3835,-71.8314 71.3347,-66.1634 65.8464,-61.8184"/>
</g>
<!-- Valadoc.Scanner -->
<g id="node3" class="node">
<title>Valadoc.Scanner</title>
<g id="a_node3"><a xlink:href="Valadoc.Scanner.html" xlink:title="Valadoc.Scanner">
<polygon fill="none" stroke="#000000" points="215.5,-108 108.5,-108 108.5,-72 215.5,-72 215.5,-108"/>
<text text-anchor="middle" x="162" y="-86.3" font-family="Times" font-size="14.00" fill="#000000">Valadoc.Scanner</text>
</a>
</g>
</g>
<!-- Valadoc.Scanner&#45;&gt;Valadoc.Gtkdoc.MarkdownScanner -->
<g id="edge2" class="edge">
<title>Valadoc.Scanner&#45;&gt;Valadoc.Gtkdoc.MarkdownScanner</title>
<path fill="none" stroke="#000000" d="M141.2697,-63.8144C134.0765,-54.7282 126.1683,-44.7389 119.5772,-36.4133"/>
<polygon fill="#000000" stroke="#000000" points="138.6653,-66.1634 147.6165,-71.8314 144.1536,-61.8184 138.6653,-66.1634"/>
</g>
</g>
</svg>
