<?xml version="1.0" encoding="UTF-8" standalone="no"?>
<!DOCTYPE svg PUBLIC "-//W3C//DTD SVG 1.1//EN"
 "http://www.w3.org/Graphics/SVG/1.1/DTD/svg11.dtd">
<!-- Generated by graphviz version 2.40.1 (20161225.0304)
 -->
<!-- Title: Valadoc.Content.ContentRenderer Pages: 1 -->
<svg width="211pt" height="188pt"
 viewBox="0.00 0.00 211.00 188.00" xmlns="http://www.w3.org/2000/svg" xmlns:xlink="http://www.w3.org/1999/xlink">
<g id="graph0" class="graph" transform="scale(1 1) rotate(0) translate(4 184)">
<title>Valadoc.Content.ContentRenderer</title>
<polygon fill="#ffffff" stroke="transparent" points="-4,4 -4,-184 207,-184 207,4 -4,4"/>
<!-- Valadoc.Content.ContentRenderer -->
<g id="node1" class="node">
<title>Valadoc.Content.ContentRenderer</title>
<g id="a_node1"><a xlink:href="Valadoc.Content.ContentRenderer.html" xlink:title="Valadoc.Content.ContentRenderer">
<polygon fill="none" stroke="#000000" stroke-width="2" points="203,-36 0,-36 0,0 203,0 203,-36"/>
<text text-anchor="middle" x="101.5" y="-14.3" font-family="Times" font-size="14.00" fill="#000000">Valadoc.Content.ContentRenderer</text>
</a>
</g>
</g>
<!-- Valadoc.Content.ContentVisitor -->
<g id="node2" class="node">
<title>Valadoc.Content.ContentVisitor</title>
<g id="a_node2"><a xlink:href="Valadoc.Content.ContentVisitor.html" xlink:title="Valadoc.Content.ContentVisitor">
<polygon fill="none" stroke="#000000" stroke-width="2" points="197,-108 6,-108 6,-72 197,-72 197,-108"/>
<text text-anchor="middle" x="101.5" y="-86.3" font-family="Times" font-size="14.00" fill="#000000">Valadoc.Content.ContentVisitor</text>
</a>
</g>
</g>
<!-- Valadoc.Content.ContentVisitor&#45;&gt;Valadoc.Content.ContentRenderer -->
<g id="edge1" class="edge">
<title>Valadoc.Content.ContentVisitor&#45;&gt;Valadoc.Content.ContentRenderer</title>
<path fill="none" stroke="#000000" d="M101.5,-61.5726C101.5,-53.1084 101.5,-44.0593 101.5,-36.4133"/>
<polygon fill="#000000" stroke="#000000" points="98.0001,-61.8313 101.5,-71.8314 105.0001,-61.8314 98.0001,-61.8313"/>
</g>
<!-- GLib.Object -->
<g id="node3" class="node">
<title>GLib.Object</title>
<polygon fill="none" stroke="#000000" stroke-width="2" points="144,-180 59,-180 59,-144 144,-144 144,-180"/>
<text text-anchor="middle" x="101.5" y="-158.3" font-family="Times" font-size="14.00" fill="#000000">GLib.Object</text>
</g>
<!-- GLib.Object&#45;&gt;Valadoc.Content.ContentVisitor -->
<g id="edge2" class="edge">
<title>GLib.Object&#45;&gt;Valadoc.Content.ContentVisitor</title>
<path fill="none" stroke="#000000" d="M101.5,-133.5726C101.5,-125.1084 101.5,-116.0593 101.5,-108.4133"/>
<polygon fill="#000000" stroke="#000000" points="98.0001,-133.8313 101.5,-143.8314 105.0001,-133.8314 98.0001,-133.8313"/>
</g>
</g>
</svg>
