<?xml version="1.0" encoding="UTF-8" standalone="no"?>
<!DOCTYPE svg PUBLIC "-//W3C//DTD SVG 1.1//EN"
 "http://www.w3.org/Graphics/SVG/1.1/DTD/svg11.dtd">
<!-- Generated by graphviz version 2.40.1 (20161225.0304)
 -->
<!-- Title: Valadoc.Content.BlockContent Pages: 1 -->
<svg width="207pt" height="188pt"
 viewBox="0.00 0.00 207.00 188.00" xmlns="http://www.w3.org/2000/svg" xmlns:xlink="http://www.w3.org/1999/xlink">
<g id="graph0" class="graph" transform="scale(1 1) rotate(0) translate(4 184)">
<title>Valadoc.Content.BlockContent</title>
<polygon fill="#ffffff" stroke="transparent" points="-4,4 -4,-184 203,-184 203,4 -4,4"/>
<!-- Valadoc.Content.BlockContent -->
<g id="node1" class="node">
<title>Valadoc.Content.BlockContent</title>
<g id="a_node1"><a xlink:href="Valadoc.Content.BlockContent.html" xlink:title="Valadoc.Content.BlockContent">
<polygon fill="none" stroke="#000000" stroke-width="2" points="192,-36 7,-36 7,0 192,0 192,-36"/>
<text text-anchor="middle" x="99.5" y="-14.3" font-family="Times" font-size="14.00" fill="#000000">Valadoc.Content.BlockContent</text>
</a>
</g>
</g>
<!-- Valadoc.Content.ContentElement -->
<g id="node2" class="node">
<title>Valadoc.Content.ContentElement</title>
<g id="a_node2"><a xlink:href="Valadoc.Content.ContentElement.html" xlink:title="Valadoc.Content.ContentElement">
<polygon fill="none" stroke="#000000" stroke-width="2" points="199,-108 0,-108 0,-72 199,-72 199,-108"/>
<text text-anchor="middle" x="99.5" y="-86.3" font-family="Times" font-size="14.00" fill="#000000">Valadoc.Content.ContentElement</text>
</a>
</g>
</g>
<!-- Valadoc.Content.ContentElement&#45;&gt;Valadoc.Content.BlockContent -->
<g id="edge1" class="edge">
<title>Valadoc.Content.ContentElement&#45;&gt;Valadoc.Content.BlockContent</title>
<path fill="none" stroke="#000000" d="M99.5,-61.5726C99.5,-53.1084 99.5,-44.0593 99.5,-36.4133"/>
<polygon fill="#000000" stroke="#000000" points="96.0001,-61.8313 99.5,-71.8314 103.0001,-61.8314 96.0001,-61.8313"/>
</g>
<!-- GLib.Object -->
<g id="node3" class="node">
<title>GLib.Object</title>
<polygon fill="none" stroke="#000000" stroke-width="2" points="142,-180 57,-180 57,-144 142,-144 142,-180"/>
<text text-anchor="middle" x="99.5" y="-158.3" font-family="Times" font-size="14.00" fill="#000000">GLib.Object</text>
</g>
<!-- GLib.Object&#45;&gt;Valadoc.Content.ContentElement -->
<g id="edge2" class="edge">
<title>GLib.Object&#45;&gt;Valadoc.Content.ContentElement</title>
<path fill="none" stroke="#000000" d="M99.5,-133.5726C99.5,-125.1084 99.5,-116.0593 99.5,-108.4133"/>
<polygon fill="#000000" stroke="#000000" points="96.0001,-133.8313 99.5,-143.8314 103.0001,-133.8314 96.0001,-133.8313"/>
</g>
</g>
</svg>
