<?xml version="1.0" encoding="UTF-8" standalone="no"?>
<!DOCTYPE svg PUBLIC "-//W3C//DTD SVG 1.1//EN"
 "http://www.w3.org/Graphics/SVG/1.1/DTD/svg11.dtd">
<!-- Generated by graphviz version 2.40.1 (20161225.0304)
 -->
<!-- Title: Valadoc.Content.WikiLink Pages: 1 -->
<svg width="412pt" height="260pt"
 viewBox="0.00 0.00 411.50 260.00" xmlns="http://www.w3.org/2000/svg" xmlns:xlink="http://www.w3.org/1999/xlink">
<g id="graph0" class="graph" transform="scale(1 1) rotate(0) translate(4 256)">
<title>Valadoc.Content.WikiLink</title>
<polygon fill="#ffffff" stroke="transparent" points="-4,4 -4,-256 407.5,-256 407.5,4 -4,4"/>
<!-- Valadoc.Content.WikiLink -->
<g id="node1" class="node">
<title>Valadoc.Content.WikiLink</title>
<g id="a_node1"><a xlink:href="Valadoc.Content.WikiLink.html" xlink:title="Valadoc.Content.WikiLink">
<polygon fill="none" stroke="#000000" stroke-width="2" points="307.5,-36 128.5,-36 128.5,0 307.5,0 307.5,-36"/>
<text text-anchor="middle" x="218" y="-14.3" font-family="Times" font-size="14.00" fill="#000000">Valadoc.Content.WikiLink</text>
</a>
</g>
</g>
<!-- Valadoc.Content.InlineContent -->
<g id="node2" class="node">
<title>Valadoc.Content.InlineContent</title>
<g id="a_node2"><a xlink:href="Valadoc.Content.InlineContent.html" xlink:title="Valadoc.Content.InlineContent">
<polygon fill="none" stroke="#000000" stroke-width="2" points="222.5,-108 7.5,-108 7.5,-72 222.5,-72 222.5,-108"/>
<text text-anchor="middle" x="115" y="-86.3" font-family="Times" font-size="14.00" fill="#000000">Valadoc.Content.InlineContent</text>
</a>
</g>
</g>
<!-- Valadoc.Content.InlineContent&#45;&gt;Valadoc.Content.WikiLink -->
<g id="edge1" class="edge">
<title>Valadoc.Content.InlineContent&#45;&gt;Valadoc.Content.WikiLink</title>
<path fill="none" stroke="#000000" d="M149.3706,-65.9739C163.2876,-56.2456 179.0879,-45.2007 192.0171,-36.1628"/>
<polygon fill="#000000" stroke="#000000" points="147.1821,-63.2334 140.9912,-71.8314 151.1926,-68.9707 147.1821,-63.2334"/>
</g>
<!-- Valadoc.Content.ContentElement -->
<g id="node3" class="node">
<title>Valadoc.Content.ContentElement</title>
<g id="a_node3"><a xlink:href="Valadoc.Content.ContentElement.html" xlink:title="Valadoc.Content.ContentElement">
<polygon fill="none" stroke="#000000" stroke-width="2" points="230,-180 0,-180 0,-144 230,-144 230,-180"/>
<text text-anchor="middle" x="115" y="-158.3" font-family="Times" font-size="14.00" fill="#000000">Valadoc.Content.ContentElement</text>
</a>
</g>
</g>
<!-- Valadoc.Content.ContentElement&#45;&gt;Valadoc.Content.InlineContent -->
<g id="edge2" class="edge">
<title>Valadoc.Content.ContentElement&#45;&gt;Valadoc.Content.InlineContent</title>
<path fill="none" stroke="#000000" d="M115,-133.5726C115,-125.1084 115,-116.0593 115,-108.4133"/>
<polygon fill="#000000" stroke="#000000" points="111.5001,-133.8313 115,-143.8314 118.5001,-133.8314 111.5001,-133.8313"/>
</g>
<!-- GLib.Object -->
<g id="node4" class="node">
<title>GLib.Object</title>
<polygon fill="none" stroke="#000000" stroke-width="2" points="161,-252 69,-252 69,-216 161,-216 161,-252"/>
<text text-anchor="middle" x="115" y="-230.3" font-family="Times" font-size="14.00" fill="#000000">GLib.Object</text>
</g>
<!-- GLib.Object&#45;&gt;Valadoc.Content.ContentElement -->
<g id="edge3" class="edge">
<title>GLib.Object&#45;&gt;Valadoc.Content.ContentElement</title>
<path fill="none" stroke="#000000" d="M115,-205.5726C115,-197.1084 115,-188.0593 115,-180.4133"/>
<polygon fill="#000000" stroke="#000000" points="111.5001,-205.8313 115,-215.8314 118.5001,-205.8314 111.5001,-205.8313"/>
</g>
<!-- Valadoc.Content.Inline -->
<g id="node5" class="node">
<title>Valadoc.Content.Inline</title>
<g id="a_node5"><a xlink:href="Valadoc.Content.Inline.html" xlink:title="Valadoc.Content.Inline">
<polygon fill="none" stroke="#000000" points="403.5,-108 240.5,-108 240.5,-72 403.5,-72 403.5,-108"/>
<text text-anchor="middle" x="322" y="-86.3" font-family="Times" font-size="14.00" fill="#000000">Valadoc.Content.Inline</text>
</a>
</g>
</g>
<!-- Valadoc.Content.Inline&#45;&gt;Valadoc.Content.WikiLink -->
<g id="edge4" class="edge">
<title>Valadoc.Content.Inline&#45;&gt;Valadoc.Content.WikiLink</title>
<path fill="none" stroke="#000000" d="M287.2957,-65.9739C273.2436,-56.2456 257.2899,-45.2007 244.2352,-36.1628"/>
<polygon fill="#000000" stroke="#000000" points="285.5422,-69.0169 295.7564,-71.8314 289.5267,-63.2615 285.5422,-69.0169"/>
</g>
</g>
</svg>
