<?xml version="1.0" encoding="UTF-8" standalone="no"?>
<!DOCTYPE svg PUBLIC "-//W3C//DTD SVG 1.1//EN"
 "http://www.w3.org/Graphics/SVG/1.1/DTD/svg11.dtd">
<!-- Generated by graphviz version 2.42.3 (0)
 -->
<!-- Title: Valadoc.Api.Delegate Pages: 1 -->
<svg width="371pt" height="404pt"
 viewBox="0.00 0.00 371.00 404.00" xmlns="http://www.w3.org/2000/svg" xmlns:xlink="http://www.w3.org/1999/xlink">
<g id="graph0" class="graph" transform="scale(1 1) rotate(0) translate(4 400)">
<title>Valadoc.Api.Delegate</title>
<polygon fill="white" stroke="transparent" points="-4,4 -4,-400 367,-400 367,4 -4,4"/>
<!-- Valadoc.Api.Delegate -->
<g id="node1" class="node">
<title>Valadoc.Api.Delegate</title>
<g id="a_node1"><a xlink:href="Valadoc.Api.Delegate.html" xlink:title="Valadoc.Api.Delegate">
<polygon fill="none" stroke="black" stroke-width="2" points="282.5,-36 145.5,-36 145.5,0 282.5,0 282.5,-36"/>
<text text-anchor="middle" x="214" y="-14.3" font-family="Times" font-size="14.00">Valadoc.Api.Delegate</text>
</a>
</g>
</g>
<!-- Valadoc.Api.TypeSymbol -->
<g id="node2" class="node">
<title>Valadoc.Api.TypeSymbol</title>
<g id="a_node2"><a xlink:href="Valadoc.Api.TypeSymbol.html" xlink:title="Valadoc.Api.TypeSymbol">
<polygon fill="none" stroke="black" stroke-width="2" points="211,-108 53,-108 53,-72 211,-72 211,-108"/>
<text text-anchor="middle" x="132" y="-86.3" font-family="Times" font-size="14.00">Valadoc.Api.TypeSymbol</text>
</a>
</g>
</g>
<!-- Valadoc.Api.TypeSymbol&#45;&gt;Valadoc.Api.Delegate -->
<g id="edge1" class="edge">
<title>Valadoc.Api.TypeSymbol&#45;&gt;Valadoc.Api.Delegate</title>
<path fill="none" stroke="black" d="M160.08,-65.03C171.21,-55.52 183.77,-44.8 193.96,-36.1"/>
<polygon fill="black" stroke="black" points="157.6,-62.54 152.27,-71.7 162.15,-67.87 157.6,-62.54"/>
</g>
<!-- Valadoc.Api.Symbol -->
<g id="node3" class="node">
<title>Valadoc.Api.Symbol</title>
<g id="a_node3"><a xlink:href="Valadoc.Api.Symbol.html" xlink:title="Valadoc.Api.Symbol">
<polygon fill="none" stroke="black" stroke-width="2" points="197.5,-180 66.5,-180 66.5,-144 197.5,-144 197.5,-180"/>
<text text-anchor="middle" x="132" y="-158.3" font-family="Times" font-size="14.00">Valadoc.Api.Symbol</text>
</a>
</g>
</g>
<!-- Valadoc.Api.Symbol&#45;&gt;Valadoc.Api.TypeSymbol -->
<g id="edge2" class="edge">
<title>Valadoc.Api.Symbol&#45;&gt;Valadoc.Api.TypeSymbol</title>
<path fill="none" stroke="black" d="M132,-133.67C132,-125.05 132,-115.79 132,-108.1"/>
<polygon fill="black" stroke="black" points="128.5,-133.7 132,-143.7 135.5,-133.7 128.5,-133.7"/>
</g>
<!-- Valadoc.Api.Node -->
<g id="node4" class="node">
<title>Valadoc.Api.Node</title>
<g id="a_node4"><a xlink:href="Valadoc.Api.Node.html" xlink:title="Valadoc.Api.Node">
<polygon fill="none" stroke="black" stroke-width="2" points="191,-252 73,-252 73,-216 191,-216 191,-252"/>
<text text-anchor="middle" x="132" y="-230.3" font-family="Times" font-size="14.00">Valadoc.Api.Node</text>
</a>
</g>
</g>
<!-- Valadoc.Api.Node&#45;&gt;Valadoc.Api.Symbol -->
<g id="edge3" class="edge">
<title>Valadoc.Api.Node&#45;&gt;Valadoc.Api.Symbol</title>
<path fill="none" stroke="black" d="M132,-205.67C132,-197.05 132,-187.79 132,-180.1"/>
<polygon fill="black" stroke="black" points="128.5,-205.7 132,-215.7 135.5,-205.7 128.5,-205.7"/>
</g>
<!-- Valadoc.Api.Item -->
<g id="node5" class="node">
<title>Valadoc.Api.Item</title>
<g id="a_node5"><a xlink:href="Valadoc.Api.Item.html" xlink:title="Valadoc.Api.Item">
<polygon fill="none" stroke="black" stroke-width="2" points="114,-324 0,-324 0,-288 114,-288 114,-324"/>
<text text-anchor="middle" x="57" y="-302.3" font-family="Times" font-size="14.00">Valadoc.Api.Item</text>
</a>
</g>
</g>
<!-- Valadoc.Api.Item&#45;&gt;Valadoc.Api.Node -->
<g id="edge4" class="edge">
<title>Valadoc.Api.Item&#45;&gt;Valadoc.Api.Node</title>
<path fill="none" stroke="black" d="M82.98,-280.76C93.09,-271.32 104.44,-260.72 113.67,-252.1"/>
<polygon fill="black" stroke="black" points="80.46,-278.31 75.54,-287.7 85.24,-283.43 80.46,-278.31"/>
</g>
<!-- GLib.Object -->
<g id="node6" class="node">
<title>GLib.Object</title>
<g id="a_node6"><a xlink:href="../gobject-2.0/GLib.Object.html" xlink:title="GLib.Object">
<polygon fill="none" stroke="black" stroke-width="2" points="99.5,-396 14.5,-396 14.5,-360 99.5,-360 99.5,-396"/>
<text text-anchor="middle" x="57" y="-374.3" font-family="Times" font-size="14.00">GLib.Object</text>
</a>
</g>
</g>
<!-- GLib.Object&#45;&gt;Valadoc.Api.Item -->
<g id="edge5" class="edge">
<title>GLib.Object&#45;&gt;Valadoc.Api.Item</title>
<path fill="none" stroke="black" d="M57,-349.67C57,-341.05 57,-331.79 57,-324.1"/>
<polygon fill="black" stroke="black" points="53.5,-349.7 57,-359.7 60.5,-349.7 53.5,-349.7"/>
</g>
<!-- Valadoc.Documentation -->
<g id="node7" class="node">
<title>Valadoc.Documentation</title>
<g id="a_node7"><a xlink:href="Valadoc.Documentation.html" xlink:title="Valadoc.Documentation">
<polygon fill="none" stroke="black" points="281.5,-324 132.5,-324 132.5,-288 281.5,-288 281.5,-324"/>
<text text-anchor="middle" x="207" y="-302.3" font-family="Times" font-size="14.00">Valadoc.Documentation</text>
</a>
</g>
</g>
<!-- Valadoc.Documentation&#45;&gt;Valadoc.Api.Node -->
<g id="edge6" class="edge">
<title>Valadoc.Documentation&#45;&gt;Valadoc.Api.Node</title>
<path fill="none" stroke="black" d="M181.02,-280.76C170.91,-271.32 159.56,-260.72 150.33,-252.1"/>
<polygon fill="black" stroke="black" points="178.76,-283.43 188.46,-287.7 183.54,-278.31 178.76,-283.43"/>
</g>
<!-- Valadoc.Api.Callable -->
<g id="node8" class="node">
<title>Valadoc.Api.Callable</title>
<g id="a_node8"><a xlink:href="Valadoc.Api.Callable.html" xlink:title="Valadoc.Api.Callable">
<polygon fill="none" stroke="black" points="363,-108 229,-108 229,-72 363,-72 363,-108"/>
<text text-anchor="middle" x="296" y="-86.3" font-family="Times" font-size="14.00">Valadoc.Api.Callable</text>
</a>
</g>
</g>
<!-- Valadoc.Api.Callable&#45;&gt;Valadoc.Api.Delegate -->
<g id="edge7" class="edge">
<title>Valadoc.Api.Callable&#45;&gt;Valadoc.Api.Delegate</title>
<path fill="none" stroke="black" d="M267.92,-65.03C256.79,-55.52 244.23,-44.8 234.04,-36.1"/>
<polygon fill="black" stroke="black" points="265.85,-67.87 275.73,-71.7 270.4,-62.54 265.85,-67.87"/>
</g>
</g>
</svg>
