<?xml version="1.0" encoding="UTF-8" standalone="no"?>
<!DOCTYPE svg PUBLIC "-//W3C//DTD SVG 1.1//EN"
 "http://www.w3.org/Graphics/SVG/1.1/DTD/svg11.dtd">
<!-- Generated by graphviz version 2.40.1 (20161225.0304)
 -->
<!-- Title: Valadoc.Content.Table Pages: 1 -->
<svg width="418pt" height="188pt"
 viewBox="0.00 0.00 418.00 188.00" xmlns="http://www.w3.org/2000/svg" xmlns:xlink="http://www.w3.org/1999/xlink">
<g id="graph0" class="graph" transform="scale(1 1) rotate(0) translate(4 184)">
<title>Valadoc.Content.Table</title>
<polygon fill="#ffffff" stroke="transparent" points="-4,4 -4,-184 414,-184 414,4 -4,4"/>
<!-- Valadoc.Content.Table -->
<g id="node1" class="node">
<title>Valadoc.Content.Table</title>
<g id="a_node1"><a xlink:href="Valadoc.Content.Table.html" xlink:title="Valadoc.Content.Table">
<polygon fill="none" stroke="#000000" stroke-width="2" points="301,-36 143,-36 143,0 301,0 301,-36"/>
<text text-anchor="middle" x="222" y="-14.3" font-family="Times" font-size="14.00" fill="#000000">Valadoc.Content.Table</text>
</a>
</g>
</g>
<!-- Valadoc.Content.ContentElement -->
<g id="node2" class="node">
<title>Valadoc.Content.ContentElement</title>
<g id="a_node2"><a xlink:href="Valadoc.Content.ContentElement.html" xlink:title="Valadoc.Content.ContentElement">
<polygon fill="none" stroke="#000000" stroke-width="2" points="230,-108 0,-108 0,-72 230,-72 230,-108"/>
<text text-anchor="middle" x="115" y="-86.3" font-family="Times" font-size="14.00" fill="#000000">Valadoc.Content.ContentElement</text>
</a>
</g>
</g>
<!-- Valadoc.Content.ContentElement&#45;&gt;Valadoc.Content.Table -->
<g id="edge1" class="edge">
<title>Valadoc.Content.ContentElement&#45;&gt;Valadoc.Content.Table</title>
<path fill="none" stroke="#000000" d="M150.7054,-65.9739C165.1628,-56.2456 181.5768,-45.2007 195.008,-36.1628"/>
<polygon fill="#000000" stroke="#000000" points="148.3432,-63.3448 142.0006,-71.8314 152.2512,-69.1524 148.3432,-63.3448"/>
</g>
<!-- GLib.Object -->
<g id="node3" class="node">
<title>GLib.Object</title>
<polygon fill="none" stroke="#000000" stroke-width="2" points="161,-180 69,-180 69,-144 161,-144 161,-180"/>
<text text-anchor="middle" x="115" y="-158.3" font-family="Times" font-size="14.00" fill="#000000">GLib.Object</text>
</g>
<!-- GLib.Object&#45;&gt;Valadoc.Content.ContentElement -->
<g id="edge2" class="edge">
<title>GLib.Object&#45;&gt;Valadoc.Content.ContentElement</title>
<path fill="none" stroke="#000000" d="M115,-133.5726C115,-125.1084 115,-116.0593 115,-108.4133"/>
<polygon fill="#000000" stroke="#000000" points="111.5001,-133.8313 115,-143.8314 118.5001,-133.8314 111.5001,-133.8313"/>
</g>
<!-- Valadoc.Content.Block -->
<g id="node4" class="node">
<title>Valadoc.Content.Block</title>
<g id="a_node4"><a xlink:href="Valadoc.Content.Block.html" xlink:title="Valadoc.Content.Block">
<polygon fill="none" stroke="#000000" points="410,-108 248,-108 248,-72 410,-72 410,-108"/>
<text text-anchor="middle" x="329" y="-86.3" font-family="Times" font-size="14.00" fill="#000000">Valadoc.Content.Block</text>
</a>
</g>
</g>
<!-- Valadoc.Content.Block&#45;&gt;Valadoc.Content.Table -->
<g id="edge3" class="edge">
<title>Valadoc.Content.Block&#45;&gt;Valadoc.Content.Table</title>
<path fill="none" stroke="#000000" d="M293.2946,-65.9739C278.8372,-56.2456 262.4232,-45.2007 248.992,-36.1628"/>
<polygon fill="#000000" stroke="#000000" points="291.7488,-69.1524 301.9994,-71.8314 295.6568,-63.3448 291.7488,-69.1524"/>
</g>
</g>
</svg>
