<?xml version="1.0" encoding="UTF-8" standalone="no"?>
<!DOCTYPE svg PUBLIC "-//W3C//DTD SVG 1.1//EN"
 "http://www.w3.org/Graphics/SVG/1.1/DTD/svg11.dtd">
<!-- Generated by graphviz version 2.40.1 (0)
 -->
<!-- Title: Valadoc.Content.Embedded Pages: 1 -->
<svg width="582pt" height="188pt"
 viewBox="0.00 0.00 582.00 188.00" xmlns="http://www.w3.org/2000/svg" xmlns:xlink="http://www.w3.org/1999/xlink">
<g id="graph0" class="graph" transform="scale(1 1) rotate(0) translate(4 184)">
<title>Valadoc.Content.Embedded</title>
<polygon fill="#ffffff" stroke="transparent" points="-4,4 -4,-184 578,-184 578,4 -4,4"/>
<!-- Valadoc.Content.Embedded -->
<g id="node1" class="node">
<title>Valadoc.Content.Embedded</title>
<g id="a_node1"><a xlink:href="Valadoc.Content.Embedded.html" xlink:title="Valadoc.Content.Embedded">
<polygon fill="none" stroke="#000000" stroke-width="2" points="375,-36 205,-36 205,0 375,0 375,-36"/>
<text text-anchor="middle" x="290" y="-14.3" font-family="Times" font-size="14.00" fill="#000000">Valadoc.Content.Embedded</text>
</a>
</g>
</g>
<!-- Valadoc.Content.ContentElement -->
<g id="node2" class="node">
<title>Valadoc.Content.ContentElement</title>
<g id="a_node2"><a xlink:href="Valadoc.Content.ContentElement.html" xlink:title="Valadoc.Content.ContentElement">
<polygon fill="none" stroke="#000000" stroke-width="2" points="200,-108 0,-108 0,-72 200,-72 200,-108"/>
<text text-anchor="middle" x="100" y="-86.3" font-family="Times" font-size="14.00" fill="#000000">Valadoc.Content.ContentElement</text>
</a>
</g>
</g>
<!-- Valadoc.Content.ContentElement&#45;&gt;Valadoc.Content.Embedded -->
<g id="edge1" class="edge">
<title>Valadoc.Content.ContentElement&#45;&gt;Valadoc.Content.Embedded</title>
<path fill="none" stroke="#000000" d="M157.3344,-68.2733C184.51,-57.9752 216.5922,-45.8177 242.3997,-36.038"/>
<polygon fill="#000000" stroke="#000000" points="156.0559,-65.0148 147.945,-71.8314 158.5364,-71.5606 156.0559,-65.0148"/>
</g>
<!-- GLib.Object -->
<g id="node3" class="node">
<title>GLib.Object</title>
<g id="a_node3"><a xlink:href="../gobject-2.0/GLib.Object.html" xlink:title="GLib.Object">
<polygon fill="none" stroke="#000000" stroke-width="2" points="142.5,-180 57.5,-180 57.5,-144 142.5,-144 142.5,-180"/>
<text text-anchor="middle" x="100" y="-158.3" font-family="Times" font-size="14.00" fill="#000000">GLib.Object</text>
</a>
</g>
</g>
<!-- GLib.Object&#45;&gt;Valadoc.Content.ContentElement -->
<g id="edge2" class="edge">
<title>GLib.Object&#45;&gt;Valadoc.Content.ContentElement</title>
<path fill="none" stroke="#000000" d="M100,-133.5726C100,-125.1084 100,-116.0593 100,-108.4133"/>
<polygon fill="#000000" stroke="#000000" points="96.5001,-133.8313 100,-143.8314 103.5001,-133.8314 96.5001,-133.8313"/>
</g>
<!-- Valadoc.Content.Inline -->
<g id="node4" class="node">
<title>Valadoc.Content.Inline</title>
<g id="a_node4"><a xlink:href="Valadoc.Content.Inline.html" xlink:title="Valadoc.Content.Inline">
<polygon fill="none" stroke="#000000" points="361.5,-108 218.5,-108 218.5,-72 361.5,-72 361.5,-108"/>
<text text-anchor="middle" x="290" y="-86.3" font-family="Times" font-size="14.00" fill="#000000">Valadoc.Content.Inline</text>
</a>
</g>
</g>
<!-- Valadoc.Content.Inline&#45;&gt;Valadoc.Content.Embedded -->
<g id="edge3" class="edge">
<title>Valadoc.Content.Inline&#45;&gt;Valadoc.Content.Embedded</title>
<path fill="none" stroke="#000000" d="M290,-61.5726C290,-53.1084 290,-44.0593 290,-36.4133"/>
<polygon fill="#000000" stroke="#000000" points="286.5001,-61.8313 290,-71.8314 293.5001,-61.8314 286.5001,-61.8313"/>
</g>
<!-- Valadoc.Content.StyleAttributes -->
<g id="node5" class="node">
<title>Valadoc.Content.StyleAttributes</title>
<g id="a_node5"><a xlink:href="Valadoc.Content.StyleAttributes.html" xlink:title="Valadoc.Content.StyleAttributes">
<polygon fill="none" stroke="#000000" points="574,-108 380,-108 380,-72 574,-72 574,-108"/>
<text text-anchor="middle" x="477" y="-86.3" font-family="Times" font-size="14.00" fill="#000000">Valadoc.Content.StyleAttributes</text>
</a>
</g>
</g>
<!-- Valadoc.Content.StyleAttributes&#45;&gt;Valadoc.Content.Embedded -->
<g id="edge4" class="edge">
<title>Valadoc.Content.StyleAttributes&#45;&gt;Valadoc.Content.Embedded</title>
<path fill="none" stroke="#000000" d="M420.2202,-68.1383C393.5487,-57.869 362.1378,-45.775 336.8487,-36.038"/>
<polygon fill="#000000" stroke="#000000" points="419.2222,-71.5044 429.812,-71.8314 421.7374,-64.9719 419.2222,-71.5044"/>
</g>
</g>
</svg>
