<?xml version="1.0" encoding="UTF-8" standalone="no"?>
<!DOCTYPE svg PUBLIC "-//W3C//DTD SVG 1.1//EN"
 "http://www.w3.org/Graphics/SVG/1.1/DTD/svg11.dtd">
<!-- Generated by graphviz version 2.40.1 (20161225.0304)
 -->
<!-- Title: Valadoc.Content.Paragraph Pages: 1 -->
<svg width="570pt" height="260pt"
 viewBox="0.00 0.00 570.00 260.00" xmlns="http://www.w3.org/2000/svg" xmlns:xlink="http://www.w3.org/1999/xlink">
<g id="graph0" class="graph" transform="scale(1 1) rotate(0) translate(4 256)">
<title>Valadoc.Content.Paragraph</title>
<polygon fill="#ffffff" stroke="transparent" points="-4,4 -4,-256 566,-256 566,4 -4,4"/>
<!-- Valadoc.Content.Paragraph -->
<g id="node1" class="node">
<title>Valadoc.Content.Paragraph</title>
<g id="a_node1"><a xlink:href="Valadoc.Content.Paragraph.html" xlink:title="Valadoc.Content.Paragraph">
<polygon fill="none" stroke="#000000" stroke-width="2" points="364,-36 199,-36 199,0 364,0 364,-36"/>
<text text-anchor="middle" x="281.5" y="-14.3" font-family="Times" font-size="14.00" fill="#000000">Valadoc.Content.Paragraph</text>
</a>
</g>
</g>
<!-- Valadoc.Content.InlineContent -->
<g id="node2" class="node">
<title>Valadoc.Content.InlineContent</title>
<g id="a_node2"><a xlink:href="Valadoc.Content.InlineContent.html" xlink:title="Valadoc.Content.InlineContent">
<polygon fill="none" stroke="#000000" stroke-width="2" points="192,-108 7,-108 7,-72 192,-72 192,-108"/>
<text text-anchor="middle" x="99.5" y="-86.3" font-family="Times" font-size="14.00" fill="#000000">Valadoc.Content.InlineContent</text>
</a>
</g>
</g>
<!-- Valadoc.Content.InlineContent&#45;&gt;Valadoc.Content.Paragraph -->
<g id="edge1" class="edge">
<title>Valadoc.Content.InlineContent&#45;&gt;Valadoc.Content.Paragraph</title>
<path fill="none" stroke="#000000" d="M154.7616,-68.1383C180.72,-57.869 211.291,-45.775 235.904,-36.038"/>
<polygon fill="#000000" stroke="#000000" points="153.4375,-64.8981 145.4263,-71.8314 156.0126,-71.4072 153.4375,-64.8981"/>
</g>
<!-- Valadoc.Content.ContentElement -->
<g id="node3" class="node">
<title>Valadoc.Content.ContentElement</title>
<g id="a_node3"><a xlink:href="Valadoc.Content.ContentElement.html" xlink:title="Valadoc.Content.ContentElement">
<polygon fill="none" stroke="#000000" stroke-width="2" points="199,-180 0,-180 0,-144 199,-144 199,-180"/>
<text text-anchor="middle" x="99.5" y="-158.3" font-family="Times" font-size="14.00" fill="#000000">Valadoc.Content.ContentElement</text>
</a>
</g>
</g>
<!-- Valadoc.Content.ContentElement&#45;&gt;Valadoc.Content.InlineContent -->
<g id="edge2" class="edge">
<title>Valadoc.Content.ContentElement&#45;&gt;Valadoc.Content.InlineContent</title>
<path fill="none" stroke="#000000" d="M99.5,-133.5726C99.5,-125.1084 99.5,-116.0593 99.5,-108.4133"/>
<polygon fill="#000000" stroke="#000000" points="96.0001,-133.8313 99.5,-143.8314 103.0001,-133.8314 96.0001,-133.8313"/>
</g>
<!-- GLib.Object -->
<g id="node4" class="node">
<title>GLib.Object</title>
<polygon fill="none" stroke="#000000" stroke-width="2" points="142,-252 57,-252 57,-216 142,-216 142,-252"/>
<text text-anchor="middle" x="99.5" y="-230.3" font-family="Times" font-size="14.00" fill="#000000">GLib.Object</text>
</g>
<!-- GLib.Object&#45;&gt;Valadoc.Content.ContentElement -->
<g id="edge3" class="edge">
<title>GLib.Object&#45;&gt;Valadoc.Content.ContentElement</title>
<path fill="none" stroke="#000000" d="M99.5,-205.5726C99.5,-197.1084 99.5,-188.0593 99.5,-180.4133"/>
<polygon fill="#000000" stroke="#000000" points="96.0001,-205.8313 99.5,-215.8314 103.0001,-205.8314 96.0001,-205.8313"/>
</g>
<!-- Valadoc.Content.Block -->
<g id="node5" class="node">
<title>Valadoc.Content.Block</title>
<g id="a_node5"><a xlink:href="Valadoc.Content.Block.html" xlink:title="Valadoc.Content.Block">
<polygon fill="none" stroke="#000000" points="353,-108 210,-108 210,-72 353,-72 353,-108"/>
<text text-anchor="middle" x="281.5" y="-86.3" font-family="Times" font-size="14.00" fill="#000000">Valadoc.Content.Block</text>
</a>
</g>
</g>
<!-- Valadoc.Content.Block&#45;&gt;Valadoc.Content.Paragraph -->
<g id="edge4" class="edge">
<title>Valadoc.Content.Block&#45;&gt;Valadoc.Content.Paragraph</title>
<path fill="none" stroke="#000000" d="M281.5,-61.5726C281.5,-53.1084 281.5,-44.0593 281.5,-36.4133"/>
<polygon fill="#000000" stroke="#000000" points="278.0001,-61.8313 281.5,-71.8314 285.0001,-61.8314 278.0001,-61.8313"/>
</g>
<!-- Valadoc.Content.StyleAttributes -->
<g id="node6" class="node">
<title>Valadoc.Content.StyleAttributes</title>
<g id="a_node6"><a xlink:href="Valadoc.Content.StyleAttributes.html" xlink:title="Valadoc.Content.StyleAttributes">
<polygon fill="none" stroke="#000000" points="562,-108 371,-108 371,-72 562,-72 562,-108"/>
<text text-anchor="middle" x="466.5" y="-86.3" font-family="Times" font-size="14.00" fill="#000000">Valadoc.Content.StyleAttributes</text>
</a>
</g>
</g>
<!-- Valadoc.Content.StyleAttributes&#45;&gt;Valadoc.Content.Paragraph -->
<g id="edge5" class="edge">
<title>Valadoc.Content.StyleAttributes&#45;&gt;Valadoc.Content.Paragraph</title>
<path fill="none" stroke="#000000" d="M410.3275,-68.1383C383.9413,-57.869 352.8663,-45.775 327.8476,-36.038"/>
<polygon fill="#000000" stroke="#000000" points="409.2281,-71.4661 419.8167,-71.8314 411.767,-64.9427 409.2281,-71.4661"/>
</g>
</g>
</svg>
