<?xml version="1.0" encoding="UTF-8" standalone="no"?>
<!DOCTYPE svg PUBLIC "-//W3C//DTD SVG 1.1//EN"
 "http://www.w3.org/Graphics/SVG/1.1/DTD/svg11.dtd">
<!-- Generated by graphviz version 2.40.1 (20161225.0304)
 -->
<!-- Title: Valadoc.Importer.DocumentationImporter Pages: 1 -->
<svg width="320pt" height="116pt"
 viewBox="0.00 0.00 319.50 116.00" xmlns="http://www.w3.org/2000/svg" xmlns:xlink="http://www.w3.org/1999/xlink">
<g id="graph0" class="graph" transform="scale(1 1) rotate(0) translate(4 112)">
<title>Valadoc.Importer.DocumentationImporter</title>
<polygon fill="#ffffff" stroke="transparent" points="-4,4 -4,-112 315.5,-112 315.5,4 -4,4"/>
<!-- Valadoc.Importer.DocumentationImporter -->
<g id="node1" class="node">
<title>Valadoc.Importer.DocumentationImporter</title>
<g id="a_node1"><a xlink:href="Valadoc.Importer.DocumentationImporter.html" xlink:title="Valadoc.Importer.DocumentationImporter">
<polygon fill="none" stroke="#000000" stroke-width="2" points="289,-36 0,-36 0,0 289,0 289,-36"/>
<text text-anchor="middle" x="144.5" y="-14.3" font-family="Times" font-size="14.00" fill="#000000">Valadoc.Importer.DocumentationImporter</text>
</a>
</g>
</g>
<!-- GLib.Object -->
<g id="node2" class="node">
<title>GLib.Object</title>
<polygon fill="none" stroke="#000000" stroke-width="2" points="113.5,-108 21.5,-108 21.5,-72 113.5,-72 113.5,-108"/>
<text text-anchor="middle" x="67.5" y="-86.3" font-family="Times" font-size="14.00" fill="#000000">GLib.Object</text>
</g>
<!-- GLib.Object&#45;&gt;Valadoc.Importer.DocumentationImporter -->
<g id="edge1" class="edge">
<title>GLib.Object&#45;&gt;Valadoc.Importer.DocumentationImporter</title>
<path fill="none" stroke="#000000" d="M94.3782,-64.8672C104.4869,-55.4149 115.7751,-44.8596 125.0759,-36.1628"/>
<polygon fill="#000000" stroke="#000000" points="91.8441,-62.4449 86.9304,-71.8314 96.6251,-67.5579 91.8441,-62.4449"/>
</g>
<!-- Valadoc.ResourceLocator -->
<g id="node3" class="node">
<title>Valadoc.ResourceLocator</title>
<g id="a_node3"><a xlink:href="Valadoc.ResourceLocator.html" xlink:title="Valadoc.ResourceLocator">
<polygon fill="none" stroke="#000000" points="311.5,-108 131.5,-108 131.5,-72 311.5,-72 311.5,-108"/>
<text text-anchor="middle" x="221.5" y="-86.3" font-family="Times" font-size="14.00" fill="#000000">Valadoc.ResourceLocator</text>
</a>
</g>
</g>
<!-- Valadoc.ResourceLocator&#45;&gt;Valadoc.Importer.DocumentationImporter -->
<g id="edge2" class="edge">
<title>Valadoc.ResourceLocator&#45;&gt;Valadoc.Importer.DocumentationImporter</title>
<path fill="none" stroke="#000000" d="M194.6218,-64.8672C184.5131,-55.4149 173.2249,-44.8596 163.9241,-36.1628"/>
<polygon fill="#000000" stroke="#000000" points="192.3749,-67.5579 202.0696,-71.8314 197.1559,-62.4449 192.3749,-67.5579"/>
</g>
</g>
</svg>
