<?xml version="1.0" encoding="UTF-8" standalone="no"?>
<!DOCTYPE svg PUBLIC "-//W3C//DTD SVG 1.1//EN"
 "http://www.w3.org/Graphics/SVG/1.1/DTD/svg11.dtd">
<!-- Generated by graphviz version 2.40.1 (20161225.0304)
 -->
<!-- Title: Valadoc.Api.Symbol Pages: 1 -->
<svg width="450pt" height="260pt"
 viewBox="0.00 0.00 449.50 260.00" xmlns="http://www.w3.org/2000/svg" xmlns:xlink="http://www.w3.org/1999/xlink">
<g id="graph0" class="graph" transform="scale(1 1) rotate(0) translate(4 256)">
<title>Valadoc.Api.Symbol</title>
<polygon fill="#ffffff" stroke="transparent" points="-4,4 -4,-256 445.5,-256 445.5,4 -4,4"/>
<!-- Valadoc.Api.Symbol -->
<g id="node1" class="node">
<title>Valadoc.Api.Symbol</title>
<g id="a_node1"><a xlink:href="Valadoc.Api.Symbol.html" xlink:title="Valadoc.Api.Symbol">
<polygon fill="none" stroke="#000000" stroke-width="2" points="269,-36 138,-36 138,0 269,0 269,-36"/>
<text text-anchor="middle" x="203.5" y="-14.3" font-family="Times" font-size="14.00" fill="#000000">Valadoc.Api.Symbol</text>
</a>
</g>
</g>
<!-- Valadoc.Api.Node -->
<g id="node2" class="node">
<title>Valadoc.Api.Node</title>
<g id="a_node2"><a xlink:href="Valadoc.Api.Node.html" xlink:title="Valadoc.Api.Node">
<polygon fill="none" stroke="#000000" stroke-width="2" points="262,-108 145,-108 145,-72 262,-72 262,-108"/>
<text text-anchor="middle" x="203.5" y="-86.3" font-family="Times" font-size="14.00" fill="#000000">Valadoc.Api.Node</text>
</a>
</g>
</g>
<!-- Valadoc.Api.Node&#45;&gt;Valadoc.Api.Symbol -->
<g id="edge1" class="edge">
<title>Valadoc.Api.Node&#45;&gt;Valadoc.Api.Symbol</title>
<path fill="none" stroke="#000000" d="M203.5,-61.5726C203.5,-53.1084 203.5,-44.0593 203.5,-36.4133"/>
<polygon fill="#000000" stroke="#000000" points="200.0001,-61.8313 203.5,-71.8314 207.0001,-61.8314 200.0001,-61.8313"/>
</g>
<!-- Valadoc.Api.Item -->
<g id="node3" class="node">
<title>Valadoc.Api.Item</title>
<g id="a_node3"><a xlink:href="Valadoc.Api.Item.html" xlink:title="Valadoc.Api.Item">
<polygon fill="none" stroke="#000000" stroke-width="2" points="113,-180 0,-180 0,-144 113,-144 113,-180"/>
<text text-anchor="middle" x="56.5" y="-158.3" font-family="Times" font-size="14.00" fill="#000000">Valadoc.Api.Item</text>
</a>
</g>
</g>
<!-- Valadoc.Api.Item&#45;&gt;Valadoc.Api.Node -->
<g id="edge2" class="edge">
<title>Valadoc.Api.Item&#45;&gt;Valadoc.Api.Node</title>
<path fill="none" stroke="#000000" d="M102.7972,-139.3238C123.397,-129.2341 147.3159,-117.5187 166.6724,-108.038"/>
<polygon fill="#000000" stroke="#000000" points="101.0354,-136.2894 93.5943,-143.8314 104.1145,-142.5759 101.0354,-136.2894"/>
</g>
<!-- GLib.Object -->
<g id="node4" class="node">
<title>GLib.Object</title>
<polygon fill="none" stroke="#000000" stroke-width="2" points="99,-252 14,-252 14,-216 99,-216 99,-252"/>
<text text-anchor="middle" x="56.5" y="-230.3" font-family="Times" font-size="14.00" fill="#000000">GLib.Object</text>
</g>
<!-- GLib.Object&#45;&gt;Valadoc.Api.Item -->
<g id="edge3" class="edge">
<title>GLib.Object&#45;&gt;Valadoc.Api.Item</title>
<path fill="none" stroke="#000000" d="M56.5,-205.5726C56.5,-197.1084 56.5,-188.0593 56.5,-180.4133"/>
<polygon fill="#000000" stroke="#000000" points="53.0001,-205.8313 56.5,-215.8314 60.0001,-205.8314 53.0001,-205.8313"/>
</g>
<!-- Valadoc.Api.Browsable -->
<g id="node5" class="node">
<title>Valadoc.Api.Browsable</title>
<g id="a_node5"><a xlink:href="Valadoc.Api.Browsable.html" xlink:title="Valadoc.Api.Browsable">
<polygon fill="none" stroke="#000000" points="275.5,-180 131.5,-180 131.5,-144 275.5,-144 275.5,-180"/>
<text text-anchor="middle" x="203.5" y="-158.3" font-family="Times" font-size="14.00" fill="#000000">Valadoc.Api.Browsable</text>
</a>
</g>
</g>
<!-- Valadoc.Api.Browsable&#45;&gt;Valadoc.Api.Node -->
<g id="edge4" class="edge">
<title>Valadoc.Api.Browsable&#45;&gt;Valadoc.Api.Node</title>
<path fill="none" stroke="#000000" d="M203.5,-133.5726C203.5,-125.1084 203.5,-116.0593 203.5,-108.4133"/>
<polygon fill="#000000" stroke="#000000" points="200.0001,-133.8313 203.5,-143.8314 207.0001,-133.8314 200.0001,-133.8313"/>
</g>
<!-- Valadoc.Documentation -->
<g id="node6" class="node">
<title>Valadoc.Documentation</title>
<g id="a_node6"><a xlink:href="Valadoc.Documentation.html" xlink:title="Valadoc.Documentation">
<polygon fill="none" stroke="#000000" points="441.5,-180 293.5,-180 293.5,-144 441.5,-144 441.5,-180"/>
<text text-anchor="middle" x="367.5" y="-158.3" font-family="Times" font-size="14.00" fill="#000000">Valadoc.Documentation</text>
</a>
</g>
</g>
<!-- Valadoc.Documentation&#45;&gt;Valadoc.Api.Node -->
<g id="edge5" class="edge">
<title>Valadoc.Documentation&#45;&gt;Valadoc.Api.Node</title>
<path fill="none" stroke="#000000" d="M316.7784,-139.732C293.5888,-129.5512 266.4734,-117.6469 244.5865,-108.038"/>
<polygon fill="#000000" stroke="#000000" points="315.5524,-143.0162 326.1159,-143.8314 318.3664,-136.6066 315.5524,-143.0162"/>
</g>
</g>
</svg>
