<?xml version="1.0" encoding="UTF-8" standalone="no"?>
<!DOCTYPE svg PUBLIC "-//W3C//DTD SVG 1.1//EN"
 "http://www.w3.org/Graphics/SVG/1.1/DTD/svg11.dtd">
<!-- Generated by graphviz version 2.42.3 (0)
 -->
<!-- Title: Valadoc.Html.SimpleChartFactory Pages: 1 -->
<svg width="216pt" height="260pt"
 viewBox="0.00 0.00 216.00 260.00" xmlns="http://www.w3.org/2000/svg" xmlns:xlink="http://www.w3.org/1999/xlink">
<g id="graph0" class="graph" transform="scale(1 1) rotate(0) translate(4 256)">
<title>Valadoc.Html.SimpleChartFactory</title>
<polygon fill="white" stroke="transparent" points="-4,4 -4,-256 212,-256 212,4 -4,4"/>
<!-- Valadoc.Html.SimpleChartFactory -->
<g id="node1" class="node">
<title>Valadoc.Html.SimpleChartFactory</title>
<g id="a_node1"><a xlink:href="Valadoc.Html.SimpleChartFactory.html" xlink:title="Valadoc.Html.SimpleChartFactory">
<polygon fill="none" stroke="black" stroke-width="2" points="208,-36 0,-36 0,0 208,0 208,-36"/>
<text text-anchor="middle" x="104" y="-14.3" font-family="Times" font-size="14.00">Valadoc.Html.SimpleChartFactory</text>
</a>
</g>
</g>
<!-- Valadoc.Charts.SimpleFactory -->
<g id="node2" class="node">
<title>Valadoc.Charts.SimpleFactory</title>
<g id="a_node2"><a xlink:href="Valadoc.Charts.SimpleFactory.html" xlink:title="Valadoc.Charts.SimpleFactory">
<polygon fill="none" stroke="black" stroke-width="2" points="196.5,-108 11.5,-108 11.5,-72 196.5,-72 196.5,-108"/>
<text text-anchor="middle" x="104" y="-86.3" font-family="Times" font-size="14.00">Valadoc.Charts.SimpleFactory</text>
</a>
</g>
</g>
<!-- Valadoc.Charts.SimpleFactory&#45;&gt;Valadoc.Html.SimpleChartFactory -->
<g id="edge1" class="edge">
<title>Valadoc.Charts.SimpleFactory&#45;&gt;Valadoc.Html.SimpleChartFactory</title>
<path fill="none" stroke="black" d="M104,-61.67C104,-53.05 104,-43.79 104,-36.1"/>
<polygon fill="black" stroke="black" points="100.5,-61.7 104,-71.7 107.5,-61.7 100.5,-61.7"/>
</g>
<!-- Valadoc.Charts.Factory -->
<g id="node3" class="node">
<title>Valadoc.Charts.Factory</title>
<g id="a_node3"><a xlink:href="Valadoc.Charts.Factory.html" xlink:title="Valadoc.Charts.Factory">
<polygon fill="none" stroke="black" stroke-width="2" points="177,-180 31,-180 31,-144 177,-144 177,-180"/>
<text text-anchor="middle" x="104" y="-158.3" font-family="Times" font-size="14.00">Valadoc.Charts.Factory</text>
</a>
</g>
</g>
<!-- Valadoc.Charts.Factory&#45;&gt;Valadoc.Charts.SimpleFactory -->
<g id="edge2" class="edge">
<title>Valadoc.Charts.Factory&#45;&gt;Valadoc.Charts.SimpleFactory</title>
<path fill="none" stroke="black" d="M104,-133.67C104,-125.05 104,-115.79 104,-108.1"/>
<polygon fill="black" stroke="black" points="100.5,-133.7 104,-143.7 107.5,-133.7 100.5,-133.7"/>
</g>
<!-- GLib.Object -->
<g id="node4" class="node">
<title>GLib.Object</title>
<g id="a_node4"><a xlink:href="../gobject-2.0/GLib.Object.html" xlink:title="GLib.Object">
<polygon fill="none" stroke="black" stroke-width="2" points="146.5,-252 61.5,-252 61.5,-216 146.5,-216 146.5,-252"/>
<text text-anchor="middle" x="104" y="-230.3" font-family="Times" font-size="14.00">GLib.Object</text>
</a>
</g>
</g>
<!-- GLib.Object&#45;&gt;Valadoc.Charts.Factory -->
<g id="edge3" class="edge">
<title>GLib.Object&#45;&gt;Valadoc.Charts.Factory</title>
<path fill="none" stroke="black" d="M104,-205.67C104,-197.05 104,-187.79 104,-180.1"/>
<polygon fill="black" stroke="black" points="100.5,-205.7 104,-215.7 107.5,-205.7 100.5,-205.7"/>
</g>
</g>
</svg>
