<?xml version="1.0" encoding="UTF-8" standalone="no"?>
<!DOCTYPE svg PUBLIC "-//W3C//DTD SVG 1.1//EN"
 "http://www.w3.org/Graphics/SVG/1.1/DTD/svg11.dtd">
<!-- Generated by graphviz version 2.40.1 (20161225.0304)
 -->
<!-- Title: Valadoc.Content.Table Pages: 1 -->
<svg width="368pt" height="188pt"
 viewBox="0.00 0.00 368.00 188.00" xmlns="http://www.w3.org/2000/svg" xmlns:xlink="http://www.w3.org/1999/xlink">
<g id="graph0" class="graph" transform="scale(1 1) rotate(0) translate(4 184)">
<title>Valadoc.Content.Table</title>
<polygon fill="#ffffff" stroke="transparent" points="-4,4 -4,-184 364,-184 364,4 -4,4"/>
<!-- Valadoc.Content.Table -->
<g id="node1" class="node">
<title>Valadoc.Content.Table</title>
<g id="a_node1"><a xlink:href="Valadoc.Content.Table.html" xlink:title="Valadoc.Content.Table">
<polygon fill="none" stroke="#000000" stroke-width="2" points="263.5,-36 123.5,-36 123.5,0 263.5,0 263.5,-36"/>
<text text-anchor="middle" x="193.5" y="-14.3" font-family="Times" font-size="14.00" fill="#000000">Valadoc.Content.Table</text>
</a>
</g>
</g>
<!-- Valadoc.Content.ContentElement -->
<g id="node2" class="node">
<title>Valadoc.Content.ContentElement</title>
<g id="a_node2"><a xlink:href="Valadoc.Content.ContentElement.html" xlink:title="Valadoc.Content.ContentElement">
<polygon fill="none" stroke="#000000" stroke-width="2" points="199,-108 0,-108 0,-72 199,-72 199,-108"/>
<text text-anchor="middle" x="99.5" y="-86.3" font-family="Times" font-size="14.00" fill="#000000">Valadoc.Content.ContentElement</text>
</a>
</g>
</g>
<!-- Valadoc.Content.ContentElement&#45;&gt;Valadoc.Content.Table -->
<g id="edge1" class="edge">
<title>Valadoc.Content.ContentElement&#45;&gt;Valadoc.Content.Table</title>
<path fill="none" stroke="#000000" d="M131.2273,-65.6982C143.8401,-56.0374 158.0993,-45.1154 169.7874,-36.1628"/>
<polygon fill="#000000" stroke="#000000" points="129.0307,-62.972 123.2202,-71.8314 133.2873,-68.5291 129.0307,-62.972"/>
</g>
<!-- GLib.Object -->
<g id="node3" class="node">
<title>GLib.Object</title>
<polygon fill="none" stroke="#000000" stroke-width="2" points="142,-180 57,-180 57,-144 142,-144 142,-180"/>
<text text-anchor="middle" x="99.5" y="-158.3" font-family="Times" font-size="14.00" fill="#000000">GLib.Object</text>
</g>
<!-- GLib.Object&#45;&gt;Valadoc.Content.ContentElement -->
<g id="edge2" class="edge">
<title>GLib.Object&#45;&gt;Valadoc.Content.ContentElement</title>
<path fill="none" stroke="#000000" d="M99.5,-133.5726C99.5,-125.1084 99.5,-116.0593 99.5,-108.4133"/>
<polygon fill="#000000" stroke="#000000" points="96.0001,-133.8313 99.5,-143.8314 103.0001,-133.8314 96.0001,-133.8313"/>
</g>
<!-- Valadoc.Content.Block -->
<g id="node4" class="node">
<title>Valadoc.Content.Block</title>
<g id="a_node4"><a xlink:href="Valadoc.Content.Block.html" xlink:title="Valadoc.Content.Block">
<polygon fill="none" stroke="#000000" points="360,-108 217,-108 217,-72 360,-72 360,-108"/>
<text text-anchor="middle" x="288.5" y="-86.3" font-family="Times" font-size="14.00" fill="#000000">Valadoc.Content.Block</text>
</a>
</g>
</g>
<!-- Valadoc.Content.Block&#45;&gt;Valadoc.Content.Table -->
<g id="edge3" class="edge">
<title>Valadoc.Content.Block&#45;&gt;Valadoc.Content.Table</title>
<path fill="none" stroke="#000000" d="M256.4352,-65.6982C243.6882,-56.0374 229.2773,-45.1154 217.4648,-36.1628"/>
<polygon fill="#000000" stroke="#000000" points="254.4437,-68.5805 264.5275,-71.8314 258.6719,-63.0017 254.4437,-68.5805"/>
</g>
</g>
</svg>
