<?xml version="1.0" encoding="UTF-8" standalone="no"?>
<!DOCTYPE svg PUBLIC "-//W3C//DTD SVG 1.1//EN"
 "http://www.w3.org/Graphics/SVG/1.1/DTD/svg11.dtd">
<!-- Generated by graphviz version 2.40.1 (0)
 -->
<!-- Title: Valadoc.Importer.DocumentationImporter Pages: 1 -->
<svg width="281pt" height="116pt"
 viewBox="0.00 0.00 281.00 116.00" xmlns="http://www.w3.org/2000/svg" xmlns:xlink="http://www.w3.org/1999/xlink">
<g id="graph0" class="graph" transform="scale(1 1) rotate(0) translate(4 112)">
<title>Valadoc.Importer.DocumentationImporter</title>
<polygon fill="#ffffff" stroke="transparent" points="-4,4 -4,-112 277,-112 277,4 -4,4"/>
<!-- Valadoc.Importer.DocumentationImporter -->
<g id="node1" class="node">
<title>Valadoc.Importer.DocumentationImporter</title>
<g id="a_node1"><a xlink:href="Valadoc.Importer.DocumentationImporter.html" xlink:title="Valadoc.Importer.DocumentationImporter">
<polygon fill="none" stroke="#000000" stroke-width="2" points="248,-36 0,-36 0,0 248,0 248,-36"/>
<text text-anchor="middle" x="124" y="-14.3" font-family="Times" font-size="14.00" fill="#000000">Valadoc.Importer.DocumentationImporter</text>
</a>
</g>
</g>
<!-- GLib.Object -->
<g id="node2" class="node">
<title>GLib.Object</title>
<g id="a_node2"><a xlink:href="../gobject-2.0/GLib.Object.html" xlink:title="GLib.Object">
<polygon fill="none" stroke="#000000" stroke-width="2" points="96.5,-108 11.5,-108 11.5,-72 96.5,-72 96.5,-108"/>
<text text-anchor="middle" x="54" y="-86.3" font-family="Times" font-size="14.00" fill="#000000">GLib.Object</text>
</a>
</g>
</g>
<!-- GLib.Object&#45;&gt;Valadoc.Importer.DocumentationImporter -->
<g id="edge1" class="edge">
<title>GLib.Object&#45;&gt;Valadoc.Importer.DocumentationImporter</title>
<path fill="none" stroke="#000000" d="M78.6495,-64.6463C87.6959,-55.3414 97.756,-44.9938 106.0982,-36.4133"/>
<polygon fill="#000000" stroke="#000000" points="76.1253,-62.2216 71.664,-71.8314 81.1443,-67.1012 76.1253,-62.2216"/>
</g>
<!-- Valadoc.ResourceLocator -->
<g id="node3" class="node">
<title>Valadoc.ResourceLocator</title>
<g id="a_node3"><a xlink:href="Valadoc.ResourceLocator.html" xlink:title="Valadoc.ResourceLocator">
<polygon fill="none" stroke="#000000" points="273,-108 115,-108 115,-72 273,-72 273,-108"/>
<text text-anchor="middle" x="194" y="-86.3" font-family="Times" font-size="14.00" fill="#000000">Valadoc.ResourceLocator</text>
</a>
</g>
</g>
<!-- Valadoc.ResourceLocator&#45;&gt;Valadoc.Importer.DocumentationImporter -->
<g id="edge2" class="edge">
<title>Valadoc.ResourceLocator&#45;&gt;Valadoc.Importer.DocumentationImporter</title>
<path fill="none" stroke="#000000" d="M169.3505,-64.6463C160.3041,-55.3414 150.244,-44.9938 141.9018,-36.4133"/>
<polygon fill="#000000" stroke="#000000" points="166.8557,-67.1012 176.336,-71.8314 171.8747,-62.2216 166.8557,-67.1012"/>
</g>
</g>
</svg>
