<?xml version="1.0" encoding="UTF-8" standalone="no"?>
<!DOCTYPE svg PUBLIC "-//W3C//DTD SVG 1.1//EN"
 "http://www.w3.org/Graphics/SVG/1.1/DTD/svg11.dtd">
<!-- Generated by graphviz version 2.42.3 (0)
 -->
<!-- Title: Valadoc.Taglets.InheritDoc Pages: 1 -->
<svg width="533pt" height="260pt"
 viewBox="0.00 0.00 532.50 260.00" xmlns="http://www.w3.org/2000/svg" xmlns:xlink="http://www.w3.org/1999/xlink">
<g id="graph0" class="graph" transform="scale(1 1) rotate(0) translate(4 256)">
<title>Valadoc.Taglets.InheritDoc</title>
<polygon fill="white" stroke="transparent" points="-4,4 -4,-256 528.5,-256 528.5,4 -4,4"/>
<!-- Valadoc.Taglets.InheritDoc -->
<g id="node1" class="node">
<title>Valadoc.Taglets.InheritDoc</title>
<g id="a_node1"><a xlink:href="Valadoc.Taglets.InheritDoc.html" xlink:title="Valadoc.Taglets.InheritDoc">
<polygon fill="none" stroke="black" stroke-width="2" points="374.5,-36 207.5,-36 207.5,0 374.5,0 374.5,-36"/>
<text text-anchor="middle" x="291" y="-14.3" font-family="Times" font-size="14.00">Valadoc.Taglets.InheritDoc</text>
</a>
</g>
</g>
<!-- Valadoc.Content.InlineTaglet -->
<g id="node2" class="node">
<title>Valadoc.Content.InlineTaglet</title>
<g id="a_node2"><a xlink:href="Valadoc.Content.InlineTaglet.html" xlink:title="Valadoc.Content.InlineTaglet">
<polygon fill="none" stroke="black" stroke-width="2" points="379,-108 203,-108 203,-72 379,-72 379,-108"/>
<text text-anchor="middle" x="291" y="-86.3" font-family="Times" font-size="14.00">Valadoc.Content.InlineTaglet</text>
</a>
</g>
</g>
<!-- Valadoc.Content.InlineTaglet&#45;&gt;Valadoc.Taglets.InheritDoc -->
<g id="edge1" class="edge">
<title>Valadoc.Content.InlineTaglet&#45;&gt;Valadoc.Taglets.InheritDoc</title>
<path fill="none" stroke="black" d="M291,-61.67C291,-53.05 291,-43.79 291,-36.1"/>
<polygon fill="black" stroke="black" points="287.5,-61.7 291,-71.7 294.5,-61.7 287.5,-61.7"/>
</g>
<!-- Valadoc.Content.ContentElement -->
<g id="node3" class="node">
<title>Valadoc.Content.ContentElement</title>
<g id="a_node3"><a xlink:href="Valadoc.Content.ContentElement.html" xlink:title="Valadoc.Content.ContentElement">
<polygon fill="none" stroke="black" stroke-width="2" points="200,-180 0,-180 0,-144 200,-144 200,-180"/>
<text text-anchor="middle" x="100" y="-158.3" font-family="Times" font-size="14.00">Valadoc.Content.ContentElement</text>
</a>
</g>
</g>
<!-- Valadoc.Content.ContentElement&#45;&gt;Valadoc.Content.InlineTaglet -->
<g id="edge2" class="edge">
<title>Valadoc.Content.ContentElement&#45;&gt;Valadoc.Content.InlineTaglet</title>
<path fill="none" stroke="black" d="M156.39,-140.33C184.42,-130.06 217.88,-117.8 244.43,-108.07"/>
<polygon fill="black" stroke="black" points="154.91,-137.15 146.72,-143.88 157.32,-143.72 154.91,-137.15"/>
</g>
<!-- GLib.Object -->
<g id="node4" class="node">
<title>GLib.Object</title>
<g id="a_node4"><a xlink:href="../gobject-2.0/GLib.Object.html" xlink:title="GLib.Object">
<polygon fill="none" stroke="black" stroke-width="2" points="142.5,-252 57.5,-252 57.5,-216 142.5,-216 142.5,-252"/>
<text text-anchor="middle" x="100" y="-230.3" font-family="Times" font-size="14.00">GLib.Object</text>
</a>
</g>
</g>
<!-- GLib.Object&#45;&gt;Valadoc.Content.ContentElement -->
<g id="edge3" class="edge">
<title>GLib.Object&#45;&gt;Valadoc.Content.ContentElement</title>
<path fill="none" stroke="black" d="M100,-205.67C100,-197.05 100,-187.79 100,-180.1"/>
<polygon fill="black" stroke="black" points="96.5,-205.7 100,-215.7 103.5,-205.7 96.5,-205.7"/>
</g>
<!-- Valadoc.Content.Taglet -->
<g id="node5" class="node">
<title>Valadoc.Content.Taglet</title>
<g id="a_node5"><a xlink:href="Valadoc.Content.Taglet.html" xlink:title="Valadoc.Content.Taglet">
<polygon fill="none" stroke="black" points="363.5,-180 218.5,-180 218.5,-144 363.5,-144 363.5,-180"/>
<text text-anchor="middle" x="291" y="-158.3" font-family="Times" font-size="14.00">Valadoc.Content.Taglet</text>
</a>
</g>
</g>
<!-- Valadoc.Content.Taglet&#45;&gt;Valadoc.Content.InlineTaglet -->
<g id="edge4" class="edge">
<title>Valadoc.Content.Taglet&#45;&gt;Valadoc.Content.InlineTaglet</title>
<path fill="none" stroke="black" d="M291,-133.67C291,-125.05 291,-115.79 291,-108.1"/>
<polygon fill="black" stroke="black" points="287.5,-133.7 291,-143.7 294.5,-133.7 287.5,-133.7"/>
</g>
<!-- Valadoc.Content.Inline -->
<g id="node6" class="node">
<title>Valadoc.Content.Inline</title>
<g id="a_node6"><a xlink:href="Valadoc.Content.Inline.html" xlink:title="Valadoc.Content.Inline">
<polygon fill="none" stroke="black" points="524.5,-180 381.5,-180 381.5,-144 524.5,-144 524.5,-180"/>
<text text-anchor="middle" x="453" y="-158.3" font-family="Times" font-size="14.00">Valadoc.Content.Inline</text>
</a>
</g>
</g>
<!-- Valadoc.Content.Inline&#45;&gt;Valadoc.Content.InlineTaglet -->
<g id="edge5" class="edge">
<title>Valadoc.Content.Inline&#45;&gt;Valadoc.Content.InlineTaglet</title>
<path fill="none" stroke="black" d="M403.92,-139.79C380.41,-129.63 352.63,-117.63 330.5,-108.07"/>
<polygon fill="black" stroke="black" points="402.8,-143.12 413.37,-143.88 405.58,-136.7 402.8,-143.12"/>
</g>
</g>
</svg>
