<?xml version="1.0" encoding="UTF-8" standalone="no"?>
<!DOCTYPE svg PUBLIC "-//W3C//DTD SVG 1.1//EN"
 "http://www.w3.org/Graphics/SVG/1.1/DTD/svg11.dtd">
<!-- Generated by graphviz version 2.40.1 (20161225.0304)
 -->
<!-- Title: Valadoc.Charts.SimpleFactory Pages: 1 -->
<svg width="217pt" height="188pt"
 viewBox="0.00 0.00 217.00 188.00" xmlns="http://www.w3.org/2000/svg" xmlns:xlink="http://www.w3.org/1999/xlink">
<g id="graph0" class="graph" transform="scale(1 1) rotate(0) translate(4 184)">
<title>Valadoc.Charts.SimpleFactory</title>
<polygon fill="#ffffff" stroke="transparent" points="-4,4 -4,-184 213,-184 213,4 -4,4"/>
<!-- Valadoc.Charts.SimpleFactory -->
<g id="node1" class="node">
<title>Valadoc.Charts.SimpleFactory</title>
<g id="a_node1"><a xlink:href="Valadoc.Charts.SimpleFactory.html" xlink:title="Valadoc.Charts.SimpleFactory">
<polygon fill="none" stroke="#000000" stroke-width="2" points="209,-36 0,-36 0,0 209,0 209,-36"/>
<text text-anchor="middle" x="104.5" y="-14.3" font-family="Times" font-size="14.00" fill="#000000">Valadoc.Charts.SimpleFactory</text>
</a>
</g>
</g>
<!-- Valadoc.Charts.Factory -->
<g id="node2" class="node">
<title>Valadoc.Charts.Factory</title>
<g id="a_node2"><a xlink:href="Valadoc.Charts.Factory.html" xlink:title="Valadoc.Charts.Factory">
<polygon fill="none" stroke="#000000" stroke-width="2" points="187.5,-108 21.5,-108 21.5,-72 187.5,-72 187.5,-108"/>
<text text-anchor="middle" x="104.5" y="-86.3" font-family="Times" font-size="14.00" fill="#000000">Valadoc.Charts.Factory</text>
</a>
</g>
</g>
<!-- Valadoc.Charts.Factory&#45;&gt;Valadoc.Charts.SimpleFactory -->
<g id="edge1" class="edge">
<title>Valadoc.Charts.Factory&#45;&gt;Valadoc.Charts.SimpleFactory</title>
<path fill="none" stroke="#000000" d="M104.5,-61.5726C104.5,-53.1084 104.5,-44.0593 104.5,-36.4133"/>
<polygon fill="#000000" stroke="#000000" points="101.0001,-61.8313 104.5,-71.8314 108.0001,-61.8314 101.0001,-61.8313"/>
</g>
<!-- GLib.Object -->
<g id="node3" class="node">
<title>GLib.Object</title>
<polygon fill="none" stroke="#000000" stroke-width="2" points="150.5,-180 58.5,-180 58.5,-144 150.5,-144 150.5,-180"/>
<text text-anchor="middle" x="104.5" y="-158.3" font-family="Times" font-size="14.00" fill="#000000">GLib.Object</text>
</g>
<!-- GLib.Object&#45;&gt;Valadoc.Charts.Factory -->
<g id="edge2" class="edge">
<title>GLib.Object&#45;&gt;Valadoc.Charts.Factory</title>
<path fill="none" stroke="#000000" d="M104.5,-133.5726C104.5,-125.1084 104.5,-116.0593 104.5,-108.4133"/>
<polygon fill="#000000" stroke="#000000" points="101.0001,-133.8313 104.5,-143.8314 108.0001,-133.8314 101.0001,-133.8313"/>
</g>
</g>
</svg>
