<?xml version="1.0" encoding="UTF-8" standalone="no"?>
<!DOCTYPE svg PUBLIC "-//W3C//DTD SVG 1.1//EN"
 "http://www.w3.org/Graphics/SVG/1.1/DTD/svg11.dtd">
<!-- Generated by graphviz version 2.40.1 (0)
 -->
<!-- Title: Valadoc.Content.Paragraph Pages: 1 -->
<svg width="574pt" height="260pt"
 viewBox="0.00 0.00 574.00 260.00" xmlns="http://www.w3.org/2000/svg" xmlns:xlink="http://www.w3.org/1999/xlink">
<g id="graph0" class="graph" transform="scale(1 1) rotate(0) translate(4 256)">
<title>Valadoc.Content.Paragraph</title>
<polygon fill="#ffffff" stroke="transparent" points="-4,4 -4,-256 570,-256 570,4 -4,4"/>
<!-- Valadoc.Content.Paragraph -->
<g id="node1" class="node">
<title>Valadoc.Content.Paragraph</title>
<g id="a_node1"><a xlink:href="Valadoc.Content.Paragraph.html" xlink:title="Valadoc.Content.Paragraph">
<polygon fill="none" stroke="#000000" stroke-width="2" points="365.5,-36 198.5,-36 198.5,0 365.5,0 365.5,-36"/>
<text text-anchor="middle" x="282" y="-14.3" font-family="Times" font-size="14.00" fill="#000000">Valadoc.Content.Paragraph</text>
</a>
</g>
</g>
<!-- Valadoc.Content.InlineContent -->
<g id="node2" class="node">
<title>Valadoc.Content.InlineContent</title>
<g id="a_node2"><a xlink:href="Valadoc.Content.InlineContent.html" xlink:title="Valadoc.Content.InlineContent">
<polygon fill="none" stroke="#000000" stroke-width="2" points="192.5,-108 7.5,-108 7.5,-72 192.5,-72 192.5,-108"/>
<text text-anchor="middle" x="100" y="-86.3" font-family="Times" font-size="14.00" fill="#000000">Valadoc.Content.InlineContent</text>
</a>
</g>
</g>
<!-- Valadoc.Content.InlineContent&#45;&gt;Valadoc.Content.Paragraph -->
<g id="edge1" class="edge">
<title>Valadoc.Content.InlineContent&#45;&gt;Valadoc.Content.Paragraph</title>
<path fill="none" stroke="#000000" d="M155.2616,-68.1383C181.22,-57.869 211.791,-45.775 236.404,-36.038"/>
<polygon fill="#000000" stroke="#000000" points="153.9375,-64.8981 145.9263,-71.8314 156.5126,-71.4072 153.9375,-64.8981"/>
</g>
<!-- Valadoc.Content.ContentElement -->
<g id="node3" class="node">
<title>Valadoc.Content.ContentElement</title>
<g id="a_node3"><a xlink:href="Valadoc.Content.ContentElement.html" xlink:title="Valadoc.Content.ContentElement">
<polygon fill="none" stroke="#000000" stroke-width="2" points="200,-180 0,-180 0,-144 200,-144 200,-180"/>
<text text-anchor="middle" x="100" y="-158.3" font-family="Times" font-size="14.00" fill="#000000">Valadoc.Content.ContentElement</text>
</a>
</g>
</g>
<!-- Valadoc.Content.ContentElement&#45;&gt;Valadoc.Content.InlineContent -->
<g id="edge2" class="edge">
<title>Valadoc.Content.ContentElement&#45;&gt;Valadoc.Content.InlineContent</title>
<path fill="none" stroke="#000000" d="M100,-133.5726C100,-125.1084 100,-116.0593 100,-108.4133"/>
<polygon fill="#000000" stroke="#000000" points="96.5001,-133.8313 100,-143.8314 103.5001,-133.8314 96.5001,-133.8313"/>
</g>
<!-- GLib.Object -->
<g id="node4" class="node">
<title>GLib.Object</title>
<g id="a_node4"><a xlink:href="../gobject-2.0/GLib.Object.html" xlink:title="GLib.Object">
<polygon fill="none" stroke="#000000" stroke-width="2" points="142.5,-252 57.5,-252 57.5,-216 142.5,-216 142.5,-252"/>
<text text-anchor="middle" x="100" y="-230.3" font-family="Times" font-size="14.00" fill="#000000">GLib.Object</text>
</a>
</g>
</g>
<!-- GLib.Object&#45;&gt;Valadoc.Content.ContentElement -->
<g id="edge3" class="edge">
<title>GLib.Object&#45;&gt;Valadoc.Content.ContentElement</title>
<path fill="none" stroke="#000000" d="M100,-205.5726C100,-197.1084 100,-188.0593 100,-180.4133"/>
<polygon fill="#000000" stroke="#000000" points="96.5001,-205.8313 100,-215.8314 103.5001,-205.8314 96.5001,-205.8313"/>
</g>
<!-- Valadoc.Content.Block -->
<g id="node5" class="node">
<title>Valadoc.Content.Block</title>
<g id="a_node5"><a xlink:href="Valadoc.Content.Block.html" xlink:title="Valadoc.Content.Block">
<polygon fill="none" stroke="#000000" points="353.5,-108 210.5,-108 210.5,-72 353.5,-72 353.5,-108"/>
<text text-anchor="middle" x="282" y="-86.3" font-family="Times" font-size="14.00" fill="#000000">Valadoc.Content.Block</text>
</a>
</g>
</g>
<!-- Valadoc.Content.Block&#45;&gt;Valadoc.Content.Paragraph -->
<g id="edge4" class="edge">
<title>Valadoc.Content.Block&#45;&gt;Valadoc.Content.Paragraph</title>
<path fill="none" stroke="#000000" d="M282,-61.5726C282,-53.1084 282,-44.0593 282,-36.4133"/>
<polygon fill="#000000" stroke="#000000" points="278.5001,-61.8313 282,-71.8314 285.5001,-61.8314 278.5001,-61.8313"/>
</g>
<!-- Valadoc.Content.StyleAttributes -->
<g id="node6" class="node">
<title>Valadoc.Content.StyleAttributes</title>
<g id="a_node6"><a xlink:href="Valadoc.Content.StyleAttributes.html" xlink:title="Valadoc.Content.StyleAttributes">
<polygon fill="none" stroke="#000000" points="566,-108 372,-108 372,-72 566,-72 566,-108"/>
<text text-anchor="middle" x="469" y="-86.3" font-family="Times" font-size="14.00" fill="#000000">Valadoc.Content.StyleAttributes</text>
</a>
</g>
</g>
<!-- Valadoc.Content.StyleAttributes&#45;&gt;Valadoc.Content.Paragraph -->
<g id="edge5" class="edge">
<title>Valadoc.Content.StyleAttributes&#45;&gt;Valadoc.Content.Paragraph</title>
<path fill="none" stroke="#000000" d="M412.2202,-68.1383C385.5487,-57.869 354.1378,-45.775 328.8487,-36.038"/>
<polygon fill="#000000" stroke="#000000" points="411.2222,-71.5044 421.812,-71.8314 413.7374,-64.9719 411.2222,-71.5044"/>
</g>
</g>
</svg>
