<?xml version="1.0" encoding="UTF-8" standalone="no"?>
<!DOCTYPE svg PUBLIC "-//W3C//DTD SVG 1.1//EN"
 "http://www.w3.org/Graphics/SVG/1.1/DTD/svg11.dtd">
<!-- Generated by graphviz version 2.40.1 (0)
 -->
<!-- Title: Valadoc.Taglets.Param Pages: 1 -->
<svg width="526pt" height="260pt"
 viewBox="0.00 0.00 525.50 260.00" xmlns="http://www.w3.org/2000/svg" xmlns:xlink="http://www.w3.org/1999/xlink">
<g id="graph0" class="graph" transform="scale(1 1) rotate(0) translate(4 256)">
<title>Valadoc.Taglets.Param</title>
<polygon fill="#ffffff" stroke="transparent" points="-4,4 -4,-256 521.5,-256 521.5,4 -4,4"/>
<!-- Valadoc.Taglets.Param -->
<g id="node1" class="node">
<title>Valadoc.Taglets.Param</title>
<g id="a_node1"><a xlink:href="Valadoc.Taglets.Param.html" xlink:title="Valadoc.Taglets.Param">
<polygon fill="none" stroke="#000000" stroke-width="2" points="355.5,-36 212.5,-36 212.5,0 355.5,0 355.5,-36"/>
<text text-anchor="middle" x="284" y="-14.3" font-family="Times" font-size="14.00" fill="#000000">Valadoc.Taglets.Param</text>
</a>
</g>
</g>
<!-- Valadoc.Content.BlockContent -->
<g id="node2" class="node">
<title>Valadoc.Content.BlockContent</title>
<g id="a_node2"><a xlink:href="Valadoc.Content.BlockContent.html" xlink:title="Valadoc.Content.BlockContent">
<polygon fill="none" stroke="#000000" stroke-width="2" points="193,-108 7,-108 7,-72 193,-72 193,-108"/>
<text text-anchor="middle" x="100" y="-86.3" font-family="Times" font-size="14.00" fill="#000000">Valadoc.Content.BlockContent</text>
</a>
</g>
</g>
<!-- Valadoc.Content.BlockContent&#45;&gt;Valadoc.Taglets.Param -->
<g id="edge1" class="edge">
<title>Valadoc.Content.BlockContent&#45;&gt;Valadoc.Taglets.Param</title>
<path fill="none" stroke="#000000" d="M155.8689,-68.1383C182.1125,-57.869 213.0195,-45.775 237.9029,-36.038"/>
<polygon fill="#000000" stroke="#000000" points="154.468,-64.928 146.431,-71.8314 157.0188,-71.4467 154.468,-64.928"/>
</g>
<!-- Valadoc.Content.ContentElement -->
<g id="node3" class="node">
<title>Valadoc.Content.ContentElement</title>
<g id="a_node3"><a xlink:href="Valadoc.Content.ContentElement.html" xlink:title="Valadoc.Content.ContentElement">
<polygon fill="none" stroke="#000000" stroke-width="2" points="200,-180 0,-180 0,-144 200,-144 200,-180"/>
<text text-anchor="middle" x="100" y="-158.3" font-family="Times" font-size="14.00" fill="#000000">Valadoc.Content.ContentElement</text>
</a>
</g>
</g>
<!-- Valadoc.Content.ContentElement&#45;&gt;Valadoc.Content.BlockContent -->
<g id="edge2" class="edge">
<title>Valadoc.Content.ContentElement&#45;&gt;Valadoc.Content.BlockContent</title>
<path fill="none" stroke="#000000" d="M100,-133.5726C100,-125.1084 100,-116.0593 100,-108.4133"/>
<polygon fill="#000000" stroke="#000000" points="96.5001,-133.8313 100,-143.8314 103.5001,-133.8314 96.5001,-133.8313"/>
</g>
<!-- GLib.Object -->
<g id="node4" class="node">
<title>GLib.Object</title>
<g id="a_node4"><a xlink:href="../gobject-2.0/GLib.Object.html" xlink:title="GLib.Object">
<polygon fill="none" stroke="#000000" stroke-width="2" points="142.5,-252 57.5,-252 57.5,-216 142.5,-216 142.5,-252"/>
<text text-anchor="middle" x="100" y="-230.3" font-family="Times" font-size="14.00" fill="#000000">GLib.Object</text>
</a>
</g>
</g>
<!-- GLib.Object&#45;&gt;Valadoc.Content.ContentElement -->
<g id="edge3" class="edge">
<title>GLib.Object&#45;&gt;Valadoc.Content.ContentElement</title>
<path fill="none" stroke="#000000" d="M100,-205.5726C100,-197.1084 100,-188.0593 100,-180.4133"/>
<polygon fill="#000000" stroke="#000000" points="96.5001,-205.8313 100,-215.8314 103.5001,-205.8314 96.5001,-205.8313"/>
</g>
<!-- Valadoc.Content.Taglet -->
<g id="node5" class="node">
<title>Valadoc.Content.Taglet</title>
<g id="a_node5"><a xlink:href="Valadoc.Content.Taglet.html" xlink:title="Valadoc.Content.Taglet">
<polygon fill="none" stroke="#000000" points="356.5,-108 211.5,-108 211.5,-72 356.5,-72 356.5,-108"/>
<text text-anchor="middle" x="284" y="-86.3" font-family="Times" font-size="14.00" fill="#000000">Valadoc.Content.Taglet</text>
</a>
</g>
</g>
<!-- Valadoc.Content.Taglet&#45;&gt;Valadoc.Taglets.Param -->
<g id="edge4" class="edge">
<title>Valadoc.Content.Taglet&#45;&gt;Valadoc.Taglets.Param</title>
<path fill="none" stroke="#000000" d="M284,-61.5726C284,-53.1084 284,-44.0593 284,-36.4133"/>
<polygon fill="#000000" stroke="#000000" points="280.5001,-61.8313 284,-71.8314 287.5001,-61.8314 280.5001,-61.8313"/>
</g>
<!-- Valadoc.Content.Block -->
<g id="node6" class="node">
<title>Valadoc.Content.Block</title>
<g id="a_node6"><a xlink:href="Valadoc.Content.Block.html" xlink:title="Valadoc.Content.Block">
<polygon fill="none" stroke="#000000" points="517.5,-108 374.5,-108 374.5,-72 517.5,-72 517.5,-108"/>
<text text-anchor="middle" x="446" y="-86.3" font-family="Times" font-size="14.00" fill="#000000">Valadoc.Content.Block</text>
</a>
</g>
</g>
<!-- Valadoc.Content.Block&#45;&gt;Valadoc.Taglets.Param -->
<g id="edge5" class="edge">
<title>Valadoc.Content.Block&#45;&gt;Valadoc.Taglets.Param</title>
<path fill="none" stroke="#000000" d="M395.8969,-67.732C372.9901,-57.5512 346.2054,-45.6469 324.5855,-36.038"/>
<polygon fill="#000000" stroke="#000000" points="394.5609,-70.9683 405.1206,-71.8314 397.4039,-64.5716 394.5609,-70.9683"/>
</g>
</g>
</svg>
