<?xml version="1.0" encoding="UTF-8" standalone="no"?>
<!DOCTYPE svg PUBLIC "-//W3C//DTD SVG 1.1//EN"
 "http://www.w3.org/Graphics/SVG/1.1/DTD/svg11.dtd">
<!-- Generated by graphviz version 2.40.1 (20161225.0304)
 -->
<!-- Title: Valadoc.Importer.ValadocDocumentationScanner Pages: 1 -->
<svg width="341pt" height="116pt"
 viewBox="0.00 0.00 341.00 116.00" xmlns="http://www.w3.org/2000/svg" xmlns:xlink="http://www.w3.org/1999/xlink">
<g id="graph0" class="graph" transform="scale(1 1) rotate(0) translate(4 112)">
<title>Valadoc.Importer.ValadocDocumentationScanner</title>
<polygon fill="#ffffff" stroke="transparent" points="-4,4 -4,-112 337,-112 337,4 -4,4"/>
<!-- Valadoc.Importer.ValadocDocumentationScanner -->
<g id="node1" class="node">
<title>Valadoc.Importer.ValadocDocumentationScanner</title>
<g id="a_node1"><a xlink:href="Valadoc.Importer.ValadocDocumentationScanner.html" xlink:title="Valadoc.Importer.ValadocDocumentationScanner">
<polygon fill="none" stroke="#000000" stroke-width="2" points="333,-36 0,-36 0,0 333,0 333,-36"/>
<text text-anchor="middle" x="166.5" y="-14.3" font-family="Times" font-size="14.00" fill="#000000">Valadoc.Importer.ValadocDocumentationScanner</text>
</a>
</g>
</g>
<!-- GLib.Object -->
<g id="node2" class="node">
<title>GLib.Object</title>
<polygon fill="none" stroke="#000000" stroke-width="2" points="149.5,-108 57.5,-108 57.5,-72 149.5,-72 149.5,-108"/>
<text text-anchor="middle" x="103.5" y="-86.3" font-family="Times" font-size="14.00" fill="#000000">GLib.Object</text>
</g>
<!-- GLib.Object&#45;&gt;Valadoc.Importer.ValadocDocumentationScanner -->
<g id="edge1" class="edge">
<title>GLib.Object&#45;&gt;Valadoc.Importer.ValadocDocumentationScanner</title>
<path fill="none" stroke="#000000" d="M126.1693,-64.0923C134.1843,-54.9323 143.0291,-44.8239 150.3884,-36.4133"/>
<polygon fill="#000000" stroke="#000000" points="123.3486,-62.0008 119.3976,-71.8314 128.6167,-66.6103 123.3486,-62.0008"/>
</g>
<!-- Valadoc.Scanner -->
<g id="node3" class="node">
<title>Valadoc.Scanner</title>
<g id="a_node3"><a xlink:href="Valadoc.Scanner.html" xlink:title="Valadoc.Scanner">
<polygon fill="none" stroke="#000000" points="291.5,-108 167.5,-108 167.5,-72 291.5,-72 291.5,-108"/>
<text text-anchor="middle" x="229.5" y="-86.3" font-family="Times" font-size="14.00" fill="#000000">Valadoc.Scanner</text>
</a>
</g>
</g>
<!-- Valadoc.Scanner&#45;&gt;Valadoc.Importer.ValadocDocumentationScanner -->
<g id="edge2" class="edge">
<title>Valadoc.Scanner&#45;&gt;Valadoc.Importer.ValadocDocumentationScanner</title>
<path fill="none" stroke="#000000" d="M206.8307,-64.0923C198.8157,-54.9323 189.9709,-44.8239 182.6116,-36.4133"/>
<polygon fill="#000000" stroke="#000000" points="204.3833,-66.6103 213.6024,-71.8314 209.6514,-62.0008 204.3833,-66.6103"/>
</g>
</g>
</svg>
