<?xml version="1.0" encoding="UTF-8" standalone="no"?>
<!DOCTYPE svg PUBLIC "-//W3C//DTD SVG 1.1//EN"
 "http://www.w3.org/Graphics/SVG/1.1/DTD/svg11.dtd">
<!-- Generated by graphviz version 2.40.1 (20161225.0304)
 -->
<!-- Title: Valadoc.Content.Embedded Pages: 1 -->
<svg width="577pt" height="188pt"
 viewBox="0.00 0.00 577.00 188.00" xmlns="http://www.w3.org/2000/svg" xmlns:xlink="http://www.w3.org/1999/xlink">
<g id="graph0" class="graph" transform="scale(1 1) rotate(0) translate(4 184)">
<title>Valadoc.Content.Embedded</title>
<polygon fill="#ffffff" stroke="transparent" points="-4,4 -4,-184 573,-184 573,4 -4,4"/>
<!-- Valadoc.Content.Embedded -->
<g id="node1" class="node">
<title>Valadoc.Content.Embedded</title>
<g id="a_node1"><a xlink:href="Valadoc.Content.Embedded.html" xlink:title="Valadoc.Content.Embedded">
<polygon fill="none" stroke="#000000" stroke-width="2" points="373,-36 204,-36 204,0 373,0 373,-36"/>
<text text-anchor="middle" x="288.5" y="-14.3" font-family="Times" font-size="14.00" fill="#000000">Valadoc.Content.Embedded</text>
</a>
</g>
</g>
<!-- Valadoc.Content.ContentElement -->
<g id="node2" class="node">
<title>Valadoc.Content.ContentElement</title>
<g id="a_node2"><a xlink:href="Valadoc.Content.ContentElement.html" xlink:title="Valadoc.Content.ContentElement">
<polygon fill="none" stroke="#000000" stroke-width="2" points="199,-108 0,-108 0,-72 199,-72 199,-108"/>
<text text-anchor="middle" x="99.5" y="-86.3" font-family="Times" font-size="14.00" fill="#000000">Valadoc.Content.ContentElement</text>
</a>
</g>
</g>
<!-- Valadoc.Content.ContentElement&#45;&gt;Valadoc.Content.Embedded -->
<g id="edge1" class="edge">
<title>Valadoc.Content.ContentElement&#45;&gt;Valadoc.Content.Embedded</title>
<path fill="none" stroke="#000000" d="M156.8871,-68.1383C183.8438,-57.869 215.5907,-45.775 241.1503,-36.038"/>
<polygon fill="#000000" stroke="#000000" points="155.2916,-65.0006 147.1927,-71.8314 157.7836,-71.5421 155.2916,-65.0006"/>
</g>
<!-- GLib.Object -->
<g id="node3" class="node">
<title>GLib.Object</title>
<polygon fill="none" stroke="#000000" stroke-width="2" points="142,-180 57,-180 57,-144 142,-144 142,-180"/>
<text text-anchor="middle" x="99.5" y="-158.3" font-family="Times" font-size="14.00" fill="#000000">GLib.Object</text>
</g>
<!-- GLib.Object&#45;&gt;Valadoc.Content.ContentElement -->
<g id="edge2" class="edge">
<title>GLib.Object&#45;&gt;Valadoc.Content.ContentElement</title>
<path fill="none" stroke="#000000" d="M99.5,-133.5726C99.5,-125.1084 99.5,-116.0593 99.5,-108.4133"/>
<polygon fill="#000000" stroke="#000000" points="96.0001,-133.8313 99.5,-143.8314 103.0001,-133.8314 96.0001,-133.8313"/>
</g>
<!-- Valadoc.Content.Inline -->
<g id="node4" class="node">
<title>Valadoc.Content.Inline</title>
<g id="a_node4"><a xlink:href="Valadoc.Content.Inline.html" xlink:title="Valadoc.Content.Inline">
<polygon fill="none" stroke="#000000" points="359.5,-108 217.5,-108 217.5,-72 359.5,-72 359.5,-108"/>
<text text-anchor="middle" x="288.5" y="-86.3" font-family="Times" font-size="14.00" fill="#000000">Valadoc.Content.Inline</text>
</a>
</g>
</g>
<!-- Valadoc.Content.Inline&#45;&gt;Valadoc.Content.Embedded -->
<g id="edge3" class="edge">
<title>Valadoc.Content.Inline&#45;&gt;Valadoc.Content.Embedded</title>
<path fill="none" stroke="#000000" d="M288.5,-61.5726C288.5,-53.1084 288.5,-44.0593 288.5,-36.4133"/>
<polygon fill="#000000" stroke="#000000" points="285.0001,-61.8313 288.5,-71.8314 292.0001,-61.8314 285.0001,-61.8313"/>
</g>
<!-- Valadoc.Content.StyleAttributes -->
<g id="node5" class="node">
<title>Valadoc.Content.StyleAttributes</title>
<g id="a_node5"><a xlink:href="Valadoc.Content.StyleAttributes.html" xlink:title="Valadoc.Content.StyleAttributes">
<polygon fill="none" stroke="#000000" points="569,-108 378,-108 378,-72 569,-72 569,-108"/>
<text text-anchor="middle" x="473.5" y="-86.3" font-family="Times" font-size="14.00" fill="#000000">Valadoc.Content.StyleAttributes</text>
</a>
</g>
</g>
<!-- Valadoc.Content.StyleAttributes&#45;&gt;Valadoc.Content.Embedded -->
<g id="edge4" class="edge">
<title>Valadoc.Content.StyleAttributes&#45;&gt;Valadoc.Content.Embedded</title>
<path fill="none" stroke="#000000" d="M417.3275,-68.1383C390.9413,-57.869 359.8663,-45.775 334.8476,-36.038"/>
<polygon fill="#000000" stroke="#000000" points="416.2281,-71.4661 426.8167,-71.8314 418.767,-64.9427 416.2281,-71.4661"/>
</g>
</g>
</svg>
