<?xml version="1.0" encoding="UTF-8" standalone="no"?>
<!DOCTYPE svg PUBLIC "-//W3C//DTD SVG 1.1//EN"
 "http://www.w3.org/Graphics/SVG/1.1/DTD/svg11.dtd">
<!-- Generated by graphviz version 2.40.1 (20161225.0304)
 -->
<!-- Title: Valadoc.Html.CssClassResolver Pages: 1 -->
<svg width="199pt" height="188pt"
 viewBox="0.00 0.00 199.00 188.00" xmlns="http://www.w3.org/2000/svg" xmlns:xlink="http://www.w3.org/1999/xlink">
<g id="graph0" class="graph" transform="scale(1 1) rotate(0) translate(4 184)">
<title>Valadoc.Html.CssClassResolver</title>
<polygon fill="#ffffff" stroke="transparent" points="-4,4 -4,-184 195,-184 195,4 -4,4"/>
<!-- Valadoc.Html.CssClassResolver -->
<g id="node1" class="node">
<title>Valadoc.Html.CssClassResolver</title>
<g id="a_node1"><a xlink:href="Valadoc.Html.CssClassResolver.html" xlink:title="Valadoc.Html.CssClassResolver">
<polygon fill="none" stroke="#000000" stroke-width="2" points="191,-36 0,-36 0,0 191,0 191,-36"/>
<text text-anchor="middle" x="95.5" y="-14.3" font-family="Times" font-size="14.00" fill="#000000">Valadoc.Html.CssClassResolver</text>
</a>
</g>
</g>
<!-- Valadoc.Api.Visitor -->
<g id="node2" class="node">
<title>Valadoc.Api.Visitor</title>
<g id="a_node2"><a xlink:href="Valadoc.Api.Visitor.html" xlink:title="Valadoc.Api.Visitor">
<polygon fill="none" stroke="#000000" stroke-width="2" points="158,-108 33,-108 33,-72 158,-72 158,-108"/>
<text text-anchor="middle" x="95.5" y="-86.3" font-family="Times" font-size="14.00" fill="#000000">Valadoc.Api.Visitor</text>
</a>
</g>
</g>
<!-- Valadoc.Api.Visitor&#45;&gt;Valadoc.Html.CssClassResolver -->
<g id="edge1" class="edge">
<title>Valadoc.Api.Visitor&#45;&gt;Valadoc.Html.CssClassResolver</title>
<path fill="none" stroke="#000000" d="M95.5,-61.5726C95.5,-53.1084 95.5,-44.0593 95.5,-36.4133"/>
<polygon fill="#000000" stroke="#000000" points="92.0001,-61.8313 95.5,-71.8314 99.0001,-61.8314 92.0001,-61.8313"/>
</g>
<!-- GLib.Object -->
<g id="node3" class="node">
<title>GLib.Object</title>
<polygon fill="none" stroke="#000000" stroke-width="2" points="138,-180 53,-180 53,-144 138,-144 138,-180"/>
<text text-anchor="middle" x="95.5" y="-158.3" font-family="Times" font-size="14.00" fill="#000000">GLib.Object</text>
</g>
<!-- GLib.Object&#45;&gt;Valadoc.Api.Visitor -->
<g id="edge2" class="edge">
<title>GLib.Object&#45;&gt;Valadoc.Api.Visitor</title>
<path fill="none" stroke="#000000" d="M95.5,-133.5726C95.5,-125.1084 95.5,-116.0593 95.5,-108.4133"/>
<polygon fill="#000000" stroke="#000000" points="92.0001,-133.8313 95.5,-143.8314 99.0001,-133.8314 92.0001,-133.8313"/>
</g>
</g>
</svg>
