<?xml version="1.0" encoding="UTF-8" standalone="no"?>
<!DOCTYPE svg PUBLIC "-//W3C//DTD SVG 1.1//EN"
 "http://www.w3.org/Graphics/SVG/1.1/DTD/svg11.dtd">
<!-- Generated by graphviz version 2.42.3 (0)
 -->
<!-- Title: Valadoc.Api.Node Pages: 1 -->
<svg width="290pt" height="188pt"
 viewBox="0.00 0.00 289.50 188.00" xmlns="http://www.w3.org/2000/svg" xmlns:xlink="http://www.w3.org/1999/xlink">
<g id="graph0" class="graph" transform="scale(1 1) rotate(0) translate(4 184)">
<title>Valadoc.Api.Node</title>
<polygon fill="white" stroke="transparent" points="-4,4 -4,-184 285.5,-184 285.5,4 -4,4"/>
<!-- Valadoc.Api.Node -->
<g id="node1" class="node">
<title>Valadoc.Api.Node</title>
<g id="a_node1"><a xlink:href="Valadoc.Api.Node.html" xlink:title="Valadoc.Api.Node">
<polygon fill="none" stroke="black" stroke-width="2" points="191,-36 73,-36 73,0 191,0 191,-36"/>
<text text-anchor="middle" x="132" y="-14.3" font-family="Times" font-size="14.00">Valadoc.Api.Node</text>
</a>
</g>
</g>
<!-- Valadoc.Api.Item -->
<g id="node2" class="node">
<title>Valadoc.Api.Item</title>
<g id="a_node2"><a xlink:href="Valadoc.Api.Item.html" xlink:title="Valadoc.Api.Item">
<polygon fill="none" stroke="black" stroke-width="2" points="114,-108 0,-108 0,-72 114,-72 114,-108"/>
<text text-anchor="middle" x="57" y="-86.3" font-family="Times" font-size="14.00">Valadoc.Api.Item</text>
</a>
</g>
</g>
<!-- Valadoc.Api.Item&#45;&gt;Valadoc.Api.Node -->
<g id="edge1" class="edge">
<title>Valadoc.Api.Item&#45;&gt;Valadoc.Api.Node</title>
<path fill="none" stroke="black" d="M82.98,-64.76C93.09,-55.32 104.44,-44.72 113.67,-36.1"/>
<polygon fill="black" stroke="black" points="80.46,-62.31 75.54,-71.7 85.24,-67.43 80.46,-62.31"/>
</g>
<!-- GLib.Object -->
<g id="node3" class="node">
<title>GLib.Object</title>
<g id="a_node3"><a xlink:href="../gobject-2.0/GLib.Object.html" xlink:title="GLib.Object">
<polygon fill="none" stroke="black" stroke-width="2" points="99.5,-180 14.5,-180 14.5,-144 99.5,-144 99.5,-180"/>
<text text-anchor="middle" x="57" y="-158.3" font-family="Times" font-size="14.00">GLib.Object</text>
</a>
</g>
</g>
<!-- GLib.Object&#45;&gt;Valadoc.Api.Item -->
<g id="edge2" class="edge">
<title>GLib.Object&#45;&gt;Valadoc.Api.Item</title>
<path fill="none" stroke="black" d="M57,-133.67C57,-125.05 57,-115.79 57,-108.1"/>
<polygon fill="black" stroke="black" points="53.5,-133.7 57,-143.7 60.5,-133.7 53.5,-133.7"/>
</g>
<!-- Valadoc.Documentation -->
<g id="node4" class="node">
<title>Valadoc.Documentation</title>
<g id="a_node4"><a xlink:href="Valadoc.Documentation.html" xlink:title="Valadoc.Documentation">
<polygon fill="none" stroke="black" points="281.5,-108 132.5,-108 132.5,-72 281.5,-72 281.5,-108"/>
<text text-anchor="middle" x="207" y="-86.3" font-family="Times" font-size="14.00">Valadoc.Documentation</text>
</a>
</g>
</g>
<!-- Valadoc.Documentation&#45;&gt;Valadoc.Api.Node -->
<g id="edge3" class="edge">
<title>Valadoc.Documentation&#45;&gt;Valadoc.Api.Node</title>
<path fill="none" stroke="black" d="M181.02,-64.76C170.91,-55.32 159.56,-44.72 150.33,-36.1"/>
<polygon fill="black" stroke="black" points="178.76,-67.43 188.46,-71.7 183.54,-62.31 178.76,-67.43"/>
</g>
</g>
</svg>
