<?xml version="1.0" encoding="UTF-8" standalone="no"?>
<!DOCTYPE svg PUBLIC "-//W3C//DTD SVG 1.1//EN"
 "http://www.w3.org/Graphics/SVG/1.1/DTD/svg11.dtd">
<!-- Generated by graphviz version 2.42.3 (0)
 -->
<!-- Title: Valadoc.Api.Callable Pages: 1 -->
<svg width="290pt" height="332pt"
 viewBox="0.00 0.00 289.50 332.00" xmlns="http://www.w3.org/2000/svg" xmlns:xlink="http://www.w3.org/1999/xlink">
<g id="graph0" class="graph" transform="scale(1 1) rotate(0) translate(4 328)">
<title>Valadoc.Api.Callable</title>
<polygon fill="white" stroke="transparent" points="-4,4 -4,-328 285.5,-328 285.5,4 -4,4"/>
<!-- Valadoc.Api.Callable -->
<g id="node1" class="node">
<title>Valadoc.Api.Callable</title>
<g id="a_node1"><a xlink:href="Valadoc.Api.Callable.html" xlink:title="Valadoc.Api.Callable">
<polygon fill="none" stroke="black" points="199,-36 65,-36 65,0 199,0 199,-36"/>
<text text-anchor="middle" x="132" y="-14.3" font-family="Times" font-size="14.00">Valadoc.Api.Callable</text>
</a>
</g>
</g>
<!-- Valadoc.Api.Symbol -->
<g id="node2" class="node">
<title>Valadoc.Api.Symbol</title>
<g id="a_node2"><a xlink:href="Valadoc.Api.Symbol.html" xlink:title="Valadoc.Api.Symbol">
<polygon fill="none" stroke="black" stroke-width="2" points="197.5,-108 66.5,-108 66.5,-72 197.5,-72 197.5,-108"/>
<text text-anchor="middle" x="132" y="-86.3" font-family="Times" font-size="14.00">Valadoc.Api.Symbol</text>
</a>
</g>
</g>
<!-- Valadoc.Api.Symbol&#45;&gt;Valadoc.Api.Callable -->
<g id="edge1" class="edge">
<title>Valadoc.Api.Symbol&#45;&gt;Valadoc.Api.Callable</title>
<path fill="none" stroke="black" d="M132,-61.67C132,-53.05 132,-43.79 132,-36.1"/>
<polygon fill="black" stroke="black" points="128.5,-61.7 132,-71.7 135.5,-61.7 128.5,-61.7"/>
</g>
<!-- Valadoc.Api.Node -->
<g id="node3" class="node">
<title>Valadoc.Api.Node</title>
<g id="a_node3"><a xlink:href="Valadoc.Api.Node.html" xlink:title="Valadoc.Api.Node">
<polygon fill="none" stroke="black" stroke-width="2" points="191,-180 73,-180 73,-144 191,-144 191,-180"/>
<text text-anchor="middle" x="132" y="-158.3" font-family="Times" font-size="14.00">Valadoc.Api.Node</text>
</a>
</g>
</g>
<!-- Valadoc.Api.Node&#45;&gt;Valadoc.Api.Symbol -->
<g id="edge2" class="edge">
<title>Valadoc.Api.Node&#45;&gt;Valadoc.Api.Symbol</title>
<path fill="none" stroke="black" d="M132,-133.67C132,-125.05 132,-115.79 132,-108.1"/>
<polygon fill="black" stroke="black" points="128.5,-133.7 132,-143.7 135.5,-133.7 128.5,-133.7"/>
</g>
<!-- Valadoc.Api.Item -->
<g id="node4" class="node">
<title>Valadoc.Api.Item</title>
<g id="a_node4"><a xlink:href="Valadoc.Api.Item.html" xlink:title="Valadoc.Api.Item">
<polygon fill="none" stroke="black" stroke-width="2" points="114,-252 0,-252 0,-216 114,-216 114,-252"/>
<text text-anchor="middle" x="57" y="-230.3" font-family="Times" font-size="14.00">Valadoc.Api.Item</text>
</a>
</g>
</g>
<!-- Valadoc.Api.Item&#45;&gt;Valadoc.Api.Node -->
<g id="edge3" class="edge">
<title>Valadoc.Api.Item&#45;&gt;Valadoc.Api.Node</title>
<path fill="none" stroke="black" d="M82.98,-208.76C93.09,-199.32 104.44,-188.72 113.67,-180.1"/>
<polygon fill="black" stroke="black" points="80.46,-206.31 75.54,-215.7 85.24,-211.43 80.46,-206.31"/>
</g>
<!-- GLib.Object -->
<g id="node5" class="node">
<title>GLib.Object</title>
<g id="a_node5"><a xlink:href="../gobject-2.0/GLib.Object.html" xlink:title="GLib.Object">
<polygon fill="none" stroke="black" stroke-width="2" points="99.5,-324 14.5,-324 14.5,-288 99.5,-288 99.5,-324"/>
<text text-anchor="middle" x="57" y="-302.3" font-family="Times" font-size="14.00">GLib.Object</text>
</a>
</g>
</g>
<!-- GLib.Object&#45;&gt;Valadoc.Api.Item -->
<g id="edge4" class="edge">
<title>GLib.Object&#45;&gt;Valadoc.Api.Item</title>
<path fill="none" stroke="black" d="M57,-277.67C57,-269.05 57,-259.79 57,-252.1"/>
<polygon fill="black" stroke="black" points="53.5,-277.7 57,-287.7 60.5,-277.7 53.5,-277.7"/>
</g>
<!-- Valadoc.Documentation -->
<g id="node6" class="node">
<title>Valadoc.Documentation</title>
<g id="a_node6"><a xlink:href="Valadoc.Documentation.html" xlink:title="Valadoc.Documentation">
<polygon fill="none" stroke="black" points="281.5,-252 132.5,-252 132.5,-216 281.5,-216 281.5,-252"/>
<text text-anchor="middle" x="207" y="-230.3" font-family="Times" font-size="14.00">Valadoc.Documentation</text>
</a>
</g>
</g>
<!-- Valadoc.Documentation&#45;&gt;Valadoc.Api.Node -->
<g id="edge5" class="edge">
<title>Valadoc.Documentation&#45;&gt;Valadoc.Api.Node</title>
<path fill="none" stroke="black" d="M181.02,-208.76C170.91,-199.32 159.56,-188.72 150.33,-180.1"/>
<polygon fill="black" stroke="black" points="178.76,-211.43 188.46,-215.7 183.54,-206.31 178.76,-211.43"/>
</g>
</g>
</svg>
