<?xml version="1.0" encoding="UTF-8" standalone="no"?>
<!DOCTYPE svg PUBLIC "-//W3C//DTD SVG 1.1//EN"
 "http://www.w3.org/Graphics/SVG/1.1/DTD/svg11.dtd">
<!-- Generated by graphviz version 2.42.3 (0)
 -->
<!-- Title: Valadoc.Content.Taglet Pages: 1 -->
<svg width="208pt" height="188pt"
 viewBox="0.00 0.00 208.00 188.00" xmlns="http://www.w3.org/2000/svg" xmlns:xlink="http://www.w3.org/1999/xlink">
<g id="graph0" class="graph" transform="scale(1 1) rotate(0) translate(4 184)">
<title>Valadoc.Content.Taglet</title>
<polygon fill="white" stroke="transparent" points="-4,4 -4,-184 204,-184 204,4 -4,4"/>
<!-- Valadoc.Content.Taglet -->
<g id="node1" class="node">
<title>Valadoc.Content.Taglet</title>
<g id="a_node1"><a xlink:href="Valadoc.Content.Taglet.html" xlink:title="Valadoc.Content.Taglet">
<polygon fill="none" stroke="black" points="172.5,-36 27.5,-36 27.5,0 172.5,0 172.5,-36"/>
<text text-anchor="middle" x="100" y="-14.3" font-family="Times" font-size="14.00">Valadoc.Content.Taglet</text>
</a>
</g>
</g>
<!-- Valadoc.Content.ContentElement -->
<g id="node2" class="node">
<title>Valadoc.Content.ContentElement</title>
<g id="a_node2"><a xlink:href="Valadoc.Content.ContentElement.html" xlink:title="Valadoc.Content.ContentElement">
<polygon fill="none" stroke="black" stroke-width="2" points="200,-108 0,-108 0,-72 200,-72 200,-108"/>
<text text-anchor="middle" x="100" y="-86.3" font-family="Times" font-size="14.00">Valadoc.Content.ContentElement</text>
</a>
</g>
</g>
<!-- Valadoc.Content.ContentElement&#45;&gt;Valadoc.Content.Taglet -->
<g id="edge1" class="edge">
<title>Valadoc.Content.ContentElement&#45;&gt;Valadoc.Content.Taglet</title>
<path fill="none" stroke="black" d="M100,-61.67C100,-53.05 100,-43.79 100,-36.1"/>
<polygon fill="black" stroke="black" points="96.5,-61.7 100,-71.7 103.5,-61.7 96.5,-61.7"/>
</g>
<!-- GLib.Object -->
<g id="node3" class="node">
<title>GLib.Object</title>
<g id="a_node3"><a xlink:href="../gobject-2.0/GLib.Object.html" xlink:title="GLib.Object">
<polygon fill="none" stroke="black" stroke-width="2" points="142.5,-180 57.5,-180 57.5,-144 142.5,-144 142.5,-180"/>
<text text-anchor="middle" x="100" y="-158.3" font-family="Times" font-size="14.00">GLib.Object</text>
</a>
</g>
</g>
<!-- GLib.Object&#45;&gt;Valadoc.Content.ContentElement -->
<g id="edge2" class="edge">
<title>GLib.Object&#45;&gt;Valadoc.Content.ContentElement</title>
<path fill="none" stroke="black" d="M100,-133.67C100,-125.05 100,-115.79 100,-108.1"/>
<polygon fill="black" stroke="black" points="96.5,-133.7 100,-143.7 103.5,-133.7 96.5,-133.7"/>
</g>
</g>
</svg>
