<?xml version="1.0" encoding="UTF-8" standalone="no"?>
<!DOCTYPE svg PUBLIC "-//W3C//DTD SVG 1.1//EN"
 "http://www.w3.org/Graphics/SVG/1.1/DTD/svg11.dtd">
<!-- Generated by graphviz version 2.40.1 (0)
 -->
<!-- Title: Valadoc.Content.Warning Pages: 1 -->
<svg width="363pt" height="260pt"
 viewBox="0.00 0.00 362.50 260.00" xmlns="http://www.w3.org/2000/svg" xmlns:xlink="http://www.w3.org/1999/xlink">
<g id="graph0" class="graph" transform="scale(1 1) rotate(0) translate(4 256)">
<title>Valadoc.Content.Warning</title>
<polygon fill="#ffffff" stroke="transparent" points="-4,4 -4,-256 358.5,-256 358.5,4 -4,4"/>
<!-- Valadoc.Content.Warning -->
<g id="node1" class="node">
<title>Valadoc.Content.Warning</title>
<g id="a_node1"><a xlink:href="Valadoc.Content.Warning.html" xlink:title="Valadoc.Content.Warning">
<polygon fill="none" stroke="#000000" stroke-width="2" points="270,-36 112,-36 112,0 270,0 270,-36"/>
<text text-anchor="middle" x="191" y="-14.3" font-family="Times" font-size="14.00" fill="#000000">Valadoc.Content.Warning</text>
</a>
</g>
</g>
<!-- Valadoc.Content.BlockContent -->
<g id="node2" class="node">
<title>Valadoc.Content.BlockContent</title>
<g id="a_node2"><a xlink:href="Valadoc.Content.BlockContent.html" xlink:title="Valadoc.Content.BlockContent">
<polygon fill="none" stroke="#000000" stroke-width="2" points="193,-108 7,-108 7,-72 193,-72 193,-108"/>
<text text-anchor="middle" x="100" y="-86.3" font-family="Times" font-size="14.00" fill="#000000">Valadoc.Content.BlockContent</text>
</a>
</g>
</g>
<!-- Valadoc.Content.BlockContent&#45;&gt;Valadoc.Content.Warning -->
<g id="edge1" class="edge">
<title>Valadoc.Content.BlockContent&#45;&gt;Valadoc.Content.Warning</title>
<path fill="none" stroke="#000000" d="M131.064,-65.4219C143.1877,-55.8295 156.8369,-45.0301 168.0442,-36.1628"/>
<polygon fill="#000000" stroke="#000000" points="128.6337,-62.8817 122.9631,-71.8314 132.9771,-68.3713 128.6337,-62.8817"/>
</g>
<!-- Valadoc.Content.ContentElement -->
<g id="node3" class="node">
<title>Valadoc.Content.ContentElement</title>
<g id="a_node3"><a xlink:href="Valadoc.Content.ContentElement.html" xlink:title="Valadoc.Content.ContentElement">
<polygon fill="none" stroke="#000000" stroke-width="2" points="200,-180 0,-180 0,-144 200,-144 200,-180"/>
<text text-anchor="middle" x="100" y="-158.3" font-family="Times" font-size="14.00" fill="#000000">Valadoc.Content.ContentElement</text>
</a>
</g>
</g>
<!-- Valadoc.Content.ContentElement&#45;&gt;Valadoc.Content.BlockContent -->
<g id="edge2" class="edge">
<title>Valadoc.Content.ContentElement&#45;&gt;Valadoc.Content.BlockContent</title>
<path fill="none" stroke="#000000" d="M100,-133.5726C100,-125.1084 100,-116.0593 100,-108.4133"/>
<polygon fill="#000000" stroke="#000000" points="96.5001,-133.8313 100,-143.8314 103.5001,-133.8314 96.5001,-133.8313"/>
</g>
<!-- GLib.Object -->
<g id="node4" class="node">
<title>GLib.Object</title>
<g id="a_node4"><a xlink:href="../gobject-2.0/GLib.Object.html" xlink:title="GLib.Object">
<polygon fill="none" stroke="#000000" stroke-width="2" points="142.5,-252 57.5,-252 57.5,-216 142.5,-216 142.5,-252"/>
<text text-anchor="middle" x="100" y="-230.3" font-family="Times" font-size="14.00" fill="#000000">GLib.Object</text>
</a>
</g>
</g>
<!-- GLib.Object&#45;&gt;Valadoc.Content.ContentElement -->
<g id="edge3" class="edge">
<title>GLib.Object&#45;&gt;Valadoc.Content.ContentElement</title>
<path fill="none" stroke="#000000" d="M100,-205.5726C100,-197.1084 100,-188.0593 100,-180.4133"/>
<polygon fill="#000000" stroke="#000000" points="96.5001,-205.8313 100,-215.8314 103.5001,-205.8314 96.5001,-205.8313"/>
</g>
<!-- Valadoc.Content.Block -->
<g id="node5" class="node">
<title>Valadoc.Content.Block</title>
<g id="a_node5"><a xlink:href="Valadoc.Content.Block.html" xlink:title="Valadoc.Content.Block">
<polygon fill="none" stroke="#000000" points="354.5,-108 211.5,-108 211.5,-72 354.5,-72 354.5,-108"/>
<text text-anchor="middle" x="283" y="-86.3" font-family="Times" font-size="14.00" fill="#000000">Valadoc.Content.Block</text>
</a>
</g>
</g>
<!-- Valadoc.Content.Block&#45;&gt;Valadoc.Content.Warning -->
<g id="edge4" class="edge">
<title>Valadoc.Content.Block&#45;&gt;Valadoc.Content.Warning</title>
<path fill="none" stroke="#000000" d="M251.5946,-65.4219C239.3377,-55.8295 225.5385,-45.0301 214.2081,-36.1628"/>
<polygon fill="#000000" stroke="#000000" points="249.7524,-68.4245 259.7845,-71.8314 254.0665,-62.912 249.7524,-68.4245"/>
</g>
</g>
</svg>
