<?xml version="1.0" encoding="UTF-8" standalone="no"?>
<!DOCTYPE svg PUBLIC "-//W3C//DTD SVG 1.1//EN"
 "http://www.w3.org/Graphics/SVG/1.1/DTD/svg11.dtd">
<!-- Generated by graphviz version 2.42.3 (0)
 -->
<!-- Title: Valadoc.WikiScanner Pages: 1 -->
<svg width="220pt" height="116pt"
 viewBox="0.00 0.00 219.50 116.00" xmlns="http://www.w3.org/2000/svg" xmlns:xlink="http://www.w3.org/1999/xlink">
<g id="graph0" class="graph" transform="scale(1 1) rotate(0) translate(4 112)">
<title>Valadoc.WikiScanner</title>
<polygon fill="white" stroke="transparent" points="-4,4 -4,-112 215.5,-112 215.5,4 -4,4"/>
<!-- Valadoc.WikiScanner -->
<g id="node1" class="node">
<title>Valadoc.WikiScanner</title>
<g id="a_node1"><a xlink:href="Valadoc.WikiScanner.html" xlink:title="Valadoc.WikiScanner">
<polygon fill="none" stroke="black" stroke-width="2" points="167.5,-36 31.5,-36 31.5,0 167.5,0 167.5,-36"/>
<text text-anchor="middle" x="99.5" y="-14.3" font-family="Times" font-size="14.00">Valadoc.WikiScanner</text>
</a>
</g>
</g>
<!-- GLib.Object -->
<g id="node2" class="node">
<title>GLib.Object</title>
<g id="a_node2"><a xlink:href="../gobject-2.0/GLib.Object.html" xlink:title="GLib.Object">
<polygon fill="none" stroke="black" stroke-width="2" points="85,-108 0,-108 0,-72 85,-72 85,-108"/>
<text text-anchor="middle" x="42.5" y="-86.3" font-family="Times" font-size="14.00">GLib.Object</text>
</a>
</g>
</g>
<!-- GLib.Object&#45;&gt;Valadoc.WikiScanner -->
<g id="edge1" class="edge">
<title>GLib.Object&#45;&gt;Valadoc.WikiScanner</title>
<path fill="none" stroke="black" d="M62.92,-63.92C70.43,-54.69 78.76,-44.47 85.57,-36.1"/>
<polygon fill="black" stroke="black" points="60.19,-61.73 56.59,-71.7 65.62,-66.15 60.19,-61.73"/>
</g>
<!-- Valadoc.Scanner -->
<g id="node3" class="node">
<title>Valadoc.Scanner</title>
<g id="a_node3"><a xlink:href="Valadoc.Scanner.html" xlink:title="Valadoc.Scanner">
<polygon fill="none" stroke="black" points="211.5,-108 103.5,-108 103.5,-72 211.5,-72 211.5,-108"/>
<text text-anchor="middle" x="157.5" y="-86.3" font-family="Times" font-size="14.00">Valadoc.Scanner</text>
</a>
</g>
</g>
<!-- Valadoc.Scanner&#45;&gt;Valadoc.WikiScanner -->
<g id="edge2" class="edge">
<title>Valadoc.Scanner&#45;&gt;Valadoc.WikiScanner</title>
<path fill="none" stroke="black" d="M136.72,-63.92C129.08,-54.69 120.6,-44.47 113.67,-36.1"/>
<polygon fill="black" stroke="black" points="134.09,-66.23 143.16,-71.7 139.48,-61.76 134.09,-66.23"/>
</g>
</g>
</svg>
