<?xml version="1.0" encoding="UTF-8" standalone="no"?>
<!DOCTYPE svg PUBLIC "-//W3C//DTD SVG 1.1//EN"
 "http://www.w3.org/Graphics/SVG/1.1/DTD/svg11.dtd">
<!-- Generated by graphviz version 2.40.1 (20161225.0304)
 -->
<!-- Title: Valadoc.DocumentationParser Pages: 1 -->
<svg width="268pt" height="116pt"
 viewBox="0.00 0.00 267.50 116.00" xmlns="http://www.w3.org/2000/svg" xmlns:xlink="http://www.w3.org/1999/xlink">
<g id="graph0" class="graph" transform="scale(1 1) rotate(0) translate(4 112)">
<title>Valadoc.DocumentationParser</title>
<polygon fill="#ffffff" stroke="transparent" points="-4,4 -4,-112 263.5,-112 263.5,4 -4,4"/>
<!-- Valadoc.DocumentationParser -->
<g id="node1" class="node">
<title>Valadoc.DocumentationParser</title>
<g id="a_node1"><a xlink:href="Valadoc.DocumentationParser.html" xlink:title="Valadoc.DocumentationParser">
<polygon fill="none" stroke="#000000" stroke-width="2" points="202.5,-36 20.5,-36 20.5,0 202.5,0 202.5,-36"/>
<text text-anchor="middle" x="111.5" y="-14.3" font-family="Times" font-size="14.00" fill="#000000">Valadoc.DocumentationParser</text>
</a>
</g>
</g>
<!-- GLib.Object -->
<g id="node2" class="node">
<title>GLib.Object</title>
<polygon fill="none" stroke="#000000" stroke-width="2" points="85,-108 0,-108 0,-72 85,-72 85,-108"/>
<text text-anchor="middle" x="42.5" y="-86.3" font-family="Times" font-size="14.00" fill="#000000">GLib.Object</text>
</g>
<!-- GLib.Object&#45;&gt;Valadoc.DocumentationParser -->
<g id="edge1" class="edge">
<title>GLib.Object&#45;&gt;Valadoc.DocumentationParser</title>
<path fill="none" stroke="#000000" d="M67.0625,-64.3696C75.9107,-55.1366 85.7124,-44.9088 93.854,-36.4133"/>
<polygon fill="#000000" stroke="#000000" points="64.3037,-62.1898 59.9116,-71.8314 69.3577,-67.0331 64.3037,-62.1898"/>
</g>
<!-- Valadoc.ResourceLocator -->
<g id="node3" class="node">
<title>Valadoc.ResourceLocator</title>
<g id="a_node3"><a xlink:href="Valadoc.ResourceLocator.html" xlink:title="Valadoc.ResourceLocator">
<polygon fill="none" stroke="#000000" points="259.5,-108 103.5,-108 103.5,-72 259.5,-72 259.5,-108"/>
<text text-anchor="middle" x="181.5" y="-86.3" font-family="Times" font-size="14.00" fill="#000000">Valadoc.ResourceLocator</text>
</a>
</g>
</g>
<!-- Valadoc.ResourceLocator&#45;&gt;Valadoc.DocumentationParser -->
<g id="edge2" class="edge">
<title>Valadoc.ResourceLocator&#45;&gt;Valadoc.DocumentationParser</title>
<path fill="none" stroke="#000000" d="M156.8505,-64.6463C147.8041,-55.3414 137.744,-44.9938 129.4018,-36.4133"/>
<polygon fill="#000000" stroke="#000000" points="154.3557,-67.1012 163.836,-71.8314 159.3747,-62.2216 154.3557,-67.1012"/>
</g>
</g>
</svg>
