<?xml version="1.0" encoding="UTF-8" standalone="no"?>
<!DOCTYPE svg PUBLIC "-//W3C//DTD SVG 1.1//EN"
 "http://www.w3.org/Graphics/SVG/1.1/DTD/svg11.dtd">
<!-- Generated by graphviz version 2.40.1 (0)
 -->
<!-- Title: Valadoc.Content.InlineTaglet Pages: 1 -->
<svg width="533pt" height="188pt"
 viewBox="0.00 0.00 532.50 188.00" xmlns="http://www.w3.org/2000/svg" xmlns:xlink="http://www.w3.org/1999/xlink">
<g id="graph0" class="graph" transform="scale(1 1) rotate(0) translate(4 184)">
<title>Valadoc.Content.InlineTaglet</title>
<polygon fill="#ffffff" stroke="transparent" points="-4,4 -4,-184 528.5,-184 528.5,4 -4,4"/>
<!-- Valadoc.Content.InlineTaglet -->
<g id="node1" class="node">
<title>Valadoc.Content.InlineTaglet</title>
<g id="a_node1"><a xlink:href="Valadoc.Content.InlineTaglet.html" xlink:title="Valadoc.Content.InlineTaglet">
<polygon fill="none" stroke="#000000" stroke-width="2" points="379,-36 203,-36 203,0 379,0 379,-36"/>
<text text-anchor="middle" x="291" y="-14.3" font-family="Times" font-size="14.00" fill="#000000">Valadoc.Content.InlineTaglet</text>
</a>
</g>
</g>
<!-- Valadoc.Content.ContentElement -->
<g id="node2" class="node">
<title>Valadoc.Content.ContentElement</title>
<g id="a_node2"><a xlink:href="Valadoc.Content.ContentElement.html" xlink:title="Valadoc.Content.ContentElement">
<polygon fill="none" stroke="#000000" stroke-width="2" points="200,-108 0,-108 0,-72 200,-72 200,-108"/>
<text text-anchor="middle" x="100" y="-86.3" font-family="Times" font-size="14.00" fill="#000000">Valadoc.Content.ContentElement</text>
</a>
</g>
</g>
<!-- Valadoc.Content.ContentElement&#45;&gt;Valadoc.Content.InlineTaglet -->
<g id="edge1" class="edge">
<title>Valadoc.Content.ContentElement&#45;&gt;Valadoc.Content.InlineTaglet</title>
<path fill="none" stroke="#000000" d="M157.6362,-68.2733C184.9548,-57.9752 217.2059,-45.8177 243.1492,-36.038"/>
<polygon fill="#000000" stroke="#000000" points="156.32,-65.0289 148.1974,-71.8314 158.7892,-71.579 156.32,-65.0289"/>
</g>
<!-- GLib.Object -->
<g id="node3" class="node">
<title>GLib.Object</title>
<g id="a_node3"><a xlink:href="../gobject-2.0/GLib.Object.html" xlink:title="GLib.Object">
<polygon fill="none" stroke="#000000" stroke-width="2" points="142.5,-180 57.5,-180 57.5,-144 142.5,-144 142.5,-180"/>
<text text-anchor="middle" x="100" y="-158.3" font-family="Times" font-size="14.00" fill="#000000">GLib.Object</text>
</a>
</g>
</g>
<!-- GLib.Object&#45;&gt;Valadoc.Content.ContentElement -->
<g id="edge2" class="edge">
<title>GLib.Object&#45;&gt;Valadoc.Content.ContentElement</title>
<path fill="none" stroke="#000000" d="M100,-133.5726C100,-125.1084 100,-116.0593 100,-108.4133"/>
<polygon fill="#000000" stroke="#000000" points="96.5001,-133.8313 100,-143.8314 103.5001,-133.8314 96.5001,-133.8313"/>
</g>
<!-- Valadoc.Content.Taglet -->
<g id="node4" class="node">
<title>Valadoc.Content.Taglet</title>
<g id="a_node4"><a xlink:href="Valadoc.Content.Taglet.html" xlink:title="Valadoc.Content.Taglet">
<polygon fill="none" stroke="#000000" points="363.5,-108 218.5,-108 218.5,-72 363.5,-72 363.5,-108"/>
<text text-anchor="middle" x="291" y="-86.3" font-family="Times" font-size="14.00" fill="#000000">Valadoc.Content.Taglet</text>
</a>
</g>
</g>
<!-- Valadoc.Content.Taglet&#45;&gt;Valadoc.Content.InlineTaglet -->
<g id="edge3" class="edge">
<title>Valadoc.Content.Taglet&#45;&gt;Valadoc.Content.InlineTaglet</title>
<path fill="none" stroke="#000000" d="M291,-61.5726C291,-53.1084 291,-44.0593 291,-36.4133"/>
<polygon fill="#000000" stroke="#000000" points="287.5001,-61.8313 291,-71.8314 294.5001,-61.8314 287.5001,-61.8313"/>
</g>
<!-- Valadoc.Content.Inline -->
<g id="node5" class="node">
<title>Valadoc.Content.Inline</title>
<g id="a_node5"><a xlink:href="Valadoc.Content.Inline.html" xlink:title="Valadoc.Content.Inline">
<polygon fill="none" stroke="#000000" points="524.5,-108 381.5,-108 381.5,-72 524.5,-72 524.5,-108"/>
<text text-anchor="middle" x="453" y="-86.3" font-family="Times" font-size="14.00" fill="#000000">Valadoc.Content.Inline</text>
</a>
</g>
</g>
<!-- Valadoc.Content.Inline&#45;&gt;Valadoc.Content.InlineTaglet -->
<g id="edge4" class="edge">
<title>Valadoc.Content.Inline&#45;&gt;Valadoc.Content.InlineTaglet</title>
<path fill="none" stroke="#000000" d="M402.8969,-67.732C379.9901,-57.5512 353.2054,-45.6469 331.5855,-36.038"/>
<polygon fill="#000000" stroke="#000000" points="401.5609,-70.9683 412.1206,-71.8314 404.4039,-64.5716 401.5609,-70.9683"/>
</g>
</g>
</svg>
