<?xml version="1.0" encoding="UTF-8" standalone="no"?>
<!DOCTYPE svg PUBLIC "-//W3C//DTD SVG 1.1//EN"
 "http://www.w3.org/Graphics/SVG/1.1/DTD/svg11.dtd">
<!-- Generated by graphviz version 2.40.1 (20161225.0304)
 -->
<!-- Title: Valadoc.Html.BasicDoclet Pages: 1 -->
<svg width="250pt" height="188pt"
 viewBox="0.00 0.00 250.00 188.00" xmlns="http://www.w3.org/2000/svg" xmlns:xlink="http://www.w3.org/1999/xlink">
<g id="graph0" class="graph" transform="scale(1 1) rotate(0) translate(4 184)">
<title>Valadoc.Html.BasicDoclet</title>
<polygon fill="#ffffff" stroke="transparent" points="-4,4 -4,-184 246,-184 246,4 -4,4"/>
<!-- Valadoc.Html.BasicDoclet -->
<g id="node1" class="node">
<title>Valadoc.Html.BasicDoclet</title>
<g id="a_node1"><a xlink:href="Valadoc.Html.BasicDoclet.html" xlink:title="Valadoc.Html.BasicDoclet">
<polygon fill="none" stroke="#000000" stroke-width="2" points="208,-36 47,-36 47,0 208,0 208,-36"/>
<text text-anchor="middle" x="127.5" y="-14.3" font-family="Times" font-size="14.00" fill="#000000">Valadoc.Html.BasicDoclet</text>
</a>
</g>
</g>
<!-- Valadoc.Api.Visitor -->
<g id="node2" class="node">
<title>Valadoc.Api.Visitor</title>
<g id="a_node2"><a xlink:href="Valadoc.Api.Visitor.html" xlink:title="Valadoc.Api.Visitor">
<polygon fill="none" stroke="#000000" stroke-width="2" points="125,-108 0,-108 0,-72 125,-72 125,-108"/>
<text text-anchor="middle" x="62.5" y="-86.3" font-family="Times" font-size="14.00" fill="#000000">Valadoc.Api.Visitor</text>
</a>
</g>
</g>
<!-- Valadoc.Api.Visitor&#45;&gt;Valadoc.Html.BasicDoclet -->
<g id="edge1" class="edge">
<title>Valadoc.Api.Visitor&#45;&gt;Valadoc.Html.BasicDoclet</title>
<path fill="none" stroke="#000000" d="M85.6386,-64.3696C93.9739,-55.1366 103.2073,-44.9088 110.8769,-36.4133"/>
<polygon fill="#000000" stroke="#000000" points="83.0054,-62.0633 78.9022,-71.8314 88.2013,-66.754 83.0054,-62.0633"/>
</g>
<!-- GLib.Object -->
<g id="node3" class="node">
<title>GLib.Object</title>
<polygon fill="none" stroke="#000000" stroke-width="2" points="105,-180 20,-180 20,-144 105,-144 105,-180"/>
<text text-anchor="middle" x="62.5" y="-158.3" font-family="Times" font-size="14.00" fill="#000000">GLib.Object</text>
</g>
<!-- GLib.Object&#45;&gt;Valadoc.Api.Visitor -->
<g id="edge2" class="edge">
<title>GLib.Object&#45;&gt;Valadoc.Api.Visitor</title>
<path fill="none" stroke="#000000" d="M62.5,-133.5726C62.5,-125.1084 62.5,-116.0593 62.5,-108.4133"/>
<polygon fill="#000000" stroke="#000000" points="59.0001,-133.8313 62.5,-143.8314 66.0001,-133.8314 59.0001,-133.8313"/>
</g>
<!-- Valadoc.Doclet -->
<g id="node4" class="node">
<title>Valadoc.Doclet</title>
<g id="a_node4"><a xlink:href="Valadoc.Doclet.html" xlink:title="Valadoc.Doclet">
<polygon fill="none" stroke="#000000" points="242,-108 143,-108 143,-72 242,-72 242,-108"/>
<text text-anchor="middle" x="192.5" y="-86.3" font-family="Times" font-size="14.00" fill="#000000">Valadoc.Doclet</text>
</a>
</g>
</g>
<!-- Valadoc.Doclet&#45;&gt;Valadoc.Html.BasicDoclet -->
<g id="edge3" class="edge">
<title>Valadoc.Doclet&#45;&gt;Valadoc.Html.BasicDoclet</title>
<path fill="none" stroke="#000000" d="M169.3614,-64.3696C161.0261,-55.1366 151.7927,-44.9088 144.1231,-36.4133"/>
<polygon fill="#000000" stroke="#000000" points="166.7987,-66.754 176.0978,-71.8314 171.9946,-62.0633 166.7987,-66.754"/>
</g>
</g>
</svg>
