<?xml version="1.0" encoding="UTF-8" standalone="no"?>
<!DOCTYPE svg PUBLIC "-//W3C//DTD SVG 1.1//EN"
 "http://www.w3.org/Graphics/SVG/1.1/DTD/svg11.dtd">
<!-- Generated by graphviz version 2.40.1 (20161225.0304)
 -->
<!-- Title: Valadoc.Importer.GirDocumentationImporter Pages: 1 -->
<svg width="289pt" height="188pt"
 viewBox="0.00 0.00 288.50 188.00" xmlns="http://www.w3.org/2000/svg" xmlns:xlink="http://www.w3.org/1999/xlink">
<g id="graph0" class="graph" transform="scale(1 1) rotate(0) translate(4 184)">
<title>Valadoc.Importer.GirDocumentationImporter</title>
<polygon fill="#ffffff" stroke="transparent" points="-4,4 -4,-184 284.5,-184 284.5,4 -4,4"/>
<!-- Valadoc.Importer.GirDocumentationImporter -->
<g id="node1" class="node">
<title>Valadoc.Importer.GirDocumentationImporter</title>
<g id="a_node1"><a xlink:href="Valadoc.Importer.GirDocumentationImporter.html" xlink:title="Valadoc.Importer.GirDocumentationImporter">
<polygon fill="none" stroke="#000000" stroke-width="2" points="265,-36 0,-36 0,0 265,0 265,-36"/>
<text text-anchor="middle" x="132.5" y="-14.3" font-family="Times" font-size="14.00" fill="#000000">Valadoc.Importer.GirDocumentationImporter</text>
</a>
</g>
</g>
<!-- Valadoc.Importer.DocumentationImporter -->
<g id="node2" class="node">
<title>Valadoc.Importer.DocumentationImporter</title>
<g id="a_node2"><a xlink:href="Valadoc.Importer.DocumentationImporter.html" xlink:title="Valadoc.Importer.DocumentationImporter">
<polygon fill="none" stroke="#000000" stroke-width="2" points="256,-108 9,-108 9,-72 256,-72 256,-108"/>
<text text-anchor="middle" x="132.5" y="-86.3" font-family="Times" font-size="14.00" fill="#000000">Valadoc.Importer.DocumentationImporter</text>
</a>
</g>
</g>
<!-- Valadoc.Importer.DocumentationImporter&#45;&gt;Valadoc.Importer.GirDocumentationImporter -->
<g id="edge1" class="edge">
<title>Valadoc.Importer.DocumentationImporter&#45;&gt;Valadoc.Importer.GirDocumentationImporter</title>
<path fill="none" stroke="#000000" d="M132.5,-61.5726C132.5,-53.1084 132.5,-44.0593 132.5,-36.4133"/>
<polygon fill="#000000" stroke="#000000" points="129.0001,-61.8313 132.5,-71.8314 136.0001,-61.8314 129.0001,-61.8313"/>
</g>
<!-- GLib.Object -->
<g id="node3" class="node">
<title>GLib.Object</title>
<polygon fill="none" stroke="#000000" stroke-width="2" points="106,-180 21,-180 21,-144 106,-144 106,-180"/>
<text text-anchor="middle" x="63.5" y="-158.3" font-family="Times" font-size="14.00" fill="#000000">GLib.Object</text>
</g>
<!-- GLib.Object&#45;&gt;Valadoc.Importer.DocumentationImporter -->
<g id="edge2" class="edge">
<title>GLib.Object&#45;&gt;Valadoc.Importer.DocumentationImporter</title>
<path fill="none" stroke="#000000" d="M88.0625,-136.3696C96.9107,-127.1366 106.7124,-116.9088 114.854,-108.4133"/>
<polygon fill="#000000" stroke="#000000" points="85.3037,-134.1898 80.9116,-143.8314 90.3577,-139.0331 85.3037,-134.1898"/>
</g>
<!-- Valadoc.ResourceLocator -->
<g id="node4" class="node">
<title>Valadoc.ResourceLocator</title>
<g id="a_node4"><a xlink:href="Valadoc.ResourceLocator.html" xlink:title="Valadoc.ResourceLocator">
<polygon fill="none" stroke="#000000" points="280.5,-180 124.5,-180 124.5,-144 280.5,-144 280.5,-180"/>
<text text-anchor="middle" x="202.5" y="-158.3" font-family="Times" font-size="14.00" fill="#000000">Valadoc.ResourceLocator</text>
</a>
</g>
</g>
<!-- Valadoc.ResourceLocator&#45;&gt;Valadoc.Importer.DocumentationImporter -->
<g id="edge3" class="edge">
<title>Valadoc.ResourceLocator&#45;&gt;Valadoc.Importer.DocumentationImporter</title>
<path fill="none" stroke="#000000" d="M177.8505,-136.6463C168.8041,-127.3414 158.744,-116.9938 150.4018,-108.4133"/>
<polygon fill="#000000" stroke="#000000" points="175.3557,-139.1012 184.836,-143.8314 180.3747,-134.2216 175.3557,-139.1012"/>
</g>
</g>
</svg>
