<?xml version="1.0" encoding="UTF-8" standalone="no"?>
<!DOCTYPE svg PUBLIC "-//W3C//DTD SVG 1.1//EN"
 "http://www.w3.org/Graphics/SVG/1.1/DTD/svg11.dtd">
<!-- Generated by graphviz version 2.42.3 (0)
 -->
<!-- Title: Valadoc.Api.Attribute Pages: 1 -->
<svg width="146pt" height="188pt"
 viewBox="0.00 0.00 146.00 188.00" xmlns="http://www.w3.org/2000/svg" xmlns:xlink="http://www.w3.org/1999/xlink">
<g id="graph0" class="graph" transform="scale(1 1) rotate(0) translate(4 184)">
<title>Valadoc.Api.Attribute</title>
<polygon fill="white" stroke="transparent" points="-4,4 -4,-184 142,-184 142,4 -4,4"/>
<!-- Valadoc.Api.Attribute -->
<g id="node1" class="node">
<title>Valadoc.Api.Attribute</title>
<g id="a_node1"><a xlink:href="Valadoc.Api.Attribute.html" xlink:title="Valadoc.Api.Attribute">
<polygon fill="none" stroke="black" stroke-width="2" points="138,-36 0,-36 0,0 138,0 138,-36"/>
<text text-anchor="middle" x="69" y="-14.3" font-family="Times" font-size="14.00">Valadoc.Api.Attribute</text>
</a>
</g>
</g>
<!-- Valadoc.Api.Item -->
<g id="node2" class="node">
<title>Valadoc.Api.Item</title>
<g id="a_node2"><a xlink:href="Valadoc.Api.Item.html" xlink:title="Valadoc.Api.Item">
<polygon fill="none" stroke="black" stroke-width="2" points="126,-108 12,-108 12,-72 126,-72 126,-108"/>
<text text-anchor="middle" x="69" y="-86.3" font-family="Times" font-size="14.00">Valadoc.Api.Item</text>
</a>
</g>
</g>
<!-- Valadoc.Api.Item&#45;&gt;Valadoc.Api.Attribute -->
<g id="edge1" class="edge">
<title>Valadoc.Api.Item&#45;&gt;Valadoc.Api.Attribute</title>
<path fill="none" stroke="black" d="M69,-61.67C69,-53.05 69,-43.79 69,-36.1"/>
<polygon fill="black" stroke="black" points="65.5,-61.7 69,-71.7 72.5,-61.7 65.5,-61.7"/>
</g>
<!-- GLib.Object -->
<g id="node3" class="node">
<title>GLib.Object</title>
<g id="a_node3"><a xlink:href="../gobject-2.0/GLib.Object.html" xlink:title="GLib.Object">
<polygon fill="none" stroke="black" stroke-width="2" points="111.5,-180 26.5,-180 26.5,-144 111.5,-144 111.5,-180"/>
<text text-anchor="middle" x="69" y="-158.3" font-family="Times" font-size="14.00">GLib.Object</text>
</a>
</g>
</g>
<!-- GLib.Object&#45;&gt;Valadoc.Api.Item -->
<g id="edge2" class="edge">
<title>GLib.Object&#45;&gt;Valadoc.Api.Item</title>
<path fill="none" stroke="black" d="M69,-133.67C69,-125.05 69,-115.79 69,-108.1"/>
<polygon fill="black" stroke="black" points="65.5,-133.7 69,-143.7 72.5,-133.7 65.5,-133.7"/>
</g>
</g>
</svg>
