<?xml version="1.0" encoding="UTF-8" standalone="no"?>
<!DOCTYPE svg PUBLIC "-//W3C//DTD SVG 1.1//EN"
 "http://www.w3.org/Graphics/SVG/1.1/DTD/svg11.dtd">
<!-- Generated by graphviz version 2.40.1 (0)
 -->
<!-- Title: Valadoc.CTypeResolver Pages: 1 -->
<svg width="156pt" height="188pt"
 viewBox="0.00 0.00 156.00 188.00" xmlns="http://www.w3.org/2000/svg" xmlns:xlink="http://www.w3.org/1999/xlink">
<g id="graph0" class="graph" transform="scale(1 1) rotate(0) translate(4 184)">
<title>Valadoc.CTypeResolver</title>
<polygon fill="#ffffff" stroke="transparent" points="-4,4 -4,-184 152,-184 152,4 -4,4"/>
<!-- Valadoc.CTypeResolver -->
<g id="node1" class="node">
<title>Valadoc.CTypeResolver</title>
<g id="a_node1"><a xlink:href="Valadoc.CTypeResolver.html" xlink:title="Valadoc.CTypeResolver">
<polygon fill="none" stroke="#000000" stroke-width="2" points="148,-36 0,-36 0,0 148,0 148,-36"/>
<text text-anchor="middle" x="74" y="-14.3" font-family="Times" font-size="14.00" fill="#000000">Valadoc.CTypeResolver</text>
</a>
</g>
</g>
<!-- Valadoc.Api.Visitor -->
<g id="node2" class="node">
<title>Valadoc.Api.Visitor</title>
<g id="a_node2"><a xlink:href="Valadoc.Api.Visitor.html" xlink:title="Valadoc.Api.Visitor">
<polygon fill="none" stroke="#000000" stroke-width="2" points="137,-108 11,-108 11,-72 137,-72 137,-108"/>
<text text-anchor="middle" x="74" y="-86.3" font-family="Times" font-size="14.00" fill="#000000">Valadoc.Api.Visitor</text>
</a>
</g>
</g>
<!-- Valadoc.Api.Visitor&#45;&gt;Valadoc.CTypeResolver -->
<g id="edge1" class="edge">
<title>Valadoc.Api.Visitor&#45;&gt;Valadoc.CTypeResolver</title>
<path fill="none" stroke="#000000" d="M74,-61.5726C74,-53.1084 74,-44.0593 74,-36.4133"/>
<polygon fill="#000000" stroke="#000000" points="70.5001,-61.8313 74,-71.8314 77.5001,-61.8314 70.5001,-61.8313"/>
</g>
<!-- GLib.Object -->
<g id="node3" class="node">
<title>GLib.Object</title>
<g id="a_node3"><a xlink:href="../gobject-2.0/GLib.Object.html" xlink:title="GLib.Object">
<polygon fill="none" stroke="#000000" stroke-width="2" points="116.5,-180 31.5,-180 31.5,-144 116.5,-144 116.5,-180"/>
<text text-anchor="middle" x="74" y="-158.3" font-family="Times" font-size="14.00" fill="#000000">GLib.Object</text>
</a>
</g>
</g>
<!-- GLib.Object&#45;&gt;Valadoc.Api.Visitor -->
<g id="edge2" class="edge">
<title>GLib.Object&#45;&gt;Valadoc.Api.Visitor</title>
<path fill="none" stroke="#000000" d="M74,-133.5726C74,-125.1084 74,-116.0593 74,-108.4133"/>
<polygon fill="#000000" stroke="#000000" points="70.5001,-133.8313 74,-143.8314 77.5001,-133.8314 70.5001,-133.8313"/>
</g>
</g>
</svg>
