<?xml version="1.0" encoding="UTF-8" standalone="no"?>
<!DOCTYPE svg PUBLIC "-//W3C//DTD SVG 1.1//EN"
 "http://www.w3.org/Graphics/SVG/1.1/DTD/svg11.dtd">
<!-- Generated by graphviz version 2.42.3 (0)
 -->
<!-- Title: Valadoc.Content.TableCell Pages: 1 -->
<svg width="412pt" height="260pt"
 viewBox="0.00 0.00 412.00 260.00" xmlns="http://www.w3.org/2000/svg" xmlns:xlink="http://www.w3.org/1999/xlink">
<g id="graph0" class="graph" transform="scale(1 1) rotate(0) translate(4 256)">
<title>Valadoc.Content.TableCell</title>
<polygon fill="white" stroke="transparent" points="-4,4 -4,-256 408,-256 408,4 -4,4"/>
<!-- Valadoc.Content.TableCell -->
<g id="node1" class="node">
<title>Valadoc.Content.TableCell</title>
<g id="a_node1"><a xlink:href="Valadoc.Content.TableCell.html" xlink:title="Valadoc.Content.TableCell">
<polygon fill="none" stroke="black" stroke-width="2" points="285,-36 121,-36 121,0 285,0 285,-36"/>
<text text-anchor="middle" x="203" y="-14.3" font-family="Times" font-size="14.00">Valadoc.Content.TableCell</text>
</a>
</g>
</g>
<!-- Valadoc.Content.InlineContent -->
<g id="node2" class="node">
<title>Valadoc.Content.InlineContent</title>
<g id="a_node2"><a xlink:href="Valadoc.Content.InlineContent.html" xlink:title="Valadoc.Content.InlineContent">
<polygon fill="none" stroke="black" stroke-width="2" points="192.5,-108 7.5,-108 7.5,-72 192.5,-72 192.5,-108"/>
<text text-anchor="middle" x="100" y="-86.3" font-family="Times" font-size="14.00">Valadoc.Content.InlineContent</text>
</a>
</g>
</g>
<!-- Valadoc.Content.InlineContent&#45;&gt;Valadoc.Content.TableCell -->
<g id="edge1" class="edge">
<title>Valadoc.Content.InlineContent&#45;&gt;Valadoc.Content.TableCell</title>
<path fill="none" stroke="black" d="M133.79,-66.04C148.09,-56.32 164.47,-45.18 177.71,-36.19"/>
<polygon fill="black" stroke="black" points="131.5,-63.36 125.2,-71.88 135.43,-69.15 131.5,-63.36"/>
</g>
<!-- Valadoc.Content.ContentElement -->
<g id="node3" class="node">
<title>Valadoc.Content.ContentElement</title>
<g id="a_node3"><a xlink:href="Valadoc.Content.ContentElement.html" xlink:title="Valadoc.Content.ContentElement">
<polygon fill="none" stroke="black" stroke-width="2" points="200,-180 0,-180 0,-144 200,-144 200,-180"/>
<text text-anchor="middle" x="100" y="-158.3" font-family="Times" font-size="14.00">Valadoc.Content.ContentElement</text>
</a>
</g>
</g>
<!-- Valadoc.Content.ContentElement&#45;&gt;Valadoc.Content.InlineContent -->
<g id="edge2" class="edge">
<title>Valadoc.Content.ContentElement&#45;&gt;Valadoc.Content.InlineContent</title>
<path fill="none" stroke="black" d="M100,-133.67C100,-125.05 100,-115.79 100,-108.1"/>
<polygon fill="black" stroke="black" points="96.5,-133.7 100,-143.7 103.5,-133.7 96.5,-133.7"/>
</g>
<!-- GLib.Object -->
<g id="node4" class="node">
<title>GLib.Object</title>
<g id="a_node4"><a xlink:href="../gobject-2.0/GLib.Object.html" xlink:title="GLib.Object">
<polygon fill="none" stroke="black" stroke-width="2" points="142.5,-252 57.5,-252 57.5,-216 142.5,-216 142.5,-252"/>
<text text-anchor="middle" x="100" y="-230.3" font-family="Times" font-size="14.00">GLib.Object</text>
</a>
</g>
</g>
<!-- GLib.Object&#45;&gt;Valadoc.Content.ContentElement -->
<g id="edge3" class="edge">
<title>GLib.Object&#45;&gt;Valadoc.Content.ContentElement</title>
<path fill="none" stroke="black" d="M100,-205.67C100,-197.05 100,-187.79 100,-180.1"/>
<polygon fill="black" stroke="black" points="96.5,-205.7 100,-215.7 103.5,-205.7 96.5,-205.7"/>
</g>
<!-- Valadoc.Content.StyleAttributes -->
<g id="node5" class="node">
<title>Valadoc.Content.StyleAttributes</title>
<g id="a_node5"><a xlink:href="Valadoc.Content.StyleAttributes.html" xlink:title="Valadoc.Content.StyleAttributes">
<polygon fill="none" stroke="black" points="404,-108 210,-108 210,-72 404,-72 404,-108"/>
<text text-anchor="middle" x="307" y="-86.3" font-family="Times" font-size="14.00">Valadoc.Content.StyleAttributes</text>
</a>
</g>
</g>
<!-- Valadoc.Content.StyleAttributes&#45;&gt;Valadoc.Content.TableCell -->
<g id="edge4" class="edge">
<title>Valadoc.Content.StyleAttributes&#45;&gt;Valadoc.Content.TableCell</title>
<path fill="none" stroke="black" d="M272.88,-66.04C258.44,-56.32 241.9,-45.18 228.54,-36.19"/>
<polygon fill="black" stroke="black" points="271.31,-69.2 281.56,-71.88 275.22,-63.39 271.31,-69.2"/>
</g>
</g>
</svg>
