<?xml version="1.0" encoding="UTF-8" standalone="no"?>
<!DOCTYPE svg PUBLIC "-//W3C//DTD SVG 1.1//EN"
 "http://www.w3.org/Graphics/SVG/1.1/DTD/svg11.dtd">
<!-- Generated by graphviz version 2.40.1 (0)
 -->
<!-- Title: Valadoc.Content.TableRow Pages: 1 -->
<svg width="208pt" height="188pt"
 viewBox="0.00 0.00 208.00 188.00" xmlns="http://www.w3.org/2000/svg" xmlns:xlink="http://www.w3.org/1999/xlink">
<g id="graph0" class="graph" transform="scale(1 1) rotate(0) translate(4 184)">
<title>Valadoc.Content.TableRow</title>
<polygon fill="#ffffff" stroke="transparent" points="-4,4 -4,-184 204,-184 204,4 -4,4"/>
<!-- Valadoc.Content.TableRow -->
<g id="node1" class="node">
<title>Valadoc.Content.TableRow</title>
<g id="a_node1"><a xlink:href="Valadoc.Content.TableRow.html" xlink:title="Valadoc.Content.TableRow">
<polygon fill="none" stroke="#000000" stroke-width="2" points="183.5,-36 16.5,-36 16.5,0 183.5,0 183.5,-36"/>
<text text-anchor="middle" x="100" y="-14.3" font-family="Times" font-size="14.00" fill="#000000">Valadoc.Content.TableRow</text>
</a>
</g>
</g>
<!-- Valadoc.Content.ContentElement -->
<g id="node2" class="node">
<title>Valadoc.Content.ContentElement</title>
<g id="a_node2"><a xlink:href="Valadoc.Content.ContentElement.html" xlink:title="Valadoc.Content.ContentElement">
<polygon fill="none" stroke="#000000" stroke-width="2" points="200,-108 0,-108 0,-72 200,-72 200,-108"/>
<text text-anchor="middle" x="100" y="-86.3" font-family="Times" font-size="14.00" fill="#000000">Valadoc.Content.ContentElement</text>
</a>
</g>
</g>
<!-- Valadoc.Content.ContentElement&#45;&gt;Valadoc.Content.TableRow -->
<g id="edge1" class="edge">
<title>Valadoc.Content.ContentElement&#45;&gt;Valadoc.Content.TableRow</title>
<path fill="none" stroke="#000000" d="M100,-61.5726C100,-53.1084 100,-44.0593 100,-36.4133"/>
<polygon fill="#000000" stroke="#000000" points="96.5001,-61.8313 100,-71.8314 103.5001,-61.8314 96.5001,-61.8313"/>
</g>
<!-- GLib.Object -->
<g id="node3" class="node">
<title>GLib.Object</title>
<g id="a_node3"><a xlink:href="../gobject-2.0/GLib.Object.html" xlink:title="GLib.Object">
<polygon fill="none" stroke="#000000" stroke-width="2" points="142.5,-180 57.5,-180 57.5,-144 142.5,-144 142.5,-180"/>
<text text-anchor="middle" x="100" y="-158.3" font-family="Times" font-size="14.00" fill="#000000">GLib.Object</text>
</a>
</g>
</g>
<!-- GLib.Object&#45;&gt;Valadoc.Content.ContentElement -->
<g id="edge2" class="edge">
<title>GLib.Object&#45;&gt;Valadoc.Content.ContentElement</title>
<path fill="none" stroke="#000000" d="M100,-133.5726C100,-125.1084 100,-116.0593 100,-108.4133"/>
<polygon fill="#000000" stroke="#000000" points="96.5001,-133.8313 100,-143.8314 103.5001,-133.8314 96.5001,-133.8313"/>
</g>
</g>
</svg>
