<?xml version="1.0" encoding="UTF-8" standalone="no"?>
<!DOCTYPE svg PUBLIC "-//W3C//DTD SVG 1.1//EN"
 "http://www.w3.org/Graphics/SVG/1.1/DTD/svg11.dtd">
<!-- Generated by graphviz version 2.40.1 (20161225.0304)
 -->
<!-- Title: Valadoc.Api.Node Pages: 1 -->
<svg width="450pt" height="188pt"
 viewBox="0.00 0.00 449.50 188.00" xmlns="http://www.w3.org/2000/svg" xmlns:xlink="http://www.w3.org/1999/xlink">
<g id="graph0" class="graph" transform="scale(1 1) rotate(0) translate(4 184)">
<title>Valadoc.Api.Node</title>
<polygon fill="#ffffff" stroke="transparent" points="-4,4 -4,-184 445.5,-184 445.5,4 -4,4"/>
<!-- Valadoc.Api.Node -->
<g id="node1" class="node">
<title>Valadoc.Api.Node</title>
<g id="a_node1"><a xlink:href="Valadoc.Api.Node.html" xlink:title="Valadoc.Api.Node">
<polygon fill="none" stroke="#000000" stroke-width="2" points="262,-36 145,-36 145,0 262,0 262,-36"/>
<text text-anchor="middle" x="203.5" y="-14.3" font-family="Times" font-size="14.00" fill="#000000">Valadoc.Api.Node</text>
</a>
</g>
</g>
<!-- Valadoc.Api.Item -->
<g id="node2" class="node">
<title>Valadoc.Api.Item</title>
<g id="a_node2"><a xlink:href="Valadoc.Api.Item.html" xlink:title="Valadoc.Api.Item">
<polygon fill="none" stroke="#000000" stroke-width="2" points="113,-108 0,-108 0,-72 113,-72 113,-108"/>
<text text-anchor="middle" x="56.5" y="-86.3" font-family="Times" font-size="14.00" fill="#000000">Valadoc.Api.Item</text>
</a>
</g>
</g>
<!-- Valadoc.Api.Item&#45;&gt;Valadoc.Api.Node -->
<g id="edge1" class="edge">
<title>Valadoc.Api.Item&#45;&gt;Valadoc.Api.Node</title>
<path fill="none" stroke="#000000" d="M102.7972,-67.3238C123.397,-57.2341 147.3159,-45.5187 166.6724,-36.038"/>
<polygon fill="#000000" stroke="#000000" points="101.0354,-64.2894 93.5943,-71.8314 104.1145,-70.5759 101.0354,-64.2894"/>
</g>
<!-- GLib.Object -->
<g id="node3" class="node">
<title>GLib.Object</title>
<polygon fill="none" stroke="#000000" stroke-width="2" points="99,-180 14,-180 14,-144 99,-144 99,-180"/>
<text text-anchor="middle" x="56.5" y="-158.3" font-family="Times" font-size="14.00" fill="#000000">GLib.Object</text>
</g>
<!-- GLib.Object&#45;&gt;Valadoc.Api.Item -->
<g id="edge2" class="edge">
<title>GLib.Object&#45;&gt;Valadoc.Api.Item</title>
<path fill="none" stroke="#000000" d="M56.5,-133.5726C56.5,-125.1084 56.5,-116.0593 56.5,-108.4133"/>
<polygon fill="#000000" stroke="#000000" points="53.0001,-133.8313 56.5,-143.8314 60.0001,-133.8314 53.0001,-133.8313"/>
</g>
<!-- Valadoc.Api.Browsable -->
<g id="node4" class="node">
<title>Valadoc.Api.Browsable</title>
<g id="a_node4"><a xlink:href="Valadoc.Api.Browsable.html" xlink:title="Valadoc.Api.Browsable">
<polygon fill="none" stroke="#000000" points="275.5,-108 131.5,-108 131.5,-72 275.5,-72 275.5,-108"/>
<text text-anchor="middle" x="203.5" y="-86.3" font-family="Times" font-size="14.00" fill="#000000">Valadoc.Api.Browsable</text>
</a>
</g>
</g>
<!-- Valadoc.Api.Browsable&#45;&gt;Valadoc.Api.Node -->
<g id="edge3" class="edge">
<title>Valadoc.Api.Browsable&#45;&gt;Valadoc.Api.Node</title>
<path fill="none" stroke="#000000" d="M203.5,-61.5726C203.5,-53.1084 203.5,-44.0593 203.5,-36.4133"/>
<polygon fill="#000000" stroke="#000000" points="200.0001,-61.8313 203.5,-71.8314 207.0001,-61.8314 200.0001,-61.8313"/>
</g>
<!-- Valadoc.Documentation -->
<g id="node5" class="node">
<title>Valadoc.Documentation</title>
<g id="a_node5"><a xlink:href="Valadoc.Documentation.html" xlink:title="Valadoc.Documentation">
<polygon fill="none" stroke="#000000" points="441.5,-108 293.5,-108 293.5,-72 441.5,-72 441.5,-108"/>
<text text-anchor="middle" x="367.5" y="-86.3" font-family="Times" font-size="14.00" fill="#000000">Valadoc.Documentation</text>
</a>
</g>
</g>
<!-- Valadoc.Documentation&#45;&gt;Valadoc.Api.Node -->
<g id="edge4" class="edge">
<title>Valadoc.Documentation&#45;&gt;Valadoc.Api.Node</title>
<path fill="none" stroke="#000000" d="M316.7784,-67.732C293.5888,-57.5512 266.4734,-45.6469 244.5865,-36.038"/>
<polygon fill="#000000" stroke="#000000" points="315.5524,-71.0162 326.1159,-71.8314 318.3664,-64.6066 315.5524,-71.0162"/>
</g>
</g>
</svg>
