<?xml version="1.0" encoding="UTF-8" standalone="no"?>
<!DOCTYPE svg PUBLIC "-//W3C//DTD SVG 1.1//EN"
 "http://www.w3.org/Graphics/SVG/1.1/DTD/svg11.dtd">
<!-- Generated by graphviz version 2.42.3 (0)
 -->
<!-- Title: Valadoc.Importer.ValadocDocumentationImporter Pages: 1 -->
<svg width="357pt" height="188pt"
 viewBox="0.00 0.00 357.00 188.00" xmlns="http://www.w3.org/2000/svg" xmlns:xlink="http://www.w3.org/1999/xlink">
<g id="graph0" class="graph" transform="scale(1 1) rotate(0) translate(4 184)">
<title>Valadoc.Importer.ValadocDocumentationImporter</title>
<polygon fill="white" stroke="transparent" points="-4,4 -4,-184 353,-184 353,4 -4,4"/>
<!-- Valadoc.Importer.ValadocDocumentationImporter -->
<g id="node1" class="node">
<title>Valadoc.Importer.ValadocDocumentationImporter</title>
<g id="a_node1"><a xlink:href="Valadoc.Importer.ValadocDocumentationImporter.html" xlink:title="Valadoc.Importer.ValadocDocumentationImporter">
<polygon fill="none" stroke="black" stroke-width="2" points="346,-36 54,-36 54,0 346,0 346,-36"/>
<text text-anchor="middle" x="200" y="-14.3" font-family="Times" font-size="14.00">Valadoc.Importer.ValadocDocumentationImporter</text>
</a>
</g>
</g>
<!-- Valadoc.Importer.DocumentationImporter -->
<g id="node2" class="node">
<title>Valadoc.Importer.DocumentationImporter</title>
<g id="a_node2"><a xlink:href="Valadoc.Importer.DocumentationImporter.html" xlink:title="Valadoc.Importer.DocumentationImporter">
<polygon fill="none" stroke="black" stroke-width="2" points="248,-108 0,-108 0,-72 248,-72 248,-108"/>
<text text-anchor="middle" x="124" y="-86.3" font-family="Times" font-size="14.00">Valadoc.Importer.DocumentationImporter</text>
</a>
</g>
</g>
<!-- Valadoc.Importer.DocumentationImporter&#45;&gt;Valadoc.Importer.ValadocDocumentationImporter -->
<g id="edge1" class="edge">
<title>Valadoc.Importer.DocumentationImporter&#45;&gt;Valadoc.Importer.ValadocDocumentationImporter</title>
<path fill="none" stroke="black" d="M150.32,-64.76C160.57,-55.32 172.07,-44.72 181.43,-36.1"/>
<polygon fill="black" stroke="black" points="147.77,-62.35 142.79,-71.7 152.51,-67.5 147.77,-62.35"/>
</g>
<!-- GLib.Object -->
<g id="node3" class="node">
<title>GLib.Object</title>
<g id="a_node3"><a xlink:href="../gobject-2.0/GLib.Object.html" xlink:title="GLib.Object">
<polygon fill="none" stroke="black" stroke-width="2" points="166.5,-180 81.5,-180 81.5,-144 166.5,-144 166.5,-180"/>
<text text-anchor="middle" x="124" y="-158.3" font-family="Times" font-size="14.00">GLib.Object</text>
</a>
</g>
</g>
<!-- GLib.Object&#45;&gt;Valadoc.Importer.DocumentationImporter -->
<g id="edge2" class="edge">
<title>GLib.Object&#45;&gt;Valadoc.Importer.DocumentationImporter</title>
<path fill="none" stroke="black" d="M124,-133.67C124,-125.05 124,-115.79 124,-108.1"/>
<polygon fill="black" stroke="black" points="120.5,-133.7 124,-143.7 127.5,-133.7 120.5,-133.7"/>
</g>
<!-- Valadoc.ResourceLocator -->
<g id="node4" class="node">
<title>Valadoc.ResourceLocator</title>
<g id="a_node4"><a xlink:href="Valadoc.ResourceLocator.html" xlink:title="Valadoc.ResourceLocator">
<polygon fill="none" stroke="black" points="349,-180 191,-180 191,-144 349,-144 349,-180"/>
<text text-anchor="middle" x="270" y="-158.3" font-family="Times" font-size="14.00">Valadoc.ResourceLocator</text>
</a>
</g>
</g>
<!-- Valadoc.ResourceLocator&#45;&gt;Valadoc.Importer.ValadocDocumentationImporter -->
<g id="edge4" class="edge">
<title>Valadoc.ResourceLocator&#45;&gt;Valadoc.Importer.ValadocDocumentationImporter</title>
<path fill="none" stroke="black" d="M270.64,-133.84C270.01,-115.43 267.01,-91.07 257,-72 249.53,-57.76 236.68,-45.31 225.08,-36.06"/>
<polygon fill="black" stroke="black" points="267.14,-133.95 270.78,-143.91 274.14,-133.86 267.14,-133.95"/>
</g>
<!-- Valadoc.ResourceLocator&#45;&gt;Valadoc.Importer.DocumentationImporter -->
<g id="edge3" class="edge">
<title>Valadoc.ResourceLocator&#45;&gt;Valadoc.Importer.DocumentationImporter</title>
<path fill="none" stroke="black" d="M225.2,-139.52C204.13,-129.42 179.36,-117.54 159.6,-108.07"/>
<polygon fill="black" stroke="black" points="223.75,-142.71 234.28,-143.88 226.78,-136.4 223.75,-142.71"/>
</g>
</g>
</svg>
