<?xml version="1.0" encoding="UTF-8" standalone="no"?>
<!DOCTYPE svg PUBLIC "-//W3C//DTD SVG 1.1//EN"
 "http://www.w3.org/Graphics/SVG/1.1/DTD/svg11.dtd">
<!-- Generated by graphviz version 2.40.1 (0)
 -->
<!-- Title: Valadoc.WikiPage Pages: 1 -->
<svg width="260pt" height="116pt"
 viewBox="0.00 0.00 260.00 116.00" xmlns="http://www.w3.org/2000/svg" xmlns:xlink="http://www.w3.org/1999/xlink">
<g id="graph0" class="graph" transform="scale(1 1) rotate(0) translate(4 112)">
<title>Valadoc.WikiPage</title>
<polygon fill="#ffffff" stroke="transparent" points="-4,4 -4,-112 256,-112 256,4 -4,4"/>
<!-- Valadoc.WikiPage -->
<g id="node1" class="node">
<title>Valadoc.WikiPage</title>
<g id="a_node1"><a xlink:href="Valadoc.WikiPage.html" xlink:title="Valadoc.WikiPage">
<polygon fill="none" stroke="#000000" stroke-width="2" points="169,-36 50,-36 50,0 169,0 169,-36"/>
<text text-anchor="middle" x="109.5" y="-14.3" font-family="Times" font-size="14.00" fill="#000000">Valadoc.WikiPage</text>
</a>
</g>
</g>
<!-- GLib.Object -->
<g id="node2" class="node">
<title>GLib.Object</title>
<g id="a_node2"><a xlink:href="../gobject-2.0/GLib.Object.html" xlink:title="GLib.Object">
<polygon fill="none" stroke="#000000" stroke-width="2" points="85,-108 0,-108 0,-72 85,-72 85,-108"/>
<text text-anchor="middle" x="42.5" y="-86.3" font-family="Times" font-size="14.00" fill="#000000">GLib.Object</text>
</a>
</g>
</g>
<!-- GLib.Object&#45;&gt;Valadoc.WikiPage -->
<g id="edge1" class="edge">
<title>GLib.Object&#45;&gt;Valadoc.WikiPage</title>
<path fill="none" stroke="#000000" d="M66.3505,-64.3696C74.9423,-55.1366 84.4598,-44.9088 92.3654,-36.4133"/>
<polygon fill="#000000" stroke="#000000" points="63.657,-62.1263 59.4069,-71.8314 68.7815,-66.895 63.657,-62.1263"/>
</g>
<!-- Valadoc.Documentation -->
<g id="node3" class="node">
<title>Valadoc.Documentation</title>
<g id="a_node3"><a xlink:href="Valadoc.Documentation.html" xlink:title="Valadoc.Documentation">
<polygon fill="none" stroke="#000000" points="252,-108 103,-108 103,-72 252,-72 252,-108"/>
<text text-anchor="middle" x="177.5" y="-86.3" font-family="Times" font-size="14.00" fill="#000000">Valadoc.Documentation</text>
</a>
</g>
</g>
<!-- Valadoc.Documentation&#45;&gt;Valadoc.WikiPage -->
<g id="edge2" class="edge">
<title>Valadoc.Documentation&#45;&gt;Valadoc.WikiPage</title>
<path fill="none" stroke="#000000" d="M153.2935,-64.3696C144.5735,-55.1366 134.9139,-44.9088 126.8903,-36.4133"/>
<polygon fill="#000000" stroke="#000000" points="150.9299,-66.9644 160.3407,-71.8314 156.019,-62.158 150.9299,-66.9644"/>
</g>
</g>
</svg>
