<?xml version="1.0" encoding="UTF-8" standalone="no"?>
<!DOCTYPE svg PUBLIC "-//W3C//DTD SVG 1.1//EN"
 "http://www.w3.org/Graphics/SVG/1.1/DTD/svg11.dtd">
<!-- Generated by graphviz version 2.42.3 (0)
 -->
<!-- Title: Valadoc.Html.BasicDoclet Pages: 1 -->
<svg width="254pt" height="188pt"
 viewBox="0.00 0.00 253.50 188.00" xmlns="http://www.w3.org/2000/svg" xmlns:xlink="http://www.w3.org/1999/xlink">
<g id="graph0" class="graph" transform="scale(1 1) rotate(0) translate(4 184)">
<title>Valadoc.Html.BasicDoclet</title>
<polygon fill="white" stroke="transparent" points="-4,4 -4,-184 249.5,-184 249.5,4 -4,4"/>
<!-- Valadoc.Html.BasicDoclet -->
<g id="node1" class="node">
<title>Valadoc.Html.BasicDoclet</title>
<g id="a_node1"><a xlink:href="Valadoc.Html.BasicDoclet.html" xlink:title="Valadoc.Html.BasicDoclet">
<polygon fill="none" stroke="black" stroke-width="2" points="210.5,-36 47.5,-36 47.5,0 210.5,0 210.5,-36"/>
<text text-anchor="middle" x="129" y="-14.3" font-family="Times" font-size="14.00">Valadoc.Html.BasicDoclet</text>
</a>
</g>
</g>
<!-- Valadoc.Api.Visitor -->
<g id="node2" class="node">
<title>Valadoc.Api.Visitor</title>
<g id="a_node2"><a xlink:href="Valadoc.Api.Visitor.html" xlink:title="Valadoc.Api.Visitor">
<polygon fill="none" stroke="black" stroke-width="2" points="126,-108 0,-108 0,-72 126,-72 126,-108"/>
<text text-anchor="middle" x="63" y="-86.3" font-family="Times" font-size="14.00">Valadoc.Api.Visitor</text>
</a>
</g>
</g>
<!-- Valadoc.Api.Visitor&#45;&gt;Valadoc.Html.BasicDoclet -->
<g id="edge1" class="edge">
<title>Valadoc.Api.Visitor&#45;&gt;Valadoc.Html.BasicDoclet</title>
<path fill="none" stroke="black" d="M86.38,-64.2C95.15,-54.9 104.91,-44.55 112.87,-36.1"/>
<polygon fill="black" stroke="black" points="83.63,-62.02 79.31,-71.7 88.72,-66.82 83.63,-62.02"/>
</g>
<!-- GLib.Object -->
<g id="node3" class="node">
<title>GLib.Object</title>
<g id="a_node3"><a xlink:href="../gobject-2.0/GLib.Object.html" xlink:title="GLib.Object">
<polygon fill="none" stroke="black" stroke-width="2" points="105.5,-180 20.5,-180 20.5,-144 105.5,-144 105.5,-180"/>
<text text-anchor="middle" x="63" y="-158.3" font-family="Times" font-size="14.00">GLib.Object</text>
</a>
</g>
</g>
<!-- GLib.Object&#45;&gt;Valadoc.Api.Visitor -->
<g id="edge2" class="edge">
<title>GLib.Object&#45;&gt;Valadoc.Api.Visitor</title>
<path fill="none" stroke="black" d="M63,-133.67C63,-125.05 63,-115.79 63,-108.1"/>
<polygon fill="black" stroke="black" points="59.5,-133.7 63,-143.7 66.5,-133.7 59.5,-133.7"/>
</g>
<!-- Valadoc.Doclet -->
<g id="node4" class="node">
<title>Valadoc.Doclet</title>
<g id="a_node4"><a xlink:href="Valadoc.Doclet.html" xlink:title="Valadoc.Doclet">
<polygon fill="none" stroke="black" points="245.5,-108 144.5,-108 144.5,-72 245.5,-72 245.5,-108"/>
<text text-anchor="middle" x="195" y="-86.3" font-family="Times" font-size="14.00">Valadoc.Doclet</text>
</a>
</g>
</g>
<!-- Valadoc.Doclet&#45;&gt;Valadoc.Html.BasicDoclet -->
<g id="edge3" class="edge">
<title>Valadoc.Doclet&#45;&gt;Valadoc.Html.BasicDoclet</title>
<path fill="none" stroke="black" d="M171.62,-64.2C162.85,-54.9 153.09,-44.55 145.13,-36.1"/>
<polygon fill="black" stroke="black" points="169.28,-66.82 178.69,-71.7 174.37,-62.02 169.28,-66.82"/>
</g>
</g>
</svg>
