<?xml version="1.0" encoding="UTF-8" standalone="no"?>
<!DOCTYPE svg PUBLIC "-//W3C//DTD SVG 1.1//EN"
 "http://www.w3.org/Graphics/SVG/1.1/DTD/svg11.dtd">
<!-- Generated by graphviz version 2.40.1 (20161225.0304)
 -->
<!-- Title: Valadoc.CTypeResolver Pages: 1 -->
<svg width="173pt" height="188pt"
 viewBox="0.00 0.00 173.00 188.00" xmlns="http://www.w3.org/2000/svg" xmlns:xlink="http://www.w3.org/1999/xlink">
<g id="graph0" class="graph" transform="scale(1 1) rotate(0) translate(4 184)">
<title>Valadoc.CTypeResolver</title>
<polygon fill="#ffffff" stroke="transparent" points="-4,4 -4,-184 169,-184 169,4 -4,4"/>
<!-- Valadoc.CTypeResolver -->
<g id="node1" class="node">
<title>Valadoc.CTypeResolver</title>
<g id="a_node1"><a xlink:href="Valadoc.CTypeResolver.html" xlink:title="Valadoc.CTypeResolver">
<polygon fill="none" stroke="#000000" stroke-width="2" points="165,-36 0,-36 0,0 165,0 165,-36"/>
<text text-anchor="middle" x="82.5" y="-14.3" font-family="Times" font-size="14.00" fill="#000000">Valadoc.CTypeResolver</text>
</a>
</g>
</g>
<!-- Valadoc.Api.Visitor -->
<g id="node2" class="node">
<title>Valadoc.Api.Visitor</title>
<g id="a_node2"><a xlink:href="Valadoc.Api.Visitor.html" xlink:title="Valadoc.Api.Visitor">
<polygon fill="none" stroke="#000000" stroke-width="2" points="151,-108 14,-108 14,-72 151,-72 151,-108"/>
<text text-anchor="middle" x="82.5" y="-86.3" font-family="Times" font-size="14.00" fill="#000000">Valadoc.Api.Visitor</text>
</a>
</g>
</g>
<!-- Valadoc.Api.Visitor&#45;&gt;Valadoc.CTypeResolver -->
<g id="edge1" class="edge">
<title>Valadoc.Api.Visitor&#45;&gt;Valadoc.CTypeResolver</title>
<path fill="none" stroke="#000000" d="M82.5,-61.5726C82.5,-53.1084 82.5,-44.0593 82.5,-36.4133"/>
<polygon fill="#000000" stroke="#000000" points="79.0001,-61.8313 82.5,-71.8314 86.0001,-61.8314 79.0001,-61.8313"/>
</g>
<!-- GLib.Object -->
<g id="node3" class="node">
<title>GLib.Object</title>
<polygon fill="none" stroke="#000000" stroke-width="2" points="128.5,-180 36.5,-180 36.5,-144 128.5,-144 128.5,-180"/>
<text text-anchor="middle" x="82.5" y="-158.3" font-family="Times" font-size="14.00" fill="#000000">GLib.Object</text>
</g>
<!-- GLib.Object&#45;&gt;Valadoc.Api.Visitor -->
<g id="edge2" class="edge">
<title>GLib.Object&#45;&gt;Valadoc.Api.Visitor</title>
<path fill="none" stroke="#000000" d="M82.5,-133.5726C82.5,-125.1084 82.5,-116.0593 82.5,-108.4133"/>
<polygon fill="#000000" stroke="#000000" points="79.0001,-133.8313 82.5,-143.8314 86.0001,-133.8314 79.0001,-133.8313"/>
</g>
</g>
</svg>
