<?xml version="1.0" encoding="UTF-8" standalone="no"?>
<!DOCTYPE svg PUBLIC "-//W3C//DTD SVG 1.1//EN"
 "http://www.w3.org/Graphics/SVG/1.1/DTD/svg11.dtd">
<!-- Generated by graphviz version 2.40.1 (20161225.0304)
 -->
<!-- Title: Valadoc.Highlighter.CodeScanner Pages: 1 -->
<svg width="282pt" height="116pt"
 viewBox="0.00 0.00 282.00 116.00" xmlns="http://www.w3.org/2000/svg" xmlns:xlink="http://www.w3.org/1999/xlink">
<g id="graph0" class="graph" transform="scale(1 1) rotate(0) translate(4 112)">
<title>Valadoc.Highlighter.CodeScanner</title>
<polygon fill="#ffffff" stroke="transparent" points="-4,4 -4,-112 278,-112 278,4 -4,4"/>
<!-- Valadoc.Highlighter.CodeScanner -->
<g id="node1" class="node">
<title>Valadoc.Highlighter.CodeScanner</title>
<g id="a_node1"><a xlink:href="Valadoc.Highlighter.CodeScanner.html" xlink:title="Valadoc.Highlighter.CodeScanner">
<polygon fill="none" stroke="#000000" stroke-width="2" points="215.5,-36 15.5,-36 15.5,0 215.5,0 215.5,-36"/>
<text text-anchor="middle" x="115.5" y="-14.3" font-family="Times" font-size="14.00" fill="#000000">Valadoc.Highlighter.CodeScanner</text>
</a>
</g>
</g>
<!-- GLib.Object -->
<g id="node2" class="node">
<title>GLib.Object</title>
<polygon fill="none" stroke="#000000" stroke-width="2" points="85,-108 0,-108 0,-72 85,-72 85,-108"/>
<text text-anchor="middle" x="42.5" y="-86.3" font-family="Times" font-size="14.00" fill="#000000">GLib.Object</text>
</g>
<!-- GLib.Object&#45;&gt;Valadoc.Highlighter.CodeScanner -->
<g id="edge1" class="edge">
<title>GLib.Object&#45;&gt;Valadoc.Highlighter.CodeScanner</title>
<path fill="none" stroke="#000000" d="M68.2641,-64.5888C77.7752,-55.2081 88.3538,-44.7744 97.0849,-36.1628"/>
<polygon fill="#000000" stroke="#000000" points="65.5829,-62.3173 60.921,-71.8314 70.4984,-67.3011 65.5829,-62.3173"/>
</g>
<!-- Valadoc.Highlighter.Scanner -->
<g id="node3" class="node">
<title>Valadoc.Highlighter.Scanner</title>
<g id="a_node3"><a xlink:href="Valadoc.Highlighter.Scanner.html" xlink:title="Valadoc.Highlighter.Scanner">
<polygon fill="none" stroke="#000000" points="274,-108 103,-108 103,-72 274,-72 274,-108"/>
<text text-anchor="middle" x="188.5" y="-86.3" font-family="Times" font-size="14.00" fill="#000000">Valadoc.Highlighter.Scanner</text>
</a>
</g>
</g>
<!-- Valadoc.Highlighter.Scanner&#45;&gt;Valadoc.Highlighter.CodeScanner -->
<g id="edge2" class="edge">
<title>Valadoc.Highlighter.Scanner&#45;&gt;Valadoc.Highlighter.CodeScanner</title>
<path fill="none" stroke="#000000" d="M162.7359,-64.5888C153.2248,-55.2081 142.6462,-44.7744 133.9151,-36.1628"/>
<polygon fill="#000000" stroke="#000000" points="160.5016,-67.3011 170.079,-71.8314 165.4171,-62.3173 160.5016,-67.3011"/>
</g>
</g>
</svg>
