<?xml version="1.0" encoding="UTF-8" standalone="no"?>
<!DOCTYPE svg PUBLIC "-//W3C//DTD SVG 1.1//EN"
 "http://www.w3.org/Graphics/SVG/1.1/DTD/svg11.dtd">
<!-- Generated by graphviz version 2.40.1 (20161225.0304)
 -->
<!-- Title: Valadoc.CommentScanner Pages: 1 -->
<svg width="242pt" height="188pt"
 viewBox="0.00 0.00 242.00 188.00" xmlns="http://www.w3.org/2000/svg" xmlns:xlink="http://www.w3.org/1999/xlink">
<g id="graph0" class="graph" transform="scale(1 1) rotate(0) translate(4 184)">
<title>Valadoc.CommentScanner</title>
<polygon fill="#ffffff" stroke="transparent" points="-4,4 -4,-184 238,-184 238,4 -4,4"/>
<!-- Valadoc.CommentScanner -->
<g id="node1" class="node">
<title>Valadoc.CommentScanner</title>
<g id="a_node1"><a xlink:href="Valadoc.CommentScanner.html" xlink:title="Valadoc.CommentScanner">
<polygon fill="none" stroke="#000000" stroke-width="2" points="202,-36 16,-36 16,0 202,0 202,-36"/>
<text text-anchor="middle" x="109" y="-14.3" font-family="Times" font-size="14.00" fill="#000000">Valadoc.CommentScanner</text>
</a>
</g>
</g>
<!-- Valadoc.WikiScanner -->
<g id="node2" class="node">
<title>Valadoc.WikiScanner</title>
<g id="a_node2"><a xlink:href="Valadoc.WikiScanner.html" xlink:title="Valadoc.WikiScanner">
<polygon fill="none" stroke="#000000" stroke-width="2" points="184,-108 34,-108 34,-72 184,-72 184,-108"/>
<text text-anchor="middle" x="109" y="-86.3" font-family="Times" font-size="14.00" fill="#000000">Valadoc.WikiScanner</text>
</a>
</g>
</g>
<!-- Valadoc.WikiScanner&#45;&gt;Valadoc.CommentScanner -->
<g id="edge1" class="edge">
<title>Valadoc.WikiScanner&#45;&gt;Valadoc.CommentScanner</title>
<path fill="none" stroke="#000000" d="M109,-61.5726C109,-53.1084 109,-44.0593 109,-36.4133"/>
<polygon fill="#000000" stroke="#000000" points="105.5001,-61.8313 109,-71.8314 112.5001,-61.8314 105.5001,-61.8313"/>
</g>
<!-- GLib.Object -->
<g id="node3" class="node">
<title>GLib.Object</title>
<polygon fill="none" stroke="#000000" stroke-width="2" points="92,-180 0,-180 0,-144 92,-144 92,-180"/>
<text text-anchor="middle" x="46" y="-158.3" font-family="Times" font-size="14.00" fill="#000000">GLib.Object</text>
</g>
<!-- GLib.Object&#45;&gt;Valadoc.WikiScanner -->
<g id="edge2" class="edge">
<title>GLib.Object&#45;&gt;Valadoc.WikiScanner</title>
<path fill="none" stroke="#000000" d="M68.6693,-136.0923C76.6843,-126.9323 85.5291,-116.8239 92.8884,-108.4133"/>
<polygon fill="#000000" stroke="#000000" points="65.8486,-134.0008 61.8976,-143.8314 71.1167,-138.6103 65.8486,-134.0008"/>
</g>
<!-- Valadoc.Scanner -->
<g id="node4" class="node">
<title>Valadoc.Scanner</title>
<g id="a_node4"><a xlink:href="Valadoc.Scanner.html" xlink:title="Valadoc.Scanner">
<polygon fill="none" stroke="#000000" points="234,-180 110,-180 110,-144 234,-144 234,-180"/>
<text text-anchor="middle" x="172" y="-158.3" font-family="Times" font-size="14.00" fill="#000000">Valadoc.Scanner</text>
</a>
</g>
</g>
<!-- Valadoc.Scanner&#45;&gt;Valadoc.WikiScanner -->
<g id="edge3" class="edge">
<title>Valadoc.Scanner&#45;&gt;Valadoc.WikiScanner</title>
<path fill="none" stroke="#000000" d="M149.3307,-136.0923C141.3157,-126.9323 132.4709,-116.8239 125.1116,-108.4133"/>
<polygon fill="#000000" stroke="#000000" points="146.8833,-138.6103 156.1024,-143.8314 152.1514,-134.0008 146.8833,-138.6103"/>
</g>
</g>
</svg>
