<?xml version="1.0" encoding="UTF-8" standalone="no"?>
<!DOCTYPE svg PUBLIC "-//W3C//DTD SVG 1.1//EN"
 "http://www.w3.org/Graphics/SVG/1.1/DTD/svg11.dtd">
<!-- Generated by graphviz version 2.40.1 (0)
 -->
<!-- Title: Valadoc.Html.SimpleChartFactory Pages: 1 -->
<svg width="216pt" height="260pt"
 viewBox="0.00 0.00 216.00 260.00" xmlns="http://www.w3.org/2000/svg" xmlns:xlink="http://www.w3.org/1999/xlink">
<g id="graph0" class="graph" transform="scale(1 1) rotate(0) translate(4 256)">
<title>Valadoc.Html.SimpleChartFactory</title>
<polygon fill="#ffffff" stroke="transparent" points="-4,4 -4,-256 212,-256 212,4 -4,4"/>
<!-- Valadoc.Html.SimpleChartFactory -->
<g id="node1" class="node">
<title>Valadoc.Html.SimpleChartFactory</title>
<g id="a_node1"><a xlink:href="Valadoc.Html.SimpleChartFactory.html" xlink:title="Valadoc.Html.SimpleChartFactory">
<polygon fill="none" stroke="#000000" stroke-width="2" points="208,-36 0,-36 0,0 208,0 208,-36"/>
<text text-anchor="middle" x="104" y="-14.3" font-family="Times" font-size="14.00" fill="#000000">Valadoc.Html.SimpleChartFactory</text>
</a>
</g>
</g>
<!-- Valadoc.Charts.SimpleFactory -->
<g id="node2" class="node">
<title>Valadoc.Charts.SimpleFactory</title>
<g id="a_node2"><a xlink:href="Valadoc.Charts.SimpleFactory.html" xlink:title="Valadoc.Charts.SimpleFactory">
<polygon fill="none" stroke="#000000" stroke-width="2" points="196.5,-108 11.5,-108 11.5,-72 196.5,-72 196.5,-108"/>
<text text-anchor="middle" x="104" y="-86.3" font-family="Times" font-size="14.00" fill="#000000">Valadoc.Charts.SimpleFactory</text>
</a>
</g>
</g>
<!-- Valadoc.Charts.SimpleFactory&#45;&gt;Valadoc.Html.SimpleChartFactory -->
<g id="edge1" class="edge">
<title>Valadoc.Charts.SimpleFactory&#45;&gt;Valadoc.Html.SimpleChartFactory</title>
<path fill="none" stroke="#000000" d="M104,-61.5726C104,-53.1084 104,-44.0593 104,-36.4133"/>
<polygon fill="#000000" stroke="#000000" points="100.5001,-61.8313 104,-71.8314 107.5001,-61.8314 100.5001,-61.8313"/>
</g>
<!-- Valadoc.Charts.Factory -->
<g id="node3" class="node">
<title>Valadoc.Charts.Factory</title>
<g id="a_node3"><a xlink:href="Valadoc.Charts.Factory.html" xlink:title="Valadoc.Charts.Factory">
<polygon fill="none" stroke="#000000" stroke-width="2" points="177,-180 31,-180 31,-144 177,-144 177,-180"/>
<text text-anchor="middle" x="104" y="-158.3" font-family="Times" font-size="14.00" fill="#000000">Valadoc.Charts.Factory</text>
</a>
</g>
</g>
<!-- Valadoc.Charts.Factory&#45;&gt;Valadoc.Charts.SimpleFactory -->
<g id="edge2" class="edge">
<title>Valadoc.Charts.Factory&#45;&gt;Valadoc.Charts.SimpleFactory</title>
<path fill="none" stroke="#000000" d="M104,-133.5726C104,-125.1084 104,-116.0593 104,-108.4133"/>
<polygon fill="#000000" stroke="#000000" points="100.5001,-133.8313 104,-143.8314 107.5001,-133.8314 100.5001,-133.8313"/>
</g>
<!-- GLib.Object -->
<g id="node4" class="node">
<title>GLib.Object</title>
<g id="a_node4"><a xlink:href="../gobject-2.0/GLib.Object.html" xlink:title="GLib.Object">
<polygon fill="none" stroke="#000000" stroke-width="2" points="146.5,-252 61.5,-252 61.5,-216 146.5,-216 146.5,-252"/>
<text text-anchor="middle" x="104" y="-230.3" font-family="Times" font-size="14.00" fill="#000000">GLib.Object</text>
</a>
</g>
</g>
<!-- GLib.Object&#45;&gt;Valadoc.Charts.Factory -->
<g id="edge3" class="edge">
<title>GLib.Object&#45;&gt;Valadoc.Charts.Factory</title>
<path fill="none" stroke="#000000" d="M104,-205.5726C104,-197.1084 104,-188.0593 104,-180.4133"/>
<polygon fill="#000000" stroke="#000000" points="100.5001,-205.8313 104,-215.8314 107.5001,-205.8314 100.5001,-205.8313"/>
</g>
</g>
</svg>
