<?xml version="1.0" encoding="UTF-8" standalone="no"?>
<!DOCTYPE svg PUBLIC "-//W3C//DTD SVG 1.1//EN"
 "http://www.w3.org/Graphics/SVG/1.1/DTD/svg11.dtd">
<!-- Generated by graphviz version 2.40.1 (20161225.0304)
 -->
<!-- Title: Valadoc.Html.HtmlRenderer Pages: 1 -->
<svg width="244pt" height="260pt"
 viewBox="0.00 0.00 244.00 260.00" xmlns="http://www.w3.org/2000/svg" xmlns:xlink="http://www.w3.org/1999/xlink">
<g id="graph0" class="graph" transform="scale(1 1) rotate(0) translate(4 256)">
<title>Valadoc.Html.HtmlRenderer</title>
<polygon fill="#ffffff" stroke="transparent" points="-4,4 -4,-256 240,-256 240,4 -4,4"/>
<!-- Valadoc.Html.HtmlRenderer -->
<g id="node1" class="node">
<title>Valadoc.Html.HtmlRenderer</title>
<g id="a_node1"><a xlink:href="Valadoc.Html.HtmlRenderer.html" xlink:title="Valadoc.Html.HtmlRenderer">
<polygon fill="none" stroke="#000000" stroke-width="2" points="215,-36 21,-36 21,0 215,0 215,-36"/>
<text text-anchor="middle" x="118" y="-14.3" font-family="Times" font-size="14.00" fill="#000000">Valadoc.Html.HtmlRenderer</text>
</a>
</g>
</g>
<!-- Valadoc.Content.ContentRenderer -->
<g id="node2" class="node">
<title>Valadoc.Content.ContentRenderer</title>
<g id="a_node2"><a xlink:href="Valadoc.Content.ContentRenderer.html" xlink:title="Valadoc.Content.ContentRenderer">
<polygon fill="none" stroke="#000000" stroke-width="2" points="236,-108 0,-108 0,-72 236,-72 236,-108"/>
<text text-anchor="middle" x="118" y="-86.3" font-family="Times" font-size="14.00" fill="#000000">Valadoc.Content.ContentRenderer</text>
</a>
</g>
</g>
<!-- Valadoc.Content.ContentRenderer&#45;&gt;Valadoc.Html.HtmlRenderer -->
<g id="edge1" class="edge">
<title>Valadoc.Content.ContentRenderer&#45;&gt;Valadoc.Html.HtmlRenderer</title>
<path fill="none" stroke="#000000" d="M118,-61.5726C118,-53.1084 118,-44.0593 118,-36.4133"/>
<polygon fill="#000000" stroke="#000000" points="114.5001,-61.8313 118,-71.8314 121.5001,-61.8314 114.5001,-61.8313"/>
</g>
<!-- Valadoc.Content.ContentVisitor -->
<g id="node3" class="node">
<title>Valadoc.Content.ContentVisitor</title>
<g id="a_node3"><a xlink:href="Valadoc.Content.ContentVisitor.html" xlink:title="Valadoc.Content.ContentVisitor">
<polygon fill="none" stroke="#000000" stroke-width="2" points="228,-180 8,-180 8,-144 228,-144 228,-180"/>
<text text-anchor="middle" x="118" y="-158.3" font-family="Times" font-size="14.00" fill="#000000">Valadoc.Content.ContentVisitor</text>
</a>
</g>
</g>
<!-- Valadoc.Content.ContentVisitor&#45;&gt;Valadoc.Content.ContentRenderer -->
<g id="edge2" class="edge">
<title>Valadoc.Content.ContentVisitor&#45;&gt;Valadoc.Content.ContentRenderer</title>
<path fill="none" stroke="#000000" d="M118,-133.5726C118,-125.1084 118,-116.0593 118,-108.4133"/>
<polygon fill="#000000" stroke="#000000" points="114.5001,-133.8313 118,-143.8314 121.5001,-133.8314 114.5001,-133.8313"/>
</g>
<!-- GLib.Object -->
<g id="node4" class="node">
<title>GLib.Object</title>
<polygon fill="none" stroke="#000000" stroke-width="2" points="164,-252 72,-252 72,-216 164,-216 164,-252"/>
<text text-anchor="middle" x="118" y="-230.3" font-family="Times" font-size="14.00" fill="#000000">GLib.Object</text>
</g>
<!-- GLib.Object&#45;&gt;Valadoc.Content.ContentVisitor -->
<g id="edge3" class="edge">
<title>GLib.Object&#45;&gt;Valadoc.Content.ContentVisitor</title>
<path fill="none" stroke="#000000" d="M118,-205.5726C118,-197.1084 118,-188.0593 118,-180.4133"/>
<polygon fill="#000000" stroke="#000000" points="114.5001,-205.8313 118,-215.8314 121.5001,-205.8314 114.5001,-205.8313"/>
</g>
</g>
</svg>
