<?xml version="1.0" encoding="UTF-8" standalone="no"?>
<!DOCTYPE svg PUBLIC "-//W3C//DTD SVG 1.1//EN"
 "http://www.w3.org/Graphics/SVG/1.1/DTD/svg11.dtd">
<!-- Generated by graphviz version 2.40.1 (20161225.0304)
 -->
<!-- Title: Valadoc.Gtkdoc.MarkdownParser Pages: 1 -->
<svg width="298pt" height="116pt"
 viewBox="0.00 0.00 298.00 116.00" xmlns="http://www.w3.org/2000/svg" xmlns:xlink="http://www.w3.org/1999/xlink">
<g id="graph0" class="graph" transform="scale(1 1) rotate(0) translate(4 112)">
<title>Valadoc.Gtkdoc.MarkdownParser</title>
<polygon fill="#ffffff" stroke="transparent" points="-4,4 -4,-112 294,-112 294,4 -4,4"/>
<!-- Valadoc.Gtkdoc.MarkdownParser -->
<g id="node1" class="node">
<title>Valadoc.Gtkdoc.MarkdownParser</title>
<g id="a_node1"><a xlink:href="Valadoc.Gtkdoc.MarkdownParser.html" xlink:title="Valadoc.Gtkdoc.MarkdownParser">
<polygon fill="none" stroke="#000000" stroke-width="2" points="238,-36 8,-36 8,0 238,0 238,-36"/>
<text text-anchor="middle" x="123" y="-14.3" font-family="Times" font-size="14.00" fill="#000000">Valadoc.Gtkdoc.MarkdownParser</text>
</a>
</g>
</g>
<!-- GLib.Object -->
<g id="node2" class="node">
<title>GLib.Object</title>
<polygon fill="none" stroke="#000000" stroke-width="2" points="92,-108 0,-108 0,-72 92,-72 92,-108"/>
<text text-anchor="middle" x="46" y="-86.3" font-family="Times" font-size="14.00" fill="#000000">GLib.Object</text>
</g>
<!-- GLib.Object&#45;&gt;Valadoc.Gtkdoc.MarkdownParser -->
<g id="edge1" class="edge">
<title>GLib.Object&#45;&gt;Valadoc.Gtkdoc.MarkdownParser</title>
<path fill="none" stroke="#000000" d="M72.8782,-64.8672C82.9869,-55.4149 94.2751,-44.8596 103.5759,-36.1628"/>
<polygon fill="#000000" stroke="#000000" points="70.3441,-62.4449 65.4304,-71.8314 75.1251,-67.5579 70.3441,-62.4449"/>
</g>
<!-- Valadoc.ResourceLocator -->
<g id="node3" class="node">
<title>Valadoc.ResourceLocator</title>
<g id="a_node3"><a xlink:href="Valadoc.ResourceLocator.html" xlink:title="Valadoc.ResourceLocator">
<polygon fill="none" stroke="#000000" points="290,-108 110,-108 110,-72 290,-72 290,-108"/>
<text text-anchor="middle" x="200" y="-86.3" font-family="Times" font-size="14.00" fill="#000000">Valadoc.ResourceLocator</text>
</a>
</g>
</g>
<!-- Valadoc.ResourceLocator&#45;&gt;Valadoc.Gtkdoc.MarkdownParser -->
<g id="edge2" class="edge">
<title>Valadoc.ResourceLocator&#45;&gt;Valadoc.Gtkdoc.MarkdownParser</title>
<path fill="none" stroke="#000000" d="M173.1218,-64.8672C163.0131,-55.4149 151.7249,-44.8596 142.4241,-36.1628"/>
<polygon fill="#000000" stroke="#000000" points="170.8749,-67.5579 180.5696,-71.8314 175.6559,-62.4449 170.8749,-67.5579"/>
</g>
</g>
</svg>
