<?xml version="1.0" encoding="UTF-8" standalone="no"?>
<!DOCTYPE svg PUBLIC "-//W3C//DTD SVG 1.1//EN"
 "http://www.w3.org/Graphics/SVG/1.1/DTD/svg11.dtd">
<!-- Generated by graphviz version 2.40.1 (20161225.0304)
 -->
<!-- Title: Valadoc.Content.InlineTaglet Pages: 1 -->
<svg width="602pt" height="188pt"
 viewBox="0.00 0.00 601.50 188.00" xmlns="http://www.w3.org/2000/svg" xmlns:xlink="http://www.w3.org/1999/xlink">
<g id="graph0" class="graph" transform="scale(1 1) rotate(0) translate(4 184)">
<title>Valadoc.Content.InlineTaglet</title>
<polygon fill="#ffffff" stroke="transparent" points="-4,4 -4,-184 597.5,-184 597.5,4 -4,4"/>
<!-- Valadoc.Content.InlineTaglet -->
<g id="node1" class="node">
<title>Valadoc.Content.InlineTaglet</title>
<g id="a_node1"><a xlink:href="Valadoc.Content.InlineTaglet.html" xlink:title="Valadoc.Content.InlineTaglet">
<polygon fill="none" stroke="#000000" stroke-width="2" points="431,-36 229,-36 229,0 431,0 431,-36"/>
<text text-anchor="middle" x="330" y="-14.3" font-family="Times" font-size="14.00" fill="#000000">Valadoc.Content.InlineTaglet</text>
</a>
</g>
</g>
<!-- Valadoc.Content.ContentElement -->
<g id="node2" class="node">
<title>Valadoc.Content.ContentElement</title>
<g id="a_node2"><a xlink:href="Valadoc.Content.ContentElement.html" xlink:title="Valadoc.Content.ContentElement">
<polygon fill="none" stroke="#000000" stroke-width="2" points="230,-108 0,-108 0,-72 230,-72 230,-108"/>
<text text-anchor="middle" x="115" y="-86.3" font-family="Times" font-size="14.00" fill="#000000">Valadoc.Content.ContentElement</text>
</a>
</g>
</g>
<!-- Valadoc.Content.ContentElement&#45;&gt;Valadoc.Content.InlineTaglet -->
<g id="edge1" class="edge">
<title>Valadoc.Content.ContentElement&#45;&gt;Valadoc.Content.InlineTaglet</title>
<path fill="none" stroke="#000000" d="M178.7978,-68.6351C209.7294,-58.2767 246.4786,-45.97 276.0017,-36.0831"/>
<polygon fill="#000000" stroke="#000000" points="177.347,-65.4299 168.9761,-71.9243 179.5699,-72.0676 177.347,-65.4299"/>
</g>
<!-- GLib.Object -->
<g id="node3" class="node">
<title>GLib.Object</title>
<polygon fill="none" stroke="#000000" stroke-width="2" points="161,-180 69,-180 69,-144 161,-144 161,-180"/>
<text text-anchor="middle" x="115" y="-158.3" font-family="Times" font-size="14.00" fill="#000000">GLib.Object</text>
</g>
<!-- GLib.Object&#45;&gt;Valadoc.Content.ContentElement -->
<g id="edge2" class="edge">
<title>GLib.Object&#45;&gt;Valadoc.Content.ContentElement</title>
<path fill="none" stroke="#000000" d="M115,-133.5726C115,-125.1084 115,-116.0593 115,-108.4133"/>
<polygon fill="#000000" stroke="#000000" points="111.5001,-133.8313 115,-143.8314 118.5001,-133.8314 111.5001,-133.8313"/>
</g>
<!-- Valadoc.Content.Taglet -->
<g id="node4" class="node">
<title>Valadoc.Content.Taglet</title>
<g id="a_node4"><a xlink:href="Valadoc.Content.Taglet.html" xlink:title="Valadoc.Content.Taglet">
<polygon fill="none" stroke="#000000" points="412,-108 248,-108 248,-72 412,-72 412,-108"/>
<text text-anchor="middle" x="330" y="-86.3" font-family="Times" font-size="14.00" fill="#000000">Valadoc.Content.Taglet</text>
</a>
</g>
</g>
<!-- Valadoc.Content.Taglet&#45;&gt;Valadoc.Content.InlineTaglet -->
<g id="edge3" class="edge">
<title>Valadoc.Content.Taglet&#45;&gt;Valadoc.Content.InlineTaglet</title>
<path fill="none" stroke="#000000" d="M330,-61.5726C330,-53.1084 330,-44.0593 330,-36.4133"/>
<polygon fill="#000000" stroke="#000000" points="326.5001,-61.8313 330,-71.8314 333.5001,-61.8314 326.5001,-61.8313"/>
</g>
<!-- Valadoc.Content.Inline -->
<g id="node5" class="node">
<title>Valadoc.Content.Inline</title>
<g id="a_node5"><a xlink:href="Valadoc.Content.Inline.html" xlink:title="Valadoc.Content.Inline">
<polygon fill="none" stroke="#000000" points="593.5,-108 430.5,-108 430.5,-72 593.5,-72 593.5,-108"/>
<text text-anchor="middle" x="512" y="-86.3" font-family="Times" font-size="14.00" fill="#000000">Valadoc.Content.Inline</text>
</a>
</g>
</g>
<!-- Valadoc.Content.Inline&#45;&gt;Valadoc.Content.InlineTaglet -->
<g id="edge4" class="edge">
<title>Valadoc.Content.Inline&#45;&gt;Valadoc.Content.InlineTaglet</title>
<path fill="none" stroke="#000000" d="M456.7384,-68.1383C430.78,-57.869 400.209,-45.775 375.596,-36.038"/>
<polygon fill="#000000" stroke="#000000" points="455.4874,-71.4072 466.0737,-71.8314 458.0625,-64.8981 455.4874,-71.4072"/>
</g>
</g>
</svg>
