<?xml version="1.0" encoding="UTF-8" standalone="no"?>
<!DOCTYPE svg PUBLIC "-//W3C//DTD SVG 1.1//EN"
 "http://www.w3.org/Graphics/SVG/1.1/DTD/svg11.dtd">
<!-- Generated by graphviz version 2.42.3 (0)
 -->
<!-- Title: Valadoc.CommentScanner Pages: 1 -->
<svg width="220pt" height="188pt"
 viewBox="0.00 0.00 219.50 188.00" xmlns="http://www.w3.org/2000/svg" xmlns:xlink="http://www.w3.org/1999/xlink">
<g id="graph0" class="graph" transform="scale(1 1) rotate(0) translate(4 184)">
<title>Valadoc.CommentScanner</title>
<polygon fill="white" stroke="transparent" points="-4,4 -4,-184 215.5,-184 215.5,4 -4,4"/>
<!-- Valadoc.CommentScanner -->
<g id="node1" class="node">
<title>Valadoc.CommentScanner</title>
<g id="a_node1"><a xlink:href="Valadoc.CommentScanner.html" xlink:title="Valadoc.CommentScanner">
<polygon fill="none" stroke="black" stroke-width="2" points="181,-36 18,-36 18,0 181,0 181,-36"/>
<text text-anchor="middle" x="99.5" y="-14.3" font-family="Times" font-size="14.00">Valadoc.CommentScanner</text>
</a>
</g>
</g>
<!-- Valadoc.WikiScanner -->
<g id="node2" class="node">
<title>Valadoc.WikiScanner</title>
<g id="a_node2"><a xlink:href="Valadoc.WikiScanner.html" xlink:title="Valadoc.WikiScanner">
<polygon fill="none" stroke="black" stroke-width="2" points="167.5,-108 31.5,-108 31.5,-72 167.5,-72 167.5,-108"/>
<text text-anchor="middle" x="99.5" y="-86.3" font-family="Times" font-size="14.00">Valadoc.WikiScanner</text>
</a>
</g>
</g>
<!-- Valadoc.WikiScanner&#45;&gt;Valadoc.CommentScanner -->
<g id="edge1" class="edge">
<title>Valadoc.WikiScanner&#45;&gt;Valadoc.CommentScanner</title>
<path fill="none" stroke="black" d="M99.5,-61.67C99.5,-53.05 99.5,-43.79 99.5,-36.1"/>
<polygon fill="black" stroke="black" points="96,-61.7 99.5,-71.7 103,-61.7 96,-61.7"/>
</g>
<!-- GLib.Object -->
<g id="node3" class="node">
<title>GLib.Object</title>
<g id="a_node3"><a xlink:href="../gobject-2.0/GLib.Object.html" xlink:title="GLib.Object">
<polygon fill="none" stroke="black" stroke-width="2" points="85,-180 0,-180 0,-144 85,-144 85,-180"/>
<text text-anchor="middle" x="42.5" y="-158.3" font-family="Times" font-size="14.00">GLib.Object</text>
</a>
</g>
</g>
<!-- GLib.Object&#45;&gt;Valadoc.WikiScanner -->
<g id="edge2" class="edge">
<title>GLib.Object&#45;&gt;Valadoc.WikiScanner</title>
<path fill="none" stroke="black" d="M62.92,-135.92C70.43,-126.69 78.76,-116.47 85.57,-108.1"/>
<polygon fill="black" stroke="black" points="60.19,-133.73 56.59,-143.7 65.62,-138.15 60.19,-133.73"/>
</g>
<!-- Valadoc.Scanner -->
<g id="node4" class="node">
<title>Valadoc.Scanner</title>
<g id="a_node4"><a xlink:href="Valadoc.Scanner.html" xlink:title="Valadoc.Scanner">
<polygon fill="none" stroke="black" points="211.5,-180 103.5,-180 103.5,-144 211.5,-144 211.5,-180"/>
<text text-anchor="middle" x="157.5" y="-158.3" font-family="Times" font-size="14.00">Valadoc.Scanner</text>
</a>
</g>
</g>
<!-- Valadoc.Scanner&#45;&gt;Valadoc.WikiScanner -->
<g id="edge3" class="edge">
<title>Valadoc.Scanner&#45;&gt;Valadoc.WikiScanner</title>
<path fill="none" stroke="black" d="M136.72,-135.92C129.08,-126.69 120.6,-116.47 113.67,-108.1"/>
<polygon fill="black" stroke="black" points="134.09,-138.23 143.16,-143.7 139.48,-133.76 134.09,-138.23"/>
</g>
</g>
</svg>
