<?xml version="1.0" encoding="UTF-8" standalone="no"?>
<!DOCTYPE svg PUBLIC "-//W3C//DTD SVG 1.1//EN"
 "http://www.w3.org/Graphics/SVG/1.1/DTD/svg11.dtd">
<!-- Generated by graphviz version 2.42.3 (0)
 -->
<!-- Title: Valadoc.Gtkdoc.MarkdownScanner Pages: 1 -->
<svg width="226pt" height="116pt"
 viewBox="0.00 0.00 226.00 116.00" xmlns="http://www.w3.org/2000/svg" xmlns:xlink="http://www.w3.org/1999/xlink">
<g id="graph0" class="graph" transform="scale(1 1) rotate(0) translate(4 112)">
<title>Valadoc.Gtkdoc.MarkdownScanner</title>
<polygon fill="white" stroke="transparent" points="-4,4 -4,-112 222,-112 222,4 -4,4"/>
<!-- Valadoc.Gtkdoc.MarkdownScanner -->
<g id="node1" class="node">
<title>Valadoc.Gtkdoc.MarkdownScanner</title>
<g id="a_node1"><a xlink:href="Valadoc.Gtkdoc.MarkdownScanner.html" xlink:title="Valadoc.Gtkdoc.MarkdownScanner">
<polygon fill="none" stroke="black" stroke-width="2" points="212,-36 0,-36 0,0 212,0 212,-36"/>
<text text-anchor="middle" x="106" y="-14.3" font-family="Times" font-size="14.00">Valadoc.Gtkdoc.MarkdownScanner</text>
</a>
</g>
</g>
<!-- GLib.Object -->
<g id="node2" class="node">
<title>GLib.Object</title>
<g id="a_node2"><a xlink:href="../gobject-2.0/GLib.Object.html" xlink:title="GLib.Object">
<polygon fill="none" stroke="black" stroke-width="2" points="91.5,-108 6.5,-108 6.5,-72 91.5,-72 91.5,-108"/>
<text text-anchor="middle" x="49" y="-86.3" font-family="Times" font-size="14.00">GLib.Object</text>
</a>
</g>
</g>
<!-- GLib.Object&#45;&gt;Valadoc.Gtkdoc.MarkdownScanner -->
<g id="edge1" class="edge">
<title>GLib.Object&#45;&gt;Valadoc.Gtkdoc.MarkdownScanner</title>
<path fill="none" stroke="black" d="M69.42,-63.92C76.93,-54.69 85.26,-44.47 92.07,-36.1"/>
<polygon fill="black" stroke="black" points="66.69,-61.73 63.09,-71.7 72.12,-66.15 66.69,-61.73"/>
</g>
<!-- Valadoc.Scanner -->
<g id="node3" class="node">
<title>Valadoc.Scanner</title>
<g id="a_node3"><a xlink:href="Valadoc.Scanner.html" xlink:title="Valadoc.Scanner">
<polygon fill="none" stroke="black" points="218,-108 110,-108 110,-72 218,-72 218,-108"/>
<text text-anchor="middle" x="164" y="-86.3" font-family="Times" font-size="14.00">Valadoc.Scanner</text>
</a>
</g>
</g>
<!-- Valadoc.Scanner&#45;&gt;Valadoc.Gtkdoc.MarkdownScanner -->
<g id="edge2" class="edge">
<title>Valadoc.Scanner&#45;&gt;Valadoc.Gtkdoc.MarkdownScanner</title>
<path fill="none" stroke="black" d="M143.22,-63.92C135.58,-54.69 127.1,-44.47 120.17,-36.1"/>
<polygon fill="black" stroke="black" points="140.59,-66.23 149.66,-71.7 145.98,-61.76 140.59,-66.23"/>
</g>
</g>
</svg>
