<?xml version="1.0" encoding="UTF-8" standalone="no"?>
<!DOCTYPE svg PUBLIC "-//W3C//DTD SVG 1.1//EN"
 "http://www.w3.org/Graphics/SVG/1.1/DTD/svg11.dtd">
<!-- Generated by graphviz version 2.40.1 (0)
 -->
<!-- Title: Valadoc.GtkdocRenderer Pages: 1 -->
<svg width="211pt" height="260pt"
 viewBox="0.00 0.00 211.00 260.00" xmlns="http://www.w3.org/2000/svg" xmlns:xlink="http://www.w3.org/1999/xlink">
<g id="graph0" class="graph" transform="scale(1 1) rotate(0) translate(4 256)">
<title>Valadoc.GtkdocRenderer</title>
<polygon fill="#ffffff" stroke="transparent" points="-4,4 -4,-256 207,-256 207,4 -4,4"/>
<!-- Valadoc.GtkdocRenderer -->
<g id="node1" class="node">
<title>Valadoc.GtkdocRenderer</title>
<g id="a_node1"><a xlink:href="Valadoc.GtkdocRenderer.html" xlink:title="Valadoc.GtkdocRenderer">
<polygon fill="none" stroke="#000000" stroke-width="2" points="178.5,-36 24.5,-36 24.5,0 178.5,0 178.5,-36"/>
<text text-anchor="middle" x="101.5" y="-14.3" font-family="Times" font-size="14.00" fill="#000000">Valadoc.GtkdocRenderer</text>
</a>
</g>
</g>
<!-- Valadoc.Content.ContentRenderer -->
<g id="node2" class="node">
<title>Valadoc.Content.ContentRenderer</title>
<g id="a_node2"><a xlink:href="Valadoc.Content.ContentRenderer.html" xlink:title="Valadoc.Content.ContentRenderer">
<polygon fill="none" stroke="#000000" stroke-width="2" points="203,-108 0,-108 0,-72 203,-72 203,-108"/>
<text text-anchor="middle" x="101.5" y="-86.3" font-family="Times" font-size="14.00" fill="#000000">Valadoc.Content.ContentRenderer</text>
</a>
</g>
</g>
<!-- Valadoc.Content.ContentRenderer&#45;&gt;Valadoc.GtkdocRenderer -->
<g id="edge1" class="edge">
<title>Valadoc.Content.ContentRenderer&#45;&gt;Valadoc.GtkdocRenderer</title>
<path fill="none" stroke="#000000" d="M101.5,-61.5726C101.5,-53.1084 101.5,-44.0593 101.5,-36.4133"/>
<polygon fill="#000000" stroke="#000000" points="98.0001,-61.8313 101.5,-71.8314 105.0001,-61.8314 98.0001,-61.8313"/>
</g>
<!-- Valadoc.Content.ContentVisitor -->
<g id="node3" class="node">
<title>Valadoc.Content.ContentVisitor</title>
<g id="a_node3"><a xlink:href="Valadoc.Content.ContentVisitor.html" xlink:title="Valadoc.Content.ContentVisitor">
<polygon fill="none" stroke="#000000" stroke-width="2" points="197,-180 6,-180 6,-144 197,-144 197,-180"/>
<text text-anchor="middle" x="101.5" y="-158.3" font-family="Times" font-size="14.00" fill="#000000">Valadoc.Content.ContentVisitor</text>
</a>
</g>
</g>
<!-- Valadoc.Content.ContentVisitor&#45;&gt;Valadoc.Content.ContentRenderer -->
<g id="edge2" class="edge">
<title>Valadoc.Content.ContentVisitor&#45;&gt;Valadoc.Content.ContentRenderer</title>
<path fill="none" stroke="#000000" d="M101.5,-133.5726C101.5,-125.1084 101.5,-116.0593 101.5,-108.4133"/>
<polygon fill="#000000" stroke="#000000" points="98.0001,-133.8313 101.5,-143.8314 105.0001,-133.8314 98.0001,-133.8313"/>
</g>
<!-- GLib.Object -->
<g id="node4" class="node">
<title>GLib.Object</title>
<g id="a_node4"><a xlink:href="../gobject-2.0/GLib.Object.html" xlink:title="GLib.Object">
<polygon fill="none" stroke="#000000" stroke-width="2" points="144,-252 59,-252 59,-216 144,-216 144,-252"/>
<text text-anchor="middle" x="101.5" y="-230.3" font-family="Times" font-size="14.00" fill="#000000">GLib.Object</text>
</a>
</g>
</g>
<!-- GLib.Object&#45;&gt;Valadoc.Content.ContentVisitor -->
<g id="edge3" class="edge">
<title>GLib.Object&#45;&gt;Valadoc.Content.ContentVisitor</title>
<path fill="none" stroke="#000000" d="M101.5,-205.5726C101.5,-197.1084 101.5,-188.0593 101.5,-180.4133"/>
<polygon fill="#000000" stroke="#000000" points="98.0001,-205.8313 101.5,-215.8314 105.0001,-205.8314 98.0001,-205.8313"/>
</g>
</g>
</svg>
