<?xml version="1.0" encoding="UTF-8" standalone="no"?>
<!DOCTYPE svg PUBLIC "-//W3C//DTD SVG 1.1//EN"
 "http://www.w3.org/Graphics/SVG/1.1/DTD/svg11.dtd">
<!-- Generated by graphviz version 2.40.1 (0)
 -->
<!-- Title: Valadoc.WikiScanner Pages: 1 -->
<svg width="220pt" height="116pt"
 viewBox="0.00 0.00 219.50 116.00" xmlns="http://www.w3.org/2000/svg" xmlns:xlink="http://www.w3.org/1999/xlink">
<g id="graph0" class="graph" transform="scale(1 1) rotate(0) translate(4 112)">
<title>Valadoc.WikiScanner</title>
<polygon fill="#ffffff" stroke="transparent" points="-4,4 -4,-112 215.5,-112 215.5,4 -4,4"/>
<!-- Valadoc.WikiScanner -->
<g id="node1" class="node">
<title>Valadoc.WikiScanner</title>
<g id="a_node1"><a xlink:href="Valadoc.WikiScanner.html" xlink:title="Valadoc.WikiScanner">
<polygon fill="none" stroke="#000000" stroke-width="2" points="167.5,-36 31.5,-36 31.5,0 167.5,0 167.5,-36"/>
<text text-anchor="middle" x="99.5" y="-14.3" font-family="Times" font-size="14.00" fill="#000000">Valadoc.WikiScanner</text>
</a>
</g>
</g>
<!-- GLib.Object -->
<g id="node2" class="node">
<title>GLib.Object</title>
<g id="a_node2"><a xlink:href="../gobject-2.0/GLib.Object.html" xlink:title="GLib.Object">
<polygon fill="none" stroke="#000000" stroke-width="2" points="85,-108 0,-108 0,-72 85,-72 85,-108"/>
<text text-anchor="middle" x="42.5" y="-86.3" font-family="Times" font-size="14.00" fill="#000000">GLib.Object</text>
</a>
</g>
</g>
<!-- GLib.Object&#45;&gt;Valadoc.WikiScanner -->
<g id="edge1" class="edge">
<title>GLib.Object&#45;&gt;Valadoc.WikiScanner</title>
<path fill="none" stroke="#000000" d="M63.2303,-63.8144C70.4235,-54.7282 78.3317,-44.7389 84.9228,-36.4133"/>
<polygon fill="#000000" stroke="#000000" points="60.3464,-61.8184 56.8835,-71.8314 65.8347,-66.1634 60.3464,-61.8184"/>
</g>
<!-- Valadoc.Scanner -->
<g id="node3" class="node">
<title>Valadoc.Scanner</title>
<g id="a_node3"><a xlink:href="Valadoc.Scanner.html" xlink:title="Valadoc.Scanner">
<polygon fill="none" stroke="#000000" points="211.5,-108 103.5,-108 103.5,-72 211.5,-72 211.5,-108"/>
<text text-anchor="middle" x="157.5" y="-86.3" font-family="Times" font-size="14.00" fill="#000000">Valadoc.Scanner</text>
</a>
</g>
</g>
<!-- Valadoc.Scanner&#45;&gt;Valadoc.WikiScanner -->
<g id="edge2" class="edge">
<title>Valadoc.Scanner&#45;&gt;Valadoc.WikiScanner</title>
<path fill="none" stroke="#000000" d="M136.4061,-63.8144C129.0866,-54.7282 121.0397,-44.7389 114.3329,-36.4133"/>
<polygon fill="#000000" stroke="#000000" points="133.8652,-66.2395 142.8642,-71.8314 139.3165,-61.8481 133.8652,-66.2395"/>
</g>
</g>
</svg>
