<?xml version="1.0" encoding="UTF-8" standalone="no"?>
<!DOCTYPE svg PUBLIC "-//W3C//DTD SVG 1.1//EN"
 "http://www.w3.org/Graphics/SVG/1.1/DTD/svg11.dtd">
<!-- Generated by graphviz version 2.42.3 (0)
 -->
<!-- Title: Valadoc.Api.Pointer Pages: 1 -->
<svg width="136pt" height="188pt"
 viewBox="0.00 0.00 136.00 188.00" xmlns="http://www.w3.org/2000/svg" xmlns:xlink="http://www.w3.org/1999/xlink">
<g id="graph0" class="graph" transform="scale(1 1) rotate(0) translate(4 184)">
<title>Valadoc.Api.Pointer</title>
<polygon fill="white" stroke="transparent" points="-4,4 -4,-184 132,-184 132,4 -4,4"/>
<!-- Valadoc.Api.Pointer -->
<g id="node1" class="node">
<title>Valadoc.Api.Pointer</title>
<g id="a_node1"><a xlink:href="Valadoc.Api.Pointer.html" xlink:title="Valadoc.Api.Pointer">
<polygon fill="none" stroke="black" stroke-width="2" points="128,-36 0,-36 0,0 128,0 128,-36"/>
<text text-anchor="middle" x="64" y="-14.3" font-family="Times" font-size="14.00">Valadoc.Api.Pointer</text>
</a>
</g>
</g>
<!-- Valadoc.Api.Item -->
<g id="node2" class="node">
<title>Valadoc.Api.Item</title>
<g id="a_node2"><a xlink:href="Valadoc.Api.Item.html" xlink:title="Valadoc.Api.Item">
<polygon fill="none" stroke="black" stroke-width="2" points="121,-108 7,-108 7,-72 121,-72 121,-108"/>
<text text-anchor="middle" x="64" y="-86.3" font-family="Times" font-size="14.00">Valadoc.Api.Item</text>
</a>
</g>
</g>
<!-- Valadoc.Api.Item&#45;&gt;Valadoc.Api.Pointer -->
<g id="edge1" class="edge">
<title>Valadoc.Api.Item&#45;&gt;Valadoc.Api.Pointer</title>
<path fill="none" stroke="black" d="M64,-61.67C64,-53.05 64,-43.79 64,-36.1"/>
<polygon fill="black" stroke="black" points="60.5,-61.7 64,-71.7 67.5,-61.7 60.5,-61.7"/>
</g>
<!-- GLib.Object -->
<g id="node3" class="node">
<title>GLib.Object</title>
<g id="a_node3"><a xlink:href="../gobject-2.0/GLib.Object.html" xlink:title="GLib.Object">
<polygon fill="none" stroke="black" stroke-width="2" points="106.5,-180 21.5,-180 21.5,-144 106.5,-144 106.5,-180"/>
<text text-anchor="middle" x="64" y="-158.3" font-family="Times" font-size="14.00">GLib.Object</text>
</a>
</g>
</g>
<!-- GLib.Object&#45;&gt;Valadoc.Api.Item -->
<g id="edge2" class="edge">
<title>GLib.Object&#45;&gt;Valadoc.Api.Item</title>
<path fill="none" stroke="black" d="M64,-133.67C64,-125.05 64,-115.79 64,-108.1"/>
<polygon fill="black" stroke="black" points="60.5,-133.7 64,-143.7 67.5,-133.7 60.5,-133.7"/>
</g>
</g>
</svg>
