<?xml version="1.0" encoding="UTF-8" standalone="no"?>
<!DOCTYPE svg PUBLIC "-//W3C//DTD SVG 1.1//EN"
 "http://www.w3.org/Graphics/SVG/1.1/DTD/svg11.dtd">
<!-- Generated by graphviz version 2.40.1 (0)
 -->
<!-- Title: Valadoc.Api.Enum Pages: 1 -->
<svg width="290pt" height="404pt"
 viewBox="0.00 0.00 289.50 404.00" xmlns="http://www.w3.org/2000/svg" xmlns:xlink="http://www.w3.org/1999/xlink">
<g id="graph0" class="graph" transform="scale(1 1) rotate(0) translate(4 400)">
<title>Valadoc.Api.Enum</title>
<polygon fill="#ffffff" stroke="transparent" points="-4,4 -4,-400 285.5,-400 285.5,4 -4,4"/>
<!-- Valadoc.Api.Enum -->
<g id="node1" class="node">
<title>Valadoc.Api.Enum</title>
<g id="a_node1"><a xlink:href="Valadoc.Api.Enum.html" xlink:title="Valadoc.Api.Enum">
<polygon fill="none" stroke="#000000" stroke-width="2" points="193,-36 71,-36 71,0 193,0 193,-36"/>
<text text-anchor="middle" x="132" y="-14.3" font-family="Times" font-size="14.00" fill="#000000">Valadoc.Api.Enum</text>
</a>
</g>
</g>
<!-- Valadoc.Api.TypeSymbol -->
<g id="node2" class="node">
<title>Valadoc.Api.TypeSymbol</title>
<g id="a_node2"><a xlink:href="Valadoc.Api.TypeSymbol.html" xlink:title="Valadoc.Api.TypeSymbol">
<polygon fill="none" stroke="#000000" stroke-width="2" points="211,-108 53,-108 53,-72 211,-72 211,-108"/>
<text text-anchor="middle" x="132" y="-86.3" font-family="Times" font-size="14.00" fill="#000000">Valadoc.Api.TypeSymbol</text>
</a>
</g>
</g>
<!-- Valadoc.Api.TypeSymbol&#45;&gt;Valadoc.Api.Enum -->
<g id="edge1" class="edge">
<title>Valadoc.Api.TypeSymbol&#45;&gt;Valadoc.Api.Enum</title>
<path fill="none" stroke="#000000" d="M132,-61.5726C132,-53.1084 132,-44.0593 132,-36.4133"/>
<polygon fill="#000000" stroke="#000000" points="128.5001,-61.8313 132,-71.8314 135.5001,-61.8314 128.5001,-61.8313"/>
</g>
<!-- Valadoc.Api.Symbol -->
<g id="node3" class="node">
<title>Valadoc.Api.Symbol</title>
<g id="a_node3"><a xlink:href="Valadoc.Api.Symbol.html" xlink:title="Valadoc.Api.Symbol">
<polygon fill="none" stroke="#000000" stroke-width="2" points="197.5,-180 66.5,-180 66.5,-144 197.5,-144 197.5,-180"/>
<text text-anchor="middle" x="132" y="-158.3" font-family="Times" font-size="14.00" fill="#000000">Valadoc.Api.Symbol</text>
</a>
</g>
</g>
<!-- Valadoc.Api.Symbol&#45;&gt;Valadoc.Api.TypeSymbol -->
<g id="edge2" class="edge">
<title>Valadoc.Api.Symbol&#45;&gt;Valadoc.Api.TypeSymbol</title>
<path fill="none" stroke="#000000" d="M132,-133.5726C132,-125.1084 132,-116.0593 132,-108.4133"/>
<polygon fill="#000000" stroke="#000000" points="128.5001,-133.8313 132,-143.8314 135.5001,-133.8314 128.5001,-133.8313"/>
</g>
<!-- Valadoc.Api.Node -->
<g id="node4" class="node">
<title>Valadoc.Api.Node</title>
<g id="a_node4"><a xlink:href="Valadoc.Api.Node.html" xlink:title="Valadoc.Api.Node">
<polygon fill="none" stroke="#000000" stroke-width="2" points="191,-252 73,-252 73,-216 191,-216 191,-252"/>
<text text-anchor="middle" x="132" y="-230.3" font-family="Times" font-size="14.00" fill="#000000">Valadoc.Api.Node</text>
</a>
</g>
</g>
<!-- Valadoc.Api.Node&#45;&gt;Valadoc.Api.Symbol -->
<g id="edge3" class="edge">
<title>Valadoc.Api.Node&#45;&gt;Valadoc.Api.Symbol</title>
<path fill="none" stroke="#000000" d="M132,-205.5726C132,-197.1084 132,-188.0593 132,-180.4133"/>
<polygon fill="#000000" stroke="#000000" points="128.5001,-205.8313 132,-215.8314 135.5001,-205.8314 128.5001,-205.8313"/>
</g>
<!-- Valadoc.Api.Item -->
<g id="node5" class="node">
<title>Valadoc.Api.Item</title>
<g id="a_node5"><a xlink:href="Valadoc.Api.Item.html" xlink:title="Valadoc.Api.Item">
<polygon fill="none" stroke="#000000" stroke-width="2" points="114,-324 0,-324 0,-288 114,-288 114,-324"/>
<text text-anchor="middle" x="57" y="-302.3" font-family="Times" font-size="14.00" fill="#000000">Valadoc.Api.Item</text>
</a>
</g>
</g>
<!-- Valadoc.Api.Item&#45;&gt;Valadoc.Api.Node -->
<g id="edge4" class="edge">
<title>Valadoc.Api.Item&#45;&gt;Valadoc.Api.Node</title>
<path fill="none" stroke="#000000" d="M83.18,-280.8672C93.0262,-271.4149 104.0212,-260.8596 113.0804,-252.1628"/>
<polygon fill="#000000" stroke="#000000" points="80.7157,-278.3811 75.9257,-287.8314 85.5634,-283.4309 80.7157,-278.3811"/>
</g>
<!-- GLib.Object -->
<g id="node6" class="node">
<title>GLib.Object</title>
<g id="a_node6"><a xlink:href="../gobject-2.0/GLib.Object.html" xlink:title="GLib.Object">
<polygon fill="none" stroke="#000000" stroke-width="2" points="99.5,-396 14.5,-396 14.5,-360 99.5,-360 99.5,-396"/>
<text text-anchor="middle" x="57" y="-374.3" font-family="Times" font-size="14.00" fill="#000000">GLib.Object</text>
</a>
</g>
</g>
<!-- GLib.Object&#45;&gt;Valadoc.Api.Item -->
<g id="edge5" class="edge">
<title>GLib.Object&#45;&gt;Valadoc.Api.Item</title>
<path fill="none" stroke="#000000" d="M57,-349.5726C57,-341.1084 57,-332.0593 57,-324.4133"/>
<polygon fill="#000000" stroke="#000000" points="53.5001,-349.8313 57,-359.8314 60.5001,-349.8314 53.5001,-349.8313"/>
</g>
<!-- Valadoc.Documentation -->
<g id="node7" class="node">
<title>Valadoc.Documentation</title>
<g id="a_node7"><a xlink:href="Valadoc.Documentation.html" xlink:title="Valadoc.Documentation">
<polygon fill="none" stroke="#000000" points="281.5,-324 132.5,-324 132.5,-288 281.5,-288 281.5,-324"/>
<text text-anchor="middle" x="207" y="-302.3" font-family="Times" font-size="14.00" fill="#000000">Valadoc.Documentation</text>
</a>
</g>
</g>
<!-- Valadoc.Documentation&#45;&gt;Valadoc.Api.Node -->
<g id="edge6" class="edge">
<title>Valadoc.Documentation&#45;&gt;Valadoc.Api.Node</title>
<path fill="none" stroke="#000000" d="M180.82,-280.8672C170.9738,-271.4149 159.9788,-260.8596 150.9196,-252.1628"/>
<polygon fill="#000000" stroke="#000000" points="178.4366,-283.4309 188.0743,-287.8314 183.2843,-278.3811 178.4366,-283.4309"/>
</g>
</g>
</svg>
