<?xml version="1.0" encoding="UTF-8" standalone="no"?>
<!DOCTYPE svg PUBLIC "-//W3C//DTD SVG 1.1//EN"
 "http://www.w3.org/Graphics/SVG/1.1/DTD/svg11.dtd">
<!-- Generated by graphviz version 2.42.3 (0)
 -->
<!-- Title: Valadoc.Taglets.Since Pages: 1 -->
<svg width="533pt" height="188pt"
 viewBox="0.00 0.00 532.50 188.00" xmlns="http://www.w3.org/2000/svg" xmlns:xlink="http://www.w3.org/1999/xlink">
<g id="graph0" class="graph" transform="scale(1 1) rotate(0) translate(4 184)">
<title>Valadoc.Taglets.Since</title>
<polygon fill="white" stroke="transparent" points="-4,4 -4,-184 528.5,-184 528.5,4 -4,4"/>
<!-- Valadoc.Taglets.Since -->
<g id="node1" class="node">
<title>Valadoc.Taglets.Since</title>
<g id="a_node1"><a xlink:href="Valadoc.Taglets.Since.html" xlink:title="Valadoc.Taglets.Since">
<polygon fill="none" stroke="black" stroke-width="2" points="359.5,-36 222.5,-36 222.5,0 359.5,0 359.5,-36"/>
<text text-anchor="middle" x="291" y="-14.3" font-family="Times" font-size="14.00">Valadoc.Taglets.Since</text>
</a>
</g>
</g>
<!-- Valadoc.Content.ContentElement -->
<g id="node2" class="node">
<title>Valadoc.Content.ContentElement</title>
<g id="a_node2"><a xlink:href="Valadoc.Content.ContentElement.html" xlink:title="Valadoc.Content.ContentElement">
<polygon fill="none" stroke="black" stroke-width="2" points="200,-108 0,-108 0,-72 200,-72 200,-108"/>
<text text-anchor="middle" x="100" y="-86.3" font-family="Times" font-size="14.00">Valadoc.Content.ContentElement</text>
</a>
</g>
</g>
<!-- Valadoc.Content.ContentElement&#45;&gt;Valadoc.Taglets.Since -->
<g id="edge1" class="edge">
<title>Valadoc.Content.ContentElement&#45;&gt;Valadoc.Taglets.Since</title>
<path fill="none" stroke="black" d="M156.39,-68.33C184.42,-58.06 217.88,-45.8 244.43,-36.07"/>
<polygon fill="black" stroke="black" points="154.91,-65.15 146.72,-71.88 157.32,-71.72 154.91,-65.15"/>
</g>
<!-- GLib.Object -->
<g id="node3" class="node">
<title>GLib.Object</title>
<g id="a_node3"><a xlink:href="../gobject-2.0/GLib.Object.html" xlink:title="GLib.Object">
<polygon fill="none" stroke="black" stroke-width="2" points="142.5,-180 57.5,-180 57.5,-144 142.5,-144 142.5,-180"/>
<text text-anchor="middle" x="100" y="-158.3" font-family="Times" font-size="14.00">GLib.Object</text>
</a>
</g>
</g>
<!-- GLib.Object&#45;&gt;Valadoc.Content.ContentElement -->
<g id="edge2" class="edge">
<title>GLib.Object&#45;&gt;Valadoc.Content.ContentElement</title>
<path fill="none" stroke="black" d="M100,-133.67C100,-125.05 100,-115.79 100,-108.1"/>
<polygon fill="black" stroke="black" points="96.5,-133.7 100,-143.7 103.5,-133.7 96.5,-133.7"/>
</g>
<!-- Valadoc.Content.Taglet -->
<g id="node4" class="node">
<title>Valadoc.Content.Taglet</title>
<g id="a_node4"><a xlink:href="Valadoc.Content.Taglet.html" xlink:title="Valadoc.Content.Taglet">
<polygon fill="none" stroke="black" points="363.5,-108 218.5,-108 218.5,-72 363.5,-72 363.5,-108"/>
<text text-anchor="middle" x="291" y="-86.3" font-family="Times" font-size="14.00">Valadoc.Content.Taglet</text>
</a>
</g>
</g>
<!-- Valadoc.Content.Taglet&#45;&gt;Valadoc.Taglets.Since -->
<g id="edge3" class="edge">
<title>Valadoc.Content.Taglet&#45;&gt;Valadoc.Taglets.Since</title>
<path fill="none" stroke="black" d="M291,-61.67C291,-53.05 291,-43.79 291,-36.1"/>
<polygon fill="black" stroke="black" points="287.5,-61.7 291,-71.7 294.5,-61.7 287.5,-61.7"/>
</g>
<!-- Valadoc.Content.Block -->
<g id="node5" class="node">
<title>Valadoc.Content.Block</title>
<g id="a_node5"><a xlink:href="Valadoc.Content.Block.html" xlink:title="Valadoc.Content.Block">
<polygon fill="none" stroke="black" points="524.5,-108 381.5,-108 381.5,-72 524.5,-72 524.5,-108"/>
<text text-anchor="middle" x="453" y="-86.3" font-family="Times" font-size="14.00">Valadoc.Content.Block</text>
</a>
</g>
</g>
<!-- Valadoc.Content.Block&#45;&gt;Valadoc.Taglets.Since -->
<g id="edge4" class="edge">
<title>Valadoc.Content.Block&#45;&gt;Valadoc.Taglets.Since</title>
<path fill="none" stroke="black" d="M403.92,-67.79C380.41,-57.63 352.63,-45.63 330.5,-36.07"/>
<polygon fill="black" stroke="black" points="402.8,-71.12 413.37,-71.88 405.58,-64.7 402.8,-71.12"/>
</g>
</g>
</svg>
