<?xml version="1.0" encoding="UTF-8" standalone="no"?>
<!DOCTYPE svg PUBLIC "-//W3C//DTD SVG 1.1//EN"
 "http://www.w3.org/Graphics/SVG/1.1/DTD/svg11.dtd">
<!-- Generated by graphviz version 2.40.1 (20161225.0304)
 -->
<!-- Title: Valadoc.Html.SimpleChartFactory Pages: 1 -->
<svg width="241pt" height="260pt"
 viewBox="0.00 0.00 241.00 260.00" xmlns="http://www.w3.org/2000/svg" xmlns:xlink="http://www.w3.org/1999/xlink">
<g id="graph0" class="graph" transform="scale(1 1) rotate(0) translate(4 256)">
<title>Valadoc.Html.SimpleChartFactory</title>
<polygon fill="#ffffff" stroke="transparent" points="-4,4 -4,-256 237,-256 237,4 -4,4"/>
<!-- Valadoc.Html.SimpleChartFactory -->
<g id="node1" class="node">
<title>Valadoc.Html.SimpleChartFactory</title>
<g id="a_node1"><a xlink:href="Valadoc.Html.SimpleChartFactory.html" xlink:title="Valadoc.Html.SimpleChartFactory">
<polygon fill="none" stroke="#000000" stroke-width="2" points="233,-36 0,-36 0,0 233,0 233,-36"/>
<text text-anchor="middle" x="116.5" y="-14.3" font-family="Times" font-size="14.00" fill="#000000">Valadoc.Html.SimpleChartFactory</text>
</a>
</g>
</g>
<!-- Valadoc.Charts.SimpleFactory -->
<g id="node2" class="node">
<title>Valadoc.Charts.SimpleFactory</title>
<g id="a_node2"><a xlink:href="Valadoc.Charts.SimpleFactory.html" xlink:title="Valadoc.Charts.SimpleFactory">
<polygon fill="none" stroke="#000000" stroke-width="2" points="221,-108 12,-108 12,-72 221,-72 221,-108"/>
<text text-anchor="middle" x="116.5" y="-86.3" font-family="Times" font-size="14.00" fill="#000000">Valadoc.Charts.SimpleFactory</text>
</a>
</g>
</g>
<!-- Valadoc.Charts.SimpleFactory&#45;&gt;Valadoc.Html.SimpleChartFactory -->
<g id="edge1" class="edge">
<title>Valadoc.Charts.SimpleFactory&#45;&gt;Valadoc.Html.SimpleChartFactory</title>
<path fill="none" stroke="#000000" d="M116.5,-61.5726C116.5,-53.1084 116.5,-44.0593 116.5,-36.4133"/>
<polygon fill="#000000" stroke="#000000" points="113.0001,-61.8313 116.5,-71.8314 120.0001,-61.8314 113.0001,-61.8313"/>
</g>
<!-- Valadoc.Charts.Factory -->
<g id="node3" class="node">
<title>Valadoc.Charts.Factory</title>
<g id="a_node3"><a xlink:href="Valadoc.Charts.Factory.html" xlink:title="Valadoc.Charts.Factory">
<polygon fill="none" stroke="#000000" stroke-width="2" points="199.5,-180 33.5,-180 33.5,-144 199.5,-144 199.5,-180"/>
<text text-anchor="middle" x="116.5" y="-158.3" font-family="Times" font-size="14.00" fill="#000000">Valadoc.Charts.Factory</text>
</a>
</g>
</g>
<!-- Valadoc.Charts.Factory&#45;&gt;Valadoc.Charts.SimpleFactory -->
<g id="edge2" class="edge">
<title>Valadoc.Charts.Factory&#45;&gt;Valadoc.Charts.SimpleFactory</title>
<path fill="none" stroke="#000000" d="M116.5,-133.5726C116.5,-125.1084 116.5,-116.0593 116.5,-108.4133"/>
<polygon fill="#000000" stroke="#000000" points="113.0001,-133.8313 116.5,-143.8314 120.0001,-133.8314 113.0001,-133.8313"/>
</g>
<!-- GLib.Object -->
<g id="node4" class="node">
<title>GLib.Object</title>
<polygon fill="none" stroke="#000000" stroke-width="2" points="162.5,-252 70.5,-252 70.5,-216 162.5,-216 162.5,-252"/>
<text text-anchor="middle" x="116.5" y="-230.3" font-family="Times" font-size="14.00" fill="#000000">GLib.Object</text>
</g>
<!-- GLib.Object&#45;&gt;Valadoc.Charts.Factory -->
<g id="edge3" class="edge">
<title>GLib.Object&#45;&gt;Valadoc.Charts.Factory</title>
<path fill="none" stroke="#000000" d="M116.5,-205.5726C116.5,-197.1084 116.5,-188.0593 116.5,-180.4133"/>
<polygon fill="#000000" stroke="#000000" points="113.0001,-205.8313 116.5,-215.8314 120.0001,-205.8314 113.0001,-205.8313"/>
</g>
</g>
</svg>
