<?xml version="1.0" encoding="UTF-8" standalone="no"?>
<!DOCTYPE svg PUBLIC "-//W3C//DTD SVG 1.1//EN"
 "http://www.w3.org/Graphics/SVG/1.1/DTD/svg11.dtd">
<!-- Generated by graphviz version 2.40.1 (20161225.0304)
 -->
<!-- Title: Valadoc.WikiScanner Pages: 1 -->
<svg width="242pt" height="116pt"
 viewBox="0.00 0.00 242.00 116.00" xmlns="http://www.w3.org/2000/svg" xmlns:xlink="http://www.w3.org/1999/xlink">
<g id="graph0" class="graph" transform="scale(1 1) rotate(0) translate(4 112)">
<title>Valadoc.WikiScanner</title>
<polygon fill="#ffffff" stroke="transparent" points="-4,4 -4,-112 238,-112 238,4 -4,4"/>
<!-- Valadoc.WikiScanner -->
<g id="node1" class="node">
<title>Valadoc.WikiScanner</title>
<g id="a_node1"><a xlink:href="Valadoc.WikiScanner.html" xlink:title="Valadoc.WikiScanner">
<polygon fill="none" stroke="#000000" stroke-width="2" points="184,-36 34,-36 34,0 184,0 184,-36"/>
<text text-anchor="middle" x="109" y="-14.3" font-family="Times" font-size="14.00" fill="#000000">Valadoc.WikiScanner</text>
</a>
</g>
</g>
<!-- GLib.Object -->
<g id="node2" class="node">
<title>GLib.Object</title>
<polygon fill="none" stroke="#000000" stroke-width="2" points="92,-108 0,-108 0,-72 92,-72 92,-108"/>
<text text-anchor="middle" x="46" y="-86.3" font-family="Times" font-size="14.00" fill="#000000">GLib.Object</text>
</g>
<!-- GLib.Object&#45;&gt;Valadoc.WikiScanner -->
<g id="edge1" class="edge">
<title>GLib.Object&#45;&gt;Valadoc.WikiScanner</title>
<path fill="none" stroke="#000000" d="M68.6693,-64.0923C76.6843,-54.9323 85.5291,-44.8239 92.8884,-36.4133"/>
<polygon fill="#000000" stroke="#000000" points="65.8486,-62.0008 61.8976,-71.8314 71.1167,-66.6103 65.8486,-62.0008"/>
</g>
<!-- Valadoc.Scanner -->
<g id="node3" class="node">
<title>Valadoc.Scanner</title>
<g id="a_node3"><a xlink:href="Valadoc.Scanner.html" xlink:title="Valadoc.Scanner">
<polygon fill="none" stroke="#000000" points="234,-108 110,-108 110,-72 234,-72 234,-108"/>
<text text-anchor="middle" x="172" y="-86.3" font-family="Times" font-size="14.00" fill="#000000">Valadoc.Scanner</text>
</a>
</g>
</g>
<!-- Valadoc.Scanner&#45;&gt;Valadoc.WikiScanner -->
<g id="edge2" class="edge">
<title>Valadoc.Scanner&#45;&gt;Valadoc.WikiScanner</title>
<path fill="none" stroke="#000000" d="M149.3307,-64.0923C141.3157,-54.9323 132.4709,-44.8239 125.1116,-36.4133"/>
<polygon fill="#000000" stroke="#000000" points="146.8833,-66.6103 156.1024,-71.8314 152.1514,-62.0008 146.8833,-66.6103"/>
</g>
</g>
</svg>
