<?xml version="1.0" encoding="UTF-8" standalone="no"?>
<!DOCTYPE svg PUBLIC "-//W3C//DTD SVG 1.1//EN"
 "http://www.w3.org/Graphics/SVG/1.1/DTD/svg11.dtd">
<!-- Generated by graphviz version 2.40.1 (0)
 -->
<!-- Title: Valadoc.Importer.ValadocDocumentationImporter Pages: 1 -->
<svg width="357pt" height="188pt"
 viewBox="0.00 0.00 357.00 188.00" xmlns="http://www.w3.org/2000/svg" xmlns:xlink="http://www.w3.org/1999/xlink">
<g id="graph0" class="graph" transform="scale(1 1) rotate(0) translate(4 184)">
<title>Valadoc.Importer.ValadocDocumentationImporter</title>
<polygon fill="#ffffff" stroke="transparent" points="-4,4 -4,-184 353,-184 353,4 -4,4"/>
<!-- Valadoc.Importer.ValadocDocumentationImporter -->
<g id="node1" class="node">
<title>Valadoc.Importer.ValadocDocumentationImporter</title>
<g id="a_node1"><a xlink:href="Valadoc.Importer.ValadocDocumentationImporter.html" xlink:title="Valadoc.Importer.ValadocDocumentationImporter">
<polygon fill="none" stroke="#000000" stroke-width="2" points="346,-36 54,-36 54,0 346,0 346,-36"/>
<text text-anchor="middle" x="200" y="-14.3" font-family="Times" font-size="14.00" fill="#000000">Valadoc.Importer.ValadocDocumentationImporter</text>
</a>
</g>
</g>
<!-- Valadoc.Importer.DocumentationImporter -->
<g id="node2" class="node">
<title>Valadoc.Importer.DocumentationImporter</title>
<g id="a_node2"><a xlink:href="Valadoc.Importer.DocumentationImporter.html" xlink:title="Valadoc.Importer.DocumentationImporter">
<polygon fill="none" stroke="#000000" stroke-width="2" points="248,-108 0,-108 0,-72 248,-72 248,-108"/>
<text text-anchor="middle" x="124" y="-86.3" font-family="Times" font-size="14.00" fill="#000000">Valadoc.Importer.DocumentationImporter</text>
</a>
</g>
</g>
<!-- Valadoc.Importer.DocumentationImporter&#45;&gt;Valadoc.Importer.ValadocDocumentationImporter -->
<g id="edge1" class="edge">
<title>Valadoc.Importer.DocumentationImporter&#45;&gt;Valadoc.Importer.ValadocDocumentationImporter</title>
<path fill="none" stroke="#000000" d="M150.5291,-64.8672C160.5065,-55.4149 171.6482,-44.8596 180.8281,-36.1628"/>
<polygon fill="#000000" stroke="#000000" points="148.0304,-62.413 143.178,-71.8314 152.8447,-67.4947 148.0304,-62.413"/>
</g>
<!-- GLib.Object -->
<g id="node3" class="node">
<title>GLib.Object</title>
<g id="a_node3"><a xlink:href="../gobject-2.0/GLib.Object.html" xlink:title="GLib.Object">
<polygon fill="none" stroke="#000000" stroke-width="2" points="166.5,-180 81.5,-180 81.5,-144 166.5,-144 166.5,-180"/>
<text text-anchor="middle" x="124" y="-158.3" font-family="Times" font-size="14.00" fill="#000000">GLib.Object</text>
</a>
</g>
</g>
<!-- GLib.Object&#45;&gt;Valadoc.Importer.DocumentationImporter -->
<g id="edge2" class="edge">
<title>GLib.Object&#45;&gt;Valadoc.Importer.DocumentationImporter</title>
<path fill="none" stroke="#000000" d="M124,-133.5726C124,-125.1084 124,-116.0593 124,-108.4133"/>
<polygon fill="#000000" stroke="#000000" points="120.5001,-133.8313 124,-143.8314 127.5001,-133.8314 120.5001,-133.8313"/>
</g>
<!-- Valadoc.ResourceLocator -->
<g id="node4" class="node">
<title>Valadoc.ResourceLocator</title>
<g id="a_node4"><a xlink:href="Valadoc.ResourceLocator.html" xlink:title="Valadoc.ResourceLocator">
<polygon fill="none" stroke="#000000" points="349,-180 191,-180 191,-144 349,-144 349,-180"/>
<text text-anchor="middle" x="270" y="-158.3" font-family="Times" font-size="14.00" fill="#000000">Valadoc.ResourceLocator</text>
</a>
</g>
</g>
<!-- Valadoc.ResourceLocator&#45;&gt;Valadoc.Importer.ValadocDocumentationImporter -->
<g id="edge4" class="edge">
<title>Valadoc.ResourceLocator&#45;&gt;Valadoc.Importer.ValadocDocumentationImporter</title>
<path fill="none" stroke="#000000" d="M270.6092,-133.544C269.901,-115.0678 266.8333,-90.9836 257,-72 249.7271,-57.9593 237.3419,-45.5556 225.9707,-36.1882"/>
<polygon fill="#000000" stroke="#000000" points="267.1123,-133.7563 270.7869,-143.6935 274.1113,-133.6337 267.1123,-133.7563"/>
</g>
<!-- Valadoc.ResourceLocator&#45;&gt;Valadoc.Importer.DocumentationImporter -->
<g id="edge3" class="edge">
<title>Valadoc.ResourceLocator&#45;&gt;Valadoc.Importer.DocumentationImporter</title>
<path fill="none" stroke="#000000" d="M224.0177,-139.3238C203.5581,-129.2341 179.8019,-117.5187 160.577,-108.038"/>
<polygon fill="#000000" stroke="#000000" points="222.6413,-142.5474 233.158,-143.8314 225.7374,-136.2693 222.6413,-142.5474"/>
</g>
</g>
</svg>
