<?xml version="1.0" encoding="UTF-8" standalone="no"?>
<!DOCTYPE svg PUBLIC "-//W3C//DTD SVG 1.1//EN"
 "http://www.w3.org/Graphics/SVG/1.1/DTD/svg11.dtd">
<!-- Generated by graphviz version 2.40.1 (20161225.0304)
 -->
<!-- Title: Valadoc.Gtkdoc.MarkdownScanner Pages: 1 -->
<svg width="254pt" height="116pt"
 viewBox="0.00 0.00 254.00 116.00" xmlns="http://www.w3.org/2000/svg" xmlns:xlink="http://www.w3.org/1999/xlink">
<g id="graph0" class="graph" transform="scale(1 1) rotate(0) translate(4 112)">
<title>Valadoc.Gtkdoc.MarkdownScanner</title>
<polygon fill="#ffffff" stroke="transparent" points="-4,4 -4,-112 250,-112 250,4 -4,4"/>
<!-- Valadoc.Gtkdoc.MarkdownScanner -->
<g id="node1" class="node">
<title>Valadoc.Gtkdoc.MarkdownScanner</title>
<g id="a_node1"><a xlink:href="Valadoc.Gtkdoc.MarkdownScanner.html" xlink:title="Valadoc.Gtkdoc.MarkdownScanner">
<polygon fill="none" stroke="#000000" stroke-width="2" points="242,-36 0,-36 0,0 242,0 242,-36"/>
<text text-anchor="middle" x="121" y="-14.3" font-family="Times" font-size="14.00" fill="#000000">Valadoc.Gtkdoc.MarkdownScanner</text>
</a>
</g>
</g>
<!-- GLib.Object -->
<g id="node2" class="node">
<title>GLib.Object</title>
<polygon fill="none" stroke="#000000" stroke-width="2" points="104,-108 12,-108 12,-72 104,-72 104,-108"/>
<text text-anchor="middle" x="58" y="-86.3" font-family="Times" font-size="14.00" fill="#000000">GLib.Object</text>
</g>
<!-- GLib.Object&#45;&gt;Valadoc.Gtkdoc.MarkdownScanner -->
<g id="edge1" class="edge">
<title>GLib.Object&#45;&gt;Valadoc.Gtkdoc.MarkdownScanner</title>
<path fill="none" stroke="#000000" d="M80.6693,-64.0923C88.6843,-54.9323 97.5291,-44.8239 104.8884,-36.4133"/>
<polygon fill="#000000" stroke="#000000" points="77.8486,-62.0008 73.8976,-71.8314 83.1167,-66.6103 77.8486,-62.0008"/>
</g>
<!-- Valadoc.Scanner -->
<g id="node3" class="node">
<title>Valadoc.Scanner</title>
<g id="a_node3"><a xlink:href="Valadoc.Scanner.html" xlink:title="Valadoc.Scanner">
<polygon fill="none" stroke="#000000" points="246,-108 122,-108 122,-72 246,-72 246,-108"/>
<text text-anchor="middle" x="184" y="-86.3" font-family="Times" font-size="14.00" fill="#000000">Valadoc.Scanner</text>
</a>
</g>
</g>
<!-- Valadoc.Scanner&#45;&gt;Valadoc.Gtkdoc.MarkdownScanner -->
<g id="edge2" class="edge">
<title>Valadoc.Scanner&#45;&gt;Valadoc.Gtkdoc.MarkdownScanner</title>
<path fill="none" stroke="#000000" d="M161.3307,-64.0923C153.3157,-54.9323 144.4709,-44.8239 137.1116,-36.4133"/>
<polygon fill="#000000" stroke="#000000" points="158.8833,-66.6103 168.1024,-71.8314 164.1514,-62.0008 158.8833,-66.6103"/>
</g>
</g>
</svg>
