<?xml version="1.0" encoding="UTF-8" standalone="no"?>
<!DOCTYPE svg PUBLIC "-//W3C//DTD SVG 1.1//EN"
 "http://www.w3.org/Graphics/SVG/1.1/DTD/svg11.dtd">
<!-- Generated by graphviz version 2.40.1 (20161225.0304)
 -->
<!-- Title: Valadoc.Content.TableCell Pages: 1 -->
<svg width="473pt" height="260pt"
 viewBox="0.00 0.00 473.00 260.00" xmlns="http://www.w3.org/2000/svg" xmlns:xlink="http://www.w3.org/1999/xlink">
<g id="graph0" class="graph" transform="scale(1 1) rotate(0) translate(4 256)">
<title>Valadoc.Content.TableCell</title>
<polygon fill="#ffffff" stroke="transparent" points="-4,4 -4,-256 469,-256 469,4 -4,4"/>
<!-- Valadoc.Content.TableCell -->
<g id="node1" class="node">
<title>Valadoc.Content.TableCell</title>
<g id="a_node1"><a xlink:href="Valadoc.Content.TableCell.html" xlink:title="Valadoc.Content.TableCell">
<polygon fill="none" stroke="#000000" stroke-width="2" points="325,-36 143,-36 143,0 325,0 325,-36"/>
<text text-anchor="middle" x="234" y="-14.3" font-family="Times" font-size="14.00" fill="#000000">Valadoc.Content.TableCell</text>
</a>
</g>
</g>
<!-- Valadoc.Content.InlineContent -->
<g id="node2" class="node">
<title>Valadoc.Content.InlineContent</title>
<g id="a_node2"><a xlink:href="Valadoc.Content.InlineContent.html" xlink:title="Valadoc.Content.InlineContent">
<polygon fill="none" stroke="#000000" stroke-width="2" points="222.5,-108 7.5,-108 7.5,-72 222.5,-72 222.5,-108"/>
<text text-anchor="middle" x="115" y="-86.3" font-family="Times" font-size="14.00" fill="#000000">Valadoc.Content.InlineContent</text>
</a>
</g>
</g>
<!-- Valadoc.Content.InlineContent&#45;&gt;Valadoc.Content.TableCell -->
<g id="edge1" class="edge">
<title>Valadoc.Content.InlineContent&#45;&gt;Valadoc.Content.TableCell</title>
<path fill="none" stroke="#000000" d="M153.802,-66.5232C170.0985,-56.6631 188.7615,-45.3712 203.9809,-36.1628"/>
<polygon fill="#000000" stroke="#000000" points="151.7727,-63.6601 145.0287,-71.8314 155.3964,-69.6492 151.7727,-63.6601"/>
</g>
<!-- Valadoc.Content.ContentElement -->
<g id="node3" class="node">
<title>Valadoc.Content.ContentElement</title>
<g id="a_node3"><a xlink:href="Valadoc.Content.ContentElement.html" xlink:title="Valadoc.Content.ContentElement">
<polygon fill="none" stroke="#000000" stroke-width="2" points="230,-180 0,-180 0,-144 230,-144 230,-180"/>
<text text-anchor="middle" x="115" y="-158.3" font-family="Times" font-size="14.00" fill="#000000">Valadoc.Content.ContentElement</text>
</a>
</g>
</g>
<!-- Valadoc.Content.ContentElement&#45;&gt;Valadoc.Content.InlineContent -->
<g id="edge2" class="edge">
<title>Valadoc.Content.ContentElement&#45;&gt;Valadoc.Content.InlineContent</title>
<path fill="none" stroke="#000000" d="M115,-133.5726C115,-125.1084 115,-116.0593 115,-108.4133"/>
<polygon fill="#000000" stroke="#000000" points="111.5001,-133.8313 115,-143.8314 118.5001,-133.8314 111.5001,-133.8313"/>
</g>
<!-- GLib.Object -->
<g id="node4" class="node">
<title>GLib.Object</title>
<polygon fill="none" stroke="#000000" stroke-width="2" points="161,-252 69,-252 69,-216 161,-216 161,-252"/>
<text text-anchor="middle" x="115" y="-230.3" font-family="Times" font-size="14.00" fill="#000000">GLib.Object</text>
</g>
<!-- GLib.Object&#45;&gt;Valadoc.Content.ContentElement -->
<g id="edge3" class="edge">
<title>GLib.Object&#45;&gt;Valadoc.Content.ContentElement</title>
<path fill="none" stroke="#000000" d="M115,-205.5726C115,-197.1084 115,-188.0593 115,-180.4133"/>
<polygon fill="#000000" stroke="#000000" points="111.5001,-205.8313 115,-215.8314 118.5001,-205.8314 111.5001,-205.8313"/>
</g>
<!-- Valadoc.Content.StyleAttributes -->
<g id="node5" class="node">
<title>Valadoc.Content.StyleAttributes</title>
<g id="a_node5"><a xlink:href="Valadoc.Content.StyleAttributes.html" xlink:title="Valadoc.Content.StyleAttributes">
<polygon fill="none" stroke="#000000" points="465,-108 241,-108 241,-72 465,-72 465,-108"/>
<text text-anchor="middle" x="353" y="-86.3" font-family="Times" font-size="14.00" fill="#000000">Valadoc.Content.StyleAttributes</text>
</a>
</g>
</g>
<!-- Valadoc.Content.StyleAttributes&#45;&gt;Valadoc.Content.TableCell -->
<g id="edge4" class="edge">
<title>Valadoc.Content.StyleAttributes&#45;&gt;Valadoc.Content.TableCell</title>
<path fill="none" stroke="#000000" d="M314.198,-66.5232C297.9015,-56.6631 279.2385,-45.3712 264.0191,-36.1628"/>
<polygon fill="#000000" stroke="#000000" points="312.6036,-69.6492 322.9713,-71.8314 316.2273,-63.6601 312.6036,-69.6492"/>
</g>
</g>
</svg>
