<?xml version="1.0" encoding="UTF-8" standalone="no"?>
<!DOCTYPE svg PUBLIC "-//W3C//DTD SVG 1.1//EN"
 "http://www.w3.org/Graphics/SVG/1.1/DTD/svg11.dtd">
<!-- Generated by graphviz version 2.42.3 (0)
 -->
<!-- Title: Valadoc.Importer.DocumentationImporter Pages: 1 -->
<svg width="281pt" height="116pt"
 viewBox="0.00 0.00 281.00 116.00" xmlns="http://www.w3.org/2000/svg" xmlns:xlink="http://www.w3.org/1999/xlink">
<g id="graph0" class="graph" transform="scale(1 1) rotate(0) translate(4 112)">
<title>Valadoc.Importer.DocumentationImporter</title>
<polygon fill="white" stroke="transparent" points="-4,4 -4,-112 277,-112 277,4 -4,4"/>
<!-- Valadoc.Importer.DocumentationImporter -->
<g id="node1" class="node">
<title>Valadoc.Importer.DocumentationImporter</title>
<g id="a_node1"><a xlink:href="Valadoc.Importer.DocumentationImporter.html" xlink:title="Valadoc.Importer.DocumentationImporter">
<polygon fill="none" stroke="black" stroke-width="2" points="248,-36 0,-36 0,0 248,0 248,-36"/>
<text text-anchor="middle" x="124" y="-14.3" font-family="Times" font-size="14.00">Valadoc.Importer.DocumentationImporter</text>
</a>
</g>
</g>
<!-- GLib.Object -->
<g id="node2" class="node">
<title>GLib.Object</title>
<g id="a_node2"><a xlink:href="../gobject-2.0/GLib.Object.html" xlink:title="GLib.Object">
<polygon fill="none" stroke="black" stroke-width="2" points="96.5,-108 11.5,-108 11.5,-72 96.5,-72 96.5,-108"/>
<text text-anchor="middle" x="54" y="-86.3" font-family="Times" font-size="14.00">GLib.Object</text>
</a>
</g>
</g>
<!-- GLib.Object&#45;&gt;Valadoc.Importer.DocumentationImporter -->
<g id="edge1" class="edge">
<title>GLib.Object&#45;&gt;Valadoc.Importer.DocumentationImporter</title>
<path fill="none" stroke="black" d="M78.52,-64.48C87.89,-55.11 98.36,-44.64 106.9,-36.1"/>
<polygon fill="black" stroke="black" points="75.9,-62.15 71.3,-71.7 80.85,-67.1 75.9,-62.15"/>
</g>
<!-- Valadoc.ResourceLocator -->
<g id="node3" class="node">
<title>Valadoc.ResourceLocator</title>
<g id="a_node3"><a xlink:href="Valadoc.ResourceLocator.html" xlink:title="Valadoc.ResourceLocator">
<polygon fill="none" stroke="black" points="273,-108 115,-108 115,-72 273,-72 273,-108"/>
<text text-anchor="middle" x="194" y="-86.3" font-family="Times" font-size="14.00">Valadoc.ResourceLocator</text>
</a>
</g>
</g>
<!-- Valadoc.ResourceLocator&#45;&gt;Valadoc.Importer.DocumentationImporter -->
<g id="edge2" class="edge">
<title>Valadoc.ResourceLocator&#45;&gt;Valadoc.Importer.DocumentationImporter</title>
<path fill="none" stroke="black" d="M169.48,-64.48C160.11,-55.11 149.64,-44.64 141.1,-36.1"/>
<polygon fill="black" stroke="black" points="167.15,-67.1 176.7,-71.7 172.1,-62.15 167.15,-67.1"/>
</g>
</g>
</svg>
