<?xml version="1.0" encoding="UTF-8" standalone="no"?>
<!DOCTYPE svg PUBLIC "-//W3C//DTD SVG 1.1//EN"
 "http://www.w3.org/Graphics/SVG/1.1/DTD/svg11.dtd">
<!-- Generated by graphviz version 2.40.1 (20161225.0304)
 -->
<!-- Title: Valadoc.Taglets.See Pages: 1 -->
<svg width="600pt" height="188pt"
 viewBox="0.00 0.00 600.00 188.00" xmlns="http://www.w3.org/2000/svg" xmlns:xlink="http://www.w3.org/1999/xlink">
<g id="graph0" class="graph" transform="scale(1 1) rotate(0) translate(4 184)">
<title>Valadoc.Taglets.See</title>
<polygon fill="#ffffff" stroke="transparent" points="-4,4 -4,-184 596,-184 596,4 -4,4"/>
<!-- Valadoc.Taglets.See -->
<g id="node1" class="node">
<title>Valadoc.Taglets.See</title>
<g id="a_node1"><a xlink:href="Valadoc.Taglets.See.html" xlink:title="Valadoc.Taglets.See">
<polygon fill="none" stroke="#000000" stroke-width="2" points="401,-36 259,-36 259,0 401,0 401,-36"/>
<text text-anchor="middle" x="330" y="-14.3" font-family="Times" font-size="14.00" fill="#000000">Valadoc.Taglets.See</text>
</a>
</g>
</g>
<!-- Valadoc.Content.ContentElement -->
<g id="node2" class="node">
<title>Valadoc.Content.ContentElement</title>
<g id="a_node2"><a xlink:href="Valadoc.Content.ContentElement.html" xlink:title="Valadoc.Content.ContentElement">
<polygon fill="none" stroke="#000000" stroke-width="2" points="230,-108 0,-108 0,-72 230,-72 230,-108"/>
<text text-anchor="middle" x="115" y="-86.3" font-family="Times" font-size="14.00" fill="#000000">Valadoc.Content.ContentElement</text>
</a>
</g>
</g>
<!-- Valadoc.Content.ContentElement&#45;&gt;Valadoc.Taglets.See -->
<g id="edge1" class="edge">
<title>Valadoc.Content.ContentElement&#45;&gt;Valadoc.Taglets.See</title>
<path fill="none" stroke="#000000" d="M178.7978,-68.6351C209.7294,-58.2767 246.4786,-45.97 276.0017,-36.0831"/>
<polygon fill="#000000" stroke="#000000" points="177.347,-65.4299 168.9761,-71.9243 179.5699,-72.0676 177.347,-65.4299"/>
</g>
<!-- GLib.Object -->
<g id="node3" class="node">
<title>GLib.Object</title>
<polygon fill="none" stroke="#000000" stroke-width="2" points="161,-180 69,-180 69,-144 161,-144 161,-180"/>
<text text-anchor="middle" x="115" y="-158.3" font-family="Times" font-size="14.00" fill="#000000">GLib.Object</text>
</g>
<!-- GLib.Object&#45;&gt;Valadoc.Content.ContentElement -->
<g id="edge2" class="edge">
<title>GLib.Object&#45;&gt;Valadoc.Content.ContentElement</title>
<path fill="none" stroke="#000000" d="M115,-133.5726C115,-125.1084 115,-116.0593 115,-108.4133"/>
<polygon fill="#000000" stroke="#000000" points="111.5001,-133.8313 115,-143.8314 118.5001,-133.8314 111.5001,-133.8313"/>
</g>
<!-- Valadoc.Content.Taglet -->
<g id="node4" class="node">
<title>Valadoc.Content.Taglet</title>
<g id="a_node4"><a xlink:href="Valadoc.Content.Taglet.html" xlink:title="Valadoc.Content.Taglet">
<polygon fill="none" stroke="#000000" points="412,-108 248,-108 248,-72 412,-72 412,-108"/>
<text text-anchor="middle" x="330" y="-86.3" font-family="Times" font-size="14.00" fill="#000000">Valadoc.Content.Taglet</text>
</a>
</g>
</g>
<!-- Valadoc.Content.Taglet&#45;&gt;Valadoc.Taglets.See -->
<g id="edge3" class="edge">
<title>Valadoc.Content.Taglet&#45;&gt;Valadoc.Taglets.See</title>
<path fill="none" stroke="#000000" d="M330,-61.5726C330,-53.1084 330,-44.0593 330,-36.4133"/>
<polygon fill="#000000" stroke="#000000" points="326.5001,-61.8313 330,-71.8314 333.5001,-61.8314 326.5001,-61.8313"/>
</g>
<!-- Valadoc.Content.Block -->
<g id="node5" class="node">
<title>Valadoc.Content.Block</title>
<g id="a_node5"><a xlink:href="Valadoc.Content.Block.html" xlink:title="Valadoc.Content.Block">
<polygon fill="none" stroke="#000000" points="592,-108 430,-108 430,-72 592,-72 592,-108"/>
<text text-anchor="middle" x="511" y="-86.3" font-family="Times" font-size="14.00" fill="#000000">Valadoc.Content.Block</text>
</a>
</g>
</g>
<!-- Valadoc.Content.Block&#45;&gt;Valadoc.Taglets.See -->
<g id="edge4" class="edge">
<title>Valadoc.Content.Block&#45;&gt;Valadoc.Taglets.See</title>
<path fill="none" stroke="#000000" d="M455.7021,-68.003C429.9597,-57.763 399.7159,-45.7323 375.3455,-36.038"/>
<polygon fill="#000000" stroke="#000000" points="454.7405,-71.3872 465.3261,-71.8314 457.3279,-64.883 454.7405,-71.3872"/>
</g>
</g>
</svg>
