<?xml version="1.0" encoding="UTF-8" standalone="no"?>
<!DOCTYPE svg PUBLIC "-//W3C//DTD SVG 1.1//EN"
 "http://www.w3.org/Graphics/SVG/1.1/DTD/svg11.dtd">
<!-- Generated by graphviz version 2.40.1 (20161225.0304)
 -->
<!-- Title: Valadoc.Charts.Hierarchy Pages: 1 -->
<svg width="188pt" height="260pt"
 viewBox="0.00 0.00 188.00 260.00" xmlns="http://www.w3.org/2000/svg" xmlns:xlink="http://www.w3.org/1999/xlink">
<g id="graph0" class="graph" transform="scale(1 1) rotate(0) translate(4 256)">
<title>Valadoc.Charts.Hierarchy</title>
<polygon fill="#ffffff" stroke="transparent" points="-4,4 -4,-256 184,-256 184,4 -4,4"/>
<!-- Valadoc.Charts.Hierarchy -->
<g id="node1" class="node">
<title>Valadoc.Charts.Hierarchy</title>
<g id="a_node1"><a xlink:href="Valadoc.Charts.Hierarchy.html" xlink:title="Valadoc.Charts.Hierarchy">
<polygon fill="none" stroke="#000000" stroke-width="2" points="180,-36 0,-36 0,0 180,0 180,-36"/>
<text text-anchor="middle" x="90" y="-14.3" font-family="Times" font-size="14.00" fill="#000000">Valadoc.Charts.Hierarchy</text>
</a>
</g>
</g>
<!-- Valadoc.Charts.Chart -->
<g id="node2" class="node">
<title>Valadoc.Charts.Chart</title>
<g id="a_node2"><a xlink:href="Valadoc.Charts.Chart.html" xlink:title="Valadoc.Charts.Chart">
<polygon fill="none" stroke="#000000" stroke-width="2" points="166.5,-108 13.5,-108 13.5,-72 166.5,-72 166.5,-108"/>
<text text-anchor="middle" x="90" y="-86.3" font-family="Times" font-size="14.00" fill="#000000">Valadoc.Charts.Chart</text>
</a>
</g>
</g>
<!-- Valadoc.Charts.Chart&#45;&gt;Valadoc.Charts.Hierarchy -->
<g id="edge1" class="edge">
<title>Valadoc.Charts.Chart&#45;&gt;Valadoc.Charts.Hierarchy</title>
<path fill="none" stroke="#000000" d="M90,-61.5726C90,-53.1084 90,-44.0593 90,-36.4133"/>
<polygon fill="#000000" stroke="#000000" points="86.5001,-61.8313 90,-71.8314 93.5001,-61.8314 86.5001,-61.8313"/>
</g>
<!-- Valadoc.Api.Visitor -->
<g id="node3" class="node">
<title>Valadoc.Api.Visitor</title>
<g id="a_node3"><a xlink:href="Valadoc.Api.Visitor.html" xlink:title="Valadoc.Api.Visitor">
<polygon fill="none" stroke="#000000" stroke-width="2" points="158.5,-180 21.5,-180 21.5,-144 158.5,-144 158.5,-180"/>
<text text-anchor="middle" x="90" y="-158.3" font-family="Times" font-size="14.00" fill="#000000">Valadoc.Api.Visitor</text>
</a>
</g>
</g>
<!-- Valadoc.Api.Visitor&#45;&gt;Valadoc.Charts.Chart -->
<g id="edge2" class="edge">
<title>Valadoc.Api.Visitor&#45;&gt;Valadoc.Charts.Chart</title>
<path fill="none" stroke="#000000" d="M90,-133.5726C90,-125.1084 90,-116.0593 90,-108.4133"/>
<polygon fill="#000000" stroke="#000000" points="86.5001,-133.8313 90,-143.8314 93.5001,-133.8314 86.5001,-133.8313"/>
</g>
<!-- GLib.Object -->
<g id="node4" class="node">
<title>GLib.Object</title>
<polygon fill="none" stroke="#000000" stroke-width="2" points="136,-252 44,-252 44,-216 136,-216 136,-252"/>
<text text-anchor="middle" x="90" y="-230.3" font-family="Times" font-size="14.00" fill="#000000">GLib.Object</text>
</g>
<!-- GLib.Object&#45;&gt;Valadoc.Api.Visitor -->
<g id="edge3" class="edge">
<title>GLib.Object&#45;&gt;Valadoc.Api.Visitor</title>
<path fill="none" stroke="#000000" d="M90,-205.5726C90,-197.1084 90,-188.0593 90,-180.4133"/>
<polygon fill="#000000" stroke="#000000" points="86.5001,-205.8313 90,-215.8314 93.5001,-205.8314 86.5001,-205.8313"/>
</g>
</g>
</svg>
