<?xml version="1.0" encoding="UTF-8" standalone="no"?>
<!DOCTYPE svg PUBLIC "-//W3C//DTD SVG 1.1//EN"
 "http://www.w3.org/Graphics/SVG/1.1/DTD/svg11.dtd">
<!-- Generated by graphviz version 2.40.1 (0)
 -->
<!-- Title: Valadoc.Gtkdoc.MarkdownParser Pages: 1 -->
<svg width="270pt" height="116pt"
 viewBox="0.00 0.00 269.50 116.00" xmlns="http://www.w3.org/2000/svg" xmlns:xlink="http://www.w3.org/1999/xlink">
<g id="graph0" class="graph" transform="scale(1 1) rotate(0) translate(4 112)">
<title>Valadoc.Gtkdoc.MarkdownParser</title>
<polygon fill="#ffffff" stroke="transparent" points="-4,4 -4,-112 265.5,-112 265.5,4 -4,4"/>
<!-- Valadoc.Gtkdoc.MarkdownParser -->
<g id="node1" class="node">
<title>Valadoc.Gtkdoc.MarkdownParser</title>
<g id="a_node1"><a xlink:href="Valadoc.Gtkdoc.MarkdownParser.html" xlink:title="Valadoc.Gtkdoc.MarkdownParser">
<polygon fill="none" stroke="#000000" stroke-width="2" points="213.5,-36 11.5,-36 11.5,0 213.5,0 213.5,-36"/>
<text text-anchor="middle" x="112.5" y="-14.3" font-family="Times" font-size="14.00" fill="#000000">Valadoc.Gtkdoc.MarkdownParser</text>
</a>
</g>
</g>
<!-- GLib.Object -->
<g id="node2" class="node">
<title>GLib.Object</title>
<g id="a_node2"><a xlink:href="../gobject-2.0/GLib.Object.html" xlink:title="GLib.Object">
<polygon fill="none" stroke="#000000" stroke-width="2" points="85,-108 0,-108 0,-72 85,-72 85,-108"/>
<text text-anchor="middle" x="42.5" y="-86.3" font-family="Times" font-size="14.00" fill="#000000">GLib.Object</text>
</a>
</g>
</g>
<!-- GLib.Object&#45;&gt;Valadoc.Gtkdoc.MarkdownParser -->
<g id="edge1" class="edge">
<title>GLib.Object&#45;&gt;Valadoc.Gtkdoc.MarkdownParser</title>
<path fill="none" stroke="#000000" d="M67.1495,-64.6463C76.1959,-55.3414 86.256,-44.9938 94.5982,-36.4133"/>
<polygon fill="#000000" stroke="#000000" points="64.6253,-62.2216 60.164,-71.8314 69.6443,-67.1012 64.6253,-62.2216"/>
</g>
<!-- Valadoc.ResourceLocator -->
<g id="node3" class="node">
<title>Valadoc.ResourceLocator</title>
<g id="a_node3"><a xlink:href="Valadoc.ResourceLocator.html" xlink:title="Valadoc.ResourceLocator">
<polygon fill="none" stroke="#000000" points="261.5,-108 103.5,-108 103.5,-72 261.5,-72 261.5,-108"/>
<text text-anchor="middle" x="182.5" y="-86.3" font-family="Times" font-size="14.00" fill="#000000">Valadoc.ResourceLocator</text>
</a>
</g>
</g>
<!-- Valadoc.ResourceLocator&#45;&gt;Valadoc.Gtkdoc.MarkdownParser -->
<g id="edge2" class="edge">
<title>Valadoc.ResourceLocator&#45;&gt;Valadoc.Gtkdoc.MarkdownParser</title>
<path fill="none" stroke="#000000" d="M157.8505,-64.6463C148.8041,-55.3414 138.744,-44.9938 130.4018,-36.4133"/>
<polygon fill="#000000" stroke="#000000" points="155.3557,-67.1012 164.836,-71.8314 160.3747,-62.2216 155.3557,-67.1012"/>
</g>
</g>
</svg>
