<?xml version="1.0" encoding="UTF-8" standalone="no"?>
<!DOCTYPE svg PUBLIC "-//W3C//DTD SVG 1.1//EN"
 "http://www.w3.org/Graphics/SVG/1.1/DTD/svg11.dtd">
<!-- Generated by graphviz version 2.42.3 (0)
 -->
<!-- Title: Valadoc.Api.TypeReference Pages: 1 -->
<svg width="178pt" height="188pt"
 viewBox="0.00 0.00 178.00 188.00" xmlns="http://www.w3.org/2000/svg" xmlns:xlink="http://www.w3.org/1999/xlink">
<g id="graph0" class="graph" transform="scale(1 1) rotate(0) translate(4 184)">
<title>Valadoc.Api.TypeReference</title>
<polygon fill="white" stroke="transparent" points="-4,4 -4,-184 174,-184 174,4 -4,4"/>
<!-- Valadoc.Api.TypeReference -->
<g id="node1" class="node">
<title>Valadoc.Api.TypeReference</title>
<g id="a_node1"><a xlink:href="Valadoc.Api.TypeReference.html" xlink:title="Valadoc.Api.TypeReference">
<polygon fill="none" stroke="black" stroke-width="2" points="170,-36 0,-36 0,0 170,0 170,-36"/>
<text text-anchor="middle" x="85" y="-14.3" font-family="Times" font-size="14.00">Valadoc.Api.TypeReference</text>
</a>
</g>
</g>
<!-- Valadoc.Api.Item -->
<g id="node2" class="node">
<title>Valadoc.Api.Item</title>
<g id="a_node2"><a xlink:href="Valadoc.Api.Item.html" xlink:title="Valadoc.Api.Item">
<polygon fill="none" stroke="black" stroke-width="2" points="142,-108 28,-108 28,-72 142,-72 142,-108"/>
<text text-anchor="middle" x="85" y="-86.3" font-family="Times" font-size="14.00">Valadoc.Api.Item</text>
</a>
</g>
</g>
<!-- Valadoc.Api.Item&#45;&gt;Valadoc.Api.TypeReference -->
<g id="edge1" class="edge">
<title>Valadoc.Api.Item&#45;&gt;Valadoc.Api.TypeReference</title>
<path fill="none" stroke="black" d="M85,-61.67C85,-53.05 85,-43.79 85,-36.1"/>
<polygon fill="black" stroke="black" points="81.5,-61.7 85,-71.7 88.5,-61.7 81.5,-61.7"/>
</g>
<!-- GLib.Object -->
<g id="node3" class="node">
<title>GLib.Object</title>
<g id="a_node3"><a xlink:href="../gobject-2.0/GLib.Object.html" xlink:title="GLib.Object">
<polygon fill="none" stroke="black" stroke-width="2" points="127.5,-180 42.5,-180 42.5,-144 127.5,-144 127.5,-180"/>
<text text-anchor="middle" x="85" y="-158.3" font-family="Times" font-size="14.00">GLib.Object</text>
</a>
</g>
</g>
<!-- GLib.Object&#45;&gt;Valadoc.Api.Item -->
<g id="edge2" class="edge">
<title>GLib.Object&#45;&gt;Valadoc.Api.Item</title>
<path fill="none" stroke="black" d="M85,-133.67C85,-125.05 85,-115.79 85,-108.1"/>
<polygon fill="black" stroke="black" points="81.5,-133.7 85,-143.7 88.5,-133.7 81.5,-133.7"/>
</g>
</g>
</svg>
