<?xml version="1.0" encoding="UTF-8" standalone="no"?>
<!DOCTYPE svg PUBLIC "-//W3C//DTD SVG 1.1//EN"
 "http://www.w3.org/Graphics/SVG/1.1/DTD/svg11.dtd">
<!-- Generated by graphviz version 2.40.1 (0)
 -->
<!-- Title: Valadoc.Api.ChildSymbolRegistrar Pages: 1 -->
<svg width="219pt" height="188pt"
 viewBox="0.00 0.00 219.00 188.00" xmlns="http://www.w3.org/2000/svg" xmlns:xlink="http://www.w3.org/1999/xlink">
<g id="graph0" class="graph" transform="scale(1 1) rotate(0) translate(4 184)">
<title>Valadoc.Api.ChildSymbolRegistrar</title>
<polygon fill="#ffffff" stroke="transparent" points="-4,4 -4,-184 215,-184 215,4 -4,4"/>
<!-- Valadoc.Api.ChildSymbolRegistrar -->
<g id="node1" class="node">
<title>Valadoc.Api.ChildSymbolRegistrar</title>
<g id="a_node1"><a xlink:href="Valadoc.Api.ChildSymbolRegistrar.html" xlink:title="Valadoc.Api.ChildSymbolRegistrar">
<polygon fill="none" stroke="#000000" stroke-width="2" points="211,-36 0,-36 0,0 211,0 211,-36"/>
<text text-anchor="middle" x="105.5" y="-14.3" font-family="Times" font-size="14.00" fill="#000000">Valadoc.Api.ChildSymbolRegistrar</text>
</a>
</g>
</g>
<!-- Valadoc.Api.Visitor -->
<g id="node2" class="node">
<title>Valadoc.Api.Visitor</title>
<g id="a_node2"><a xlink:href="Valadoc.Api.Visitor.html" xlink:title="Valadoc.Api.Visitor">
<polygon fill="none" stroke="#000000" stroke-width="2" points="168.5,-108 42.5,-108 42.5,-72 168.5,-72 168.5,-108"/>
<text text-anchor="middle" x="105.5" y="-86.3" font-family="Times" font-size="14.00" fill="#000000">Valadoc.Api.Visitor</text>
</a>
</g>
</g>
<!-- Valadoc.Api.Visitor&#45;&gt;Valadoc.Api.ChildSymbolRegistrar -->
<g id="edge1" class="edge">
<title>Valadoc.Api.Visitor&#45;&gt;Valadoc.Api.ChildSymbolRegistrar</title>
<path fill="none" stroke="#000000" d="M105.5,-61.5726C105.5,-53.1084 105.5,-44.0593 105.5,-36.4133"/>
<polygon fill="#000000" stroke="#000000" points="102.0001,-61.8313 105.5,-71.8314 109.0001,-61.8314 102.0001,-61.8313"/>
</g>
<!-- GLib.Object -->
<g id="node3" class="node">
<title>GLib.Object</title>
<g id="a_node3"><a xlink:href="../gobject-2.0/GLib.Object.html" xlink:title="GLib.Object">
<polygon fill="none" stroke="#000000" stroke-width="2" points="148,-180 63,-180 63,-144 148,-144 148,-180"/>
<text text-anchor="middle" x="105.5" y="-158.3" font-family="Times" font-size="14.00" fill="#000000">GLib.Object</text>
</a>
</g>
</g>
<!-- GLib.Object&#45;&gt;Valadoc.Api.Visitor -->
<g id="edge2" class="edge">
<title>GLib.Object&#45;&gt;Valadoc.Api.Visitor</title>
<path fill="none" stroke="#000000" d="M105.5,-133.5726C105.5,-125.1084 105.5,-116.0593 105.5,-108.4133"/>
<polygon fill="#000000" stroke="#000000" points="102.0001,-133.8313 105.5,-143.8314 109.0001,-133.8314 102.0001,-133.8313"/>
</g>
</g>
</svg>
