<?xml version="1.0" encoding="UTF-8" standalone="no"?>
<!DOCTYPE svg PUBLIC "-//W3C//DTD SVG 1.1//EN"
 "http://www.w3.org/Graphics/SVG/1.1/DTD/svg11.dtd">
<!-- Generated by graphviz version 2.40.1 (0)
 -->
<!-- Title: Valadoc.Api.Signal Pages: 1 -->
<svg width="358pt" height="332pt"
 viewBox="0.00 0.00 358.00 332.00" xmlns="http://www.w3.org/2000/svg" xmlns:xlink="http://www.w3.org/1999/xlink">
<g id="graph0" class="graph" transform="scale(1 1) rotate(0) translate(4 328)">
<title>Valadoc.Api.Signal</title>
<polygon fill="#ffffff" stroke="transparent" points="-4,4 -4,-328 354,-328 354,4 -4,4"/>
<!-- Valadoc.Api.Signal -->
<g id="node1" class="node">
<title>Valadoc.Api.Signal</title>
<g id="a_node1"><a xlink:href="Valadoc.Api.Signal.html" xlink:title="Valadoc.Api.Signal">
<polygon fill="none" stroke="#000000" stroke-width="2" points="268.5,-36 145.5,-36 145.5,0 268.5,0 268.5,-36"/>
<text text-anchor="middle" x="207" y="-14.3" font-family="Times" font-size="14.00" fill="#000000">Valadoc.Api.Signal</text>
</a>
</g>
</g>
<!-- Valadoc.Api.Symbol -->
<g id="node2" class="node">
<title>Valadoc.Api.Symbol</title>
<g id="a_node2"><a xlink:href="Valadoc.Api.Symbol.html" xlink:title="Valadoc.Api.Symbol">
<polygon fill="none" stroke="#000000" stroke-width="2" points="197.5,-108 66.5,-108 66.5,-72 197.5,-72 197.5,-108"/>
<text text-anchor="middle" x="132" y="-86.3" font-family="Times" font-size="14.00" fill="#000000">Valadoc.Api.Symbol</text>
</a>
</g>
</g>
<!-- Valadoc.Api.Symbol&#45;&gt;Valadoc.Api.Signal -->
<g id="edge1" class="edge">
<title>Valadoc.Api.Symbol&#45;&gt;Valadoc.Api.Signal</title>
<path fill="none" stroke="#000000" d="M158.18,-64.8672C168.0262,-55.4149 179.0212,-44.8596 188.0804,-36.1628"/>
<polygon fill="#000000" stroke="#000000" points="155.7157,-62.3811 150.9257,-71.8314 160.5634,-67.4309 155.7157,-62.3811"/>
</g>
<!-- Valadoc.Api.Node -->
<g id="node3" class="node">
<title>Valadoc.Api.Node</title>
<g id="a_node3"><a xlink:href="Valadoc.Api.Node.html" xlink:title="Valadoc.Api.Node">
<polygon fill="none" stroke="#000000" stroke-width="2" points="191,-180 73,-180 73,-144 191,-144 191,-180"/>
<text text-anchor="middle" x="132" y="-158.3" font-family="Times" font-size="14.00" fill="#000000">Valadoc.Api.Node</text>
</a>
</g>
</g>
<!-- Valadoc.Api.Node&#45;&gt;Valadoc.Api.Symbol -->
<g id="edge2" class="edge">
<title>Valadoc.Api.Node&#45;&gt;Valadoc.Api.Symbol</title>
<path fill="none" stroke="#000000" d="M132,-133.5726C132,-125.1084 132,-116.0593 132,-108.4133"/>
<polygon fill="#000000" stroke="#000000" points="128.5001,-133.8313 132,-143.8314 135.5001,-133.8314 128.5001,-133.8313"/>
</g>
<!-- Valadoc.Api.Item -->
<g id="node4" class="node">
<title>Valadoc.Api.Item</title>
<g id="a_node4"><a xlink:href="Valadoc.Api.Item.html" xlink:title="Valadoc.Api.Item">
<polygon fill="none" stroke="#000000" stroke-width="2" points="114,-252 0,-252 0,-216 114,-216 114,-252"/>
<text text-anchor="middle" x="57" y="-230.3" font-family="Times" font-size="14.00" fill="#000000">Valadoc.Api.Item</text>
</a>
</g>
</g>
<!-- Valadoc.Api.Item&#45;&gt;Valadoc.Api.Node -->
<g id="edge3" class="edge">
<title>Valadoc.Api.Item&#45;&gt;Valadoc.Api.Node</title>
<path fill="none" stroke="#000000" d="M83.18,-208.8672C93.0262,-199.4149 104.0212,-188.8596 113.0804,-180.1628"/>
<polygon fill="#000000" stroke="#000000" points="80.7157,-206.3811 75.9257,-215.8314 85.5634,-211.4309 80.7157,-206.3811"/>
</g>
<!-- GLib.Object -->
<g id="node5" class="node">
<title>GLib.Object</title>
<g id="a_node5"><a xlink:href="../gobject-2.0/GLib.Object.html" xlink:title="GLib.Object">
<polygon fill="none" stroke="#000000" stroke-width="2" points="99.5,-324 14.5,-324 14.5,-288 99.5,-288 99.5,-324"/>
<text text-anchor="middle" x="57" y="-302.3" font-family="Times" font-size="14.00" fill="#000000">GLib.Object</text>
</a>
</g>
</g>
<!-- GLib.Object&#45;&gt;Valadoc.Api.Item -->
<g id="edge4" class="edge">
<title>GLib.Object&#45;&gt;Valadoc.Api.Item</title>
<path fill="none" stroke="#000000" d="M57,-277.5726C57,-269.1084 57,-260.0593 57,-252.4133"/>
<polygon fill="#000000" stroke="#000000" points="53.5001,-277.8313 57,-287.8314 60.5001,-277.8314 53.5001,-277.8313"/>
</g>
<!-- Valadoc.Documentation -->
<g id="node6" class="node">
<title>Valadoc.Documentation</title>
<g id="a_node6"><a xlink:href="Valadoc.Documentation.html" xlink:title="Valadoc.Documentation">
<polygon fill="none" stroke="#000000" points="281.5,-252 132.5,-252 132.5,-216 281.5,-216 281.5,-252"/>
<text text-anchor="middle" x="207" y="-230.3" font-family="Times" font-size="14.00" fill="#000000">Valadoc.Documentation</text>
</a>
</g>
</g>
<!-- Valadoc.Documentation&#45;&gt;Valadoc.Api.Node -->
<g id="edge5" class="edge">
<title>Valadoc.Documentation&#45;&gt;Valadoc.Api.Node</title>
<path fill="none" stroke="#000000" d="M180.82,-208.8672C170.9738,-199.4149 159.9788,-188.8596 150.9196,-180.1628"/>
<polygon fill="#000000" stroke="#000000" points="178.4366,-211.4309 188.0743,-215.8314 183.2843,-206.3811 178.4366,-211.4309"/>
</g>
<!-- Valadoc.Api.Callable -->
<g id="node7" class="node">
<title>Valadoc.Api.Callable</title>
<g id="a_node7"><a xlink:href="Valadoc.Api.Callable.html" xlink:title="Valadoc.Api.Callable">
<polygon fill="none" stroke="#000000" points="350,-108 216,-108 216,-72 350,-72 350,-108"/>
<text text-anchor="middle" x="283" y="-86.3" font-family="Times" font-size="14.00" fill="#000000">Valadoc.Api.Callable</text>
</a>
</g>
</g>
<!-- Valadoc.Api.Callable&#45;&gt;Valadoc.Api.Signal -->
<g id="edge6" class="edge">
<title>Valadoc.Api.Callable&#45;&gt;Valadoc.Api.Signal</title>
<path fill="none" stroke="#000000" d="M256.4709,-64.8672C246.4935,-55.4149 235.3518,-44.8596 226.1719,-36.1628"/>
<polygon fill="#000000" stroke="#000000" points="254.1553,-67.4947 263.822,-71.8314 258.9696,-62.413 254.1553,-67.4947"/>
</g>
</g>
</svg>
