<?xml version="1.0" encoding="UTF-8" standalone="no"?>
<!DOCTYPE svg PUBLIC "-//W3C//DTD SVG 1.1//EN"
 "http://www.w3.org/Graphics/SVG/1.1/DTD/svg11.dtd">
<!-- Generated by graphviz version 2.40.1 (20161225.0304)
 -->
<!-- Title: Valadoc.Charts.Chart Pages: 1 -->
<svg width="161pt" height="188pt"
 viewBox="0.00 0.00 161.00 188.00" xmlns="http://www.w3.org/2000/svg" xmlns:xlink="http://www.w3.org/1999/xlink">
<g id="graph0" class="graph" transform="scale(1 1) rotate(0) translate(4 184)">
<title>Valadoc.Charts.Chart</title>
<polygon fill="#ffffff" stroke="transparent" points="-4,4 -4,-184 157,-184 157,4 -4,4"/>
<!-- Valadoc.Charts.Chart -->
<g id="node1" class="node">
<title>Valadoc.Charts.Chart</title>
<g id="a_node1"><a xlink:href="Valadoc.Charts.Chart.html" xlink:title="Valadoc.Charts.Chart">
<polygon fill="none" stroke="#000000" stroke-width="2" points="153,-36 0,-36 0,0 153,0 153,-36"/>
<text text-anchor="middle" x="76.5" y="-14.3" font-family="Times" font-size="14.00" fill="#000000">Valadoc.Charts.Chart</text>
</a>
</g>
</g>
<!-- Valadoc.Api.Visitor -->
<g id="node2" class="node">
<title>Valadoc.Api.Visitor</title>
<g id="a_node2"><a xlink:href="Valadoc.Api.Visitor.html" xlink:title="Valadoc.Api.Visitor">
<polygon fill="none" stroke="#000000" stroke-width="2" points="145,-108 8,-108 8,-72 145,-72 145,-108"/>
<text text-anchor="middle" x="76.5" y="-86.3" font-family="Times" font-size="14.00" fill="#000000">Valadoc.Api.Visitor</text>
</a>
</g>
</g>
<!-- Valadoc.Api.Visitor&#45;&gt;Valadoc.Charts.Chart -->
<g id="edge1" class="edge">
<title>Valadoc.Api.Visitor&#45;&gt;Valadoc.Charts.Chart</title>
<path fill="none" stroke="#000000" d="M76.5,-61.5726C76.5,-53.1084 76.5,-44.0593 76.5,-36.4133"/>
<polygon fill="#000000" stroke="#000000" points="73.0001,-61.8313 76.5,-71.8314 80.0001,-61.8314 73.0001,-61.8313"/>
</g>
<!-- GLib.Object -->
<g id="node3" class="node">
<title>GLib.Object</title>
<polygon fill="none" stroke="#000000" stroke-width="2" points="122.5,-180 30.5,-180 30.5,-144 122.5,-144 122.5,-180"/>
<text text-anchor="middle" x="76.5" y="-158.3" font-family="Times" font-size="14.00" fill="#000000">GLib.Object</text>
</g>
<!-- GLib.Object&#45;&gt;Valadoc.Api.Visitor -->
<g id="edge2" class="edge">
<title>GLib.Object&#45;&gt;Valadoc.Api.Visitor</title>
<path fill="none" stroke="#000000" d="M76.5,-133.5726C76.5,-125.1084 76.5,-116.0593 76.5,-108.4133"/>
<polygon fill="#000000" stroke="#000000" points="73.0001,-133.8313 76.5,-143.8314 80.0001,-133.8314 73.0001,-133.8313"/>
</g>
</g>
</svg>
