<?xml version="1.0" encoding="UTF-8" standalone="no"?>
<!DOCTYPE svg PUBLIC "-//W3C//DTD SVG 1.1//EN"
 "http://www.w3.org/Graphics/SVG/1.1/DTD/svg11.dtd">
<!-- Generated by graphviz version 2.42.3 (0)
 -->
<!-- Title: Valadoc.Html.CssClassResolver Pages: 1 -->
<svg width="202pt" height="188pt"
 viewBox="0.00 0.00 202.00 188.00" xmlns="http://www.w3.org/2000/svg" xmlns:xlink="http://www.w3.org/1999/xlink">
<g id="graph0" class="graph" transform="scale(1 1) rotate(0) translate(4 184)">
<title>Valadoc.Html.CssClassResolver</title>
<polygon fill="white" stroke="transparent" points="-4,4 -4,-184 198,-184 198,4 -4,4"/>
<!-- Valadoc.Html.CssClassResolver -->
<g id="node1" class="node">
<title>Valadoc.Html.CssClassResolver</title>
<g id="a_node1"><a xlink:href="Valadoc.Html.CssClassResolver.html" xlink:title="Valadoc.Html.CssClassResolver">
<polygon fill="none" stroke="black" stroke-width="2" points="194,-36 0,-36 0,0 194,0 194,-36"/>
<text text-anchor="middle" x="97" y="-14.3" font-family="Times" font-size="14.00">Valadoc.Html.CssClassResolver</text>
</a>
</g>
</g>
<!-- Valadoc.Api.Visitor -->
<g id="node2" class="node">
<title>Valadoc.Api.Visitor</title>
<g id="a_node2"><a xlink:href="Valadoc.Api.Visitor.html" xlink:title="Valadoc.Api.Visitor">
<polygon fill="none" stroke="black" stroke-width="2" points="160,-108 34,-108 34,-72 160,-72 160,-108"/>
<text text-anchor="middle" x="97" y="-86.3" font-family="Times" font-size="14.00">Valadoc.Api.Visitor</text>
</a>
</g>
</g>
<!-- Valadoc.Api.Visitor&#45;&gt;Valadoc.Html.CssClassResolver -->
<g id="edge1" class="edge">
<title>Valadoc.Api.Visitor&#45;&gt;Valadoc.Html.CssClassResolver</title>
<path fill="none" stroke="black" d="M97,-61.67C97,-53.05 97,-43.79 97,-36.1"/>
<polygon fill="black" stroke="black" points="93.5,-61.7 97,-71.7 100.5,-61.7 93.5,-61.7"/>
</g>
<!-- GLib.Object -->
<g id="node3" class="node">
<title>GLib.Object</title>
<g id="a_node3"><a xlink:href="../gobject-2.0/GLib.Object.html" xlink:title="GLib.Object">
<polygon fill="none" stroke="black" stroke-width="2" points="139.5,-180 54.5,-180 54.5,-144 139.5,-144 139.5,-180"/>
<text text-anchor="middle" x="97" y="-158.3" font-family="Times" font-size="14.00">GLib.Object</text>
</a>
</g>
</g>
<!-- GLib.Object&#45;&gt;Valadoc.Api.Visitor -->
<g id="edge2" class="edge">
<title>GLib.Object&#45;&gt;Valadoc.Api.Visitor</title>
<path fill="none" stroke="black" d="M97,-133.67C97,-125.05 97,-115.79 97,-108.1"/>
<polygon fill="black" stroke="black" points="93.5,-133.7 97,-143.7 100.5,-133.7 93.5,-133.7"/>
</g>
</g>
</svg>
