<?xml version="1.0" encoding="UTF-8" standalone="no"?>
<!DOCTYPE svg PUBLIC "-//W3C//DTD SVG 1.1//EN"
 "http://www.w3.org/Graphics/SVG/1.1/DTD/svg11.dtd">
<!-- Generated by graphviz version 2.40.1 (20161225.0304)
 -->
<!-- Title: Valadoc.Api.Method Pages: 1 -->
<svg width="502pt" height="404pt"
 viewBox="0.00 0.00 501.50 404.00" xmlns="http://www.w3.org/2000/svg" xmlns:xlink="http://www.w3.org/1999/xlink">
<g id="graph0" class="graph" transform="scale(1 1) rotate(0) translate(4 400)">
<title>Valadoc.Api.Method</title>
<polygon fill="#ffffff" stroke="transparent" points="-4,4 -4,-400 497.5,-400 497.5,4 -4,4"/>
<!-- Valadoc.Api.Method -->
<g id="node1" class="node">
<title>Valadoc.Api.Method</title>
<g id="a_node1"><a xlink:href="Valadoc.Api.Method.html" xlink:title="Valadoc.Api.Method">
<polygon fill="none" stroke="#000000" stroke-width="2" points="378.5,-36 234.5,-36 234.5,0 378.5,0 378.5,-36"/>
<text text-anchor="middle" x="306.5" y="-14.3" font-family="Times" font-size="14.00" fill="#000000">Valadoc.Api.Method</text>
</a>
</g>
</g>
<!-- Valadoc.Api.Member -->
<g id="node2" class="node">
<title>Valadoc.Api.Member</title>
<g id="a_node2"><a xlink:href="Valadoc.Api.Member.html" xlink:title="Valadoc.Api.Member">
<polygon fill="none" stroke="#000000" stroke-width="2" points="298.5,-108 150.5,-108 150.5,-72 298.5,-72 298.5,-108"/>
<text text-anchor="middle" x="224.5" y="-86.3" font-family="Times" font-size="14.00" fill="#000000">Valadoc.Api.Member</text>
</a>
</g>
</g>
<!-- Valadoc.Api.Member&#45;&gt;Valadoc.Api.Method -->
<g id="edge1" class="edge">
<title>Valadoc.Api.Member&#45;&gt;Valadoc.Api.Method</title>
<path fill="none" stroke="#000000" d="M252.8073,-65.1448C263.6527,-55.622 275.8128,-44.9449 285.8146,-36.1628"/>
<polygon fill="#000000" stroke="#000000" points="250.3972,-62.6033 245.1921,-71.8314 255.0158,-67.8634 250.3972,-62.6033"/>
</g>
<!-- Valadoc.Api.Symbol -->
<g id="node3" class="node">
<title>Valadoc.Api.Symbol</title>
<g id="a_node3"><a xlink:href="Valadoc.Api.Symbol.html" xlink:title="Valadoc.Api.Symbol">
<polygon fill="none" stroke="#000000" stroke-width="2" points="296,-180 153,-180 153,-144 296,-144 296,-180"/>
<text text-anchor="middle" x="224.5" y="-158.3" font-family="Times" font-size="14.00" fill="#000000">Valadoc.Api.Symbol</text>
</a>
</g>
</g>
<!-- Valadoc.Api.Symbol&#45;&gt;Valadoc.Api.Member -->
<g id="edge2" class="edge">
<title>Valadoc.Api.Symbol&#45;&gt;Valadoc.Api.Member</title>
<path fill="none" stroke="#000000" d="M224.5,-133.5726C224.5,-125.1084 224.5,-116.0593 224.5,-108.4133"/>
<polygon fill="#000000" stroke="#000000" points="221.0001,-133.8313 224.5,-143.8314 228.0001,-133.8314 221.0001,-133.8313"/>
</g>
<!-- Valadoc.Api.Node -->
<g id="node4" class="node">
<title>Valadoc.Api.Node</title>
<g id="a_node4"><a xlink:href="Valadoc.Api.Node.html" xlink:title="Valadoc.Api.Node">
<polygon fill="none" stroke="#000000" stroke-width="2" points="289,-252 160,-252 160,-216 289,-216 289,-252"/>
<text text-anchor="middle" x="224.5" y="-230.3" font-family="Times" font-size="14.00" fill="#000000">Valadoc.Api.Node</text>
</a>
</g>
</g>
<!-- Valadoc.Api.Node&#45;&gt;Valadoc.Api.Symbol -->
<g id="edge3" class="edge">
<title>Valadoc.Api.Node&#45;&gt;Valadoc.Api.Symbol</title>
<path fill="none" stroke="#000000" d="M224.5,-205.5726C224.5,-197.1084 224.5,-188.0593 224.5,-180.4133"/>
<polygon fill="#000000" stroke="#000000" points="221.0001,-205.8313 224.5,-215.8314 228.0001,-205.8314 221.0001,-205.8313"/>
</g>
<!-- Valadoc.Api.Item -->
<g id="node5" class="node">
<title>Valadoc.Api.Item</title>
<g id="a_node5"><a xlink:href="Valadoc.Api.Item.html" xlink:title="Valadoc.Api.Item">
<polygon fill="none" stroke="#000000" stroke-width="2" points="125,-324 0,-324 0,-288 125,-288 125,-324"/>
<text text-anchor="middle" x="62.5" y="-302.3" font-family="Times" font-size="14.00" fill="#000000">Valadoc.Api.Item</text>
</a>
</g>
</g>
<!-- Valadoc.Api.Item&#45;&gt;Valadoc.Api.Node -->
<g id="edge4" class="edge">
<title>Valadoc.Api.Item&#45;&gt;Valadoc.Api.Node</title>
<path fill="none" stroke="#000000" d="M112.6031,-283.732C135.5099,-273.5512 162.2946,-261.6469 183.9145,-252.038"/>
<polygon fill="#000000" stroke="#000000" points="111.0961,-280.5716 103.3794,-287.8314 113.9391,-286.9683 111.0961,-280.5716"/>
</g>
<!-- GLib.Object -->
<g id="node6" class="node">
<title>GLib.Object</title>
<polygon fill="none" stroke="#000000" stroke-width="2" points="108.5,-396 16.5,-396 16.5,-360 108.5,-360 108.5,-396"/>
<text text-anchor="middle" x="62.5" y="-374.3" font-family="Times" font-size="14.00" fill="#000000">GLib.Object</text>
</g>
<!-- GLib.Object&#45;&gt;Valadoc.Api.Item -->
<g id="edge5" class="edge">
<title>GLib.Object&#45;&gt;Valadoc.Api.Item</title>
<path fill="none" stroke="#000000" d="M62.5,-349.5726C62.5,-341.1084 62.5,-332.0593 62.5,-324.4133"/>
<polygon fill="#000000" stroke="#000000" points="59.0001,-349.8313 62.5,-359.8314 66.0001,-349.8314 59.0001,-349.8313"/>
</g>
<!-- Valadoc.Api.Browsable -->
<g id="node7" class="node">
<title>Valadoc.Api.Browsable</title>
<g id="a_node7"><a xlink:href="Valadoc.Api.Browsable.html" xlink:title="Valadoc.Api.Browsable">
<polygon fill="none" stroke="#000000" points="305.5,-324 143.5,-324 143.5,-288 305.5,-288 305.5,-324"/>
<text text-anchor="middle" x="224.5" y="-302.3" font-family="Times" font-size="14.00" fill="#000000">Valadoc.Api.Browsable</text>
</a>
</g>
</g>
<!-- Valadoc.Api.Browsable&#45;&gt;Valadoc.Api.Node -->
<g id="edge6" class="edge">
<title>Valadoc.Api.Browsable&#45;&gt;Valadoc.Api.Node</title>
<path fill="none" stroke="#000000" d="M224.5,-277.5726C224.5,-269.1084 224.5,-260.0593 224.5,-252.4133"/>
<polygon fill="#000000" stroke="#000000" points="221.0001,-277.8313 224.5,-287.8314 228.0001,-277.8314 221.0001,-277.8313"/>
</g>
<!-- Valadoc.Documentation -->
<g id="node8" class="node">
<title>Valadoc.Documentation</title>
<g id="a_node8"><a xlink:href="Valadoc.Documentation.html" xlink:title="Valadoc.Documentation">
<polygon fill="none" stroke="#000000" points="493.5,-324 323.5,-324 323.5,-288 493.5,-288 493.5,-324"/>
<text text-anchor="middle" x="408.5" y="-302.3" font-family="Times" font-size="14.00" fill="#000000">Valadoc.Documentation</text>
</a>
</g>
</g>
<!-- Valadoc.Documentation&#45;&gt;Valadoc.Api.Node -->
<g id="edge7" class="edge">
<title>Valadoc.Documentation&#45;&gt;Valadoc.Api.Node</title>
<path fill="none" stroke="#000000" d="M352.6311,-284.1383C326.3875,-273.869 295.4805,-261.775 270.5971,-252.038"/>
<polygon fill="#000000" stroke="#000000" points="351.4812,-287.4467 362.069,-287.8314 354.032,-280.928 351.4812,-287.4467"/>
</g>
<!-- Valadoc.Api.Callable -->
<g id="node9" class="node">
<title>Valadoc.Api.Callable</title>
<g id="a_node9"><a xlink:href="Valadoc.Api.Callable.html" xlink:title="Valadoc.Api.Callable">
<polygon fill="none" stroke="#000000" points="462.5,-108 316.5,-108 316.5,-72 462.5,-72 462.5,-108"/>
<text text-anchor="middle" x="389.5" y="-86.3" font-family="Times" font-size="14.00" fill="#000000">Valadoc.Api.Callable</text>
</a>
</g>
</g>
<!-- Valadoc.Api.Callable&#45;&gt;Valadoc.Api.Method -->
<g id="edge8" class="edge">
<title>Valadoc.Api.Callable&#45;&gt;Valadoc.Api.Method</title>
<path fill="none" stroke="#000000" d="M360.8475,-65.1448C349.8698,-55.622 337.5615,-44.9449 327.4377,-36.1628"/>
<polygon fill="#000000" stroke="#000000" points="358.7082,-67.9224 368.5556,-71.8314 363.2952,-62.6347 358.7082,-67.9224"/>
</g>
</g>
</svg>
