<?xml version="1.0" encoding="UTF-8" standalone="no"?>
<!DOCTYPE svg PUBLIC "-//W3C//DTD SVG 1.1//EN"
 "http://www.w3.org/Graphics/SVG/1.1/DTD/svg11.dtd">
<!-- Generated by graphviz version 2.42.3 (0)
 -->
<!-- Title: Valadoc.OptionalRule Pages: 1 -->
<svg width="145pt" height="188pt"
 viewBox="0.00 0.00 145.00 188.00" xmlns="http://www.w3.org/2000/svg" xmlns:xlink="http://www.w3.org/1999/xlink">
<g id="graph0" class="graph" transform="scale(1 1) rotate(0) translate(4 184)">
<title>Valadoc.OptionalRule</title>
<polygon fill="white" stroke="transparent" points="-4,4 -4,-184 141,-184 141,4 -4,4"/>
<!-- Valadoc.OptionalRule -->
<g id="node1" class="node">
<title>Valadoc.OptionalRule</title>
<g id="a_node1"><a xlink:href="Valadoc.OptionalRule.html" xlink:title="Valadoc.OptionalRule">
<polygon fill="none" stroke="black" stroke-width="2" points="137,-36 0,-36 0,0 137,0 137,-36"/>
<text text-anchor="middle" x="68.5" y="-14.3" font-family="Times" font-size="14.00">Valadoc.OptionalRule</text>
</a>
</g>
</g>
<!-- Valadoc.Rule -->
<g id="node2" class="node">
<title>Valadoc.Rule</title>
<g id="a_node2"><a xlink:href="Valadoc.Rule.html" xlink:title="Valadoc.Rule">
<polygon fill="none" stroke="black" stroke-width="2" points="113.5,-108 23.5,-108 23.5,-72 113.5,-72 113.5,-108"/>
<text text-anchor="middle" x="68.5" y="-86.3" font-family="Times" font-size="14.00">Valadoc.Rule</text>
</a>
</g>
</g>
<!-- Valadoc.Rule&#45;&gt;Valadoc.OptionalRule -->
<g id="edge1" class="edge">
<title>Valadoc.Rule&#45;&gt;Valadoc.OptionalRule</title>
<path fill="none" stroke="black" d="M68.5,-61.67C68.5,-53.05 68.5,-43.79 68.5,-36.1"/>
<polygon fill="black" stroke="black" points="65,-61.7 68.5,-71.7 72,-61.7 65,-61.7"/>
</g>
<!-- GLib.Object -->
<g id="node3" class="node">
<title>GLib.Object</title>
<g id="a_node3"><a xlink:href="../gobject-2.0/GLib.Object.html" xlink:title="GLib.Object">
<polygon fill="none" stroke="black" stroke-width="2" points="111,-180 26,-180 26,-144 111,-144 111,-180"/>
<text text-anchor="middle" x="68.5" y="-158.3" font-family="Times" font-size="14.00">GLib.Object</text>
</a>
</g>
</g>
<!-- GLib.Object&#45;&gt;Valadoc.Rule -->
<g id="edge2" class="edge">
<title>GLib.Object&#45;&gt;Valadoc.Rule</title>
<path fill="none" stroke="black" d="M68.5,-133.67C68.5,-125.05 68.5,-115.79 68.5,-108.1"/>
<polygon fill="black" stroke="black" points="65,-133.7 68.5,-143.7 72,-133.7 65,-133.7"/>
</g>
</g>
</svg>
