<?xml version="1.0" encoding="UTF-8" standalone="no"?>
<!DOCTYPE svg PUBLIC "-//W3C//DTD SVG 1.1//EN"
 "http://www.w3.org/Graphics/SVG/1.1/DTD/svg11.dtd">
<!-- Generated by graphviz version 2.40.1 (0)
 -->
<!-- Title: Valadoc.OneOfRule Pages: 1 -->
<svg width="135pt" height="188pt"
 viewBox="0.00 0.00 135.00 188.00" xmlns="http://www.w3.org/2000/svg" xmlns:xlink="http://www.w3.org/1999/xlink">
<g id="graph0" class="graph" transform="scale(1 1) rotate(0) translate(4 184)">
<title>Valadoc.OneOfRule</title>
<polygon fill="#ffffff" stroke="transparent" points="-4,4 -4,-184 131,-184 131,4 -4,4"/>
<!-- Valadoc.OneOfRule -->
<g id="node1" class="node">
<title>Valadoc.OneOfRule</title>
<g id="a_node1"><a xlink:href="Valadoc.OneOfRule.html" xlink:title="Valadoc.OneOfRule">
<polygon fill="none" stroke="#000000" stroke-width="2" points="127,-36 0,-36 0,0 127,0 127,-36"/>
<text text-anchor="middle" x="63.5" y="-14.3" font-family="Times" font-size="14.00" fill="#000000">Valadoc.OneOfRule</text>
</a>
</g>
</g>
<!-- Valadoc.Rule -->
<g id="node2" class="node">
<title>Valadoc.Rule</title>
<g id="a_node2"><a xlink:href="Valadoc.Rule.html" xlink:title="Valadoc.Rule">
<polygon fill="none" stroke="#000000" stroke-width="2" points="108.5,-108 18.5,-108 18.5,-72 108.5,-72 108.5,-108"/>
<text text-anchor="middle" x="63.5" y="-86.3" font-family="Times" font-size="14.00" fill="#000000">Valadoc.Rule</text>
</a>
</g>
</g>
<!-- Valadoc.Rule&#45;&gt;Valadoc.OneOfRule -->
<g id="edge1" class="edge">
<title>Valadoc.Rule&#45;&gt;Valadoc.OneOfRule</title>
<path fill="none" stroke="#000000" d="M63.5,-61.5726C63.5,-53.1084 63.5,-44.0593 63.5,-36.4133"/>
<polygon fill="#000000" stroke="#000000" points="60.0001,-61.8313 63.5,-71.8314 67.0001,-61.8314 60.0001,-61.8313"/>
</g>
<!-- GLib.Object -->
<g id="node3" class="node">
<title>GLib.Object</title>
<g id="a_node3"><a xlink:href="../gobject-2.0/GLib.Object.html" xlink:title="GLib.Object">
<polygon fill="none" stroke="#000000" stroke-width="2" points="106,-180 21,-180 21,-144 106,-144 106,-180"/>
<text text-anchor="middle" x="63.5" y="-158.3" font-family="Times" font-size="14.00" fill="#000000">GLib.Object</text>
</a>
</g>
</g>
<!-- GLib.Object&#45;&gt;Valadoc.Rule -->
<g id="edge2" class="edge">
<title>GLib.Object&#45;&gt;Valadoc.Rule</title>
<path fill="none" stroke="#000000" d="M63.5,-133.5726C63.5,-125.1084 63.5,-116.0593 63.5,-108.4133"/>
<polygon fill="#000000" stroke="#000000" points="60.0001,-133.8313 63.5,-143.8314 67.0001,-133.8314 60.0001,-133.8313"/>
</g>
</g>
</svg>
