<?xml version="1.0" encoding="UTF-8" standalone="no"?>
<!DOCTYPE svg PUBLIC "-//W3C//DTD SVG 1.1//EN"
 "http://www.w3.org/Graphics/SVG/1.1/DTD/svg11.dtd">
<!-- Generated by graphviz version 2.42.3 (0)
 -->
<!-- Title: Valadoc.Api.Package Pages: 1 -->
<svg width="290pt" height="260pt"
 viewBox="0.00 0.00 289.50 260.00" xmlns="http://www.w3.org/2000/svg" xmlns:xlink="http://www.w3.org/1999/xlink">
<g id="graph0" class="graph" transform="scale(1 1) rotate(0) translate(4 256)">
<title>Valadoc.Api.Package</title>
<polygon fill="white" stroke="transparent" points="-4,4 -4,-256 285.5,-256 285.5,4 -4,4"/>
<!-- Valadoc.Api.Package -->
<g id="node1" class="node">
<title>Valadoc.Api.Package</title>
<g id="a_node1"><a xlink:href="Valadoc.Api.Package.html" xlink:title="Valadoc.Api.Package">
<polygon fill="none" stroke="black" stroke-width="2" points="199,-36 65,-36 65,0 199,0 199,-36"/>
<text text-anchor="middle" x="132" y="-14.3" font-family="Times" font-size="14.00">Valadoc.Api.Package</text>
</a>
</g>
</g>
<!-- Valadoc.Api.Node -->
<g id="node2" class="node">
<title>Valadoc.Api.Node</title>
<g id="a_node2"><a xlink:href="Valadoc.Api.Node.html" xlink:title="Valadoc.Api.Node">
<polygon fill="none" stroke="black" stroke-width="2" points="191,-108 73,-108 73,-72 191,-72 191,-108"/>
<text text-anchor="middle" x="132" y="-86.3" font-family="Times" font-size="14.00">Valadoc.Api.Node</text>
</a>
</g>
</g>
<!-- Valadoc.Api.Node&#45;&gt;Valadoc.Api.Package -->
<g id="edge1" class="edge">
<title>Valadoc.Api.Node&#45;&gt;Valadoc.Api.Package</title>
<path fill="none" stroke="black" d="M132,-61.67C132,-53.05 132,-43.79 132,-36.1"/>
<polygon fill="black" stroke="black" points="128.5,-61.7 132,-71.7 135.5,-61.7 128.5,-61.7"/>
</g>
<!-- Valadoc.Api.Item -->
<g id="node3" class="node">
<title>Valadoc.Api.Item</title>
<g id="a_node3"><a xlink:href="Valadoc.Api.Item.html" xlink:title="Valadoc.Api.Item">
<polygon fill="none" stroke="black" stroke-width="2" points="114,-180 0,-180 0,-144 114,-144 114,-180"/>
<text text-anchor="middle" x="57" y="-158.3" font-family="Times" font-size="14.00">Valadoc.Api.Item</text>
</a>
</g>
</g>
<!-- Valadoc.Api.Item&#45;&gt;Valadoc.Api.Node -->
<g id="edge2" class="edge">
<title>Valadoc.Api.Item&#45;&gt;Valadoc.Api.Node</title>
<path fill="none" stroke="black" d="M82.98,-136.76C93.09,-127.32 104.44,-116.72 113.67,-108.1"/>
<polygon fill="black" stroke="black" points="80.46,-134.31 75.54,-143.7 85.24,-139.43 80.46,-134.31"/>
</g>
<!-- GLib.Object -->
<g id="node4" class="node">
<title>GLib.Object</title>
<g id="a_node4"><a xlink:href="../gobject-2.0/GLib.Object.html" xlink:title="GLib.Object">
<polygon fill="none" stroke="black" stroke-width="2" points="99.5,-252 14.5,-252 14.5,-216 99.5,-216 99.5,-252"/>
<text text-anchor="middle" x="57" y="-230.3" font-family="Times" font-size="14.00">GLib.Object</text>
</a>
</g>
</g>
<!-- GLib.Object&#45;&gt;Valadoc.Api.Item -->
<g id="edge3" class="edge">
<title>GLib.Object&#45;&gt;Valadoc.Api.Item</title>
<path fill="none" stroke="black" d="M57,-205.67C57,-197.05 57,-187.79 57,-180.1"/>
<polygon fill="black" stroke="black" points="53.5,-205.7 57,-215.7 60.5,-205.7 53.5,-205.7"/>
</g>
<!-- Valadoc.Documentation -->
<g id="node5" class="node">
<title>Valadoc.Documentation</title>
<g id="a_node5"><a xlink:href="Valadoc.Documentation.html" xlink:title="Valadoc.Documentation">
<polygon fill="none" stroke="black" points="281.5,-180 132.5,-180 132.5,-144 281.5,-144 281.5,-180"/>
<text text-anchor="middle" x="207" y="-158.3" font-family="Times" font-size="14.00">Valadoc.Documentation</text>
</a>
</g>
</g>
<!-- Valadoc.Documentation&#45;&gt;Valadoc.Api.Node -->
<g id="edge4" class="edge">
<title>Valadoc.Documentation&#45;&gt;Valadoc.Api.Node</title>
<path fill="none" stroke="black" d="M181.02,-136.76C170.91,-127.32 159.56,-116.72 150.33,-108.1"/>
<polygon fill="black" stroke="black" points="178.76,-139.43 188.46,-143.7 183.54,-134.31 178.76,-139.43"/>
</g>
</g>
</svg>
