<?xml version="1.0" encoding="UTF-8" standalone="no"?>
<!DOCTYPE svg PUBLIC "-//W3C//DTD SVG 1.1//EN"
 "http://www.w3.org/Graphics/SVG/1.1/DTD/svg11.dtd">
<!-- Generated by graphviz version 2.40.1 (0)
 -->
<!-- Title: Valadoc.Content.SourceCode Pages: 1 -->
<svg width="370pt" height="188pt"
 viewBox="0.00 0.00 369.50 188.00" xmlns="http://www.w3.org/2000/svg" xmlns:xlink="http://www.w3.org/1999/xlink">
<g id="graph0" class="graph" transform="scale(1 1) rotate(0) translate(4 184)">
<title>Valadoc.Content.SourceCode</title>
<polygon fill="#ffffff" stroke="transparent" points="-4,4 -4,-184 365.5,-184 365.5,4 -4,4"/>
<!-- Valadoc.Content.SourceCode -->
<g id="node1" class="node">
<title>Valadoc.Content.SourceCode</title>
<g id="a_node1"><a xlink:href="Valadoc.Content.SourceCode.html" xlink:title="Valadoc.Content.SourceCode">
<polygon fill="none" stroke="#000000" stroke-width="2" points="283.5,-36 106.5,-36 106.5,0 283.5,0 283.5,-36"/>
<text text-anchor="middle" x="195" y="-14.3" font-family="Times" font-size="14.00" fill="#000000">Valadoc.Content.SourceCode</text>
</a>
</g>
</g>
<!-- Valadoc.Content.ContentElement -->
<g id="node2" class="node">
<title>Valadoc.Content.ContentElement</title>
<g id="a_node2"><a xlink:href="Valadoc.Content.ContentElement.html" xlink:title="Valadoc.Content.ContentElement">
<polygon fill="none" stroke="#000000" stroke-width="2" points="200,-108 0,-108 0,-72 200,-72 200,-108"/>
<text text-anchor="middle" x="100" y="-86.3" font-family="Times" font-size="14.00" fill="#000000">Valadoc.Content.ContentElement</text>
</a>
</g>
</g>
<!-- Valadoc.Content.ContentElement&#45;&gt;Valadoc.Content.SourceCode -->
<g id="edge1" class="edge">
<title>Valadoc.Content.ContentElement&#45;&gt;Valadoc.Content.SourceCode</title>
<path fill="none" stroke="#000000" d="M132.0648,-65.6982C144.8118,-56.0374 159.2227,-45.1154 171.0352,-36.1628"/>
<polygon fill="#000000" stroke="#000000" points="129.8281,-63.0017 123.9725,-71.8314 134.0563,-68.5805 129.8281,-63.0017"/>
</g>
<!-- GLib.Object -->
<g id="node3" class="node">
<title>GLib.Object</title>
<g id="a_node3"><a xlink:href="../gobject-2.0/GLib.Object.html" xlink:title="GLib.Object">
<polygon fill="none" stroke="#000000" stroke-width="2" points="142.5,-180 57.5,-180 57.5,-144 142.5,-144 142.5,-180"/>
<text text-anchor="middle" x="100" y="-158.3" font-family="Times" font-size="14.00" fill="#000000">GLib.Object</text>
</a>
</g>
</g>
<!-- GLib.Object&#45;&gt;Valadoc.Content.ContentElement -->
<g id="edge2" class="edge">
<title>GLib.Object&#45;&gt;Valadoc.Content.ContentElement</title>
<path fill="none" stroke="#000000" d="M100,-133.5726C100,-125.1084 100,-116.0593 100,-108.4133"/>
<polygon fill="#000000" stroke="#000000" points="96.5001,-133.8313 100,-143.8314 103.5001,-133.8314 96.5001,-133.8313"/>
</g>
<!-- Valadoc.Content.Inline -->
<g id="node4" class="node">
<title>Valadoc.Content.Inline</title>
<g id="a_node4"><a xlink:href="Valadoc.Content.Inline.html" xlink:title="Valadoc.Content.Inline">
<polygon fill="none" stroke="#000000" points="361.5,-108 218.5,-108 218.5,-72 361.5,-72 361.5,-108"/>
<text text-anchor="middle" x="290" y="-86.3" font-family="Times" font-size="14.00" fill="#000000">Valadoc.Content.Inline</text>
</a>
</g>
</g>
<!-- Valadoc.Content.Inline&#45;&gt;Valadoc.Content.SourceCode -->
<g id="edge3" class="edge">
<title>Valadoc.Content.Inline&#45;&gt;Valadoc.Content.SourceCode</title>
<path fill="none" stroke="#000000" d="M257.9352,-65.6982C245.1882,-56.0374 230.7773,-45.1154 218.9648,-36.1628"/>
<polygon fill="#000000" stroke="#000000" points="255.9437,-68.5805 266.0275,-71.8314 260.1719,-63.0017 255.9437,-68.5805"/>
</g>
</g>
</svg>
