<?xml version="1.0" encoding="UTF-8" standalone="no"?>
<!DOCTYPE svg PUBLIC "-//W3C//DTD SVG 1.1//EN"
 "http://www.w3.org/Graphics/SVG/1.1/DTD/svg11.dtd">
<!-- Generated by graphviz version 2.42.3 (0)
 -->
<!-- Title: Valadoc.Content.Warning Pages: 1 -->
<svg width="363pt" height="260pt"
 viewBox="0.00 0.00 362.50 260.00" xmlns="http://www.w3.org/2000/svg" xmlns:xlink="http://www.w3.org/1999/xlink">
<g id="graph0" class="graph" transform="scale(1 1) rotate(0) translate(4 256)">
<title>Valadoc.Content.Warning</title>
<polygon fill="white" stroke="transparent" points="-4,4 -4,-256 358.5,-256 358.5,4 -4,4"/>
<!-- Valadoc.Content.Warning -->
<g id="node1" class="node">
<title>Valadoc.Content.Warning</title>
<g id="a_node1"><a xlink:href="Valadoc.Content.Warning.html" xlink:title="Valadoc.Content.Warning">
<polygon fill="none" stroke="black" stroke-width="2" points="270,-36 112,-36 112,0 270,0 270,-36"/>
<text text-anchor="middle" x="191" y="-14.3" font-family="Times" font-size="14.00">Valadoc.Content.Warning</text>
</a>
</g>
</g>
<!-- Valadoc.Content.BlockContent -->
<g id="node2" class="node">
<title>Valadoc.Content.BlockContent</title>
<g id="a_node2"><a xlink:href="Valadoc.Content.BlockContent.html" xlink:title="Valadoc.Content.BlockContent">
<polygon fill="none" stroke="black" stroke-width="2" points="193,-108 7,-108 7,-72 193,-72 193,-108"/>
<text text-anchor="middle" x="100" y="-86.3" font-family="Times" font-size="14.00">Valadoc.Content.BlockContent</text>
</a>
</g>
</g>
<!-- Valadoc.Content.BlockContent&#45;&gt;Valadoc.Content.Warning -->
<g id="edge1" class="edge">
<title>Valadoc.Content.BlockContent&#45;&gt;Valadoc.Content.Warning</title>
<path fill="none" stroke="black" d="M130.44,-65.59C142.98,-55.94 157.23,-44.97 168.76,-36.1"/>
<polygon fill="black" stroke="black" points="128.29,-62.83 122.49,-71.7 132.55,-68.37 128.29,-62.83"/>
</g>
<!-- Valadoc.Content.ContentElement -->
<g id="node3" class="node">
<title>Valadoc.Content.ContentElement</title>
<g id="a_node3"><a xlink:href="Valadoc.Content.ContentElement.html" xlink:title="Valadoc.Content.ContentElement">
<polygon fill="none" stroke="black" stroke-width="2" points="200,-180 0,-180 0,-144 200,-144 200,-180"/>
<text text-anchor="middle" x="100" y="-158.3" font-family="Times" font-size="14.00">Valadoc.Content.ContentElement</text>
</a>
</g>
</g>
<!-- Valadoc.Content.ContentElement&#45;&gt;Valadoc.Content.BlockContent -->
<g id="edge2" class="edge">
<title>Valadoc.Content.ContentElement&#45;&gt;Valadoc.Content.BlockContent</title>
<path fill="none" stroke="black" d="M100,-133.67C100,-125.05 100,-115.79 100,-108.1"/>
<polygon fill="black" stroke="black" points="96.5,-133.7 100,-143.7 103.5,-133.7 96.5,-133.7"/>
</g>
<!-- GLib.Object -->
<g id="node4" class="node">
<title>GLib.Object</title>
<g id="a_node4"><a xlink:href="../gobject-2.0/GLib.Object.html" xlink:title="GLib.Object">
<polygon fill="none" stroke="black" stroke-width="2" points="142.5,-252 57.5,-252 57.5,-216 142.5,-216 142.5,-252"/>
<text text-anchor="middle" x="100" y="-230.3" font-family="Times" font-size="14.00">GLib.Object</text>
</a>
</g>
</g>
<!-- GLib.Object&#45;&gt;Valadoc.Content.ContentElement -->
<g id="edge3" class="edge">
<title>GLib.Object&#45;&gt;Valadoc.Content.ContentElement</title>
<path fill="none" stroke="black" d="M100,-205.67C100,-197.05 100,-187.79 100,-180.1"/>
<polygon fill="black" stroke="black" points="96.5,-205.7 100,-215.7 103.5,-205.7 96.5,-205.7"/>
</g>
<!-- Valadoc.Content.Block -->
<g id="node5" class="node">
<title>Valadoc.Content.Block</title>
<g id="a_node5"><a xlink:href="Valadoc.Content.Block.html" xlink:title="Valadoc.Content.Block">
<polygon fill="none" stroke="black" points="354.5,-108 211.5,-108 211.5,-72 354.5,-72 354.5,-108"/>
<text text-anchor="middle" x="283" y="-86.3" font-family="Times" font-size="14.00">Valadoc.Content.Block</text>
</a>
</g>
</g>
<!-- Valadoc.Content.Block&#45;&gt;Valadoc.Content.Warning -->
<g id="edge4" class="edge">
<title>Valadoc.Content.Block&#45;&gt;Valadoc.Content.Warning</title>
<path fill="none" stroke="black" d="M252.23,-65.59C239.55,-55.94 225.14,-44.97 213.48,-36.1"/>
<polygon fill="black" stroke="black" points="250.18,-68.43 260.26,-71.7 254.42,-62.86 250.18,-68.43"/>
</g>
</g>
</svg>
