<?xml version="1.0" encoding="UTF-8" standalone="no"?>
<!DOCTYPE svg PUBLIC "-//W3C//DTD SVG 1.1//EN"
 "http://www.w3.org/Graphics/SVG/1.1/DTD/svg11.dtd">
<!-- Generated by graphviz version 2.40.1 (20161225.0304)
 -->
<!-- Title: Valadoc.Content.Paragraph Pages: 1 -->
<svg width="653pt" height="260pt"
 viewBox="0.00 0.00 653.00 260.00" xmlns="http://www.w3.org/2000/svg" xmlns:xlink="http://www.w3.org/1999/xlink">
<g id="graph0" class="graph" transform="scale(1 1) rotate(0) translate(4 256)">
<title>Valadoc.Content.Paragraph</title>
<polygon fill="#ffffff" stroke="transparent" points="-4,4 -4,-256 649,-256 649,4 -4,4"/>
<!-- Valadoc.Content.Paragraph -->
<g id="node1" class="node">
<title>Valadoc.Content.Paragraph</title>
<g id="a_node1"><a xlink:href="Valadoc.Content.Paragraph.html" xlink:title="Valadoc.Content.Paragraph">
<polygon fill="none" stroke="#000000" stroke-width="2" points="419,-36 225,-36 225,0 419,0 419,-36"/>
<text text-anchor="middle" x="322" y="-14.3" font-family="Times" font-size="14.00" fill="#000000">Valadoc.Content.Paragraph</text>
</a>
</g>
</g>
<!-- Valadoc.Content.InlineContent -->
<g id="node2" class="node">
<title>Valadoc.Content.InlineContent</title>
<g id="a_node2"><a xlink:href="Valadoc.Content.InlineContent.html" xlink:title="Valadoc.Content.InlineContent">
<polygon fill="none" stroke="#000000" stroke-width="2" points="222.5,-108 7.5,-108 7.5,-72 222.5,-72 222.5,-108"/>
<text text-anchor="middle" x="115" y="-86.3" font-family="Times" font-size="14.00" fill="#000000">Valadoc.Content.InlineContent</text>
</a>
</g>
</g>
<!-- Valadoc.Content.InlineContent&#45;&gt;Valadoc.Content.Paragraph -->
<g id="edge1" class="edge">
<title>Valadoc.Content.InlineContent&#45;&gt;Valadoc.Content.Paragraph</title>
<path fill="none" stroke="#000000" d="M176.4239,-68.6351C206.2046,-58.2767 241.5863,-45.97 270.011,-36.0831"/>
<polygon fill="#000000" stroke="#000000" points="175.2628,-65.3333 166.9677,-71.9243 177.5625,-71.9448 175.2628,-65.3333"/>
</g>
<!-- Valadoc.Content.ContentElement -->
<g id="node3" class="node">
<title>Valadoc.Content.ContentElement</title>
<g id="a_node3"><a xlink:href="Valadoc.Content.ContentElement.html" xlink:title="Valadoc.Content.ContentElement">
<polygon fill="none" stroke="#000000" stroke-width="2" points="230,-180 0,-180 0,-144 230,-144 230,-180"/>
<text text-anchor="middle" x="115" y="-158.3" font-family="Times" font-size="14.00" fill="#000000">Valadoc.Content.ContentElement</text>
</a>
</g>
</g>
<!-- Valadoc.Content.ContentElement&#45;&gt;Valadoc.Content.InlineContent -->
<g id="edge2" class="edge">
<title>Valadoc.Content.ContentElement&#45;&gt;Valadoc.Content.InlineContent</title>
<path fill="none" stroke="#000000" d="M115,-133.5726C115,-125.1084 115,-116.0593 115,-108.4133"/>
<polygon fill="#000000" stroke="#000000" points="111.5001,-133.8313 115,-143.8314 118.5001,-133.8314 111.5001,-133.8313"/>
</g>
<!-- GLib.Object -->
<g id="node4" class="node">
<title>GLib.Object</title>
<polygon fill="none" stroke="#000000" stroke-width="2" points="161,-252 69,-252 69,-216 161,-216 161,-252"/>
<text text-anchor="middle" x="115" y="-230.3" font-family="Times" font-size="14.00" fill="#000000">GLib.Object</text>
</g>
<!-- GLib.Object&#45;&gt;Valadoc.Content.ContentElement -->
<g id="edge3" class="edge">
<title>GLib.Object&#45;&gt;Valadoc.Content.ContentElement</title>
<path fill="none" stroke="#000000" d="M115,-205.5726C115,-197.1084 115,-188.0593 115,-180.4133"/>
<polygon fill="#000000" stroke="#000000" points="111.5001,-205.8313 115,-215.8314 118.5001,-205.8314 111.5001,-205.8313"/>
</g>
<!-- Valadoc.Content.Block -->
<g id="node5" class="node">
<title>Valadoc.Content.Block</title>
<g id="a_node5"><a xlink:href="Valadoc.Content.Block.html" xlink:title="Valadoc.Content.Block">
<polygon fill="none" stroke="#000000" points="403,-108 241,-108 241,-72 403,-72 403,-108"/>
<text text-anchor="middle" x="322" y="-86.3" font-family="Times" font-size="14.00" fill="#000000">Valadoc.Content.Block</text>
</a>
</g>
</g>
<!-- Valadoc.Content.Block&#45;&gt;Valadoc.Content.Paragraph -->
<g id="edge4" class="edge">
<title>Valadoc.Content.Block&#45;&gt;Valadoc.Content.Paragraph</title>
<path fill="none" stroke="#000000" d="M322,-61.5726C322,-53.1084 322,-44.0593 322,-36.4133"/>
<polygon fill="#000000" stroke="#000000" points="318.5001,-61.8313 322,-71.8314 325.5001,-61.8314 318.5001,-61.8313"/>
</g>
<!-- Valadoc.Content.StyleAttributes -->
<g id="node6" class="node">
<title>Valadoc.Content.StyleAttributes</title>
<g id="a_node6"><a xlink:href="Valadoc.Content.StyleAttributes.html" xlink:title="Valadoc.Content.StyleAttributes">
<polygon fill="none" stroke="#000000" points="645,-108 421,-108 421,-72 645,-72 645,-108"/>
<text text-anchor="middle" x="533" y="-86.3" font-family="Times" font-size="14.00" fill="#000000">Valadoc.Content.StyleAttributes</text>
</a>
</g>
</g>
<!-- Valadoc.Content.StyleAttributes&#45;&gt;Valadoc.Content.Paragraph -->
<g id="edge5" class="edge">
<title>Valadoc.Content.StyleAttributes&#45;&gt;Valadoc.Content.Paragraph</title>
<path fill="none" stroke="#000000" d="M470.3891,-68.6351C440.033,-58.2767 403.9676,-45.97 374.9937,-36.0831"/>
<polygon fill="#000000" stroke="#000000" points="469.4336,-72.0072 480.0281,-71.9243 471.6943,-65.3823 469.4336,-72.0072"/>
</g>
</g>
</svg>
