<?xml version="1.0" encoding="UTF-8" standalone="no"?>
<!DOCTYPE svg PUBLIC "-//W3C//DTD SVG 1.1//EN"
 "http://www.w3.org/Graphics/SVG/1.1/DTD/svg11.dtd">
<!-- Generated by graphviz version 2.40.1 (20161225.0304)
 -->
<!-- Title: Valadoc.Importer.ValadocDocumentationScanner Pages: 1 -->
<svg width="294pt" height="116pt"
 viewBox="0.00 0.00 294.00 116.00" xmlns="http://www.w3.org/2000/svg" xmlns:xlink="http://www.w3.org/1999/xlink">
<g id="graph0" class="graph" transform="scale(1 1) rotate(0) translate(4 112)">
<title>Valadoc.Importer.ValadocDocumentationScanner</title>
<polygon fill="#ffffff" stroke="transparent" points="-4,4 -4,-112 290,-112 290,4 -4,4"/>
<!-- Valadoc.Importer.ValadocDocumentationScanner -->
<g id="node1" class="node">
<title>Valadoc.Importer.ValadocDocumentationScanner</title>
<g id="a_node1"><a xlink:href="Valadoc.Importer.ValadocDocumentationScanner.html" xlink:title="Valadoc.Importer.ValadocDocumentationScanner">
<polygon fill="none" stroke="#000000" stroke-width="2" points="286,-36 0,-36 0,0 286,0 286,-36"/>
<text text-anchor="middle" x="143" y="-14.3" font-family="Times" font-size="14.00" fill="#000000">Valadoc.Importer.ValadocDocumentationScanner</text>
</a>
</g>
</g>
<!-- GLib.Object -->
<g id="node2" class="node">
<title>GLib.Object</title>
<polygon fill="none" stroke="#000000" stroke-width="2" points="128.5,-108 43.5,-108 43.5,-72 128.5,-72 128.5,-108"/>
<text text-anchor="middle" x="86" y="-86.3" font-family="Times" font-size="14.00" fill="#000000">GLib.Object</text>
</g>
<!-- GLib.Object&#45;&gt;Valadoc.Importer.ValadocDocumentationScanner -->
<g id="edge1" class="edge">
<title>GLib.Object&#45;&gt;Valadoc.Importer.ValadocDocumentationScanner</title>
<path fill="none" stroke="#000000" d="M106.7303,-63.8144C113.9235,-54.7282 121.8317,-44.7389 128.4228,-36.4133"/>
<polygon fill="#000000" stroke="#000000" points="103.8464,-61.8184 100.3835,-71.8314 109.3347,-66.1634 103.8464,-61.8184"/>
</g>
<!-- Valadoc.Scanner -->
<g id="node3" class="node">
<title>Valadoc.Scanner</title>
<g id="a_node3"><a xlink:href="Valadoc.Scanner.html" xlink:title="Valadoc.Scanner">
<polygon fill="none" stroke="#000000" points="253.5,-108 146.5,-108 146.5,-72 253.5,-72 253.5,-108"/>
<text text-anchor="middle" x="200" y="-86.3" font-family="Times" font-size="14.00" fill="#000000">Valadoc.Scanner</text>
</a>
</g>
</g>
<!-- Valadoc.Scanner&#45;&gt;Valadoc.Importer.ValadocDocumentationScanner -->
<g id="edge2" class="edge">
<title>Valadoc.Scanner&#45;&gt;Valadoc.Importer.ValadocDocumentationScanner</title>
<path fill="none" stroke="#000000" d="M179.2697,-63.8144C172.0765,-54.7282 164.1683,-44.7389 157.5772,-36.4133"/>
<polygon fill="#000000" stroke="#000000" points="176.6653,-66.1634 185.6165,-71.8314 182.1536,-61.8184 176.6653,-66.1634"/>
</g>
</g>
</svg>
