<?xml version="1.0" encoding="UTF-8" standalone="no"?>
<!DOCTYPE svg PUBLIC "-//W3C//DTD SVG 1.1//EN"
 "http://www.w3.org/Graphics/SVG/1.1/DTD/svg11.dtd">
<!-- Generated by graphviz version 2.42.3 (0)
 -->
<!-- Title: GLib.TypeModule Pages: 1 -->
<svg width="222pt" height="116pt"
 viewBox="0.00 0.00 221.50 116.00" xmlns="http://www.w3.org/2000/svg" xmlns:xlink="http://www.w3.org/1999/xlink">
<g id="graph0" class="graph" transform="scale(1 1) rotate(0) translate(4 112)">
<title>GLib.TypeModule</title>
<polygon fill="white" stroke="transparent" points="-4,4 -4,-112 217.5,-112 217.5,4 -4,4"/>
<!-- GLib.TypeModule -->
<g id="node1" class="node">
<title>GLib.TypeModule</title>
<g id="a_node1"><a xlink:href="GLib.TypeModule.html" xlink:title="GLib.TypeModule">
<polygon fill="none" stroke="black" stroke-width="2" points="159.5,-36 41.5,-36 41.5,0 159.5,0 159.5,-36"/>
<text text-anchor="middle" x="100.5" y="-14.3" font-family="Times" font-size="14.00">GLib.TypeModule</text>
</a>
</g>
</g>
<!-- GLib.Object -->
<g id="node2" class="node">
<title>GLib.Object</title>
<g id="a_node2"><a xlink:href="GLib.Object.html" xlink:title="GLib.Object">
<polygon fill="none" stroke="black" stroke-width="2" points="85,-108 0,-108 0,-72 85,-72 85,-108"/>
<text text-anchor="middle" x="42.5" y="-86.3" font-family="Times" font-size="14.00">GLib.Object</text>
</a>
</g>
</g>
<!-- GLib.Object&#45;&gt;GLib.TypeModule -->
<g id="edge1" class="edge">
<title>GLib.Object&#45;&gt;GLib.TypeModule</title>
<path fill="none" stroke="black" d="M63.28,-63.92C70.92,-54.69 79.4,-44.47 86.33,-36.1"/>
<polygon fill="black" stroke="black" points="60.52,-61.76 56.84,-71.7 65.91,-66.23 60.52,-61.76"/>
</g>
<!-- GLib.TypePlugin -->
<g id="node3" class="node">
<title>GLib.TypePlugin</title>
<g id="a_node3"><a xlink:href="GLib.TypePlugin.html" xlink:title="GLib.TypePlugin">
<polygon fill="none" stroke="black" points="213.5,-108 103.5,-108 103.5,-72 213.5,-72 213.5,-108"/>
<text text-anchor="middle" x="158.5" y="-86.3" font-family="Times" font-size="14.00">GLib.TypePlugin</text>
</a>
</g>
</g>
<!-- GLib.TypePlugin&#45;&gt;GLib.TypeModule -->
<g id="edge2" class="edge">
<title>GLib.TypePlugin&#45;&gt;GLib.TypeModule</title>
<path fill="none" stroke="black" d="M137.72,-63.92C130.08,-54.69 121.6,-44.47 114.67,-36.1"/>
<polygon fill="black" stroke="black" points="135.09,-66.23 144.16,-71.7 140.48,-61.76 135.09,-66.23"/>
</g>
</g>
</svg>
