<?xml version="1.0" encoding="UTF-8" standalone="no"?>
<!DOCTYPE svg PUBLIC "-//W3C//DTD SVG 1.1//EN"
 "http://www.w3.org/Graphics/SVG/1.1/DTD/svg11.dtd">
<!-- Generated by graphviz version 2.40.1 (0)
 -->
<!-- Title: GLib.TypeModule Pages: 1 -->
<svg width="222pt" height="116pt"
 viewBox="0.00 0.00 221.50 116.00" xmlns="http://www.w3.org/2000/svg" xmlns:xlink="http://www.w3.org/1999/xlink">
<g id="graph0" class="graph" transform="scale(1 1) rotate(0) translate(4 112)">
<title>GLib.TypeModule</title>
<polygon fill="#ffffff" stroke="transparent" points="-4,4 -4,-112 217.5,-112 217.5,4 -4,4"/>
<!-- GLib.TypeModule -->
<g id="node1" class="node">
<title>GLib.TypeModule</title>
<g id="a_node1"><a xlink:href="GLib.TypeModule.html" xlink:title="GLib.TypeModule">
<polygon fill="none" stroke="#000000" stroke-width="2" points="159.5,-36 41.5,-36 41.5,0 159.5,0 159.5,-36"/>
<text text-anchor="middle" x="100.5" y="-14.3" font-family="Times" font-size="14.00" fill="#000000">GLib.TypeModule</text>
</a>
</g>
</g>
<!-- GLib.Object -->
<g id="node2" class="node">
<title>GLib.Object</title>
<g id="a_node2"><a xlink:href="GLib.Object.html" xlink:title="GLib.Object">
<polygon fill="none" stroke="#000000" stroke-width="2" points="85,-108 0,-108 0,-72 85,-72 85,-108"/>
<text text-anchor="middle" x="42.5" y="-86.3" font-family="Times" font-size="14.00" fill="#000000">GLib.Object</text>
</a>
</g>
</g>
<!-- GLib.Object&#45;&gt;GLib.TypeModule -->
<g id="edge1" class="edge">
<title>GLib.Object&#45;&gt;GLib.TypeModule</title>
<path fill="none" stroke="#000000" d="M63.5939,-63.8144C70.9134,-54.7282 78.9603,-44.7389 85.6671,-36.4133"/>
<polygon fill="#000000" stroke="#000000" points="60.6835,-61.8481 57.1358,-71.8314 66.1348,-66.2395 60.6835,-61.8481"/>
</g>
<!-- GLib.TypePlugin -->
<g id="node3" class="node">
<title>GLib.TypePlugin</title>
<g id="a_node3"><a xlink:href="GLib.TypePlugin.html" xlink:title="GLib.TypePlugin">
<polygon fill="none" stroke="#000000" points="213.5,-108 103.5,-108 103.5,-72 213.5,-72 213.5,-108"/>
<text text-anchor="middle" x="158.5" y="-86.3" font-family="Times" font-size="14.00" fill="#000000">GLib.TypePlugin</text>
</a>
</g>
</g>
<!-- GLib.TypePlugin&#45;&gt;GLib.TypeModule -->
<g id="edge2" class="edge">
<title>GLib.TypePlugin&#45;&gt;GLib.TypeModule</title>
<path fill="none" stroke="#000000" d="M137.4061,-63.8144C130.0866,-54.7282 122.0397,-44.7389 115.3329,-36.4133"/>
<polygon fill="#000000" stroke="#000000" points="134.8652,-66.2395 143.8642,-71.8314 140.3165,-61.8481 134.8652,-66.2395"/>
</g>
</g>
</svg>
