<?xml version="1.0" encoding="UTF-8" standalone="no"?>
<!DOCTYPE svg PUBLIC "-//W3C//DTD SVG 1.1//EN"
 "http://www.w3.org/Graphics/SVG/1.1/DTD/svg11.dtd">
<!-- Generated by graphviz version 2.40.1 (20161225.0304)
 -->
<!-- Title: Vala.CType Pages: 1 -->
<svg width="121pt" height="188pt"
 viewBox="0.00 0.00 121.00 188.00" xmlns="http://www.w3.org/2000/svg" xmlns:xlink="http://www.w3.org/1999/xlink">
<g id="graph0" class="graph" transform="scale(1 1) rotate(0) translate(4 184)">
<title>Vala.CType</title>
<polygon fill="#ffffff" stroke="transparent" points="-4,4 -4,-184 117,-184 117,4 -4,4"/>
<!-- Vala.CType -->
<g id="node1" class="node">
<title>Vala.CType</title>
<g id="a_node1"><a xlink:href="Vala.CType.html" xlink:title="Vala.CType">
<polygon fill="none" stroke="#000000" stroke-width="2" points="99.5,-36 13.5,-36 13.5,0 99.5,0 99.5,-36"/>
<text text-anchor="middle" x="56.5" y="-14.3" font-family="Times" font-size="14.00" fill="#000000">Vala.CType</text>
</a>
</g>
</g>
<!-- Vala.DataType -->
<g id="node2" class="node">
<title>Vala.DataType</title>
<polygon fill="none" stroke="#000000" stroke-width="2" points="110,-108 3,-108 3,-72 110,-72 110,-108"/>
<text text-anchor="middle" x="56.5" y="-86.3" font-family="Times" font-size="14.00" fill="#000000">Vala.DataType</text>
</g>
<!-- Vala.DataType&#45;&gt;Vala.CType -->
<g id="edge1" class="edge">
<title>Vala.DataType&#45;&gt;Vala.CType</title>
<path fill="none" stroke="#000000" d="M56.5,-61.5726C56.5,-53.1084 56.5,-44.0593 56.5,-36.4133"/>
<polygon fill="#000000" stroke="#000000" points="53.0001,-61.8313 56.5,-71.8314 60.0001,-61.8314 53.0001,-61.8313"/>
</g>
<!-- Vala.CodeNode -->
<g id="node3" class="node">
<title>Vala.CodeNode</title>
<polygon fill="none" stroke="#000000" stroke-width="2" points="113,-180 0,-180 0,-144 113,-144 113,-180"/>
<text text-anchor="middle" x="56.5" y="-158.3" font-family="Times" font-size="14.00" fill="#000000">Vala.CodeNode</text>
</g>
<!-- Vala.CodeNode&#45;&gt;Vala.DataType -->
<g id="edge2" class="edge">
<title>Vala.CodeNode&#45;&gt;Vala.DataType</title>
<path fill="none" stroke="#000000" d="M56.5,-133.5726C56.5,-125.1084 56.5,-116.0593 56.5,-108.4133"/>
<polygon fill="#000000" stroke="#000000" points="53.0001,-133.8313 56.5,-143.8314 60.0001,-133.8314 53.0001,-133.8313"/>
</g>
</g>
</svg>
