<?xml version="1.0" encoding="UTF-8" standalone="no"?>
<!DOCTYPE svg PUBLIC "-//W3C//DTD SVG 1.1//EN"
 "http://www.w3.org/Graphics/SVG/1.1/DTD/svg11.dtd">
<!-- Generated by graphviz version 2.40.1 (20161225.0304)
 -->
<!-- Title: Vala.CCodeControlFlowModule Pages: 1 -->
<svg width="201pt" height="404pt"
 viewBox="0.00 0.00 201.00 404.00" xmlns="http://www.w3.org/2000/svg" xmlns:xlink="http://www.w3.org/1999/xlink">
<g id="graph0" class="graph" transform="scale(1 1) rotate(0) translate(4 400)">
<title>Vala.CCodeControlFlowModule</title>
<polygon fill="#ffffff" stroke="transparent" points="-4,4 -4,-400 197,-400 197,4 -4,4"/>
<!-- Vala.CCodeControlFlowModule -->
<g id="node1" class="node">
<title>Vala.CCodeControlFlowModule</title>
<g id="a_node1"><a xlink:href="Vala.CCodeControlFlowModule.html" xlink:title="Vala.CCodeControlFlowModule">
<polygon fill="none" stroke="#000000" stroke-width="2" points="193,-36 0,-36 0,0 193,0 193,-36"/>
<text text-anchor="middle" x="96.5" y="-14.3" font-family="Times" font-size="14.00" fill="#000000">Vala.CCodeControlFlowModule</text>
</a>
</g>
</g>
<!-- Vala.CCodeMethodModule -->
<g id="node2" class="node">
<title>Vala.CCodeMethodModule</title>
<g id="a_node2"><a xlink:href="Vala.CCodeMethodModule.html" xlink:title="Vala.CCodeMethodModule">
<polygon fill="none" stroke="#000000" stroke-width="2" points="180,-108 13,-108 13,-72 180,-72 180,-108"/>
<text text-anchor="middle" x="96.5" y="-86.3" font-family="Times" font-size="14.00" fill="#000000">Vala.CCodeMethodModule</text>
</a>
</g>
</g>
<!-- Vala.CCodeMethodModule&#45;&gt;Vala.CCodeControlFlowModule -->
<g id="edge1" class="edge">
<title>Vala.CCodeMethodModule&#45;&gt;Vala.CCodeControlFlowModule</title>
<path fill="none" stroke="#000000" d="M96.5,-61.5726C96.5,-53.1084 96.5,-44.0593 96.5,-36.4133"/>
<polygon fill="#000000" stroke="#000000" points="93.0001,-61.8313 96.5,-71.8314 100.0001,-61.8314 93.0001,-61.8313"/>
</g>
<!-- Vala.CCodeStructModule -->
<g id="node3" class="node">
<title>Vala.CCodeStructModule</title>
<g id="a_node3"><a xlink:href="Vala.CCodeStructModule.html" xlink:title="Vala.CCodeStructModule">
<polygon fill="none" stroke="#000000" stroke-width="2" points="175,-180 18,-180 18,-144 175,-144 175,-180"/>
<text text-anchor="middle" x="96.5" y="-158.3" font-family="Times" font-size="14.00" fill="#000000">Vala.CCodeStructModule</text>
</a>
</g>
</g>
<!-- Vala.CCodeStructModule&#45;&gt;Vala.CCodeMethodModule -->
<g id="edge2" class="edge">
<title>Vala.CCodeStructModule&#45;&gt;Vala.CCodeMethodModule</title>
<path fill="none" stroke="#000000" d="M96.5,-133.5726C96.5,-125.1084 96.5,-116.0593 96.5,-108.4133"/>
<polygon fill="#000000" stroke="#000000" points="93.0001,-133.8313 96.5,-143.8314 100.0001,-133.8314 93.0001,-133.8313"/>
</g>
<!-- Vala.CCodeBaseModule -->
<g id="node4" class="node">
<title>Vala.CCodeBaseModule</title>
<g id="a_node4"><a xlink:href="Vala.CCodeBaseModule.html" xlink:title="Vala.CCodeBaseModule">
<polygon fill="none" stroke="#000000" stroke-width="2" points="172,-252 21,-252 21,-216 172,-216 172,-252"/>
<text text-anchor="middle" x="96.5" y="-230.3" font-family="Times" font-size="14.00" fill="#000000">Vala.CCodeBaseModule</text>
</a>
</g>
</g>
<!-- Vala.CCodeBaseModule&#45;&gt;Vala.CCodeStructModule -->
<g id="edge3" class="edge">
<title>Vala.CCodeBaseModule&#45;&gt;Vala.CCodeStructModule</title>
<path fill="none" stroke="#000000" d="M96.5,-205.5726C96.5,-197.1084 96.5,-188.0593 96.5,-180.4133"/>
<polygon fill="#000000" stroke="#000000" points="93.0001,-205.8313 96.5,-215.8314 100.0001,-205.8314 93.0001,-205.8313"/>
</g>
<!-- Vala.CodeGenerator -->
<g id="node5" class="node">
<title>Vala.CodeGenerator</title>
<polygon fill="none" stroke="#000000" stroke-width="2" points="160,-324 33,-324 33,-288 160,-288 160,-324"/>
<text text-anchor="middle" x="96.5" y="-302.3" font-family="Times" font-size="14.00" fill="#000000">Vala.CodeGenerator</text>
</g>
<!-- Vala.CodeGenerator&#45;&gt;Vala.CCodeBaseModule -->
<g id="edge4" class="edge">
<title>Vala.CodeGenerator&#45;&gt;Vala.CCodeBaseModule</title>
<path fill="none" stroke="#000000" d="M96.5,-277.5726C96.5,-269.1084 96.5,-260.0593 96.5,-252.4133"/>
<polygon fill="#000000" stroke="#000000" points="93.0001,-277.8313 96.5,-287.8314 100.0001,-277.8314 93.0001,-277.8313"/>
</g>
<!-- Vala.CodeVisitor -->
<g id="node6" class="node">
<title>Vala.CodeVisitor</title>
<polygon fill="none" stroke="#000000" stroke-width="2" points="151.5,-396 41.5,-396 41.5,-360 151.5,-360 151.5,-396"/>
<text text-anchor="middle" x="96.5" y="-374.3" font-family="Times" font-size="14.00" fill="#000000">Vala.CodeVisitor</text>
</g>
<!-- Vala.CodeVisitor&#45;&gt;Vala.CodeGenerator -->
<g id="edge5" class="edge">
<title>Vala.CodeVisitor&#45;&gt;Vala.CodeGenerator</title>
<path fill="none" stroke="#000000" d="M96.5,-349.5726C96.5,-341.1084 96.5,-332.0593 96.5,-324.4133"/>
<polygon fill="#000000" stroke="#000000" points="93.0001,-349.8313 96.5,-359.8314 100.0001,-349.8314 93.0001,-349.8313"/>
</g>
</g>
</svg>
