<?xml version="1.0" encoding="UTF-8" standalone="no"?>
<!DOCTYPE svg PUBLIC "-//W3C//DTD SVG 1.1//EN"
 "http://www.w3.org/Graphics/SVG/1.1/DTD/svg11.dtd">
<!-- Generated by graphviz version 2.42.3 (0)
 -->
<!-- Title: Vala.CCodeMemberAccessModule Pages: 1 -->
<svg width="219pt" height="476pt"
 viewBox="0.00 0.00 219.00 476.00" xmlns="http://www.w3.org/2000/svg" xmlns:xlink="http://www.w3.org/1999/xlink">
<g id="graph0" class="graph" transform="scale(1 1) rotate(0) translate(4 472)">
<title>Vala.CCodeMemberAccessModule</title>
<polygon fill="white" stroke="transparent" points="-4,4 -4,-472 215,-472 215,4 -4,4"/>
<!-- Vala.CCodeMemberAccessModule -->
<g id="node1" class="node">
<title>Vala.CCodeMemberAccessModule</title>
<g id="a_node1"><a xlink:href="Vala.CCodeMemberAccessModule.html" xlink:title="Vala.CCodeMemberAccessModule">
<polygon fill="none" stroke="black" stroke-width="2" points="211,-36 0,-36 0,0 211,0 211,-36"/>
<text text-anchor="middle" x="105.5" y="-14.3" font-family="Times" font-size="14.00">Vala.CCodeMemberAccessModule</text>
</a>
</g>
</g>
<!-- Vala.CCodeControlFlowModule -->
<g id="node2" class="node">
<title>Vala.CCodeControlFlowModule</title>
<g id="a_node2"><a xlink:href="Vala.CCodeControlFlowModule.html" xlink:title="Vala.CCodeControlFlowModule">
<polygon fill="none" stroke="black" stroke-width="2" points="203,-108 8,-108 8,-72 203,-72 203,-108"/>
<text text-anchor="middle" x="105.5" y="-86.3" font-family="Times" font-size="14.00">Vala.CCodeControlFlowModule</text>
</a>
</g>
</g>
<!-- Vala.CCodeControlFlowModule&#45;&gt;Vala.CCodeMemberAccessModule -->
<g id="edge1" class="edge">
<title>Vala.CCodeControlFlowModule&#45;&gt;Vala.CCodeMemberAccessModule</title>
<path fill="none" stroke="black" d="M105.5,-61.67C105.5,-53.05 105.5,-43.79 105.5,-36.1"/>
<polygon fill="black" stroke="black" points="102,-61.7 105.5,-71.7 109,-61.7 102,-61.7"/>
</g>
<!-- Vala.CCodeMethodModule -->
<g id="node3" class="node">
<title>Vala.CCodeMethodModule</title>
<g id="a_node3"><a xlink:href="Vala.CCodeMethodModule.html" xlink:title="Vala.CCodeMethodModule">
<polygon fill="none" stroke="black" stroke-width="2" points="189.5,-180 21.5,-180 21.5,-144 189.5,-144 189.5,-180"/>
<text text-anchor="middle" x="105.5" y="-158.3" font-family="Times" font-size="14.00">Vala.CCodeMethodModule</text>
</a>
</g>
</g>
<!-- Vala.CCodeMethodModule&#45;&gt;Vala.CCodeControlFlowModule -->
<g id="edge2" class="edge">
<title>Vala.CCodeMethodModule&#45;&gt;Vala.CCodeControlFlowModule</title>
<path fill="none" stroke="black" d="M105.5,-133.67C105.5,-125.05 105.5,-115.79 105.5,-108.1"/>
<polygon fill="black" stroke="black" points="102,-133.7 105.5,-143.7 109,-133.7 102,-133.7"/>
</g>
<!-- Vala.CCodeStructModule -->
<g id="node4" class="node">
<title>Vala.CCodeStructModule</title>
<g id="a_node4"><a xlink:href="Vala.CCodeStructModule.html" xlink:title="Vala.CCodeStructModule">
<polygon fill="none" stroke="black" stroke-width="2" points="184.5,-252 26.5,-252 26.5,-216 184.5,-216 184.5,-252"/>
<text text-anchor="middle" x="105.5" y="-230.3" font-family="Times" font-size="14.00">Vala.CCodeStructModule</text>
</a>
</g>
</g>
<!-- Vala.CCodeStructModule&#45;&gt;Vala.CCodeMethodModule -->
<g id="edge3" class="edge">
<title>Vala.CCodeStructModule&#45;&gt;Vala.CCodeMethodModule</title>
<path fill="none" stroke="black" d="M105.5,-205.67C105.5,-197.05 105.5,-187.79 105.5,-180.1"/>
<polygon fill="black" stroke="black" points="102,-205.7 105.5,-215.7 109,-205.7 102,-205.7"/>
</g>
<!-- Vala.CCodeBaseModule -->
<g id="node5" class="node">
<title>Vala.CCodeBaseModule</title>
<g id="a_node5"><a xlink:href="Vala.CCodeBaseModule.html" xlink:title="Vala.CCodeBaseModule">
<polygon fill="none" stroke="black" stroke-width="2" points="181.5,-324 29.5,-324 29.5,-288 181.5,-288 181.5,-324"/>
<text text-anchor="middle" x="105.5" y="-302.3" font-family="Times" font-size="14.00">Vala.CCodeBaseModule</text>
</a>
</g>
</g>
<!-- Vala.CCodeBaseModule&#45;&gt;Vala.CCodeStructModule -->
<g id="edge4" class="edge">
<title>Vala.CCodeBaseModule&#45;&gt;Vala.CCodeStructModule</title>
<path fill="none" stroke="black" d="M105.5,-277.67C105.5,-269.05 105.5,-259.79 105.5,-252.1"/>
<polygon fill="black" stroke="black" points="102,-277.7 105.5,-287.7 109,-277.7 102,-277.7"/>
</g>
<!-- Vala.CodeGenerator -->
<g id="node6" class="node">
<title>Vala.CodeGenerator</title>
<g id="a_node6"><a xlink:href="../vala/Vala.CodeGenerator.html" xlink:title="Vala.CodeGenerator">
<polygon fill="none" stroke="black" stroke-width="2" points="169.5,-396 41.5,-396 41.5,-360 169.5,-360 169.5,-396"/>
<text text-anchor="middle" x="105.5" y="-374.3" font-family="Times" font-size="14.00">Vala.CodeGenerator</text>
</a>
</g>
</g>
<!-- Vala.CodeGenerator&#45;&gt;Vala.CCodeBaseModule -->
<g id="edge5" class="edge">
<title>Vala.CodeGenerator&#45;&gt;Vala.CCodeBaseModule</title>
<path fill="none" stroke="black" d="M105.5,-349.67C105.5,-341.05 105.5,-331.79 105.5,-324.1"/>
<polygon fill="black" stroke="black" points="102,-349.7 105.5,-359.7 109,-349.7 102,-349.7"/>
</g>
<!-- Vala.CodeVisitor -->
<g id="node7" class="node">
<title>Vala.CodeVisitor</title>
<g id="a_node7"><a xlink:href="../vala/Vala.CodeVisitor.html" xlink:title="Vala.CodeVisitor">
<polygon fill="none" stroke="black" stroke-width="2" points="161,-468 50,-468 50,-432 161,-432 161,-468"/>
<text text-anchor="middle" x="105.5" y="-446.3" font-family="Times" font-size="14.00">Vala.CodeVisitor</text>
</a>
</g>
</g>
<!-- Vala.CodeVisitor&#45;&gt;Vala.CodeGenerator -->
<g id="edge6" class="edge">
<title>Vala.CodeVisitor&#45;&gt;Vala.CodeGenerator</title>
<path fill="none" stroke="black" d="M105.5,-421.67C105.5,-413.05 105.5,-403.79 105.5,-396.1"/>
<polygon fill="black" stroke="black" points="102,-421.7 105.5,-431.7 109,-421.7 102,-421.7"/>
</g>
</g>
</svg>
