<?xml version="1.0" encoding="UTF-8" standalone="no"?>
<!DOCTYPE svg PUBLIC "-//W3C//DTD SVG 1.1//EN"
 "http://www.w3.org/Graphics/SVG/1.1/DTD/svg11.dtd">
<!-- Generated by graphviz version 2.42.3 (0)
 -->
<!-- Title: Vala.GAsyncModule Pages: 1 -->
<svg width="219pt" height="1196pt"
 viewBox="0.00 0.00 219.00 1196.00" xmlns="http://www.w3.org/2000/svg" xmlns:xlink="http://www.w3.org/1999/xlink">
<g id="graph0" class="graph" transform="scale(1 1) rotate(0) translate(4 1192)">
<title>Vala.GAsyncModule</title>
<polygon fill="white" stroke="transparent" points="-4,4 -4,-1192 215,-1192 215,4 -4,4"/>
<!-- Vala.GAsyncModule -->
<g id="node1" class="node">
<title>Vala.GAsyncModule</title>
<g id="a_node1"><a xlink:href="Vala.GAsyncModule.html" xlink:title="Vala.GAsyncModule">
<polygon fill="none" stroke="black" stroke-width="2" points="171.5,-36 39.5,-36 39.5,0 171.5,0 171.5,-36"/>
<text text-anchor="middle" x="105.5" y="-14.3" font-family="Times" font-size="14.00">Vala.GAsyncModule</text>
</a>
</g>
</g>
<!-- Vala.GtkModule -->
<g id="node2" class="node">
<title>Vala.GtkModule</title>
<g id="a_node2"><a xlink:href="Vala.GtkModule.html" xlink:title="Vala.GtkModule">
<polygon fill="none" stroke="black" stroke-width="2" points="159.5,-108 51.5,-108 51.5,-72 159.5,-72 159.5,-108"/>
<text text-anchor="middle" x="105.5" y="-86.3" font-family="Times" font-size="14.00">Vala.GtkModule</text>
</a>
</g>
</g>
<!-- Vala.GtkModule&#45;&gt;Vala.GAsyncModule -->
<g id="edge1" class="edge">
<title>Vala.GtkModule&#45;&gt;Vala.GAsyncModule</title>
<path fill="none" stroke="black" d="M105.5,-61.67C105.5,-53.05 105.5,-43.79 105.5,-36.1"/>
<polygon fill="black" stroke="black" points="102,-61.7 105.5,-71.7 109,-61.7 102,-61.7"/>
</g>
<!-- Vala.GSignalModule -->
<g id="node3" class="node">
<title>Vala.GSignalModule</title>
<g id="a_node3"><a xlink:href="Vala.GSignalModule.html" xlink:title="Vala.GSignalModule">
<polygon fill="none" stroke="black" stroke-width="2" points="171.5,-180 39.5,-180 39.5,-144 171.5,-144 171.5,-180"/>
<text text-anchor="middle" x="105.5" y="-158.3" font-family="Times" font-size="14.00">Vala.GSignalModule</text>
</a>
</g>
</g>
<!-- Vala.GSignalModule&#45;&gt;Vala.GtkModule -->
<g id="edge2" class="edge">
<title>Vala.GSignalModule&#45;&gt;Vala.GtkModule</title>
<path fill="none" stroke="black" d="M105.5,-133.67C105.5,-125.05 105.5,-115.79 105.5,-108.1"/>
<polygon fill="black" stroke="black" points="102,-133.7 105.5,-143.7 109,-133.7 102,-133.7"/>
</g>
<!-- Vala.GObjectModule -->
<g id="node4" class="node">
<title>Vala.GObjectModule</title>
<g id="a_node4"><a xlink:href="Vala.GObjectModule.html" xlink:title="Vala.GObjectModule">
<polygon fill="none" stroke="black" stroke-width="2" points="172.5,-252 38.5,-252 38.5,-216 172.5,-216 172.5,-252"/>
<text text-anchor="middle" x="105.5" y="-230.3" font-family="Times" font-size="14.00">Vala.GObjectModule</text>
</a>
</g>
</g>
<!-- Vala.GObjectModule&#45;&gt;Vala.GSignalModule -->
<g id="edge3" class="edge">
<title>Vala.GObjectModule&#45;&gt;Vala.GSignalModule</title>
<path fill="none" stroke="black" d="M105.5,-205.67C105.5,-197.05 105.5,-187.79 105.5,-180.1"/>
<polygon fill="black" stroke="black" points="102,-205.7 105.5,-215.7 109,-205.7 102,-205.7"/>
</g>
<!-- Vala.GTypeModule -->
<g id="node5" class="node">
<title>Vala.GTypeModule</title>
<g id="a_node5"><a xlink:href="Vala.GTypeModule.html" xlink:title="Vala.GTypeModule">
<polygon fill="none" stroke="black" stroke-width="2" points="167.5,-324 43.5,-324 43.5,-288 167.5,-288 167.5,-324"/>
<text text-anchor="middle" x="105.5" y="-302.3" font-family="Times" font-size="14.00">Vala.GTypeModule</text>
</a>
</g>
</g>
<!-- Vala.GTypeModule&#45;&gt;Vala.GObjectModule -->
<g id="edge4" class="edge">
<title>Vala.GTypeModule&#45;&gt;Vala.GObjectModule</title>
<path fill="none" stroke="black" d="M105.5,-277.67C105.5,-269.05 105.5,-259.79 105.5,-252.1"/>
<polygon fill="black" stroke="black" points="102,-277.7 105.5,-287.7 109,-277.7 102,-277.7"/>
</g>
<!-- Vala.GErrorModule -->
<g id="node6" class="node">
<title>Vala.GErrorModule</title>
<g id="a_node6"><a xlink:href="Vala.GErrorModule.html" xlink:title="Vala.GErrorModule">
<polygon fill="none" stroke="black" stroke-width="2" points="169,-396 42,-396 42,-360 169,-360 169,-396"/>
<text text-anchor="middle" x="105.5" y="-374.3" font-family="Times" font-size="14.00">Vala.GErrorModule</text>
</a>
</g>
</g>
<!-- Vala.GErrorModule&#45;&gt;Vala.GTypeModule -->
<g id="edge5" class="edge">
<title>Vala.GErrorModule&#45;&gt;Vala.GTypeModule</title>
<path fill="none" stroke="black" d="M105.5,-349.67C105.5,-341.05 105.5,-331.79 105.5,-324.1"/>
<polygon fill="black" stroke="black" points="102,-349.7 105.5,-359.7 109,-349.7 102,-349.7"/>
</g>
<!-- Vala.CCodeDelegateModule -->
<g id="node7" class="node">
<title>Vala.CCodeDelegateModule</title>
<g id="a_node7"><a xlink:href="Vala.CCodeDelegateModule.html" xlink:title="Vala.CCodeDelegateModule">
<polygon fill="none" stroke="black" stroke-width="2" points="192.5,-468 18.5,-468 18.5,-432 192.5,-432 192.5,-468"/>
<text text-anchor="middle" x="105.5" y="-446.3" font-family="Times" font-size="14.00">Vala.CCodeDelegateModule</text>
</a>
</g>
</g>
<!-- Vala.CCodeDelegateModule&#45;&gt;Vala.GErrorModule -->
<g id="edge6" class="edge">
<title>Vala.CCodeDelegateModule&#45;&gt;Vala.GErrorModule</title>
<path fill="none" stroke="black" d="M105.5,-421.67C105.5,-413.05 105.5,-403.79 105.5,-396.1"/>
<polygon fill="black" stroke="black" points="102,-421.7 105.5,-431.7 109,-421.7 102,-421.7"/>
</g>
<!-- Vala.CCodeArrayModule -->
<g id="node8" class="node">
<title>Vala.CCodeArrayModule</title>
<g id="a_node8"><a xlink:href="Vala.CCodeArrayModule.html" xlink:title="Vala.CCodeArrayModule">
<polygon fill="none" stroke="black" stroke-width="2" points="184.5,-540 26.5,-540 26.5,-504 184.5,-504 184.5,-540"/>
<text text-anchor="middle" x="105.5" y="-518.3" font-family="Times" font-size="14.00">Vala.CCodeArrayModule</text>
</a>
</g>
</g>
<!-- Vala.CCodeArrayModule&#45;&gt;Vala.CCodeDelegateModule -->
<g id="edge7" class="edge">
<title>Vala.CCodeArrayModule&#45;&gt;Vala.CCodeDelegateModule</title>
<path fill="none" stroke="black" d="M105.5,-493.67C105.5,-485.05 105.5,-475.79 105.5,-468.1"/>
<polygon fill="black" stroke="black" points="102,-493.7 105.5,-503.7 109,-493.7 102,-493.7"/>
</g>
<!-- Vala.CCodeMethodCallModule -->
<g id="node9" class="node">
<title>Vala.CCodeMethodCallModule</title>
<g id="a_node9"><a xlink:href="Vala.CCodeMethodCallModule.html" xlink:title="Vala.CCodeMethodCallModule">
<polygon fill="none" stroke="black" stroke-width="2" points="201,-612 10,-612 10,-576 201,-576 201,-612"/>
<text text-anchor="middle" x="105.5" y="-590.3" font-family="Times" font-size="14.00">Vala.CCodeMethodCallModule</text>
</a>
</g>
</g>
<!-- Vala.CCodeMethodCallModule&#45;&gt;Vala.CCodeArrayModule -->
<g id="edge8" class="edge">
<title>Vala.CCodeMethodCallModule&#45;&gt;Vala.CCodeArrayModule</title>
<path fill="none" stroke="black" d="M105.5,-565.67C105.5,-557.05 105.5,-547.79 105.5,-540.1"/>
<polygon fill="black" stroke="black" points="102,-565.7 105.5,-575.7 109,-565.7 102,-565.7"/>
</g>
<!-- Vala.CCodeAssignmentModule -->
<g id="node10" class="node">
<title>Vala.CCodeAssignmentModule</title>
<g id="a_node10"><a xlink:href="Vala.CCodeAssignmentModule.html" xlink:title="Vala.CCodeAssignmentModule">
<polygon fill="none" stroke="black" stroke-width="2" points="201,-684 10,-684 10,-648 201,-648 201,-684"/>
<text text-anchor="middle" x="105.5" y="-662.3" font-family="Times" font-size="14.00">Vala.CCodeAssignmentModule</text>
</a>
</g>
</g>
<!-- Vala.CCodeAssignmentModule&#45;&gt;Vala.CCodeMethodCallModule -->
<g id="edge9" class="edge">
<title>Vala.CCodeAssignmentModule&#45;&gt;Vala.CCodeMethodCallModule</title>
<path fill="none" stroke="black" d="M105.5,-637.67C105.5,-629.05 105.5,-619.79 105.5,-612.1"/>
<polygon fill="black" stroke="black" points="102,-637.7 105.5,-647.7 109,-637.7 102,-637.7"/>
</g>
<!-- Vala.CCodeMemberAccessModule -->
<g id="node11" class="node">
<title>Vala.CCodeMemberAccessModule</title>
<g id="a_node11"><a xlink:href="Vala.CCodeMemberAccessModule.html" xlink:title="Vala.CCodeMemberAccessModule">
<polygon fill="none" stroke="black" stroke-width="2" points="211,-756 0,-756 0,-720 211,-720 211,-756"/>
<text text-anchor="middle" x="105.5" y="-734.3" font-family="Times" font-size="14.00">Vala.CCodeMemberAccessModule</text>
</a>
</g>
</g>
<!-- Vala.CCodeMemberAccessModule&#45;&gt;Vala.CCodeAssignmentModule -->
<g id="edge10" class="edge">
<title>Vala.CCodeMemberAccessModule&#45;&gt;Vala.CCodeAssignmentModule</title>
<path fill="none" stroke="black" d="M105.5,-709.67C105.5,-701.05 105.5,-691.79 105.5,-684.1"/>
<polygon fill="black" stroke="black" points="102,-709.7 105.5,-719.7 109,-709.7 102,-709.7"/>
</g>
<!-- Vala.CCodeControlFlowModule -->
<g id="node12" class="node">
<title>Vala.CCodeControlFlowModule</title>
<g id="a_node12"><a xlink:href="Vala.CCodeControlFlowModule.html" xlink:title="Vala.CCodeControlFlowModule">
<polygon fill="none" stroke="black" stroke-width="2" points="203,-828 8,-828 8,-792 203,-792 203,-828"/>
<text text-anchor="middle" x="105.5" y="-806.3" font-family="Times" font-size="14.00">Vala.CCodeControlFlowModule</text>
</a>
</g>
</g>
<!-- Vala.CCodeControlFlowModule&#45;&gt;Vala.CCodeMemberAccessModule -->
<g id="edge11" class="edge">
<title>Vala.CCodeControlFlowModule&#45;&gt;Vala.CCodeMemberAccessModule</title>
<path fill="none" stroke="black" d="M105.5,-781.67C105.5,-773.05 105.5,-763.79 105.5,-756.1"/>
<polygon fill="black" stroke="black" points="102,-781.7 105.5,-791.7 109,-781.7 102,-781.7"/>
</g>
<!-- Vala.CCodeMethodModule -->
<g id="node13" class="node">
<title>Vala.CCodeMethodModule</title>
<g id="a_node13"><a xlink:href="Vala.CCodeMethodModule.html" xlink:title="Vala.CCodeMethodModule">
<polygon fill="none" stroke="black" stroke-width="2" points="189.5,-900 21.5,-900 21.5,-864 189.5,-864 189.5,-900"/>
<text text-anchor="middle" x="105.5" y="-878.3" font-family="Times" font-size="14.00">Vala.CCodeMethodModule</text>
</a>
</g>
</g>
<!-- Vala.CCodeMethodModule&#45;&gt;Vala.CCodeControlFlowModule -->
<g id="edge12" class="edge">
<title>Vala.CCodeMethodModule&#45;&gt;Vala.CCodeControlFlowModule</title>
<path fill="none" stroke="black" d="M105.5,-853.67C105.5,-845.05 105.5,-835.79 105.5,-828.1"/>
<polygon fill="black" stroke="black" points="102,-853.7 105.5,-863.7 109,-853.7 102,-853.7"/>
</g>
<!-- Vala.CCodeStructModule -->
<g id="node14" class="node">
<title>Vala.CCodeStructModule</title>
<g id="a_node14"><a xlink:href="Vala.CCodeStructModule.html" xlink:title="Vala.CCodeStructModule">
<polygon fill="none" stroke="black" stroke-width="2" points="184.5,-972 26.5,-972 26.5,-936 184.5,-936 184.5,-972"/>
<text text-anchor="middle" x="105.5" y="-950.3" font-family="Times" font-size="14.00">Vala.CCodeStructModule</text>
</a>
</g>
</g>
<!-- Vala.CCodeStructModule&#45;&gt;Vala.CCodeMethodModule -->
<g id="edge13" class="edge">
<title>Vala.CCodeStructModule&#45;&gt;Vala.CCodeMethodModule</title>
<path fill="none" stroke="black" d="M105.5,-925.67C105.5,-917.05 105.5,-907.79 105.5,-900.1"/>
<polygon fill="black" stroke="black" points="102,-925.7 105.5,-935.7 109,-925.7 102,-925.7"/>
</g>
<!-- Vala.CCodeBaseModule -->
<g id="node15" class="node">
<title>Vala.CCodeBaseModule</title>
<g id="a_node15"><a xlink:href="Vala.CCodeBaseModule.html" xlink:title="Vala.CCodeBaseModule">
<polygon fill="none" stroke="black" stroke-width="2" points="181.5,-1044 29.5,-1044 29.5,-1008 181.5,-1008 181.5,-1044"/>
<text text-anchor="middle" x="105.5" y="-1022.3" font-family="Times" font-size="14.00">Vala.CCodeBaseModule</text>
</a>
</g>
</g>
<!-- Vala.CCodeBaseModule&#45;&gt;Vala.CCodeStructModule -->
<g id="edge14" class="edge">
<title>Vala.CCodeBaseModule&#45;&gt;Vala.CCodeStructModule</title>
<path fill="none" stroke="black" d="M105.5,-997.67C105.5,-989.05 105.5,-979.79 105.5,-972.1"/>
<polygon fill="black" stroke="black" points="102,-997.7 105.5,-1007.7 109,-997.7 102,-997.7"/>
</g>
<!-- Vala.CodeGenerator -->
<g id="node16" class="node">
<title>Vala.CodeGenerator</title>
<g id="a_node16"><a xlink:href="../vala/Vala.CodeGenerator.html" xlink:title="Vala.CodeGenerator">
<polygon fill="none" stroke="black" stroke-width="2" points="169.5,-1116 41.5,-1116 41.5,-1080 169.5,-1080 169.5,-1116"/>
<text text-anchor="middle" x="105.5" y="-1094.3" font-family="Times" font-size="14.00">Vala.CodeGenerator</text>
</a>
</g>
</g>
<!-- Vala.CodeGenerator&#45;&gt;Vala.CCodeBaseModule -->
<g id="edge15" class="edge">
<title>Vala.CodeGenerator&#45;&gt;Vala.CCodeBaseModule</title>
<path fill="none" stroke="black" d="M105.5,-1069.67C105.5,-1061.05 105.5,-1051.79 105.5,-1044.1"/>
<polygon fill="black" stroke="black" points="102,-1069.7 105.5,-1079.7 109,-1069.7 102,-1069.7"/>
</g>
<!-- Vala.CodeVisitor -->
<g id="node17" class="node">
<title>Vala.CodeVisitor</title>
<g id="a_node17"><a xlink:href="../vala/Vala.CodeVisitor.html" xlink:title="Vala.CodeVisitor">
<polygon fill="none" stroke="black" stroke-width="2" points="161,-1188 50,-1188 50,-1152 161,-1152 161,-1188"/>
<text text-anchor="middle" x="105.5" y="-1166.3" font-family="Times" font-size="14.00">Vala.CodeVisitor</text>
</a>
</g>
</g>
<!-- Vala.CodeVisitor&#45;&gt;Vala.CodeGenerator -->
<g id="edge16" class="edge">
<title>Vala.CodeVisitor&#45;&gt;Vala.CodeGenerator</title>
<path fill="none" stroke="black" d="M105.5,-1141.67C105.5,-1133.05 105.5,-1123.79 105.5,-1116.1"/>
<polygon fill="black" stroke="black" points="102,-1141.7 105.5,-1151.7 109,-1141.7 102,-1141.7"/>
</g>
</g>
</svg>
