<?xml version="1.0" encoding="UTF-8" standalone="no"?>
<!DOCTYPE svg PUBLIC "-//W3C//DTD SVG 1.1//EN"
 "http://www.w3.org/Graphics/SVG/1.1/DTD/svg11.dtd">
<!-- Generated by graphviz version 2.40.1 (0)
 -->
<!-- Title: Vala.CCodeBaseModule Pages: 1 -->
<svg width="160pt" height="188pt"
 viewBox="0.00 0.00 160.00 188.00" xmlns="http://www.w3.org/2000/svg" xmlns:xlink="http://www.w3.org/1999/xlink">
<g id="graph0" class="graph" transform="scale(1 1) rotate(0) translate(4 184)">
<title>Vala.CCodeBaseModule</title>
<polygon fill="#ffffff" stroke="transparent" points="-4,4 -4,-184 156,-184 156,4 -4,4"/>
<!-- Vala.CCodeBaseModule -->
<g id="node1" class="node">
<title>Vala.CCodeBaseModule</title>
<g id="a_node1"><a xlink:href="Vala.CCodeBaseModule.html" xlink:title="Vala.CCodeBaseModule">
<polygon fill="none" stroke="#000000" stroke-width="2" points="152,-36 0,-36 0,0 152,0 152,-36"/>
<text text-anchor="middle" x="76" y="-14.3" font-family="Times" font-size="14.00" fill="#000000">Vala.CCodeBaseModule</text>
</a>
</g>
</g>
<!-- Vala.CodeGenerator -->
<g id="node2" class="node">
<title>Vala.CodeGenerator</title>
<g id="a_node2"><a xlink:href="../vala/Vala.CodeGenerator.html" xlink:title="Vala.CodeGenerator">
<polygon fill="none" stroke="#000000" stroke-width="2" points="140,-108 12,-108 12,-72 140,-72 140,-108"/>
<text text-anchor="middle" x="76" y="-86.3" font-family="Times" font-size="14.00" fill="#000000">Vala.CodeGenerator</text>
</a>
</g>
</g>
<!-- Vala.CodeGenerator&#45;&gt;Vala.CCodeBaseModule -->
<g id="edge1" class="edge">
<title>Vala.CodeGenerator&#45;&gt;Vala.CCodeBaseModule</title>
<path fill="none" stroke="#000000" d="M76,-61.5726C76,-53.1084 76,-44.0593 76,-36.4133"/>
<polygon fill="#000000" stroke="#000000" points="72.5001,-61.8313 76,-71.8314 79.5001,-61.8314 72.5001,-61.8313"/>
</g>
<!-- Vala.CodeVisitor -->
<g id="node3" class="node">
<title>Vala.CodeVisitor</title>
<g id="a_node3"><a xlink:href="../vala/Vala.CodeVisitor.html" xlink:title="Vala.CodeVisitor">
<polygon fill="none" stroke="#000000" stroke-width="2" points="131.5,-180 20.5,-180 20.5,-144 131.5,-144 131.5,-180"/>
<text text-anchor="middle" x="76" y="-158.3" font-family="Times" font-size="14.00" fill="#000000">Vala.CodeVisitor</text>
</a>
</g>
</g>
<!-- Vala.CodeVisitor&#45;&gt;Vala.CodeGenerator -->
<g id="edge2" class="edge">
<title>Vala.CodeVisitor&#45;&gt;Vala.CodeGenerator</title>
<path fill="none" stroke="#000000" d="M76,-133.5726C76,-125.1084 76,-116.0593 76,-108.4133"/>
<polygon fill="#000000" stroke="#000000" points="72.5001,-133.8313 76,-143.8314 79.5001,-133.8314 72.5001,-133.8313"/>
</g>
</g>
</svg>
