<?xml version="1.0" encoding="UTF-8" standalone="no"?>
<!DOCTYPE svg PUBLIC "-//W3C//DTD SVG 1.1//EN"
 "http://www.w3.org/Graphics/SVG/1.1/DTD/svg11.dtd">
<!-- Generated by graphviz version 2.40.1 (0)
 -->
<!-- Title: Vala.CCodeArrayModule Pages: 1 -->
<svg width="219pt" height="692pt"
 viewBox="0.00 0.00 219.00 692.00" xmlns="http://www.w3.org/2000/svg" xmlns:xlink="http://www.w3.org/1999/xlink">
<g id="graph0" class="graph" transform="scale(1 1) rotate(0) translate(4 688)">
<title>Vala.CCodeArrayModule</title>
<polygon fill="#ffffff" stroke="transparent" points="-4,4 -4,-688 215,-688 215,4 -4,4"/>
<!-- Vala.CCodeArrayModule -->
<g id="node1" class="node">
<title>Vala.CCodeArrayModule</title>
<g id="a_node1"><a xlink:href="Vala.CCodeArrayModule.html" xlink:title="Vala.CCodeArrayModule">
<polygon fill="none" stroke="#000000" stroke-width="2" points="184.5,-36 26.5,-36 26.5,0 184.5,0 184.5,-36"/>
<text text-anchor="middle" x="105.5" y="-14.3" font-family="Times" font-size="14.00" fill="#000000">Vala.CCodeArrayModule</text>
</a>
</g>
</g>
<!-- Vala.CCodeMethodCallModule -->
<g id="node2" class="node">
<title>Vala.CCodeMethodCallModule</title>
<g id="a_node2"><a xlink:href="Vala.CCodeMethodCallModule.html" xlink:title="Vala.CCodeMethodCallModule">
<polygon fill="none" stroke="#000000" stroke-width="2" points="201,-108 10,-108 10,-72 201,-72 201,-108"/>
<text text-anchor="middle" x="105.5" y="-86.3" font-family="Times" font-size="14.00" fill="#000000">Vala.CCodeMethodCallModule</text>
</a>
</g>
</g>
<!-- Vala.CCodeMethodCallModule&#45;&gt;Vala.CCodeArrayModule -->
<g id="edge1" class="edge">
<title>Vala.CCodeMethodCallModule&#45;&gt;Vala.CCodeArrayModule</title>
<path fill="none" stroke="#000000" d="M105.5,-61.5726C105.5,-53.1084 105.5,-44.0593 105.5,-36.4133"/>
<polygon fill="#000000" stroke="#000000" points="102.0001,-61.8313 105.5,-71.8314 109.0001,-61.8314 102.0001,-61.8313"/>
</g>
<!-- Vala.CCodeAssignmentModule -->
<g id="node3" class="node">
<title>Vala.CCodeAssignmentModule</title>
<g id="a_node3"><a xlink:href="Vala.CCodeAssignmentModule.html" xlink:title="Vala.CCodeAssignmentModule">
<polygon fill="none" stroke="#000000" stroke-width="2" points="201,-180 10,-180 10,-144 201,-144 201,-180"/>
<text text-anchor="middle" x="105.5" y="-158.3" font-family="Times" font-size="14.00" fill="#000000">Vala.CCodeAssignmentModule</text>
</a>
</g>
</g>
<!-- Vala.CCodeAssignmentModule&#45;&gt;Vala.CCodeMethodCallModule -->
<g id="edge2" class="edge">
<title>Vala.CCodeAssignmentModule&#45;&gt;Vala.CCodeMethodCallModule</title>
<path fill="none" stroke="#000000" d="M105.5,-133.5726C105.5,-125.1084 105.5,-116.0593 105.5,-108.4133"/>
<polygon fill="#000000" stroke="#000000" points="102.0001,-133.8313 105.5,-143.8314 109.0001,-133.8314 102.0001,-133.8313"/>
</g>
<!-- Vala.CCodeMemberAccessModule -->
<g id="node4" class="node">
<title>Vala.CCodeMemberAccessModule</title>
<g id="a_node4"><a xlink:href="Vala.CCodeMemberAccessModule.html" xlink:title="Vala.CCodeMemberAccessModule">
<polygon fill="none" stroke="#000000" stroke-width="2" points="211,-252 0,-252 0,-216 211,-216 211,-252"/>
<text text-anchor="middle" x="105.5" y="-230.3" font-family="Times" font-size="14.00" fill="#000000">Vala.CCodeMemberAccessModule</text>
</a>
</g>
</g>
<!-- Vala.CCodeMemberAccessModule&#45;&gt;Vala.CCodeAssignmentModule -->
<g id="edge3" class="edge">
<title>Vala.CCodeMemberAccessModule&#45;&gt;Vala.CCodeAssignmentModule</title>
<path fill="none" stroke="#000000" d="M105.5,-205.5726C105.5,-197.1084 105.5,-188.0593 105.5,-180.4133"/>
<polygon fill="#000000" stroke="#000000" points="102.0001,-205.8313 105.5,-215.8314 109.0001,-205.8314 102.0001,-205.8313"/>
</g>
<!-- Vala.CCodeControlFlowModule -->
<g id="node5" class="node">
<title>Vala.CCodeControlFlowModule</title>
<g id="a_node5"><a xlink:href="Vala.CCodeControlFlowModule.html" xlink:title="Vala.CCodeControlFlowModule">
<polygon fill="none" stroke="#000000" stroke-width="2" points="203,-324 8,-324 8,-288 203,-288 203,-324"/>
<text text-anchor="middle" x="105.5" y="-302.3" font-family="Times" font-size="14.00" fill="#000000">Vala.CCodeControlFlowModule</text>
</a>
</g>
</g>
<!-- Vala.CCodeControlFlowModule&#45;&gt;Vala.CCodeMemberAccessModule -->
<g id="edge4" class="edge">
<title>Vala.CCodeControlFlowModule&#45;&gt;Vala.CCodeMemberAccessModule</title>
<path fill="none" stroke="#000000" d="M105.5,-277.5726C105.5,-269.1084 105.5,-260.0593 105.5,-252.4133"/>
<polygon fill="#000000" stroke="#000000" points="102.0001,-277.8313 105.5,-287.8314 109.0001,-277.8314 102.0001,-277.8313"/>
</g>
<!-- Vala.CCodeMethodModule -->
<g id="node6" class="node">
<title>Vala.CCodeMethodModule</title>
<g id="a_node6"><a xlink:href="Vala.CCodeMethodModule.html" xlink:title="Vala.CCodeMethodModule">
<polygon fill="none" stroke="#000000" stroke-width="2" points="189.5,-396 21.5,-396 21.5,-360 189.5,-360 189.5,-396"/>
<text text-anchor="middle" x="105.5" y="-374.3" font-family="Times" font-size="14.00" fill="#000000">Vala.CCodeMethodModule</text>
</a>
</g>
</g>
<!-- Vala.CCodeMethodModule&#45;&gt;Vala.CCodeControlFlowModule -->
<g id="edge5" class="edge">
<title>Vala.CCodeMethodModule&#45;&gt;Vala.CCodeControlFlowModule</title>
<path fill="none" stroke="#000000" d="M105.5,-349.5726C105.5,-341.1084 105.5,-332.0593 105.5,-324.4133"/>
<polygon fill="#000000" stroke="#000000" points="102.0001,-349.8313 105.5,-359.8314 109.0001,-349.8314 102.0001,-349.8313"/>
</g>
<!-- Vala.CCodeStructModule -->
<g id="node7" class="node">
<title>Vala.CCodeStructModule</title>
<g id="a_node7"><a xlink:href="Vala.CCodeStructModule.html" xlink:title="Vala.CCodeStructModule">
<polygon fill="none" stroke="#000000" stroke-width="2" points="184.5,-468 26.5,-468 26.5,-432 184.5,-432 184.5,-468"/>
<text text-anchor="middle" x="105.5" y="-446.3" font-family="Times" font-size="14.00" fill="#000000">Vala.CCodeStructModule</text>
</a>
</g>
</g>
<!-- Vala.CCodeStructModule&#45;&gt;Vala.CCodeMethodModule -->
<g id="edge6" class="edge">
<title>Vala.CCodeStructModule&#45;&gt;Vala.CCodeMethodModule</title>
<path fill="none" stroke="#000000" d="M105.5,-421.5726C105.5,-413.1084 105.5,-404.0593 105.5,-396.4133"/>
<polygon fill="#000000" stroke="#000000" points="102.0001,-421.8313 105.5,-431.8314 109.0001,-421.8314 102.0001,-421.8313"/>
</g>
<!-- Vala.CCodeBaseModule -->
<g id="node8" class="node">
<title>Vala.CCodeBaseModule</title>
<g id="a_node8"><a xlink:href="Vala.CCodeBaseModule.html" xlink:title="Vala.CCodeBaseModule">
<polygon fill="none" stroke="#000000" stroke-width="2" points="181.5,-540 29.5,-540 29.5,-504 181.5,-504 181.5,-540"/>
<text text-anchor="middle" x="105.5" y="-518.3" font-family="Times" font-size="14.00" fill="#000000">Vala.CCodeBaseModule</text>
</a>
</g>
</g>
<!-- Vala.CCodeBaseModule&#45;&gt;Vala.CCodeStructModule -->
<g id="edge7" class="edge">
<title>Vala.CCodeBaseModule&#45;&gt;Vala.CCodeStructModule</title>
<path fill="none" stroke="#000000" d="M105.5,-493.5726C105.5,-485.1084 105.5,-476.0593 105.5,-468.4133"/>
<polygon fill="#000000" stroke="#000000" points="102.0001,-493.8313 105.5,-503.8314 109.0001,-493.8314 102.0001,-493.8313"/>
</g>
<!-- Vala.CodeGenerator -->
<g id="node9" class="node">
<title>Vala.CodeGenerator</title>
<g id="a_node9"><a xlink:href="../vala/Vala.CodeGenerator.html" xlink:title="Vala.CodeGenerator">
<polygon fill="none" stroke="#000000" stroke-width="2" points="169.5,-612 41.5,-612 41.5,-576 169.5,-576 169.5,-612"/>
<text text-anchor="middle" x="105.5" y="-590.3" font-family="Times" font-size="14.00" fill="#000000">Vala.CodeGenerator</text>
</a>
</g>
</g>
<!-- Vala.CodeGenerator&#45;&gt;Vala.CCodeBaseModule -->
<g id="edge8" class="edge">
<title>Vala.CodeGenerator&#45;&gt;Vala.CCodeBaseModule</title>
<path fill="none" stroke="#000000" d="M105.5,-565.5726C105.5,-557.1084 105.5,-548.0593 105.5,-540.4133"/>
<polygon fill="#000000" stroke="#000000" points="102.0001,-565.8313 105.5,-575.8314 109.0001,-565.8314 102.0001,-565.8313"/>
</g>
<!-- Vala.CodeVisitor -->
<g id="node10" class="node">
<title>Vala.CodeVisitor</title>
<g id="a_node10"><a xlink:href="../vala/Vala.CodeVisitor.html" xlink:title="Vala.CodeVisitor">
<polygon fill="none" stroke="#000000" stroke-width="2" points="161,-684 50,-684 50,-648 161,-648 161,-684"/>
<text text-anchor="middle" x="105.5" y="-662.3" font-family="Times" font-size="14.00" fill="#000000">Vala.CodeVisitor</text>
</a>
</g>
</g>
<!-- Vala.CodeVisitor&#45;&gt;Vala.CodeGenerator -->
<g id="edge9" class="edge">
<title>Vala.CodeVisitor&#45;&gt;Vala.CodeGenerator</title>
<path fill="none" stroke="#000000" d="M105.5,-637.5726C105.5,-629.1084 105.5,-620.0593 105.5,-612.4133"/>
<polygon fill="#000000" stroke="#000000" points="102.0001,-637.8313 105.5,-647.8314 109.0001,-637.8314 102.0001,-637.8313"/>
</g>
</g>
</svg>
