<?xml version="1.0" encoding="UTF-8" standalone="no"?>
<!DOCTYPE svg PUBLIC "-//W3C//DTD SVG 1.1//EN"
 "http://www.w3.org/Graphics/SVG/1.1/DTD/svg11.dtd">
<!-- Generated by graphviz version 2.40.1 (20161225.0304)
 -->
<!-- Title: Vala.CCodeMemberAccessModule Pages: 1 -->
<svg width="241pt" height="476pt"
 viewBox="0.00 0.00 241.00 476.00" xmlns="http://www.w3.org/2000/svg" xmlns:xlink="http://www.w3.org/1999/xlink">
<g id="graph0" class="graph" transform="scale(1 1) rotate(0) translate(4 472)">
<title>Vala.CCodeMemberAccessModule</title>
<polygon fill="#ffffff" stroke="transparent" points="-4,4 -4,-472 237,-472 237,4 -4,4"/>
<!-- Vala.CCodeMemberAccessModule -->
<g id="node1" class="node">
<title>Vala.CCodeMemberAccessModule</title>
<g id="a_node1"><a xlink:href="Vala.CCodeMemberAccessModule.html" xlink:title="Vala.CCodeMemberAccessModule">
<polygon fill="none" stroke="#000000" stroke-width="2" points="233,-36 0,-36 0,0 233,0 233,-36"/>
<text text-anchor="middle" x="116.5" y="-14.3" font-family="Times" font-size="14.00" fill="#000000">Vala.CCodeMemberAccessModule</text>
</a>
</g>
</g>
<!-- Vala.CCodeControlFlowModule -->
<g id="node2" class="node">
<title>Vala.CCodeControlFlowModule</title>
<g id="a_node2"><a xlink:href="Vala.CCodeControlFlowModule.html" xlink:title="Vala.CCodeControlFlowModule">
<polygon fill="none" stroke="#000000" stroke-width="2" points="223.5,-108 9.5,-108 9.5,-72 223.5,-72 223.5,-108"/>
<text text-anchor="middle" x="116.5" y="-86.3" font-family="Times" font-size="14.00" fill="#000000">Vala.CCodeControlFlowModule</text>
</a>
</g>
</g>
<!-- Vala.CCodeControlFlowModule&#45;&gt;Vala.CCodeMemberAccessModule -->
<g id="edge1" class="edge">
<title>Vala.CCodeControlFlowModule&#45;&gt;Vala.CCodeMemberAccessModule</title>
<path fill="none" stroke="#000000" d="M116.5,-61.5726C116.5,-53.1084 116.5,-44.0593 116.5,-36.4133"/>
<polygon fill="#000000" stroke="#000000" points="113.0001,-61.8313 116.5,-71.8314 120.0001,-61.8314 113.0001,-61.8313"/>
</g>
<!-- Vala.CCodeMethodModule -->
<g id="node3" class="node">
<title>Vala.CCodeMethodModule</title>
<g id="a_node3"><a xlink:href="Vala.CCodeMethodModule.html" xlink:title="Vala.CCodeMethodModule">
<polygon fill="none" stroke="#000000" stroke-width="2" points="209,-180 24,-180 24,-144 209,-144 209,-180"/>
<text text-anchor="middle" x="116.5" y="-158.3" font-family="Times" font-size="14.00" fill="#000000">Vala.CCodeMethodModule</text>
</a>
</g>
</g>
<!-- Vala.CCodeMethodModule&#45;&gt;Vala.CCodeControlFlowModule -->
<g id="edge2" class="edge">
<title>Vala.CCodeMethodModule&#45;&gt;Vala.CCodeControlFlowModule</title>
<path fill="none" stroke="#000000" d="M116.5,-133.5726C116.5,-125.1084 116.5,-116.0593 116.5,-108.4133"/>
<polygon fill="#000000" stroke="#000000" points="113.0001,-133.8313 116.5,-143.8314 120.0001,-133.8314 113.0001,-133.8313"/>
</g>
<!-- Vala.CCodeStructModule -->
<g id="node4" class="node">
<title>Vala.CCodeStructModule</title>
<g id="a_node4"><a xlink:href="Vala.CCodeStructModule.html" xlink:title="Vala.CCodeStructModule">
<polygon fill="none" stroke="#000000" stroke-width="2" points="204.5,-252 28.5,-252 28.5,-216 204.5,-216 204.5,-252"/>
<text text-anchor="middle" x="116.5" y="-230.3" font-family="Times" font-size="14.00" fill="#000000">Vala.CCodeStructModule</text>
</a>
</g>
</g>
<!-- Vala.CCodeStructModule&#45;&gt;Vala.CCodeMethodModule -->
<g id="edge3" class="edge">
<title>Vala.CCodeStructModule&#45;&gt;Vala.CCodeMethodModule</title>
<path fill="none" stroke="#000000" d="M116.5,-205.5726C116.5,-197.1084 116.5,-188.0593 116.5,-180.4133"/>
<polygon fill="#000000" stroke="#000000" points="113.0001,-205.8313 116.5,-215.8314 120.0001,-205.8314 113.0001,-205.8313"/>
</g>
<!-- Vala.CCodeBaseModule -->
<g id="node5" class="node">
<title>Vala.CCodeBaseModule</title>
<g id="a_node5"><a xlink:href="Vala.CCodeBaseModule.html" xlink:title="Vala.CCodeBaseModule">
<polygon fill="none" stroke="#000000" stroke-width="2" points="200,-324 33,-324 33,-288 200,-288 200,-324"/>
<text text-anchor="middle" x="116.5" y="-302.3" font-family="Times" font-size="14.00" fill="#000000">Vala.CCodeBaseModule</text>
</a>
</g>
</g>
<!-- Vala.CCodeBaseModule&#45;&gt;Vala.CCodeStructModule -->
<g id="edge4" class="edge">
<title>Vala.CCodeBaseModule&#45;&gt;Vala.CCodeStructModule</title>
<path fill="none" stroke="#000000" d="M116.5,-277.5726C116.5,-269.1084 116.5,-260.0593 116.5,-252.4133"/>
<polygon fill="#000000" stroke="#000000" points="113.0001,-277.8313 116.5,-287.8314 120.0001,-277.8314 113.0001,-277.8313"/>
</g>
<!-- Vala.CodeGenerator -->
<g id="node6" class="node">
<title>Vala.CodeGenerator</title>
<polygon fill="none" stroke="#000000" stroke-width="2" points="189.5,-396 43.5,-396 43.5,-360 189.5,-360 189.5,-396"/>
<text text-anchor="middle" x="116.5" y="-374.3" font-family="Times" font-size="14.00" fill="#000000">Vala.CodeGenerator</text>
</g>
<!-- Vala.CodeGenerator&#45;&gt;Vala.CCodeBaseModule -->
<g id="edge5" class="edge">
<title>Vala.CodeGenerator&#45;&gt;Vala.CCodeBaseModule</title>
<path fill="none" stroke="#000000" d="M116.5,-349.5726C116.5,-341.1084 116.5,-332.0593 116.5,-324.4133"/>
<polygon fill="#000000" stroke="#000000" points="113.0001,-349.8313 116.5,-359.8314 120.0001,-349.8314 113.0001,-349.8313"/>
</g>
<!-- Vala.CodeVisitor -->
<g id="node7" class="node">
<title>Vala.CodeVisitor</title>
<polygon fill="none" stroke="#000000" stroke-width="2" points="177.5,-468 55.5,-468 55.5,-432 177.5,-432 177.5,-468"/>
<text text-anchor="middle" x="116.5" y="-446.3" font-family="Times" font-size="14.00" fill="#000000">Vala.CodeVisitor</text>
</g>
<!-- Vala.CodeVisitor&#45;&gt;Vala.CodeGenerator -->
<g id="edge6" class="edge">
<title>Vala.CodeVisitor&#45;&gt;Vala.CodeGenerator</title>
<path fill="none" stroke="#000000" d="M116.5,-421.5726C116.5,-413.1084 116.5,-404.0593 116.5,-396.4133"/>
<polygon fill="#000000" stroke="#000000" points="113.0001,-421.8313 116.5,-431.8314 120.0001,-421.8314 113.0001,-421.8313"/>
</g>
</g>
</svg>
