<?xml version="1.0" encoding="UTF-8" standalone="no"?>
<!DOCTYPE svg PUBLIC "-//W3C//DTD SVG 1.1//EN"
 "http://www.w3.org/Graphics/SVG/1.1/DTD/svg11.dtd">
<!-- Generated by graphviz version 2.40.1 (20161225.0304)
 -->
<!-- Title: Vala.CCodeMethodModule Pages: 1 -->
<svg width="175pt" height="332pt"
 viewBox="0.00 0.00 175.00 332.00" xmlns="http://www.w3.org/2000/svg" xmlns:xlink="http://www.w3.org/1999/xlink">
<g id="graph0" class="graph" transform="scale(1 1) rotate(0) translate(4 328)">
<title>Vala.CCodeMethodModule</title>
<polygon fill="#ffffff" stroke="transparent" points="-4,4 -4,-328 171,-328 171,4 -4,4"/>
<!-- Vala.CCodeMethodModule -->
<g id="node1" class="node">
<title>Vala.CCodeMethodModule</title>
<g id="a_node1"><a xlink:href="Vala.CCodeMethodModule.html" xlink:title="Vala.CCodeMethodModule">
<polygon fill="none" stroke="#000000" stroke-width="2" points="167,-36 0,-36 0,0 167,0 167,-36"/>
<text text-anchor="middle" x="83.5" y="-14.3" font-family="Times" font-size="14.00" fill="#000000">Vala.CCodeMethodModule</text>
</a>
</g>
</g>
<!-- Vala.CCodeStructModule -->
<g id="node2" class="node">
<title>Vala.CCodeStructModule</title>
<g id="a_node2"><a xlink:href="Vala.CCodeStructModule.html" xlink:title="Vala.CCodeStructModule">
<polygon fill="none" stroke="#000000" stroke-width="2" points="162,-108 5,-108 5,-72 162,-72 162,-108"/>
<text text-anchor="middle" x="83.5" y="-86.3" font-family="Times" font-size="14.00" fill="#000000">Vala.CCodeStructModule</text>
</a>
</g>
</g>
<!-- Vala.CCodeStructModule&#45;&gt;Vala.CCodeMethodModule -->
<g id="edge1" class="edge">
<title>Vala.CCodeStructModule&#45;&gt;Vala.CCodeMethodModule</title>
<path fill="none" stroke="#000000" d="M83.5,-61.5726C83.5,-53.1084 83.5,-44.0593 83.5,-36.4133"/>
<polygon fill="#000000" stroke="#000000" points="80.0001,-61.8313 83.5,-71.8314 87.0001,-61.8314 80.0001,-61.8313"/>
</g>
<!-- Vala.CCodeBaseModule -->
<g id="node3" class="node">
<title>Vala.CCodeBaseModule</title>
<g id="a_node3"><a xlink:href="Vala.CCodeBaseModule.html" xlink:title="Vala.CCodeBaseModule">
<polygon fill="none" stroke="#000000" stroke-width="2" points="159,-180 8,-180 8,-144 159,-144 159,-180"/>
<text text-anchor="middle" x="83.5" y="-158.3" font-family="Times" font-size="14.00" fill="#000000">Vala.CCodeBaseModule</text>
</a>
</g>
</g>
<!-- Vala.CCodeBaseModule&#45;&gt;Vala.CCodeStructModule -->
<g id="edge2" class="edge">
<title>Vala.CCodeBaseModule&#45;&gt;Vala.CCodeStructModule</title>
<path fill="none" stroke="#000000" d="M83.5,-133.5726C83.5,-125.1084 83.5,-116.0593 83.5,-108.4133"/>
<polygon fill="#000000" stroke="#000000" points="80.0001,-133.8313 83.5,-143.8314 87.0001,-133.8314 80.0001,-133.8313"/>
</g>
<!-- Vala.CodeGenerator -->
<g id="node4" class="node">
<title>Vala.CodeGenerator</title>
<polygon fill="none" stroke="#000000" stroke-width="2" points="147,-252 20,-252 20,-216 147,-216 147,-252"/>
<text text-anchor="middle" x="83.5" y="-230.3" font-family="Times" font-size="14.00" fill="#000000">Vala.CodeGenerator</text>
</g>
<!-- Vala.CodeGenerator&#45;&gt;Vala.CCodeBaseModule -->
<g id="edge3" class="edge">
<title>Vala.CodeGenerator&#45;&gt;Vala.CCodeBaseModule</title>
<path fill="none" stroke="#000000" d="M83.5,-205.5726C83.5,-197.1084 83.5,-188.0593 83.5,-180.4133"/>
<polygon fill="#000000" stroke="#000000" points="80.0001,-205.8313 83.5,-215.8314 87.0001,-205.8314 80.0001,-205.8313"/>
</g>
<!-- Vala.CodeVisitor -->
<g id="node5" class="node">
<title>Vala.CodeVisitor</title>
<polygon fill="none" stroke="#000000" stroke-width="2" points="138.5,-324 28.5,-324 28.5,-288 138.5,-288 138.5,-324"/>
<text text-anchor="middle" x="83.5" y="-302.3" font-family="Times" font-size="14.00" fill="#000000">Vala.CodeVisitor</text>
</g>
<!-- Vala.CodeVisitor&#45;&gt;Vala.CodeGenerator -->
<g id="edge4" class="edge">
<title>Vala.CodeVisitor&#45;&gt;Vala.CodeGenerator</title>
<path fill="none" stroke="#000000" d="M83.5,-277.5726C83.5,-269.1084 83.5,-260.0593 83.5,-252.4133"/>
<polygon fill="#000000" stroke="#000000" points="80.0001,-277.8313 83.5,-287.8314 87.0001,-277.8314 80.0001,-277.8313"/>
</g>
</g>
</svg>
