<?xml version="1.0" encoding="UTF-8" standalone="no"?>
<!DOCTYPE svg PUBLIC "-//W3C//DTD SVG 1.1//EN"
 "http://www.w3.org/Graphics/SVG/1.1/DTD/svg11.dtd">
<!-- Generated by graphviz version 2.40.1 (20161225.0304)
 -->
<!-- Title: Vala.CCodeDelegateModule Pages: 1 -->
<svg width="241pt" height="764pt"
 viewBox="0.00 0.00 241.00 764.00" xmlns="http://www.w3.org/2000/svg" xmlns:xlink="http://www.w3.org/1999/xlink">
<g id="graph0" class="graph" transform="scale(1 1) rotate(0) translate(4 760)">
<title>Vala.CCodeDelegateModule</title>
<polygon fill="#ffffff" stroke="transparent" points="-4,4 -4,-760 237,-760 237,4 -4,4"/>
<!-- Vala.CCodeDelegateModule -->
<g id="node1" class="node">
<title>Vala.CCodeDelegateModule</title>
<g id="a_node1"><a xlink:href="Vala.CCodeDelegateModule.html" xlink:title="Vala.CCodeDelegateModule">
<polygon fill="none" stroke="#000000" stroke-width="2" points="212.5,-36 20.5,-36 20.5,0 212.5,0 212.5,-36"/>
<text text-anchor="middle" x="116.5" y="-14.3" font-family="Times" font-size="14.00" fill="#000000">Vala.CCodeDelegateModule</text>
</a>
</g>
</g>
<!-- Vala.CCodeArrayModule -->
<g id="node2" class="node">
<title>Vala.CCodeArrayModule</title>
<g id="a_node2"><a xlink:href="Vala.CCodeArrayModule.html" xlink:title="Vala.CCodeArrayModule">
<polygon fill="none" stroke="#000000" stroke-width="2" points="202.5,-108 30.5,-108 30.5,-72 202.5,-72 202.5,-108"/>
<text text-anchor="middle" x="116.5" y="-86.3" font-family="Times" font-size="14.00" fill="#000000">Vala.CCodeArrayModule</text>
</a>
</g>
</g>
<!-- Vala.CCodeArrayModule&#45;&gt;Vala.CCodeDelegateModule -->
<g id="edge1" class="edge">
<title>Vala.CCodeArrayModule&#45;&gt;Vala.CCodeDelegateModule</title>
<path fill="none" stroke="#000000" d="M116.5,-61.5726C116.5,-53.1084 116.5,-44.0593 116.5,-36.4133"/>
<polygon fill="#000000" stroke="#000000" points="113.0001,-61.8313 116.5,-71.8314 120.0001,-61.8314 113.0001,-61.8313"/>
</g>
<!-- Vala.CCodeMethodCallModule -->
<g id="node3" class="node">
<title>Vala.CCodeMethodCallModule</title>
<g id="a_node3"><a xlink:href="Vala.CCodeMethodCallModule.html" xlink:title="Vala.CCodeMethodCallModule">
<polygon fill="none" stroke="#000000" stroke-width="2" points="221,-180 12,-180 12,-144 221,-144 221,-180"/>
<text text-anchor="middle" x="116.5" y="-158.3" font-family="Times" font-size="14.00" fill="#000000">Vala.CCodeMethodCallModule</text>
</a>
</g>
</g>
<!-- Vala.CCodeMethodCallModule&#45;&gt;Vala.CCodeArrayModule -->
<g id="edge2" class="edge">
<title>Vala.CCodeMethodCallModule&#45;&gt;Vala.CCodeArrayModule</title>
<path fill="none" stroke="#000000" d="M116.5,-133.5726C116.5,-125.1084 116.5,-116.0593 116.5,-108.4133"/>
<polygon fill="#000000" stroke="#000000" points="113.0001,-133.8313 116.5,-143.8314 120.0001,-133.8314 113.0001,-133.8313"/>
</g>
<!-- Vala.CCodeAssignmentModule -->
<g id="node4" class="node">
<title>Vala.CCodeAssignmentModule</title>
<g id="a_node4"><a xlink:href="Vala.CCodeAssignmentModule.html" xlink:title="Vala.CCodeAssignmentModule">
<polygon fill="none" stroke="#000000" stroke-width="2" points="222.5,-252 10.5,-252 10.5,-216 222.5,-216 222.5,-252"/>
<text text-anchor="middle" x="116.5" y="-230.3" font-family="Times" font-size="14.00" fill="#000000">Vala.CCodeAssignmentModule</text>
</a>
</g>
</g>
<!-- Vala.CCodeAssignmentModule&#45;&gt;Vala.CCodeMethodCallModule -->
<g id="edge3" class="edge">
<title>Vala.CCodeAssignmentModule&#45;&gt;Vala.CCodeMethodCallModule</title>
<path fill="none" stroke="#000000" d="M116.5,-205.5726C116.5,-197.1084 116.5,-188.0593 116.5,-180.4133"/>
<polygon fill="#000000" stroke="#000000" points="113.0001,-205.8313 116.5,-215.8314 120.0001,-205.8314 113.0001,-205.8313"/>
</g>
<!-- Vala.CCodeMemberAccessModule -->
<g id="node5" class="node">
<title>Vala.CCodeMemberAccessModule</title>
<g id="a_node5"><a xlink:href="Vala.CCodeMemberAccessModule.html" xlink:title="Vala.CCodeMemberAccessModule">
<polygon fill="none" stroke="#000000" stroke-width="2" points="233,-324 0,-324 0,-288 233,-288 233,-324"/>
<text text-anchor="middle" x="116.5" y="-302.3" font-family="Times" font-size="14.00" fill="#000000">Vala.CCodeMemberAccessModule</text>
</a>
</g>
</g>
<!-- Vala.CCodeMemberAccessModule&#45;&gt;Vala.CCodeAssignmentModule -->
<g id="edge4" class="edge">
<title>Vala.CCodeMemberAccessModule&#45;&gt;Vala.CCodeAssignmentModule</title>
<path fill="none" stroke="#000000" d="M116.5,-277.5726C116.5,-269.1084 116.5,-260.0593 116.5,-252.4133"/>
<polygon fill="#000000" stroke="#000000" points="113.0001,-277.8313 116.5,-287.8314 120.0001,-277.8314 113.0001,-277.8313"/>
</g>
<!-- Vala.CCodeControlFlowModule -->
<g id="node6" class="node">
<title>Vala.CCodeControlFlowModule</title>
<g id="a_node6"><a xlink:href="Vala.CCodeControlFlowModule.html" xlink:title="Vala.CCodeControlFlowModule">
<polygon fill="none" stroke="#000000" stroke-width="2" points="223.5,-396 9.5,-396 9.5,-360 223.5,-360 223.5,-396"/>
<text text-anchor="middle" x="116.5" y="-374.3" font-family="Times" font-size="14.00" fill="#000000">Vala.CCodeControlFlowModule</text>
</a>
</g>
</g>
<!-- Vala.CCodeControlFlowModule&#45;&gt;Vala.CCodeMemberAccessModule -->
<g id="edge5" class="edge">
<title>Vala.CCodeControlFlowModule&#45;&gt;Vala.CCodeMemberAccessModule</title>
<path fill="none" stroke="#000000" d="M116.5,-349.5726C116.5,-341.1084 116.5,-332.0593 116.5,-324.4133"/>
<polygon fill="#000000" stroke="#000000" points="113.0001,-349.8313 116.5,-359.8314 120.0001,-349.8314 113.0001,-349.8313"/>
</g>
<!-- Vala.CCodeMethodModule -->
<g id="node7" class="node">
<title>Vala.CCodeMethodModule</title>
<g id="a_node7"><a xlink:href="Vala.CCodeMethodModule.html" xlink:title="Vala.CCodeMethodModule">
<polygon fill="none" stroke="#000000" stroke-width="2" points="209,-468 24,-468 24,-432 209,-432 209,-468"/>
<text text-anchor="middle" x="116.5" y="-446.3" font-family="Times" font-size="14.00" fill="#000000">Vala.CCodeMethodModule</text>
</a>
</g>
</g>
<!-- Vala.CCodeMethodModule&#45;&gt;Vala.CCodeControlFlowModule -->
<g id="edge6" class="edge">
<title>Vala.CCodeMethodModule&#45;&gt;Vala.CCodeControlFlowModule</title>
<path fill="none" stroke="#000000" d="M116.5,-421.5726C116.5,-413.1084 116.5,-404.0593 116.5,-396.4133"/>
<polygon fill="#000000" stroke="#000000" points="113.0001,-421.8313 116.5,-431.8314 120.0001,-421.8314 113.0001,-421.8313"/>
</g>
<!-- Vala.CCodeStructModule -->
<g id="node8" class="node">
<title>Vala.CCodeStructModule</title>
<g id="a_node8"><a xlink:href="Vala.CCodeStructModule.html" xlink:title="Vala.CCodeStructModule">
<polygon fill="none" stroke="#000000" stroke-width="2" points="204.5,-540 28.5,-540 28.5,-504 204.5,-504 204.5,-540"/>
<text text-anchor="middle" x="116.5" y="-518.3" font-family="Times" font-size="14.00" fill="#000000">Vala.CCodeStructModule</text>
</a>
</g>
</g>
<!-- Vala.CCodeStructModule&#45;&gt;Vala.CCodeMethodModule -->
<g id="edge7" class="edge">
<title>Vala.CCodeStructModule&#45;&gt;Vala.CCodeMethodModule</title>
<path fill="none" stroke="#000000" d="M116.5,-493.5726C116.5,-485.1084 116.5,-476.0593 116.5,-468.4133"/>
<polygon fill="#000000" stroke="#000000" points="113.0001,-493.8313 116.5,-503.8314 120.0001,-493.8314 113.0001,-493.8313"/>
</g>
<!-- Vala.CCodeBaseModule -->
<g id="node9" class="node">
<title>Vala.CCodeBaseModule</title>
<g id="a_node9"><a xlink:href="Vala.CCodeBaseModule.html" xlink:title="Vala.CCodeBaseModule">
<polygon fill="none" stroke="#000000" stroke-width="2" points="200,-612 33,-612 33,-576 200,-576 200,-612"/>
<text text-anchor="middle" x="116.5" y="-590.3" font-family="Times" font-size="14.00" fill="#000000">Vala.CCodeBaseModule</text>
</a>
</g>
</g>
<!-- Vala.CCodeBaseModule&#45;&gt;Vala.CCodeStructModule -->
<g id="edge8" class="edge">
<title>Vala.CCodeBaseModule&#45;&gt;Vala.CCodeStructModule</title>
<path fill="none" stroke="#000000" d="M116.5,-565.5726C116.5,-557.1084 116.5,-548.0593 116.5,-540.4133"/>
<polygon fill="#000000" stroke="#000000" points="113.0001,-565.8313 116.5,-575.8314 120.0001,-565.8314 113.0001,-565.8313"/>
</g>
<!-- Vala.CodeGenerator -->
<g id="node10" class="node">
<title>Vala.CodeGenerator</title>
<polygon fill="none" stroke="#000000" stroke-width="2" points="189.5,-684 43.5,-684 43.5,-648 189.5,-648 189.5,-684"/>
<text text-anchor="middle" x="116.5" y="-662.3" font-family="Times" font-size="14.00" fill="#000000">Vala.CodeGenerator</text>
</g>
<!-- Vala.CodeGenerator&#45;&gt;Vala.CCodeBaseModule -->
<g id="edge9" class="edge">
<title>Vala.CodeGenerator&#45;&gt;Vala.CCodeBaseModule</title>
<path fill="none" stroke="#000000" d="M116.5,-637.5726C116.5,-629.1084 116.5,-620.0593 116.5,-612.4133"/>
<polygon fill="#000000" stroke="#000000" points="113.0001,-637.8313 116.5,-647.8314 120.0001,-637.8314 113.0001,-637.8313"/>
</g>
<!-- Vala.CodeVisitor -->
<g id="node11" class="node">
<title>Vala.CodeVisitor</title>
<polygon fill="none" stroke="#000000" stroke-width="2" points="177.5,-756 55.5,-756 55.5,-720 177.5,-720 177.5,-756"/>
<text text-anchor="middle" x="116.5" y="-734.3" font-family="Times" font-size="14.00" fill="#000000">Vala.CodeVisitor</text>
</g>
<!-- Vala.CodeVisitor&#45;&gt;Vala.CodeGenerator -->
<g id="edge10" class="edge">
<title>Vala.CodeVisitor&#45;&gt;Vala.CodeGenerator</title>
<path fill="none" stroke="#000000" d="M116.5,-709.5726C116.5,-701.1084 116.5,-692.0593 116.5,-684.4133"/>
<polygon fill="#000000" stroke="#000000" points="113.0001,-709.8313 116.5,-719.8314 120.0001,-709.8314 113.0001,-709.8313"/>
</g>
</g>
</svg>
