<?xml version="1.0" encoding="UTF-8" standalone="no"?>
<!DOCTYPE svg PUBLIC "-//W3C//DTD SVG 1.1//EN"
 "http://www.w3.org/Graphics/SVG/1.1/DTD/svg11.dtd">
<!-- Generated by graphviz version 2.42.3 (0)
 -->
<!-- Title: Vala.CType Pages: 1 -->
<svg width="111pt" height="188pt"
 viewBox="0.00 0.00 111.00 188.00" xmlns="http://www.w3.org/2000/svg" xmlns:xlink="http://www.w3.org/1999/xlink">
<g id="graph0" class="graph" transform="scale(1 1) rotate(0) translate(4 184)">
<title>Vala.CType</title>
<polygon fill="white" stroke="transparent" points="-4,4 -4,-184 107,-184 107,4 -4,4"/>
<!-- Vala.CType -->
<g id="node1" class="node">
<title>Vala.CType</title>
<g id="a_node1"><a xlink:href="Vala.CType.html" xlink:title="Vala.CType">
<polygon fill="none" stroke="black" stroke-width="2" points="91.5,-36 11.5,-36 11.5,0 91.5,0 91.5,-36"/>
<text text-anchor="middle" x="51.5" y="-14.3" font-family="Times" font-size="14.00">Vala.CType</text>
</a>
</g>
</g>
<!-- Vala.DataType -->
<g id="node2" class="node">
<title>Vala.DataType</title>
<g id="a_node2"><a xlink:href="../vala/Vala.DataType.html" xlink:title="Vala.DataType">
<polygon fill="none" stroke="black" stroke-width="2" points="100,-108 3,-108 3,-72 100,-72 100,-108"/>
<text text-anchor="middle" x="51.5" y="-86.3" font-family="Times" font-size="14.00">Vala.DataType</text>
</a>
</g>
</g>
<!-- Vala.DataType&#45;&gt;Vala.CType -->
<g id="edge1" class="edge">
<title>Vala.DataType&#45;&gt;Vala.CType</title>
<path fill="none" stroke="black" d="M51.5,-61.67C51.5,-53.05 51.5,-43.79 51.5,-36.1"/>
<polygon fill="black" stroke="black" points="48,-61.7 51.5,-71.7 55,-61.7 48,-61.7"/>
</g>
<!-- Vala.CodeNode -->
<g id="node3" class="node">
<title>Vala.CodeNode</title>
<g id="a_node3"><a xlink:href="../vala/Vala.CodeNode.html" xlink:title="Vala.CodeNode">
<polygon fill="none" stroke="black" stroke-width="2" points="103,-180 0,-180 0,-144 103,-144 103,-180"/>
<text text-anchor="middle" x="51.5" y="-158.3" font-family="Times" font-size="14.00">Vala.CodeNode</text>
</a>
</g>
</g>
<!-- Vala.CodeNode&#45;&gt;Vala.DataType -->
<g id="edge2" class="edge">
<title>Vala.CodeNode&#45;&gt;Vala.DataType</title>
<path fill="none" stroke="black" d="M51.5,-133.67C51.5,-125.05 51.5,-115.79 51.5,-108.1"/>
<polygon fill="black" stroke="black" points="48,-133.7 51.5,-143.7 55,-133.7 48,-133.7"/>
</g>
</g>
</svg>
