<?xml version="1.0" encoding="UTF-8" standalone="no"?>
<!DOCTYPE svg PUBLIC "-//W3C//DTD SVG 1.1//EN"
 "http://www.w3.org/Graphics/SVG/1.1/DTD/svg11.dtd">
<!-- Generated by graphviz version 2.42.3 (0)
 -->
<!-- Title: Vala.CCodeStructModule Pages: 1 -->
<svg width="166pt" height="260pt"
 viewBox="0.00 0.00 166.00 260.00" xmlns="http://www.w3.org/2000/svg" xmlns:xlink="http://www.w3.org/1999/xlink">
<g id="graph0" class="graph" transform="scale(1 1) rotate(0) translate(4 256)">
<title>Vala.CCodeStructModule</title>
<polygon fill="white" stroke="transparent" points="-4,4 -4,-256 162,-256 162,4 -4,4"/>
<!-- Vala.CCodeStructModule -->
<g id="node1" class="node">
<title>Vala.CCodeStructModule</title>
<g id="a_node1"><a xlink:href="Vala.CCodeStructModule.html" xlink:title="Vala.CCodeStructModule">
<polygon fill="none" stroke="black" stroke-width="2" points="158,-36 0,-36 0,0 158,0 158,-36"/>
<text text-anchor="middle" x="79" y="-14.3" font-family="Times" font-size="14.00">Vala.CCodeStructModule</text>
</a>
</g>
</g>
<!-- Vala.CCodeBaseModule -->
<g id="node2" class="node">
<title>Vala.CCodeBaseModule</title>
<g id="a_node2"><a xlink:href="Vala.CCodeBaseModule.html" xlink:title="Vala.CCodeBaseModule">
<polygon fill="none" stroke="black" stroke-width="2" points="155,-108 3,-108 3,-72 155,-72 155,-108"/>
<text text-anchor="middle" x="79" y="-86.3" font-family="Times" font-size="14.00">Vala.CCodeBaseModule</text>
</a>
</g>
</g>
<!-- Vala.CCodeBaseModule&#45;&gt;Vala.CCodeStructModule -->
<g id="edge1" class="edge">
<title>Vala.CCodeBaseModule&#45;&gt;Vala.CCodeStructModule</title>
<path fill="none" stroke="black" d="M79,-61.67C79,-53.05 79,-43.79 79,-36.1"/>
<polygon fill="black" stroke="black" points="75.5,-61.7 79,-71.7 82.5,-61.7 75.5,-61.7"/>
</g>
<!-- Vala.CodeGenerator -->
<g id="node3" class="node">
<title>Vala.CodeGenerator</title>
<g id="a_node3"><a xlink:href="../vala/Vala.CodeGenerator.html" xlink:title="Vala.CodeGenerator">
<polygon fill="none" stroke="black" stroke-width="2" points="143,-180 15,-180 15,-144 143,-144 143,-180"/>
<text text-anchor="middle" x="79" y="-158.3" font-family="Times" font-size="14.00">Vala.CodeGenerator</text>
</a>
</g>
</g>
<!-- Vala.CodeGenerator&#45;&gt;Vala.CCodeBaseModule -->
<g id="edge2" class="edge">
<title>Vala.CodeGenerator&#45;&gt;Vala.CCodeBaseModule</title>
<path fill="none" stroke="black" d="M79,-133.67C79,-125.05 79,-115.79 79,-108.1"/>
<polygon fill="black" stroke="black" points="75.5,-133.7 79,-143.7 82.5,-133.7 75.5,-133.7"/>
</g>
<!-- Vala.CodeVisitor -->
<g id="node4" class="node">
<title>Vala.CodeVisitor</title>
<g id="a_node4"><a xlink:href="../vala/Vala.CodeVisitor.html" xlink:title="Vala.CodeVisitor">
<polygon fill="none" stroke="black" stroke-width="2" points="134.5,-252 23.5,-252 23.5,-216 134.5,-216 134.5,-252"/>
<text text-anchor="middle" x="79" y="-230.3" font-family="Times" font-size="14.00">Vala.CodeVisitor</text>
</a>
</g>
</g>
<!-- Vala.CodeVisitor&#45;&gt;Vala.CodeGenerator -->
<g id="edge3" class="edge">
<title>Vala.CodeVisitor&#45;&gt;Vala.CodeGenerator</title>
<path fill="none" stroke="black" d="M79,-205.67C79,-197.05 79,-187.79 79,-180.1"/>
<polygon fill="black" stroke="black" points="75.5,-205.7 79,-215.7 82.5,-205.7 75.5,-205.7"/>
</g>
</g>
</svg>
