<?xml version="1.0" encoding="UTF-8" standalone="no"?>
<!DOCTYPE svg PUBLIC "-//W3C//DTD SVG 1.1//EN"
 "http://www.w3.org/Graphics/SVG/1.1/DTD/svg11.dtd">
<!-- Generated by graphviz version 2.40.1 (0)
 -->
<!-- Title: Vala.CCodeMethodModule Pages: 1 -->
<svg width="176pt" height="332pt"
 viewBox="0.00 0.00 176.00 332.00" xmlns="http://www.w3.org/2000/svg" xmlns:xlink="http://www.w3.org/1999/xlink">
<g id="graph0" class="graph" transform="scale(1 1) rotate(0) translate(4 328)">
<title>Vala.CCodeMethodModule</title>
<polygon fill="#ffffff" stroke="transparent" points="-4,4 -4,-328 172,-328 172,4 -4,4"/>
<!-- Vala.CCodeMethodModule -->
<g id="node1" class="node">
<title>Vala.CCodeMethodModule</title>
<g id="a_node1"><a xlink:href="Vala.CCodeMethodModule.html" xlink:title="Vala.CCodeMethodModule">
<polygon fill="none" stroke="#000000" stroke-width="2" points="168,-36 0,-36 0,0 168,0 168,-36"/>
<text text-anchor="middle" x="84" y="-14.3" font-family="Times" font-size="14.00" fill="#000000">Vala.CCodeMethodModule</text>
</a>
</g>
</g>
<!-- Vala.CCodeStructModule -->
<g id="node2" class="node">
<title>Vala.CCodeStructModule</title>
<g id="a_node2"><a xlink:href="Vala.CCodeStructModule.html" xlink:title="Vala.CCodeStructModule">
<polygon fill="none" stroke="#000000" stroke-width="2" points="163,-108 5,-108 5,-72 163,-72 163,-108"/>
<text text-anchor="middle" x="84" y="-86.3" font-family="Times" font-size="14.00" fill="#000000">Vala.CCodeStructModule</text>
</a>
</g>
</g>
<!-- Vala.CCodeStructModule&#45;&gt;Vala.CCodeMethodModule -->
<g id="edge1" class="edge">
<title>Vala.CCodeStructModule&#45;&gt;Vala.CCodeMethodModule</title>
<path fill="none" stroke="#000000" d="M84,-61.5726C84,-53.1084 84,-44.0593 84,-36.4133"/>
<polygon fill="#000000" stroke="#000000" points="80.5001,-61.8313 84,-71.8314 87.5001,-61.8314 80.5001,-61.8313"/>
</g>
<!-- Vala.CCodeBaseModule -->
<g id="node3" class="node">
<title>Vala.CCodeBaseModule</title>
<g id="a_node3"><a xlink:href="Vala.CCodeBaseModule.html" xlink:title="Vala.CCodeBaseModule">
<polygon fill="none" stroke="#000000" stroke-width="2" points="160,-180 8,-180 8,-144 160,-144 160,-180"/>
<text text-anchor="middle" x="84" y="-158.3" font-family="Times" font-size="14.00" fill="#000000">Vala.CCodeBaseModule</text>
</a>
</g>
</g>
<!-- Vala.CCodeBaseModule&#45;&gt;Vala.CCodeStructModule -->
<g id="edge2" class="edge">
<title>Vala.CCodeBaseModule&#45;&gt;Vala.CCodeStructModule</title>
<path fill="none" stroke="#000000" d="M84,-133.5726C84,-125.1084 84,-116.0593 84,-108.4133"/>
<polygon fill="#000000" stroke="#000000" points="80.5001,-133.8313 84,-143.8314 87.5001,-133.8314 80.5001,-133.8313"/>
</g>
<!-- Vala.CodeGenerator -->
<g id="node4" class="node">
<title>Vala.CodeGenerator</title>
<g id="a_node4"><a xlink:href="../vala/Vala.CodeGenerator.html" xlink:title="Vala.CodeGenerator">
<polygon fill="none" stroke="#000000" stroke-width="2" points="148,-252 20,-252 20,-216 148,-216 148,-252"/>
<text text-anchor="middle" x="84" y="-230.3" font-family="Times" font-size="14.00" fill="#000000">Vala.CodeGenerator</text>
</a>
</g>
</g>
<!-- Vala.CodeGenerator&#45;&gt;Vala.CCodeBaseModule -->
<g id="edge3" class="edge">
<title>Vala.CodeGenerator&#45;&gt;Vala.CCodeBaseModule</title>
<path fill="none" stroke="#000000" d="M84,-205.5726C84,-197.1084 84,-188.0593 84,-180.4133"/>
<polygon fill="#000000" stroke="#000000" points="80.5001,-205.8313 84,-215.8314 87.5001,-205.8314 80.5001,-205.8313"/>
</g>
<!-- Vala.CodeVisitor -->
<g id="node5" class="node">
<title>Vala.CodeVisitor</title>
<g id="a_node5"><a xlink:href="../vala/Vala.CodeVisitor.html" xlink:title="Vala.CodeVisitor">
<polygon fill="none" stroke="#000000" stroke-width="2" points="139.5,-324 28.5,-324 28.5,-288 139.5,-288 139.5,-324"/>
<text text-anchor="middle" x="84" y="-302.3" font-family="Times" font-size="14.00" fill="#000000">Vala.CodeVisitor</text>
</a>
</g>
</g>
<!-- Vala.CodeVisitor&#45;&gt;Vala.CodeGenerator -->
<g id="edge4" class="edge">
<title>Vala.CodeVisitor&#45;&gt;Vala.CodeGenerator</title>
<path fill="none" stroke="#000000" d="M84,-277.5726C84,-269.1084 84,-260.0593 84,-252.4133"/>
<polygon fill="#000000" stroke="#000000" points="80.5001,-277.8313 84,-287.8314 87.5001,-277.8314 80.5001,-277.8313"/>
</g>
</g>
</svg>
