<?xml version="1.0" encoding="UTF-8" standalone="no"?>
<!DOCTYPE svg PUBLIC "-//W3C//DTD SVG 1.1//EN"
 "http://www.w3.org/Graphics/SVG/1.1/DTD/svg11.dtd">
<!-- Generated by graphviz version 2.42.3 (0)
 -->
<!-- Title: Vala.CCodeControlFlowModule Pages: 1 -->
<svg width="203pt" height="404pt"
 viewBox="0.00 0.00 203.00 404.00" xmlns="http://www.w3.org/2000/svg" xmlns:xlink="http://www.w3.org/1999/xlink">
<g id="graph0" class="graph" transform="scale(1 1) rotate(0) translate(4 400)">
<title>Vala.CCodeControlFlowModule</title>
<polygon fill="white" stroke="transparent" points="-4,4 -4,-400 199,-400 199,4 -4,4"/>
<!-- Vala.CCodeControlFlowModule -->
<g id="node1" class="node">
<title>Vala.CCodeControlFlowModule</title>
<g id="a_node1"><a xlink:href="Vala.CCodeControlFlowModule.html" xlink:title="Vala.CCodeControlFlowModule">
<polygon fill="none" stroke="black" stroke-width="2" points="195,-36 0,-36 0,0 195,0 195,-36"/>
<text text-anchor="middle" x="97.5" y="-14.3" font-family="Times" font-size="14.00">Vala.CCodeControlFlowModule</text>
</a>
</g>
</g>
<!-- Vala.CCodeMethodModule -->
<g id="node2" class="node">
<title>Vala.CCodeMethodModule</title>
<g id="a_node2"><a xlink:href="Vala.CCodeMethodModule.html" xlink:title="Vala.CCodeMethodModule">
<polygon fill="none" stroke="black" stroke-width="2" points="181.5,-108 13.5,-108 13.5,-72 181.5,-72 181.5,-108"/>
<text text-anchor="middle" x="97.5" y="-86.3" font-family="Times" font-size="14.00">Vala.CCodeMethodModule</text>
</a>
</g>
</g>
<!-- Vala.CCodeMethodModule&#45;&gt;Vala.CCodeControlFlowModule -->
<g id="edge1" class="edge">
<title>Vala.CCodeMethodModule&#45;&gt;Vala.CCodeControlFlowModule</title>
<path fill="none" stroke="black" d="M97.5,-61.67C97.5,-53.05 97.5,-43.79 97.5,-36.1"/>
<polygon fill="black" stroke="black" points="94,-61.7 97.5,-71.7 101,-61.7 94,-61.7"/>
</g>
<!-- Vala.CCodeStructModule -->
<g id="node3" class="node">
<title>Vala.CCodeStructModule</title>
<g id="a_node3"><a xlink:href="Vala.CCodeStructModule.html" xlink:title="Vala.CCodeStructModule">
<polygon fill="none" stroke="black" stroke-width="2" points="176.5,-180 18.5,-180 18.5,-144 176.5,-144 176.5,-180"/>
<text text-anchor="middle" x="97.5" y="-158.3" font-family="Times" font-size="14.00">Vala.CCodeStructModule</text>
</a>
</g>
</g>
<!-- Vala.CCodeStructModule&#45;&gt;Vala.CCodeMethodModule -->
<g id="edge2" class="edge">
<title>Vala.CCodeStructModule&#45;&gt;Vala.CCodeMethodModule</title>
<path fill="none" stroke="black" d="M97.5,-133.67C97.5,-125.05 97.5,-115.79 97.5,-108.1"/>
<polygon fill="black" stroke="black" points="94,-133.7 97.5,-143.7 101,-133.7 94,-133.7"/>
</g>
<!-- Vala.CCodeBaseModule -->
<g id="node4" class="node">
<title>Vala.CCodeBaseModule</title>
<g id="a_node4"><a xlink:href="Vala.CCodeBaseModule.html" xlink:title="Vala.CCodeBaseModule">
<polygon fill="none" stroke="black" stroke-width="2" points="173.5,-252 21.5,-252 21.5,-216 173.5,-216 173.5,-252"/>
<text text-anchor="middle" x="97.5" y="-230.3" font-family="Times" font-size="14.00">Vala.CCodeBaseModule</text>
</a>
</g>
</g>
<!-- Vala.CCodeBaseModule&#45;&gt;Vala.CCodeStructModule -->
<g id="edge3" class="edge">
<title>Vala.CCodeBaseModule&#45;&gt;Vala.CCodeStructModule</title>
<path fill="none" stroke="black" d="M97.5,-205.67C97.5,-197.05 97.5,-187.79 97.5,-180.1"/>
<polygon fill="black" stroke="black" points="94,-205.7 97.5,-215.7 101,-205.7 94,-205.7"/>
</g>
<!-- Vala.CodeGenerator -->
<g id="node5" class="node">
<title>Vala.CodeGenerator</title>
<g id="a_node5"><a xlink:href="../vala/Vala.CodeGenerator.html" xlink:title="Vala.CodeGenerator">
<polygon fill="none" stroke="black" stroke-width="2" points="161.5,-324 33.5,-324 33.5,-288 161.5,-288 161.5,-324"/>
<text text-anchor="middle" x="97.5" y="-302.3" font-family="Times" font-size="14.00">Vala.CodeGenerator</text>
</a>
</g>
</g>
<!-- Vala.CodeGenerator&#45;&gt;Vala.CCodeBaseModule -->
<g id="edge4" class="edge">
<title>Vala.CodeGenerator&#45;&gt;Vala.CCodeBaseModule</title>
<path fill="none" stroke="black" d="M97.5,-277.67C97.5,-269.05 97.5,-259.79 97.5,-252.1"/>
<polygon fill="black" stroke="black" points="94,-277.7 97.5,-287.7 101,-277.7 94,-277.7"/>
</g>
<!-- Vala.CodeVisitor -->
<g id="node6" class="node">
<title>Vala.CodeVisitor</title>
<g id="a_node6"><a xlink:href="../vala/Vala.CodeVisitor.html" xlink:title="Vala.CodeVisitor">
<polygon fill="none" stroke="black" stroke-width="2" points="153,-396 42,-396 42,-360 153,-360 153,-396"/>
<text text-anchor="middle" x="97.5" y="-374.3" font-family="Times" font-size="14.00">Vala.CodeVisitor</text>
</a>
</g>
</g>
<!-- Vala.CodeVisitor&#45;&gt;Vala.CodeGenerator -->
<g id="edge5" class="edge">
<title>Vala.CodeVisitor&#45;&gt;Vala.CodeGenerator</title>
<path fill="none" stroke="black" d="M97.5,-349.67C97.5,-341.05 97.5,-331.79 97.5,-324.1"/>
<polygon fill="black" stroke="black" points="94,-349.7 97.5,-359.7 101,-349.7 94,-349.7"/>
</g>
</g>
</svg>
