<?xml version="1.0" encoding="UTF-8" standalone="no"?>
<!DOCTYPE svg PUBLIC "-//W3C//DTD SVG 1.1//EN"
 "http://www.w3.org/Graphics/SVG/1.1/DTD/svg11.dtd">
<!-- Generated by graphviz version 2.40.1 (20161225.0304)
 -->
<!-- Title: Vala.CCodeBaseModule Pages: 1 -->
<svg width="159pt" height="188pt"
 viewBox="0.00 0.00 159.00 188.00" xmlns="http://www.w3.org/2000/svg" xmlns:xlink="http://www.w3.org/1999/xlink">
<g id="graph0" class="graph" transform="scale(1 1) rotate(0) translate(4 184)">
<title>Vala.CCodeBaseModule</title>
<polygon fill="#ffffff" stroke="transparent" points="-4,4 -4,-184 155,-184 155,4 -4,4"/>
<!-- Vala.CCodeBaseModule -->
<g id="node1" class="node">
<title>Vala.CCodeBaseModule</title>
<g id="a_node1"><a xlink:href="Vala.CCodeBaseModule.html" xlink:title="Vala.CCodeBaseModule">
<polygon fill="none" stroke="#000000" stroke-width="2" points="151,-36 0,-36 0,0 151,0 151,-36"/>
<text text-anchor="middle" x="75.5" y="-14.3" font-family="Times" font-size="14.00" fill="#000000">Vala.CCodeBaseModule</text>
</a>
</g>
</g>
<!-- Vala.CodeGenerator -->
<g id="node2" class="node">
<title>Vala.CodeGenerator</title>
<polygon fill="none" stroke="#000000" stroke-width="2" points="139,-108 12,-108 12,-72 139,-72 139,-108"/>
<text text-anchor="middle" x="75.5" y="-86.3" font-family="Times" font-size="14.00" fill="#000000">Vala.CodeGenerator</text>
</g>
<!-- Vala.CodeGenerator&#45;&gt;Vala.CCodeBaseModule -->
<g id="edge1" class="edge">
<title>Vala.CodeGenerator&#45;&gt;Vala.CCodeBaseModule</title>
<path fill="none" stroke="#000000" d="M75.5,-61.5726C75.5,-53.1084 75.5,-44.0593 75.5,-36.4133"/>
<polygon fill="#000000" stroke="#000000" points="72.0001,-61.8313 75.5,-71.8314 79.0001,-61.8314 72.0001,-61.8313"/>
</g>
<!-- Vala.CodeVisitor -->
<g id="node3" class="node">
<title>Vala.CodeVisitor</title>
<polygon fill="none" stroke="#000000" stroke-width="2" points="130.5,-180 20.5,-180 20.5,-144 130.5,-144 130.5,-180"/>
<text text-anchor="middle" x="75.5" y="-158.3" font-family="Times" font-size="14.00" fill="#000000">Vala.CodeVisitor</text>
</g>
<!-- Vala.CodeVisitor&#45;&gt;Vala.CodeGenerator -->
<g id="edge2" class="edge">
<title>Vala.CodeVisitor&#45;&gt;Vala.CodeGenerator</title>
<path fill="none" stroke="#000000" d="M75.5,-133.5726C75.5,-125.1084 75.5,-116.0593 75.5,-108.4133"/>
<polygon fill="#000000" stroke="#000000" points="72.0001,-133.8313 75.5,-143.8314 79.0001,-133.8314 72.0001,-133.8313"/>
</g>
</g>
</svg>
