<?xml version="1.0" encoding="UTF-8" standalone="no"?>
<!DOCTYPE svg PUBLIC "-//W3C//DTD SVG 1.1//EN"
 "http://www.w3.org/Graphics/SVG/1.1/DTD/svg11.dtd">
<!-- Generated by graphviz version 2.40.1 (20161225.0304)
 -->
<!-- Title: Vala.CCodeStructModule Pages: 1 -->
<svg width="184pt" height="260pt"
 viewBox="0.00 0.00 184.00 260.00" xmlns="http://www.w3.org/2000/svg" xmlns:xlink="http://www.w3.org/1999/xlink">
<g id="graph0" class="graph" transform="scale(1 1) rotate(0) translate(4 256)">
<title>Vala.CCodeStructModule</title>
<polygon fill="#ffffff" stroke="transparent" points="-4,4 -4,-256 180,-256 180,4 -4,4"/>
<!-- Vala.CCodeStructModule -->
<g id="node1" class="node">
<title>Vala.CCodeStructModule</title>
<g id="a_node1"><a xlink:href="Vala.CCodeStructModule.html" xlink:title="Vala.CCodeStructModule">
<polygon fill="none" stroke="#000000" stroke-width="2" points="176,-36 0,-36 0,0 176,0 176,-36"/>
<text text-anchor="middle" x="88" y="-14.3" font-family="Times" font-size="14.00" fill="#000000">Vala.CCodeStructModule</text>
</a>
</g>
</g>
<!-- Vala.CCodeBaseModule -->
<g id="node2" class="node">
<title>Vala.CCodeBaseModule</title>
<g id="a_node2"><a xlink:href="Vala.CCodeBaseModule.html" xlink:title="Vala.CCodeBaseModule">
<polygon fill="none" stroke="#000000" stroke-width="2" points="171.5,-108 4.5,-108 4.5,-72 171.5,-72 171.5,-108"/>
<text text-anchor="middle" x="88" y="-86.3" font-family="Times" font-size="14.00" fill="#000000">Vala.CCodeBaseModule</text>
</a>
</g>
</g>
<!-- Vala.CCodeBaseModule&#45;&gt;Vala.CCodeStructModule -->
<g id="edge1" class="edge">
<title>Vala.CCodeBaseModule&#45;&gt;Vala.CCodeStructModule</title>
<path fill="none" stroke="#000000" d="M88,-61.5726C88,-53.1084 88,-44.0593 88,-36.4133"/>
<polygon fill="#000000" stroke="#000000" points="84.5001,-61.8313 88,-71.8314 91.5001,-61.8314 84.5001,-61.8313"/>
</g>
<!-- Vala.CodeGenerator -->
<g id="node3" class="node">
<title>Vala.CodeGenerator</title>
<polygon fill="none" stroke="#000000" stroke-width="2" points="161,-180 15,-180 15,-144 161,-144 161,-180"/>
<text text-anchor="middle" x="88" y="-158.3" font-family="Times" font-size="14.00" fill="#000000">Vala.CodeGenerator</text>
</g>
<!-- Vala.CodeGenerator&#45;&gt;Vala.CCodeBaseModule -->
<g id="edge2" class="edge">
<title>Vala.CodeGenerator&#45;&gt;Vala.CCodeBaseModule</title>
<path fill="none" stroke="#000000" d="M88,-133.5726C88,-125.1084 88,-116.0593 88,-108.4133"/>
<polygon fill="#000000" stroke="#000000" points="84.5001,-133.8313 88,-143.8314 91.5001,-133.8314 84.5001,-133.8313"/>
</g>
<!-- Vala.CodeVisitor -->
<g id="node4" class="node">
<title>Vala.CodeVisitor</title>
<polygon fill="none" stroke="#000000" stroke-width="2" points="149,-252 27,-252 27,-216 149,-216 149,-252"/>
<text text-anchor="middle" x="88" y="-230.3" font-family="Times" font-size="14.00" fill="#000000">Vala.CodeVisitor</text>
</g>
<!-- Vala.CodeVisitor&#45;&gt;Vala.CodeGenerator -->
<g id="edge3" class="edge">
<title>Vala.CodeVisitor&#45;&gt;Vala.CodeGenerator</title>
<path fill="none" stroke="#000000" d="M88,-205.5726C88,-197.1084 88,-188.0593 88,-180.4133"/>
<polygon fill="#000000" stroke="#000000" points="84.5001,-205.8313 88,-215.8314 91.5001,-205.8314 84.5001,-205.8313"/>
</g>
</g>
</svg>
