<?xml version="1.0" encoding="UTF-8" standalone="no"?>
<!DOCTYPE svg PUBLIC "-//W3C//DTD SVG 1.1//EN"
 "http://www.w3.org/Graphics/SVG/1.1/DTD/svg11.dtd">
<!-- Generated by graphviz version 2.40.1 (20161225.0304)
 -->
<!-- Title: Vala.HashMap.ValueCollection Pages: 1 -->
<svg width="196pt" height="188pt"
 viewBox="0.00 0.00 196.00 188.00" xmlns="http://www.w3.org/2000/svg" xmlns:xlink="http://www.w3.org/1999/xlink">
<g id="graph0" class="graph" transform="scale(1 1) rotate(0) translate(4 184)">
<title>Vala.HashMap.ValueCollection</title>
<polygon fill="#ffffff" stroke="transparent" points="-4,4 -4,-184 192,-184 192,4 -4,4"/>
<!-- Vala.HashMap.ValueCollection -->
<g id="node1" class="node">
<title>Vala.HashMap.ValueCollection</title>
<g id="a_node1"><a xlink:href="Vala.HashMap.ValueCollection.html" xlink:title="Vala.HashMap.ValueCollection">
<polygon fill="none" stroke="#000000" stroke-width="2" points="188,-36 0,-36 0,0 188,0 188,-36"/>
<text text-anchor="middle" x="94" y="-14.3" font-family="Times" font-size="14.00" fill="#000000">Vala.HashMap.ValueCollection</text>
</a>
</g>
</g>
<!-- Vala.Collection -->
<g id="node2" class="node">
<title>Vala.Collection</title>
<g id="a_node2"><a xlink:href="Vala.Collection.html" xlink:title="Vala.Collection">
<polygon fill="none" stroke="#000000" stroke-width="2" points="144.5,-108 43.5,-108 43.5,-72 144.5,-72 144.5,-108"/>
<text text-anchor="middle" x="94" y="-86.3" font-family="Times" font-size="14.00" fill="#000000">Vala.Collection</text>
</a>
</g>
</g>
<!-- Vala.Collection&#45;&gt;Vala.HashMap.ValueCollection -->
<g id="edge1" class="edge">
<title>Vala.Collection&#45;&gt;Vala.HashMap.ValueCollection</title>
<path fill="none" stroke="#000000" d="M94,-61.5726C94,-53.1084 94,-44.0593 94,-36.4133"/>
<polygon fill="#000000" stroke="#000000" points="90.5001,-61.8313 94,-71.8314 97.5001,-61.8314 90.5001,-61.8313"/>
</g>
<!-- Vala.Iterable -->
<g id="node3" class="node">
<title>Vala.Iterable</title>
<g id="a_node3"><a xlink:href="Vala.Iterable.html" xlink:title="Vala.Iterable">
<polygon fill="none" stroke="#000000" stroke-width="2" points="137,-180 51,-180 51,-144 137,-144 137,-180"/>
<text text-anchor="middle" x="94" y="-158.3" font-family="Times" font-size="14.00" fill="#000000">Vala.Iterable</text>
</a>
</g>
</g>
<!-- Vala.Iterable&#45;&gt;Vala.Collection -->
<g id="edge2" class="edge">
<title>Vala.Iterable&#45;&gt;Vala.Collection</title>
<path fill="none" stroke="#000000" d="M94,-133.5726C94,-125.1084 94,-116.0593 94,-108.4133"/>
<polygon fill="#000000" stroke="#000000" points="90.5001,-133.8313 94,-143.8314 97.5001,-133.8314 90.5001,-133.8313"/>
</g>
</g>
</svg>
