<?xml version="1.0" encoding="UTF-8" standalone="no"?>
<!DOCTYPE svg PUBLIC "-//W3C//DTD SVG 1.1//EN"
 "http://www.w3.org/Graphics/SVG/1.1/DTD/svg11.dtd">
<!-- Generated by graphviz version 2.42.3 (0)
 -->
<!-- Title: Vala.HashMap.KeySet Pages: 1 -->
<svg width="150pt" height="260pt"
 viewBox="0.00 0.00 150.00 260.00" xmlns="http://www.w3.org/2000/svg" xmlns:xlink="http://www.w3.org/1999/xlink">
<g id="graph0" class="graph" transform="scale(1 1) rotate(0) translate(4 256)">
<title>Vala.HashMap.KeySet</title>
<polygon fill="white" stroke="transparent" points="-4,4 -4,-256 146,-256 146,4 -4,4"/>
<!-- Vala.HashMap.KeySet -->
<g id="node1" class="node">
<title>Vala.HashMap.KeySet</title>
<g id="a_node1"><a xlink:href="Vala.HashMap.KeySet.html" xlink:title="Vala.HashMap.KeySet">
<polygon fill="none" stroke="black" stroke-width="2" points="142,-36 0,-36 0,0 142,0 142,-36"/>
<text text-anchor="middle" x="71" y="-14.3" font-family="Times" font-size="14.00">Vala.HashMap.KeySet</text>
</a>
</g>
</g>
<!-- Vala.Set -->
<g id="node2" class="node">
<title>Vala.Set</title>
<g id="a_node2"><a xlink:href="Vala.Set.html" xlink:title="Vala.Set">
<polygon fill="none" stroke="black" stroke-width="2" points="102,-108 40,-108 40,-72 102,-72 102,-108"/>
<text text-anchor="middle" x="71" y="-86.3" font-family="Times" font-size="14.00">Vala.Set</text>
</a>
</g>
</g>
<!-- Vala.Set&#45;&gt;Vala.HashMap.KeySet -->
<g id="edge1" class="edge">
<title>Vala.Set&#45;&gt;Vala.HashMap.KeySet</title>
<path fill="none" stroke="black" d="M71,-61.67C71,-53.05 71,-43.79 71,-36.1"/>
<polygon fill="black" stroke="black" points="67.5,-61.7 71,-71.7 74.5,-61.7 67.5,-61.7"/>
</g>
<!-- Vala.Collection -->
<g id="node3" class="node">
<title>Vala.Collection</title>
<g id="a_node3"><a xlink:href="Vala.Collection.html" xlink:title="Vala.Collection">
<polygon fill="none" stroke="black" stroke-width="2" points="121.5,-180 20.5,-180 20.5,-144 121.5,-144 121.5,-180"/>
<text text-anchor="middle" x="71" y="-158.3" font-family="Times" font-size="14.00">Vala.Collection</text>
</a>
</g>
</g>
<!-- Vala.Collection&#45;&gt;Vala.Set -->
<g id="edge2" class="edge">
<title>Vala.Collection&#45;&gt;Vala.Set</title>
<path fill="none" stroke="black" d="M71,-133.67C71,-125.05 71,-115.79 71,-108.1"/>
<polygon fill="black" stroke="black" points="67.5,-133.7 71,-143.7 74.5,-133.7 67.5,-133.7"/>
</g>
<!-- Vala.Iterable -->
<g id="node4" class="node">
<title>Vala.Iterable</title>
<g id="a_node4"><a xlink:href="Vala.Iterable.html" xlink:title="Vala.Iterable">
<polygon fill="none" stroke="black" stroke-width="2" points="114,-252 28,-252 28,-216 114,-216 114,-252"/>
<text text-anchor="middle" x="71" y="-230.3" font-family="Times" font-size="14.00">Vala.Iterable</text>
</a>
</g>
</g>
<!-- Vala.Iterable&#45;&gt;Vala.Collection -->
<g id="edge3" class="edge">
<title>Vala.Iterable&#45;&gt;Vala.Collection</title>
<path fill="none" stroke="black" d="M71,-205.67C71,-197.05 71,-187.79 71,-180.1"/>
<polygon fill="black" stroke="black" points="67.5,-205.7 71,-215.7 74.5,-205.7 67.5,-205.7"/>
</g>
</g>
</svg>
