<?xml version="1.0" encoding="UTF-8" standalone="no"?>
<!DOCTYPE svg PUBLIC "-//W3C//DTD SVG 1.1//EN"
 "http://www.w3.org/Graphics/SVG/1.1/DTD/svg11.dtd">
<!-- Generated by graphviz version 2.42.3 (0)
 -->
<!-- Title: Vala.HashSet Pages: 1 -->
<svg width="109pt" height="260pt"
 viewBox="0.00 0.00 109.00 260.00" xmlns="http://www.w3.org/2000/svg" xmlns:xlink="http://www.w3.org/1999/xlink">
<g id="graph0" class="graph" transform="scale(1 1) rotate(0) translate(4 256)">
<title>Vala.HashSet</title>
<polygon fill="white" stroke="transparent" points="-4,4 -4,-256 105,-256 105,4 -4,4"/>
<!-- Vala.HashSet -->
<g id="node1" class="node">
<title>Vala.HashSet</title>
<g id="a_node1"><a xlink:href="Vala.HashSet.html" xlink:title="Vala.HashSet">
<polygon fill="none" stroke="black" stroke-width="2" points="95.5,-36 5.5,-36 5.5,0 95.5,0 95.5,-36"/>
<text text-anchor="middle" x="50.5" y="-14.3" font-family="Times" font-size="14.00">Vala.HashSet</text>
</a>
</g>
</g>
<!-- Vala.Set -->
<g id="node2" class="node">
<title>Vala.Set</title>
<g id="a_node2"><a xlink:href="Vala.Set.html" xlink:title="Vala.Set">
<polygon fill="none" stroke="black" stroke-width="2" points="81.5,-108 19.5,-108 19.5,-72 81.5,-72 81.5,-108"/>
<text text-anchor="middle" x="50.5" y="-86.3" font-family="Times" font-size="14.00">Vala.Set</text>
</a>
</g>
</g>
<!-- Vala.Set&#45;&gt;Vala.HashSet -->
<g id="edge1" class="edge">
<title>Vala.Set&#45;&gt;Vala.HashSet</title>
<path fill="none" stroke="black" d="M50.5,-61.67C50.5,-53.05 50.5,-43.79 50.5,-36.1"/>
<polygon fill="black" stroke="black" points="47,-61.7 50.5,-71.7 54,-61.7 47,-61.7"/>
</g>
<!-- Vala.Collection -->
<g id="node3" class="node">
<title>Vala.Collection</title>
<g id="a_node3"><a xlink:href="Vala.Collection.html" xlink:title="Vala.Collection">
<polygon fill="none" stroke="black" stroke-width="2" points="101,-180 0,-180 0,-144 101,-144 101,-180"/>
<text text-anchor="middle" x="50.5" y="-158.3" font-family="Times" font-size="14.00">Vala.Collection</text>
</a>
</g>
</g>
<!-- Vala.Collection&#45;&gt;Vala.Set -->
<g id="edge2" class="edge">
<title>Vala.Collection&#45;&gt;Vala.Set</title>
<path fill="none" stroke="black" d="M50.5,-133.67C50.5,-125.05 50.5,-115.79 50.5,-108.1"/>
<polygon fill="black" stroke="black" points="47,-133.7 50.5,-143.7 54,-133.7 47,-133.7"/>
</g>
<!-- Vala.Iterable -->
<g id="node4" class="node">
<title>Vala.Iterable</title>
<g id="a_node4"><a xlink:href="Vala.Iterable.html" xlink:title="Vala.Iterable">
<polygon fill="none" stroke="black" stroke-width="2" points="93.5,-252 7.5,-252 7.5,-216 93.5,-216 93.5,-252"/>
<text text-anchor="middle" x="50.5" y="-230.3" font-family="Times" font-size="14.00">Vala.Iterable</text>
</a>
</g>
</g>
<!-- Vala.Iterable&#45;&gt;Vala.Collection -->
<g id="edge3" class="edge">
<title>Vala.Iterable&#45;&gt;Vala.Collection</title>
<path fill="none" stroke="black" d="M50.5,-205.67C50.5,-197.05 50.5,-187.79 50.5,-180.1"/>
<polygon fill="black" stroke="black" points="47,-205.7 50.5,-215.7 54,-205.7 47,-205.7"/>
</g>
</g>
</svg>
