<?xml version="1.0" encoding="UTF-8" standalone="no"?>
<!DOCTYPE svg PUBLIC "-//W3C//DTD SVG 1.1//EN"
 "http://www.w3.org/Graphics/SVG/1.1/DTD/svg11.dtd">
<!-- Generated by graphviz version 2.40.1 (0)
 -->
<!-- Title: Vala.HashSet Pages: 1 -->
<svg width="109pt" height="260pt"
 viewBox="0.00 0.00 109.00 260.00" xmlns="http://www.w3.org/2000/svg" xmlns:xlink="http://www.w3.org/1999/xlink">
<g id="graph0" class="graph" transform="scale(1 1) rotate(0) translate(4 256)">
<title>Vala.HashSet</title>
<polygon fill="#ffffff" stroke="transparent" points="-4,4 -4,-256 105,-256 105,4 -4,4"/>
<!-- Vala.HashSet -->
<g id="node1" class="node">
<title>Vala.HashSet</title>
<g id="a_node1"><a xlink:href="Vala.HashSet.html" xlink:title="Vala.HashSet">
<polygon fill="none" stroke="#000000" stroke-width="2" points="95.5,-36 5.5,-36 5.5,0 95.5,0 95.5,-36"/>
<text text-anchor="middle" x="50.5" y="-14.3" font-family="Times" font-size="14.00" fill="#000000">Vala.HashSet</text>
</a>
</g>
</g>
<!-- Vala.Set -->
<g id="node2" class="node">
<title>Vala.Set</title>
<g id="a_node2"><a xlink:href="Vala.Set.html" xlink:title="Vala.Set">
<polygon fill="none" stroke="#000000" stroke-width="2" points="81.5,-108 19.5,-108 19.5,-72 81.5,-72 81.5,-108"/>
<text text-anchor="middle" x="50.5" y="-86.3" font-family="Times" font-size="14.00" fill="#000000">Vala.Set</text>
</a>
</g>
</g>
<!-- Vala.Set&#45;&gt;Vala.HashSet -->
<g id="edge1" class="edge">
<title>Vala.Set&#45;&gt;Vala.HashSet</title>
<path fill="none" stroke="#000000" d="M50.5,-61.5726C50.5,-53.1084 50.5,-44.0593 50.5,-36.4133"/>
<polygon fill="#000000" stroke="#000000" points="47.0001,-61.8313 50.5,-71.8314 54.0001,-61.8314 47.0001,-61.8313"/>
</g>
<!-- Vala.Collection -->
<g id="node3" class="node">
<title>Vala.Collection</title>
<g id="a_node3"><a xlink:href="Vala.Collection.html" xlink:title="Vala.Collection">
<polygon fill="none" stroke="#000000" stroke-width="2" points="101,-180 0,-180 0,-144 101,-144 101,-180"/>
<text text-anchor="middle" x="50.5" y="-158.3" font-family="Times" font-size="14.00" fill="#000000">Vala.Collection</text>
</a>
</g>
</g>
<!-- Vala.Collection&#45;&gt;Vala.Set -->
<g id="edge2" class="edge">
<title>Vala.Collection&#45;&gt;Vala.Set</title>
<path fill="none" stroke="#000000" d="M50.5,-133.5726C50.5,-125.1084 50.5,-116.0593 50.5,-108.4133"/>
<polygon fill="#000000" stroke="#000000" points="47.0001,-133.8313 50.5,-143.8314 54.0001,-133.8314 47.0001,-133.8313"/>
</g>
<!-- Vala.Iterable -->
<g id="node4" class="node">
<title>Vala.Iterable</title>
<g id="a_node4"><a xlink:href="Vala.Iterable.html" xlink:title="Vala.Iterable">
<polygon fill="none" stroke="#000000" stroke-width="2" points="93.5,-252 7.5,-252 7.5,-216 93.5,-216 93.5,-252"/>
<text text-anchor="middle" x="50.5" y="-230.3" font-family="Times" font-size="14.00" fill="#000000">Vala.Iterable</text>
</a>
</g>
</g>
<!-- Vala.Iterable&#45;&gt;Vala.Collection -->
<g id="edge3" class="edge">
<title>Vala.Iterable&#45;&gt;Vala.Collection</title>
<path fill="none" stroke="#000000" d="M50.5,-205.5726C50.5,-197.1084 50.5,-188.0593 50.5,-180.4133"/>
<polygon fill="#000000" stroke="#000000" points="47.0001,-205.8313 50.5,-215.8314 54.0001,-205.8314 47.0001,-205.8313"/>
</g>
</g>
</svg>
