<?xml version="1.0" encoding="UTF-8" standalone="no"?>
<!DOCTYPE svg PUBLIC "-//W3C//DTD SVG 1.1//EN"
 "http://www.w3.org/Graphics/SVG/1.1/DTD/svg11.dtd">
<!-- Generated by graphviz version 2.40.1 (20161225.0304)
 -->
<!-- Title: Vala.ArrayList Pages: 1 -->
<svg width="120pt" height="260pt"
 viewBox="0.00 0.00 120.00 260.00" xmlns="http://www.w3.org/2000/svg" xmlns:xlink="http://www.w3.org/1999/xlink">
<g id="graph0" class="graph" transform="scale(1 1) rotate(0) translate(4 256)">
<title>Vala.ArrayList</title>
<polygon fill="#ffffff" stroke="transparent" points="-4,4 -4,-256 116,-256 116,4 -4,4"/>
<!-- Vala.ArrayList -->
<g id="node1" class="node">
<title>Vala.ArrayList</title>
<g id="a_node1"><a xlink:href="Vala.ArrayList.html" xlink:title="Vala.ArrayList">
<polygon fill="none" stroke="#000000" stroke-width="2" points="109,-36 3,-36 3,0 109,0 109,-36"/>
<text text-anchor="middle" x="56" y="-14.3" font-family="Times" font-size="14.00" fill="#000000">Vala.ArrayList</text>
</a>
</g>
</g>
<!-- Vala.List -->
<g id="node2" class="node">
<title>Vala.List</title>
<g id="a_node2"><a xlink:href="Vala.List.html" xlink:title="Vala.List">
<polygon fill="none" stroke="#000000" stroke-width="2" points="91,-108 21,-108 21,-72 91,-72 91,-108"/>
<text text-anchor="middle" x="56" y="-86.3" font-family="Times" font-size="14.00" fill="#000000">Vala.List</text>
</a>
</g>
</g>
<!-- Vala.List&#45;&gt;Vala.ArrayList -->
<g id="edge1" class="edge">
<title>Vala.List&#45;&gt;Vala.ArrayList</title>
<path fill="none" stroke="#000000" d="M56,-61.5726C56,-53.1084 56,-44.0593 56,-36.4133"/>
<polygon fill="#000000" stroke="#000000" points="52.5001,-61.8313 56,-71.8314 59.5001,-61.8314 52.5001,-61.8313"/>
</g>
<!-- Vala.Collection -->
<g id="node3" class="node">
<title>Vala.Collection</title>
<g id="a_node3"><a xlink:href="Vala.Collection.html" xlink:title="Vala.Collection">
<polygon fill="none" stroke="#000000" stroke-width="2" points="112,-180 0,-180 0,-144 112,-144 112,-180"/>
<text text-anchor="middle" x="56" y="-158.3" font-family="Times" font-size="14.00" fill="#000000">Vala.Collection</text>
</a>
</g>
</g>
<!-- Vala.Collection&#45;&gt;Vala.List -->
<g id="edge2" class="edge">
<title>Vala.Collection&#45;&gt;Vala.List</title>
<path fill="none" stroke="#000000" d="M56,-133.5726C56,-125.1084 56,-116.0593 56,-108.4133"/>
<polygon fill="#000000" stroke="#000000" points="52.5001,-133.8313 56,-143.8314 59.5001,-133.8314 52.5001,-133.8313"/>
</g>
<!-- Vala.Iterable -->
<g id="node4" class="node">
<title>Vala.Iterable</title>
<g id="a_node4"><a xlink:href="Vala.Iterable.html" xlink:title="Vala.Iterable">
<polygon fill="none" stroke="#000000" stroke-width="2" points="105,-252 7,-252 7,-216 105,-216 105,-252"/>
<text text-anchor="middle" x="56" y="-230.3" font-family="Times" font-size="14.00" fill="#000000">Vala.Iterable</text>
</a>
</g>
</g>
<!-- Vala.Iterable&#45;&gt;Vala.Collection -->
<g id="edge3" class="edge">
<title>Vala.Iterable&#45;&gt;Vala.Collection</title>
<path fill="none" stroke="#000000" d="M56,-205.5726C56,-197.1084 56,-188.0593 56,-180.4133"/>
<polygon fill="#000000" stroke="#000000" points="52.5001,-205.8313 56,-215.8314 59.5001,-205.8314 52.5001,-205.8313"/>
</g>
</g>
</svg>
