<?xml version="1.0" encoding="UTF-8" standalone="no"?>
<!DOCTYPE svg PUBLIC "-//W3C//DTD SVG 1.1//EN"
 "http://www.w3.org/Graphics/SVG/1.1/DTD/svg11.dtd">
<!-- Generated by graphviz version 2.40.1 (20161225.0304)
 -->
<!-- Title: Vala.List Pages: 1 -->
<svg width="109pt" height="188pt"
 viewBox="0.00 0.00 109.00 188.00" xmlns="http://www.w3.org/2000/svg" xmlns:xlink="http://www.w3.org/1999/xlink">
<g id="graph0" class="graph" transform="scale(1 1) rotate(0) translate(4 184)">
<title>Vala.List</title>
<polygon fill="#ffffff" stroke="transparent" points="-4,4 -4,-184 105,-184 105,4 -4,4"/>
<!-- Vala.List -->
<g id="node1" class="node">
<title>Vala.List</title>
<g id="a_node1"><a xlink:href="Vala.List.html" xlink:title="Vala.List">
<polygon fill="none" stroke="#000000" stroke-width="2" points="83,-36 18,-36 18,0 83,0 83,-36"/>
<text text-anchor="middle" x="50.5" y="-14.3" font-family="Times" font-size="14.00" fill="#000000">Vala.List</text>
</a>
</g>
</g>
<!-- Vala.Collection -->
<g id="node2" class="node">
<title>Vala.Collection</title>
<g id="a_node2"><a xlink:href="Vala.Collection.html" xlink:title="Vala.Collection">
<polygon fill="none" stroke="#000000" stroke-width="2" points="101,-108 0,-108 0,-72 101,-72 101,-108"/>
<text text-anchor="middle" x="50.5" y="-86.3" font-family="Times" font-size="14.00" fill="#000000">Vala.Collection</text>
</a>
</g>
</g>
<!-- Vala.Collection&#45;&gt;Vala.List -->
<g id="edge1" class="edge">
<title>Vala.Collection&#45;&gt;Vala.List</title>
<path fill="none" stroke="#000000" d="M50.5,-61.5726C50.5,-53.1084 50.5,-44.0593 50.5,-36.4133"/>
<polygon fill="#000000" stroke="#000000" points="47.0001,-61.8313 50.5,-71.8314 54.0001,-61.8314 47.0001,-61.8313"/>
</g>
<!-- Vala.Iterable -->
<g id="node3" class="node">
<title>Vala.Iterable</title>
<g id="a_node3"><a xlink:href="Vala.Iterable.html" xlink:title="Vala.Iterable">
<polygon fill="none" stroke="#000000" stroke-width="2" points="93.5,-180 7.5,-180 7.5,-144 93.5,-144 93.5,-180"/>
<text text-anchor="middle" x="50.5" y="-158.3" font-family="Times" font-size="14.00" fill="#000000">Vala.Iterable</text>
</a>
</g>
</g>
<!-- Vala.Iterable&#45;&gt;Vala.Collection -->
<g id="edge2" class="edge">
<title>Vala.Iterable&#45;&gt;Vala.Collection</title>
<path fill="none" stroke="#000000" d="M50.5,-133.5726C50.5,-125.1084 50.5,-116.0593 50.5,-108.4133"/>
<polygon fill="#000000" stroke="#000000" points="47.0001,-133.8313 50.5,-143.8314 54.0001,-133.8314 47.0001,-133.8313"/>
</g>
</g>
</svg>
