<?xml version="1.0" encoding="UTF-8" standalone="no"?>
<!DOCTYPE svg PUBLIC "-//W3C//DTD SVG 1.1//EN"
 "http://www.w3.org/Graphics/SVG/1.1/DTD/svg11.dtd">
<!-- Generated by graphviz version 2.40.1 (20161225.0304)
 -->
<!-- Title: Vala.HashMap.KeySet Pages: 1 -->
<svg width="148pt" height="260pt"
 viewBox="0.00 0.00 148.00 260.00" xmlns="http://www.w3.org/2000/svg" xmlns:xlink="http://www.w3.org/1999/xlink">
<g id="graph0" class="graph" transform="scale(1 1) rotate(0) translate(4 256)">
<title>Vala.HashMap.KeySet</title>
<polygon fill="#ffffff" stroke="transparent" points="-4,4 -4,-256 144,-256 144,4 -4,4"/>
<!-- Vala.HashMap.KeySet -->
<g id="node1" class="node">
<title>Vala.HashMap.KeySet</title>
<g id="a_node1"><a xlink:href="Vala.HashMap.KeySet.html" xlink:title="Vala.HashMap.KeySet">
<polygon fill="none" stroke="#000000" stroke-width="2" points="140,-36 0,-36 0,0 140,0 140,-36"/>
<text text-anchor="middle" x="70" y="-14.3" font-family="Times" font-size="14.00" fill="#000000">Vala.HashMap.KeySet</text>
</a>
</g>
</g>
<!-- Vala.Set -->
<g id="node2" class="node">
<title>Vala.Set</title>
<g id="a_node2"><a xlink:href="Vala.Set.html" xlink:title="Vala.Set">
<polygon fill="none" stroke="#000000" stroke-width="2" points="101,-108 39,-108 39,-72 101,-72 101,-108"/>
<text text-anchor="middle" x="70" y="-86.3" font-family="Times" font-size="14.00" fill="#000000">Vala.Set</text>
</a>
</g>
</g>
<!-- Vala.Set&#45;&gt;Vala.HashMap.KeySet -->
<g id="edge1" class="edge">
<title>Vala.Set&#45;&gt;Vala.HashMap.KeySet</title>
<path fill="none" stroke="#000000" d="M70,-61.5726C70,-53.1084 70,-44.0593 70,-36.4133"/>
<polygon fill="#000000" stroke="#000000" points="66.5001,-61.8313 70,-71.8314 73.5001,-61.8314 66.5001,-61.8313"/>
</g>
<!-- Vala.Collection -->
<g id="node3" class="node">
<title>Vala.Collection</title>
<g id="a_node3"><a xlink:href="Vala.Collection.html" xlink:title="Vala.Collection">
<polygon fill="none" stroke="#000000" stroke-width="2" points="120.5,-180 19.5,-180 19.5,-144 120.5,-144 120.5,-180"/>
<text text-anchor="middle" x="70" y="-158.3" font-family="Times" font-size="14.00" fill="#000000">Vala.Collection</text>
</a>
</g>
</g>
<!-- Vala.Collection&#45;&gt;Vala.Set -->
<g id="edge2" class="edge">
<title>Vala.Collection&#45;&gt;Vala.Set</title>
<path fill="none" stroke="#000000" d="M70,-133.5726C70,-125.1084 70,-116.0593 70,-108.4133"/>
<polygon fill="#000000" stroke="#000000" points="66.5001,-133.8313 70,-143.8314 73.5001,-133.8314 66.5001,-133.8313"/>
</g>
<!-- Vala.Iterable -->
<g id="node4" class="node">
<title>Vala.Iterable</title>
<g id="a_node4"><a xlink:href="Vala.Iterable.html" xlink:title="Vala.Iterable">
<polygon fill="none" stroke="#000000" stroke-width="2" points="113,-252 27,-252 27,-216 113,-216 113,-252"/>
<text text-anchor="middle" x="70" y="-230.3" font-family="Times" font-size="14.00" fill="#000000">Vala.Iterable</text>
</a>
</g>
</g>
<!-- Vala.Iterable&#45;&gt;Vala.Collection -->
<g id="edge3" class="edge">
<title>Vala.Iterable&#45;&gt;Vala.Collection</title>
<path fill="none" stroke="#000000" d="M70,-205.5726C70,-197.1084 70,-188.0593 70,-180.4133"/>
<polygon fill="#000000" stroke="#000000" points="66.5001,-205.8313 70,-215.8314 73.5001,-205.8314 66.5001,-205.8313"/>
</g>
</g>
</svg>
