<?xml version="1.0" encoding="UTF-8" standalone="no"?>
<!DOCTYPE svg PUBLIC "-//W3C//DTD SVG 1.1//EN"
 "http://www.w3.org/Graphics/SVG/1.1/DTD/svg11.dtd">
<!-- Generated by graphviz version 2.40.1 (20161225.0304)
 -->
<!-- Title: Vala.StructValueType Pages: 1 -->
<svg width="160pt" height="260pt"
 viewBox="0.00 0.00 160.00 260.00" xmlns="http://www.w3.org/2000/svg" xmlns:xlink="http://www.w3.org/1999/xlink">
<g id="graph0" class="graph" transform="scale(1 1) rotate(0) translate(4 256)">
<title>Vala.StructValueType</title>
<polygon fill="#ffffff" stroke="transparent" points="-4,4 -4,-256 156,-256 156,4 -4,4"/>
<!-- Vala.StructValueType -->
<g id="node1" class="node">
<title>Vala.StructValueType</title>
<g id="a_node1"><a xlink:href="Vala.StructValueType.html" xlink:title="Vala.StructValueType">
<polygon fill="none" stroke="#000000" stroke-width="2" points="152,-36 0,-36 0,0 152,0 152,-36"/>
<text text-anchor="middle" x="76" y="-14.3" font-family="Times" font-size="14.00" fill="#000000">Vala.StructValueType</text>
</a>
</g>
</g>
<!-- Vala.ValueType -->
<g id="node2" class="node">
<title>Vala.ValueType</title>
<g id="a_node2"><a xlink:href="Vala.ValueType.html" xlink:title="Vala.ValueType">
<polygon fill="none" stroke="#000000" stroke-width="2" points="131.5,-108 20.5,-108 20.5,-72 131.5,-72 131.5,-108"/>
<text text-anchor="middle" x="76" y="-86.3" font-family="Times" font-size="14.00" fill="#000000">Vala.ValueType</text>
</a>
</g>
</g>
<!-- Vala.ValueType&#45;&gt;Vala.StructValueType -->
<g id="edge1" class="edge">
<title>Vala.ValueType&#45;&gt;Vala.StructValueType</title>
<path fill="none" stroke="#000000" d="M76,-61.5726C76,-53.1084 76,-44.0593 76,-36.4133"/>
<polygon fill="#000000" stroke="#000000" points="72.5001,-61.8313 76,-71.8314 79.5001,-61.8314 72.5001,-61.8313"/>
</g>
<!-- Vala.DataType -->
<g id="node3" class="node">
<title>Vala.DataType</title>
<g id="a_node3"><a xlink:href="Vala.DataType.html" xlink:title="Vala.DataType">
<polygon fill="none" stroke="#000000" stroke-width="2" points="129.5,-180 22.5,-180 22.5,-144 129.5,-144 129.5,-180"/>
<text text-anchor="middle" x="76" y="-158.3" font-family="Times" font-size="14.00" fill="#000000">Vala.DataType</text>
</a>
</g>
</g>
<!-- Vala.DataType&#45;&gt;Vala.ValueType -->
<g id="edge2" class="edge">
<title>Vala.DataType&#45;&gt;Vala.ValueType</title>
<path fill="none" stroke="#000000" d="M76,-133.5726C76,-125.1084 76,-116.0593 76,-108.4133"/>
<polygon fill="#000000" stroke="#000000" points="72.5001,-133.8313 76,-143.8314 79.5001,-133.8314 72.5001,-133.8313"/>
</g>
<!-- Vala.CodeNode -->
<g id="node4" class="node">
<title>Vala.CodeNode</title>
<g id="a_node4"><a xlink:href="Vala.CodeNode.html" xlink:title="Vala.CodeNode">
<polygon fill="none" stroke="#000000" stroke-width="2" points="132.5,-252 19.5,-252 19.5,-216 132.5,-216 132.5,-252"/>
<text text-anchor="middle" x="76" y="-230.3" font-family="Times" font-size="14.00" fill="#000000">Vala.CodeNode</text>
</a>
</g>
</g>
<!-- Vala.CodeNode&#45;&gt;Vala.DataType -->
<g id="edge3" class="edge">
<title>Vala.CodeNode&#45;&gt;Vala.DataType</title>
<path fill="none" stroke="#000000" d="M76,-205.5726C76,-197.1084 76,-188.0593 76,-180.4133"/>
<polygon fill="#000000" stroke="#000000" points="72.5001,-205.8313 76,-215.8314 79.5001,-205.8314 72.5001,-205.8313"/>
</g>
</g>
</svg>
