<?xml version="1.0" encoding="UTF-8" standalone="no"?>
<!DOCTYPE svg PUBLIC "-//W3C//DTD SVG 1.1//EN"
 "http://www.w3.org/Graphics/SVG/1.1/DTD/svg11.dtd">
<!-- Generated by graphviz version 2.42.3 (0)
 -->
<!-- Title: Vala.StringLiteral Pages: 1 -->
<svg width="123pt" height="260pt"
 viewBox="0.00 0.00 123.00 260.00" xmlns="http://www.w3.org/2000/svg" xmlns:xlink="http://www.w3.org/1999/xlink">
<g id="graph0" class="graph" transform="scale(1 1) rotate(0) translate(4 256)">
<title>Vala.StringLiteral</title>
<polygon fill="white" stroke="transparent" points="-4,4 -4,-256 119,-256 119,4 -4,4"/>
<!-- Vala.StringLiteral -->
<g id="node1" class="node">
<title>Vala.StringLiteral</title>
<g id="a_node1"><a xlink:href="Vala.StringLiteral.html" xlink:title="Vala.StringLiteral">
<polygon fill="none" stroke="black" stroke-width="2" points="115,-36 0,-36 0,0 115,0 115,-36"/>
<text text-anchor="middle" x="57.5" y="-14.3" font-family="Times" font-size="14.00">Vala.StringLiteral</text>
</a>
</g>
</g>
<!-- Vala.Literal -->
<g id="node2" class="node">
<title>Vala.Literal</title>
<g id="a_node2"><a xlink:href="Vala.Literal.html" xlink:title="Vala.Literal">
<polygon fill="none" stroke="black" stroke-width="2" points="98,-108 17,-108 17,-72 98,-72 98,-108"/>
<text text-anchor="middle" x="57.5" y="-86.3" font-family="Times" font-size="14.00">Vala.Literal</text>
</a>
</g>
</g>
<!-- Vala.Literal&#45;&gt;Vala.StringLiteral -->
<g id="edge1" class="edge">
<title>Vala.Literal&#45;&gt;Vala.StringLiteral</title>
<path fill="none" stroke="black" d="M57.5,-61.67C57.5,-53.05 57.5,-43.79 57.5,-36.1"/>
<polygon fill="black" stroke="black" points="54,-61.7 57.5,-71.7 61,-61.7 54,-61.7"/>
</g>
<!-- Vala.Expression -->
<g id="node3" class="node">
<title>Vala.Expression</title>
<g id="a_node3"><a xlink:href="Vala.Expression.html" xlink:title="Vala.Expression">
<polygon fill="none" stroke="black" stroke-width="2" points="110,-180 5,-180 5,-144 110,-144 110,-180"/>
<text text-anchor="middle" x="57.5" y="-158.3" font-family="Times" font-size="14.00">Vala.Expression</text>
</a>
</g>
</g>
<!-- Vala.Expression&#45;&gt;Vala.Literal -->
<g id="edge2" class="edge">
<title>Vala.Expression&#45;&gt;Vala.Literal</title>
<path fill="none" stroke="black" d="M57.5,-133.67C57.5,-125.05 57.5,-115.79 57.5,-108.1"/>
<polygon fill="black" stroke="black" points="54,-133.7 57.5,-143.7 61,-133.7 54,-133.7"/>
</g>
<!-- Vala.CodeNode -->
<g id="node4" class="node">
<title>Vala.CodeNode</title>
<g id="a_node4"><a xlink:href="Vala.CodeNode.html" xlink:title="Vala.CodeNode">
<polygon fill="none" stroke="black" stroke-width="2" points="109,-252 6,-252 6,-216 109,-216 109,-252"/>
<text text-anchor="middle" x="57.5" y="-230.3" font-family="Times" font-size="14.00">Vala.CodeNode</text>
</a>
</g>
</g>
<!-- Vala.CodeNode&#45;&gt;Vala.Expression -->
<g id="edge3" class="edge">
<title>Vala.CodeNode&#45;&gt;Vala.Expression</title>
<path fill="none" stroke="black" d="M57.5,-205.67C57.5,-197.05 57.5,-187.79 57.5,-180.1"/>
<polygon fill="black" stroke="black" points="54,-205.7 57.5,-215.7 61,-205.7 54,-205.7"/>
</g>
</g>
</svg>
