<?xml version="1.0" encoding="UTF-8" standalone="no"?>
<!DOCTYPE svg PUBLIC "-//W3C//DTD SVG 1.1//EN"
 "http://www.w3.org/Graphics/SVG/1.1/DTD/svg11.dtd">
<!-- Generated by graphviz version 2.40.1 (20161225.0304)
 -->
<!-- Title: Vala.Field Pages: 1 -->
<svg width="236pt" height="260pt"
 viewBox="0.00 0.00 235.50 260.00" xmlns="http://www.w3.org/2000/svg" xmlns:xlink="http://www.w3.org/1999/xlink">
<g id="graph0" class="graph" transform="scale(1 1) rotate(0) translate(4 256)">
<title>Vala.Field</title>
<polygon fill="#ffffff" stroke="transparent" points="-4,4 -4,-256 231.5,-256 231.5,4 -4,4"/>
<!-- Vala.Field -->
<g id="node1" class="node">
<title>Vala.Field</title>
<g id="a_node1"><a xlink:href="Vala.Field.html" xlink:title="Vala.Field">
<polygon fill="none" stroke="#000000" stroke-width="2" points="154,-36 77,-36 77,0 154,0 154,-36"/>
<text text-anchor="middle" x="115.5" y="-14.3" font-family="Times" font-size="14.00" fill="#000000">Vala.Field</text>
</a>
</g>
</g>
<!-- Vala.Variable -->
<g id="node2" class="node">
<title>Vala.Variable</title>
<g id="a_node2"><a xlink:href="Vala.Variable.html" xlink:title="Vala.Variable">
<polygon fill="none" stroke="#000000" stroke-width="2" points="105.5,-108 7.5,-108 7.5,-72 105.5,-72 105.5,-108"/>
<text text-anchor="middle" x="56.5" y="-86.3" font-family="Times" font-size="14.00" fill="#000000">Vala.Variable</text>
</a>
</g>
</g>
<!-- Vala.Variable&#45;&gt;Vala.Field -->
<g id="edge1" class="edge">
<title>Vala.Variable&#45;&gt;Vala.Field</title>
<path fill="none" stroke="#000000" d="M77.7299,-64.0923C85.2361,-54.9323 93.5193,-44.8239 100.4114,-36.4133"/>
<polygon fill="#000000" stroke="#000000" points="75.0193,-61.8782 71.3882,-71.8314 80.4336,-66.3149 75.0193,-61.8782"/>
</g>
<!-- Vala.Symbol -->
<g id="node3" class="node">
<title>Vala.Symbol</title>
<g id="a_node3"><a xlink:href="Vala.Symbol.html" xlink:title="Vala.Symbol">
<polygon fill="none" stroke="#000000" stroke-width="2" points="104,-180 9,-180 9,-144 104,-144 104,-180"/>
<text text-anchor="middle" x="56.5" y="-158.3" font-family="Times" font-size="14.00" fill="#000000">Vala.Symbol</text>
</a>
</g>
</g>
<!-- Vala.Symbol&#45;&gt;Vala.Variable -->
<g id="edge2" class="edge">
<title>Vala.Symbol&#45;&gt;Vala.Variable</title>
<path fill="none" stroke="#000000" d="M56.5,-133.5726C56.5,-125.1084 56.5,-116.0593 56.5,-108.4133"/>
<polygon fill="#000000" stroke="#000000" points="53.0001,-133.8313 56.5,-143.8314 60.0001,-133.8314 53.0001,-133.8313"/>
</g>
<!-- Vala.CodeNode -->
<g id="node4" class="node">
<title>Vala.CodeNode</title>
<g id="a_node4"><a xlink:href="Vala.CodeNode.html" xlink:title="Vala.CodeNode">
<polygon fill="none" stroke="#000000" stroke-width="2" points="113,-252 0,-252 0,-216 113,-216 113,-252"/>
<text text-anchor="middle" x="56.5" y="-230.3" font-family="Times" font-size="14.00" fill="#000000">Vala.CodeNode</text>
</a>
</g>
</g>
<!-- Vala.CodeNode&#45;&gt;Vala.Symbol -->
<g id="edge3" class="edge">
<title>Vala.CodeNode&#45;&gt;Vala.Symbol</title>
<path fill="none" stroke="#000000" d="M56.5,-205.5726C56.5,-197.1084 56.5,-188.0593 56.5,-180.4133"/>
<polygon fill="#000000" stroke="#000000" points="53.0001,-205.8313 56.5,-215.8314 60.0001,-205.8314 53.0001,-205.8313"/>
</g>
<!-- Vala.Lockable -->
<g id="node5" class="node">
<title>Vala.Lockable</title>
<g id="a_node5"><a xlink:href="Vala.Lockable.html" xlink:title="Vala.Lockable">
<polygon fill="none" stroke="#000000" points="227.5,-108 123.5,-108 123.5,-72 227.5,-72 227.5,-108"/>
<text text-anchor="middle" x="175.5" y="-86.3" font-family="Times" font-size="14.00" fill="#000000">Vala.Lockable</text>
</a>
</g>
</g>
<!-- Vala.Lockable&#45;&gt;Vala.Field -->
<g id="edge4" class="edge">
<title>Vala.Lockable&#45;&gt;Vala.Field</title>
<path fill="none" stroke="#000000" d="M153.9102,-64.0923C146.2769,-54.9323 137.8532,-44.8239 130.8444,-36.4133"/>
<polygon fill="#000000" stroke="#000000" points="151.2688,-66.3898 160.3595,-71.8314 156.6464,-61.9085 151.2688,-66.3898"/>
</g>
</g>
</svg>
