<?xml version="1.0" encoding="UTF-8" standalone="no"?>
<!DOCTYPE svg PUBLIC "-//W3C//DTD SVG 1.1//EN"
 "http://www.w3.org/Graphics/SVG/1.1/DTD/svg11.dtd">
<!-- Generated by graphviz version 2.40.1 (20161225.0304)
 -->
<!-- Title: Vala.DelegateType Pages: 1 -->
<svg width="142pt" height="260pt"
 viewBox="0.00 0.00 142.00 260.00" xmlns="http://www.w3.org/2000/svg" xmlns:xlink="http://www.w3.org/1999/xlink">
<g id="graph0" class="graph" transform="scale(1 1) rotate(0) translate(4 256)">
<title>Vala.DelegateType</title>
<polygon fill="#ffffff" stroke="transparent" points="-4,4 -4,-256 138,-256 138,4 -4,4"/>
<!-- Vala.DelegateType -->
<g id="node1" class="node">
<title>Vala.DelegateType</title>
<g id="a_node1"><a xlink:href="Vala.DelegateType.html" xlink:title="Vala.DelegateType">
<polygon fill="none" stroke="#000000" stroke-width="2" points="134,-36 0,-36 0,0 134,0 134,-36"/>
<text text-anchor="middle" x="67" y="-14.3" font-family="Times" font-size="14.00" fill="#000000">Vala.DelegateType</text>
</a>
</g>
</g>
<!-- Vala.CallableType -->
<g id="node2" class="node">
<title>Vala.CallableType</title>
<g id="a_node2"><a xlink:href="Vala.CallableType.html" xlink:title="Vala.CallableType">
<polygon fill="none" stroke="#000000" stroke-width="2" points="131,-108 3,-108 3,-72 131,-72 131,-108"/>
<text text-anchor="middle" x="67" y="-86.3" font-family="Times" font-size="14.00" fill="#000000">Vala.CallableType</text>
</a>
</g>
</g>
<!-- Vala.CallableType&#45;&gt;Vala.DelegateType -->
<g id="edge1" class="edge">
<title>Vala.CallableType&#45;&gt;Vala.DelegateType</title>
<path fill="none" stroke="#000000" d="M67,-61.5726C67,-53.1084 67,-44.0593 67,-36.4133"/>
<polygon fill="#000000" stroke="#000000" points="63.5001,-61.8313 67,-71.8314 70.5001,-61.8314 63.5001,-61.8313"/>
</g>
<!-- Vala.DataType -->
<g id="node3" class="node">
<title>Vala.DataType</title>
<g id="a_node3"><a xlink:href="Vala.DataType.html" xlink:title="Vala.DataType">
<polygon fill="none" stroke="#000000" stroke-width="2" points="120.5,-180 13.5,-180 13.5,-144 120.5,-144 120.5,-180"/>
<text text-anchor="middle" x="67" y="-158.3" font-family="Times" font-size="14.00" fill="#000000">Vala.DataType</text>
</a>
</g>
</g>
<!-- Vala.DataType&#45;&gt;Vala.CallableType -->
<g id="edge2" class="edge">
<title>Vala.DataType&#45;&gt;Vala.CallableType</title>
<path fill="none" stroke="#000000" d="M67,-133.5726C67,-125.1084 67,-116.0593 67,-108.4133"/>
<polygon fill="#000000" stroke="#000000" points="63.5001,-133.8313 67,-143.8314 70.5001,-133.8314 63.5001,-133.8313"/>
</g>
<!-- Vala.CodeNode -->
<g id="node4" class="node">
<title>Vala.CodeNode</title>
<g id="a_node4"><a xlink:href="Vala.CodeNode.html" xlink:title="Vala.CodeNode">
<polygon fill="none" stroke="#000000" stroke-width="2" points="123.5,-252 10.5,-252 10.5,-216 123.5,-216 123.5,-252"/>
<text text-anchor="middle" x="67" y="-230.3" font-family="Times" font-size="14.00" fill="#000000">Vala.CodeNode</text>
</a>
</g>
</g>
<!-- Vala.CodeNode&#45;&gt;Vala.DataType -->
<g id="edge3" class="edge">
<title>Vala.CodeNode&#45;&gt;Vala.DataType</title>
<path fill="none" stroke="#000000" d="M67,-205.5726C67,-197.1084 67,-188.0593 67,-180.4133"/>
<polygon fill="#000000" stroke="#000000" points="63.5001,-205.8313 67,-215.8314 70.5001,-205.8314 63.5001,-205.8313"/>
</g>
</g>
</svg>
