<?xml version="1.0" encoding="UTF-8" standalone="no"?>
<!DOCTYPE svg PUBLIC "-//W3C//DTD SVG 1.1//EN"
 "http://www.w3.org/Graphics/SVG/1.1/DTD/svg11.dtd">
<!-- Generated by graphviz version 2.42.3 (0)
 -->
<!-- Title: Vala.ArrayCreationExpression Pages: 1 -->
<svg width="192pt" height="188pt"
 viewBox="0.00 0.00 192.00 188.00" xmlns="http://www.w3.org/2000/svg" xmlns:xlink="http://www.w3.org/1999/xlink">
<g id="graph0" class="graph" transform="scale(1 1) rotate(0) translate(4 184)">
<title>Vala.ArrayCreationExpression</title>
<polygon fill="white" stroke="transparent" points="-4,4 -4,-184 188,-184 188,4 -4,4"/>
<!-- Vala.ArrayCreationExpression -->
<g id="node1" class="node">
<title>Vala.ArrayCreationExpression</title>
<g id="a_node1"><a xlink:href="Vala.ArrayCreationExpression.html" xlink:title="Vala.ArrayCreationExpression">
<polygon fill="none" stroke="black" stroke-width="2" points="184,-36 0,-36 0,0 184,0 184,-36"/>
<text text-anchor="middle" x="92" y="-14.3" font-family="Times" font-size="14.00">Vala.ArrayCreationExpression</text>
</a>
</g>
</g>
<!-- Vala.Expression -->
<g id="node2" class="node">
<title>Vala.Expression</title>
<g id="a_node2"><a xlink:href="Vala.Expression.html" xlink:title="Vala.Expression">
<polygon fill="none" stroke="black" stroke-width="2" points="144.5,-108 39.5,-108 39.5,-72 144.5,-72 144.5,-108"/>
<text text-anchor="middle" x="92" y="-86.3" font-family="Times" font-size="14.00">Vala.Expression</text>
</a>
</g>
</g>
<!-- Vala.Expression&#45;&gt;Vala.ArrayCreationExpression -->
<g id="edge1" class="edge">
<title>Vala.Expression&#45;&gt;Vala.ArrayCreationExpression</title>
<path fill="none" stroke="black" d="M92,-61.67C92,-53.05 92,-43.79 92,-36.1"/>
<polygon fill="black" stroke="black" points="88.5,-61.7 92,-71.7 95.5,-61.7 88.5,-61.7"/>
</g>
<!-- Vala.CodeNode -->
<g id="node3" class="node">
<title>Vala.CodeNode</title>
<g id="a_node3"><a xlink:href="Vala.CodeNode.html" xlink:title="Vala.CodeNode">
<polygon fill="none" stroke="black" stroke-width="2" points="143.5,-180 40.5,-180 40.5,-144 143.5,-144 143.5,-180"/>
<text text-anchor="middle" x="92" y="-158.3" font-family="Times" font-size="14.00">Vala.CodeNode</text>
</a>
</g>
</g>
<!-- Vala.CodeNode&#45;&gt;Vala.Expression -->
<g id="edge2" class="edge">
<title>Vala.CodeNode&#45;&gt;Vala.Expression</title>
<path fill="none" stroke="black" d="M92,-133.67C92,-125.05 92,-115.79 92,-108.1"/>
<polygon fill="black" stroke="black" points="88.5,-133.7 92,-143.7 95.5,-133.7 88.5,-133.7"/>
</g>
</g>
</svg>
