<?xml version="1.0" encoding="UTF-8" standalone="no"?>
<!DOCTYPE svg PUBLIC "-//W3C//DTD SVG 1.1//EN"
 "http://www.w3.org/Graphics/SVG/1.1/DTD/svg11.dtd">
<!-- Generated by graphviz version 2.42.3 (0)
 -->
<!-- Title: Vala.ExpressionStatement Pages: 1 -->
<svg width="230pt" height="116pt"
 viewBox="0.00 0.00 229.50 116.00" xmlns="http://www.w3.org/2000/svg" xmlns:xlink="http://www.w3.org/1999/xlink">
<g id="graph0" class="graph" transform="scale(1 1) rotate(0) translate(4 112)">
<title>Vala.ExpressionStatement</title>
<polygon fill="white" stroke="transparent" points="-4,4 -4,-112 225.5,-112 225.5,4 -4,4"/>
<!-- Vala.ExpressionStatement -->
<g id="node1" class="node">
<title>Vala.ExpressionStatement</title>
<g id="a_node1"><a xlink:href="Vala.ExpressionStatement.html" xlink:title="Vala.ExpressionStatement">
<polygon fill="none" stroke="black" stroke-width="2" points="191.5,-36 31.5,-36 31.5,0 191.5,0 191.5,-36"/>
<text text-anchor="middle" x="111.5" y="-14.3" font-family="Times" font-size="14.00">Vala.ExpressionStatement</text>
</a>
</g>
</g>
<!-- Vala.CodeNode -->
<g id="node2" class="node">
<title>Vala.CodeNode</title>
<g id="a_node2"><a xlink:href="Vala.CodeNode.html" xlink:title="Vala.CodeNode">
<polygon fill="none" stroke="black" stroke-width="2" points="103,-108 0,-108 0,-72 103,-72 103,-108"/>
<text text-anchor="middle" x="51.5" y="-86.3" font-family="Times" font-size="14.00">Vala.CodeNode</text>
</a>
</g>
</g>
<!-- Vala.CodeNode&#45;&gt;Vala.ExpressionStatement -->
<g id="edge1" class="edge">
<title>Vala.CodeNode&#45;&gt;Vala.ExpressionStatement</title>
<path fill="none" stroke="black" d="M73,-63.92C80.9,-54.69 89.67,-44.47 96.84,-36.1"/>
<polygon fill="black" stroke="black" points="70.18,-61.83 66.33,-71.7 75.5,-66.38 70.18,-61.83"/>
</g>
<!-- Vala.Statement -->
<g id="node3" class="node">
<title>Vala.Statement</title>
<g id="a_node3"><a xlink:href="Vala.Statement.html" xlink:title="Vala.Statement">
<polygon fill="none" stroke="black" points="221.5,-108 121.5,-108 121.5,-72 221.5,-72 221.5,-108"/>
<text text-anchor="middle" x="171.5" y="-86.3" font-family="Times" font-size="14.00">Vala.Statement</text>
</a>
</g>
</g>
<!-- Vala.Statement&#45;&gt;Vala.ExpressionStatement -->
<g id="edge2" class="edge">
<title>Vala.Statement&#45;&gt;Vala.ExpressionStatement</title>
<path fill="none" stroke="black" d="M150,-63.92C142.1,-54.69 133.33,-44.47 126.16,-36.1"/>
<polygon fill="black" stroke="black" points="147.5,-66.38 156.67,-71.7 152.82,-61.83 147.5,-66.38"/>
</g>
</g>
</svg>
