<?xml version="1.0" encoding="UTF-8" standalone="no"?>
<!DOCTYPE svg PUBLIC "-//W3C//DTD SVG 1.1//EN"
 "http://www.w3.org/Graphics/SVG/1.1/DTD/svg11.dtd">
<!-- Generated by graphviz version 2.40.1 (20161225.0304)
 -->
<!-- Title: Vala.Method Pages: 1 -->
<svg width="220pt" height="260pt"
 viewBox="0.00 0.00 219.50 260.00" xmlns="http://www.w3.org/2000/svg" xmlns:xlink="http://www.w3.org/1999/xlink">
<g id="graph0" class="graph" transform="scale(1 1) rotate(0) translate(4 256)">
<title>Vala.Method</title>
<polygon fill="#ffffff" stroke="transparent" points="-4,4 -4,-256 215.5,-256 215.5,4 -4,4"/>
<!-- Vala.Method -->
<g id="node1" class="node">
<title>Vala.Method</title>
<g id="a_node1"><a xlink:href="Vala.Method.html" xlink:title="Vala.Method">
<polygon fill="none" stroke="#000000" stroke-width="2" points="152.5,-36 65.5,-36 65.5,0 152.5,0 152.5,-36"/>
<text text-anchor="middle" x="109" y="-14.3" font-family="Times" font-size="14.00" fill="#000000">Vala.Method</text>
</a>
</g>
</g>
<!-- Vala.Subroutine -->
<g id="node2" class="node">
<title>Vala.Subroutine</title>
<g id="a_node2"><a xlink:href="Vala.Subroutine.html" xlink:title="Vala.Subroutine">
<polygon fill="none" stroke="#000000" stroke-width="2" points="104,-108 0,-108 0,-72 104,-72 104,-108"/>
<text text-anchor="middle" x="52" y="-86.3" font-family="Times" font-size="14.00" fill="#000000">Vala.Subroutine</text>
</a>
</g>
</g>
<!-- Vala.Subroutine&#45;&gt;Vala.Method -->
<g id="edge1" class="edge">
<title>Vala.Subroutine&#45;&gt;Vala.Method</title>
<path fill="none" stroke="#000000" d="M72.7303,-63.8144C79.9235,-54.7282 87.8317,-44.7389 94.4228,-36.4133"/>
<polygon fill="#000000" stroke="#000000" points="69.8464,-61.8184 66.3835,-71.8314 75.3347,-66.1634 69.8464,-61.8184"/>
</g>
<!-- Vala.Symbol -->
<g id="node3" class="node">
<title>Vala.Symbol</title>
<g id="a_node3"><a xlink:href="Vala.Symbol.html" xlink:title="Vala.Symbol">
<polygon fill="none" stroke="#000000" stroke-width="2" points="95.5,-180 8.5,-180 8.5,-144 95.5,-144 95.5,-180"/>
<text text-anchor="middle" x="52" y="-158.3" font-family="Times" font-size="14.00" fill="#000000">Vala.Symbol</text>
</a>
</g>
</g>
<!-- Vala.Symbol&#45;&gt;Vala.Subroutine -->
<g id="edge2" class="edge">
<title>Vala.Symbol&#45;&gt;Vala.Subroutine</title>
<path fill="none" stroke="#000000" d="M52,-133.5726C52,-125.1084 52,-116.0593 52,-108.4133"/>
<polygon fill="#000000" stroke="#000000" points="48.5001,-133.8313 52,-143.8314 55.5001,-133.8314 48.5001,-133.8313"/>
</g>
<!-- Vala.CodeNode -->
<g id="node4" class="node">
<title>Vala.CodeNode</title>
<g id="a_node4"><a xlink:href="Vala.CodeNode.html" xlink:title="Vala.CodeNode">
<polygon fill="none" stroke="#000000" stroke-width="2" points="103,-252 1,-252 1,-216 103,-216 103,-252"/>
<text text-anchor="middle" x="52" y="-230.3" font-family="Times" font-size="14.00" fill="#000000">Vala.CodeNode</text>
</a>
</g>
</g>
<!-- Vala.CodeNode&#45;&gt;Vala.Symbol -->
<g id="edge3" class="edge">
<title>Vala.CodeNode&#45;&gt;Vala.Symbol</title>
<path fill="none" stroke="#000000" d="M52,-205.5726C52,-197.1084 52,-188.0593 52,-180.4133"/>
<polygon fill="#000000" stroke="#000000" points="48.5001,-205.8313 52,-215.8314 55.5001,-205.8314 48.5001,-205.8313"/>
</g>
<!-- Vala.Callable -->
<g id="node5" class="node">
<title>Vala.Callable</title>
<g id="a_node5"><a xlink:href="Vala.Callable.html" xlink:title="Vala.Callable">
<polygon fill="none" stroke="#000000" points="211.5,-108 122.5,-108 122.5,-72 211.5,-72 211.5,-108"/>
<text text-anchor="middle" x="167" y="-86.3" font-family="Times" font-size="14.00" fill="#000000">Vala.Callable</text>
</a>
</g>
</g>
<!-- Vala.Callable&#45;&gt;Vala.Method -->
<g id="edge4" class="edge">
<title>Vala.Callable&#45;&gt;Vala.Method</title>
<path fill="none" stroke="#000000" d="M145.9061,-63.8144C138.5866,-54.7282 130.5397,-44.7389 123.8329,-36.4133"/>
<polygon fill="#000000" stroke="#000000" points="143.3652,-66.2395 152.3642,-71.8314 148.8165,-61.8481 143.3652,-66.2395"/>
</g>
</g>
</svg>
