<?xml version="1.0" encoding="UTF-8" standalone="no"?>
<!DOCTYPE svg PUBLIC "-//W3C//DTD SVG 1.1//EN"
 "http://www.w3.org/Graphics/SVG/1.1/DTD/svg11.dtd">
<!-- Generated by graphviz version 2.40.1 (0)
 -->
<!-- Title: Vala.UnresolvedSymbol Pages: 1 -->
<svg width="158pt" height="188pt"
 viewBox="0.00 0.00 158.00 188.00" xmlns="http://www.w3.org/2000/svg" xmlns:xlink="http://www.w3.org/1999/xlink">
<g id="graph0" class="graph" transform="scale(1 1) rotate(0) translate(4 184)">
<title>Vala.UnresolvedSymbol</title>
<polygon fill="#ffffff" stroke="transparent" points="-4,4 -4,-184 154,-184 154,4 -4,4"/>
<!-- Vala.UnresolvedSymbol -->
<g id="node1" class="node">
<title>Vala.UnresolvedSymbol</title>
<g id="a_node1"><a xlink:href="Vala.UnresolvedSymbol.html" xlink:title="Vala.UnresolvedSymbol">
<polygon fill="none" stroke="#000000" stroke-width="2" points="150,-36 0,-36 0,0 150,0 150,-36"/>
<text text-anchor="middle" x="75" y="-14.3" font-family="Times" font-size="14.00" fill="#000000">Vala.UnresolvedSymbol</text>
</a>
</g>
</g>
<!-- Vala.Symbol -->
<g id="node2" class="node">
<title>Vala.Symbol</title>
<g id="a_node2"><a xlink:href="Vala.Symbol.html" xlink:title="Vala.Symbol">
<polygon fill="none" stroke="#000000" stroke-width="2" points="119,-108 31,-108 31,-72 119,-72 119,-108"/>
<text text-anchor="middle" x="75" y="-86.3" font-family="Times" font-size="14.00" fill="#000000">Vala.Symbol</text>
</a>
</g>
</g>
<!-- Vala.Symbol&#45;&gt;Vala.UnresolvedSymbol -->
<g id="edge1" class="edge">
<title>Vala.Symbol&#45;&gt;Vala.UnresolvedSymbol</title>
<path fill="none" stroke="#000000" d="M75,-61.5726C75,-53.1084 75,-44.0593 75,-36.4133"/>
<polygon fill="#000000" stroke="#000000" points="71.5001,-61.8313 75,-71.8314 78.5001,-61.8314 71.5001,-61.8313"/>
</g>
<!-- Vala.CodeNode -->
<g id="node3" class="node">
<title>Vala.CodeNode</title>
<g id="a_node3"><a xlink:href="Vala.CodeNode.html" xlink:title="Vala.CodeNode">
<polygon fill="none" stroke="#000000" stroke-width="2" points="126.5,-180 23.5,-180 23.5,-144 126.5,-144 126.5,-180"/>
<text text-anchor="middle" x="75" y="-158.3" font-family="Times" font-size="14.00" fill="#000000">Vala.CodeNode</text>
</a>
</g>
</g>
<!-- Vala.CodeNode&#45;&gt;Vala.Symbol -->
<g id="edge2" class="edge">
<title>Vala.CodeNode&#45;&gt;Vala.Symbol</title>
<path fill="none" stroke="#000000" d="M75,-133.5726C75,-125.1084 75,-116.0593 75,-108.4133"/>
<polygon fill="#000000" stroke="#000000" points="71.5001,-133.8313 75,-143.8314 78.5001,-133.8314 71.5001,-133.8313"/>
</g>
</g>
</svg>
