<?xml version="1.0" encoding="UTF-8" standalone="no"?>
<!DOCTYPE svg PUBLIC "-//W3C//DTD SVG 1.1//EN"
 "http://www.w3.org/Graphics/SVG/1.1/DTD/svg11.dtd">
<!-- Generated by graphviz version 2.40.1 (20161225.0304)
 -->
<!-- Title: Vala.NamedArgument Pages: 1 -->
<svg width="148pt" height="188pt"
 viewBox="0.00 0.00 148.00 188.00" xmlns="http://www.w3.org/2000/svg" xmlns:xlink="http://www.w3.org/1999/xlink">
<g id="graph0" class="graph" transform="scale(1 1) rotate(0) translate(4 184)">
<title>Vala.NamedArgument</title>
<polygon fill="#ffffff" stroke="transparent" points="-4,4 -4,-184 144,-184 144,4 -4,4"/>
<!-- Vala.NamedArgument -->
<g id="node1" class="node">
<title>Vala.NamedArgument</title>
<g id="a_node1"><a xlink:href="Vala.NamedArgument.html" xlink:title="Vala.NamedArgument">
<polygon fill="none" stroke="#000000" stroke-width="2" points="140,-36 0,-36 0,0 140,0 140,-36"/>
<text text-anchor="middle" x="70" y="-14.3" font-family="Times" font-size="14.00" fill="#000000">Vala.NamedArgument</text>
</a>
</g>
</g>
<!-- Vala.Expression -->
<g id="node2" class="node">
<title>Vala.Expression</title>
<g id="a_node2"><a xlink:href="Vala.Expression.html" xlink:title="Vala.Expression">
<polygon fill="none" stroke="#000000" stroke-width="2" points="122,-108 18,-108 18,-72 122,-72 122,-108"/>
<text text-anchor="middle" x="70" y="-86.3" font-family="Times" font-size="14.00" fill="#000000">Vala.Expression</text>
</a>
</g>
</g>
<!-- Vala.Expression&#45;&gt;Vala.NamedArgument -->
<g id="edge1" class="edge">
<title>Vala.Expression&#45;&gt;Vala.NamedArgument</title>
<path fill="none" stroke="#000000" d="M70,-61.5726C70,-53.1084 70,-44.0593 70,-36.4133"/>
<polygon fill="#000000" stroke="#000000" points="66.5001,-61.8313 70,-71.8314 73.5001,-61.8314 66.5001,-61.8313"/>
</g>
<!-- Vala.CodeNode -->
<g id="node3" class="node">
<title>Vala.CodeNode</title>
<g id="a_node3"><a xlink:href="Vala.CodeNode.html" xlink:title="Vala.CodeNode">
<polygon fill="none" stroke="#000000" stroke-width="2" points="121,-180 19,-180 19,-144 121,-144 121,-180"/>
<text text-anchor="middle" x="70" y="-158.3" font-family="Times" font-size="14.00" fill="#000000">Vala.CodeNode</text>
</a>
</g>
</g>
<!-- Vala.CodeNode&#45;&gt;Vala.Expression -->
<g id="edge2" class="edge">
<title>Vala.CodeNode&#45;&gt;Vala.Expression</title>
<path fill="none" stroke="#000000" d="M70,-133.5726C70,-125.1084 70,-116.0593 70,-108.4133"/>
<polygon fill="#000000" stroke="#000000" points="66.5001,-133.8313 70,-143.8314 73.5001,-133.8314 66.5001,-133.8313"/>
</g>
</g>
</svg>
