<?xml version="1.0" encoding="UTF-8" standalone="no"?>
<!DOCTYPE svg PUBLIC "-//W3C//DTD SVG 1.1//EN"
 "http://www.w3.org/Graphics/SVG/1.1/DTD/svg11.dtd">
<!-- Generated by graphviz version 2.40.1 (20161225.0304)
 -->
<!-- Title: Vala.ForeachStatement Pages: 1 -->
<svg width="220pt" height="260pt"
 viewBox="0.00 0.00 219.50 260.00" xmlns="http://www.w3.org/2000/svg" xmlns:xlink="http://www.w3.org/1999/xlink">
<g id="graph0" class="graph" transform="scale(1 1) rotate(0) translate(4 256)">
<title>Vala.ForeachStatement</title>
<polygon fill="#ffffff" stroke="transparent" points="-4,4 -4,-256 215.5,-256 215.5,4 -4,4"/>
<!-- Vala.ForeachStatement -->
<g id="node1" class="node">
<title>Vala.ForeachStatement</title>
<g id="a_node1"><a xlink:href="Vala.ForeachStatement.html" xlink:title="Vala.ForeachStatement">
<polygon fill="none" stroke="#000000" stroke-width="2" points="177.5,-36 34.5,-36 34.5,0 177.5,0 177.5,-36"/>
<text text-anchor="middle" x="106" y="-14.3" font-family="Times" font-size="14.00" fill="#000000">Vala.ForeachStatement</text>
</a>
</g>
</g>
<!-- Vala.Block -->
<g id="node2" class="node">
<title>Vala.Block</title>
<g id="a_node2"><a xlink:href="Vala.Block.html" xlink:title="Vala.Block">
<polygon fill="none" stroke="#000000" stroke-width="2" points="144.5,-108 67.5,-108 67.5,-72 144.5,-72 144.5,-108"/>
<text text-anchor="middle" x="106" y="-86.3" font-family="Times" font-size="14.00" fill="#000000">Vala.Block</text>
</a>
</g>
</g>
<!-- Vala.Block&#45;&gt;Vala.ForeachStatement -->
<g id="edge1" class="edge">
<title>Vala.Block&#45;&gt;Vala.ForeachStatement</title>
<path fill="none" stroke="#000000" d="M106,-61.5726C106,-53.1084 106,-44.0593 106,-36.4133"/>
<polygon fill="#000000" stroke="#000000" points="102.5001,-61.8313 106,-71.8314 109.5001,-61.8314 102.5001,-61.8313"/>
</g>
<!-- Vala.Symbol -->
<g id="node3" class="node">
<title>Vala.Symbol</title>
<g id="a_node3"><a xlink:href="Vala.Symbol.html" xlink:title="Vala.Symbol">
<polygon fill="none" stroke="#000000" stroke-width="2" points="94.5,-180 7.5,-180 7.5,-144 94.5,-144 94.5,-180"/>
<text text-anchor="middle" x="51" y="-158.3" font-family="Times" font-size="14.00" fill="#000000">Vala.Symbol</text>
</a>
</g>
</g>
<!-- Vala.Symbol&#45;&gt;Vala.Block -->
<g id="edge2" class="edge">
<title>Vala.Symbol&#45;&gt;Vala.Block</title>
<path fill="none" stroke="#000000" d="M71.0029,-135.8144C77.9437,-126.7282 85.5744,-116.7389 91.9343,-108.4133"/>
<polygon fill="#000000" stroke="#000000" points="68.1679,-133.76 64.8788,-143.8314 73.7306,-138.0093 68.1679,-133.76"/>
</g>
<!-- Vala.CodeNode -->
<g id="node4" class="node">
<title>Vala.CodeNode</title>
<g id="a_node4"><a xlink:href="Vala.CodeNode.html" xlink:title="Vala.CodeNode">
<polygon fill="none" stroke="#000000" stroke-width="2" points="102,-252 0,-252 0,-216 102,-216 102,-252"/>
<text text-anchor="middle" x="51" y="-230.3" font-family="Times" font-size="14.00" fill="#000000">Vala.CodeNode</text>
</a>
</g>
</g>
<!-- Vala.CodeNode&#45;&gt;Vala.Symbol -->
<g id="edge3" class="edge">
<title>Vala.CodeNode&#45;&gt;Vala.Symbol</title>
<path fill="none" stroke="#000000" d="M51,-205.5726C51,-197.1084 51,-188.0593 51,-180.4133"/>
<polygon fill="#000000" stroke="#000000" points="47.5001,-205.8313 51,-215.8314 54.5001,-205.8314 47.5001,-205.8313"/>
</g>
<!-- Vala.Statement -->
<g id="node5" class="node">
<title>Vala.Statement</title>
<g id="a_node5"><a xlink:href="Vala.Statement.html" xlink:title="Vala.Statement">
<polygon fill="none" stroke="#000000" points="211.5,-180 112.5,-180 112.5,-144 211.5,-144 211.5,-180"/>
<text text-anchor="middle" x="162" y="-158.3" font-family="Times" font-size="14.00" fill="#000000">Vala.Statement</text>
</a>
</g>
</g>
<!-- Vala.Statement&#45;&gt;Vala.Block -->
<g id="edge4" class="edge">
<title>Vala.Statement&#45;&gt;Vala.Block</title>
<path fill="none" stroke="#000000" d="M141.6334,-135.8144C134.5664,-126.7282 126.7969,-116.7389 120.3214,-108.4133"/>
<polygon fill="#000000" stroke="#000000" points="138.9667,-138.0866 147.8688,-143.8314 144.4921,-133.789 138.9667,-138.0866"/>
</g>
</g>
</svg>
