<?xml version="1.0" encoding="UTF-8" standalone="no"?>
<!DOCTYPE svg PUBLIC "-//W3C//DTD SVG 1.1//EN"
 "http://www.w3.org/Graphics/SVG/1.1/DTD/svg11.dtd">
<!-- Generated by graphviz version 2.42.3 (0)
 -->
<!-- Title: Vala.ObjectTypeSymbol Pages: 1 -->
<svg width="158pt" height="260pt"
 viewBox="0.00 0.00 158.00 260.00" xmlns="http://www.w3.org/2000/svg" xmlns:xlink="http://www.w3.org/1999/xlink">
<g id="graph0" class="graph" transform="scale(1 1) rotate(0) translate(4 256)">
<title>Vala.ObjectTypeSymbol</title>
<polygon fill="white" stroke="transparent" points="-4,4 -4,-256 154,-256 154,4 -4,4"/>
<!-- Vala.ObjectTypeSymbol -->
<g id="node1" class="node">
<title>Vala.ObjectTypeSymbol</title>
<g id="a_node1"><a xlink:href="Vala.ObjectTypeSymbol.html" xlink:title="Vala.ObjectTypeSymbol">
<polygon fill="none" stroke="black" stroke-width="2" points="150,-36 0,-36 0,0 150,0 150,-36"/>
<text text-anchor="middle" x="75" y="-14.3" font-family="Times" font-size="14.00">Vala.ObjectTypeSymbol</text>
</a>
</g>
</g>
<!-- Vala.TypeSymbol -->
<g id="node2" class="node">
<title>Vala.TypeSymbol</title>
<g id="a_node2"><a xlink:href="Vala.TypeSymbol.html" xlink:title="Vala.TypeSymbol">
<polygon fill="none" stroke="black" stroke-width="2" points="132,-108 18,-108 18,-72 132,-72 132,-108"/>
<text text-anchor="middle" x="75" y="-86.3" font-family="Times" font-size="14.00">Vala.TypeSymbol</text>
</a>
</g>
</g>
<!-- Vala.TypeSymbol&#45;&gt;Vala.ObjectTypeSymbol -->
<g id="edge1" class="edge">
<title>Vala.TypeSymbol&#45;&gt;Vala.ObjectTypeSymbol</title>
<path fill="none" stroke="black" d="M75,-61.67C75,-53.05 75,-43.79 75,-36.1"/>
<polygon fill="black" stroke="black" points="71.5,-61.7 75,-71.7 78.5,-61.7 71.5,-61.7"/>
</g>
<!-- Vala.Symbol -->
<g id="node3" class="node">
<title>Vala.Symbol</title>
<g id="a_node3"><a xlink:href="Vala.Symbol.html" xlink:title="Vala.Symbol">
<polygon fill="none" stroke="black" stroke-width="2" points="119,-180 31,-180 31,-144 119,-144 119,-180"/>
<text text-anchor="middle" x="75" y="-158.3" font-family="Times" font-size="14.00">Vala.Symbol</text>
</a>
</g>
</g>
<!-- Vala.Symbol&#45;&gt;Vala.TypeSymbol -->
<g id="edge2" class="edge">
<title>Vala.Symbol&#45;&gt;Vala.TypeSymbol</title>
<path fill="none" stroke="black" d="M75,-133.67C75,-125.05 75,-115.79 75,-108.1"/>
<polygon fill="black" stroke="black" points="71.5,-133.7 75,-143.7 78.5,-133.7 71.5,-133.7"/>
</g>
<!-- Vala.CodeNode -->
<g id="node4" class="node">
<title>Vala.CodeNode</title>
<g id="a_node4"><a xlink:href="Vala.CodeNode.html" xlink:title="Vala.CodeNode">
<polygon fill="none" stroke="black" stroke-width="2" points="126.5,-252 23.5,-252 23.5,-216 126.5,-216 126.5,-252"/>
<text text-anchor="middle" x="75" y="-230.3" font-family="Times" font-size="14.00">Vala.CodeNode</text>
</a>
</g>
</g>
<!-- Vala.CodeNode&#45;&gt;Vala.Symbol -->
<g id="edge3" class="edge">
<title>Vala.CodeNode&#45;&gt;Vala.Symbol</title>
<path fill="none" stroke="black" d="M75,-205.67C75,-197.05 75,-187.79 75,-180.1"/>
<polygon fill="black" stroke="black" points="71.5,-205.7 75,-215.7 78.5,-205.7 71.5,-205.7"/>
</g>
</g>
</svg>
