<?xml version="1.0" encoding="UTF-8" standalone="no"?>
<!DOCTYPE svg PUBLIC "-//W3C//DTD SVG 1.1//EN"
 "http://www.w3.org/Graphics/SVG/1.1/DTD/svg11.dtd">
<!-- Generated by graphviz version 2.42.3 (0)
 -->
<!-- Title: Vala.IntegerLiteral Pages: 1 -->
<svg width="127pt" height="260pt"
 viewBox="0.00 0.00 127.00 260.00" xmlns="http://www.w3.org/2000/svg" xmlns:xlink="http://www.w3.org/1999/xlink">
<g id="graph0" class="graph" transform="scale(1 1) rotate(0) translate(4 256)">
<title>Vala.IntegerLiteral</title>
<polygon fill="white" stroke="transparent" points="-4,4 -4,-256 123,-256 123,4 -4,4"/>
<!-- Vala.IntegerLiteral -->
<g id="node1" class="node">
<title>Vala.IntegerLiteral</title>
<g id="a_node1"><a xlink:href="Vala.IntegerLiteral.html" xlink:title="Vala.IntegerLiteral">
<polygon fill="none" stroke="black" stroke-width="2" points="119,-36 0,-36 0,0 119,0 119,-36"/>
<text text-anchor="middle" x="59.5" y="-14.3" font-family="Times" font-size="14.00">Vala.IntegerLiteral</text>
</a>
</g>
</g>
<!-- Vala.Literal -->
<g id="node2" class="node">
<title>Vala.Literal</title>
<g id="a_node2"><a xlink:href="Vala.Literal.html" xlink:title="Vala.Literal">
<polygon fill="none" stroke="black" stroke-width="2" points="100,-108 19,-108 19,-72 100,-72 100,-108"/>
<text text-anchor="middle" x="59.5" y="-86.3" font-family="Times" font-size="14.00">Vala.Literal</text>
</a>
</g>
</g>
<!-- Vala.Literal&#45;&gt;Vala.IntegerLiteral -->
<g id="edge1" class="edge">
<title>Vala.Literal&#45;&gt;Vala.IntegerLiteral</title>
<path fill="none" stroke="black" d="M59.5,-61.67C59.5,-53.05 59.5,-43.79 59.5,-36.1"/>
<polygon fill="black" stroke="black" points="56,-61.7 59.5,-71.7 63,-61.7 56,-61.7"/>
</g>
<!-- Vala.Expression -->
<g id="node3" class="node">
<title>Vala.Expression</title>
<g id="a_node3"><a xlink:href="Vala.Expression.html" xlink:title="Vala.Expression">
<polygon fill="none" stroke="black" stroke-width="2" points="112,-180 7,-180 7,-144 112,-144 112,-180"/>
<text text-anchor="middle" x="59.5" y="-158.3" font-family="Times" font-size="14.00">Vala.Expression</text>
</a>
</g>
</g>
<!-- Vala.Expression&#45;&gt;Vala.Literal -->
<g id="edge2" class="edge">
<title>Vala.Expression&#45;&gt;Vala.Literal</title>
<path fill="none" stroke="black" d="M59.5,-133.67C59.5,-125.05 59.5,-115.79 59.5,-108.1"/>
<polygon fill="black" stroke="black" points="56,-133.7 59.5,-143.7 63,-133.7 56,-133.7"/>
</g>
<!-- Vala.CodeNode -->
<g id="node4" class="node">
<title>Vala.CodeNode</title>
<g id="a_node4"><a xlink:href="Vala.CodeNode.html" xlink:title="Vala.CodeNode">
<polygon fill="none" stroke="black" stroke-width="2" points="111,-252 8,-252 8,-216 111,-216 111,-252"/>
<text text-anchor="middle" x="59.5" y="-230.3" font-family="Times" font-size="14.00">Vala.CodeNode</text>
</a>
</g>
</g>
<!-- Vala.CodeNode&#45;&gt;Vala.Expression -->
<g id="edge3" class="edge">
<title>Vala.CodeNode&#45;&gt;Vala.Expression</title>
<path fill="none" stroke="black" d="M59.5,-205.67C59.5,-197.05 59.5,-187.79 59.5,-180.1"/>
<polygon fill="black" stroke="black" points="56,-205.7 59.5,-215.7 63,-205.7 56,-205.7"/>
</g>
</g>
</svg>
