<?xml version="1.0" encoding="UTF-8" standalone="no"?>
<!DOCTYPE svg PUBLIC "-//W3C//DTD SVG 1.1//EN"
 "http://www.w3.org/Graphics/SVG/1.1/DTD/svg11.dtd">
<!-- Generated by graphviz version 2.42.3 (0)
 -->
<!-- Title: Vala.ObjectType Pages: 1 -->
<svg width="134pt" height="260pt"
 viewBox="0.00 0.00 134.00 260.00" xmlns="http://www.w3.org/2000/svg" xmlns:xlink="http://www.w3.org/1999/xlink">
<g id="graph0" class="graph" transform="scale(1 1) rotate(0) translate(4 256)">
<title>Vala.ObjectType</title>
<polygon fill="white" stroke="transparent" points="-4,4 -4,-256 130,-256 130,4 -4,4"/>
<!-- Vala.ObjectType -->
<g id="node1" class="node">
<title>Vala.ObjectType</title>
<g id="a_node1"><a xlink:href="Vala.ObjectType.html" xlink:title="Vala.ObjectType">
<polygon fill="none" stroke="black" stroke-width="2" points="116.5,-36 9.5,-36 9.5,0 116.5,0 116.5,-36"/>
<text text-anchor="middle" x="63" y="-14.3" font-family="Times" font-size="14.00">Vala.ObjectType</text>
</a>
</g>
</g>
<!-- Vala.ReferenceType -->
<g id="node2" class="node">
<title>Vala.ReferenceType</title>
<g id="a_node2"><a xlink:href="Vala.ReferenceType.html" xlink:title="Vala.ReferenceType">
<polygon fill="none" stroke="black" stroke-width="2" points="126,-108 0,-108 0,-72 126,-72 126,-108"/>
<text text-anchor="middle" x="63" y="-86.3" font-family="Times" font-size="14.00">Vala.ReferenceType</text>
</a>
</g>
</g>
<!-- Vala.ReferenceType&#45;&gt;Vala.ObjectType -->
<g id="edge1" class="edge">
<title>Vala.ReferenceType&#45;&gt;Vala.ObjectType</title>
<path fill="none" stroke="black" d="M63,-61.67C63,-53.05 63,-43.79 63,-36.1"/>
<polygon fill="black" stroke="black" points="59.5,-61.7 63,-71.7 66.5,-61.7 59.5,-61.7"/>
</g>
<!-- Vala.DataType -->
<g id="node3" class="node">
<title>Vala.DataType</title>
<g id="a_node3"><a xlink:href="Vala.DataType.html" xlink:title="Vala.DataType">
<polygon fill="none" stroke="black" stroke-width="2" points="111.5,-180 14.5,-180 14.5,-144 111.5,-144 111.5,-180"/>
<text text-anchor="middle" x="63" y="-158.3" font-family="Times" font-size="14.00">Vala.DataType</text>
</a>
</g>
</g>
<!-- Vala.DataType&#45;&gt;Vala.ReferenceType -->
<g id="edge2" class="edge">
<title>Vala.DataType&#45;&gt;Vala.ReferenceType</title>
<path fill="none" stroke="black" d="M63,-133.67C63,-125.05 63,-115.79 63,-108.1"/>
<polygon fill="black" stroke="black" points="59.5,-133.7 63,-143.7 66.5,-133.7 59.5,-133.7"/>
</g>
<!-- Vala.CodeNode -->
<g id="node4" class="node">
<title>Vala.CodeNode</title>
<g id="a_node4"><a xlink:href="Vala.CodeNode.html" xlink:title="Vala.CodeNode">
<polygon fill="none" stroke="black" stroke-width="2" points="114.5,-252 11.5,-252 11.5,-216 114.5,-216 114.5,-252"/>
<text text-anchor="middle" x="63" y="-230.3" font-family="Times" font-size="14.00">Vala.CodeNode</text>
</a>
</g>
</g>
<!-- Vala.CodeNode&#45;&gt;Vala.DataType -->
<g id="edge3" class="edge">
<title>Vala.CodeNode&#45;&gt;Vala.DataType</title>
<path fill="none" stroke="black" d="M63,-205.67C63,-197.05 63,-187.79 63,-180.1"/>
<polygon fill="black" stroke="black" points="59.5,-205.7 63,-215.7 66.5,-205.7 59.5,-205.7"/>
</g>
</g>
</svg>
