<?xml version="1.0" encoding="UTF-8" standalone="no"?>
<!DOCTYPE svg PUBLIC "-//W3C//DTD SVG 1.1//EN"
 "http://www.w3.org/Graphics/SVG/1.1/DTD/svg11.dtd">
<!-- Generated by graphviz version 2.42.3 (0)
 -->
<!-- Title: Vala.LocalVariable Pages: 1 -->
<svg width="131pt" height="260pt"
 viewBox="0.00 0.00 131.00 260.00" xmlns="http://www.w3.org/2000/svg" xmlns:xlink="http://www.w3.org/1999/xlink">
<g id="graph0" class="graph" transform="scale(1 1) rotate(0) translate(4 256)">
<title>Vala.LocalVariable</title>
<polygon fill="white" stroke="transparent" points="-4,4 -4,-256 127,-256 127,4 -4,4"/>
<!-- Vala.LocalVariable -->
<g id="node1" class="node">
<title>Vala.LocalVariable</title>
<g id="a_node1"><a xlink:href="Vala.LocalVariable.html" xlink:title="Vala.LocalVariable">
<polygon fill="none" stroke="black" stroke-width="2" points="123,-36 0,-36 0,0 123,0 123,-36"/>
<text text-anchor="middle" x="61.5" y="-14.3" font-family="Times" font-size="14.00">Vala.LocalVariable</text>
</a>
</g>
</g>
<!-- Vala.Variable -->
<g id="node2" class="node">
<title>Vala.Variable</title>
<g id="a_node2"><a xlink:href="Vala.Variable.html" xlink:title="Vala.Variable">
<polygon fill="none" stroke="black" stroke-width="2" points="107.5,-108 15.5,-108 15.5,-72 107.5,-72 107.5,-108"/>
<text text-anchor="middle" x="61.5" y="-86.3" font-family="Times" font-size="14.00">Vala.Variable</text>
</a>
</g>
</g>
<!-- Vala.Variable&#45;&gt;Vala.LocalVariable -->
<g id="edge1" class="edge">
<title>Vala.Variable&#45;&gt;Vala.LocalVariable</title>
<path fill="none" stroke="black" d="M61.5,-61.67C61.5,-53.05 61.5,-43.79 61.5,-36.1"/>
<polygon fill="black" stroke="black" points="58,-61.7 61.5,-71.7 65,-61.7 58,-61.7"/>
</g>
<!-- Vala.Symbol -->
<g id="node3" class="node">
<title>Vala.Symbol</title>
<g id="a_node3"><a xlink:href="Vala.Symbol.html" xlink:title="Vala.Symbol">
<polygon fill="none" stroke="black" stroke-width="2" points="105.5,-180 17.5,-180 17.5,-144 105.5,-144 105.5,-180"/>
<text text-anchor="middle" x="61.5" y="-158.3" font-family="Times" font-size="14.00">Vala.Symbol</text>
</a>
</g>
</g>
<!-- Vala.Symbol&#45;&gt;Vala.Variable -->
<g id="edge2" class="edge">
<title>Vala.Symbol&#45;&gt;Vala.Variable</title>
<path fill="none" stroke="black" d="M61.5,-133.67C61.5,-125.05 61.5,-115.79 61.5,-108.1"/>
<polygon fill="black" stroke="black" points="58,-133.7 61.5,-143.7 65,-133.7 58,-133.7"/>
</g>
<!-- Vala.CodeNode -->
<g id="node4" class="node">
<title>Vala.CodeNode</title>
<g id="a_node4"><a xlink:href="Vala.CodeNode.html" xlink:title="Vala.CodeNode">
<polygon fill="none" stroke="black" stroke-width="2" points="113,-252 10,-252 10,-216 113,-216 113,-252"/>
<text text-anchor="middle" x="61.5" y="-230.3" font-family="Times" font-size="14.00">Vala.CodeNode</text>
</a>
</g>
</g>
<!-- Vala.CodeNode&#45;&gt;Vala.Symbol -->
<g id="edge3" class="edge">
<title>Vala.CodeNode&#45;&gt;Vala.Symbol</title>
<path fill="none" stroke="black" d="M61.5,-205.67C61.5,-197.05 61.5,-187.79 61.5,-180.1"/>
<polygon fill="black" stroke="black" points="58,-205.7 61.5,-215.7 65,-205.7 58,-205.7"/>
</g>
</g>
</svg>
