<?xml version="1.0" encoding="UTF-8" standalone="no"?>
<!DOCTYPE svg PUBLIC "-//W3C//DTD SVG 1.1//EN"
 "http://www.w3.org/Graphics/SVG/1.1/DTD/svg11.dtd">
<!-- Generated by graphviz version 2.40.1 (20161225.0304)
 -->
<!-- Title: Vala.TypeSymbol Pages: 1 -->
<svg width="132pt" height="188pt"
 viewBox="0.00 0.00 132.00 188.00" xmlns="http://www.w3.org/2000/svg" xmlns:xlink="http://www.w3.org/1999/xlink">
<g id="graph0" class="graph" transform="scale(1 1) rotate(0) translate(4 184)">
<title>Vala.TypeSymbol</title>
<polygon fill="#ffffff" stroke="transparent" points="-4,4 -4,-184 128,-184 128,4 -4,4"/>
<!-- Vala.TypeSymbol -->
<g id="node1" class="node">
<title>Vala.TypeSymbol</title>
<g id="a_node1"><a xlink:href="Vala.TypeSymbol.html" xlink:title="Vala.TypeSymbol">
<polygon fill="none" stroke="#000000" stroke-width="2" points="124,-36 0,-36 0,0 124,0 124,-36"/>
<text text-anchor="middle" x="62" y="-14.3" font-family="Times" font-size="14.00" fill="#000000">Vala.TypeSymbol</text>
</a>
</g>
</g>
<!-- Vala.Symbol -->
<g id="node2" class="node">
<title>Vala.Symbol</title>
<g id="a_node2"><a xlink:href="Vala.Symbol.html" xlink:title="Vala.Symbol">
<polygon fill="none" stroke="#000000" stroke-width="2" points="109.5,-108 14.5,-108 14.5,-72 109.5,-72 109.5,-108"/>
<text text-anchor="middle" x="62" y="-86.3" font-family="Times" font-size="14.00" fill="#000000">Vala.Symbol</text>
</a>
</g>
</g>
<!-- Vala.Symbol&#45;&gt;Vala.TypeSymbol -->
<g id="edge1" class="edge">
<title>Vala.Symbol&#45;&gt;Vala.TypeSymbol</title>
<path fill="none" stroke="#000000" d="M62,-61.5726C62,-53.1084 62,-44.0593 62,-36.4133"/>
<polygon fill="#000000" stroke="#000000" points="58.5001,-61.8313 62,-71.8314 65.5001,-61.8314 58.5001,-61.8313"/>
</g>
<!-- Vala.CodeNode -->
<g id="node3" class="node">
<title>Vala.CodeNode</title>
<g id="a_node3"><a xlink:href="Vala.CodeNode.html" xlink:title="Vala.CodeNode">
<polygon fill="none" stroke="#000000" stroke-width="2" points="118.5,-180 5.5,-180 5.5,-144 118.5,-144 118.5,-180"/>
<text text-anchor="middle" x="62" y="-158.3" font-family="Times" font-size="14.00" fill="#000000">Vala.CodeNode</text>
</a>
</g>
</g>
<!-- Vala.CodeNode&#45;&gt;Vala.Symbol -->
<g id="edge2" class="edge">
<title>Vala.CodeNode&#45;&gt;Vala.Symbol</title>
<path fill="none" stroke="#000000" d="M62,-133.5726C62,-125.1084 62,-116.0593 62,-108.4133"/>
<polygon fill="#000000" stroke="#000000" points="58.5001,-133.8313 62,-143.8314 65.5001,-133.8314 58.5001,-133.8313"/>
</g>
</g>
</svg>
