<?xml version="1.0" encoding="UTF-8" standalone="no"?>
<!DOCTYPE svg PUBLIC "-//W3C//DTD SVG 1.1//EN"
 "http://www.w3.org/Graphics/SVG/1.1/DTD/svg11.dtd">
<!-- Generated by graphviz version 2.42.3 (0)
 -->
<!-- Title: Vala.FieldPrototype Pages: 1 -->
<svg width="133pt" height="188pt"
 viewBox="0.00 0.00 133.00 188.00" xmlns="http://www.w3.org/2000/svg" xmlns:xlink="http://www.w3.org/1999/xlink">
<g id="graph0" class="graph" transform="scale(1 1) rotate(0) translate(4 184)">
<title>Vala.FieldPrototype</title>
<polygon fill="white" stroke="transparent" points="-4,4 -4,-184 129,-184 129,4 -4,4"/>
<!-- Vala.FieldPrototype -->
<g id="node1" class="node">
<title>Vala.FieldPrototype</title>
<g id="a_node1"><a xlink:href="Vala.FieldPrototype.html" xlink:title="Vala.FieldPrototype">
<polygon fill="none" stroke="black" stroke-width="2" points="125,-36 0,-36 0,0 125,0 125,-36"/>
<text text-anchor="middle" x="62.5" y="-14.3" font-family="Times" font-size="14.00">Vala.FieldPrototype</text>
</a>
</g>
</g>
<!-- Vala.DataType -->
<g id="node2" class="node">
<title>Vala.DataType</title>
<g id="a_node2"><a xlink:href="Vala.DataType.html" xlink:title="Vala.DataType">
<polygon fill="none" stroke="black" stroke-width="2" points="111,-108 14,-108 14,-72 111,-72 111,-108"/>
<text text-anchor="middle" x="62.5" y="-86.3" font-family="Times" font-size="14.00">Vala.DataType</text>
</a>
</g>
</g>
<!-- Vala.DataType&#45;&gt;Vala.FieldPrototype -->
<g id="edge1" class="edge">
<title>Vala.DataType&#45;&gt;Vala.FieldPrototype</title>
<path fill="none" stroke="black" d="M62.5,-61.67C62.5,-53.05 62.5,-43.79 62.5,-36.1"/>
<polygon fill="black" stroke="black" points="59,-61.7 62.5,-71.7 66,-61.7 59,-61.7"/>
</g>
<!-- Vala.CodeNode -->
<g id="node3" class="node">
<title>Vala.CodeNode</title>
<g id="a_node3"><a xlink:href="Vala.CodeNode.html" xlink:title="Vala.CodeNode">
<polygon fill="none" stroke="black" stroke-width="2" points="114,-180 11,-180 11,-144 114,-144 114,-180"/>
<text text-anchor="middle" x="62.5" y="-158.3" font-family="Times" font-size="14.00">Vala.CodeNode</text>
</a>
</g>
</g>
<!-- Vala.CodeNode&#45;&gt;Vala.DataType -->
<g id="edge2" class="edge">
<title>Vala.CodeNode&#45;&gt;Vala.DataType</title>
<path fill="none" stroke="black" d="M62.5,-133.67C62.5,-125.05 62.5,-115.79 62.5,-108.1"/>
<polygon fill="black" stroke="black" points="59,-133.7 62.5,-143.7 66,-133.7 59,-133.7"/>
</g>
</g>
</svg>
