<?xml version="1.0" encoding="UTF-8" standalone="no"?>
<!DOCTYPE svg PUBLIC "-//W3C//DTD SVG 1.1//EN"
 "http://www.w3.org/Graphics/SVG/1.1/DTD/svg11.dtd">
<!-- Generated by graphviz version 2.42.3 (0)
 -->
<!-- Title: Vala.TypeCheck Pages: 1 -->
<svg width="114pt" height="188pt"
 viewBox="0.00 0.00 114.00 188.00" xmlns="http://www.w3.org/2000/svg" xmlns:xlink="http://www.w3.org/1999/xlink">
<g id="graph0" class="graph" transform="scale(1 1) rotate(0) translate(4 184)">
<title>Vala.TypeCheck</title>
<polygon fill="white" stroke="transparent" points="-4,4 -4,-184 110,-184 110,4 -4,4"/>
<!-- Vala.TypeCheck -->
<g id="node1" class="node">
<title>Vala.TypeCheck</title>
<g id="a_node1"><a xlink:href="Vala.TypeCheck.html" xlink:title="Vala.TypeCheck">
<polygon fill="none" stroke="black" stroke-width="2" points="106,-36 0,-36 0,0 106,0 106,-36"/>
<text text-anchor="middle" x="53" y="-14.3" font-family="Times" font-size="14.00">Vala.TypeCheck</text>
</a>
</g>
</g>
<!-- Vala.Expression -->
<g id="node2" class="node">
<title>Vala.Expression</title>
<g id="a_node2"><a xlink:href="Vala.Expression.html" xlink:title="Vala.Expression">
<polygon fill="none" stroke="black" stroke-width="2" points="105.5,-108 0.5,-108 0.5,-72 105.5,-72 105.5,-108"/>
<text text-anchor="middle" x="53" y="-86.3" font-family="Times" font-size="14.00">Vala.Expression</text>
</a>
</g>
</g>
<!-- Vala.Expression&#45;&gt;Vala.TypeCheck -->
<g id="edge1" class="edge">
<title>Vala.Expression&#45;&gt;Vala.TypeCheck</title>
<path fill="none" stroke="black" d="M53,-61.67C53,-53.05 53,-43.79 53,-36.1"/>
<polygon fill="black" stroke="black" points="49.5,-61.7 53,-71.7 56.5,-61.7 49.5,-61.7"/>
</g>
<!-- Vala.CodeNode -->
<g id="node3" class="node">
<title>Vala.CodeNode</title>
<g id="a_node3"><a xlink:href="Vala.CodeNode.html" xlink:title="Vala.CodeNode">
<polygon fill="none" stroke="black" stroke-width="2" points="104.5,-180 1.5,-180 1.5,-144 104.5,-144 104.5,-180"/>
<text text-anchor="middle" x="53" y="-158.3" font-family="Times" font-size="14.00">Vala.CodeNode</text>
</a>
</g>
</g>
<!-- Vala.CodeNode&#45;&gt;Vala.Expression -->
<g id="edge2" class="edge">
<title>Vala.CodeNode&#45;&gt;Vala.Expression</title>
<path fill="none" stroke="black" d="M53,-133.67C53,-125.05 53,-115.79 53,-108.1"/>
<polygon fill="black" stroke="black" points="49.5,-133.7 53,-143.7 56.5,-133.7 49.5,-133.7"/>
</g>
</g>
</svg>
