<?xml version="1.0" encoding="UTF-8" standalone="no"?>
<!DOCTYPE svg PUBLIC "-//W3C//DTD SVG 1.1//EN"
 "http://www.w3.org/Graphics/SVG/1.1/DTD/svg11.dtd">
<!-- Generated by graphviz version 2.42.3 (0)
 -->
<!-- Title: Vala.LambdaExpression Pages: 1 -->
<svg width="158pt" height="188pt"
 viewBox="0.00 0.00 158.00 188.00" xmlns="http://www.w3.org/2000/svg" xmlns:xlink="http://www.w3.org/1999/xlink">
<g id="graph0" class="graph" transform="scale(1 1) rotate(0) translate(4 184)">
<title>Vala.LambdaExpression</title>
<polygon fill="white" stroke="transparent" points="-4,4 -4,-184 154,-184 154,4 -4,4"/>
<!-- Vala.LambdaExpression -->
<g id="node1" class="node">
<title>Vala.LambdaExpression</title>
<g id="a_node1"><a xlink:href="Vala.LambdaExpression.html" xlink:title="Vala.LambdaExpression">
<polygon fill="none" stroke="black" stroke-width="2" points="150,-36 0,-36 0,0 150,0 150,-36"/>
<text text-anchor="middle" x="75" y="-14.3" font-family="Times" font-size="14.00">Vala.LambdaExpression</text>
</a>
</g>
</g>
<!-- Vala.Expression -->
<g id="node2" class="node">
<title>Vala.Expression</title>
<g id="a_node2"><a xlink:href="Vala.Expression.html" xlink:title="Vala.Expression">
<polygon fill="none" stroke="black" stroke-width="2" points="127.5,-108 22.5,-108 22.5,-72 127.5,-72 127.5,-108"/>
<text text-anchor="middle" x="75" y="-86.3" font-family="Times" font-size="14.00">Vala.Expression</text>
</a>
</g>
</g>
<!-- Vala.Expression&#45;&gt;Vala.LambdaExpression -->
<g id="edge1" class="edge">
<title>Vala.Expression&#45;&gt;Vala.LambdaExpression</title>
<path fill="none" stroke="black" d="M75,-61.67C75,-53.05 75,-43.79 75,-36.1"/>
<polygon fill="black" stroke="black" points="71.5,-61.7 75,-71.7 78.5,-61.7 71.5,-61.7"/>
</g>
<!-- Vala.CodeNode -->
<g id="node3" class="node">
<title>Vala.CodeNode</title>
<g id="a_node3"><a xlink:href="Vala.CodeNode.html" xlink:title="Vala.CodeNode">
<polygon fill="none" stroke="black" stroke-width="2" points="126.5,-180 23.5,-180 23.5,-144 126.5,-144 126.5,-180"/>
<text text-anchor="middle" x="75" y="-158.3" font-family="Times" font-size="14.00">Vala.CodeNode</text>
</a>
</g>
</g>
<!-- Vala.CodeNode&#45;&gt;Vala.Expression -->
<g id="edge2" class="edge">
<title>Vala.CodeNode&#45;&gt;Vala.Expression</title>
<path fill="none" stroke="black" d="M75,-133.67C75,-125.05 75,-115.79 75,-108.1"/>
<polygon fill="black" stroke="black" points="71.5,-133.7 75,-143.7 78.5,-133.7 71.5,-133.7"/>
</g>
</g>
</svg>
