<?xml version="1.0" encoding="UTF-8" standalone="no"?>
<!DOCTYPE svg PUBLIC "-//W3C//DTD SVG 1.1//EN"
 "http://www.w3.org/Graphics/SVG/1.1/DTD/svg11.dtd">
<!-- Generated by graphviz version 2.42.3 (0)
 -->
<!-- Title: Vala.Field Pages: 1 -->
<svg width="220pt" height="260pt"
 viewBox="0.00 0.00 219.50 260.00" xmlns="http://www.w3.org/2000/svg" xmlns:xlink="http://www.w3.org/1999/xlink">
<g id="graph0" class="graph" transform="scale(1 1) rotate(0) translate(4 256)">
<title>Vala.Field</title>
<polygon fill="white" stroke="transparent" points="-4,4 -4,-256 215.5,-256 215.5,4 -4,4"/>
<!-- Vala.Field -->
<g id="node1" class="node">
<title>Vala.Field</title>
<g id="a_node1"><a xlink:href="Vala.Field.html" xlink:title="Vala.Field">
<polygon fill="none" stroke="black" stroke-width="2" points="144,-36 71,-36 71,0 144,0 144,-36"/>
<text text-anchor="middle" x="107.5" y="-14.3" font-family="Times" font-size="14.00">Vala.Field</text>
</a>
</g>
</g>
<!-- Vala.Variable -->
<g id="node2" class="node">
<title>Vala.Variable</title>
<g id="a_node2"><a xlink:href="Vala.Variable.html" xlink:title="Vala.Variable">
<polygon fill="none" stroke="black" stroke-width="2" points="97.5,-108 5.5,-108 5.5,-72 97.5,-72 97.5,-108"/>
<text text-anchor="middle" x="51.5" y="-86.3" font-family="Times" font-size="14.00">Vala.Variable</text>
</a>
</g>
</g>
<!-- Vala.Variable&#45;&gt;Vala.Field -->
<g id="edge1" class="edge">
<title>Vala.Variable&#45;&gt;Vala.Field</title>
<path fill="none" stroke="black" d="M71.79,-63.64C79.11,-54.49 87.19,-44.38 93.82,-36.1"/>
<polygon fill="black" stroke="black" points="68.86,-61.7 65.34,-71.7 74.32,-66.07 68.86,-61.7"/>
</g>
<!-- Vala.Symbol -->
<g id="node3" class="node">
<title>Vala.Symbol</title>
<g id="a_node3"><a xlink:href="Vala.Symbol.html" xlink:title="Vala.Symbol">
<polygon fill="none" stroke="black" stroke-width="2" points="95.5,-180 7.5,-180 7.5,-144 95.5,-144 95.5,-180"/>
<text text-anchor="middle" x="51.5" y="-158.3" font-family="Times" font-size="14.00">Vala.Symbol</text>
</a>
</g>
</g>
<!-- Vala.Symbol&#45;&gt;Vala.Variable -->
<g id="edge2" class="edge">
<title>Vala.Symbol&#45;&gt;Vala.Variable</title>
<path fill="none" stroke="black" d="M51.5,-133.67C51.5,-125.05 51.5,-115.79 51.5,-108.1"/>
<polygon fill="black" stroke="black" points="48,-133.7 51.5,-143.7 55,-133.7 48,-133.7"/>
</g>
<!-- Vala.CodeNode -->
<g id="node4" class="node">
<title>Vala.CodeNode</title>
<g id="a_node4"><a xlink:href="Vala.CodeNode.html" xlink:title="Vala.CodeNode">
<polygon fill="none" stroke="black" stroke-width="2" points="103,-252 0,-252 0,-216 103,-216 103,-252"/>
<text text-anchor="middle" x="51.5" y="-230.3" font-family="Times" font-size="14.00">Vala.CodeNode</text>
</a>
</g>
</g>
<!-- Vala.CodeNode&#45;&gt;Vala.Symbol -->
<g id="edge3" class="edge">
<title>Vala.CodeNode&#45;&gt;Vala.Symbol</title>
<path fill="none" stroke="black" d="M51.5,-205.67C51.5,-197.05 51.5,-187.79 51.5,-180.1"/>
<polygon fill="black" stroke="black" points="48,-205.7 51.5,-215.7 55,-205.7 48,-205.7"/>
</g>
<!-- Vala.Lockable -->
<g id="node5" class="node">
<title>Vala.Lockable</title>
<g id="a_node5"><a xlink:href="Vala.Lockable.html" xlink:title="Vala.Lockable">
<polygon fill="none" stroke="black" points="211.5,-108 115.5,-108 115.5,-72 211.5,-72 211.5,-108"/>
<text text-anchor="middle" x="163.5" y="-86.3" font-family="Times" font-size="14.00">Vala.Lockable</text>
</a>
</g>
</g>
<!-- Vala.Lockable&#45;&gt;Vala.Field -->
<g id="edge4" class="edge">
<title>Vala.Lockable&#45;&gt;Vala.Field</title>
<path fill="none" stroke="black" d="M143.21,-63.64C135.89,-54.49 127.81,-44.38 121.18,-36.1"/>
<polygon fill="black" stroke="black" points="140.68,-66.07 149.66,-71.7 146.14,-61.7 140.68,-66.07"/>
</g>
</g>
</svg>
