<?xml version="1.0" encoding="UTF-8" standalone="no"?>
<!DOCTYPE svg PUBLIC "-//W3C//DTD SVG 1.1//EN"
 "http://www.w3.org/Graphics/SVG/1.1/DTD/svg11.dtd">
<!-- Generated by graphviz version 2.42.3 (0)
 -->
<!-- Title: Vala.PropertyPrototype Pages: 1 -->
<svg width="153pt" height="188pt"
 viewBox="0.00 0.00 153.00 188.00" xmlns="http://www.w3.org/2000/svg" xmlns:xlink="http://www.w3.org/1999/xlink">
<g id="graph0" class="graph" transform="scale(1 1) rotate(0) translate(4 184)">
<title>Vala.PropertyPrototype</title>
<polygon fill="white" stroke="transparent" points="-4,4 -4,-184 149,-184 149,4 -4,4"/>
<!-- Vala.PropertyPrototype -->
<g id="node1" class="node">
<title>Vala.PropertyPrototype</title>
<g id="a_node1"><a xlink:href="Vala.PropertyPrototype.html" xlink:title="Vala.PropertyPrototype">
<polygon fill="none" stroke="black" stroke-width="2" points="145,-36 0,-36 0,0 145,0 145,-36"/>
<text text-anchor="middle" x="72.5" y="-14.3" font-family="Times" font-size="14.00">Vala.PropertyPrototype</text>
</a>
</g>
</g>
<!-- Vala.DataType -->
<g id="node2" class="node">
<title>Vala.DataType</title>
<g id="a_node2"><a xlink:href="Vala.DataType.html" xlink:title="Vala.DataType">
<polygon fill="none" stroke="black" stroke-width="2" points="121,-108 24,-108 24,-72 121,-72 121,-108"/>
<text text-anchor="middle" x="72.5" y="-86.3" font-family="Times" font-size="14.00">Vala.DataType</text>
</a>
</g>
</g>
<!-- Vala.DataType&#45;&gt;Vala.PropertyPrototype -->
<g id="edge1" class="edge">
<title>Vala.DataType&#45;&gt;Vala.PropertyPrototype</title>
<path fill="none" stroke="black" d="M72.5,-61.67C72.5,-53.05 72.5,-43.79 72.5,-36.1"/>
<polygon fill="black" stroke="black" points="69,-61.7 72.5,-71.7 76,-61.7 69,-61.7"/>
</g>
<!-- Vala.CodeNode -->
<g id="node3" class="node">
<title>Vala.CodeNode</title>
<g id="a_node3"><a xlink:href="Vala.CodeNode.html" xlink:title="Vala.CodeNode">
<polygon fill="none" stroke="black" stroke-width="2" points="124,-180 21,-180 21,-144 124,-144 124,-180"/>
<text text-anchor="middle" x="72.5" y="-158.3" font-family="Times" font-size="14.00">Vala.CodeNode</text>
</a>
</g>
</g>
<!-- Vala.CodeNode&#45;&gt;Vala.DataType -->
<g id="edge2" class="edge">
<title>Vala.CodeNode&#45;&gt;Vala.DataType</title>
<path fill="none" stroke="black" d="M72.5,-133.67C72.5,-125.05 72.5,-115.79 72.5,-108.1"/>
<polygon fill="black" stroke="black" points="69,-133.7 72.5,-143.7 76,-133.7 69,-133.7"/>
</g>
</g>
</svg>
