<?xml version="1.0" encoding="UTF-8" standalone="no"?>
<!DOCTYPE svg PUBLIC "-//W3C//DTD SVG 1.1//EN"
 "http://www.w3.org/Graphics/SVG/1.1/DTD/svg11.dtd">
<!-- Generated by graphviz version 2.40.1 (20161225.0304)
 -->
<!-- Title: Vala.ArrayLengthField Pages: 1 -->
<svg width="236pt" height="332pt"
 viewBox="0.00 0.00 235.50 332.00" xmlns="http://www.w3.org/2000/svg" xmlns:xlink="http://www.w3.org/1999/xlink">
<g id="graph0" class="graph" transform="scale(1 1) rotate(0) translate(4 328)">
<title>Vala.ArrayLengthField</title>
<polygon fill="#ffffff" stroke="transparent" points="-4,4 -4,-328 231.5,-328 231.5,4 -4,4"/>
<!-- Vala.ArrayLengthField -->
<g id="node1" class="node">
<title>Vala.ArrayLengthField</title>
<g id="a_node1"><a xlink:href="Vala.ArrayLengthField.html" xlink:title="Vala.ArrayLengthField">
<polygon fill="none" stroke="#000000" stroke-width="2" points="194.5,-36 36.5,-36 36.5,0 194.5,0 194.5,-36"/>
<text text-anchor="middle" x="115.5" y="-14.3" font-family="Times" font-size="14.00" fill="#000000">Vala.ArrayLengthField</text>
</a>
</g>
</g>
<!-- Vala.Field -->
<g id="node2" class="node">
<title>Vala.Field</title>
<g id="a_node2"><a xlink:href="Vala.Field.html" xlink:title="Vala.Field">
<polygon fill="none" stroke="#000000" stroke-width="2" points="154,-108 77,-108 77,-72 154,-72 154,-108"/>
<text text-anchor="middle" x="115.5" y="-86.3" font-family="Times" font-size="14.00" fill="#000000">Vala.Field</text>
</a>
</g>
</g>
<!-- Vala.Field&#45;&gt;Vala.ArrayLengthField -->
<g id="edge1" class="edge">
<title>Vala.Field&#45;&gt;Vala.ArrayLengthField</title>
<path fill="none" stroke="#000000" d="M115.5,-61.5726C115.5,-53.1084 115.5,-44.0593 115.5,-36.4133"/>
<polygon fill="#000000" stroke="#000000" points="112.0001,-61.8313 115.5,-71.8314 119.0001,-61.8314 112.0001,-61.8313"/>
</g>
<!-- Vala.Variable -->
<g id="node3" class="node">
<title>Vala.Variable</title>
<g id="a_node3"><a xlink:href="Vala.Variable.html" xlink:title="Vala.Variable">
<polygon fill="none" stroke="#000000" stroke-width="2" points="105.5,-180 7.5,-180 7.5,-144 105.5,-144 105.5,-180"/>
<text text-anchor="middle" x="56.5" y="-158.3" font-family="Times" font-size="14.00" fill="#000000">Vala.Variable</text>
</a>
</g>
</g>
<!-- Vala.Variable&#45;&gt;Vala.Field -->
<g id="edge2" class="edge">
<title>Vala.Variable&#45;&gt;Vala.Field</title>
<path fill="none" stroke="#000000" d="M77.7299,-136.0923C85.2361,-126.9323 93.5193,-116.8239 100.4114,-108.4133"/>
<polygon fill="#000000" stroke="#000000" points="75.0193,-133.8782 71.3882,-143.8314 80.4336,-138.3149 75.0193,-133.8782"/>
</g>
<!-- Vala.Symbol -->
<g id="node4" class="node">
<title>Vala.Symbol</title>
<g id="a_node4"><a xlink:href="Vala.Symbol.html" xlink:title="Vala.Symbol">
<polygon fill="none" stroke="#000000" stroke-width="2" points="104,-252 9,-252 9,-216 104,-216 104,-252"/>
<text text-anchor="middle" x="56.5" y="-230.3" font-family="Times" font-size="14.00" fill="#000000">Vala.Symbol</text>
</a>
</g>
</g>
<!-- Vala.Symbol&#45;&gt;Vala.Variable -->
<g id="edge3" class="edge">
<title>Vala.Symbol&#45;&gt;Vala.Variable</title>
<path fill="none" stroke="#000000" d="M56.5,-205.5726C56.5,-197.1084 56.5,-188.0593 56.5,-180.4133"/>
<polygon fill="#000000" stroke="#000000" points="53.0001,-205.8313 56.5,-215.8314 60.0001,-205.8314 53.0001,-205.8313"/>
</g>
<!-- Vala.CodeNode -->
<g id="node5" class="node">
<title>Vala.CodeNode</title>
<g id="a_node5"><a xlink:href="Vala.CodeNode.html" xlink:title="Vala.CodeNode">
<polygon fill="none" stroke="#000000" stroke-width="2" points="113,-324 0,-324 0,-288 113,-288 113,-324"/>
<text text-anchor="middle" x="56.5" y="-302.3" font-family="Times" font-size="14.00" fill="#000000">Vala.CodeNode</text>
</a>
</g>
</g>
<!-- Vala.CodeNode&#45;&gt;Vala.Symbol -->
<g id="edge4" class="edge">
<title>Vala.CodeNode&#45;&gt;Vala.Symbol</title>
<path fill="none" stroke="#000000" d="M56.5,-277.5726C56.5,-269.1084 56.5,-260.0593 56.5,-252.4133"/>
<polygon fill="#000000" stroke="#000000" points="53.0001,-277.8313 56.5,-287.8314 60.0001,-277.8314 53.0001,-277.8313"/>
</g>
<!-- Vala.Lockable -->
<g id="node6" class="node">
<title>Vala.Lockable</title>
<g id="a_node6"><a xlink:href="Vala.Lockable.html" xlink:title="Vala.Lockable">
<polygon fill="none" stroke="#000000" points="227.5,-180 123.5,-180 123.5,-144 227.5,-144 227.5,-180"/>
<text text-anchor="middle" x="175.5" y="-158.3" font-family="Times" font-size="14.00" fill="#000000">Vala.Lockable</text>
</a>
</g>
</g>
<!-- Vala.Lockable&#45;&gt;Vala.Field -->
<g id="edge5" class="edge">
<title>Vala.Lockable&#45;&gt;Vala.Field</title>
<path fill="none" stroke="#000000" d="M153.9102,-136.0923C146.2769,-126.9323 137.8532,-116.8239 130.8444,-108.4133"/>
<polygon fill="#000000" stroke="#000000" points="151.2688,-138.3898 160.3595,-143.8314 156.6464,-133.9085 151.2688,-138.3898"/>
</g>
</g>
</svg>
