<?xml version="1.0" encoding="UTF-8" standalone="no"?>
<!DOCTYPE svg PUBLIC "-//W3C//DTD SVG 1.1//EN"
 "http://www.w3.org/Graphics/SVG/1.1/DTD/svg11.dtd">
<!-- Generated by graphviz version 2.40.1 (0)
 -->
<!-- Title: Vala.PointerIndirection Pages: 1 -->
<svg width="151pt" height="188pt"
 viewBox="0.00 0.00 151.00 188.00" xmlns="http://www.w3.org/2000/svg" xmlns:xlink="http://www.w3.org/1999/xlink">
<g id="graph0" class="graph" transform="scale(1 1) rotate(0) translate(4 184)">
<title>Vala.PointerIndirection</title>
<polygon fill="#ffffff" stroke="transparent" points="-4,4 -4,-184 147,-184 147,4 -4,4"/>
<!-- Vala.PointerIndirection -->
<g id="node1" class="node">
<title>Vala.PointerIndirection</title>
<g id="a_node1"><a xlink:href="Vala.PointerIndirection.html" xlink:title="Vala.PointerIndirection">
<polygon fill="none" stroke="#000000" stroke-width="2" points="143,-36 0,-36 0,0 143,0 143,-36"/>
<text text-anchor="middle" x="71.5" y="-14.3" font-family="Times" font-size="14.00" fill="#000000">Vala.PointerIndirection</text>
</a>
</g>
</g>
<!-- Vala.Expression -->
<g id="node2" class="node">
<title>Vala.Expression</title>
<g id="a_node2"><a xlink:href="Vala.Expression.html" xlink:title="Vala.Expression">
<polygon fill="none" stroke="#000000" stroke-width="2" points="124,-108 19,-108 19,-72 124,-72 124,-108"/>
<text text-anchor="middle" x="71.5" y="-86.3" font-family="Times" font-size="14.00" fill="#000000">Vala.Expression</text>
</a>
</g>
</g>
<!-- Vala.Expression&#45;&gt;Vala.PointerIndirection -->
<g id="edge1" class="edge">
<title>Vala.Expression&#45;&gt;Vala.PointerIndirection</title>
<path fill="none" stroke="#000000" d="M71.5,-61.5726C71.5,-53.1084 71.5,-44.0593 71.5,-36.4133"/>
<polygon fill="#000000" stroke="#000000" points="68.0001,-61.8313 71.5,-71.8314 75.0001,-61.8314 68.0001,-61.8313"/>
</g>
<!-- Vala.CodeNode -->
<g id="node3" class="node">
<title>Vala.CodeNode</title>
<g id="a_node3"><a xlink:href="Vala.CodeNode.html" xlink:title="Vala.CodeNode">
<polygon fill="none" stroke="#000000" stroke-width="2" points="123,-180 20,-180 20,-144 123,-144 123,-180"/>
<text text-anchor="middle" x="71.5" y="-158.3" font-family="Times" font-size="14.00" fill="#000000">Vala.CodeNode</text>
</a>
</g>
</g>
<!-- Vala.CodeNode&#45;&gt;Vala.Expression -->
<g id="edge2" class="edge">
<title>Vala.CodeNode&#45;&gt;Vala.Expression</title>
<path fill="none" stroke="#000000" d="M71.5,-133.5726C71.5,-125.1084 71.5,-116.0593 71.5,-108.4133"/>
<polygon fill="#000000" stroke="#000000" points="68.0001,-133.8313 71.5,-143.8314 75.0001,-133.8314 68.0001,-133.8313"/>
</g>
</g>
</svg>
