<?xml version="1.0" encoding="UTF-8" standalone="no"?>
<!DOCTYPE svg PUBLIC "-//W3C//DTD SVG 1.1//EN"
 "http://www.w3.org/Graphics/SVG/1.1/DTD/svg11.dtd">
<!-- Generated by graphviz version 2.40.1 (20161225.0304)
 -->
<!-- Title: Vala.DynamicSignal Pages: 1 -->
<svg width="323pt" height="260pt"
 viewBox="0.00 0.00 322.50 260.00" xmlns="http://www.w3.org/2000/svg" xmlns:xlink="http://www.w3.org/1999/xlink">
<g id="graph0" class="graph" transform="scale(1 1) rotate(0) translate(4 256)">
<title>Vala.DynamicSignal</title>
<polygon fill="#ffffff" stroke="transparent" points="-4,4 -4,-256 318.5,-256 318.5,4 -4,4"/>
<!-- Vala.DynamicSignal -->
<g id="node1" class="node">
<title>Vala.DynamicSignal</title>
<g id="a_node1"><a xlink:href="Vala.DynamicSignal.html" xlink:title="Vala.DynamicSignal">
<polygon fill="none" stroke="#000000" stroke-width="2" points="224,-36 96,-36 96,0 224,0 224,-36"/>
<text text-anchor="middle" x="160" y="-14.3" font-family="Times" font-size="14.00" fill="#000000">Vala.DynamicSignal</text>
</a>
</g>
</g>
<!-- Vala.Signal -->
<g id="node2" class="node">
<title>Vala.Signal</title>
<g id="a_node2"><a xlink:href="Vala.Signal.html" xlink:title="Vala.Signal">
<polygon fill="none" stroke="#000000" stroke-width="2" points="199,-108 121,-108 121,-72 199,-72 199,-108"/>
<text text-anchor="middle" x="160" y="-86.3" font-family="Times" font-size="14.00" fill="#000000">Vala.Signal</text>
</a>
</g>
</g>
<!-- Vala.Signal&#45;&gt;Vala.DynamicSignal -->
<g id="edge1" class="edge">
<title>Vala.Signal&#45;&gt;Vala.DynamicSignal</title>
<path fill="none" stroke="#000000" d="M160,-61.5726C160,-53.1084 160,-44.0593 160,-36.4133"/>
<polygon fill="#000000" stroke="#000000" points="156.5001,-61.8313 160,-71.8314 163.5001,-61.8314 156.5001,-61.8313"/>
</g>
<!-- Vala.Symbol -->
<g id="node3" class="node">
<title>Vala.Symbol</title>
<g id="a_node3"><a xlink:href="Vala.Symbol.html" xlink:title="Vala.Symbol">
<polygon fill="none" stroke="#000000" stroke-width="2" points="94.5,-180 7.5,-180 7.5,-144 94.5,-144 94.5,-180"/>
<text text-anchor="middle" x="51" y="-158.3" font-family="Times" font-size="14.00" fill="#000000">Vala.Symbol</text>
</a>
</g>
</g>
<!-- Vala.Symbol&#45;&gt;Vala.Signal -->
<g id="edge2" class="edge">
<title>Vala.Symbol&#45;&gt;Vala.Signal</title>
<path fill="none" stroke="#000000" d="M86.9565,-138.2489C101.7847,-128.4541 118.6921,-117.2859 132.5035,-108.1628"/>
<polygon fill="#000000" stroke="#000000" points="84.9202,-135.3993 78.5053,-143.8314 88.7784,-141.2401 84.9202,-135.3993"/>
</g>
<!-- Vala.CodeNode -->
<g id="node4" class="node">
<title>Vala.CodeNode</title>
<g id="a_node4"><a xlink:href="Vala.CodeNode.html" xlink:title="Vala.CodeNode">
<polygon fill="none" stroke="#000000" stroke-width="2" points="102,-252 0,-252 0,-216 102,-216 102,-252"/>
<text text-anchor="middle" x="51" y="-230.3" font-family="Times" font-size="14.00" fill="#000000">Vala.CodeNode</text>
</a>
</g>
</g>
<!-- Vala.CodeNode&#45;&gt;Vala.Symbol -->
<g id="edge3" class="edge">
<title>Vala.CodeNode&#45;&gt;Vala.Symbol</title>
<path fill="none" stroke="#000000" d="M51,-205.5726C51,-197.1084 51,-188.0593 51,-180.4133"/>
<polygon fill="#000000" stroke="#000000" points="47.5001,-205.8313 51,-215.8314 54.5001,-205.8314 47.5001,-205.8313"/>
</g>
<!-- Vala.Lockable -->
<g id="node5" class="node">
<title>Vala.Lockable</title>
<g id="a_node5"><a xlink:href="Vala.Lockable.html" xlink:title="Vala.Lockable">
<polygon fill="none" stroke="#000000" points="207.5,-180 112.5,-180 112.5,-144 207.5,-144 207.5,-180"/>
<text text-anchor="middle" x="160" y="-158.3" font-family="Times" font-size="14.00" fill="#000000">Vala.Lockable</text>
</a>
</g>
</g>
<!-- Vala.Lockable&#45;&gt;Vala.Signal -->
<g id="edge4" class="edge">
<title>Vala.Lockable&#45;&gt;Vala.Signal</title>
<path fill="none" stroke="#000000" d="M160,-133.5726C160,-125.1084 160,-116.0593 160,-108.4133"/>
<polygon fill="#000000" stroke="#000000" points="156.5001,-133.8313 160,-143.8314 163.5001,-133.8314 156.5001,-133.8313"/>
</g>
<!-- Vala.Callable -->
<g id="node6" class="node">
<title>Vala.Callable</title>
<g id="a_node6"><a xlink:href="Vala.Callable.html" xlink:title="Vala.Callable">
<polygon fill="none" stroke="#000000" points="314.5,-180 225.5,-180 225.5,-144 314.5,-144 314.5,-180"/>
<text text-anchor="middle" x="270" y="-158.3" font-family="Times" font-size="14.00" fill="#000000">Vala.Callable</text>
</a>
</g>
</g>
<!-- Vala.Callable&#45;&gt;Vala.Signal -->
<g id="edge5" class="edge">
<title>Vala.Callable&#45;&gt;Vala.Signal</title>
<path fill="none" stroke="#000000" d="M233.7136,-138.2489C218.7494,-128.4541 201.6868,-117.2859 187.7488,-108.1628"/>
<polygon fill="#000000" stroke="#000000" points="231.9585,-141.2832 242.2424,-143.8314 235.7921,-135.4263 231.9585,-141.2832"/>
</g>
</g>
</svg>
