<?xml version="1.0" encoding="UTF-8" standalone="no"?>
<!DOCTYPE svg PUBLIC "-//W3C//DTD SVG 1.1//EN"
 "http://www.w3.org/Graphics/SVG/1.1/DTD/svg11.dtd">
<!-- Generated by graphviz version 2.40.1 (20161225.0304)
 -->
<!-- Title: Vala.Constant Pages: 1 -->
<svg width="216pt" height="188pt"
 viewBox="0.00 0.00 215.50 188.00" xmlns="http://www.w3.org/2000/svg" xmlns:xlink="http://www.w3.org/1999/xlink">
<g id="graph0" class="graph" transform="scale(1 1) rotate(0) translate(4 184)">
<title>Vala.Constant</title>
<polygon fill="#ffffff" stroke="transparent" points="-4,4 -4,-184 211.5,-184 211.5,4 -4,4"/>
<!-- Vala.Constant -->
<g id="node1" class="node">
<title>Vala.Constant</title>
<g id="a_node1"><a xlink:href="Vala.Constant.html" xlink:title="Vala.Constant">
<polygon fill="none" stroke="#000000" stroke-width="2" points="151,-36 59,-36 59,0 151,0 151,-36"/>
<text text-anchor="middle" x="105" y="-14.3" font-family="Times" font-size="14.00" fill="#000000">Vala.Constant</text>
</a>
</g>
</g>
<!-- Vala.Symbol -->
<g id="node2" class="node">
<title>Vala.Symbol</title>
<g id="a_node2"><a xlink:href="Vala.Symbol.html" xlink:title="Vala.Symbol">
<polygon fill="none" stroke="#000000" stroke-width="2" points="94.5,-108 7.5,-108 7.5,-72 94.5,-72 94.5,-108"/>
<text text-anchor="middle" x="51" y="-86.3" font-family="Times" font-size="14.00" fill="#000000">Vala.Symbol</text>
</a>
</g>
</g>
<!-- Vala.Symbol&#45;&gt;Vala.Constant -->
<g id="edge1" class="edge">
<title>Vala.Symbol&#45;&gt;Vala.Constant</title>
<path fill="none" stroke="#000000" d="M70.6392,-63.8144C77.4538,-54.7282 84.9458,-44.7389 91.19,-36.4133"/>
<polygon fill="#000000" stroke="#000000" points="67.8265,-61.7313 64.6265,-71.8314 73.4265,-65.9314 67.8265,-61.7313"/>
</g>
<!-- Vala.CodeNode -->
<g id="node3" class="node">
<title>Vala.CodeNode</title>
<g id="a_node3"><a xlink:href="Vala.CodeNode.html" xlink:title="Vala.CodeNode">
<polygon fill="none" stroke="#000000" stroke-width="2" points="102,-180 0,-180 0,-144 102,-144 102,-180"/>
<text text-anchor="middle" x="51" y="-158.3" font-family="Times" font-size="14.00" fill="#000000">Vala.CodeNode</text>
</a>
</g>
</g>
<!-- Vala.CodeNode&#45;&gt;Vala.Symbol -->
<g id="edge2" class="edge">
<title>Vala.CodeNode&#45;&gt;Vala.Symbol</title>
<path fill="none" stroke="#000000" d="M51,-133.5726C51,-125.1084 51,-116.0593 51,-108.4133"/>
<polygon fill="#000000" stroke="#000000" points="47.5001,-133.8313 51,-143.8314 54.5001,-133.8314 47.5001,-133.8313"/>
</g>
<!-- Vala.Lockable -->
<g id="node4" class="node">
<title>Vala.Lockable</title>
<g id="a_node4"><a xlink:href="Vala.Lockable.html" xlink:title="Vala.Lockable">
<polygon fill="none" stroke="#000000" points="207.5,-108 112.5,-108 112.5,-72 207.5,-72 207.5,-108"/>
<text text-anchor="middle" x="160" y="-86.3" font-family="Times" font-size="14.00" fill="#000000">Vala.Lockable</text>
</a>
</g>
</g>
<!-- Vala.Lockable&#45;&gt;Vala.Constant -->
<g id="edge3" class="edge">
<title>Vala.Lockable&#45;&gt;Vala.Constant</title>
<path fill="none" stroke="#000000" d="M139.9971,-63.8144C133.0563,-54.7282 125.4256,-44.7389 119.0657,-36.4133"/>
<polygon fill="#000000" stroke="#000000" points="137.2694,-66.0093 146.1212,-71.8314 142.8321,-61.76 137.2694,-66.0093"/>
</g>
</g>
</svg>
