<?xml version="1.0" encoding="UTF-8" standalone="no"?>
<!DOCTYPE svg PUBLIC "-//W3C//DTD SVG 1.1//EN"
 "http://www.w3.org/Graphics/SVG/1.1/DTD/svg11.dtd">
<!-- Generated by graphviz version 2.40.1 (20161225.0304)
 -->
<!-- Title: Vala.IntegerLiteral Pages: 1 -->
<svg width="126pt" height="260pt"
 viewBox="0.00 0.00 126.00 260.00" xmlns="http://www.w3.org/2000/svg" xmlns:xlink="http://www.w3.org/1999/xlink">
<g id="graph0" class="graph" transform="scale(1 1) rotate(0) translate(4 256)">
<title>Vala.IntegerLiteral</title>
<polygon fill="#ffffff" stroke="transparent" points="-4,4 -4,-256 122,-256 122,4 -4,4"/>
<!-- Vala.IntegerLiteral -->
<g id="node1" class="node">
<title>Vala.IntegerLiteral</title>
<g id="a_node1"><a xlink:href="Vala.IntegerLiteral.html" xlink:title="Vala.IntegerLiteral">
<polygon fill="none" stroke="#000000" stroke-width="2" points="118,-36 0,-36 0,0 118,0 118,-36"/>
<text text-anchor="middle" x="59" y="-14.3" font-family="Times" font-size="14.00" fill="#000000">Vala.IntegerLiteral</text>
</a>
</g>
</g>
<!-- Vala.Literal -->
<g id="node2" class="node">
<title>Vala.Literal</title>
<g id="a_node2"><a xlink:href="Vala.Literal.html" xlink:title="Vala.Literal">
<polygon fill="none" stroke="#000000" stroke-width="2" points="99,-108 19,-108 19,-72 99,-72 99,-108"/>
<text text-anchor="middle" x="59" y="-86.3" font-family="Times" font-size="14.00" fill="#000000">Vala.Literal</text>
</a>
</g>
</g>
<!-- Vala.Literal&#45;&gt;Vala.IntegerLiteral -->
<g id="edge1" class="edge">
<title>Vala.Literal&#45;&gt;Vala.IntegerLiteral</title>
<path fill="none" stroke="#000000" d="M59,-61.5726C59,-53.1084 59,-44.0593 59,-36.4133"/>
<polygon fill="#000000" stroke="#000000" points="55.5001,-61.8313 59,-71.8314 62.5001,-61.8314 55.5001,-61.8313"/>
</g>
<!-- Vala.Expression -->
<g id="node3" class="node">
<title>Vala.Expression</title>
<g id="a_node3"><a xlink:href="Vala.Expression.html" xlink:title="Vala.Expression">
<polygon fill="none" stroke="#000000" stroke-width="2" points="111,-180 7,-180 7,-144 111,-144 111,-180"/>
<text text-anchor="middle" x="59" y="-158.3" font-family="Times" font-size="14.00" fill="#000000">Vala.Expression</text>
</a>
</g>
</g>
<!-- Vala.Expression&#45;&gt;Vala.Literal -->
<g id="edge2" class="edge">
<title>Vala.Expression&#45;&gt;Vala.Literal</title>
<path fill="none" stroke="#000000" d="M59,-133.5726C59,-125.1084 59,-116.0593 59,-108.4133"/>
<polygon fill="#000000" stroke="#000000" points="55.5001,-133.8313 59,-143.8314 62.5001,-133.8314 55.5001,-133.8313"/>
</g>
<!-- Vala.CodeNode -->
<g id="node4" class="node">
<title>Vala.CodeNode</title>
<g id="a_node4"><a xlink:href="Vala.CodeNode.html" xlink:title="Vala.CodeNode">
<polygon fill="none" stroke="#000000" stroke-width="2" points="110,-252 8,-252 8,-216 110,-216 110,-252"/>
<text text-anchor="middle" x="59" y="-230.3" font-family="Times" font-size="14.00" fill="#000000">Vala.CodeNode</text>
</a>
</g>
</g>
<!-- Vala.CodeNode&#45;&gt;Vala.Expression -->
<g id="edge3" class="edge">
<title>Vala.CodeNode&#45;&gt;Vala.Expression</title>
<path fill="none" stroke="#000000" d="M59,-205.5726C59,-197.1084 59,-188.0593 59,-180.4133"/>
<polygon fill="#000000" stroke="#000000" points="55.5001,-205.8313 59,-215.8314 62.5001,-205.8314 55.5001,-205.8313"/>
</g>
</g>
</svg>
