<?xml version="1.0" encoding="UTF-8" standalone="no"?>
<!DOCTYPE svg PUBLIC "-//W3C//DTD SVG 1.1//EN"
 "http://www.w3.org/Graphics/SVG/1.1/DTD/svg11.dtd">
<!-- Generated by graphviz version 2.42.3 (0)
 -->
<!-- Title: Vala.DynamicSignal Pages: 1 -->
<svg width="212pt" height="260pt"
 viewBox="0.00 0.00 211.50 260.00" xmlns="http://www.w3.org/2000/svg" xmlns:xlink="http://www.w3.org/1999/xlink">
<g id="graph0" class="graph" transform="scale(1 1) rotate(0) translate(4 256)">
<title>Vala.DynamicSignal</title>
<polygon fill="white" stroke="transparent" points="-4,4 -4,-256 207.5,-256 207.5,4 -4,4"/>
<!-- Vala.DynamicSignal -->
<g id="node1" class="node">
<title>Vala.DynamicSignal</title>
<g id="a_node1"><a xlink:href="Vala.DynamicSignal.html" xlink:title="Vala.DynamicSignal">
<polygon fill="none" stroke="black" stroke-width="2" points="169.5,-36 39.5,-36 39.5,0 169.5,0 169.5,-36"/>
<text text-anchor="middle" x="104.5" y="-14.3" font-family="Times" font-size="14.00">Vala.DynamicSignal</text>
</a>
</g>
</g>
<!-- Vala.Signal -->
<g id="node2" class="node">
<title>Vala.Signal</title>
<g id="a_node2"><a xlink:href="Vala.Signal.html" xlink:title="Vala.Signal">
<polygon fill="none" stroke="black" stroke-width="2" points="144.5,-108 64.5,-108 64.5,-72 144.5,-72 144.5,-108"/>
<text text-anchor="middle" x="104.5" y="-86.3" font-family="Times" font-size="14.00">Vala.Signal</text>
</a>
</g>
</g>
<!-- Vala.Signal&#45;&gt;Vala.DynamicSignal -->
<g id="edge1" class="edge">
<title>Vala.Signal&#45;&gt;Vala.DynamicSignal</title>
<path fill="none" stroke="black" d="M104.5,-61.67C104.5,-53.05 104.5,-43.79 104.5,-36.1"/>
<polygon fill="black" stroke="black" points="101,-61.7 104.5,-71.7 108,-61.7 101,-61.7"/>
</g>
<!-- Vala.Symbol -->
<g id="node3" class="node">
<title>Vala.Symbol</title>
<g id="a_node3"><a xlink:href="Vala.Symbol.html" xlink:title="Vala.Symbol">
<polygon fill="none" stroke="black" stroke-width="2" points="95.5,-180 7.5,-180 7.5,-144 95.5,-144 95.5,-180"/>
<text text-anchor="middle" x="51.5" y="-158.3" font-family="Times" font-size="14.00">Vala.Symbol</text>
</a>
</g>
</g>
<!-- Vala.Symbol&#45;&gt;Vala.Signal -->
<g id="edge2" class="edge">
<title>Vala.Symbol&#45;&gt;Vala.Signal</title>
<path fill="none" stroke="black" d="M70.7,-135.64C77.63,-126.49 85.28,-116.38 91.55,-108.1"/>
<polygon fill="black" stroke="black" points="67.85,-133.61 64.6,-143.7 73.43,-137.84 67.85,-133.61"/>
</g>
<!-- Vala.CodeNode -->
<g id="node4" class="node">
<title>Vala.CodeNode</title>
<g id="a_node4"><a xlink:href="Vala.CodeNode.html" xlink:title="Vala.CodeNode">
<polygon fill="none" stroke="black" stroke-width="2" points="103,-252 0,-252 0,-216 103,-216 103,-252"/>
<text text-anchor="middle" x="51.5" y="-230.3" font-family="Times" font-size="14.00">Vala.CodeNode</text>
</a>
</g>
</g>
<!-- Vala.CodeNode&#45;&gt;Vala.Symbol -->
<g id="edge3" class="edge">
<title>Vala.CodeNode&#45;&gt;Vala.Symbol</title>
<path fill="none" stroke="black" d="M51.5,-205.67C51.5,-197.05 51.5,-187.79 51.5,-180.1"/>
<polygon fill="black" stroke="black" points="48,-205.7 51.5,-215.7 55,-205.7 48,-205.7"/>
</g>
<!-- Vala.Callable -->
<g id="node5" class="node">
<title>Vala.Callable</title>
<g id="a_node5"><a xlink:href="Vala.Callable.html" xlink:title="Vala.Callable">
<polygon fill="none" stroke="black" points="203.5,-180 113.5,-180 113.5,-144 203.5,-144 203.5,-180"/>
<text text-anchor="middle" x="158.5" y="-158.3" font-family="Times" font-size="14.00">Vala.Callable</text>
</a>
</g>
</g>
<!-- Vala.Callable&#45;&gt;Vala.Signal -->
<g id="edge4" class="edge">
<title>Vala.Callable&#45;&gt;Vala.Signal</title>
<path fill="none" stroke="black" d="M138.94,-135.64C131.88,-126.49 124.08,-116.38 117.69,-108.1"/>
<polygon fill="black" stroke="black" points="136.27,-137.92 145.15,-143.7 141.81,-133.64 136.27,-137.92"/>
</g>
</g>
</svg>
