<?xml version="1.0" encoding="UTF-8" standalone="no"?>
<!DOCTYPE svg PUBLIC "-//W3C//DTD SVG 1.1//EN"
 "http://www.w3.org/Graphics/SVG/1.1/DTD/svg11.dtd">
<!-- Generated by graphviz version 2.40.1 (20161225.0304)
 -->
<!-- Title: Vala.DynamicProperty Pages: 1 -->
<svg width="235pt" height="260pt"
 viewBox="0.00 0.00 234.50 260.00" xmlns="http://www.w3.org/2000/svg" xmlns:xlink="http://www.w3.org/1999/xlink">
<g id="graph0" class="graph" transform="scale(1 1) rotate(0) translate(4 256)">
<title>Vala.DynamicProperty</title>
<polygon fill="#ffffff" stroke="transparent" points="-4,4 -4,-256 230.5,-256 230.5,4 -4,4"/>
<!-- Vala.DynamicProperty -->
<g id="node1" class="node">
<title>Vala.DynamicProperty</title>
<g id="a_node1"><a xlink:href="Vala.DynamicProperty.html" xlink:title="Vala.DynamicProperty">
<polygon fill="none" stroke="#000000" stroke-width="2" points="194.5,-36 36.5,-36 36.5,0 194.5,0 194.5,-36"/>
<text text-anchor="middle" x="115.5" y="-14.3" font-family="Times" font-size="14.00" fill="#000000">Vala.DynamicProperty</text>
</a>
</g>
</g>
<!-- Vala.Property -->
<g id="node2" class="node">
<title>Vala.Property</title>
<g id="a_node2"><a xlink:href="Vala.Property.html" xlink:title="Vala.Property">
<polygon fill="none" stroke="#000000" stroke-width="2" points="167,-108 64,-108 64,-72 167,-72 167,-108"/>
<text text-anchor="middle" x="115.5" y="-86.3" font-family="Times" font-size="14.00" fill="#000000">Vala.Property</text>
</a>
</g>
</g>
<!-- Vala.Property&#45;&gt;Vala.DynamicProperty -->
<g id="edge1" class="edge">
<title>Vala.Property&#45;&gt;Vala.DynamicProperty</title>
<path fill="none" stroke="#000000" d="M115.5,-61.5726C115.5,-53.1084 115.5,-44.0593 115.5,-36.4133"/>
<polygon fill="#000000" stroke="#000000" points="112.0001,-61.8313 115.5,-71.8314 119.0001,-61.8314 112.0001,-61.8313"/>
</g>
<!-- Vala.Symbol -->
<g id="node3" class="node">
<title>Vala.Symbol</title>
<g id="a_node3"><a xlink:href="Vala.Symbol.html" xlink:title="Vala.Symbol">
<polygon fill="none" stroke="#000000" stroke-width="2" points="104,-180 9,-180 9,-144 104,-144 104,-180"/>
<text text-anchor="middle" x="56.5" y="-158.3" font-family="Times" font-size="14.00" fill="#000000">Vala.Symbol</text>
</a>
</g>
</g>
<!-- Vala.Symbol&#45;&gt;Vala.Property -->
<g id="edge2" class="edge">
<title>Vala.Symbol&#45;&gt;Vala.Property</title>
<path fill="none" stroke="#000000" d="M77.7299,-136.0923C85.2361,-126.9323 93.5193,-116.8239 100.4114,-108.4133"/>
<polygon fill="#000000" stroke="#000000" points="75.0193,-133.8782 71.3882,-143.8314 80.4336,-138.3149 75.0193,-133.8782"/>
</g>
<!-- Vala.CodeNode -->
<g id="node4" class="node">
<title>Vala.CodeNode</title>
<g id="a_node4"><a xlink:href="Vala.CodeNode.html" xlink:title="Vala.CodeNode">
<polygon fill="none" stroke="#000000" stroke-width="2" points="113,-252 0,-252 0,-216 113,-216 113,-252"/>
<text text-anchor="middle" x="56.5" y="-230.3" font-family="Times" font-size="14.00" fill="#000000">Vala.CodeNode</text>
</a>
</g>
</g>
<!-- Vala.CodeNode&#45;&gt;Vala.Symbol -->
<g id="edge3" class="edge">
<title>Vala.CodeNode&#45;&gt;Vala.Symbol</title>
<path fill="none" stroke="#000000" d="M56.5,-205.5726C56.5,-197.1084 56.5,-188.0593 56.5,-180.4133"/>
<polygon fill="#000000" stroke="#000000" points="53.0001,-205.8313 56.5,-215.8314 60.0001,-205.8314 53.0001,-205.8313"/>
</g>
<!-- Vala.Lockable -->
<g id="node5" class="node">
<title>Vala.Lockable</title>
<g id="a_node5"><a xlink:href="Vala.Lockable.html" xlink:title="Vala.Lockable">
<polygon fill="none" stroke="#000000" points="226.5,-180 122.5,-180 122.5,-144 226.5,-144 226.5,-180"/>
<text text-anchor="middle" x="174.5" y="-158.3" font-family="Times" font-size="14.00" fill="#000000">Vala.Lockable</text>
</a>
</g>
</g>
<!-- Vala.Lockable&#45;&gt;Vala.Property -->
<g id="edge4" class="edge">
<title>Vala.Lockable&#45;&gt;Vala.Property</title>
<path fill="none" stroke="#000000" d="M153.2701,-136.0923C145.7639,-126.9323 137.4807,-116.8239 130.5886,-108.4133"/>
<polygon fill="#000000" stroke="#000000" points="150.5664,-138.3149 159.6118,-143.8314 155.9807,-133.8782 150.5664,-138.3149"/>
</g>
</g>
</svg>
