<?xml version="1.0" encoding="UTF-8" standalone="no"?>
<!DOCTYPE svg PUBLIC "-//W3C//DTD SVG 1.1//EN"
 "http://www.w3.org/Graphics/SVG/1.1/DTD/svg11.dtd">
<!-- Generated by graphviz version 2.42.3 (0)
 -->
<!-- Title: Vala.BooleanLiteral Pages: 1 -->
<svg width="134pt" height="260pt"
 viewBox="0.00 0.00 134.00 260.00" xmlns="http://www.w3.org/2000/svg" xmlns:xlink="http://www.w3.org/1999/xlink">
<g id="graph0" class="graph" transform="scale(1 1) rotate(0) translate(4 256)">
<title>Vala.BooleanLiteral</title>
<polygon fill="white" stroke="transparent" points="-4,4 -4,-256 130,-256 130,4 -4,4"/>
<!-- Vala.BooleanLiteral -->
<g id="node1" class="node">
<title>Vala.BooleanLiteral</title>
<g id="a_node1"><a xlink:href="Vala.BooleanLiteral.html" xlink:title="Vala.BooleanLiteral">
<polygon fill="none" stroke="black" stroke-width="2" points="126,-36 0,-36 0,0 126,0 126,-36"/>
<text text-anchor="middle" x="63" y="-14.3" font-family="Times" font-size="14.00">Vala.BooleanLiteral</text>
</a>
</g>
</g>
<!-- Vala.Literal -->
<g id="node2" class="node">
<title>Vala.Literal</title>
<g id="a_node2"><a xlink:href="Vala.Literal.html" xlink:title="Vala.Literal">
<polygon fill="none" stroke="black" stroke-width="2" points="103.5,-108 22.5,-108 22.5,-72 103.5,-72 103.5,-108"/>
<text text-anchor="middle" x="63" y="-86.3" font-family="Times" font-size="14.00">Vala.Literal</text>
</a>
</g>
</g>
<!-- Vala.Literal&#45;&gt;Vala.BooleanLiteral -->
<g id="edge1" class="edge">
<title>Vala.Literal&#45;&gt;Vala.BooleanLiteral</title>
<path fill="none" stroke="black" d="M63,-61.67C63,-53.05 63,-43.79 63,-36.1"/>
<polygon fill="black" stroke="black" points="59.5,-61.7 63,-71.7 66.5,-61.7 59.5,-61.7"/>
</g>
<!-- Vala.Expression -->
<g id="node3" class="node">
<title>Vala.Expression</title>
<g id="a_node3"><a xlink:href="Vala.Expression.html" xlink:title="Vala.Expression">
<polygon fill="none" stroke="black" stroke-width="2" points="115.5,-180 10.5,-180 10.5,-144 115.5,-144 115.5,-180"/>
<text text-anchor="middle" x="63" y="-158.3" font-family="Times" font-size="14.00">Vala.Expression</text>
</a>
</g>
</g>
<!-- Vala.Expression&#45;&gt;Vala.Literal -->
<g id="edge2" class="edge">
<title>Vala.Expression&#45;&gt;Vala.Literal</title>
<path fill="none" stroke="black" d="M63,-133.67C63,-125.05 63,-115.79 63,-108.1"/>
<polygon fill="black" stroke="black" points="59.5,-133.7 63,-143.7 66.5,-133.7 59.5,-133.7"/>
</g>
<!-- Vala.CodeNode -->
<g id="node4" class="node">
<title>Vala.CodeNode</title>
<g id="a_node4"><a xlink:href="Vala.CodeNode.html" xlink:title="Vala.CodeNode">
<polygon fill="none" stroke="black" stroke-width="2" points="114.5,-252 11.5,-252 11.5,-216 114.5,-216 114.5,-252"/>
<text text-anchor="middle" x="63" y="-230.3" font-family="Times" font-size="14.00">Vala.CodeNode</text>
</a>
</g>
</g>
<!-- Vala.CodeNode&#45;&gt;Vala.Expression -->
<g id="edge3" class="edge">
<title>Vala.CodeNode&#45;&gt;Vala.Expression</title>
<path fill="none" stroke="black" d="M63,-205.67C63,-197.05 63,-187.79 63,-180.1"/>
<polygon fill="black" stroke="black" points="59.5,-205.7 63,-215.7 66.5,-205.7 59.5,-205.7"/>
</g>
</g>
</svg>
