<?xml version="1.0" encoding="UTF-8" standalone="no"?>
<!DOCTYPE svg PUBLIC "-//W3C//DTD SVG 1.1//EN"
 "http://www.w3.org/Graphics/SVG/1.1/DTD/svg11.dtd">
<!-- Generated by graphviz version 2.40.1 (20161225.0304)
 -->
<!-- Title: Vala.InitializerList Pages: 1 -->
<svg width="126pt" height="188pt"
 viewBox="0.00 0.00 126.00 188.00" xmlns="http://www.w3.org/2000/svg" xmlns:xlink="http://www.w3.org/1999/xlink">
<g id="graph0" class="graph" transform="scale(1 1) rotate(0) translate(4 184)">
<title>Vala.InitializerList</title>
<polygon fill="#ffffff" stroke="transparent" points="-4,4 -4,-184 122,-184 122,4 -4,4"/>
<!-- Vala.InitializerList -->
<g id="node1" class="node">
<title>Vala.InitializerList</title>
<g id="a_node1"><a xlink:href="Vala.InitializerList.html" xlink:title="Vala.InitializerList">
<polygon fill="none" stroke="#000000" stroke-width="2" points="118,-36 0,-36 0,0 118,0 118,-36"/>
<text text-anchor="middle" x="59" y="-14.3" font-family="Times" font-size="14.00" fill="#000000">Vala.InitializerList</text>
</a>
</g>
</g>
<!-- Vala.Expression -->
<g id="node2" class="node">
<title>Vala.Expression</title>
<g id="a_node2"><a xlink:href="Vala.Expression.html" xlink:title="Vala.Expression">
<polygon fill="none" stroke="#000000" stroke-width="2" points="111,-108 7,-108 7,-72 111,-72 111,-108"/>
<text text-anchor="middle" x="59" y="-86.3" font-family="Times" font-size="14.00" fill="#000000">Vala.Expression</text>
</a>
</g>
</g>
<!-- Vala.Expression&#45;&gt;Vala.InitializerList -->
<g id="edge1" class="edge">
<title>Vala.Expression&#45;&gt;Vala.InitializerList</title>
<path fill="none" stroke="#000000" d="M59,-61.5726C59,-53.1084 59,-44.0593 59,-36.4133"/>
<polygon fill="#000000" stroke="#000000" points="55.5001,-61.8313 59,-71.8314 62.5001,-61.8314 55.5001,-61.8313"/>
</g>
<!-- Vala.CodeNode -->
<g id="node3" class="node">
<title>Vala.CodeNode</title>
<g id="a_node3"><a xlink:href="Vala.CodeNode.html" xlink:title="Vala.CodeNode">
<polygon fill="none" stroke="#000000" stroke-width="2" points="110,-180 8,-180 8,-144 110,-144 110,-180"/>
<text text-anchor="middle" x="59" y="-158.3" font-family="Times" font-size="14.00" fill="#000000">Vala.CodeNode</text>
</a>
</g>
</g>
<!-- Vala.CodeNode&#45;&gt;Vala.Expression -->
<g id="edge2" class="edge">
<title>Vala.CodeNode&#45;&gt;Vala.Expression</title>
<path fill="none" stroke="#000000" d="M59,-133.5726C59,-125.1084 59,-116.0593 59,-108.4133"/>
<polygon fill="#000000" stroke="#000000" points="55.5001,-133.8313 59,-143.8314 62.5001,-133.8314 55.5001,-133.8313"/>
</g>
</g>
</svg>
