<?xml version="1.0" encoding="UTF-8" standalone="no"?>
<!DOCTYPE svg PUBLIC "-//W3C//DTD SVG 1.1//EN"
 "http://www.w3.org/Graphics/SVG/1.1/DTD/svg11.dtd">
<!-- Generated by graphviz version 2.40.1 (0)
 -->
<!-- Title: Vala.PropertyAccessor Pages: 1 -->
<svg width="150pt" height="260pt"
 viewBox="0.00 0.00 150.00 260.00" xmlns="http://www.w3.org/2000/svg" xmlns:xlink="http://www.w3.org/1999/xlink">
<g id="graph0" class="graph" transform="scale(1 1) rotate(0) translate(4 256)">
<title>Vala.PropertyAccessor</title>
<polygon fill="#ffffff" stroke="transparent" points="-4,4 -4,-256 146,-256 146,4 -4,4"/>
<!-- Vala.PropertyAccessor -->
<g id="node1" class="node">
<title>Vala.PropertyAccessor</title>
<g id="a_node1"><a xlink:href="Vala.PropertyAccessor.html" xlink:title="Vala.PropertyAccessor">
<polygon fill="none" stroke="#000000" stroke-width="2" points="142,-36 0,-36 0,0 142,0 142,-36"/>
<text text-anchor="middle" x="71" y="-14.3" font-family="Times" font-size="14.00" fill="#000000">Vala.PropertyAccessor</text>
</a>
</g>
</g>
<!-- Vala.Subroutine -->
<g id="node2" class="node">
<title>Vala.Subroutine</title>
<g id="a_node2"><a xlink:href="Vala.Subroutine.html" xlink:title="Vala.Subroutine">
<polygon fill="none" stroke="#000000" stroke-width="2" points="123,-108 19,-108 19,-72 123,-72 123,-108"/>
<text text-anchor="middle" x="71" y="-86.3" font-family="Times" font-size="14.00" fill="#000000">Vala.Subroutine</text>
</a>
</g>
</g>
<!-- Vala.Subroutine&#45;&gt;Vala.PropertyAccessor -->
<g id="edge1" class="edge">
<title>Vala.Subroutine&#45;&gt;Vala.PropertyAccessor</title>
<path fill="none" stroke="#000000" d="M71,-61.5726C71,-53.1084 71,-44.0593 71,-36.4133"/>
<polygon fill="#000000" stroke="#000000" points="67.5001,-61.8313 71,-71.8314 74.5001,-61.8314 67.5001,-61.8313"/>
</g>
<!-- Vala.Symbol -->
<g id="node3" class="node">
<title>Vala.Symbol</title>
<g id="a_node3"><a xlink:href="Vala.Symbol.html" xlink:title="Vala.Symbol">
<polygon fill="none" stroke="#000000" stroke-width="2" points="115,-180 27,-180 27,-144 115,-144 115,-180"/>
<text text-anchor="middle" x="71" y="-158.3" font-family="Times" font-size="14.00" fill="#000000">Vala.Symbol</text>
</a>
</g>
</g>
<!-- Vala.Symbol&#45;&gt;Vala.Subroutine -->
<g id="edge2" class="edge">
<title>Vala.Symbol&#45;&gt;Vala.Subroutine</title>
<path fill="none" stroke="#000000" d="M71,-133.5726C71,-125.1084 71,-116.0593 71,-108.4133"/>
<polygon fill="#000000" stroke="#000000" points="67.5001,-133.8313 71,-143.8314 74.5001,-133.8314 67.5001,-133.8313"/>
</g>
<!-- Vala.CodeNode -->
<g id="node4" class="node">
<title>Vala.CodeNode</title>
<g id="a_node4"><a xlink:href="Vala.CodeNode.html" xlink:title="Vala.CodeNode">
<polygon fill="none" stroke="#000000" stroke-width="2" points="122.5,-252 19.5,-252 19.5,-216 122.5,-216 122.5,-252"/>
<text text-anchor="middle" x="71" y="-230.3" font-family="Times" font-size="14.00" fill="#000000">Vala.CodeNode</text>
</a>
</g>
</g>
<!-- Vala.CodeNode&#45;&gt;Vala.Symbol -->
<g id="edge3" class="edge">
<title>Vala.CodeNode&#45;&gt;Vala.Symbol</title>
<path fill="none" stroke="#000000" d="M71,-205.5726C71,-197.1084 71,-188.0593 71,-180.4133"/>
<polygon fill="#000000" stroke="#000000" points="67.5001,-205.8313 71,-215.8314 74.5001,-205.8314 67.5001,-205.8313"/>
</g>
</g>
</svg>
