<?xml version="1.0" encoding="UTF-8" standalone="no"?>
<!DOCTYPE svg PUBLIC "-//W3C//DTD SVG 1.1//EN"
 "http://www.w3.org/Graphics/SVG/1.1/DTD/svg11.dtd">
<!-- Generated by graphviz version 2.40.1 (20161225.0304)
 -->
<!-- Title: Vala.Block Pages: 1 -->
<svg width="220pt" height="188pt"
 viewBox="0.00 0.00 219.50 188.00" xmlns="http://www.w3.org/2000/svg" xmlns:xlink="http://www.w3.org/1999/xlink">
<g id="graph0" class="graph" transform="scale(1 1) rotate(0) translate(4 184)">
<title>Vala.Block</title>
<polygon fill="#ffffff" stroke="transparent" points="-4,4 -4,-184 215.5,-184 215.5,4 -4,4"/>
<!-- Vala.Block -->
<g id="node1" class="node">
<title>Vala.Block</title>
<g id="a_node1"><a xlink:href="Vala.Block.html" xlink:title="Vala.Block">
<polygon fill="none" stroke="#000000" stroke-width="2" points="144.5,-36 67.5,-36 67.5,0 144.5,0 144.5,-36"/>
<text text-anchor="middle" x="106" y="-14.3" font-family="Times" font-size="14.00" fill="#000000">Vala.Block</text>
</a>
</g>
</g>
<!-- Vala.Symbol -->
<g id="node2" class="node">
<title>Vala.Symbol</title>
<g id="a_node2"><a xlink:href="Vala.Symbol.html" xlink:title="Vala.Symbol">
<polygon fill="none" stroke="#000000" stroke-width="2" points="94.5,-108 7.5,-108 7.5,-72 94.5,-72 94.5,-108"/>
<text text-anchor="middle" x="51" y="-86.3" font-family="Times" font-size="14.00" fill="#000000">Vala.Symbol</text>
</a>
</g>
</g>
<!-- Vala.Symbol&#45;&gt;Vala.Block -->
<g id="edge1" class="edge">
<title>Vala.Symbol&#45;&gt;Vala.Block</title>
<path fill="none" stroke="#000000" d="M71.0029,-63.8144C77.9437,-54.7282 85.5744,-44.7389 91.9343,-36.4133"/>
<polygon fill="#000000" stroke="#000000" points="68.1679,-61.76 64.8788,-71.8314 73.7306,-66.0093 68.1679,-61.76"/>
</g>
<!-- Vala.CodeNode -->
<g id="node3" class="node">
<title>Vala.CodeNode</title>
<g id="a_node3"><a xlink:href="Vala.CodeNode.html" xlink:title="Vala.CodeNode">
<polygon fill="none" stroke="#000000" stroke-width="2" points="102,-180 0,-180 0,-144 102,-144 102,-180"/>
<text text-anchor="middle" x="51" y="-158.3" font-family="Times" font-size="14.00" fill="#000000">Vala.CodeNode</text>
</a>
</g>
</g>
<!-- Vala.CodeNode&#45;&gt;Vala.Symbol -->
<g id="edge2" class="edge">
<title>Vala.CodeNode&#45;&gt;Vala.Symbol</title>
<path fill="none" stroke="#000000" d="M51,-133.5726C51,-125.1084 51,-116.0593 51,-108.4133"/>
<polygon fill="#000000" stroke="#000000" points="47.5001,-133.8313 51,-143.8314 54.5001,-133.8314 47.5001,-133.8313"/>
</g>
<!-- Vala.Statement -->
<g id="node4" class="node">
<title>Vala.Statement</title>
<g id="a_node4"><a xlink:href="Vala.Statement.html" xlink:title="Vala.Statement">
<polygon fill="none" stroke="#000000" points="211.5,-108 112.5,-108 112.5,-72 211.5,-72 211.5,-108"/>
<text text-anchor="middle" x="162" y="-86.3" font-family="Times" font-size="14.00" fill="#000000">Vala.Statement</text>
</a>
</g>
</g>
<!-- Vala.Statement&#45;&gt;Vala.Block -->
<g id="edge3" class="edge">
<title>Vala.Statement&#45;&gt;Vala.Block</title>
<path fill="none" stroke="#000000" d="M141.6334,-63.8144C134.5664,-54.7282 126.7969,-44.7389 120.3214,-36.4133"/>
<polygon fill="#000000" stroke="#000000" points="138.9667,-66.0866 147.8688,-71.8314 144.4921,-61.789 138.9667,-66.0866"/>
</g>
</g>
</svg>
