<?xml version="1.0" encoding="UTF-8" standalone="no"?>
<!DOCTYPE svg PUBLIC "-//W3C//DTD SVG 1.1//EN"
 "http://www.w3.org/Graphics/SVG/1.1/DTD/svg11.dtd">
<!-- Generated by graphviz version 2.40.1 (20161225.0304)
 -->
<!-- Title: Vala.ReferenceType Pages: 1 -->
<svg width="133pt" height="188pt"
 viewBox="0.00 0.00 133.00 188.00" xmlns="http://www.w3.org/2000/svg" xmlns:xlink="http://www.w3.org/1999/xlink">
<g id="graph0" class="graph" transform="scale(1 1) rotate(0) translate(4 184)">
<title>Vala.ReferenceType</title>
<polygon fill="#ffffff" stroke="transparent" points="-4,4 -4,-184 129,-184 129,4 -4,4"/>
<!-- Vala.ReferenceType -->
<g id="node1" class="node">
<title>Vala.ReferenceType</title>
<g id="a_node1"><a xlink:href="Vala.ReferenceType.html" xlink:title="Vala.ReferenceType">
<polygon fill="none" stroke="#000000" stroke-width="2" points="125,-36 0,-36 0,0 125,0 125,-36"/>
<text text-anchor="middle" x="62.5" y="-14.3" font-family="Times" font-size="14.00" fill="#000000">Vala.ReferenceType</text>
</a>
</g>
</g>
<!-- Vala.DataType -->
<g id="node2" class="node">
<title>Vala.DataType</title>
<g id="a_node2"><a xlink:href="Vala.DataType.html" xlink:title="Vala.DataType">
<polygon fill="none" stroke="#000000" stroke-width="2" points="110.5,-108 14.5,-108 14.5,-72 110.5,-72 110.5,-108"/>
<text text-anchor="middle" x="62.5" y="-86.3" font-family="Times" font-size="14.00" fill="#000000">Vala.DataType</text>
</a>
</g>
</g>
<!-- Vala.DataType&#45;&gt;Vala.ReferenceType -->
<g id="edge1" class="edge">
<title>Vala.DataType&#45;&gt;Vala.ReferenceType</title>
<path fill="none" stroke="#000000" d="M62.5,-61.5726C62.5,-53.1084 62.5,-44.0593 62.5,-36.4133"/>
<polygon fill="#000000" stroke="#000000" points="59.0001,-61.8313 62.5,-71.8314 66.0001,-61.8314 59.0001,-61.8313"/>
</g>
<!-- Vala.CodeNode -->
<g id="node3" class="node">
<title>Vala.CodeNode</title>
<g id="a_node3"><a xlink:href="Vala.CodeNode.html" xlink:title="Vala.CodeNode">
<polygon fill="none" stroke="#000000" stroke-width="2" points="113.5,-180 11.5,-180 11.5,-144 113.5,-144 113.5,-180"/>
<text text-anchor="middle" x="62.5" y="-158.3" font-family="Times" font-size="14.00" fill="#000000">Vala.CodeNode</text>
</a>
</g>
</g>
<!-- Vala.CodeNode&#45;&gt;Vala.DataType -->
<g id="edge2" class="edge">
<title>Vala.CodeNode&#45;&gt;Vala.DataType</title>
<path fill="none" stroke="#000000" d="M62.5,-133.5726C62.5,-125.1084 62.5,-116.0593 62.5,-108.4133"/>
<polygon fill="#000000" stroke="#000000" points="59.0001,-133.8313 62.5,-143.8314 66.0001,-133.8314 59.0001,-133.8313"/>
</g>
</g>
</svg>
