<?xml version="1.0" encoding="UTF-8" standalone="no"?>
<!DOCTYPE svg PUBLIC "-//W3C//DTD SVG 1.1//EN"
 "http://www.w3.org/Graphics/SVG/1.1/DTD/svg11.dtd">
<!-- Generated by graphviz version 2.42.3 (0)
 -->
<!-- Title: Vala.DelegateTargetField Pages: 1 -->
<svg width="220pt" height="332pt"
 viewBox="0.00 0.00 219.50 332.00" xmlns="http://www.w3.org/2000/svg" xmlns:xlink="http://www.w3.org/1999/xlink">
<g id="graph0" class="graph" transform="scale(1 1) rotate(0) translate(4 328)">
<title>Vala.DelegateTargetField</title>
<polygon fill="white" stroke="transparent" points="-4,4 -4,-328 215.5,-328 215.5,4 -4,4"/>
<!-- Vala.DelegateTargetField -->
<g id="node1" class="node">
<title>Vala.DelegateTargetField</title>
<g id="a_node1"><a xlink:href="Vala.DelegateTargetField.html" xlink:title="Vala.DelegateTargetField">
<polygon fill="none" stroke="black" stroke-width="2" points="185.5,-36 29.5,-36 29.5,0 185.5,0 185.5,-36"/>
<text text-anchor="middle" x="107.5" y="-14.3" font-family="Times" font-size="14.00">Vala.DelegateTargetField</text>
</a>
</g>
</g>
<!-- Vala.Field -->
<g id="node2" class="node">
<title>Vala.Field</title>
<g id="a_node2"><a xlink:href="Vala.Field.html" xlink:title="Vala.Field">
<polygon fill="none" stroke="black" stroke-width="2" points="144,-108 71,-108 71,-72 144,-72 144,-108"/>
<text text-anchor="middle" x="107.5" y="-86.3" font-family="Times" font-size="14.00">Vala.Field</text>
</a>
</g>
</g>
<!-- Vala.Field&#45;&gt;Vala.DelegateTargetField -->
<g id="edge1" class="edge">
<title>Vala.Field&#45;&gt;Vala.DelegateTargetField</title>
<path fill="none" stroke="black" d="M107.5,-61.67C107.5,-53.05 107.5,-43.79 107.5,-36.1"/>
<polygon fill="black" stroke="black" points="104,-61.7 107.5,-71.7 111,-61.7 104,-61.7"/>
</g>
<!-- Vala.Variable -->
<g id="node3" class="node">
<title>Vala.Variable</title>
<g id="a_node3"><a xlink:href="Vala.Variable.html" xlink:title="Vala.Variable">
<polygon fill="none" stroke="black" stroke-width="2" points="97.5,-180 5.5,-180 5.5,-144 97.5,-144 97.5,-180"/>
<text text-anchor="middle" x="51.5" y="-158.3" font-family="Times" font-size="14.00">Vala.Variable</text>
</a>
</g>
</g>
<!-- Vala.Variable&#45;&gt;Vala.Field -->
<g id="edge2" class="edge">
<title>Vala.Variable&#45;&gt;Vala.Field</title>
<path fill="none" stroke="black" d="M71.79,-135.64C79.11,-126.49 87.19,-116.38 93.82,-108.1"/>
<polygon fill="black" stroke="black" points="68.86,-133.7 65.34,-143.7 74.32,-138.07 68.86,-133.7"/>
</g>
<!-- Vala.Symbol -->
<g id="node4" class="node">
<title>Vala.Symbol</title>
<g id="a_node4"><a xlink:href="Vala.Symbol.html" xlink:title="Vala.Symbol">
<polygon fill="none" stroke="black" stroke-width="2" points="95.5,-252 7.5,-252 7.5,-216 95.5,-216 95.5,-252"/>
<text text-anchor="middle" x="51.5" y="-230.3" font-family="Times" font-size="14.00">Vala.Symbol</text>
</a>
</g>
</g>
<!-- Vala.Symbol&#45;&gt;Vala.Variable -->
<g id="edge3" class="edge">
<title>Vala.Symbol&#45;&gt;Vala.Variable</title>
<path fill="none" stroke="black" d="M51.5,-205.67C51.5,-197.05 51.5,-187.79 51.5,-180.1"/>
<polygon fill="black" stroke="black" points="48,-205.7 51.5,-215.7 55,-205.7 48,-205.7"/>
</g>
<!-- Vala.CodeNode -->
<g id="node5" class="node">
<title>Vala.CodeNode</title>
<g id="a_node5"><a xlink:href="Vala.CodeNode.html" xlink:title="Vala.CodeNode">
<polygon fill="none" stroke="black" stroke-width="2" points="103,-324 0,-324 0,-288 103,-288 103,-324"/>
<text text-anchor="middle" x="51.5" y="-302.3" font-family="Times" font-size="14.00">Vala.CodeNode</text>
</a>
</g>
</g>
<!-- Vala.CodeNode&#45;&gt;Vala.Symbol -->
<g id="edge4" class="edge">
<title>Vala.CodeNode&#45;&gt;Vala.Symbol</title>
<path fill="none" stroke="black" d="M51.5,-277.67C51.5,-269.05 51.5,-259.79 51.5,-252.1"/>
<polygon fill="black" stroke="black" points="48,-277.7 51.5,-287.7 55,-277.7 48,-277.7"/>
</g>
<!-- Vala.Lockable -->
<g id="node6" class="node">
<title>Vala.Lockable</title>
<g id="a_node6"><a xlink:href="Vala.Lockable.html" xlink:title="Vala.Lockable">
<polygon fill="none" stroke="black" points="211.5,-180 115.5,-180 115.5,-144 211.5,-144 211.5,-180"/>
<text text-anchor="middle" x="163.5" y="-158.3" font-family="Times" font-size="14.00">Vala.Lockable</text>
</a>
</g>
</g>
<!-- Vala.Lockable&#45;&gt;Vala.Field -->
<g id="edge5" class="edge">
<title>Vala.Lockable&#45;&gt;Vala.Field</title>
<path fill="none" stroke="black" d="M143.21,-135.64C135.89,-126.49 127.81,-116.38 121.18,-108.1"/>
<polygon fill="black" stroke="black" points="140.68,-138.07 149.66,-143.7 146.14,-133.7 140.68,-138.07"/>
</g>
</g>
</svg>
