<?xml version="1.0" encoding="UTF-8" standalone="no"?>
<!DOCTYPE svg PUBLIC "-//W3C//DTD SVG 1.1//EN"
 "http://www.w3.org/Graphics/SVG/1.1/DTD/svg11.dtd">
<!-- Generated by graphviz version 2.40.1 (20161225.0304)
 -->
<!-- Title: Vala.UnresolvedType Pages: 1 -->
<svg width="157pt" height="188pt"
 viewBox="0.00 0.00 157.00 188.00" xmlns="http://www.w3.org/2000/svg" xmlns:xlink="http://www.w3.org/1999/xlink">
<g id="graph0" class="graph" transform="scale(1 1) rotate(0) translate(4 184)">
<title>Vala.UnresolvedType</title>
<polygon fill="#ffffff" stroke="transparent" points="-4,4 -4,-184 153,-184 153,4 -4,4"/>
<!-- Vala.UnresolvedType -->
<g id="node1" class="node">
<title>Vala.UnresolvedType</title>
<g id="a_node1"><a xlink:href="Vala.UnresolvedType.html" xlink:title="Vala.UnresolvedType">
<polygon fill="none" stroke="#000000" stroke-width="2" points="149,-36 0,-36 0,0 149,0 149,-36"/>
<text text-anchor="middle" x="74.5" y="-14.3" font-family="Times" font-size="14.00" fill="#000000">Vala.UnresolvedType</text>
</a>
</g>
</g>
<!-- Vala.DataType -->
<g id="node2" class="node">
<title>Vala.DataType</title>
<g id="a_node2"><a xlink:href="Vala.DataType.html" xlink:title="Vala.DataType">
<polygon fill="none" stroke="#000000" stroke-width="2" points="128,-108 21,-108 21,-72 128,-72 128,-108"/>
<text text-anchor="middle" x="74.5" y="-86.3" font-family="Times" font-size="14.00" fill="#000000">Vala.DataType</text>
</a>
</g>
</g>
<!-- Vala.DataType&#45;&gt;Vala.UnresolvedType -->
<g id="edge1" class="edge">
<title>Vala.DataType&#45;&gt;Vala.UnresolvedType</title>
<path fill="none" stroke="#000000" d="M74.5,-61.5726C74.5,-53.1084 74.5,-44.0593 74.5,-36.4133"/>
<polygon fill="#000000" stroke="#000000" points="71.0001,-61.8313 74.5,-71.8314 78.0001,-61.8314 71.0001,-61.8313"/>
</g>
<!-- Vala.CodeNode -->
<g id="node3" class="node">
<title>Vala.CodeNode</title>
<g id="a_node3"><a xlink:href="Vala.CodeNode.html" xlink:title="Vala.CodeNode">
<polygon fill="none" stroke="#000000" stroke-width="2" points="131,-180 18,-180 18,-144 131,-144 131,-180"/>
<text text-anchor="middle" x="74.5" y="-158.3" font-family="Times" font-size="14.00" fill="#000000">Vala.CodeNode</text>
</a>
</g>
</g>
<!-- Vala.CodeNode&#45;&gt;Vala.DataType -->
<g id="edge2" class="edge">
<title>Vala.CodeNode&#45;&gt;Vala.DataType</title>
<path fill="none" stroke="#000000" d="M74.5,-133.5726C74.5,-125.1084 74.5,-116.0593 74.5,-108.4133"/>
<polygon fill="#000000" stroke="#000000" points="71.0001,-133.8313 74.5,-143.8314 78.0001,-133.8314 71.0001,-133.8313"/>
</g>
</g>
</svg>
