<?xml version="1.0" encoding="UTF-8" standalone="no"?>
<!DOCTYPE svg PUBLIC "-//W3C//DTD SVG 1.1//EN"
 "http://www.w3.org/Graphics/SVG/1.1/DTD/svg11.dtd">
<!-- Generated by graphviz version 2.42.3 (0)
 -->
<!-- Title: Vala.ObjectCreationExpression Pages: 1 -->
<svg width="196pt" height="188pt"
 viewBox="0.00 0.00 196.00 188.00" xmlns="http://www.w3.org/2000/svg" xmlns:xlink="http://www.w3.org/1999/xlink">
<g id="graph0" class="graph" transform="scale(1 1) rotate(0) translate(4 184)">
<title>Vala.ObjectCreationExpression</title>
<polygon fill="white" stroke="transparent" points="-4,4 -4,-184 192,-184 192,4 -4,4"/>
<!-- Vala.ObjectCreationExpression -->
<g id="node1" class="node">
<title>Vala.ObjectCreationExpression</title>
<g id="a_node1"><a xlink:href="Vala.ObjectCreationExpression.html" xlink:title="Vala.ObjectCreationExpression">
<polygon fill="none" stroke="black" stroke-width="2" points="188,-36 0,-36 0,0 188,0 188,-36"/>
<text text-anchor="middle" x="94" y="-14.3" font-family="Times" font-size="14.00">Vala.ObjectCreationExpression</text>
</a>
</g>
</g>
<!-- Vala.Expression -->
<g id="node2" class="node">
<title>Vala.Expression</title>
<g id="a_node2"><a xlink:href="Vala.Expression.html" xlink:title="Vala.Expression">
<polygon fill="none" stroke="black" stroke-width="2" points="146.5,-108 41.5,-108 41.5,-72 146.5,-72 146.5,-108"/>
<text text-anchor="middle" x="94" y="-86.3" font-family="Times" font-size="14.00">Vala.Expression</text>
</a>
</g>
</g>
<!-- Vala.Expression&#45;&gt;Vala.ObjectCreationExpression -->
<g id="edge1" class="edge">
<title>Vala.Expression&#45;&gt;Vala.ObjectCreationExpression</title>
<path fill="none" stroke="black" d="M94,-61.67C94,-53.05 94,-43.79 94,-36.1"/>
<polygon fill="black" stroke="black" points="90.5,-61.7 94,-71.7 97.5,-61.7 90.5,-61.7"/>
</g>
<!-- Vala.CodeNode -->
<g id="node3" class="node">
<title>Vala.CodeNode</title>
<g id="a_node3"><a xlink:href="Vala.CodeNode.html" xlink:title="Vala.CodeNode">
<polygon fill="none" stroke="black" stroke-width="2" points="145.5,-180 42.5,-180 42.5,-144 145.5,-144 145.5,-180"/>
<text text-anchor="middle" x="94" y="-158.3" font-family="Times" font-size="14.00">Vala.CodeNode</text>
</a>
</g>
</g>
<!-- Vala.CodeNode&#45;&gt;Vala.Expression -->
<g id="edge2" class="edge">
<title>Vala.CodeNode&#45;&gt;Vala.Expression</title>
<path fill="none" stroke="black" d="M94,-133.67C94,-125.05 94,-115.79 94,-108.1"/>
<polygon fill="black" stroke="black" points="90.5,-133.7 94,-143.7 97.5,-133.7 90.5,-133.7"/>
</g>
</g>
</svg>
