<?xml version="1.0" encoding="UTF-8" standalone="no"?>
<!DOCTYPE svg PUBLIC "-//W3C//DTD SVG 1.1//EN"
 "http://www.w3.org/Graphics/SVG/1.1/DTD/svg11.dtd">
<!-- Generated by graphviz version 2.40.1 (0)
 -->
<!-- Title: Vala.ObjectCreationExpression Pages: 1 -->
<svg width="196pt" height="188pt"
 viewBox="0.00 0.00 196.00 188.00" xmlns="http://www.w3.org/2000/svg" xmlns:xlink="http://www.w3.org/1999/xlink">
<g id="graph0" class="graph" transform="scale(1 1) rotate(0) translate(4 184)">
<title>Vala.ObjectCreationExpression</title>
<polygon fill="#ffffff" stroke="transparent" points="-4,4 -4,-184 192,-184 192,4 -4,4"/>
<!-- Vala.ObjectCreationExpression -->
<g id="node1" class="node">
<title>Vala.ObjectCreationExpression</title>
<g id="a_node1"><a xlink:href="Vala.ObjectCreationExpression.html" xlink:title="Vala.ObjectCreationExpression">
<polygon fill="none" stroke="#000000" stroke-width="2" points="188,-36 0,-36 0,0 188,0 188,-36"/>
<text text-anchor="middle" x="94" y="-14.3" font-family="Times" font-size="14.00" fill="#000000">Vala.ObjectCreationExpression</text>
</a>
</g>
</g>
<!-- Vala.Expression -->
<g id="node2" class="node">
<title>Vala.Expression</title>
<g id="a_node2"><a xlink:href="Vala.Expression.html" xlink:title="Vala.Expression">
<polygon fill="none" stroke="#000000" stroke-width="2" points="146.5,-108 41.5,-108 41.5,-72 146.5,-72 146.5,-108"/>
<text text-anchor="middle" x="94" y="-86.3" font-family="Times" font-size="14.00" fill="#000000">Vala.Expression</text>
</a>
</g>
</g>
<!-- Vala.Expression&#45;&gt;Vala.ObjectCreationExpression -->
<g id="edge1" class="edge">
<title>Vala.Expression&#45;&gt;Vala.ObjectCreationExpression</title>
<path fill="none" stroke="#000000" d="M94,-61.5726C94,-53.1084 94,-44.0593 94,-36.4133"/>
<polygon fill="#000000" stroke="#000000" points="90.5001,-61.8313 94,-71.8314 97.5001,-61.8314 90.5001,-61.8313"/>
</g>
<!-- Vala.CodeNode -->
<g id="node3" class="node">
<title>Vala.CodeNode</title>
<g id="a_node3"><a xlink:href="Vala.CodeNode.html" xlink:title="Vala.CodeNode">
<polygon fill="none" stroke="#000000" stroke-width="2" points="145.5,-180 42.5,-180 42.5,-144 145.5,-144 145.5,-180"/>
<text text-anchor="middle" x="94" y="-158.3" font-family="Times" font-size="14.00" fill="#000000">Vala.CodeNode</text>
</a>
</g>
</g>
<!-- Vala.CodeNode&#45;&gt;Vala.Expression -->
<g id="edge2" class="edge">
<title>Vala.CodeNode&#45;&gt;Vala.Expression</title>
<path fill="none" stroke="#000000" d="M94,-133.5726C94,-125.1084 94,-116.0593 94,-108.4133"/>
<polygon fill="#000000" stroke="#000000" points="90.5001,-133.8313 94,-143.8314 97.5001,-133.8314 90.5001,-133.8313"/>
</g>
</g>
</svg>
