<?xml version="1.0" encoding="UTF-8" standalone="no"?>
<!DOCTYPE svg PUBLIC "-//W3C//DTD SVG 1.1//EN"
 "http://www.w3.org/Graphics/SVG/1.1/DTD/svg11.dtd">
<!-- Generated by graphviz version 2.40.1 (0)
 -->
<!-- Title: Vala.DynamicSignal Pages: 1 -->
<svg width="212pt" height="260pt"
 viewBox="0.00 0.00 211.50 260.00" xmlns="http://www.w3.org/2000/svg" xmlns:xlink="http://www.w3.org/1999/xlink">
<g id="graph0" class="graph" transform="scale(1 1) rotate(0) translate(4 256)">
<title>Vala.DynamicSignal</title>
<polygon fill="#ffffff" stroke="transparent" points="-4,4 -4,-256 207.5,-256 207.5,4 -4,4"/>
<!-- Vala.DynamicSignal -->
<g id="node1" class="node">
<title>Vala.DynamicSignal</title>
<g id="a_node1"><a xlink:href="Vala.DynamicSignal.html" xlink:title="Vala.DynamicSignal">
<polygon fill="none" stroke="#000000" stroke-width="2" points="169.5,-36 39.5,-36 39.5,0 169.5,0 169.5,-36"/>
<text text-anchor="middle" x="104.5" y="-14.3" font-family="Times" font-size="14.00" fill="#000000">Vala.DynamicSignal</text>
</a>
</g>
</g>
<!-- Vala.Signal -->
<g id="node2" class="node">
<title>Vala.Signal</title>
<g id="a_node2"><a xlink:href="Vala.Signal.html" xlink:title="Vala.Signal">
<polygon fill="none" stroke="#000000" stroke-width="2" points="144.5,-108 64.5,-108 64.5,-72 144.5,-72 144.5,-108"/>
<text text-anchor="middle" x="104.5" y="-86.3" font-family="Times" font-size="14.00" fill="#000000">Vala.Signal</text>
</a>
</g>
</g>
<!-- Vala.Signal&#45;&gt;Vala.DynamicSignal -->
<g id="edge1" class="edge">
<title>Vala.Signal&#45;&gt;Vala.DynamicSignal</title>
<path fill="none" stroke="#000000" d="M104.5,-61.5726C104.5,-53.1084 104.5,-44.0593 104.5,-36.4133"/>
<polygon fill="#000000" stroke="#000000" points="101.0001,-61.8313 104.5,-71.8314 108.0001,-61.8314 101.0001,-61.8313"/>
</g>
<!-- Vala.Symbol -->
<g id="node3" class="node">
<title>Vala.Symbol</title>
<g id="a_node3"><a xlink:href="Vala.Symbol.html" xlink:title="Vala.Symbol">
<polygon fill="none" stroke="#000000" stroke-width="2" points="95.5,-180 7.5,-180 7.5,-144 95.5,-144 95.5,-180"/>
<text text-anchor="middle" x="51.5" y="-158.3" font-family="Times" font-size="14.00" fill="#000000">Vala.Symbol</text>
</a>
</g>
</g>
<!-- Vala.Symbol&#45;&gt;Vala.Signal -->
<g id="edge2" class="edge">
<title>Vala.Symbol&#45;&gt;Vala.Signal</title>
<path fill="none" stroke="#000000" d="M70.9805,-135.536C77.6139,-126.5245 84.8797,-116.654 90.9458,-108.4133"/>
<polygon fill="#000000" stroke="#000000" points="67.9837,-133.7031 64.8741,-143.8314 73.621,-137.8528 67.9837,-133.7031"/>
</g>
<!-- Vala.CodeNode -->
<g id="node4" class="node">
<title>Vala.CodeNode</title>
<g id="a_node4"><a xlink:href="Vala.CodeNode.html" xlink:title="Vala.CodeNode">
<polygon fill="none" stroke="#000000" stroke-width="2" points="103,-252 0,-252 0,-216 103,-216 103,-252"/>
<text text-anchor="middle" x="51.5" y="-230.3" font-family="Times" font-size="14.00" fill="#000000">Vala.CodeNode</text>
</a>
</g>
</g>
<!-- Vala.CodeNode&#45;&gt;Vala.Symbol -->
<g id="edge3" class="edge">
<title>Vala.CodeNode&#45;&gt;Vala.Symbol</title>
<path fill="none" stroke="#000000" d="M51.5,-205.5726C51.5,-197.1084 51.5,-188.0593 51.5,-180.4133"/>
<polygon fill="#000000" stroke="#000000" points="48.0001,-205.8313 51.5,-215.8314 55.0001,-205.8314 48.0001,-205.8313"/>
</g>
<!-- Vala.Callable -->
<g id="node5" class="node">
<title>Vala.Callable</title>
<g id="a_node5"><a xlink:href="Vala.Callable.html" xlink:title="Vala.Callable">
<polygon fill="none" stroke="#000000" points="203.5,-180 113.5,-180 113.5,-144 203.5,-144 203.5,-180"/>
<text text-anchor="middle" x="158.5" y="-158.3" font-family="Times" font-size="14.00" fill="#000000">Vala.Callable</text>
</a>
</g>
</g>
<!-- Vala.Callable&#45;&gt;Vala.Signal -->
<g id="edge4" class="edge">
<title>Vala.Callable&#45;&gt;Vala.Signal</title>
<path fill="none" stroke="#000000" d="M138.8608,-135.8144C132.0462,-126.7282 124.5542,-116.7389 118.31,-108.4133"/>
<polygon fill="#000000" stroke="#000000" points="136.0735,-137.9314 144.8735,-143.8314 141.6735,-133.7313 136.0735,-137.9314"/>
</g>
</g>
</svg>
