<?xml version="1.0" encoding="UTF-8" standalone="no"?>
<!DOCTYPE svg PUBLIC "-//W3C//DTD SVG 1.1//EN"
 "http://www.w3.org/Graphics/SVG/1.1/DTD/svg11.dtd">
<!-- Generated by graphviz version 2.40.1 (0)
 -->
<!-- Title: Vala.Loop Pages: 1 -->
<svg width="230pt" height="116pt"
 viewBox="0.00 0.00 229.50 116.00" xmlns="http://www.w3.org/2000/svg" xmlns:xlink="http://www.w3.org/1999/xlink">
<g id="graph0" class="graph" transform="scale(1 1) rotate(0) translate(4 112)">
<title>Vala.Loop</title>
<polygon fill="#ffffff" stroke="transparent" points="-4,4 -4,-112 225.5,-112 225.5,4 -4,4"/>
<!-- Vala.Loop -->
<g id="node1" class="node">
<title>Vala.Loop</title>
<g id="a_node1"><a xlink:href="Vala.Loop.html" xlink:title="Vala.Loop">
<polygon fill="none" stroke="#000000" stroke-width="2" points="148.5,-36 74.5,-36 74.5,0 148.5,0 148.5,-36"/>
<text text-anchor="middle" x="111.5" y="-14.3" font-family="Times" font-size="14.00" fill="#000000">Vala.Loop</text>
</a>
</g>
</g>
<!-- Vala.CodeNode -->
<g id="node2" class="node">
<title>Vala.CodeNode</title>
<g id="a_node2"><a xlink:href="Vala.CodeNode.html" xlink:title="Vala.CodeNode">
<polygon fill="none" stroke="#000000" stroke-width="2" points="103,-108 0,-108 0,-72 103,-72 103,-108"/>
<text text-anchor="middle" x="51.5" y="-86.3" font-family="Times" font-size="14.00" fill="#000000">Vala.CodeNode</text>
</a>
</g>
</g>
<!-- Vala.CodeNode&#45;&gt;Vala.Loop -->
<g id="edge1" class="edge">
<title>Vala.CodeNode&#45;&gt;Vala.Loop</title>
<path fill="none" stroke="#000000" d="M73.0898,-64.0923C80.7231,-54.9323 89.1468,-44.8239 96.1556,-36.4133"/>
<polygon fill="#000000" stroke="#000000" points="70.3536,-61.9085 66.6405,-71.8314 75.7312,-66.3898 70.3536,-61.9085"/>
</g>
<!-- Vala.Statement -->
<g id="node3" class="node">
<title>Vala.Statement</title>
<g id="a_node3"><a xlink:href="Vala.Statement.html" xlink:title="Vala.Statement">
<polygon fill="none" stroke="#000000" points="221.5,-108 121.5,-108 121.5,-72 221.5,-72 221.5,-108"/>
<text text-anchor="middle" x="171.5" y="-86.3" font-family="Times" font-size="14.00" fill="#000000">Vala.Statement</text>
</a>
</g>
</g>
<!-- Vala.Statement&#45;&gt;Vala.Loop -->
<g id="edge2" class="edge">
<title>Vala.Statement&#45;&gt;Vala.Loop</title>
<path fill="none" stroke="#000000" d="M149.9102,-64.0923C142.2769,-54.9323 133.8532,-44.8239 126.8444,-36.4133"/>
<polygon fill="#000000" stroke="#000000" points="147.2688,-66.3898 156.3595,-71.8314 152.6464,-61.9085 147.2688,-66.3898"/>
</g>
</g>
</svg>
