<?xml version="1.0" encoding="UTF-8" standalone="no"?>
<!DOCTYPE svg PUBLIC "-//W3C//DTD SVG 1.1//EN"
 "http://www.w3.org/Graphics/SVG/1.1/DTD/svg11.dtd">
<!-- Generated by graphviz version 2.42.3 (0)
 -->
<!-- Title: Vala.ReferenceTransferExpression Pages: 1 -->
<svg width="213pt" height="188pt"
 viewBox="0.00 0.00 213.00 188.00" xmlns="http://www.w3.org/2000/svg" xmlns:xlink="http://www.w3.org/1999/xlink">
<g id="graph0" class="graph" transform="scale(1 1) rotate(0) translate(4 184)">
<title>Vala.ReferenceTransferExpression</title>
<polygon fill="white" stroke="transparent" points="-4,4 -4,-184 209,-184 209,4 -4,4"/>
<!-- Vala.ReferenceTransferExpression -->
<g id="node1" class="node">
<title>Vala.ReferenceTransferExpression</title>
<g id="a_node1"><a xlink:href="Vala.ReferenceTransferExpression.html" xlink:title="Vala.ReferenceTransferExpression">
<polygon fill="none" stroke="black" stroke-width="2" points="205,-36 0,-36 0,0 205,0 205,-36"/>
<text text-anchor="middle" x="102.5" y="-14.3" font-family="Times" font-size="14.00">Vala.ReferenceTransferExpression</text>
</a>
</g>
</g>
<!-- Vala.Expression -->
<g id="node2" class="node">
<title>Vala.Expression</title>
<g id="a_node2"><a xlink:href="Vala.Expression.html" xlink:title="Vala.Expression">
<polygon fill="none" stroke="black" stroke-width="2" points="155,-108 50,-108 50,-72 155,-72 155,-108"/>
<text text-anchor="middle" x="102.5" y="-86.3" font-family="Times" font-size="14.00">Vala.Expression</text>
</a>
</g>
</g>
<!-- Vala.Expression&#45;&gt;Vala.ReferenceTransferExpression -->
<g id="edge1" class="edge">
<title>Vala.Expression&#45;&gt;Vala.ReferenceTransferExpression</title>
<path fill="none" stroke="black" d="M102.5,-61.67C102.5,-53.05 102.5,-43.79 102.5,-36.1"/>
<polygon fill="black" stroke="black" points="99,-61.7 102.5,-71.7 106,-61.7 99,-61.7"/>
</g>
<!-- Vala.CodeNode -->
<g id="node3" class="node">
<title>Vala.CodeNode</title>
<g id="a_node3"><a xlink:href="Vala.CodeNode.html" xlink:title="Vala.CodeNode">
<polygon fill="none" stroke="black" stroke-width="2" points="154,-180 51,-180 51,-144 154,-144 154,-180"/>
<text text-anchor="middle" x="102.5" y="-158.3" font-family="Times" font-size="14.00">Vala.CodeNode</text>
</a>
</g>
</g>
<!-- Vala.CodeNode&#45;&gt;Vala.Expression -->
<g id="edge2" class="edge">
<title>Vala.CodeNode&#45;&gt;Vala.Expression</title>
<path fill="none" stroke="black" d="M102.5,-133.67C102.5,-125.05 102.5,-115.79 102.5,-108.1"/>
<polygon fill="black" stroke="black" points="99,-133.7 102.5,-143.7 106,-133.7 99,-133.7"/>
</g>
</g>
</svg>
