<?xml version="1.0" encoding="UTF-8" standalone="no"?>
<!DOCTYPE svg PUBLIC "-//W3C//DTD SVG 1.1//EN"
 "http://www.w3.org/Graphics/SVG/1.1/DTD/svg11.dtd">
<!-- Generated by graphviz version 2.42.3 (0)
 -->
<!-- Title: Vala.Method Pages: 1 -->
<svg width="220pt" height="260pt"
 viewBox="0.00 0.00 220.00 260.00" xmlns="http://www.w3.org/2000/svg" xmlns:xlink="http://www.w3.org/1999/xlink">
<g id="graph0" class="graph" transform="scale(1 1) rotate(0) translate(4 256)">
<title>Vala.Method</title>
<polygon fill="white" stroke="transparent" points="-4,4 -4,-256 216,-256 216,4 -4,4"/>
<!-- Vala.Method -->
<g id="node1" class="node">
<title>Vala.Method</title>
<g id="a_node1"><a xlink:href="Vala.Method.html" xlink:title="Vala.Method">
<polygon fill="none" stroke="black" stroke-width="2" points="153,-36 65,-36 65,0 153,0 153,-36"/>
<text text-anchor="middle" x="109" y="-14.3" font-family="Times" font-size="14.00">Vala.Method</text>
</a>
</g>
</g>
<!-- Vala.Subroutine -->
<g id="node2" class="node">
<title>Vala.Subroutine</title>
<g id="a_node2"><a xlink:href="Vala.Subroutine.html" xlink:title="Vala.Subroutine">
<polygon fill="none" stroke="black" stroke-width="2" points="104,-108 0,-108 0,-72 104,-72 104,-108"/>
<text text-anchor="middle" x="52" y="-86.3" font-family="Times" font-size="14.00">Vala.Subroutine</text>
</a>
</g>
</g>
<!-- Vala.Subroutine&#45;&gt;Vala.Method -->
<g id="edge1" class="edge">
<title>Vala.Subroutine&#45;&gt;Vala.Method</title>
<path fill="none" stroke="black" d="M72.42,-63.92C79.93,-54.69 88.26,-44.47 95.07,-36.1"/>
<polygon fill="black" stroke="black" points="69.69,-61.73 66.09,-71.7 75.12,-66.15 69.69,-61.73"/>
</g>
<!-- Vala.Symbol -->
<g id="node3" class="node">
<title>Vala.Symbol</title>
<g id="a_node3"><a xlink:href="Vala.Symbol.html" xlink:title="Vala.Symbol">
<polygon fill="none" stroke="black" stroke-width="2" points="96,-180 8,-180 8,-144 96,-144 96,-180"/>
<text text-anchor="middle" x="52" y="-158.3" font-family="Times" font-size="14.00">Vala.Symbol</text>
</a>
</g>
</g>
<!-- Vala.Symbol&#45;&gt;Vala.Subroutine -->
<g id="edge2" class="edge">
<title>Vala.Symbol&#45;&gt;Vala.Subroutine</title>
<path fill="none" stroke="black" d="M52,-133.67C52,-125.05 52,-115.79 52,-108.1"/>
<polygon fill="black" stroke="black" points="48.5,-133.7 52,-143.7 55.5,-133.7 48.5,-133.7"/>
</g>
<!-- Vala.CodeNode -->
<g id="node4" class="node">
<title>Vala.CodeNode</title>
<g id="a_node4"><a xlink:href="Vala.CodeNode.html" xlink:title="Vala.CodeNode">
<polygon fill="none" stroke="black" stroke-width="2" points="103.5,-252 0.5,-252 0.5,-216 103.5,-216 103.5,-252"/>
<text text-anchor="middle" x="52" y="-230.3" font-family="Times" font-size="14.00">Vala.CodeNode</text>
</a>
</g>
</g>
<!-- Vala.CodeNode&#45;&gt;Vala.Symbol -->
<g id="edge3" class="edge">
<title>Vala.CodeNode&#45;&gt;Vala.Symbol</title>
<path fill="none" stroke="black" d="M52,-205.67C52,-197.05 52,-187.79 52,-180.1"/>
<polygon fill="black" stroke="black" points="48.5,-205.7 52,-215.7 55.5,-205.7 48.5,-205.7"/>
</g>
<!-- Vala.Callable -->
<g id="node5" class="node">
<title>Vala.Callable</title>
<g id="a_node5"><a xlink:href="Vala.Callable.html" xlink:title="Vala.Callable">
<polygon fill="none" stroke="black" points="212,-108 122,-108 122,-72 212,-72 212,-108"/>
<text text-anchor="middle" x="167" y="-86.3" font-family="Times" font-size="14.00">Vala.Callable</text>
</a>
</g>
</g>
<!-- Vala.Callable&#45;&gt;Vala.Method -->
<g id="edge4" class="edge">
<title>Vala.Callable&#45;&gt;Vala.Method</title>
<path fill="none" stroke="black" d="M146.22,-63.92C138.58,-54.69 130.1,-44.47 123.17,-36.1"/>
<polygon fill="black" stroke="black" points="143.59,-66.23 152.66,-71.7 148.98,-61.76 143.59,-66.23"/>
</g>
</g>
</svg>
