<?xml version="1.0" encoding="UTF-8" standalone="no"?>
<!DOCTYPE svg PUBLIC "-//W3C//DTD SVG 1.1//EN"
 "http://www.w3.org/Graphics/SVG/1.1/DTD/svg11.dtd">
<!-- Generated by graphviz version 2.40.1 (0)
 -->
<!-- Title: Vala.CharacterLiteral Pages: 1 -->
<svg width="142pt" height="260pt"
 viewBox="0.00 0.00 142.00 260.00" xmlns="http://www.w3.org/2000/svg" xmlns:xlink="http://www.w3.org/1999/xlink">
<g id="graph0" class="graph" transform="scale(1 1) rotate(0) translate(4 256)">
<title>Vala.CharacterLiteral</title>
<polygon fill="#ffffff" stroke="transparent" points="-4,4 -4,-256 138,-256 138,4 -4,4"/>
<!-- Vala.CharacterLiteral -->
<g id="node1" class="node">
<title>Vala.CharacterLiteral</title>
<g id="a_node1"><a xlink:href="Vala.CharacterLiteral.html" xlink:title="Vala.CharacterLiteral">
<polygon fill="none" stroke="#000000" stroke-width="2" points="134,-36 0,-36 0,0 134,0 134,-36"/>
<text text-anchor="middle" x="67" y="-14.3" font-family="Times" font-size="14.00" fill="#000000">Vala.CharacterLiteral</text>
</a>
</g>
</g>
<!-- Vala.Literal -->
<g id="node2" class="node">
<title>Vala.Literal</title>
<g id="a_node2"><a xlink:href="Vala.Literal.html" xlink:title="Vala.Literal">
<polygon fill="none" stroke="#000000" stroke-width="2" points="107.5,-108 26.5,-108 26.5,-72 107.5,-72 107.5,-108"/>
<text text-anchor="middle" x="67" y="-86.3" font-family="Times" font-size="14.00" fill="#000000">Vala.Literal</text>
</a>
</g>
</g>
<!-- Vala.Literal&#45;&gt;Vala.CharacterLiteral -->
<g id="edge1" class="edge">
<title>Vala.Literal&#45;&gt;Vala.CharacterLiteral</title>
<path fill="none" stroke="#000000" d="M67,-61.5726C67,-53.1084 67,-44.0593 67,-36.4133"/>
<polygon fill="#000000" stroke="#000000" points="63.5001,-61.8313 67,-71.8314 70.5001,-61.8314 63.5001,-61.8313"/>
</g>
<!-- Vala.Expression -->
<g id="node3" class="node">
<title>Vala.Expression</title>
<g id="a_node3"><a xlink:href="Vala.Expression.html" xlink:title="Vala.Expression">
<polygon fill="none" stroke="#000000" stroke-width="2" points="119.5,-180 14.5,-180 14.5,-144 119.5,-144 119.5,-180"/>
<text text-anchor="middle" x="67" y="-158.3" font-family="Times" font-size="14.00" fill="#000000">Vala.Expression</text>
</a>
</g>
</g>
<!-- Vala.Expression&#45;&gt;Vala.Literal -->
<g id="edge2" class="edge">
<title>Vala.Expression&#45;&gt;Vala.Literal</title>
<path fill="none" stroke="#000000" d="M67,-133.5726C67,-125.1084 67,-116.0593 67,-108.4133"/>
<polygon fill="#000000" stroke="#000000" points="63.5001,-133.8313 67,-143.8314 70.5001,-133.8314 63.5001,-133.8313"/>
</g>
<!-- Vala.CodeNode -->
<g id="node4" class="node">
<title>Vala.CodeNode</title>
<g id="a_node4"><a xlink:href="Vala.CodeNode.html" xlink:title="Vala.CodeNode">
<polygon fill="none" stroke="#000000" stroke-width="2" points="118.5,-252 15.5,-252 15.5,-216 118.5,-216 118.5,-252"/>
<text text-anchor="middle" x="67" y="-230.3" font-family="Times" font-size="14.00" fill="#000000">Vala.CodeNode</text>
</a>
</g>
</g>
<!-- Vala.CodeNode&#45;&gt;Vala.Expression -->
<g id="edge3" class="edge">
<title>Vala.CodeNode&#45;&gt;Vala.Expression</title>
<path fill="none" stroke="#000000" d="M67,-205.5726C67,-197.1084 67,-188.0593 67,-180.4133"/>
<polygon fill="#000000" stroke="#000000" points="63.5001,-205.8313 67,-215.8314 70.5001,-205.8314 63.5001,-205.8313"/>
</g>
</g>
</svg>
