<?xml version="1.0" encoding="UTF-8" standalone="no"?>
<!DOCTYPE svg PUBLIC "-//W3C//DTD SVG 1.1//EN"
 "http://www.w3.org/Graphics/SVG/1.1/DTD/svg11.dtd">
<!-- Generated by graphviz version 2.40.1 (20161225.0304)
 -->
<!-- Title: Vala.Field Pages: 1 -->
<svg width="217pt" height="260pt"
 viewBox="0.00 0.00 216.50 260.00" xmlns="http://www.w3.org/2000/svg" xmlns:xlink="http://www.w3.org/1999/xlink">
<g id="graph0" class="graph" transform="scale(1 1) rotate(0) translate(4 256)">
<title>Vala.Field</title>
<polygon fill="#ffffff" stroke="transparent" points="-4,4 -4,-256 212.5,-256 212.5,4 -4,4"/>
<!-- Vala.Field -->
<g id="node1" class="node">
<title>Vala.Field</title>
<g id="a_node1"><a xlink:href="Vala.Field.html" xlink:title="Vala.Field">
<polygon fill="none" stroke="#000000" stroke-width="2" points="142,-36 70,-36 70,0 142,0 142,-36"/>
<text text-anchor="middle" x="106" y="-14.3" font-family="Times" font-size="14.00" fill="#000000">Vala.Field</text>
</a>
</g>
</g>
<!-- Vala.Variable -->
<g id="node2" class="node">
<title>Vala.Variable</title>
<g id="a_node2"><a xlink:href="Vala.Variable.html" xlink:title="Vala.Variable">
<polygon fill="none" stroke="#000000" stroke-width="2" points="95.5,-108 6.5,-108 6.5,-72 95.5,-72 95.5,-108"/>
<text text-anchor="middle" x="51" y="-86.3" font-family="Times" font-size="14.00" fill="#000000">Vala.Variable</text>
</a>
</g>
</g>
<!-- Vala.Variable&#45;&gt;Vala.Field -->
<g id="edge1" class="edge">
<title>Vala.Variable&#45;&gt;Vala.Field</title>
<path fill="none" stroke="#000000" d="M71.0029,-63.8144C77.9437,-54.7282 85.5744,-44.7389 91.9343,-36.4133"/>
<polygon fill="#000000" stroke="#000000" points="68.1679,-61.76 64.8788,-71.8314 73.7306,-66.0093 68.1679,-61.76"/>
</g>
<!-- Vala.Symbol -->
<g id="node3" class="node">
<title>Vala.Symbol</title>
<g id="a_node3"><a xlink:href="Vala.Symbol.html" xlink:title="Vala.Symbol">
<polygon fill="none" stroke="#000000" stroke-width="2" points="94.5,-180 7.5,-180 7.5,-144 94.5,-144 94.5,-180"/>
<text text-anchor="middle" x="51" y="-158.3" font-family="Times" font-size="14.00" fill="#000000">Vala.Symbol</text>
</a>
</g>
</g>
<!-- Vala.Symbol&#45;&gt;Vala.Variable -->
<g id="edge2" class="edge">
<title>Vala.Symbol&#45;&gt;Vala.Variable</title>
<path fill="none" stroke="#000000" d="M51,-133.5726C51,-125.1084 51,-116.0593 51,-108.4133"/>
<polygon fill="#000000" stroke="#000000" points="47.5001,-133.8313 51,-143.8314 54.5001,-133.8314 47.5001,-133.8313"/>
</g>
<!-- Vala.CodeNode -->
<g id="node4" class="node">
<title>Vala.CodeNode</title>
<g id="a_node4"><a xlink:href="Vala.CodeNode.html" xlink:title="Vala.CodeNode">
<polygon fill="none" stroke="#000000" stroke-width="2" points="102,-252 0,-252 0,-216 102,-216 102,-252"/>
<text text-anchor="middle" x="51" y="-230.3" font-family="Times" font-size="14.00" fill="#000000">Vala.CodeNode</text>
</a>
</g>
</g>
<!-- Vala.CodeNode&#45;&gt;Vala.Symbol -->
<g id="edge3" class="edge">
<title>Vala.CodeNode&#45;&gt;Vala.Symbol</title>
<path fill="none" stroke="#000000" d="M51,-205.5726C51,-197.1084 51,-188.0593 51,-180.4133"/>
<polygon fill="#000000" stroke="#000000" points="47.5001,-205.8313 51,-215.8314 54.5001,-205.8314 47.5001,-205.8313"/>
</g>
<!-- Vala.Lockable -->
<g id="node5" class="node">
<title>Vala.Lockable</title>
<g id="a_node5"><a xlink:href="Vala.Lockable.html" xlink:title="Vala.Lockable">
<polygon fill="none" stroke="#000000" points="208.5,-108 113.5,-108 113.5,-72 208.5,-72 208.5,-108"/>
<text text-anchor="middle" x="161" y="-86.3" font-family="Times" font-size="14.00" fill="#000000">Vala.Lockable</text>
</a>
</g>
</g>
<!-- Vala.Lockable&#45;&gt;Vala.Field -->
<g id="edge4" class="edge">
<title>Vala.Lockable&#45;&gt;Vala.Field</title>
<path fill="none" stroke="#000000" d="M140.9971,-63.8144C134.0563,-54.7282 126.4256,-44.7389 120.0657,-36.4133"/>
<polygon fill="#000000" stroke="#000000" points="138.2694,-66.0093 147.1212,-71.8314 143.8321,-61.76 138.2694,-66.0093"/>
</g>
</g>
</svg>
