<?xml version="1.0" encoding="UTF-8" standalone="no"?>
<!DOCTYPE svg PUBLIC "-//W3C//DTD SVG 1.1//EN"
 "http://www.w3.org/Graphics/SVG/1.1/DTD/svg11.dtd">
<!-- Generated by graphviz version 2.40.1 (0)
 -->
<!-- Title: Vala.Property Pages: 1 -->
<svg width="218pt" height="188pt"
 viewBox="0.00 0.00 217.50 188.00" xmlns="http://www.w3.org/2000/svg" xmlns:xlink="http://www.w3.org/1999/xlink">
<g id="graph0" class="graph" transform="scale(1 1) rotate(0) translate(4 184)">
<title>Vala.Property</title>
<polygon fill="#ffffff" stroke="transparent" points="-4,4 -4,-184 213.5,-184 213.5,4 -4,4"/>
<!-- Vala.Property -->
<g id="node1" class="node">
<title>Vala.Property</title>
<g id="a_node1"><a xlink:href="Vala.Property.html" xlink:title="Vala.Property">
<polygon fill="none" stroke="#000000" stroke-width="2" points="152.5,-36 60.5,-36 60.5,0 152.5,0 152.5,-36"/>
<text text-anchor="middle" x="106.5" y="-14.3" font-family="Times" font-size="14.00" fill="#000000">Vala.Property</text>
</a>
</g>
</g>
<!-- Vala.Symbol -->
<g id="node2" class="node">
<title>Vala.Symbol</title>
<g id="a_node2"><a xlink:href="Vala.Symbol.html" xlink:title="Vala.Symbol">
<polygon fill="none" stroke="#000000" stroke-width="2" points="95.5,-108 7.5,-108 7.5,-72 95.5,-72 95.5,-108"/>
<text text-anchor="middle" x="51.5" y="-86.3" font-family="Times" font-size="14.00" fill="#000000">Vala.Symbol</text>
</a>
</g>
</g>
<!-- Vala.Symbol&#45;&gt;Vala.Property -->
<g id="edge1" class="edge">
<title>Vala.Symbol&#45;&gt;Vala.Property</title>
<path fill="none" stroke="#000000" d="M71.5029,-63.8144C78.4437,-54.7282 86.0744,-44.7389 92.4343,-36.4133"/>
<polygon fill="#000000" stroke="#000000" points="68.6679,-61.76 65.3788,-71.8314 74.2306,-66.0093 68.6679,-61.76"/>
</g>
<!-- Vala.CodeNode -->
<g id="node3" class="node">
<title>Vala.CodeNode</title>
<g id="a_node3"><a xlink:href="Vala.CodeNode.html" xlink:title="Vala.CodeNode">
<polygon fill="none" stroke="#000000" stroke-width="2" points="103,-180 0,-180 0,-144 103,-144 103,-180"/>
<text text-anchor="middle" x="51.5" y="-158.3" font-family="Times" font-size="14.00" fill="#000000">Vala.CodeNode</text>
</a>
</g>
</g>
<!-- Vala.CodeNode&#45;&gt;Vala.Symbol -->
<g id="edge2" class="edge">
<title>Vala.CodeNode&#45;&gt;Vala.Symbol</title>
<path fill="none" stroke="#000000" d="M51.5,-133.5726C51.5,-125.1084 51.5,-116.0593 51.5,-108.4133"/>
<polygon fill="#000000" stroke="#000000" points="48.0001,-133.8313 51.5,-143.8314 55.0001,-133.8314 48.0001,-133.8313"/>
</g>
<!-- Vala.Lockable -->
<g id="node4" class="node">
<title>Vala.Lockable</title>
<g id="a_node4"><a xlink:href="Vala.Lockable.html" xlink:title="Vala.Lockable">
<polygon fill="none" stroke="#000000" points="209.5,-108 113.5,-108 113.5,-72 209.5,-72 209.5,-108"/>
<text text-anchor="middle" x="161.5" y="-86.3" font-family="Times" font-size="14.00" fill="#000000">Vala.Lockable</text>
</a>
</g>
</g>
<!-- Vala.Lockable&#45;&gt;Vala.Property -->
<g id="edge3" class="edge">
<title>Vala.Lockable&#45;&gt;Vala.Property</title>
<path fill="none" stroke="#000000" d="M141.4971,-63.8144C134.5563,-54.7282 126.9256,-44.7389 120.5657,-36.4133"/>
<polygon fill="#000000" stroke="#000000" points="138.7694,-66.0093 147.6212,-71.8314 144.3321,-61.76 138.7694,-66.0093"/>
</g>
</g>
</svg>
