<?xml version="1.0" encoding="UTF-8" standalone="no"?>
<!DOCTYPE svg PUBLIC "-//W3C//DTD SVG 1.1//EN"
 "http://www.w3.org/Graphics/SVG/1.1/DTD/svg11.dtd">
<!-- Generated by graphviz version 2.40.1 (0)
 -->
<!-- Title: Vala.ElementAccess Pages: 1 -->
<svg width="137pt" height="188pt"
 viewBox="0.00 0.00 137.00 188.00" xmlns="http://www.w3.org/2000/svg" xmlns:xlink="http://www.w3.org/1999/xlink">
<g id="graph0" class="graph" transform="scale(1 1) rotate(0) translate(4 184)">
<title>Vala.ElementAccess</title>
<polygon fill="#ffffff" stroke="transparent" points="-4,4 -4,-184 133,-184 133,4 -4,4"/>
<!-- Vala.ElementAccess -->
<g id="node1" class="node">
<title>Vala.ElementAccess</title>
<g id="a_node1"><a xlink:href="Vala.ElementAccess.html" xlink:title="Vala.ElementAccess">
<polygon fill="none" stroke="#000000" stroke-width="2" points="129,-36 0,-36 0,0 129,0 129,-36"/>
<text text-anchor="middle" x="64.5" y="-14.3" font-family="Times" font-size="14.00" fill="#000000">Vala.ElementAccess</text>
</a>
</g>
</g>
<!-- Vala.Expression -->
<g id="node2" class="node">
<title>Vala.Expression</title>
<g id="a_node2"><a xlink:href="Vala.Expression.html" xlink:title="Vala.Expression">
<polygon fill="none" stroke="#000000" stroke-width="2" points="117,-108 12,-108 12,-72 117,-72 117,-108"/>
<text text-anchor="middle" x="64.5" y="-86.3" font-family="Times" font-size="14.00" fill="#000000">Vala.Expression</text>
</a>
</g>
</g>
<!-- Vala.Expression&#45;&gt;Vala.ElementAccess -->
<g id="edge1" class="edge">
<title>Vala.Expression&#45;&gt;Vala.ElementAccess</title>
<path fill="none" stroke="#000000" d="M64.5,-61.5726C64.5,-53.1084 64.5,-44.0593 64.5,-36.4133"/>
<polygon fill="#000000" stroke="#000000" points="61.0001,-61.8313 64.5,-71.8314 68.0001,-61.8314 61.0001,-61.8313"/>
</g>
<!-- Vala.CodeNode -->
<g id="node3" class="node">
<title>Vala.CodeNode</title>
<g id="a_node3"><a xlink:href="Vala.CodeNode.html" xlink:title="Vala.CodeNode">
<polygon fill="none" stroke="#000000" stroke-width="2" points="116,-180 13,-180 13,-144 116,-144 116,-180"/>
<text text-anchor="middle" x="64.5" y="-158.3" font-family="Times" font-size="14.00" fill="#000000">Vala.CodeNode</text>
</a>
</g>
</g>
<!-- Vala.CodeNode&#45;&gt;Vala.Expression -->
<g id="edge2" class="edge">
<title>Vala.CodeNode&#45;&gt;Vala.Expression</title>
<path fill="none" stroke="#000000" d="M64.5,-133.5726C64.5,-125.1084 64.5,-116.0593 64.5,-108.4133"/>
<polygon fill="#000000" stroke="#000000" points="61.0001,-133.8313 64.5,-143.8314 68.0001,-133.8314 61.0001,-133.8313"/>
</g>
</g>
</svg>
