<?xml version="1.0" encoding="UTF-8" standalone="no"?>
<!DOCTYPE svg PUBLIC "-//W3C//DTD SVG 1.1//EN"
 "http://www.w3.org/Graphics/SVG/1.1/DTD/svg11.dtd">
<!-- Generated by graphviz version 2.42.3 (0)
 -->
<!-- Title: Vala.DynamicProperty Pages: 1 -->
<svg width="218pt" height="260pt"
 viewBox="0.00 0.00 217.50 260.00" xmlns="http://www.w3.org/2000/svg" xmlns:xlink="http://www.w3.org/1999/xlink">
<g id="graph0" class="graph" transform="scale(1 1) rotate(0) translate(4 256)">
<title>Vala.DynamicProperty</title>
<polygon fill="white" stroke="transparent" points="-4,4 -4,-256 213.5,-256 213.5,4 -4,4"/>
<!-- Vala.DynamicProperty -->
<g id="node1" class="node">
<title>Vala.DynamicProperty</title>
<g id="a_node1"><a xlink:href="Vala.DynamicProperty.html" xlink:title="Vala.DynamicProperty">
<polygon fill="none" stroke="black" stroke-width="2" points="178,-36 35,-36 35,0 178,0 178,-36"/>
<text text-anchor="middle" x="106.5" y="-14.3" font-family="Times" font-size="14.00">Vala.DynamicProperty</text>
</a>
</g>
</g>
<!-- Vala.Property -->
<g id="node2" class="node">
<title>Vala.Property</title>
<g id="a_node2"><a xlink:href="Vala.Property.html" xlink:title="Vala.Property">
<polygon fill="none" stroke="black" stroke-width="2" points="152.5,-108 60.5,-108 60.5,-72 152.5,-72 152.5,-108"/>
<text text-anchor="middle" x="106.5" y="-86.3" font-family="Times" font-size="14.00">Vala.Property</text>
</a>
</g>
</g>
<!-- Vala.Property&#45;&gt;Vala.DynamicProperty -->
<g id="edge1" class="edge">
<title>Vala.Property&#45;&gt;Vala.DynamicProperty</title>
<path fill="none" stroke="black" d="M106.5,-61.67C106.5,-53.05 106.5,-43.79 106.5,-36.1"/>
<polygon fill="black" stroke="black" points="103,-61.7 106.5,-71.7 110,-61.7 103,-61.7"/>
</g>
<!-- Vala.Symbol -->
<g id="node3" class="node">
<title>Vala.Symbol</title>
<g id="a_node3"><a xlink:href="Vala.Symbol.html" xlink:title="Vala.Symbol">
<polygon fill="none" stroke="black" stroke-width="2" points="95.5,-180 7.5,-180 7.5,-144 95.5,-144 95.5,-180"/>
<text text-anchor="middle" x="51.5" y="-158.3" font-family="Times" font-size="14.00">Vala.Symbol</text>
</a>
</g>
</g>
<!-- Vala.Symbol&#45;&gt;Vala.Property -->
<g id="edge2" class="edge">
<title>Vala.Symbol&#45;&gt;Vala.Property</title>
<path fill="none" stroke="black" d="M71.43,-135.64C78.62,-126.49 86.56,-116.38 93.06,-108.1"/>
<polygon fill="black" stroke="black" points="68.52,-133.67 65.1,-143.7 74.03,-138 68.52,-133.67"/>
</g>
<!-- Vala.CodeNode -->
<g id="node4" class="node">
<title>Vala.CodeNode</title>
<g id="a_node4"><a xlink:href="Vala.CodeNode.html" xlink:title="Vala.CodeNode">
<polygon fill="none" stroke="black" stroke-width="2" points="103,-252 0,-252 0,-216 103,-216 103,-252"/>
<text text-anchor="middle" x="51.5" y="-230.3" font-family="Times" font-size="14.00">Vala.CodeNode</text>
</a>
</g>
</g>
<!-- Vala.CodeNode&#45;&gt;Vala.Symbol -->
<g id="edge3" class="edge">
<title>Vala.CodeNode&#45;&gt;Vala.Symbol</title>
<path fill="none" stroke="black" d="M51.5,-205.67C51.5,-197.05 51.5,-187.79 51.5,-180.1"/>
<polygon fill="black" stroke="black" points="48,-205.7 51.5,-215.7 55,-205.7 48,-205.7"/>
</g>
<!-- Vala.Lockable -->
<g id="node5" class="node">
<title>Vala.Lockable</title>
<g id="a_node5"><a xlink:href="Vala.Lockable.html" xlink:title="Vala.Lockable">
<polygon fill="none" stroke="black" points="209.5,-180 113.5,-180 113.5,-144 209.5,-144 209.5,-180"/>
<text text-anchor="middle" x="161.5" y="-158.3" font-family="Times" font-size="14.00">Vala.Lockable</text>
</a>
</g>
</g>
<!-- Vala.Lockable&#45;&gt;Vala.Property -->
<g id="edge4" class="edge">
<title>Vala.Lockable&#45;&gt;Vala.Property</title>
<path fill="none" stroke="black" d="M141.57,-135.64C134.38,-126.49 126.44,-116.38 119.94,-108.1"/>
<polygon fill="black" stroke="black" points="138.97,-138 147.9,-143.7 144.48,-133.67 138.97,-138"/>
</g>
</g>
</svg>
