<?xml version="1.0" encoding="UTF-8" standalone="no"?>
<!DOCTYPE svg PUBLIC "-//W3C//DTD SVG 1.1//EN"
 "http://www.w3.org/Graphics/SVG/1.1/DTD/svg11.dtd">
<!-- Generated by graphviz version 2.40.1 (20161225.0304)
 -->
<!-- Title: Vala.ErrorCode Pages: 1 -->
<svg width="132pt" height="260pt"
 viewBox="0.00 0.00 132.00 260.00" xmlns="http://www.w3.org/2000/svg" xmlns:xlink="http://www.w3.org/1999/xlink">
<g id="graph0" class="graph" transform="scale(1 1) rotate(0) translate(4 256)">
<title>Vala.ErrorCode</title>
<polygon fill="#ffffff" stroke="transparent" points="-4,4 -4,-256 128,-256 128,4 -4,4"/>
<!-- Vala.ErrorCode -->
<g id="node1" class="node">
<title>Vala.ErrorCode</title>
<g id="a_node1"><a xlink:href="Vala.ErrorCode.html" xlink:title="Vala.ErrorCode">
<polygon fill="none" stroke="#000000" stroke-width="2" points="118.5,-36 5.5,-36 5.5,0 118.5,0 118.5,-36"/>
<text text-anchor="middle" x="62" y="-14.3" font-family="Times" font-size="14.00" fill="#000000">Vala.ErrorCode</text>
</a>
</g>
</g>
<!-- Vala.TypeSymbol -->
<g id="node2" class="node">
<title>Vala.TypeSymbol</title>
<g id="a_node2"><a xlink:href="Vala.TypeSymbol.html" xlink:title="Vala.TypeSymbol">
<polygon fill="none" stroke="#000000" stroke-width="2" points="124,-108 0,-108 0,-72 124,-72 124,-108"/>
<text text-anchor="middle" x="62" y="-86.3" font-family="Times" font-size="14.00" fill="#000000">Vala.TypeSymbol</text>
</a>
</g>
</g>
<!-- Vala.TypeSymbol&#45;&gt;Vala.ErrorCode -->
<g id="edge1" class="edge">
<title>Vala.TypeSymbol&#45;&gt;Vala.ErrorCode</title>
<path fill="none" stroke="#000000" d="M62,-61.5726C62,-53.1084 62,-44.0593 62,-36.4133"/>
<polygon fill="#000000" stroke="#000000" points="58.5001,-61.8313 62,-71.8314 65.5001,-61.8314 58.5001,-61.8313"/>
</g>
<!-- Vala.Symbol -->
<g id="node3" class="node">
<title>Vala.Symbol</title>
<g id="a_node3"><a xlink:href="Vala.Symbol.html" xlink:title="Vala.Symbol">
<polygon fill="none" stroke="#000000" stroke-width="2" points="109.5,-180 14.5,-180 14.5,-144 109.5,-144 109.5,-180"/>
<text text-anchor="middle" x="62" y="-158.3" font-family="Times" font-size="14.00" fill="#000000">Vala.Symbol</text>
</a>
</g>
</g>
<!-- Vala.Symbol&#45;&gt;Vala.TypeSymbol -->
<g id="edge2" class="edge">
<title>Vala.Symbol&#45;&gt;Vala.TypeSymbol</title>
<path fill="none" stroke="#000000" d="M62,-133.5726C62,-125.1084 62,-116.0593 62,-108.4133"/>
<polygon fill="#000000" stroke="#000000" points="58.5001,-133.8313 62,-143.8314 65.5001,-133.8314 58.5001,-133.8313"/>
</g>
<!-- Vala.CodeNode -->
<g id="node4" class="node">
<title>Vala.CodeNode</title>
<g id="a_node4"><a xlink:href="Vala.CodeNode.html" xlink:title="Vala.CodeNode">
<polygon fill="none" stroke="#000000" stroke-width="2" points="118.5,-252 5.5,-252 5.5,-216 118.5,-216 118.5,-252"/>
<text text-anchor="middle" x="62" y="-230.3" font-family="Times" font-size="14.00" fill="#000000">Vala.CodeNode</text>
</a>
</g>
</g>
<!-- Vala.CodeNode&#45;&gt;Vala.Symbol -->
<g id="edge3" class="edge">
<title>Vala.CodeNode&#45;&gt;Vala.Symbol</title>
<path fill="none" stroke="#000000" d="M62,-205.5726C62,-197.1084 62,-188.0593 62,-180.4133"/>
<polygon fill="#000000" stroke="#000000" points="58.5001,-205.8313 62,-215.8314 65.5001,-205.8314 58.5001,-205.8313"/>
</g>
</g>
</svg>
