<?xml version="1.0" encoding="UTF-8" standalone="no"?>
<!DOCTYPE svg PUBLIC "-//W3C//DTD SVG 1.1//EN"
 "http://www.w3.org/Graphics/SVG/1.1/DTD/svg11.dtd">
<!-- Generated by graphviz version 2.40.1 (0)
 -->
<!-- Title: Vala.TypeParameter Pages: 1 -->
<svg width="135pt" height="188pt"
 viewBox="0.00 0.00 135.00 188.00" xmlns="http://www.w3.org/2000/svg" xmlns:xlink="http://www.w3.org/1999/xlink">
<g id="graph0" class="graph" transform="scale(1 1) rotate(0) translate(4 184)">
<title>Vala.TypeParameter</title>
<polygon fill="#ffffff" stroke="transparent" points="-4,4 -4,-184 131,-184 131,4 -4,4"/>
<!-- Vala.TypeParameter -->
<g id="node1" class="node">
<title>Vala.TypeParameter</title>
<g id="a_node1"><a xlink:href="Vala.TypeParameter.html" xlink:title="Vala.TypeParameter">
<polygon fill="none" stroke="#000000" stroke-width="2" points="127,-36 0,-36 0,0 127,0 127,-36"/>
<text text-anchor="middle" x="63.5" y="-14.3" font-family="Times" font-size="14.00" fill="#000000">Vala.TypeParameter</text>
</a>
</g>
</g>
<!-- Vala.Symbol -->
<g id="node2" class="node">
<title>Vala.Symbol</title>
<g id="a_node2"><a xlink:href="Vala.Symbol.html" xlink:title="Vala.Symbol">
<polygon fill="none" stroke="#000000" stroke-width="2" points="107.5,-108 19.5,-108 19.5,-72 107.5,-72 107.5,-108"/>
<text text-anchor="middle" x="63.5" y="-86.3" font-family="Times" font-size="14.00" fill="#000000">Vala.Symbol</text>
</a>
</g>
</g>
<!-- Vala.Symbol&#45;&gt;Vala.TypeParameter -->
<g id="edge1" class="edge">
<title>Vala.Symbol&#45;&gt;Vala.TypeParameter</title>
<path fill="none" stroke="#000000" d="M63.5,-61.5726C63.5,-53.1084 63.5,-44.0593 63.5,-36.4133"/>
<polygon fill="#000000" stroke="#000000" points="60.0001,-61.8313 63.5,-71.8314 67.0001,-61.8314 60.0001,-61.8313"/>
</g>
<!-- Vala.CodeNode -->
<g id="node3" class="node">
<title>Vala.CodeNode</title>
<g id="a_node3"><a xlink:href="Vala.CodeNode.html" xlink:title="Vala.CodeNode">
<polygon fill="none" stroke="#000000" stroke-width="2" points="115,-180 12,-180 12,-144 115,-144 115,-180"/>
<text text-anchor="middle" x="63.5" y="-158.3" font-family="Times" font-size="14.00" fill="#000000">Vala.CodeNode</text>
</a>
</g>
</g>
<!-- Vala.CodeNode&#45;&gt;Vala.Symbol -->
<g id="edge2" class="edge">
<title>Vala.CodeNode&#45;&gt;Vala.Symbol</title>
<path fill="none" stroke="#000000" d="M63.5,-133.5726C63.5,-125.1084 63.5,-116.0593 63.5,-108.4133"/>
<polygon fill="#000000" stroke="#000000" points="60.0001,-133.8313 63.5,-143.8314 67.0001,-133.8314 60.0001,-133.8313"/>
</g>
</g>
</svg>
