<?xml version="1.0" encoding="UTF-8" standalone="no"?>
<!DOCTYPE svg PUBLIC "-//W3C//DTD SVG 1.1//EN"
 "http://www.w3.org/Graphics/SVG/1.1/DTD/svg11.dtd">
<!-- Generated by graphviz version 2.42.3 (0)
 -->
<!-- Title: Vala.DelegateType Pages: 1 -->
<svg width="128pt" height="260pt"
 viewBox="0.00 0.00 128.00 260.00" xmlns="http://www.w3.org/2000/svg" xmlns:xlink="http://www.w3.org/1999/xlink">
<g id="graph0" class="graph" transform="scale(1 1) rotate(0) translate(4 256)">
<title>Vala.DelegateType</title>
<polygon fill="white" stroke="transparent" points="-4,4 -4,-256 124,-256 124,4 -4,4"/>
<!-- Vala.DelegateType -->
<g id="node1" class="node">
<title>Vala.DelegateType</title>
<g id="a_node1"><a xlink:href="Vala.DelegateType.html" xlink:title="Vala.DelegateType">
<polygon fill="none" stroke="black" stroke-width="2" points="120,-36 0,-36 0,0 120,0 120,-36"/>
<text text-anchor="middle" x="60" y="-14.3" font-family="Times" font-size="14.00">Vala.DelegateType</text>
</a>
</g>
</g>
<!-- Vala.CallableType -->
<g id="node2" class="node">
<title>Vala.CallableType</title>
<g id="a_node2"><a xlink:href="Vala.CallableType.html" xlink:title="Vala.CallableType">
<polygon fill="none" stroke="black" stroke-width="2" points="118,-108 2,-108 2,-72 118,-72 118,-108"/>
<text text-anchor="middle" x="60" y="-86.3" font-family="Times" font-size="14.00">Vala.CallableType</text>
</a>
</g>
</g>
<!-- Vala.CallableType&#45;&gt;Vala.DelegateType -->
<g id="edge1" class="edge">
<title>Vala.CallableType&#45;&gt;Vala.DelegateType</title>
<path fill="none" stroke="black" d="M60,-61.67C60,-53.05 60,-43.79 60,-36.1"/>
<polygon fill="black" stroke="black" points="56.5,-61.7 60,-71.7 63.5,-61.7 56.5,-61.7"/>
</g>
<!-- Vala.DataType -->
<g id="node3" class="node">
<title>Vala.DataType</title>
<g id="a_node3"><a xlink:href="Vala.DataType.html" xlink:title="Vala.DataType">
<polygon fill="none" stroke="black" stroke-width="2" points="108.5,-180 11.5,-180 11.5,-144 108.5,-144 108.5,-180"/>
<text text-anchor="middle" x="60" y="-158.3" font-family="Times" font-size="14.00">Vala.DataType</text>
</a>
</g>
</g>
<!-- Vala.DataType&#45;&gt;Vala.CallableType -->
<g id="edge2" class="edge">
<title>Vala.DataType&#45;&gt;Vala.CallableType</title>
<path fill="none" stroke="black" d="M60,-133.67C60,-125.05 60,-115.79 60,-108.1"/>
<polygon fill="black" stroke="black" points="56.5,-133.7 60,-143.7 63.5,-133.7 56.5,-133.7"/>
</g>
<!-- Vala.CodeNode -->
<g id="node4" class="node">
<title>Vala.CodeNode</title>
<g id="a_node4"><a xlink:href="Vala.CodeNode.html" xlink:title="Vala.CodeNode">
<polygon fill="none" stroke="black" stroke-width="2" points="111.5,-252 8.5,-252 8.5,-216 111.5,-216 111.5,-252"/>
<text text-anchor="middle" x="60" y="-230.3" font-family="Times" font-size="14.00">Vala.CodeNode</text>
</a>
</g>
</g>
<!-- Vala.CodeNode&#45;&gt;Vala.DataType -->
<g id="edge3" class="edge">
<title>Vala.CodeNode&#45;&gt;Vala.DataType</title>
<path fill="none" stroke="black" d="M60,-205.67C60,-197.05 60,-187.79 60,-180.1"/>
<polygon fill="black" stroke="black" points="56.5,-205.7 60,-215.7 63.5,-205.7 56.5,-205.7"/>
</g>
</g>
</svg>
