<?xml version="1.0" encoding="UTF-8" standalone="no"?>
<!DOCTYPE svg PUBLIC "-//W3C//DTD SVG 1.1//EN"
 "http://www.w3.org/Graphics/SVG/1.1/DTD/svg11.dtd">
<!-- Generated by graphviz version 2.42.3 (0)
 -->
<!-- Title: Vala.ConditionalExpression Pages: 1 -->
<svg width="177pt" height="188pt"
 viewBox="0.00 0.00 177.00 188.00" xmlns="http://www.w3.org/2000/svg" xmlns:xlink="http://www.w3.org/1999/xlink">
<g id="graph0" class="graph" transform="scale(1 1) rotate(0) translate(4 184)">
<title>Vala.ConditionalExpression</title>
<polygon fill="white" stroke="transparent" points="-4,4 -4,-184 173,-184 173,4 -4,4"/>
<!-- Vala.ConditionalExpression -->
<g id="node1" class="node">
<title>Vala.ConditionalExpression</title>
<g id="a_node1"><a xlink:href="Vala.ConditionalExpression.html" xlink:title="Vala.ConditionalExpression">
<polygon fill="none" stroke="black" stroke-width="2" points="169,-36 0,-36 0,0 169,0 169,-36"/>
<text text-anchor="middle" x="84.5" y="-14.3" font-family="Times" font-size="14.00">Vala.ConditionalExpression</text>
</a>
</g>
</g>
<!-- Vala.Expression -->
<g id="node2" class="node">
<title>Vala.Expression</title>
<g id="a_node2"><a xlink:href="Vala.Expression.html" xlink:title="Vala.Expression">
<polygon fill="none" stroke="black" stroke-width="2" points="137,-108 32,-108 32,-72 137,-72 137,-108"/>
<text text-anchor="middle" x="84.5" y="-86.3" font-family="Times" font-size="14.00">Vala.Expression</text>
</a>
</g>
</g>
<!-- Vala.Expression&#45;&gt;Vala.ConditionalExpression -->
<g id="edge1" class="edge">
<title>Vala.Expression&#45;&gt;Vala.ConditionalExpression</title>
<path fill="none" stroke="black" d="M84.5,-61.67C84.5,-53.05 84.5,-43.79 84.5,-36.1"/>
<polygon fill="black" stroke="black" points="81,-61.7 84.5,-71.7 88,-61.7 81,-61.7"/>
</g>
<!-- Vala.CodeNode -->
<g id="node3" class="node">
<title>Vala.CodeNode</title>
<g id="a_node3"><a xlink:href="Vala.CodeNode.html" xlink:title="Vala.CodeNode">
<polygon fill="none" stroke="black" stroke-width="2" points="136,-180 33,-180 33,-144 136,-144 136,-180"/>
<text text-anchor="middle" x="84.5" y="-158.3" font-family="Times" font-size="14.00">Vala.CodeNode</text>
</a>
</g>
</g>
<!-- Vala.CodeNode&#45;&gt;Vala.Expression -->
<g id="edge2" class="edge">
<title>Vala.CodeNode&#45;&gt;Vala.Expression</title>
<path fill="none" stroke="black" d="M84.5,-133.67C84.5,-125.05 84.5,-115.79 84.5,-108.1"/>
<polygon fill="black" stroke="black" points="81,-133.7 84.5,-143.7 88,-133.7 81,-133.7"/>
</g>
</g>
</svg>
