<?xml version="1.0" encoding="UTF-8" standalone="no"?>
<!DOCTYPE svg PUBLIC "-//W3C//DTD SVG 1.1//EN"
 "http://www.w3.org/Graphics/SVG/1.1/DTD/svg11.dtd">
<!-- Generated by graphviz version 2.40.1 (0)
 -->
<!-- Title: Vala.StringLiteral Pages: 1 -->
<svg width="123pt" height="260pt"
 viewBox="0.00 0.00 123.00 260.00" xmlns="http://www.w3.org/2000/svg" xmlns:xlink="http://www.w3.org/1999/xlink">
<g id="graph0" class="graph" transform="scale(1 1) rotate(0) translate(4 256)">
<title>Vala.StringLiteral</title>
<polygon fill="#ffffff" stroke="transparent" points="-4,4 -4,-256 119,-256 119,4 -4,4"/>
<!-- Vala.StringLiteral -->
<g id="node1" class="node">
<title>Vala.StringLiteral</title>
<g id="a_node1"><a xlink:href="Vala.StringLiteral.html" xlink:title="Vala.StringLiteral">
<polygon fill="none" stroke="#000000" stroke-width="2" points="115,-36 0,-36 0,0 115,0 115,-36"/>
<text text-anchor="middle" x="57.5" y="-14.3" font-family="Times" font-size="14.00" fill="#000000">Vala.StringLiteral</text>
</a>
</g>
</g>
<!-- Vala.Literal -->
<g id="node2" class="node">
<title>Vala.Literal</title>
<g id="a_node2"><a xlink:href="Vala.Literal.html" xlink:title="Vala.Literal">
<polygon fill="none" stroke="#000000" stroke-width="2" points="98,-108 17,-108 17,-72 98,-72 98,-108"/>
<text text-anchor="middle" x="57.5" y="-86.3" font-family="Times" font-size="14.00" fill="#000000">Vala.Literal</text>
</a>
</g>
</g>
<!-- Vala.Literal&#45;&gt;Vala.StringLiteral -->
<g id="edge1" class="edge">
<title>Vala.Literal&#45;&gt;Vala.StringLiteral</title>
<path fill="none" stroke="#000000" d="M57.5,-61.5726C57.5,-53.1084 57.5,-44.0593 57.5,-36.4133"/>
<polygon fill="#000000" stroke="#000000" points="54.0001,-61.8313 57.5,-71.8314 61.0001,-61.8314 54.0001,-61.8313"/>
</g>
<!-- Vala.Expression -->
<g id="node3" class="node">
<title>Vala.Expression</title>
<g id="a_node3"><a xlink:href="Vala.Expression.html" xlink:title="Vala.Expression">
<polygon fill="none" stroke="#000000" stroke-width="2" points="110,-180 5,-180 5,-144 110,-144 110,-180"/>
<text text-anchor="middle" x="57.5" y="-158.3" font-family="Times" font-size="14.00" fill="#000000">Vala.Expression</text>
</a>
</g>
</g>
<!-- Vala.Expression&#45;&gt;Vala.Literal -->
<g id="edge2" class="edge">
<title>Vala.Expression&#45;&gt;Vala.Literal</title>
<path fill="none" stroke="#000000" d="M57.5,-133.5726C57.5,-125.1084 57.5,-116.0593 57.5,-108.4133"/>
<polygon fill="#000000" stroke="#000000" points="54.0001,-133.8313 57.5,-143.8314 61.0001,-133.8314 54.0001,-133.8313"/>
</g>
<!-- Vala.CodeNode -->
<g id="node4" class="node">
<title>Vala.CodeNode</title>
<g id="a_node4"><a xlink:href="Vala.CodeNode.html" xlink:title="Vala.CodeNode">
<polygon fill="none" stroke="#000000" stroke-width="2" points="109,-252 6,-252 6,-216 109,-216 109,-252"/>
<text text-anchor="middle" x="57.5" y="-230.3" font-family="Times" font-size="14.00" fill="#000000">Vala.CodeNode</text>
</a>
</g>
</g>
<!-- Vala.CodeNode&#45;&gt;Vala.Expression -->
<g id="edge3" class="edge">
<title>Vala.CodeNode&#45;&gt;Vala.Expression</title>
<path fill="none" stroke="#000000" d="M57.5,-205.5726C57.5,-197.1084 57.5,-188.0593 57.5,-180.4133"/>
<polygon fill="#000000" stroke="#000000" points="54.0001,-205.8313 57.5,-215.8314 61.0001,-205.8314 54.0001,-205.8313"/>
</g>
</g>
</svg>
