<?xml version="1.0" encoding="UTF-8" standalone="no"?>
<!DOCTYPE svg PUBLIC "-//W3C//DTD SVG 1.1//EN"
 "http://www.w3.org/Graphics/SVG/1.1/DTD/svg11.dtd">
<!-- Generated by graphviz version 2.42.3 (0)
 -->
<!-- Title: Vala.Signal Pages: 1 -->
<svg width="212pt" height="188pt"
 viewBox="0.00 0.00 211.50 188.00" xmlns="http://www.w3.org/2000/svg" xmlns:xlink="http://www.w3.org/1999/xlink">
<g id="graph0" class="graph" transform="scale(1 1) rotate(0) translate(4 184)">
<title>Vala.Signal</title>
<polygon fill="white" stroke="transparent" points="-4,4 -4,-184 207.5,-184 207.5,4 -4,4"/>
<!-- Vala.Signal -->
<g id="node1" class="node">
<title>Vala.Signal</title>
<g id="a_node1"><a xlink:href="Vala.Signal.html" xlink:title="Vala.Signal">
<polygon fill="none" stroke="black" stroke-width="2" points="144.5,-36 64.5,-36 64.5,0 144.5,0 144.5,-36"/>
<text text-anchor="middle" x="104.5" y="-14.3" font-family="Times" font-size="14.00">Vala.Signal</text>
</a>
</g>
</g>
<!-- Vala.Symbol -->
<g id="node2" class="node">
<title>Vala.Symbol</title>
<g id="a_node2"><a xlink:href="Vala.Symbol.html" xlink:title="Vala.Symbol">
<polygon fill="none" stroke="black" stroke-width="2" points="95.5,-108 7.5,-108 7.5,-72 95.5,-72 95.5,-108"/>
<text text-anchor="middle" x="51.5" y="-86.3" font-family="Times" font-size="14.00">Vala.Symbol</text>
</a>
</g>
</g>
<!-- Vala.Symbol&#45;&gt;Vala.Signal -->
<g id="edge1" class="edge">
<title>Vala.Symbol&#45;&gt;Vala.Signal</title>
<path fill="none" stroke="black" d="M70.7,-63.64C77.63,-54.49 85.28,-44.38 91.55,-36.1"/>
<polygon fill="black" stroke="black" points="67.85,-61.61 64.6,-71.7 73.43,-65.84 67.85,-61.61"/>
</g>
<!-- Vala.CodeNode -->
<g id="node3" class="node">
<title>Vala.CodeNode</title>
<g id="a_node3"><a xlink:href="Vala.CodeNode.html" xlink:title="Vala.CodeNode">
<polygon fill="none" stroke="black" stroke-width="2" points="103,-180 0,-180 0,-144 103,-144 103,-180"/>
<text text-anchor="middle" x="51.5" y="-158.3" font-family="Times" font-size="14.00">Vala.CodeNode</text>
</a>
</g>
</g>
<!-- Vala.CodeNode&#45;&gt;Vala.Symbol -->
<g id="edge2" class="edge">
<title>Vala.CodeNode&#45;&gt;Vala.Symbol</title>
<path fill="none" stroke="black" d="M51.5,-133.67C51.5,-125.05 51.5,-115.79 51.5,-108.1"/>
<polygon fill="black" stroke="black" points="48,-133.7 51.5,-143.7 55,-133.7 48,-133.7"/>
</g>
<!-- Vala.Callable -->
<g id="node4" class="node">
<title>Vala.Callable</title>
<g id="a_node4"><a xlink:href="Vala.Callable.html" xlink:title="Vala.Callable">
<polygon fill="none" stroke="black" points="203.5,-108 113.5,-108 113.5,-72 203.5,-72 203.5,-108"/>
<text text-anchor="middle" x="158.5" y="-86.3" font-family="Times" font-size="14.00">Vala.Callable</text>
</a>
</g>
</g>
<!-- Vala.Callable&#45;&gt;Vala.Signal -->
<g id="edge3" class="edge">
<title>Vala.Callable&#45;&gt;Vala.Signal</title>
<path fill="none" stroke="black" d="M138.94,-63.64C131.88,-54.49 124.08,-44.38 117.69,-36.1"/>
<polygon fill="black" stroke="black" points="136.27,-65.92 145.15,-71.7 141.81,-61.64 136.27,-65.92"/>
</g>
</g>
</svg>
