<?xml version="1.0" encoding="UTF-8" standalone="no"?>
<!DOCTYPE svg PUBLIC "-//W3C//DTD SVG 1.1//EN"
 "http://www.w3.org/Graphics/SVG/1.1/DTD/svg11.dtd">
<!-- Generated by graphviz version 2.42.3 (0)
 -->
<!-- Title: Vala.ForeachStatement Pages: 1 -->
<svg width="222pt" height="260pt"
 viewBox="0.00 0.00 221.50 260.00" xmlns="http://www.w3.org/2000/svg" xmlns:xlink="http://www.w3.org/1999/xlink">
<g id="graph0" class="graph" transform="scale(1 1) rotate(0) translate(4 256)">
<title>Vala.ForeachStatement</title>
<polygon fill="white" stroke="transparent" points="-4,4 -4,-256 217.5,-256 217.5,4 -4,4"/>
<!-- Vala.ForeachStatement -->
<g id="node1" class="node">
<title>Vala.ForeachStatement</title>
<g id="a_node1"><a xlink:href="Vala.ForeachStatement.html" xlink:title="Vala.ForeachStatement">
<polygon fill="none" stroke="black" stroke-width="2" points="179,-36 36,-36 36,0 179,0 179,-36"/>
<text text-anchor="middle" x="107.5" y="-14.3" font-family="Times" font-size="14.00">Vala.ForeachStatement</text>
</a>
</g>
</g>
<!-- Vala.Block -->
<g id="node2" class="node">
<title>Vala.Block</title>
<g id="a_node2"><a xlink:href="Vala.Block.html" xlink:title="Vala.Block">
<polygon fill="none" stroke="black" stroke-width="2" points="146,-108 69,-108 69,-72 146,-72 146,-108"/>
<text text-anchor="middle" x="107.5" y="-86.3" font-family="Times" font-size="14.00">Vala.Block</text>
</a>
</g>
</g>
<!-- Vala.Block&#45;&gt;Vala.ForeachStatement -->
<g id="edge1" class="edge">
<title>Vala.Block&#45;&gt;Vala.ForeachStatement</title>
<path fill="none" stroke="black" d="M107.5,-61.67C107.5,-53.05 107.5,-43.79 107.5,-36.1"/>
<polygon fill="black" stroke="black" points="104,-61.7 107.5,-71.7 111,-61.7 104,-61.7"/>
</g>
<!-- Vala.Symbol -->
<g id="node3" class="node">
<title>Vala.Symbol</title>
<g id="a_node3"><a xlink:href="Vala.Symbol.html" xlink:title="Vala.Symbol">
<polygon fill="none" stroke="black" stroke-width="2" points="95.5,-180 7.5,-180 7.5,-144 95.5,-144 95.5,-180"/>
<text text-anchor="middle" x="51.5" y="-158.3" font-family="Times" font-size="14.00">Vala.Symbol</text>
</a>
</g>
</g>
<!-- Vala.Symbol&#45;&gt;Vala.Block -->
<g id="edge2" class="edge">
<title>Vala.Symbol&#45;&gt;Vala.Block</title>
<path fill="none" stroke="black" d="M71.79,-135.64C79.11,-126.49 87.19,-116.38 93.82,-108.1"/>
<polygon fill="black" stroke="black" points="68.86,-133.7 65.34,-143.7 74.32,-138.07 68.86,-133.7"/>
</g>
<!-- Vala.CodeNode -->
<g id="node4" class="node">
<title>Vala.CodeNode</title>
<g id="a_node4"><a xlink:href="Vala.CodeNode.html" xlink:title="Vala.CodeNode">
<polygon fill="none" stroke="black" stroke-width="2" points="103,-252 0,-252 0,-216 103,-216 103,-252"/>
<text text-anchor="middle" x="51.5" y="-230.3" font-family="Times" font-size="14.00">Vala.CodeNode</text>
</a>
</g>
</g>
<!-- Vala.CodeNode&#45;&gt;Vala.Symbol -->
<g id="edge3" class="edge">
<title>Vala.CodeNode&#45;&gt;Vala.Symbol</title>
<path fill="none" stroke="black" d="M51.5,-205.67C51.5,-197.05 51.5,-187.79 51.5,-180.1"/>
<polygon fill="black" stroke="black" points="48,-205.7 51.5,-215.7 55,-205.7 48,-205.7"/>
</g>
<!-- Vala.Statement -->
<g id="node5" class="node">
<title>Vala.Statement</title>
<g id="a_node5"><a xlink:href="Vala.Statement.html" xlink:title="Vala.Statement">
<polygon fill="none" stroke="black" points="213.5,-180 113.5,-180 113.5,-144 213.5,-144 213.5,-180"/>
<text text-anchor="middle" x="163.5" y="-158.3" font-family="Times" font-size="14.00">Vala.Statement</text>
</a>
</g>
</g>
<!-- Vala.Statement&#45;&gt;Vala.Block -->
<g id="edge4" class="edge">
<title>Vala.Statement&#45;&gt;Vala.Block</title>
<path fill="none" stroke="black" d="M143.21,-135.64C135.89,-126.49 127.81,-116.38 121.18,-108.1"/>
<polygon fill="black" stroke="black" points="140.68,-138.07 149.66,-143.7 146.14,-133.7 140.68,-138.07"/>
</g>
</g>
</svg>
