<?xml version="1.0" encoding="UTF-8" standalone="no"?>
<!DOCTYPE svg PUBLIC "-//W3C//DTD SVG 1.1//EN"
 "http://www.w3.org/Graphics/SVG/1.1/DTD/svg11.dtd">
<!-- Generated by graphviz version 2.40.1 (20161225.0304)
 -->
<!-- Title: Vala.EnumValue Pages: 1 -->
<svg width="216pt" height="260pt"
 viewBox="0.00 0.00 215.50 260.00" xmlns="http://www.w3.org/2000/svg" xmlns:xlink="http://www.w3.org/1999/xlink">
<g id="graph0" class="graph" transform="scale(1 1) rotate(0) translate(4 256)">
<title>Vala.EnumValue</title>
<polygon fill="#ffffff" stroke="transparent" points="-4,4 -4,-256 211.5,-256 211.5,4 -4,4"/>
<!-- Vala.EnumValue -->
<g id="node1" class="node">
<title>Vala.EnumValue</title>
<g id="a_node1"><a xlink:href="Vala.EnumValue.html" xlink:title="Vala.EnumValue">
<polygon fill="none" stroke="#000000" stroke-width="2" points="159,-36 51,-36 51,0 159,0 159,-36"/>
<text text-anchor="middle" x="105" y="-14.3" font-family="Times" font-size="14.00" fill="#000000">Vala.EnumValue</text>
</a>
</g>
</g>
<!-- Vala.Constant -->
<g id="node2" class="node">
<title>Vala.Constant</title>
<g id="a_node2"><a xlink:href="Vala.Constant.html" xlink:title="Vala.Constant">
<polygon fill="none" stroke="#000000" stroke-width="2" points="151,-108 59,-108 59,-72 151,-72 151,-108"/>
<text text-anchor="middle" x="105" y="-86.3" font-family="Times" font-size="14.00" fill="#000000">Vala.Constant</text>
</a>
</g>
</g>
<!-- Vala.Constant&#45;&gt;Vala.EnumValue -->
<g id="edge1" class="edge">
<title>Vala.Constant&#45;&gt;Vala.EnumValue</title>
<path fill="none" stroke="#000000" d="M105,-61.5726C105,-53.1084 105,-44.0593 105,-36.4133"/>
<polygon fill="#000000" stroke="#000000" points="101.5001,-61.8313 105,-71.8314 108.5001,-61.8314 101.5001,-61.8313"/>
</g>
<!-- Vala.Symbol -->
<g id="node3" class="node">
<title>Vala.Symbol</title>
<g id="a_node3"><a xlink:href="Vala.Symbol.html" xlink:title="Vala.Symbol">
<polygon fill="none" stroke="#000000" stroke-width="2" points="94.5,-180 7.5,-180 7.5,-144 94.5,-144 94.5,-180"/>
<text text-anchor="middle" x="51" y="-158.3" font-family="Times" font-size="14.00" fill="#000000">Vala.Symbol</text>
</a>
</g>
</g>
<!-- Vala.Symbol&#45;&gt;Vala.Constant -->
<g id="edge2" class="edge">
<title>Vala.Symbol&#45;&gt;Vala.Constant</title>
<path fill="none" stroke="#000000" d="M70.6392,-135.8144C77.4538,-126.7282 84.9458,-116.7389 91.19,-108.4133"/>
<polygon fill="#000000" stroke="#000000" points="67.8265,-133.7313 64.6265,-143.8314 73.4265,-137.9314 67.8265,-133.7313"/>
</g>
<!-- Vala.CodeNode -->
<g id="node4" class="node">
<title>Vala.CodeNode</title>
<g id="a_node4"><a xlink:href="Vala.CodeNode.html" xlink:title="Vala.CodeNode">
<polygon fill="none" stroke="#000000" stroke-width="2" points="102,-252 0,-252 0,-216 102,-216 102,-252"/>
<text text-anchor="middle" x="51" y="-230.3" font-family="Times" font-size="14.00" fill="#000000">Vala.CodeNode</text>
</a>
</g>
</g>
<!-- Vala.CodeNode&#45;&gt;Vala.Symbol -->
<g id="edge3" class="edge">
<title>Vala.CodeNode&#45;&gt;Vala.Symbol</title>
<path fill="none" stroke="#000000" d="M51,-205.5726C51,-197.1084 51,-188.0593 51,-180.4133"/>
<polygon fill="#000000" stroke="#000000" points="47.5001,-205.8313 51,-215.8314 54.5001,-205.8314 47.5001,-205.8313"/>
</g>
<!-- Vala.Lockable -->
<g id="node5" class="node">
<title>Vala.Lockable</title>
<g id="a_node5"><a xlink:href="Vala.Lockable.html" xlink:title="Vala.Lockable">
<polygon fill="none" stroke="#000000" points="207.5,-180 112.5,-180 112.5,-144 207.5,-144 207.5,-180"/>
<text text-anchor="middle" x="160" y="-158.3" font-family="Times" font-size="14.00" fill="#000000">Vala.Lockable</text>
</a>
</g>
</g>
<!-- Vala.Lockable&#45;&gt;Vala.Constant -->
<g id="edge4" class="edge">
<title>Vala.Lockable&#45;&gt;Vala.Constant</title>
<path fill="none" stroke="#000000" d="M139.9971,-135.8144C133.0563,-126.7282 125.4256,-116.7389 119.0657,-108.4133"/>
<polygon fill="#000000" stroke="#000000" points="137.2694,-138.0093 146.1212,-143.8314 142.8321,-133.76 137.2694,-138.0093"/>
</g>
</g>
</svg>
