<?xml version="1.0" encoding="UTF-8" standalone="no"?>
<!DOCTYPE svg PUBLIC "-//W3C//DTD SVG 1.1//EN"
 "http://www.w3.org/Graphics/SVG/1.1/DTD/svg11.dtd">
<!-- Generated by graphviz version 2.40.1 (20161225.0304)
 -->
<!-- Title: Vala.Block Pages: 1 -->
<svg width="243pt" height="188pt"
 viewBox="0.00 0.00 243.00 188.00" xmlns="http://www.w3.org/2000/svg" xmlns:xlink="http://www.w3.org/1999/xlink">
<g id="graph0" class="graph" transform="scale(1 1) rotate(0) translate(4 184)">
<title>Vala.Block</title>
<polygon fill="#ffffff" stroke="transparent" points="-4,4 -4,-184 239,-184 239,4 -4,4"/>
<!-- Vala.Block -->
<g id="node1" class="node">
<title>Vala.Block</title>
<g id="a_node1"><a xlink:href="Vala.Block.html" xlink:title="Vala.Block">
<polygon fill="none" stroke="#000000" stroke-width="2" points="159,-36 76,-36 76,0 159,0 159,-36"/>
<text text-anchor="middle" x="117.5" y="-14.3" font-family="Times" font-size="14.00" fill="#000000">Vala.Block</text>
</a>
</g>
</g>
<!-- Vala.Symbol -->
<g id="node2" class="node">
<title>Vala.Symbol</title>
<g id="a_node2"><a xlink:href="Vala.Symbol.html" xlink:title="Vala.Symbol">
<polygon fill="none" stroke="#000000" stroke-width="2" points="104,-108 9,-108 9,-72 104,-72 104,-108"/>
<text text-anchor="middle" x="56.5" y="-86.3" font-family="Times" font-size="14.00" fill="#000000">Vala.Symbol</text>
</a>
</g>
</g>
<!-- Vala.Symbol&#45;&gt;Vala.Block -->
<g id="edge1" class="edge">
<title>Vala.Symbol&#45;&gt;Vala.Block</title>
<path fill="none" stroke="#000000" d="M78.4496,-64.0923C86.2102,-54.9323 94.7742,-44.8239 101.8999,-36.4133"/>
<polygon fill="#000000" stroke="#000000" points="75.6866,-61.939 71.8929,-71.8314 81.0275,-66.464 75.6866,-61.939"/>
</g>
<!-- Vala.CodeNode -->
<g id="node3" class="node">
<title>Vala.CodeNode</title>
<g id="a_node3"><a xlink:href="Vala.CodeNode.html" xlink:title="Vala.CodeNode">
<polygon fill="none" stroke="#000000" stroke-width="2" points="113,-180 0,-180 0,-144 113,-144 113,-180"/>
<text text-anchor="middle" x="56.5" y="-158.3" font-family="Times" font-size="14.00" fill="#000000">Vala.CodeNode</text>
</a>
</g>
</g>
<!-- Vala.CodeNode&#45;&gt;Vala.Symbol -->
<g id="edge2" class="edge">
<title>Vala.CodeNode&#45;&gt;Vala.Symbol</title>
<path fill="none" stroke="#000000" d="M56.5,-133.5726C56.5,-125.1084 56.5,-116.0593 56.5,-108.4133"/>
<polygon fill="#000000" stroke="#000000" points="53.0001,-133.8313 56.5,-143.8314 60.0001,-133.8314 53.0001,-133.8313"/>
</g>
<!-- Vala.Statement -->
<g id="node4" class="node">
<title>Vala.Statement</title>
<g id="a_node4"><a xlink:href="Vala.Statement.html" xlink:title="Vala.Statement">
<polygon fill="none" stroke="#000000" points="235,-108 122,-108 122,-72 235,-72 235,-108"/>
<text text-anchor="middle" x="178.5" y="-86.3" font-family="Times" font-size="14.00" fill="#000000">Vala.Statement</text>
</a>
</g>
</g>
<!-- Vala.Statement&#45;&gt;Vala.Block -->
<g id="edge3" class="edge">
<title>Vala.Statement&#45;&gt;Vala.Block</title>
<path fill="none" stroke="#000000" d="M156.5504,-64.0923C148.7898,-54.9323 140.2258,-44.8239 133.1001,-36.4133"/>
<polygon fill="#000000" stroke="#000000" points="153.9725,-66.464 163.1071,-71.8314 159.3134,-61.939 153.9725,-66.464"/>
</g>
</g>
</svg>
