<?xml version="1.0" encoding="UTF-8" standalone="no"?>
<!DOCTYPE svg PUBLIC "-//W3C//DTD SVG 1.1//EN"
 "http://www.w3.org/Graphics/SVG/1.1/DTD/svg11.dtd">
<!-- Generated by graphviz version 2.42.3 (0)
 -->
<!-- Title: Vala.SignalType Pages: 1 -->
<svg width="124pt" height="260pt"
 viewBox="0.00 0.00 124.00 260.00" xmlns="http://www.w3.org/2000/svg" xmlns:xlink="http://www.w3.org/1999/xlink">
<g id="graph0" class="graph" transform="scale(1 1) rotate(0) translate(4 256)">
<title>Vala.SignalType</title>
<polygon fill="white" stroke="transparent" points="-4,4 -4,-256 120,-256 120,4 -4,4"/>
<!-- Vala.SignalType -->
<g id="node1" class="node">
<title>Vala.SignalType</title>
<g id="a_node1"><a xlink:href="Vala.SignalType.html" xlink:title="Vala.SignalType">
<polygon fill="none" stroke="black" stroke-width="2" points="111,-36 5,-36 5,0 111,0 111,-36"/>
<text text-anchor="middle" x="58" y="-14.3" font-family="Times" font-size="14.00">Vala.SignalType</text>
</a>
</g>
</g>
<!-- Vala.CallableType -->
<g id="node2" class="node">
<title>Vala.CallableType</title>
<g id="a_node2"><a xlink:href="Vala.CallableType.html" xlink:title="Vala.CallableType">
<polygon fill="none" stroke="black" stroke-width="2" points="116,-108 0,-108 0,-72 116,-72 116,-108"/>
<text text-anchor="middle" x="58" y="-86.3" font-family="Times" font-size="14.00">Vala.CallableType</text>
</a>
</g>
</g>
<!-- Vala.CallableType&#45;&gt;Vala.SignalType -->
<g id="edge1" class="edge">
<title>Vala.CallableType&#45;&gt;Vala.SignalType</title>
<path fill="none" stroke="black" d="M58,-61.67C58,-53.05 58,-43.79 58,-36.1"/>
<polygon fill="black" stroke="black" points="54.5,-61.7 58,-71.7 61.5,-61.7 54.5,-61.7"/>
</g>
<!-- Vala.DataType -->
<g id="node3" class="node">
<title>Vala.DataType</title>
<g id="a_node3"><a xlink:href="Vala.DataType.html" xlink:title="Vala.DataType">
<polygon fill="none" stroke="black" stroke-width="2" points="106.5,-180 9.5,-180 9.5,-144 106.5,-144 106.5,-180"/>
<text text-anchor="middle" x="58" y="-158.3" font-family="Times" font-size="14.00">Vala.DataType</text>
</a>
</g>
</g>
<!-- Vala.DataType&#45;&gt;Vala.CallableType -->
<g id="edge2" class="edge">
<title>Vala.DataType&#45;&gt;Vala.CallableType</title>
<path fill="none" stroke="black" d="M58,-133.67C58,-125.05 58,-115.79 58,-108.1"/>
<polygon fill="black" stroke="black" points="54.5,-133.7 58,-143.7 61.5,-133.7 54.5,-133.7"/>
</g>
<!-- Vala.CodeNode -->
<g id="node4" class="node">
<title>Vala.CodeNode</title>
<g id="a_node4"><a xlink:href="Vala.CodeNode.html" xlink:title="Vala.CodeNode">
<polygon fill="none" stroke="black" stroke-width="2" points="109.5,-252 6.5,-252 6.5,-216 109.5,-216 109.5,-252"/>
<text text-anchor="middle" x="58" y="-230.3" font-family="Times" font-size="14.00">Vala.CodeNode</text>
</a>
</g>
</g>
<!-- Vala.CodeNode&#45;&gt;Vala.DataType -->
<g id="edge3" class="edge">
<title>Vala.CodeNode&#45;&gt;Vala.DataType</title>
<path fill="none" stroke="black" d="M58,-205.67C58,-197.05 58,-187.79 58,-180.1"/>
<polygon fill="black" stroke="black" points="54.5,-205.7 58,-215.7 61.5,-205.7 54.5,-205.7"/>
</g>
</g>
</svg>
