<?xml version="1.0" encoding="UTF-8" standalone="no"?>
<!DOCTYPE svg PUBLIC "-//W3C//DTD SVG 1.1//EN"
 "http://www.w3.org/Graphics/SVG/1.1/DTD/svg11.dtd">
<!-- Generated by graphviz version 2.42.3 (0)
 -->
<!-- Title: Vala.Block Pages: 1 -->
<svg width="222pt" height="188pt"
 viewBox="0.00 0.00 221.50 188.00" xmlns="http://www.w3.org/2000/svg" xmlns:xlink="http://www.w3.org/1999/xlink">
<g id="graph0" class="graph" transform="scale(1 1) rotate(0) translate(4 184)">
<title>Vala.Block</title>
<polygon fill="white" stroke="transparent" points="-4,4 -4,-184 217.5,-184 217.5,4 -4,4"/>
<!-- Vala.Block -->
<g id="node1" class="node">
<title>Vala.Block</title>
<g id="a_node1"><a xlink:href="Vala.Block.html" xlink:title="Vala.Block">
<polygon fill="none" stroke="black" stroke-width="2" points="146,-36 69,-36 69,0 146,0 146,-36"/>
<text text-anchor="middle" x="107.5" y="-14.3" font-family="Times" font-size="14.00">Vala.Block</text>
</a>
</g>
</g>
<!-- Vala.Symbol -->
<g id="node2" class="node">
<title>Vala.Symbol</title>
<g id="a_node2"><a xlink:href="Vala.Symbol.html" xlink:title="Vala.Symbol">
<polygon fill="none" stroke="black" stroke-width="2" points="95.5,-108 7.5,-108 7.5,-72 95.5,-72 95.5,-108"/>
<text text-anchor="middle" x="51.5" y="-86.3" font-family="Times" font-size="14.00">Vala.Symbol</text>
</a>
</g>
</g>
<!-- Vala.Symbol&#45;&gt;Vala.Block -->
<g id="edge1" class="edge">
<title>Vala.Symbol&#45;&gt;Vala.Block</title>
<path fill="none" stroke="black" d="M71.79,-63.64C79.11,-54.49 87.19,-44.38 93.82,-36.1"/>
<polygon fill="black" stroke="black" points="68.86,-61.7 65.34,-71.7 74.32,-66.07 68.86,-61.7"/>
</g>
<!-- Vala.CodeNode -->
<g id="node3" class="node">
<title>Vala.CodeNode</title>
<g id="a_node3"><a xlink:href="Vala.CodeNode.html" xlink:title="Vala.CodeNode">
<polygon fill="none" stroke="black" stroke-width="2" points="103,-180 0,-180 0,-144 103,-144 103,-180"/>
<text text-anchor="middle" x="51.5" y="-158.3" font-family="Times" font-size="14.00">Vala.CodeNode</text>
</a>
</g>
</g>
<!-- Vala.CodeNode&#45;&gt;Vala.Symbol -->
<g id="edge2" class="edge">
<title>Vala.CodeNode&#45;&gt;Vala.Symbol</title>
<path fill="none" stroke="black" d="M51.5,-133.67C51.5,-125.05 51.5,-115.79 51.5,-108.1"/>
<polygon fill="black" stroke="black" points="48,-133.7 51.5,-143.7 55,-133.7 48,-133.7"/>
</g>
<!-- Vala.Statement -->
<g id="node4" class="node">
<title>Vala.Statement</title>
<g id="a_node4"><a xlink:href="Vala.Statement.html" xlink:title="Vala.Statement">
<polygon fill="none" stroke="black" points="213.5,-108 113.5,-108 113.5,-72 213.5,-72 213.5,-108"/>
<text text-anchor="middle" x="163.5" y="-86.3" font-family="Times" font-size="14.00">Vala.Statement</text>
</a>
</g>
</g>
<!-- Vala.Statement&#45;&gt;Vala.Block -->
<g id="edge3" class="edge">
<title>Vala.Statement&#45;&gt;Vala.Block</title>
<path fill="none" stroke="black" d="M143.21,-63.64C135.89,-54.49 127.81,-44.38 121.18,-36.1"/>
<polygon fill="black" stroke="black" points="140.68,-66.07 149.66,-71.7 146.14,-61.7 140.68,-66.07"/>
</g>
</g>
</svg>
