<?xml version="1.0" encoding="UTF-8" standalone="no"?>
<!DOCTYPE svg PUBLIC "-//W3C//DTD SVG 1.1//EN"
 "http://www.w3.org/Graphics/SVG/1.1/DTD/svg11.dtd">
<!-- Generated by graphviz version 2.42.3 (0)
 -->
<!-- Title: Vala.GenericType Pages: 1 -->
<svg width="124pt" height="188pt"
 viewBox="0.00 0.00 124.00 188.00" xmlns="http://www.w3.org/2000/svg" xmlns:xlink="http://www.w3.org/1999/xlink">
<g id="graph0" class="graph" transform="scale(1 1) rotate(0) translate(4 184)">
<title>Vala.GenericType</title>
<polygon fill="white" stroke="transparent" points="-4,4 -4,-184 120,-184 120,4 -4,4"/>
<!-- Vala.GenericType -->
<g id="node1" class="node">
<title>Vala.GenericType</title>
<g id="a_node1"><a xlink:href="Vala.GenericType.html" xlink:title="Vala.GenericType">
<polygon fill="none" stroke="black" stroke-width="2" points="116,-36 0,-36 0,0 116,0 116,-36"/>
<text text-anchor="middle" x="58" y="-14.3" font-family="Times" font-size="14.00">Vala.GenericType</text>
</a>
</g>
</g>
<!-- Vala.DataType -->
<g id="node2" class="node">
<title>Vala.DataType</title>
<g id="a_node2"><a xlink:href="Vala.DataType.html" xlink:title="Vala.DataType">
<polygon fill="none" stroke="black" stroke-width="2" points="106.5,-108 9.5,-108 9.5,-72 106.5,-72 106.5,-108"/>
<text text-anchor="middle" x="58" y="-86.3" font-family="Times" font-size="14.00">Vala.DataType</text>
</a>
</g>
</g>
<!-- Vala.DataType&#45;&gt;Vala.GenericType -->
<g id="edge1" class="edge">
<title>Vala.DataType&#45;&gt;Vala.GenericType</title>
<path fill="none" stroke="black" d="M58,-61.67C58,-53.05 58,-43.79 58,-36.1"/>
<polygon fill="black" stroke="black" points="54.5,-61.7 58,-71.7 61.5,-61.7 54.5,-61.7"/>
</g>
<!-- Vala.CodeNode -->
<g id="node3" class="node">
<title>Vala.CodeNode</title>
<g id="a_node3"><a xlink:href="Vala.CodeNode.html" xlink:title="Vala.CodeNode">
<polygon fill="none" stroke="black" stroke-width="2" points="109.5,-180 6.5,-180 6.5,-144 109.5,-144 109.5,-180"/>
<text text-anchor="middle" x="58" y="-158.3" font-family="Times" font-size="14.00">Vala.CodeNode</text>
</a>
</g>
</g>
<!-- Vala.CodeNode&#45;&gt;Vala.DataType -->
<g id="edge2" class="edge">
<title>Vala.CodeNode&#45;&gt;Vala.DataType</title>
<path fill="none" stroke="black" d="M58,-133.67C58,-125.05 58,-115.79 58,-108.1"/>
<polygon fill="black" stroke="black" points="54.5,-133.7 58,-143.7 61.5,-133.7 54.5,-133.7"/>
</g>
</g>
</svg>
