<?xml version="1.0" encoding="UTF-8" standalone="no"?>
<!DOCTYPE svg PUBLIC "-//W3C//DTD SVG 1.1//EN"
 "http://www.w3.org/Graphics/SVG/1.1/DTD/svg11.dtd">
<!-- Generated by graphviz version 2.40.1 (0)
 -->
<!-- Title: Vala.Delegate Pages: 1 -->
<svg width="230pt" height="260pt"
 viewBox="0.00 0.00 230.00 260.00" xmlns="http://www.w3.org/2000/svg" xmlns:xlink="http://www.w3.org/1999/xlink">
<g id="graph0" class="graph" transform="scale(1 1) rotate(0) translate(4 256)">
<title>Vala.Delegate</title>
<polygon fill="#ffffff" stroke="transparent" points="-4,4 -4,-256 226,-256 226,4 -4,4"/>
<!-- Vala.Delegate -->
<g id="node1" class="node">
<title>Vala.Delegate</title>
<g id="a_node1"><a xlink:href="Vala.Delegate.html" xlink:title="Vala.Delegate">
<polygon fill="none" stroke="#000000" stroke-width="2" points="164,-36 70,-36 70,0 164,0 164,-36"/>
<text text-anchor="middle" x="117" y="-14.3" font-family="Times" font-size="14.00" fill="#000000">Vala.Delegate</text>
</a>
</g>
</g>
<!-- Vala.TypeSymbol -->
<g id="node2" class="node">
<title>Vala.TypeSymbol</title>
<g id="a_node2"><a xlink:href="Vala.TypeSymbol.html" xlink:title="Vala.TypeSymbol">
<polygon fill="none" stroke="#000000" stroke-width="2" points="114,-108 0,-108 0,-72 114,-72 114,-108"/>
<text text-anchor="middle" x="57" y="-86.3" font-family="Times" font-size="14.00" fill="#000000">Vala.TypeSymbol</text>
</a>
</g>
</g>
<!-- Vala.TypeSymbol&#45;&gt;Vala.Delegate -->
<g id="edge1" class="edge">
<title>Vala.TypeSymbol&#45;&gt;Vala.Delegate</title>
<path fill="none" stroke="#000000" d="M78.5898,-64.0923C86.2231,-54.9323 94.6468,-44.8239 101.6556,-36.4133"/>
<polygon fill="#000000" stroke="#000000" points="75.8536,-61.9085 72.1405,-71.8314 81.2312,-66.3898 75.8536,-61.9085"/>
</g>
<!-- Vala.Symbol -->
<g id="node3" class="node">
<title>Vala.Symbol</title>
<g id="a_node3"><a xlink:href="Vala.Symbol.html" xlink:title="Vala.Symbol">
<polygon fill="none" stroke="#000000" stroke-width="2" points="101,-180 13,-180 13,-144 101,-144 101,-180"/>
<text text-anchor="middle" x="57" y="-158.3" font-family="Times" font-size="14.00" fill="#000000">Vala.Symbol</text>
</a>
</g>
</g>
<!-- Vala.Symbol&#45;&gt;Vala.TypeSymbol -->
<g id="edge2" class="edge">
<title>Vala.Symbol&#45;&gt;Vala.TypeSymbol</title>
<path fill="none" stroke="#000000" d="M57,-133.5726C57,-125.1084 57,-116.0593 57,-108.4133"/>
<polygon fill="#000000" stroke="#000000" points="53.5001,-133.8313 57,-143.8314 60.5001,-133.8314 53.5001,-133.8313"/>
</g>
<!-- Vala.CodeNode -->
<g id="node4" class="node">
<title>Vala.CodeNode</title>
<g id="a_node4"><a xlink:href="Vala.CodeNode.html" xlink:title="Vala.CodeNode">
<polygon fill="none" stroke="#000000" stroke-width="2" points="108.5,-252 5.5,-252 5.5,-216 108.5,-216 108.5,-252"/>
<text text-anchor="middle" x="57" y="-230.3" font-family="Times" font-size="14.00" fill="#000000">Vala.CodeNode</text>
</a>
</g>
</g>
<!-- Vala.CodeNode&#45;&gt;Vala.Symbol -->
<g id="edge3" class="edge">
<title>Vala.CodeNode&#45;&gt;Vala.Symbol</title>
<path fill="none" stroke="#000000" d="M57,-205.5726C57,-197.1084 57,-188.0593 57,-180.4133"/>
<polygon fill="#000000" stroke="#000000" points="53.5001,-205.8313 57,-215.8314 60.5001,-205.8314 53.5001,-205.8313"/>
</g>
<!-- Vala.Callable -->
<g id="node5" class="node">
<title>Vala.Callable</title>
<g id="a_node5"><a xlink:href="Vala.Callable.html" xlink:title="Vala.Callable">
<polygon fill="none" stroke="#000000" points="222,-108 132,-108 132,-72 222,-72 222,-108"/>
<text text-anchor="middle" x="177" y="-86.3" font-family="Times" font-size="14.00" fill="#000000">Vala.Callable</text>
</a>
</g>
</g>
<!-- Vala.Callable&#45;&gt;Vala.Delegate -->
<g id="edge4" class="edge">
<title>Vala.Callable&#45;&gt;Vala.Delegate</title>
<path fill="none" stroke="#000000" d="M155.4102,-64.0923C147.7769,-54.9323 139.3532,-44.8239 132.3444,-36.4133"/>
<polygon fill="#000000" stroke="#000000" points="152.7688,-66.3898 161.8595,-71.8314 158.1464,-61.9085 152.7688,-66.3898"/>
</g>
</g>
</svg>
