<?xml version="1.0" encoding="UTF-8" standalone="no"?>
<!DOCTYPE svg PUBLIC "-//W3C//DTD SVG 1.1//EN"
 "http://www.w3.org/Graphics/SVG/1.1/DTD/svg11.dtd">
<!-- Generated by graphviz version 2.42.3 (0)
 -->
<!-- Title: Vala.Property Pages: 1 -->
<svg width="218pt" height="188pt"
 viewBox="0.00 0.00 217.50 188.00" xmlns="http://www.w3.org/2000/svg" xmlns:xlink="http://www.w3.org/1999/xlink">
<g id="graph0" class="graph" transform="scale(1 1) rotate(0) translate(4 184)">
<title>Vala.Property</title>
<polygon fill="white" stroke="transparent" points="-4,4 -4,-184 213.5,-184 213.5,4 -4,4"/>
<!-- Vala.Property -->
<g id="node1" class="node">
<title>Vala.Property</title>
<g id="a_node1"><a xlink:href="Vala.Property.html" xlink:title="Vala.Property">
<polygon fill="none" stroke="black" stroke-width="2" points="152.5,-36 60.5,-36 60.5,0 152.5,0 152.5,-36"/>
<text text-anchor="middle" x="106.5" y="-14.3" font-family="Times" font-size="14.00">Vala.Property</text>
</a>
</g>
</g>
<!-- Vala.Symbol -->
<g id="node2" class="node">
<title>Vala.Symbol</title>
<g id="a_node2"><a xlink:href="Vala.Symbol.html" xlink:title="Vala.Symbol">
<polygon fill="none" stroke="black" stroke-width="2" points="95.5,-108 7.5,-108 7.5,-72 95.5,-72 95.5,-108"/>
<text text-anchor="middle" x="51.5" y="-86.3" font-family="Times" font-size="14.00">Vala.Symbol</text>
</a>
</g>
</g>
<!-- Vala.Symbol&#45;&gt;Vala.Property -->
<g id="edge1" class="edge">
<title>Vala.Symbol&#45;&gt;Vala.Property</title>
<path fill="none" stroke="black" d="M71.43,-63.64C78.62,-54.49 86.56,-44.38 93.06,-36.1"/>
<polygon fill="black" stroke="black" points="68.52,-61.67 65.1,-71.7 74.03,-66 68.52,-61.67"/>
</g>
<!-- Vala.CodeNode -->
<g id="node3" class="node">
<title>Vala.CodeNode</title>
<g id="a_node3"><a xlink:href="Vala.CodeNode.html" xlink:title="Vala.CodeNode">
<polygon fill="none" stroke="black" stroke-width="2" points="103,-180 0,-180 0,-144 103,-144 103,-180"/>
<text text-anchor="middle" x="51.5" y="-158.3" font-family="Times" font-size="14.00">Vala.CodeNode</text>
</a>
</g>
</g>
<!-- Vala.CodeNode&#45;&gt;Vala.Symbol -->
<g id="edge2" class="edge">
<title>Vala.CodeNode&#45;&gt;Vala.Symbol</title>
<path fill="none" stroke="black" d="M51.5,-133.67C51.5,-125.05 51.5,-115.79 51.5,-108.1"/>
<polygon fill="black" stroke="black" points="48,-133.7 51.5,-143.7 55,-133.7 48,-133.7"/>
</g>
<!-- Vala.Lockable -->
<g id="node4" class="node">
<title>Vala.Lockable</title>
<g id="a_node4"><a xlink:href="Vala.Lockable.html" xlink:title="Vala.Lockable">
<polygon fill="none" stroke="black" points="209.5,-108 113.5,-108 113.5,-72 209.5,-72 209.5,-108"/>
<text text-anchor="middle" x="161.5" y="-86.3" font-family="Times" font-size="14.00">Vala.Lockable</text>
</a>
</g>
</g>
<!-- Vala.Lockable&#45;&gt;Vala.Property -->
<g id="edge3" class="edge">
<title>Vala.Lockable&#45;&gt;Vala.Property</title>
<path fill="none" stroke="black" d="M141.57,-63.64C134.38,-54.49 126.44,-44.38 119.94,-36.1"/>
<polygon fill="black" stroke="black" points="138.97,-66 147.9,-71.7 144.48,-61.67 138.97,-66"/>
</g>
</g>
</svg>
