<?xml version="1.0" encoding="UTF-8" standalone="no"?>
<!DOCTYPE svg PUBLIC "-//W3C//DTD SVG 1.1//EN"
 "http://www.w3.org/Graphics/SVG/1.1/DTD/svg11.dtd">
<!-- Generated by graphviz version 2.42.3 (0)
 -->
<!-- Title: Vala.FloatingType Pages: 1 -->
<svg width="125pt" height="260pt"
 viewBox="0.00 0.00 125.00 260.00" xmlns="http://www.w3.org/2000/svg" xmlns:xlink="http://www.w3.org/1999/xlink">
<g id="graph0" class="graph" transform="scale(1 1) rotate(0) translate(4 256)">
<title>Vala.FloatingType</title>
<polygon fill="white" stroke="transparent" points="-4,4 -4,-256 121,-256 121,4 -4,4"/>
<!-- Vala.FloatingType -->
<g id="node1" class="node">
<title>Vala.FloatingType</title>
<g id="a_node1"><a xlink:href="Vala.FloatingType.html" xlink:title="Vala.FloatingType">
<polygon fill="none" stroke="black" stroke-width="2" points="117,-36 0,-36 0,0 117,0 117,-36"/>
<text text-anchor="middle" x="58.5" y="-14.3" font-family="Times" font-size="14.00">Vala.FloatingType</text>
</a>
</g>
</g>
<!-- Vala.ValueType -->
<g id="node2" class="node">
<title>Vala.ValueType</title>
<g id="a_node2"><a xlink:href="Vala.ValueType.html" xlink:title="Vala.ValueType">
<polygon fill="none" stroke="black" stroke-width="2" points="110,-108 7,-108 7,-72 110,-72 110,-108"/>
<text text-anchor="middle" x="58.5" y="-86.3" font-family="Times" font-size="14.00">Vala.ValueType</text>
</a>
</g>
</g>
<!-- Vala.ValueType&#45;&gt;Vala.FloatingType -->
<g id="edge1" class="edge">
<title>Vala.ValueType&#45;&gt;Vala.FloatingType</title>
<path fill="none" stroke="black" d="M58.5,-61.67C58.5,-53.05 58.5,-43.79 58.5,-36.1"/>
<polygon fill="black" stroke="black" points="55,-61.7 58.5,-71.7 62,-61.7 55,-61.7"/>
</g>
<!-- Vala.DataType -->
<g id="node3" class="node">
<title>Vala.DataType</title>
<g id="a_node3"><a xlink:href="Vala.DataType.html" xlink:title="Vala.DataType">
<polygon fill="none" stroke="black" stroke-width="2" points="107,-180 10,-180 10,-144 107,-144 107,-180"/>
<text text-anchor="middle" x="58.5" y="-158.3" font-family="Times" font-size="14.00">Vala.DataType</text>
</a>
</g>
</g>
<!-- Vala.DataType&#45;&gt;Vala.ValueType -->
<g id="edge2" class="edge">
<title>Vala.DataType&#45;&gt;Vala.ValueType</title>
<path fill="none" stroke="black" d="M58.5,-133.67C58.5,-125.05 58.5,-115.79 58.5,-108.1"/>
<polygon fill="black" stroke="black" points="55,-133.7 58.5,-143.7 62,-133.7 55,-133.7"/>
</g>
<!-- Vala.CodeNode -->
<g id="node4" class="node">
<title>Vala.CodeNode</title>
<g id="a_node4"><a xlink:href="Vala.CodeNode.html" xlink:title="Vala.CodeNode">
<polygon fill="none" stroke="black" stroke-width="2" points="110,-252 7,-252 7,-216 110,-216 110,-252"/>
<text text-anchor="middle" x="58.5" y="-230.3" font-family="Times" font-size="14.00">Vala.CodeNode</text>
</a>
</g>
</g>
<!-- Vala.CodeNode&#45;&gt;Vala.DataType -->
<g id="edge3" class="edge">
<title>Vala.CodeNode&#45;&gt;Vala.DataType</title>
<path fill="none" stroke="black" d="M58.5,-205.67C58.5,-197.05 58.5,-187.79 58.5,-180.1"/>
<polygon fill="black" stroke="black" points="55,-205.7 58.5,-215.7 62,-205.7 55,-205.7"/>
</g>
</g>
</svg>
