<?xml version="1.0" encoding="UTF-8" standalone="no"?>
<!DOCTYPE svg PUBLIC "-//W3C//DTD SVG 1.1//EN"
 "http://www.w3.org/Graphics/SVG/1.1/DTD/svg11.dtd">
<!-- Generated by graphviz version 2.40.1 (0)
 -->
<!-- Title: Vala.LocalVariable Pages: 1 -->
<svg width="131pt" height="260pt"
 viewBox="0.00 0.00 131.00 260.00" xmlns="http://www.w3.org/2000/svg" xmlns:xlink="http://www.w3.org/1999/xlink">
<g id="graph0" class="graph" transform="scale(1 1) rotate(0) translate(4 256)">
<title>Vala.LocalVariable</title>
<polygon fill="#ffffff" stroke="transparent" points="-4,4 -4,-256 127,-256 127,4 -4,4"/>
<!-- Vala.LocalVariable -->
<g id="node1" class="node">
<title>Vala.LocalVariable</title>
<g id="a_node1"><a xlink:href="Vala.LocalVariable.html" xlink:title="Vala.LocalVariable">
<polygon fill="none" stroke="#000000" stroke-width="2" points="123,-36 0,-36 0,0 123,0 123,-36"/>
<text text-anchor="middle" x="61.5" y="-14.3" font-family="Times" font-size="14.00" fill="#000000">Vala.LocalVariable</text>
</a>
</g>
</g>
<!-- Vala.Variable -->
<g id="node2" class="node">
<title>Vala.Variable</title>
<g id="a_node2"><a xlink:href="Vala.Variable.html" xlink:title="Vala.Variable">
<polygon fill="none" stroke="#000000" stroke-width="2" points="107.5,-108 15.5,-108 15.5,-72 107.5,-72 107.5,-108"/>
<text text-anchor="middle" x="61.5" y="-86.3" font-family="Times" font-size="14.00" fill="#000000">Vala.Variable</text>
</a>
</g>
</g>
<!-- Vala.Variable&#45;&gt;Vala.LocalVariable -->
<g id="edge1" class="edge">
<title>Vala.Variable&#45;&gt;Vala.LocalVariable</title>
<path fill="none" stroke="#000000" d="M61.5,-61.5726C61.5,-53.1084 61.5,-44.0593 61.5,-36.4133"/>
<polygon fill="#000000" stroke="#000000" points="58.0001,-61.8313 61.5,-71.8314 65.0001,-61.8314 58.0001,-61.8313"/>
</g>
<!-- Vala.Symbol -->
<g id="node3" class="node">
<title>Vala.Symbol</title>
<g id="a_node3"><a xlink:href="Vala.Symbol.html" xlink:title="Vala.Symbol">
<polygon fill="none" stroke="#000000" stroke-width="2" points="105.5,-180 17.5,-180 17.5,-144 105.5,-144 105.5,-180"/>
<text text-anchor="middle" x="61.5" y="-158.3" font-family="Times" font-size="14.00" fill="#000000">Vala.Symbol</text>
</a>
</g>
</g>
<!-- Vala.Symbol&#45;&gt;Vala.Variable -->
<g id="edge2" class="edge">
<title>Vala.Symbol&#45;&gt;Vala.Variable</title>
<path fill="none" stroke="#000000" d="M61.5,-133.5726C61.5,-125.1084 61.5,-116.0593 61.5,-108.4133"/>
<polygon fill="#000000" stroke="#000000" points="58.0001,-133.8313 61.5,-143.8314 65.0001,-133.8314 58.0001,-133.8313"/>
</g>
<!-- Vala.CodeNode -->
<g id="node4" class="node">
<title>Vala.CodeNode</title>
<g id="a_node4"><a xlink:href="Vala.CodeNode.html" xlink:title="Vala.CodeNode">
<polygon fill="none" stroke="#000000" stroke-width="2" points="113,-252 10,-252 10,-216 113,-216 113,-252"/>
<text text-anchor="middle" x="61.5" y="-230.3" font-family="Times" font-size="14.00" fill="#000000">Vala.CodeNode</text>
</a>
</g>
</g>
<!-- Vala.CodeNode&#45;&gt;Vala.Symbol -->
<g id="edge3" class="edge">
<title>Vala.CodeNode&#45;&gt;Vala.Symbol</title>
<path fill="none" stroke="#000000" d="M61.5,-205.5726C61.5,-197.1084 61.5,-188.0593 61.5,-180.4133"/>
<polygon fill="#000000" stroke="#000000" points="58.0001,-205.8313 61.5,-215.8314 65.0001,-205.8314 58.0001,-205.8313"/>
</g>
</g>
</svg>
