<?xml version="1.0" encoding="UTF-8" standalone="no"?>
<!DOCTYPE svg PUBLIC "-//W3C//DTD SVG 1.1//EN"
 "http://www.w3.org/Graphics/SVG/1.1/DTD/svg11.dtd">
<!-- Generated by graphviz version 2.40.1 (0)
 -->
<!-- Title: Vala.ArrayMoveMethod Pages: 1 -->
<svg width="220pt" height="332pt"
 viewBox="0.00 0.00 220.00 332.00" xmlns="http://www.w3.org/2000/svg" xmlns:xlink="http://www.w3.org/1999/xlink">
<g id="graph0" class="graph" transform="scale(1 1) rotate(0) translate(4 328)">
<title>Vala.ArrayMoveMethod</title>
<polygon fill="#ffffff" stroke="transparent" points="-4,4 -4,-328 216,-328 216,4 -4,4"/>
<!-- Vala.ArrayMoveMethod -->
<g id="node1" class="node">
<title>Vala.ArrayMoveMethod</title>
<g id="a_node1"><a xlink:href="Vala.ArrayMoveMethod.html" xlink:title="Vala.ArrayMoveMethod">
<polygon fill="none" stroke="#000000" stroke-width="2" points="185,-36 33,-36 33,0 185,0 185,-36"/>
<text text-anchor="middle" x="109" y="-14.3" font-family="Times" font-size="14.00" fill="#000000">Vala.ArrayMoveMethod</text>
</a>
</g>
</g>
<!-- Vala.Method -->
<g id="node2" class="node">
<title>Vala.Method</title>
<g id="a_node2"><a xlink:href="Vala.Method.html" xlink:title="Vala.Method">
<polygon fill="none" stroke="#000000" stroke-width="2" points="153,-108 65,-108 65,-72 153,-72 153,-108"/>
<text text-anchor="middle" x="109" y="-86.3" font-family="Times" font-size="14.00" fill="#000000">Vala.Method</text>
</a>
</g>
</g>
<!-- Vala.Method&#45;&gt;Vala.ArrayMoveMethod -->
<g id="edge1" class="edge">
<title>Vala.Method&#45;&gt;Vala.ArrayMoveMethod</title>
<path fill="none" stroke="#000000" d="M109,-61.5726C109,-53.1084 109,-44.0593 109,-36.4133"/>
<polygon fill="#000000" stroke="#000000" points="105.5001,-61.8313 109,-71.8314 112.5001,-61.8314 105.5001,-61.8313"/>
</g>
<!-- Vala.Subroutine -->
<g id="node3" class="node">
<title>Vala.Subroutine</title>
<g id="a_node3"><a xlink:href="Vala.Subroutine.html" xlink:title="Vala.Subroutine">
<polygon fill="none" stroke="#000000" stroke-width="2" points="104,-180 0,-180 0,-144 104,-144 104,-180"/>
<text text-anchor="middle" x="52" y="-158.3" font-family="Times" font-size="14.00" fill="#000000">Vala.Subroutine</text>
</a>
</g>
</g>
<!-- Vala.Subroutine&#45;&gt;Vala.Method -->
<g id="edge2" class="edge">
<title>Vala.Subroutine&#45;&gt;Vala.Method</title>
<path fill="none" stroke="#000000" d="M72.7303,-135.8144C79.9235,-126.7282 87.8317,-116.7389 94.4228,-108.4133"/>
<polygon fill="#000000" stroke="#000000" points="69.8464,-133.8184 66.3835,-143.8314 75.3347,-138.1634 69.8464,-133.8184"/>
</g>
<!-- Vala.Symbol -->
<g id="node4" class="node">
<title>Vala.Symbol</title>
<g id="a_node4"><a xlink:href="Vala.Symbol.html" xlink:title="Vala.Symbol">
<polygon fill="none" stroke="#000000" stroke-width="2" points="96,-252 8,-252 8,-216 96,-216 96,-252"/>
<text text-anchor="middle" x="52" y="-230.3" font-family="Times" font-size="14.00" fill="#000000">Vala.Symbol</text>
</a>
</g>
</g>
<!-- Vala.Symbol&#45;&gt;Vala.Subroutine -->
<g id="edge3" class="edge">
<title>Vala.Symbol&#45;&gt;Vala.Subroutine</title>
<path fill="none" stroke="#000000" d="M52,-205.5726C52,-197.1084 52,-188.0593 52,-180.4133"/>
<polygon fill="#000000" stroke="#000000" points="48.5001,-205.8313 52,-215.8314 55.5001,-205.8314 48.5001,-205.8313"/>
</g>
<!-- Vala.CodeNode -->
<g id="node5" class="node">
<title>Vala.CodeNode</title>
<g id="a_node5"><a xlink:href="Vala.CodeNode.html" xlink:title="Vala.CodeNode">
<polygon fill="none" stroke="#000000" stroke-width="2" points="103.5,-324 .5,-324 .5,-288 103.5,-288 103.5,-324"/>
<text text-anchor="middle" x="52" y="-302.3" font-family="Times" font-size="14.00" fill="#000000">Vala.CodeNode</text>
</a>
</g>
</g>
<!-- Vala.CodeNode&#45;&gt;Vala.Symbol -->
<g id="edge4" class="edge">
<title>Vala.CodeNode&#45;&gt;Vala.Symbol</title>
<path fill="none" stroke="#000000" d="M52,-277.5726C52,-269.1084 52,-260.0593 52,-252.4133"/>
<polygon fill="#000000" stroke="#000000" points="48.5001,-277.8313 52,-287.8314 55.5001,-277.8314 48.5001,-277.8313"/>
</g>
<!-- Vala.Callable -->
<g id="node6" class="node">
<title>Vala.Callable</title>
<g id="a_node6"><a xlink:href="Vala.Callable.html" xlink:title="Vala.Callable">
<polygon fill="none" stroke="#000000" points="212,-180 122,-180 122,-144 212,-144 212,-180"/>
<text text-anchor="middle" x="167" y="-158.3" font-family="Times" font-size="14.00" fill="#000000">Vala.Callable</text>
</a>
</g>
</g>
<!-- Vala.Callable&#45;&gt;Vala.Method -->
<g id="edge5" class="edge">
<title>Vala.Callable&#45;&gt;Vala.Method</title>
<path fill="none" stroke="#000000" d="M145.9061,-135.8144C138.5866,-126.7282 130.5397,-116.7389 123.8329,-108.4133"/>
<polygon fill="#000000" stroke="#000000" points="143.3652,-138.2395 152.3642,-143.8314 148.8165,-133.8481 143.3652,-138.2395"/>
</g>
</g>
</svg>
