<?xml version="1.0" encoding="UTF-8" standalone="no"?>
<!DOCTYPE svg PUBLIC "-//W3C//DTD SVG 1.1//EN"
 "http://www.w3.org/Graphics/SVG/1.1/DTD/svg11.dtd">
<!-- Generated by graphviz version 2.40.1 (20161225.0304)
 -->
<!-- Title: Vala.PointerType Pages: 1 -->
<svg width="118pt" height="188pt"
 viewBox="0.00 0.00 118.00 188.00" xmlns="http://www.w3.org/2000/svg" xmlns:xlink="http://www.w3.org/1999/xlink">
<g id="graph0" class="graph" transform="scale(1 1) rotate(0) translate(4 184)">
<title>Vala.PointerType</title>
<polygon fill="#ffffff" stroke="transparent" points="-4,4 -4,-184 114,-184 114,4 -4,4"/>
<!-- Vala.PointerType -->
<g id="node1" class="node">
<title>Vala.PointerType</title>
<g id="a_node1"><a xlink:href="Vala.PointerType.html" xlink:title="Vala.PointerType">
<polygon fill="none" stroke="#000000" stroke-width="2" points="110,-36 0,-36 0,0 110,0 110,-36"/>
<text text-anchor="middle" x="55" y="-14.3" font-family="Times" font-size="14.00" fill="#000000">Vala.PointerType</text>
</a>
</g>
</g>
<!-- Vala.DataType -->
<g id="node2" class="node">
<title>Vala.DataType</title>
<g id="a_node2"><a xlink:href="Vala.DataType.html" xlink:title="Vala.DataType">
<polygon fill="none" stroke="#000000" stroke-width="2" points="103,-108 7,-108 7,-72 103,-72 103,-108"/>
<text text-anchor="middle" x="55" y="-86.3" font-family="Times" font-size="14.00" fill="#000000">Vala.DataType</text>
</a>
</g>
</g>
<!-- Vala.DataType&#45;&gt;Vala.PointerType -->
<g id="edge1" class="edge">
<title>Vala.DataType&#45;&gt;Vala.PointerType</title>
<path fill="none" stroke="#000000" d="M55,-61.5726C55,-53.1084 55,-44.0593 55,-36.4133"/>
<polygon fill="#000000" stroke="#000000" points="51.5001,-61.8313 55,-71.8314 58.5001,-61.8314 51.5001,-61.8313"/>
</g>
<!-- Vala.CodeNode -->
<g id="node3" class="node">
<title>Vala.CodeNode</title>
<g id="a_node3"><a xlink:href="Vala.CodeNode.html" xlink:title="Vala.CodeNode">
<polygon fill="none" stroke="#000000" stroke-width="2" points="106,-180 4,-180 4,-144 106,-144 106,-180"/>
<text text-anchor="middle" x="55" y="-158.3" font-family="Times" font-size="14.00" fill="#000000">Vala.CodeNode</text>
</a>
</g>
</g>
<!-- Vala.CodeNode&#45;&gt;Vala.DataType -->
<g id="edge2" class="edge">
<title>Vala.CodeNode&#45;&gt;Vala.DataType</title>
<path fill="none" stroke="#000000" d="M55,-133.5726C55,-125.1084 55,-116.0593 55,-108.4133"/>
<polygon fill="#000000" stroke="#000000" points="51.5001,-133.8313 55,-143.8314 58.5001,-133.8314 51.5001,-133.8313"/>
</g>
</g>
</svg>
