<?xml version="1.0" encoding="UTF-8" standalone="no"?>
<!DOCTYPE svg PUBLIC "-//W3C//DTD SVG 1.1//EN"
 "http://www.w3.org/Graphics/SVG/1.1/DTD/svg11.dtd">
<!-- Generated by graphviz version 2.40.1 (20161225.0304)
 -->
<!-- Title: Vala.Assignment Pages: 1 -->
<svg width="130pt" height="188pt"
 viewBox="0.00 0.00 130.00 188.00" xmlns="http://www.w3.org/2000/svg" xmlns:xlink="http://www.w3.org/1999/xlink">
<g id="graph0" class="graph" transform="scale(1 1) rotate(0) translate(4 184)">
<title>Vala.Assignment</title>
<polygon fill="#ffffff" stroke="transparent" points="-4,4 -4,-184 126,-184 126,4 -4,4"/>
<!-- Vala.Assignment -->
<g id="node1" class="node">
<title>Vala.Assignment</title>
<g id="a_node1"><a xlink:href="Vala.Assignment.html" xlink:title="Vala.Assignment">
<polygon fill="none" stroke="#000000" stroke-width="2" points="122,-36 0,-36 0,0 122,0 122,-36"/>
<text text-anchor="middle" x="61" y="-14.3" font-family="Times" font-size="14.00" fill="#000000">Vala.Assignment</text>
</a>
</g>
</g>
<!-- Vala.Expression -->
<g id="node2" class="node">
<title>Vala.Expression</title>
<g id="a_node2"><a xlink:href="Vala.Expression.html" xlink:title="Vala.Expression">
<polygon fill="none" stroke="#000000" stroke-width="2" points="119,-108 3,-108 3,-72 119,-72 119,-108"/>
<text text-anchor="middle" x="61" y="-86.3" font-family="Times" font-size="14.00" fill="#000000">Vala.Expression</text>
</a>
</g>
</g>
<!-- Vala.Expression&#45;&gt;Vala.Assignment -->
<g id="edge1" class="edge">
<title>Vala.Expression&#45;&gt;Vala.Assignment</title>
<path fill="none" stroke="#000000" d="M61,-61.5726C61,-53.1084 61,-44.0593 61,-36.4133"/>
<polygon fill="#000000" stroke="#000000" points="57.5001,-61.8313 61,-71.8314 64.5001,-61.8314 57.5001,-61.8313"/>
</g>
<!-- Vala.CodeNode -->
<g id="node3" class="node">
<title>Vala.CodeNode</title>
<g id="a_node3"><a xlink:href="Vala.CodeNode.html" xlink:title="Vala.CodeNode">
<polygon fill="none" stroke="#000000" stroke-width="2" points="117.5,-180 4.5,-180 4.5,-144 117.5,-144 117.5,-180"/>
<text text-anchor="middle" x="61" y="-158.3" font-family="Times" font-size="14.00" fill="#000000">Vala.CodeNode</text>
</a>
</g>
</g>
<!-- Vala.CodeNode&#45;&gt;Vala.Expression -->
<g id="edge2" class="edge">
<title>Vala.CodeNode&#45;&gt;Vala.Expression</title>
<path fill="none" stroke="#000000" d="M61,-133.5726C61,-125.1084 61,-116.0593 61,-108.4133"/>
<polygon fill="#000000" stroke="#000000" points="57.5001,-133.8313 61,-143.8314 64.5001,-133.8314 57.5001,-133.8313"/>
</g>
</g>
</svg>
