<?xml version="1.0" encoding="UTF-8" standalone="no"?>
<!DOCTYPE svg PUBLIC "-//W3C//DTD SVG 1.1//EN"
 "http://www.w3.org/Graphics/SVG/1.1/DTD/svg11.dtd">
<!-- Generated by graphviz version 2.40.1 (20161225.0304)
 -->
<!-- Title: Vala.Constructor Pages: 1 -->
<svg width="116pt" height="260pt"
 viewBox="0.00 0.00 116.00 260.00" xmlns="http://www.w3.org/2000/svg" xmlns:xlink="http://www.w3.org/1999/xlink">
<g id="graph0" class="graph" transform="scale(1 1) rotate(0) translate(4 256)">
<title>Vala.Constructor</title>
<polygon fill="#ffffff" stroke="transparent" points="-4,4 -4,-256 112,-256 112,4 -4,4"/>
<!-- Vala.Constructor -->
<g id="node1" class="node">
<title>Vala.Constructor</title>
<g id="a_node1"><a xlink:href="Vala.Constructor.html" xlink:title="Vala.Constructor">
<polygon fill="none" stroke="#000000" stroke-width="2" points="108,-36 0,-36 0,0 108,0 108,-36"/>
<text text-anchor="middle" x="54" y="-14.3" font-family="Times" font-size="14.00" fill="#000000">Vala.Constructor</text>
</a>
</g>
</g>
<!-- Vala.Subroutine -->
<g id="node2" class="node">
<title>Vala.Subroutine</title>
<g id="a_node2"><a xlink:href="Vala.Subroutine.html" xlink:title="Vala.Subroutine">
<polygon fill="none" stroke="#000000" stroke-width="2" points="106,-108 2,-108 2,-72 106,-72 106,-108"/>
<text text-anchor="middle" x="54" y="-86.3" font-family="Times" font-size="14.00" fill="#000000">Vala.Subroutine</text>
</a>
</g>
</g>
<!-- Vala.Subroutine&#45;&gt;Vala.Constructor -->
<g id="edge1" class="edge">
<title>Vala.Subroutine&#45;&gt;Vala.Constructor</title>
<path fill="none" stroke="#000000" d="M54,-61.5726C54,-53.1084 54,-44.0593 54,-36.4133"/>
<polygon fill="#000000" stroke="#000000" points="50.5001,-61.8313 54,-71.8314 57.5001,-61.8314 50.5001,-61.8313"/>
</g>
<!-- Vala.Symbol -->
<g id="node3" class="node">
<title>Vala.Symbol</title>
<g id="a_node3"><a xlink:href="Vala.Symbol.html" xlink:title="Vala.Symbol">
<polygon fill="none" stroke="#000000" stroke-width="2" points="97.5,-180 10.5,-180 10.5,-144 97.5,-144 97.5,-180"/>
<text text-anchor="middle" x="54" y="-158.3" font-family="Times" font-size="14.00" fill="#000000">Vala.Symbol</text>
</a>
</g>
</g>
<!-- Vala.Symbol&#45;&gt;Vala.Subroutine -->
<g id="edge2" class="edge">
<title>Vala.Symbol&#45;&gt;Vala.Subroutine</title>
<path fill="none" stroke="#000000" d="M54,-133.5726C54,-125.1084 54,-116.0593 54,-108.4133"/>
<polygon fill="#000000" stroke="#000000" points="50.5001,-133.8313 54,-143.8314 57.5001,-133.8314 50.5001,-133.8313"/>
</g>
<!-- Vala.CodeNode -->
<g id="node4" class="node">
<title>Vala.CodeNode</title>
<g id="a_node4"><a xlink:href="Vala.CodeNode.html" xlink:title="Vala.CodeNode">
<polygon fill="none" stroke="#000000" stroke-width="2" points="105,-252 3,-252 3,-216 105,-216 105,-252"/>
<text text-anchor="middle" x="54" y="-230.3" font-family="Times" font-size="14.00" fill="#000000">Vala.CodeNode</text>
</a>
</g>
</g>
<!-- Vala.CodeNode&#45;&gt;Vala.Symbol -->
<g id="edge3" class="edge">
<title>Vala.CodeNode&#45;&gt;Vala.Symbol</title>
<path fill="none" stroke="#000000" d="M54,-205.5726C54,-197.1084 54,-188.0593 54,-180.4133"/>
<polygon fill="#000000" stroke="#000000" points="50.5001,-205.8313 54,-215.8314 57.5001,-205.8314 50.5001,-205.8313"/>
</g>
</g>
</svg>
