<?xml version="1.0" encoding="UTF-8" standalone="no"?>
<!DOCTYPE svg PUBLIC "-//W3C//DTD SVG 1.1//EN"
 "http://www.w3.org/Graphics/SVG/1.1/DTD/svg11.dtd">
<!-- Generated by graphviz version 2.42.3 (0)
 -->
<!-- Title: Vala.Assignment Pages: 1 -->
<svg width="118pt" height="188pt"
 viewBox="0.00 0.00 118.00 188.00" xmlns="http://www.w3.org/2000/svg" xmlns:xlink="http://www.w3.org/1999/xlink">
<g id="graph0" class="graph" transform="scale(1 1) rotate(0) translate(4 184)">
<title>Vala.Assignment</title>
<polygon fill="white" stroke="transparent" points="-4,4 -4,-184 114,-184 114,4 -4,4"/>
<!-- Vala.Assignment -->
<g id="node1" class="node">
<title>Vala.Assignment</title>
<g id="a_node1"><a xlink:href="Vala.Assignment.html" xlink:title="Vala.Assignment">
<polygon fill="none" stroke="black" stroke-width="2" points="110,-36 0,-36 0,0 110,0 110,-36"/>
<text text-anchor="middle" x="55" y="-14.3" font-family="Times" font-size="14.00">Vala.Assignment</text>
</a>
</g>
</g>
<!-- Vala.Expression -->
<g id="node2" class="node">
<title>Vala.Expression</title>
<g id="a_node2"><a xlink:href="Vala.Expression.html" xlink:title="Vala.Expression">
<polygon fill="none" stroke="black" stroke-width="2" points="107.5,-108 2.5,-108 2.5,-72 107.5,-72 107.5,-108"/>
<text text-anchor="middle" x="55" y="-86.3" font-family="Times" font-size="14.00">Vala.Expression</text>
</a>
</g>
</g>
<!-- Vala.Expression&#45;&gt;Vala.Assignment -->
<g id="edge1" class="edge">
<title>Vala.Expression&#45;&gt;Vala.Assignment</title>
<path fill="none" stroke="black" d="M55,-61.67C55,-53.05 55,-43.79 55,-36.1"/>
<polygon fill="black" stroke="black" points="51.5,-61.7 55,-71.7 58.5,-61.7 51.5,-61.7"/>
</g>
<!-- Vala.CodeNode -->
<g id="node3" class="node">
<title>Vala.CodeNode</title>
<g id="a_node3"><a xlink:href="Vala.CodeNode.html" xlink:title="Vala.CodeNode">
<polygon fill="none" stroke="black" stroke-width="2" points="106.5,-180 3.5,-180 3.5,-144 106.5,-144 106.5,-180"/>
<text text-anchor="middle" x="55" y="-158.3" font-family="Times" font-size="14.00">Vala.CodeNode</text>
</a>
</g>
</g>
<!-- Vala.CodeNode&#45;&gt;Vala.Expression -->
<g id="edge2" class="edge">
<title>Vala.CodeNode&#45;&gt;Vala.Expression</title>
<path fill="none" stroke="black" d="M55,-133.67C55,-125.05 55,-115.79 55,-108.1"/>
<polygon fill="black" stroke="black" points="51.5,-133.7 55,-143.7 58.5,-133.7 51.5,-133.7"/>
</g>
</g>
</svg>
