<?xml version="1.0" encoding="UTF-8" standalone="no"?>
<!DOCTYPE svg PUBLIC "-//W3C//DTD SVG 1.1//EN"
 "http://www.w3.org/Graphics/SVG/1.1/DTD/svg11.dtd">
<!-- Generated by graphviz version 2.40.1 (20161225.0304)
 -->
<!-- Title: Vala.IfStatement Pages: 1 -->
<svg width="252pt" height="116pt"
 viewBox="0.00 0.00 252.00 116.00" xmlns="http://www.w3.org/2000/svg" xmlns:xlink="http://www.w3.org/1999/xlink">
<g id="graph0" class="graph" transform="scale(1 1) rotate(0) translate(4 112)">
<title>Vala.IfStatement</title>
<polygon fill="#ffffff" stroke="transparent" points="-4,4 -4,-112 248,-112 248,4 -4,4"/>
<!-- Vala.IfStatement -->
<g id="node1" class="node">
<title>Vala.IfStatement</title>
<g id="a_node1"><a xlink:href="Vala.IfStatement.html" xlink:title="Vala.IfStatement">
<polygon fill="none" stroke="#000000" stroke-width="2" points="183,-36 60,-36 60,0 183,0 183,-36"/>
<text text-anchor="middle" x="121.5" y="-14.3" font-family="Times" font-size="14.00" fill="#000000">Vala.IfStatement</text>
</a>
</g>
</g>
<!-- Vala.CodeNode -->
<g id="node2" class="node">
<title>Vala.CodeNode</title>
<g id="a_node2"><a xlink:href="Vala.CodeNode.html" xlink:title="Vala.CodeNode">
<polygon fill="none" stroke="#000000" stroke-width="2" points="113,-108 0,-108 0,-72 113,-72 113,-108"/>
<text text-anchor="middle" x="56.5" y="-86.3" font-family="Times" font-size="14.00" fill="#000000">Vala.CodeNode</text>
</a>
</g>
</g>
<!-- Vala.CodeNode&#45;&gt;Vala.IfStatement -->
<g id="edge1" class="edge">
<title>Vala.CodeNode&#45;&gt;Vala.IfStatement</title>
<path fill="none" stroke="#000000" d="M79.6386,-64.3696C87.9739,-55.1366 97.2073,-44.9088 104.8769,-36.4133"/>
<polygon fill="#000000" stroke="#000000" points="77.0054,-62.0633 72.9022,-71.8314 82.2013,-66.754 77.0054,-62.0633"/>
</g>
<!-- Vala.Statement -->
<g id="node3" class="node">
<title>Vala.Statement</title>
<g id="a_node3"><a xlink:href="Vala.Statement.html" xlink:title="Vala.Statement">
<polygon fill="none" stroke="#000000" points="244,-108 131,-108 131,-72 244,-72 244,-108"/>
<text text-anchor="middle" x="187.5" y="-86.3" font-family="Times" font-size="14.00" fill="#000000">Vala.Statement</text>
</a>
</g>
</g>
<!-- Vala.Statement&#45;&gt;Vala.IfStatement -->
<g id="edge2" class="edge">
<title>Vala.Statement&#45;&gt;Vala.IfStatement</title>
<path fill="none" stroke="#000000" d="M164.0054,-64.3696C155.5419,-55.1366 146.1664,-44.9088 138.3788,-36.4133"/>
<polygon fill="#000000" stroke="#000000" points="161.5081,-66.8248 170.8454,-71.8314 166.6682,-62.0947 161.5081,-66.8248"/>
</g>
</g>
</svg>
