<?xml version="1.0" encoding="UTF-8" standalone="no"?>
<!DOCTYPE svg PUBLIC "-//W3C//DTD SVG 1.1//EN"
 "http://www.w3.org/Graphics/SVG/1.1/DTD/svg11.dtd">
<!-- Generated by graphviz version 2.40.1 (0)
 -->
<!-- Title: Vala.FloatingType Pages: 1 -->
<svg width="125pt" height="260pt"
 viewBox="0.00 0.00 125.00 260.00" xmlns="http://www.w3.org/2000/svg" xmlns:xlink="http://www.w3.org/1999/xlink">
<g id="graph0" class="graph" transform="scale(1 1) rotate(0) translate(4 256)">
<title>Vala.FloatingType</title>
<polygon fill="#ffffff" stroke="transparent" points="-4,4 -4,-256 121,-256 121,4 -4,4"/>
<!-- Vala.FloatingType -->
<g id="node1" class="node">
<title>Vala.FloatingType</title>
<g id="a_node1"><a xlink:href="Vala.FloatingType.html" xlink:title="Vala.FloatingType">
<polygon fill="none" stroke="#000000" stroke-width="2" points="117,-36 0,-36 0,0 117,0 117,-36"/>
<text text-anchor="middle" x="58.5" y="-14.3" font-family="Times" font-size="14.00" fill="#000000">Vala.FloatingType</text>
</a>
</g>
</g>
<!-- Vala.ValueType -->
<g id="node2" class="node">
<title>Vala.ValueType</title>
<g id="a_node2"><a xlink:href="Vala.ValueType.html" xlink:title="Vala.ValueType">
<polygon fill="none" stroke="#000000" stroke-width="2" points="110,-108 7,-108 7,-72 110,-72 110,-108"/>
<text text-anchor="middle" x="58.5" y="-86.3" font-family="Times" font-size="14.00" fill="#000000">Vala.ValueType</text>
</a>
</g>
</g>
<!-- Vala.ValueType&#45;&gt;Vala.FloatingType -->
<g id="edge1" class="edge">
<title>Vala.ValueType&#45;&gt;Vala.FloatingType</title>
<path fill="none" stroke="#000000" d="M58.5,-61.5726C58.5,-53.1084 58.5,-44.0593 58.5,-36.4133"/>
<polygon fill="#000000" stroke="#000000" points="55.0001,-61.8313 58.5,-71.8314 62.0001,-61.8314 55.0001,-61.8313"/>
</g>
<!-- Vala.DataType -->
<g id="node3" class="node">
<title>Vala.DataType</title>
<g id="a_node3"><a xlink:href="Vala.DataType.html" xlink:title="Vala.DataType">
<polygon fill="none" stroke="#000000" stroke-width="2" points="107,-180 10,-180 10,-144 107,-144 107,-180"/>
<text text-anchor="middle" x="58.5" y="-158.3" font-family="Times" font-size="14.00" fill="#000000">Vala.DataType</text>
</a>
</g>
</g>
<!-- Vala.DataType&#45;&gt;Vala.ValueType -->
<g id="edge2" class="edge">
<title>Vala.DataType&#45;&gt;Vala.ValueType</title>
<path fill="none" stroke="#000000" d="M58.5,-133.5726C58.5,-125.1084 58.5,-116.0593 58.5,-108.4133"/>
<polygon fill="#000000" stroke="#000000" points="55.0001,-133.8313 58.5,-143.8314 62.0001,-133.8314 55.0001,-133.8313"/>
</g>
<!-- Vala.CodeNode -->
<g id="node4" class="node">
<title>Vala.CodeNode</title>
<g id="a_node4"><a xlink:href="Vala.CodeNode.html" xlink:title="Vala.CodeNode">
<polygon fill="none" stroke="#000000" stroke-width="2" points="110,-252 7,-252 7,-216 110,-216 110,-252"/>
<text text-anchor="middle" x="58.5" y="-230.3" font-family="Times" font-size="14.00" fill="#000000">Vala.CodeNode</text>
</a>
</g>
</g>
<!-- Vala.CodeNode&#45;&gt;Vala.DataType -->
<g id="edge3" class="edge">
<title>Vala.CodeNode&#45;&gt;Vala.DataType</title>
<path fill="none" stroke="#000000" d="M58.5,-205.5726C58.5,-197.1084 58.5,-188.0593 58.5,-180.4133"/>
<polygon fill="#000000" stroke="#000000" points="55.0001,-205.8313 58.5,-215.8314 62.0001,-205.8314 55.0001,-205.8313"/>
</g>
</g>
</svg>
