<?xml version="1.0" encoding="UTF-8" standalone="no"?>
<!DOCTYPE svg PUBLIC "-//W3C//DTD SVG 1.1//EN"
 "http://www.w3.org/Graphics/SVG/1.1/DTD/svg11.dtd">
<!-- Generated by graphviz version 2.42.3 (0)
 -->
<!-- Title: Vala.InitializerList Pages: 1 -->
<svg width="127pt" height="188pt"
 viewBox="0.00 0.00 127.00 188.00" xmlns="http://www.w3.org/2000/svg" xmlns:xlink="http://www.w3.org/1999/xlink">
<g id="graph0" class="graph" transform="scale(1 1) rotate(0) translate(4 184)">
<title>Vala.InitializerList</title>
<polygon fill="white" stroke="transparent" points="-4,4 -4,-184 123,-184 123,4 -4,4"/>
<!-- Vala.InitializerList -->
<g id="node1" class="node">
<title>Vala.InitializerList</title>
<g id="a_node1"><a xlink:href="Vala.InitializerList.html" xlink:title="Vala.InitializerList">
<polygon fill="none" stroke="black" stroke-width="2" points="119,-36 0,-36 0,0 119,0 119,-36"/>
<text text-anchor="middle" x="59.5" y="-14.3" font-family="Times" font-size="14.00">Vala.InitializerList</text>
</a>
</g>
</g>
<!-- Vala.Expression -->
<g id="node2" class="node">
<title>Vala.Expression</title>
<g id="a_node2"><a xlink:href="Vala.Expression.html" xlink:title="Vala.Expression">
<polygon fill="none" stroke="black" stroke-width="2" points="112,-108 7,-108 7,-72 112,-72 112,-108"/>
<text text-anchor="middle" x="59.5" y="-86.3" font-family="Times" font-size="14.00">Vala.Expression</text>
</a>
</g>
</g>
<!-- Vala.Expression&#45;&gt;Vala.InitializerList -->
<g id="edge1" class="edge">
<title>Vala.Expression&#45;&gt;Vala.InitializerList</title>
<path fill="none" stroke="black" d="M59.5,-61.67C59.5,-53.05 59.5,-43.79 59.5,-36.1"/>
<polygon fill="black" stroke="black" points="56,-61.7 59.5,-71.7 63,-61.7 56,-61.7"/>
</g>
<!-- Vala.CodeNode -->
<g id="node3" class="node">
<title>Vala.CodeNode</title>
<g id="a_node3"><a xlink:href="Vala.CodeNode.html" xlink:title="Vala.CodeNode">
<polygon fill="none" stroke="black" stroke-width="2" points="111,-180 8,-180 8,-144 111,-144 111,-180"/>
<text text-anchor="middle" x="59.5" y="-158.3" font-family="Times" font-size="14.00">Vala.CodeNode</text>
</a>
</g>
</g>
<!-- Vala.CodeNode&#45;&gt;Vala.Expression -->
<g id="edge2" class="edge">
<title>Vala.CodeNode&#45;&gt;Vala.Expression</title>
<path fill="none" stroke="black" d="M59.5,-133.67C59.5,-125.05 59.5,-115.79 59.5,-108.1"/>
<polygon fill="black" stroke="black" points="56,-133.7 59.5,-143.7 63,-133.7 56,-133.7"/>
</g>
</g>
</svg>
