<?xml version="1.0" encoding="UTF-8" standalone="no"?>
<!DOCTYPE svg PUBLIC "-//W3C//DTD SVG 1.1//EN"
 "http://www.w3.org/Graphics/SVG/1.1/DTD/svg11.dtd">
<!-- Generated by graphviz version 2.40.1 (20161225.0304)
 -->
<!-- Title: Vala.SwitchSection Pages: 1 -->
<svg width="243pt" height="260pt"
 viewBox="0.00 0.00 243.00 260.00" xmlns="http://www.w3.org/2000/svg" xmlns:xlink="http://www.w3.org/1999/xlink">
<g id="graph0" class="graph" transform="scale(1 1) rotate(0) translate(4 256)">
<title>Vala.SwitchSection</title>
<polygon fill="#ffffff" stroke="transparent" points="-4,4 -4,-256 239,-256 239,4 -4,4"/>
<!-- Vala.SwitchSection -->
<g id="node1" class="node">
<title>Vala.SwitchSection</title>
<g id="a_node1"><a xlink:href="Vala.SwitchSection.html" xlink:title="Vala.SwitchSection">
<polygon fill="none" stroke="#000000" stroke-width="2" points="187,-36 48,-36 48,0 187,0 187,-36"/>
<text text-anchor="middle" x="117.5" y="-14.3" font-family="Times" font-size="14.00" fill="#000000">Vala.SwitchSection</text>
</a>
</g>
</g>
<!-- Vala.Block -->
<g id="node2" class="node">
<title>Vala.Block</title>
<g id="a_node2"><a xlink:href="Vala.Block.html" xlink:title="Vala.Block">
<polygon fill="none" stroke="#000000" stroke-width="2" points="159,-108 76,-108 76,-72 159,-72 159,-108"/>
<text text-anchor="middle" x="117.5" y="-86.3" font-family="Times" font-size="14.00" fill="#000000">Vala.Block</text>
</a>
</g>
</g>
<!-- Vala.Block&#45;&gt;Vala.SwitchSection -->
<g id="edge1" class="edge">
<title>Vala.Block&#45;&gt;Vala.SwitchSection</title>
<path fill="none" stroke="#000000" d="M117.5,-61.5726C117.5,-53.1084 117.5,-44.0593 117.5,-36.4133"/>
<polygon fill="#000000" stroke="#000000" points="114.0001,-61.8313 117.5,-71.8314 121.0001,-61.8314 114.0001,-61.8313"/>
</g>
<!-- Vala.Symbol -->
<g id="node3" class="node">
<title>Vala.Symbol</title>
<g id="a_node3"><a xlink:href="Vala.Symbol.html" xlink:title="Vala.Symbol">
<polygon fill="none" stroke="#000000" stroke-width="2" points="104,-180 9,-180 9,-144 104,-144 104,-180"/>
<text text-anchor="middle" x="56.5" y="-158.3" font-family="Times" font-size="14.00" fill="#000000">Vala.Symbol</text>
</a>
</g>
</g>
<!-- Vala.Symbol&#45;&gt;Vala.Block -->
<g id="edge2" class="edge">
<title>Vala.Symbol&#45;&gt;Vala.Block</title>
<path fill="none" stroke="#000000" d="M78.4496,-136.0923C86.2102,-126.9323 94.7742,-116.8239 101.8999,-108.4133"/>
<polygon fill="#000000" stroke="#000000" points="75.6866,-133.939 71.8929,-143.8314 81.0275,-138.464 75.6866,-133.939"/>
</g>
<!-- Vala.CodeNode -->
<g id="node4" class="node">
<title>Vala.CodeNode</title>
<g id="a_node4"><a xlink:href="Vala.CodeNode.html" xlink:title="Vala.CodeNode">
<polygon fill="none" stroke="#000000" stroke-width="2" points="113,-252 0,-252 0,-216 113,-216 113,-252"/>
<text text-anchor="middle" x="56.5" y="-230.3" font-family="Times" font-size="14.00" fill="#000000">Vala.CodeNode</text>
</a>
</g>
</g>
<!-- Vala.CodeNode&#45;&gt;Vala.Symbol -->
<g id="edge3" class="edge">
<title>Vala.CodeNode&#45;&gt;Vala.Symbol</title>
<path fill="none" stroke="#000000" d="M56.5,-205.5726C56.5,-197.1084 56.5,-188.0593 56.5,-180.4133"/>
<polygon fill="#000000" stroke="#000000" points="53.0001,-205.8313 56.5,-215.8314 60.0001,-205.8314 53.0001,-205.8313"/>
</g>
<!-- Vala.Statement -->
<g id="node5" class="node">
<title>Vala.Statement</title>
<g id="a_node5"><a xlink:href="Vala.Statement.html" xlink:title="Vala.Statement">
<polygon fill="none" stroke="#000000" points="235,-180 122,-180 122,-144 235,-144 235,-180"/>
<text text-anchor="middle" x="178.5" y="-158.3" font-family="Times" font-size="14.00" fill="#000000">Vala.Statement</text>
</a>
</g>
</g>
<!-- Vala.Statement&#45;&gt;Vala.Block -->
<g id="edge4" class="edge">
<title>Vala.Statement&#45;&gt;Vala.Block</title>
<path fill="none" stroke="#000000" d="M156.5504,-136.0923C148.7898,-126.9323 140.2258,-116.8239 133.1001,-108.4133"/>
<polygon fill="#000000" stroke="#000000" points="153.9725,-138.464 163.1071,-143.8314 159.3134,-133.939 153.9725,-138.464"/>
</g>
</g>
</svg>
