<?xml version="1.0" encoding="UTF-8" standalone="no"?>
<!DOCTYPE svg PUBLIC "-//W3C//DTD SVG 1.1//EN"
 "http://www.w3.org/Graphics/SVG/1.1/DTD/svg11.dtd">
<!-- Generated by graphviz version 2.42.3 (0)
 -->
<!-- Title: Vala.SliceExpression Pages: 1 -->
<svg width="140pt" height="188pt"
 viewBox="0.00 0.00 140.00 188.00" xmlns="http://www.w3.org/2000/svg" xmlns:xlink="http://www.w3.org/1999/xlink">
<g id="graph0" class="graph" transform="scale(1 1) rotate(0) translate(4 184)">
<title>Vala.SliceExpression</title>
<polygon fill="white" stroke="transparent" points="-4,4 -4,-184 136,-184 136,4 -4,4"/>
<!-- Vala.SliceExpression -->
<g id="node1" class="node">
<title>Vala.SliceExpression</title>
<g id="a_node1"><a xlink:href="Vala.SliceExpression.html" xlink:title="Vala.SliceExpression">
<polygon fill="none" stroke="black" stroke-width="2" points="132,-36 0,-36 0,0 132,0 132,-36"/>
<text text-anchor="middle" x="66" y="-14.3" font-family="Times" font-size="14.00">Vala.SliceExpression</text>
</a>
</g>
</g>
<!-- Vala.Expression -->
<g id="node2" class="node">
<title>Vala.Expression</title>
<g id="a_node2"><a xlink:href="Vala.Expression.html" xlink:title="Vala.Expression">
<polygon fill="none" stroke="black" stroke-width="2" points="118.5,-108 13.5,-108 13.5,-72 118.5,-72 118.5,-108"/>
<text text-anchor="middle" x="66" y="-86.3" font-family="Times" font-size="14.00">Vala.Expression</text>
</a>
</g>
</g>
<!-- Vala.Expression&#45;&gt;Vala.SliceExpression -->
<g id="edge1" class="edge">
<title>Vala.Expression&#45;&gt;Vala.SliceExpression</title>
<path fill="none" stroke="black" d="M66,-61.67C66,-53.05 66,-43.79 66,-36.1"/>
<polygon fill="black" stroke="black" points="62.5,-61.7 66,-71.7 69.5,-61.7 62.5,-61.7"/>
</g>
<!-- Vala.CodeNode -->
<g id="node3" class="node">
<title>Vala.CodeNode</title>
<g id="a_node3"><a xlink:href="Vala.CodeNode.html" xlink:title="Vala.CodeNode">
<polygon fill="none" stroke="black" stroke-width="2" points="117.5,-180 14.5,-180 14.5,-144 117.5,-144 117.5,-180"/>
<text text-anchor="middle" x="66" y="-158.3" font-family="Times" font-size="14.00">Vala.CodeNode</text>
</a>
</g>
</g>
<!-- Vala.CodeNode&#45;&gt;Vala.Expression -->
<g id="edge2" class="edge">
<title>Vala.CodeNode&#45;&gt;Vala.Expression</title>
<path fill="none" stroke="black" d="M66,-133.67C66,-125.05 66,-115.79 66,-108.1"/>
<polygon fill="black" stroke="black" points="62.5,-133.7 66,-143.7 69.5,-133.7 62.5,-133.7"/>
</g>
</g>
</svg>
