<?xml version="1.0" encoding="UTF-8" standalone="no"?>
<!DOCTYPE svg PUBLIC "-//W3C//DTD SVG 1.1//EN"
 "http://www.w3.org/Graphics/SVG/1.1/DTD/svg11.dtd">
<!-- Generated by graphviz version 2.40.1 (20161225.0304)
 -->
<!-- Title: Vala.DynamicSignal Pages: 1 -->
<svg width="229pt" height="260pt"
 viewBox="0.00 0.00 228.50 260.00" xmlns="http://www.w3.org/2000/svg" xmlns:xlink="http://www.w3.org/1999/xlink">
<g id="graph0" class="graph" transform="scale(1 1) rotate(0) translate(4 256)">
<title>Vala.DynamicSignal</title>
<polygon fill="#ffffff" stroke="transparent" points="-4,4 -4,-256 224.5,-256 224.5,4 -4,4"/>
<!-- Vala.DynamicSignal -->
<g id="node1" class="node">
<title>Vala.DynamicSignal</title>
<g id="a_node1"><a xlink:href="Vala.DynamicSignal.html" xlink:title="Vala.DynamicSignal">
<polygon fill="none" stroke="#000000" stroke-width="2" points="184.5,-36 42.5,-36 42.5,0 184.5,0 184.5,-36"/>
<text text-anchor="middle" x="113.5" y="-14.3" font-family="Times" font-size="14.00" fill="#000000">Vala.DynamicSignal</text>
</a>
</g>
</g>
<!-- Vala.Signal -->
<g id="node2" class="node">
<title>Vala.Signal</title>
<g id="a_node2"><a xlink:href="Vala.Signal.html" xlink:title="Vala.Signal">
<polygon fill="none" stroke="#000000" stroke-width="2" points="156.5,-108 70.5,-108 70.5,-72 156.5,-72 156.5,-108"/>
<text text-anchor="middle" x="113.5" y="-86.3" font-family="Times" font-size="14.00" fill="#000000">Vala.Signal</text>
</a>
</g>
</g>
<!-- Vala.Signal&#45;&gt;Vala.DynamicSignal -->
<g id="edge1" class="edge">
<title>Vala.Signal&#45;&gt;Vala.DynamicSignal</title>
<path fill="none" stroke="#000000" d="M113.5,-61.5726C113.5,-53.1084 113.5,-44.0593 113.5,-36.4133"/>
<polygon fill="#000000" stroke="#000000" points="110.0001,-61.8313 113.5,-71.8314 117.0001,-61.8314 110.0001,-61.8313"/>
</g>
<!-- Vala.Symbol -->
<g id="node3" class="node">
<title>Vala.Symbol</title>
<g id="a_node3"><a xlink:href="Vala.Symbol.html" xlink:title="Vala.Symbol">
<polygon fill="none" stroke="#000000" stroke-width="2" points="104,-180 9,-180 9,-144 104,-144 104,-180"/>
<text text-anchor="middle" x="56.5" y="-158.3" font-family="Times" font-size="14.00" fill="#000000">Vala.Symbol</text>
</a>
</g>
</g>
<!-- Vala.Symbol&#45;&gt;Vala.Signal -->
<g id="edge2" class="edge">
<title>Vala.Symbol&#45;&gt;Vala.Signal</title>
<path fill="none" stroke="#000000" d="M77.2303,-135.8144C84.4235,-126.7282 92.3317,-116.7389 98.9228,-108.4133"/>
<polygon fill="#000000" stroke="#000000" points="74.3464,-133.8184 70.8835,-143.8314 79.8347,-138.1634 74.3464,-133.8184"/>
</g>
<!-- Vala.CodeNode -->
<g id="node4" class="node">
<title>Vala.CodeNode</title>
<g id="a_node4"><a xlink:href="Vala.CodeNode.html" xlink:title="Vala.CodeNode">
<polygon fill="none" stroke="#000000" stroke-width="2" points="113,-252 0,-252 0,-216 113,-216 113,-252"/>
<text text-anchor="middle" x="56.5" y="-230.3" font-family="Times" font-size="14.00" fill="#000000">Vala.CodeNode</text>
</a>
</g>
</g>
<!-- Vala.CodeNode&#45;&gt;Vala.Symbol -->
<g id="edge3" class="edge">
<title>Vala.CodeNode&#45;&gt;Vala.Symbol</title>
<path fill="none" stroke="#000000" d="M56.5,-205.5726C56.5,-197.1084 56.5,-188.0593 56.5,-180.4133"/>
<polygon fill="#000000" stroke="#000000" points="53.0001,-205.8313 56.5,-215.8314 60.0001,-205.8314 53.0001,-205.8313"/>
</g>
<!-- Vala.Callable -->
<g id="node5" class="node">
<title>Vala.Callable</title>
<g id="a_node5"><a xlink:href="Vala.Callable.html" xlink:title="Vala.Callable">
<polygon fill="none" stroke="#000000" points="220.5,-180 122.5,-180 122.5,-144 220.5,-144 220.5,-180"/>
<text text-anchor="middle" x="171.5" y="-158.3" font-family="Times" font-size="14.00" fill="#000000">Vala.Callable</text>
</a>
</g>
</g>
<!-- Vala.Callable&#45;&gt;Vala.Signal -->
<g id="edge4" class="edge">
<title>Vala.Callable&#45;&gt;Vala.Signal</title>
<path fill="none" stroke="#000000" d="M150.4061,-135.8144C143.0866,-126.7282 135.0397,-116.7389 128.3329,-108.4133"/>
<polygon fill="#000000" stroke="#000000" points="147.8652,-138.2395 156.8642,-143.8314 153.3165,-133.8481 147.8652,-138.2395"/>
</g>
</g>
</svg>
