<?xml version="1.0" encoding="UTF-8" standalone="no"?>
<!DOCTYPE svg PUBLIC "-//W3C//DTD SVG 1.1//EN"
 "http://www.w3.org/Graphics/SVG/1.1/DTD/svg11.dtd">
<!-- Generated by graphviz version 2.40.1 (0)
 -->
<!-- Title: Vala.EnumValueType Pages: 1 -->
<svg width="144pt" height="260pt"
 viewBox="0.00 0.00 144.00 260.00" xmlns="http://www.w3.org/2000/svg" xmlns:xlink="http://www.w3.org/1999/xlink">
<g id="graph0" class="graph" transform="scale(1 1) rotate(0) translate(4 256)">
<title>Vala.EnumValueType</title>
<polygon fill="#ffffff" stroke="transparent" points="-4,4 -4,-256 140,-256 140,4 -4,4"/>
<!-- Vala.EnumValueType -->
<g id="node1" class="node">
<title>Vala.EnumValueType</title>
<g id="a_node1"><a xlink:href="Vala.EnumValueType.html" xlink:title="Vala.EnumValueType">
<polygon fill="none" stroke="#000000" stroke-width="2" points="136,-36 0,-36 0,0 136,0 136,-36"/>
<text text-anchor="middle" x="68" y="-14.3" font-family="Times" font-size="14.00" fill="#000000">Vala.EnumValueType</text>
</a>
</g>
</g>
<!-- Vala.ValueType -->
<g id="node2" class="node">
<title>Vala.ValueType</title>
<g id="a_node2"><a xlink:href="Vala.ValueType.html" xlink:title="Vala.ValueType">
<polygon fill="none" stroke="#000000" stroke-width="2" points="119.5,-108 16.5,-108 16.5,-72 119.5,-72 119.5,-108"/>
<text text-anchor="middle" x="68" y="-86.3" font-family="Times" font-size="14.00" fill="#000000">Vala.ValueType</text>
</a>
</g>
</g>
<!-- Vala.ValueType&#45;&gt;Vala.EnumValueType -->
<g id="edge1" class="edge">
<title>Vala.ValueType&#45;&gt;Vala.EnumValueType</title>
<path fill="none" stroke="#000000" d="M68,-61.5726C68,-53.1084 68,-44.0593 68,-36.4133"/>
<polygon fill="#000000" stroke="#000000" points="64.5001,-61.8313 68,-71.8314 71.5001,-61.8314 64.5001,-61.8313"/>
</g>
<!-- Vala.DataType -->
<g id="node3" class="node">
<title>Vala.DataType</title>
<g id="a_node3"><a xlink:href="Vala.DataType.html" xlink:title="Vala.DataType">
<polygon fill="none" stroke="#000000" stroke-width="2" points="116.5,-180 19.5,-180 19.5,-144 116.5,-144 116.5,-180"/>
<text text-anchor="middle" x="68" y="-158.3" font-family="Times" font-size="14.00" fill="#000000">Vala.DataType</text>
</a>
</g>
</g>
<!-- Vala.DataType&#45;&gt;Vala.ValueType -->
<g id="edge2" class="edge">
<title>Vala.DataType&#45;&gt;Vala.ValueType</title>
<path fill="none" stroke="#000000" d="M68,-133.5726C68,-125.1084 68,-116.0593 68,-108.4133"/>
<polygon fill="#000000" stroke="#000000" points="64.5001,-133.8313 68,-143.8314 71.5001,-133.8314 64.5001,-133.8313"/>
</g>
<!-- Vala.CodeNode -->
<g id="node4" class="node">
<title>Vala.CodeNode</title>
<g id="a_node4"><a xlink:href="Vala.CodeNode.html" xlink:title="Vala.CodeNode">
<polygon fill="none" stroke="#000000" stroke-width="2" points="119.5,-252 16.5,-252 16.5,-216 119.5,-216 119.5,-252"/>
<text text-anchor="middle" x="68" y="-230.3" font-family="Times" font-size="14.00" fill="#000000">Vala.CodeNode</text>
</a>
</g>
</g>
<!-- Vala.CodeNode&#45;&gt;Vala.DataType -->
<g id="edge3" class="edge">
<title>Vala.CodeNode&#45;&gt;Vala.DataType</title>
<path fill="none" stroke="#000000" d="M68,-205.5726C68,-197.1084 68,-188.0593 68,-180.4133"/>
<polygon fill="#000000" stroke="#000000" points="64.5001,-205.8313 68,-215.8314 71.5001,-205.8314 64.5001,-205.8313"/>
</g>
</g>
</svg>
