<?xml version="1.0" encoding="UTF-8" standalone="no"?>
<!DOCTYPE svg PUBLIC "-//W3C//DTD SVG 1.1//EN"
 "http://www.w3.org/Graphics/SVG/1.1/DTD/svg11.dtd">
<!-- Generated by graphviz version 2.42.3 (0)
 -->
<!-- Title: Vala.UnresolvedType Pages: 1 -->
<svg width="142pt" height="188pt"
 viewBox="0.00 0.00 142.00 188.00" xmlns="http://www.w3.org/2000/svg" xmlns:xlink="http://www.w3.org/1999/xlink">
<g id="graph0" class="graph" transform="scale(1 1) rotate(0) translate(4 184)">
<title>Vala.UnresolvedType</title>
<polygon fill="white" stroke="transparent" points="-4,4 -4,-184 138,-184 138,4 -4,4"/>
<!-- Vala.UnresolvedType -->
<g id="node1" class="node">
<title>Vala.UnresolvedType</title>
<g id="a_node1"><a xlink:href="Vala.UnresolvedType.html" xlink:title="Vala.UnresolvedType">
<polygon fill="none" stroke="black" stroke-width="2" points="134,-36 0,-36 0,0 134,0 134,-36"/>
<text text-anchor="middle" x="67" y="-14.3" font-family="Times" font-size="14.00">Vala.UnresolvedType</text>
</a>
</g>
</g>
<!-- Vala.DataType -->
<g id="node2" class="node">
<title>Vala.DataType</title>
<g id="a_node2"><a xlink:href="Vala.DataType.html" xlink:title="Vala.DataType">
<polygon fill="none" stroke="black" stroke-width="2" points="115.5,-108 18.5,-108 18.5,-72 115.5,-72 115.5,-108"/>
<text text-anchor="middle" x="67" y="-86.3" font-family="Times" font-size="14.00">Vala.DataType</text>
</a>
</g>
</g>
<!-- Vala.DataType&#45;&gt;Vala.UnresolvedType -->
<g id="edge1" class="edge">
<title>Vala.DataType&#45;&gt;Vala.UnresolvedType</title>
<path fill="none" stroke="black" d="M67,-61.67C67,-53.05 67,-43.79 67,-36.1"/>
<polygon fill="black" stroke="black" points="63.5,-61.7 67,-71.7 70.5,-61.7 63.5,-61.7"/>
</g>
<!-- Vala.CodeNode -->
<g id="node3" class="node">
<title>Vala.CodeNode</title>
<g id="a_node3"><a xlink:href="Vala.CodeNode.html" xlink:title="Vala.CodeNode">
<polygon fill="none" stroke="black" stroke-width="2" points="118.5,-180 15.5,-180 15.5,-144 118.5,-144 118.5,-180"/>
<text text-anchor="middle" x="67" y="-158.3" font-family="Times" font-size="14.00">Vala.CodeNode</text>
</a>
</g>
</g>
<!-- Vala.CodeNode&#45;&gt;Vala.DataType -->
<g id="edge2" class="edge">
<title>Vala.CodeNode&#45;&gt;Vala.DataType</title>
<path fill="none" stroke="black" d="M67,-133.67C67,-125.05 67,-115.79 67,-108.1"/>
<polygon fill="black" stroke="black" points="63.5,-133.7 67,-143.7 70.5,-133.7 63.5,-133.7"/>
</g>
</g>
</svg>
