<?xml version="1.0" encoding="UTF-8" standalone="no"?>
<!DOCTYPE svg PUBLIC "-//W3C//DTD SVG 1.1//EN"
 "http://www.w3.org/Graphics/SVG/1.1/DTD/svg11.dtd">
<!-- Generated by graphviz version 2.40.1 (0)
 -->
<!-- Title: Vala.Namespace Pages: 1 -->
<svg width="116pt" height="188pt"
 viewBox="0.00 0.00 116.00 188.00" xmlns="http://www.w3.org/2000/svg" xmlns:xlink="http://www.w3.org/1999/xlink">
<g id="graph0" class="graph" transform="scale(1 1) rotate(0) translate(4 184)">
<title>Vala.Namespace</title>
<polygon fill="#ffffff" stroke="transparent" points="-4,4 -4,-184 112,-184 112,4 -4,4"/>
<!-- Vala.Namespace -->
<g id="node1" class="node">
<title>Vala.Namespace</title>
<g id="a_node1"><a xlink:href="Vala.Namespace.html" xlink:title="Vala.Namespace">
<polygon fill="none" stroke="#000000" stroke-width="2" points="108,-36 0,-36 0,0 108,0 108,-36"/>
<text text-anchor="middle" x="54" y="-14.3" font-family="Times" font-size="14.00" fill="#000000">Vala.Namespace</text>
</a>
</g>
</g>
<!-- Vala.Symbol -->
<g id="node2" class="node">
<title>Vala.Symbol</title>
<g id="a_node2"><a xlink:href="Vala.Symbol.html" xlink:title="Vala.Symbol">
<polygon fill="none" stroke="#000000" stroke-width="2" points="98,-108 10,-108 10,-72 98,-72 98,-108"/>
<text text-anchor="middle" x="54" y="-86.3" font-family="Times" font-size="14.00" fill="#000000">Vala.Symbol</text>
</a>
</g>
</g>
<!-- Vala.Symbol&#45;&gt;Vala.Namespace -->
<g id="edge1" class="edge">
<title>Vala.Symbol&#45;&gt;Vala.Namespace</title>
<path fill="none" stroke="#000000" d="M54,-61.5726C54,-53.1084 54,-44.0593 54,-36.4133"/>
<polygon fill="#000000" stroke="#000000" points="50.5001,-61.8313 54,-71.8314 57.5001,-61.8314 50.5001,-61.8313"/>
</g>
<!-- Vala.CodeNode -->
<g id="node3" class="node">
<title>Vala.CodeNode</title>
<g id="a_node3"><a xlink:href="Vala.CodeNode.html" xlink:title="Vala.CodeNode">
<polygon fill="none" stroke="#000000" stroke-width="2" points="105.5,-180 2.5,-180 2.5,-144 105.5,-144 105.5,-180"/>
<text text-anchor="middle" x="54" y="-158.3" font-family="Times" font-size="14.00" fill="#000000">Vala.CodeNode</text>
</a>
</g>
</g>
<!-- Vala.CodeNode&#45;&gt;Vala.Symbol -->
<g id="edge2" class="edge">
<title>Vala.CodeNode&#45;&gt;Vala.Symbol</title>
<path fill="none" stroke="#000000" d="M54,-133.5726C54,-125.1084 54,-116.0593 54,-108.4133"/>
<polygon fill="#000000" stroke="#000000" points="50.5001,-133.8313 54,-143.8314 57.5001,-133.8314 50.5001,-133.8313"/>
</g>
</g>
</svg>
