<?xml version="1.0" encoding="UTF-8" standalone="no"?>
<!DOCTYPE svg PUBLIC "-//W3C//DTD SVG 1.1//EN"
 "http://www.w3.org/Graphics/SVG/1.1/DTD/svg11.dtd">
<!-- Generated by graphviz version 2.40.1 (0)
 -->
<!-- Title: Vala.ForeachStatement Pages: 1 -->
<svg width="222pt" height="260pt"
 viewBox="0.00 0.00 221.50 260.00" xmlns="http://www.w3.org/2000/svg" xmlns:xlink="http://www.w3.org/1999/xlink">
<g id="graph0" class="graph" transform="scale(1 1) rotate(0) translate(4 256)">
<title>Vala.ForeachStatement</title>
<polygon fill="#ffffff" stroke="transparent" points="-4,4 -4,-256 217.5,-256 217.5,4 -4,4"/>
<!-- Vala.ForeachStatement -->
<g id="node1" class="node">
<title>Vala.ForeachStatement</title>
<g id="a_node1"><a xlink:href="Vala.ForeachStatement.html" xlink:title="Vala.ForeachStatement">
<polygon fill="none" stroke="#000000" stroke-width="2" points="179,-36 36,-36 36,0 179,0 179,-36"/>
<text text-anchor="middle" x="107.5" y="-14.3" font-family="Times" font-size="14.00" fill="#000000">Vala.ForeachStatement</text>
</a>
</g>
</g>
<!-- Vala.Block -->
<g id="node2" class="node">
<title>Vala.Block</title>
<g id="a_node2"><a xlink:href="Vala.Block.html" xlink:title="Vala.Block">
<polygon fill="none" stroke="#000000" stroke-width="2" points="146,-108 69,-108 69,-72 146,-72 146,-108"/>
<text text-anchor="middle" x="107.5" y="-86.3" font-family="Times" font-size="14.00" fill="#000000">Vala.Block</text>
</a>
</g>
</g>
<!-- Vala.Block&#45;&gt;Vala.ForeachStatement -->
<g id="edge1" class="edge">
<title>Vala.Block&#45;&gt;Vala.ForeachStatement</title>
<path fill="none" stroke="#000000" d="M107.5,-61.5726C107.5,-53.1084 107.5,-44.0593 107.5,-36.4133"/>
<polygon fill="#000000" stroke="#000000" points="104.0001,-61.8313 107.5,-71.8314 111.0001,-61.8314 104.0001,-61.8313"/>
</g>
<!-- Vala.Symbol -->
<g id="node3" class="node">
<title>Vala.Symbol</title>
<g id="a_node3"><a xlink:href="Vala.Symbol.html" xlink:title="Vala.Symbol">
<polygon fill="none" stroke="#000000" stroke-width="2" points="95.5,-180 7.5,-180 7.5,-144 95.5,-144 95.5,-180"/>
<text text-anchor="middle" x="51.5" y="-158.3" font-family="Times" font-size="14.00" fill="#000000">Vala.Symbol</text>
</a>
</g>
</g>
<!-- Vala.Symbol&#45;&gt;Vala.Block -->
<g id="edge2" class="edge">
<title>Vala.Symbol&#45;&gt;Vala.Block</title>
<path fill="none" stroke="#000000" d="M71.8666,-135.8144C78.9336,-126.7282 86.7031,-116.7389 93.1786,-108.4133"/>
<polygon fill="#000000" stroke="#000000" points="69.0079,-133.789 65.6312,-143.8314 74.5333,-138.0866 69.0079,-133.789"/>
</g>
<!-- Vala.CodeNode -->
<g id="node4" class="node">
<title>Vala.CodeNode</title>
<g id="a_node4"><a xlink:href="Vala.CodeNode.html" xlink:title="Vala.CodeNode">
<polygon fill="none" stroke="#000000" stroke-width="2" points="103,-252 0,-252 0,-216 103,-216 103,-252"/>
<text text-anchor="middle" x="51.5" y="-230.3" font-family="Times" font-size="14.00" fill="#000000">Vala.CodeNode</text>
</a>
</g>
</g>
<!-- Vala.CodeNode&#45;&gt;Vala.Symbol -->
<g id="edge3" class="edge">
<title>Vala.CodeNode&#45;&gt;Vala.Symbol</title>
<path fill="none" stroke="#000000" d="M51.5,-205.5726C51.5,-197.1084 51.5,-188.0593 51.5,-180.4133"/>
<polygon fill="#000000" stroke="#000000" points="48.0001,-205.8313 51.5,-215.8314 55.0001,-205.8314 48.0001,-205.8313"/>
</g>
<!-- Vala.Statement -->
<g id="node5" class="node">
<title>Vala.Statement</title>
<g id="a_node5"><a xlink:href="Vala.Statement.html" xlink:title="Vala.Statement">
<polygon fill="none" stroke="#000000" points="213.5,-180 113.5,-180 113.5,-144 213.5,-144 213.5,-180"/>
<text text-anchor="middle" x="163.5" y="-158.3" font-family="Times" font-size="14.00" fill="#000000">Vala.Statement</text>
</a>
</g>
</g>
<!-- Vala.Statement&#45;&gt;Vala.Block -->
<g id="edge4" class="edge">
<title>Vala.Statement&#45;&gt;Vala.Block</title>
<path fill="none" stroke="#000000" d="M143.1334,-135.8144C136.0664,-126.7282 128.2969,-116.7389 121.8214,-108.4133"/>
<polygon fill="#000000" stroke="#000000" points="140.4667,-138.0866 149.3688,-143.8314 145.9921,-133.789 140.4667,-138.0866"/>
</g>
</g>
</svg>
