<?xml version="1.0" encoding="UTF-8" standalone="no"?>
<!DOCTYPE svg PUBLIC "-//W3C//DTD SVG 1.1//EN"
 "http://www.w3.org/Graphics/SVG/1.1/DTD/svg11.dtd">
<!-- Generated by graphviz version 2.42.3 (0)
 -->
<!-- Title: Vala.CharacterLiteral Pages: 1 -->
<svg width="142pt" height="260pt"
 viewBox="0.00 0.00 142.00 260.00" xmlns="http://www.w3.org/2000/svg" xmlns:xlink="http://www.w3.org/1999/xlink">
<g id="graph0" class="graph" transform="scale(1 1) rotate(0) translate(4 256)">
<title>Vala.CharacterLiteral</title>
<polygon fill="white" stroke="transparent" points="-4,4 -4,-256 138,-256 138,4 -4,4"/>
<!-- Vala.CharacterLiteral -->
<g id="node1" class="node">
<title>Vala.CharacterLiteral</title>
<g id="a_node1"><a xlink:href="Vala.CharacterLiteral.html" xlink:title="Vala.CharacterLiteral">
<polygon fill="none" stroke="black" stroke-width="2" points="134,-36 0,-36 0,0 134,0 134,-36"/>
<text text-anchor="middle" x="67" y="-14.3" font-family="Times" font-size="14.00">Vala.CharacterLiteral</text>
</a>
</g>
</g>
<!-- Vala.Literal -->
<g id="node2" class="node">
<title>Vala.Literal</title>
<g id="a_node2"><a xlink:href="Vala.Literal.html" xlink:title="Vala.Literal">
<polygon fill="none" stroke="black" stroke-width="2" points="107.5,-108 26.5,-108 26.5,-72 107.5,-72 107.5,-108"/>
<text text-anchor="middle" x="67" y="-86.3" font-family="Times" font-size="14.00">Vala.Literal</text>
</a>
</g>
</g>
<!-- Vala.Literal&#45;&gt;Vala.CharacterLiteral -->
<g id="edge1" class="edge">
<title>Vala.Literal&#45;&gt;Vala.CharacterLiteral</title>
<path fill="none" stroke="black" d="M67,-61.67C67,-53.05 67,-43.79 67,-36.1"/>
<polygon fill="black" stroke="black" points="63.5,-61.7 67,-71.7 70.5,-61.7 63.5,-61.7"/>
</g>
<!-- Vala.Expression -->
<g id="node3" class="node">
<title>Vala.Expression</title>
<g id="a_node3"><a xlink:href="Vala.Expression.html" xlink:title="Vala.Expression">
<polygon fill="none" stroke="black" stroke-width="2" points="119.5,-180 14.5,-180 14.5,-144 119.5,-144 119.5,-180"/>
<text text-anchor="middle" x="67" y="-158.3" font-family="Times" font-size="14.00">Vala.Expression</text>
</a>
</g>
</g>
<!-- Vala.Expression&#45;&gt;Vala.Literal -->
<g id="edge2" class="edge">
<title>Vala.Expression&#45;&gt;Vala.Literal</title>
<path fill="none" stroke="black" d="M67,-133.67C67,-125.05 67,-115.79 67,-108.1"/>
<polygon fill="black" stroke="black" points="63.5,-133.7 67,-143.7 70.5,-133.7 63.5,-133.7"/>
</g>
<!-- Vala.CodeNode -->
<g id="node4" class="node">
<title>Vala.CodeNode</title>
<g id="a_node4"><a xlink:href="Vala.CodeNode.html" xlink:title="Vala.CodeNode">
<polygon fill="none" stroke="black" stroke-width="2" points="118.5,-252 15.5,-252 15.5,-216 118.5,-216 118.5,-252"/>
<text text-anchor="middle" x="67" y="-230.3" font-family="Times" font-size="14.00">Vala.CodeNode</text>
</a>
</g>
</g>
<!-- Vala.CodeNode&#45;&gt;Vala.Expression -->
<g id="edge3" class="edge">
<title>Vala.CodeNode&#45;&gt;Vala.Expression</title>
<path fill="none" stroke="black" d="M67,-205.67C67,-197.05 67,-187.79 67,-180.1"/>
<polygon fill="black" stroke="black" points="63.5,-205.7 67,-215.7 70.5,-205.7 63.5,-205.7"/>
</g>
</g>
</svg>
