<?xml version="1.0" encoding="UTF-8" standalone="no"?>
<!DOCTYPE svg PUBLIC "-//W3C//DTD SVG 1.1//EN"
 "http://www.w3.org/Graphics/SVG/1.1/DTD/svg11.dtd">
<!-- Generated by graphviz version 2.40.1 (0)
 -->
<!-- Title: Vala.Signal Pages: 1 -->
<svg width="212pt" height="188pt"
 viewBox="0.00 0.00 211.50 188.00" xmlns="http://www.w3.org/2000/svg" xmlns:xlink="http://www.w3.org/1999/xlink">
<g id="graph0" class="graph" transform="scale(1 1) rotate(0) translate(4 184)">
<title>Vala.Signal</title>
<polygon fill="#ffffff" stroke="transparent" points="-4,4 -4,-184 207.5,-184 207.5,4 -4,4"/>
<!-- Vala.Signal -->
<g id="node1" class="node">
<title>Vala.Signal</title>
<g id="a_node1"><a xlink:href="Vala.Signal.html" xlink:title="Vala.Signal">
<polygon fill="none" stroke="#000000" stroke-width="2" points="144.5,-36 64.5,-36 64.5,0 144.5,0 144.5,-36"/>
<text text-anchor="middle" x="104.5" y="-14.3" font-family="Times" font-size="14.00" fill="#000000">Vala.Signal</text>
</a>
</g>
</g>
<!-- Vala.Symbol -->
<g id="node2" class="node">
<title>Vala.Symbol</title>
<g id="a_node2"><a xlink:href="Vala.Symbol.html" xlink:title="Vala.Symbol">
<polygon fill="none" stroke="#000000" stroke-width="2" points="95.5,-108 7.5,-108 7.5,-72 95.5,-72 95.5,-108"/>
<text text-anchor="middle" x="51.5" y="-86.3" font-family="Times" font-size="14.00" fill="#000000">Vala.Symbol</text>
</a>
</g>
</g>
<!-- Vala.Symbol&#45;&gt;Vala.Signal -->
<g id="edge1" class="edge">
<title>Vala.Symbol&#45;&gt;Vala.Signal</title>
<path fill="none" stroke="#000000" d="M70.9805,-63.536C77.6139,-54.5245 84.8797,-44.654 90.9458,-36.4133"/>
<polygon fill="#000000" stroke="#000000" points="67.9837,-61.7031 64.8741,-71.8314 73.621,-65.8528 67.9837,-61.7031"/>
</g>
<!-- Vala.CodeNode -->
<g id="node3" class="node">
<title>Vala.CodeNode</title>
<g id="a_node3"><a xlink:href="Vala.CodeNode.html" xlink:title="Vala.CodeNode">
<polygon fill="none" stroke="#000000" stroke-width="2" points="103,-180 0,-180 0,-144 103,-144 103,-180"/>
<text text-anchor="middle" x="51.5" y="-158.3" font-family="Times" font-size="14.00" fill="#000000">Vala.CodeNode</text>
</a>
</g>
</g>
<!-- Vala.CodeNode&#45;&gt;Vala.Symbol -->
<g id="edge2" class="edge">
<title>Vala.CodeNode&#45;&gt;Vala.Symbol</title>
<path fill="none" stroke="#000000" d="M51.5,-133.5726C51.5,-125.1084 51.5,-116.0593 51.5,-108.4133"/>
<polygon fill="#000000" stroke="#000000" points="48.0001,-133.8313 51.5,-143.8314 55.0001,-133.8314 48.0001,-133.8313"/>
</g>
<!-- Vala.Callable -->
<g id="node4" class="node">
<title>Vala.Callable</title>
<g id="a_node4"><a xlink:href="Vala.Callable.html" xlink:title="Vala.Callable">
<polygon fill="none" stroke="#000000" points="203.5,-108 113.5,-108 113.5,-72 203.5,-72 203.5,-108"/>
<text text-anchor="middle" x="158.5" y="-86.3" font-family="Times" font-size="14.00" fill="#000000">Vala.Callable</text>
</a>
</g>
</g>
<!-- Vala.Callable&#45;&gt;Vala.Signal -->
<g id="edge3" class="edge">
<title>Vala.Callable&#45;&gt;Vala.Signal</title>
<path fill="none" stroke="#000000" d="M138.8608,-63.8144C132.0462,-54.7282 124.5542,-44.7389 118.31,-36.4133"/>
<polygon fill="#000000" stroke="#000000" points="136.0735,-65.9314 144.8735,-71.8314 141.6735,-61.7313 136.0735,-65.9314"/>
</g>
</g>
</svg>
