<?xml version="1.0" encoding="UTF-8" standalone="no"?>
<!DOCTYPE svg PUBLIC "-//W3C//DTD SVG 1.1//EN"
 "http://www.w3.org/Graphics/SVG/1.1/DTD/svg11.dtd">
<!-- Generated by graphviz version 2.40.1 (20161225.0304)
 -->
<!-- Title: Vala.AddressofExpression Pages: 1 -->
<svg width="189pt" height="188pt"
 viewBox="0.00 0.00 189.00 188.00" xmlns="http://www.w3.org/2000/svg" xmlns:xlink="http://www.w3.org/1999/xlink">
<g id="graph0" class="graph" transform="scale(1 1) rotate(0) translate(4 184)">
<title>Vala.AddressofExpression</title>
<polygon fill="#ffffff" stroke="transparent" points="-4,4 -4,-184 185,-184 185,4 -4,4"/>
<!-- Vala.AddressofExpression -->
<g id="node1" class="node">
<title>Vala.AddressofExpression</title>
<g id="a_node1"><a xlink:href="Vala.AddressofExpression.html" xlink:title="Vala.AddressofExpression">
<polygon fill="none" stroke="#000000" stroke-width="2" points="181,-36 0,-36 0,0 181,0 181,-36"/>
<text text-anchor="middle" x="90.5" y="-14.3" font-family="Times" font-size="14.00" fill="#000000">Vala.AddressofExpression</text>
</a>
</g>
</g>
<!-- Vala.Expression -->
<g id="node2" class="node">
<title>Vala.Expression</title>
<g id="a_node2"><a xlink:href="Vala.Expression.html" xlink:title="Vala.Expression">
<polygon fill="none" stroke="#000000" stroke-width="2" points="148.5,-108 32.5,-108 32.5,-72 148.5,-72 148.5,-108"/>
<text text-anchor="middle" x="90.5" y="-86.3" font-family="Times" font-size="14.00" fill="#000000">Vala.Expression</text>
</a>
</g>
</g>
<!-- Vala.Expression&#45;&gt;Vala.AddressofExpression -->
<g id="edge1" class="edge">
<title>Vala.Expression&#45;&gt;Vala.AddressofExpression</title>
<path fill="none" stroke="#000000" d="M90.5,-61.5726C90.5,-53.1084 90.5,-44.0593 90.5,-36.4133"/>
<polygon fill="#000000" stroke="#000000" points="87.0001,-61.8313 90.5,-71.8314 94.0001,-61.8314 87.0001,-61.8313"/>
</g>
<!-- Vala.CodeNode -->
<g id="node3" class="node">
<title>Vala.CodeNode</title>
<g id="a_node3"><a xlink:href="Vala.CodeNode.html" xlink:title="Vala.CodeNode">
<polygon fill="none" stroke="#000000" stroke-width="2" points="147,-180 34,-180 34,-144 147,-144 147,-180"/>
<text text-anchor="middle" x="90.5" y="-158.3" font-family="Times" font-size="14.00" fill="#000000">Vala.CodeNode</text>
</a>
</g>
</g>
<!-- Vala.CodeNode&#45;&gt;Vala.Expression -->
<g id="edge2" class="edge">
<title>Vala.CodeNode&#45;&gt;Vala.Expression</title>
<path fill="none" stroke="#000000" d="M90.5,-133.5726C90.5,-125.1084 90.5,-116.0593 90.5,-108.4133"/>
<polygon fill="#000000" stroke="#000000" points="87.0001,-133.8313 90.5,-143.8314 94.0001,-133.8314 87.0001,-133.8313"/>
</g>
</g>
</svg>
