<?xml version="1.0" encoding="UTF-8" standalone="no"?>
<!DOCTYPE svg PUBLIC "-//W3C//DTD SVG 1.1//EN"
 "http://www.w3.org/Graphics/SVG/1.1/DTD/svg11.dtd">
<!-- Generated by graphviz version 2.42.3 (0)
 -->
<!-- Title: Vala.TypeofExpression Pages: 1 -->
<svg width="151pt" height="188pt"
 viewBox="0.00 0.00 151.00 188.00" xmlns="http://www.w3.org/2000/svg" xmlns:xlink="http://www.w3.org/1999/xlink">
<g id="graph0" class="graph" transform="scale(1 1) rotate(0) translate(4 184)">
<title>Vala.TypeofExpression</title>
<polygon fill="white" stroke="transparent" points="-4,4 -4,-184 147,-184 147,4 -4,4"/>
<!-- Vala.TypeofExpression -->
<g id="node1" class="node">
<title>Vala.TypeofExpression</title>
<g id="a_node1"><a xlink:href="Vala.TypeofExpression.html" xlink:title="Vala.TypeofExpression">
<polygon fill="none" stroke="black" stroke-width="2" points="143,-36 0,-36 0,0 143,0 143,-36"/>
<text text-anchor="middle" x="71.5" y="-14.3" font-family="Times" font-size="14.00">Vala.TypeofExpression</text>
</a>
</g>
</g>
<!-- Vala.Expression -->
<g id="node2" class="node">
<title>Vala.Expression</title>
<g id="a_node2"><a xlink:href="Vala.Expression.html" xlink:title="Vala.Expression">
<polygon fill="none" stroke="black" stroke-width="2" points="124,-108 19,-108 19,-72 124,-72 124,-108"/>
<text text-anchor="middle" x="71.5" y="-86.3" font-family="Times" font-size="14.00">Vala.Expression</text>
</a>
</g>
</g>
<!-- Vala.Expression&#45;&gt;Vala.TypeofExpression -->
<g id="edge1" class="edge">
<title>Vala.Expression&#45;&gt;Vala.TypeofExpression</title>
<path fill="none" stroke="black" d="M71.5,-61.67C71.5,-53.05 71.5,-43.79 71.5,-36.1"/>
<polygon fill="black" stroke="black" points="68,-61.7 71.5,-71.7 75,-61.7 68,-61.7"/>
</g>
<!-- Vala.CodeNode -->
<g id="node3" class="node">
<title>Vala.CodeNode</title>
<g id="a_node3"><a xlink:href="Vala.CodeNode.html" xlink:title="Vala.CodeNode">
<polygon fill="none" stroke="black" stroke-width="2" points="123,-180 20,-180 20,-144 123,-144 123,-180"/>
<text text-anchor="middle" x="71.5" y="-158.3" font-family="Times" font-size="14.00">Vala.CodeNode</text>
</a>
</g>
</g>
<!-- Vala.CodeNode&#45;&gt;Vala.Expression -->
<g id="edge2" class="edge">
<title>Vala.CodeNode&#45;&gt;Vala.Expression</title>
<path fill="none" stroke="black" d="M71.5,-133.67C71.5,-125.05 71.5,-115.79 71.5,-108.1"/>
<polygon fill="black" stroke="black" points="68,-133.7 71.5,-143.7 75,-133.7 68,-133.7"/>
</g>
</g>
</svg>
