<?xml version="1.0" encoding="UTF-8" standalone="no"?>
<!DOCTYPE svg PUBLIC "-//W3C//DTD SVG 1.1//EN"
 "http://www.w3.org/Graphics/SVG/1.1/DTD/svg11.dtd">
<!-- Generated by graphviz version 2.40.1 (0)
 -->
<!-- Title: Vala.EnumValue Pages: 1 -->
<svg width="118pt" height="260pt"
 viewBox="0.00 0.00 118.00 260.00" xmlns="http://www.w3.org/2000/svg" xmlns:xlink="http://www.w3.org/1999/xlink">
<g id="graph0" class="graph" transform="scale(1 1) rotate(0) translate(4 256)">
<title>Vala.EnumValue</title>
<polygon fill="#ffffff" stroke="transparent" points="-4,4 -4,-256 114,-256 114,4 -4,4"/>
<!-- Vala.EnumValue -->
<g id="node1" class="node">
<title>Vala.EnumValue</title>
<g id="a_node1"><a xlink:href="Vala.EnumValue.html" xlink:title="Vala.EnumValue">
<polygon fill="none" stroke="#000000" stroke-width="2" points="110,-36 0,-36 0,0 110,0 110,-36"/>
<text text-anchor="middle" x="55" y="-14.3" font-family="Times" font-size="14.00" fill="#000000">Vala.EnumValue</text>
</a>
</g>
</g>
<!-- Vala.Constant -->
<g id="node2" class="node">
<title>Vala.Constant</title>
<g id="a_node2"><a xlink:href="Vala.Constant.html" xlink:title="Vala.Constant">
<polygon fill="none" stroke="#000000" stroke-width="2" points="101.5,-108 8.5,-108 8.5,-72 101.5,-72 101.5,-108"/>
<text text-anchor="middle" x="55" y="-86.3" font-family="Times" font-size="14.00" fill="#000000">Vala.Constant</text>
</a>
</g>
</g>
<!-- Vala.Constant&#45;&gt;Vala.EnumValue -->
<g id="edge1" class="edge">
<title>Vala.Constant&#45;&gt;Vala.EnumValue</title>
<path fill="none" stroke="#000000" d="M55,-61.5726C55,-53.1084 55,-44.0593 55,-36.4133"/>
<polygon fill="#000000" stroke="#000000" points="51.5001,-61.8313 55,-71.8314 58.5001,-61.8314 51.5001,-61.8313"/>
</g>
<!-- Vala.Symbol -->
<g id="node3" class="node">
<title>Vala.Symbol</title>
<g id="a_node3"><a xlink:href="Vala.Symbol.html" xlink:title="Vala.Symbol">
<polygon fill="none" stroke="#000000" stroke-width="2" points="99,-180 11,-180 11,-144 99,-144 99,-180"/>
<text text-anchor="middle" x="55" y="-158.3" font-family="Times" font-size="14.00" fill="#000000">Vala.Symbol</text>
</a>
</g>
</g>
<!-- Vala.Symbol&#45;&gt;Vala.Constant -->
<g id="edge2" class="edge">
<title>Vala.Symbol&#45;&gt;Vala.Constant</title>
<path fill="none" stroke="#000000" d="M55,-133.5726C55,-125.1084 55,-116.0593 55,-108.4133"/>
<polygon fill="#000000" stroke="#000000" points="51.5001,-133.8313 55,-143.8314 58.5001,-133.8314 51.5001,-133.8313"/>
</g>
<!-- Vala.CodeNode -->
<g id="node4" class="node">
<title>Vala.CodeNode</title>
<g id="a_node4"><a xlink:href="Vala.CodeNode.html" xlink:title="Vala.CodeNode">
<polygon fill="none" stroke="#000000" stroke-width="2" points="106.5,-252 3.5,-252 3.5,-216 106.5,-216 106.5,-252"/>
<text text-anchor="middle" x="55" y="-230.3" font-family="Times" font-size="14.00" fill="#000000">Vala.CodeNode</text>
</a>
</g>
</g>
<!-- Vala.CodeNode&#45;&gt;Vala.Symbol -->
<g id="edge3" class="edge">
<title>Vala.CodeNode&#45;&gt;Vala.Symbol</title>
<path fill="none" stroke="#000000" d="M55,-205.5726C55,-197.1084 55,-188.0593 55,-180.4133"/>
<polygon fill="#000000" stroke="#000000" points="51.5001,-205.8313 55,-215.8314 58.5001,-205.8314 51.5001,-205.8313"/>
</g>
</g>
</svg>
