<?xml version="1.0" encoding="UTF-8" standalone="no"?>
<!DOCTYPE svg PUBLIC "-//W3C//DTD SVG 1.1//EN"
 "http://www.w3.org/Graphics/SVG/1.1/DTD/svg11.dtd">
<!-- Generated by graphviz version 2.40.1 (20161225.0304)
 -->
<!-- Title: Vala.CastExpression Pages: 1 -->
<svg width="153pt" height="188pt"
 viewBox="0.00 0.00 153.00 188.00" xmlns="http://www.w3.org/2000/svg" xmlns:xlink="http://www.w3.org/1999/xlink">
<g id="graph0" class="graph" transform="scale(1 1) rotate(0) translate(4 184)">
<title>Vala.CastExpression</title>
<polygon fill="#ffffff" stroke="transparent" points="-4,4 -4,-184 149,-184 149,4 -4,4"/>
<!-- Vala.CastExpression -->
<g id="node1" class="node">
<title>Vala.CastExpression</title>
<g id="a_node1"><a xlink:href="Vala.CastExpression.html" xlink:title="Vala.CastExpression">
<polygon fill="none" stroke="#000000" stroke-width="2" points="145,-36 0,-36 0,0 145,0 145,-36"/>
<text text-anchor="middle" x="72.5" y="-14.3" font-family="Times" font-size="14.00" fill="#000000">Vala.CastExpression</text>
</a>
</g>
</g>
<!-- Vala.Expression -->
<g id="node2" class="node">
<title>Vala.Expression</title>
<g id="a_node2"><a xlink:href="Vala.Expression.html" xlink:title="Vala.Expression">
<polygon fill="none" stroke="#000000" stroke-width="2" points="130.5,-108 14.5,-108 14.5,-72 130.5,-72 130.5,-108"/>
<text text-anchor="middle" x="72.5" y="-86.3" font-family="Times" font-size="14.00" fill="#000000">Vala.Expression</text>
</a>
</g>
</g>
<!-- Vala.Expression&#45;&gt;Vala.CastExpression -->
<g id="edge1" class="edge">
<title>Vala.Expression&#45;&gt;Vala.CastExpression</title>
<path fill="none" stroke="#000000" d="M72.5,-61.5726C72.5,-53.1084 72.5,-44.0593 72.5,-36.4133"/>
<polygon fill="#000000" stroke="#000000" points="69.0001,-61.8313 72.5,-71.8314 76.0001,-61.8314 69.0001,-61.8313"/>
</g>
<!-- Vala.CodeNode -->
<g id="node3" class="node">
<title>Vala.CodeNode</title>
<g id="a_node3"><a xlink:href="Vala.CodeNode.html" xlink:title="Vala.CodeNode">
<polygon fill="none" stroke="#000000" stroke-width="2" points="129,-180 16,-180 16,-144 129,-144 129,-180"/>
<text text-anchor="middle" x="72.5" y="-158.3" font-family="Times" font-size="14.00" fill="#000000">Vala.CodeNode</text>
</a>
</g>
</g>
<!-- Vala.CodeNode&#45;&gt;Vala.Expression -->
<g id="edge2" class="edge">
<title>Vala.CodeNode&#45;&gt;Vala.Expression</title>
<path fill="none" stroke="#000000" d="M72.5,-133.5726C72.5,-125.1084 72.5,-116.0593 72.5,-108.4133"/>
<polygon fill="#000000" stroke="#000000" points="69.0001,-133.8313 72.5,-143.8314 76.0001,-133.8314 69.0001,-133.8313"/>
</g>
</g>
</svg>
