<?xml version="1.0" encoding="UTF-8" standalone="no"?>
<!DOCTYPE svg PUBLIC "-//W3C//DTD SVG 1.1//EN"
 "http://www.w3.org/Graphics/SVG/1.1/DTD/svg11.dtd">
<!-- Generated by graphviz version 2.42.3 (0)
 -->
<!-- Title: Vala.Struct Pages: 1 -->
<svg width="122pt" height="260pt"
 viewBox="0.00 0.00 122.00 260.00" xmlns="http://www.w3.org/2000/svg" xmlns:xlink="http://www.w3.org/1999/xlink">
<g id="graph0" class="graph" transform="scale(1 1) rotate(0) translate(4 256)">
<title>Vala.Struct</title>
<polygon fill="white" stroke="transparent" points="-4,4 -4,-256 118,-256 118,4 -4,4"/>
<!-- Vala.Struct -->
<g id="node1" class="node">
<title>Vala.Struct</title>
<g id="a_node1"><a xlink:href="Vala.Struct.html" xlink:title="Vala.Struct">
<polygon fill="none" stroke="black" stroke-width="2" points="96,-36 18,-36 18,0 96,0 96,-36"/>
<text text-anchor="middle" x="57" y="-14.3" font-family="Times" font-size="14.00">Vala.Struct</text>
</a>
</g>
</g>
<!-- Vala.TypeSymbol -->
<g id="node2" class="node">
<title>Vala.TypeSymbol</title>
<g id="a_node2"><a xlink:href="Vala.TypeSymbol.html" xlink:title="Vala.TypeSymbol">
<polygon fill="none" stroke="black" stroke-width="2" points="114,-108 0,-108 0,-72 114,-72 114,-108"/>
<text text-anchor="middle" x="57" y="-86.3" font-family="Times" font-size="14.00">Vala.TypeSymbol</text>
</a>
</g>
</g>
<!-- Vala.TypeSymbol&#45;&gt;Vala.Struct -->
<g id="edge1" class="edge">
<title>Vala.TypeSymbol&#45;&gt;Vala.Struct</title>
<path fill="none" stroke="black" d="M57,-61.67C57,-53.05 57,-43.79 57,-36.1"/>
<polygon fill="black" stroke="black" points="53.5,-61.7 57,-71.7 60.5,-61.7 53.5,-61.7"/>
</g>
<!-- Vala.Symbol -->
<g id="node3" class="node">
<title>Vala.Symbol</title>
<g id="a_node3"><a xlink:href="Vala.Symbol.html" xlink:title="Vala.Symbol">
<polygon fill="none" stroke="black" stroke-width="2" points="101,-180 13,-180 13,-144 101,-144 101,-180"/>
<text text-anchor="middle" x="57" y="-158.3" font-family="Times" font-size="14.00">Vala.Symbol</text>
</a>
</g>
</g>
<!-- Vala.Symbol&#45;&gt;Vala.TypeSymbol -->
<g id="edge2" class="edge">
<title>Vala.Symbol&#45;&gt;Vala.TypeSymbol</title>
<path fill="none" stroke="black" d="M57,-133.67C57,-125.05 57,-115.79 57,-108.1"/>
<polygon fill="black" stroke="black" points="53.5,-133.7 57,-143.7 60.5,-133.7 53.5,-133.7"/>
</g>
<!-- Vala.CodeNode -->
<g id="node4" class="node">
<title>Vala.CodeNode</title>
<g id="a_node4"><a xlink:href="Vala.CodeNode.html" xlink:title="Vala.CodeNode">
<polygon fill="none" stroke="black" stroke-width="2" points="108.5,-252 5.5,-252 5.5,-216 108.5,-216 108.5,-252"/>
<text text-anchor="middle" x="57" y="-230.3" font-family="Times" font-size="14.00">Vala.CodeNode</text>
</a>
</g>
</g>
<!-- Vala.CodeNode&#45;&gt;Vala.Symbol -->
<g id="edge3" class="edge">
<title>Vala.CodeNode&#45;&gt;Vala.Symbol</title>
<path fill="none" stroke="black" d="M57,-205.67C57,-197.05 57,-187.79 57,-180.1"/>
<polygon fill="black" stroke="black" points="53.5,-205.7 57,-215.7 60.5,-205.7 53.5,-205.7"/>
</g>
</g>
</svg>
