<?xml version="1.0" encoding="UTF-8" standalone="no"?>
<!DOCTYPE svg PUBLIC "-//W3C//DTD SVG 1.1//EN"
 "http://www.w3.org/Graphics/SVG/1.1/DTD/svg11.dtd">
<!-- Generated by graphviz version 2.40.1 (20161225.0304)
 -->
<!-- Title: Vala.Loop Pages: 1 -->
<svg width="228pt" height="116pt"
 viewBox="0.00 0.00 227.50 116.00" xmlns="http://www.w3.org/2000/svg" xmlns:xlink="http://www.w3.org/1999/xlink">
<g id="graph0" class="graph" transform="scale(1 1) rotate(0) translate(4 112)">
<title>Vala.Loop</title>
<polygon fill="#ffffff" stroke="transparent" points="-4,4 -4,-112 223.5,-112 223.5,4 -4,4"/>
<!-- Vala.Loop -->
<g id="node1" class="node">
<title>Vala.Loop</title>
<g id="a_node1"><a xlink:href="Vala.Loop.html" xlink:title="Vala.Loop">
<polygon fill="none" stroke="#000000" stroke-width="2" points="146.5,-36 73.5,-36 73.5,0 146.5,0 146.5,-36"/>
<text text-anchor="middle" x="110" y="-14.3" font-family="Times" font-size="14.00" fill="#000000">Vala.Loop</text>
</a>
</g>
</g>
<!-- Vala.CodeNode -->
<g id="node2" class="node">
<title>Vala.CodeNode</title>
<g id="a_node2"><a xlink:href="Vala.CodeNode.html" xlink:title="Vala.CodeNode">
<polygon fill="none" stroke="#000000" stroke-width="2" points="102,-108 0,-108 0,-72 102,-72 102,-108"/>
<text text-anchor="middle" x="51" y="-86.3" font-family="Times" font-size="14.00" fill="#000000">Vala.CodeNode</text>
</a>
</g>
</g>
<!-- Vala.CodeNode&#45;&gt;Vala.Loop -->
<g id="edge1" class="edge">
<title>Vala.CodeNode&#45;&gt;Vala.Loop</title>
<path fill="none" stroke="#000000" d="M72.2299,-64.0923C79.7361,-54.9323 88.0193,-44.8239 94.9114,-36.4133"/>
<polygon fill="#000000" stroke="#000000" points="69.5193,-61.8782 65.8882,-71.8314 74.9336,-66.3149 69.5193,-61.8782"/>
</g>
<!-- Vala.Statement -->
<g id="node3" class="node">
<title>Vala.Statement</title>
<g id="a_node3"><a xlink:href="Vala.Statement.html" xlink:title="Vala.Statement">
<polygon fill="none" stroke="#000000" points="219.5,-108 120.5,-108 120.5,-72 219.5,-72 219.5,-108"/>
<text text-anchor="middle" x="170" y="-86.3" font-family="Times" font-size="14.00" fill="#000000">Vala.Statement</text>
</a>
</g>
</g>
<!-- Vala.Statement&#45;&gt;Vala.Loop -->
<g id="edge2" class="edge">
<title>Vala.Statement&#45;&gt;Vala.Loop</title>
<path fill="none" stroke="#000000" d="M148.4102,-64.0923C140.7769,-54.9323 132.3532,-44.8239 125.3444,-36.4133"/>
<polygon fill="#000000" stroke="#000000" points="145.7688,-66.3898 154.8595,-71.8314 151.1464,-61.9085 145.7688,-66.3898"/>
</g>
</g>
</svg>
