<?xml version="1.0" encoding="UTF-8" standalone="no"?>
<!DOCTYPE svg PUBLIC "-//W3C//DTD SVG 1.1//EN"
 "http://www.w3.org/Graphics/SVG/1.1/DTD/svg11.dtd">
<!-- Generated by graphviz version 2.40.1 (0)
 -->
<!-- Title: Vala.DynamicProperty Pages: 1 -->
<svg width="218pt" height="260pt"
 viewBox="0.00 0.00 217.50 260.00" xmlns="http://www.w3.org/2000/svg" xmlns:xlink="http://www.w3.org/1999/xlink">
<g id="graph0" class="graph" transform="scale(1 1) rotate(0) translate(4 256)">
<title>Vala.DynamicProperty</title>
<polygon fill="#ffffff" stroke="transparent" points="-4,4 -4,-256 213.5,-256 213.5,4 -4,4"/>
<!-- Vala.DynamicProperty -->
<g id="node1" class="node">
<title>Vala.DynamicProperty</title>
<g id="a_node1"><a xlink:href="Vala.DynamicProperty.html" xlink:title="Vala.DynamicProperty">
<polygon fill="none" stroke="#000000" stroke-width="2" points="178,-36 35,-36 35,0 178,0 178,-36"/>
<text text-anchor="middle" x="106.5" y="-14.3" font-family="Times" font-size="14.00" fill="#000000">Vala.DynamicProperty</text>
</a>
</g>
</g>
<!-- Vala.Property -->
<g id="node2" class="node">
<title>Vala.Property</title>
<g id="a_node2"><a xlink:href="Vala.Property.html" xlink:title="Vala.Property">
<polygon fill="none" stroke="#000000" stroke-width="2" points="152.5,-108 60.5,-108 60.5,-72 152.5,-72 152.5,-108"/>
<text text-anchor="middle" x="106.5" y="-86.3" font-family="Times" font-size="14.00" fill="#000000">Vala.Property</text>
</a>
</g>
</g>
<!-- Vala.Property&#45;&gt;Vala.DynamicProperty -->
<g id="edge1" class="edge">
<title>Vala.Property&#45;&gt;Vala.DynamicProperty</title>
<path fill="none" stroke="#000000" d="M106.5,-61.5726C106.5,-53.1084 106.5,-44.0593 106.5,-36.4133"/>
<polygon fill="#000000" stroke="#000000" points="103.0001,-61.8313 106.5,-71.8314 110.0001,-61.8314 103.0001,-61.8313"/>
</g>
<!-- Vala.Symbol -->
<g id="node3" class="node">
<title>Vala.Symbol</title>
<g id="a_node3"><a xlink:href="Vala.Symbol.html" xlink:title="Vala.Symbol">
<polygon fill="none" stroke="#000000" stroke-width="2" points="95.5,-180 7.5,-180 7.5,-144 95.5,-144 95.5,-180"/>
<text text-anchor="middle" x="51.5" y="-158.3" font-family="Times" font-size="14.00" fill="#000000">Vala.Symbol</text>
</a>
</g>
</g>
<!-- Vala.Symbol&#45;&gt;Vala.Property -->
<g id="edge2" class="edge">
<title>Vala.Symbol&#45;&gt;Vala.Property</title>
<path fill="none" stroke="#000000" d="M71.5029,-135.8144C78.4437,-126.7282 86.0744,-116.7389 92.4343,-108.4133"/>
<polygon fill="#000000" stroke="#000000" points="68.6679,-133.76 65.3788,-143.8314 74.2306,-138.0093 68.6679,-133.76"/>
</g>
<!-- Vala.CodeNode -->
<g id="node4" class="node">
<title>Vala.CodeNode</title>
<g id="a_node4"><a xlink:href="Vala.CodeNode.html" xlink:title="Vala.CodeNode">
<polygon fill="none" stroke="#000000" stroke-width="2" points="103,-252 0,-252 0,-216 103,-216 103,-252"/>
<text text-anchor="middle" x="51.5" y="-230.3" font-family="Times" font-size="14.00" fill="#000000">Vala.CodeNode</text>
</a>
</g>
</g>
<!-- Vala.CodeNode&#45;&gt;Vala.Symbol -->
<g id="edge3" class="edge">
<title>Vala.CodeNode&#45;&gt;Vala.Symbol</title>
<path fill="none" stroke="#000000" d="M51.5,-205.5726C51.5,-197.1084 51.5,-188.0593 51.5,-180.4133"/>
<polygon fill="#000000" stroke="#000000" points="48.0001,-205.8313 51.5,-215.8314 55.0001,-205.8314 48.0001,-205.8313"/>
</g>
<!-- Vala.Lockable -->
<g id="node5" class="node">
<title>Vala.Lockable</title>
<g id="a_node5"><a xlink:href="Vala.Lockable.html" xlink:title="Vala.Lockable">
<polygon fill="none" stroke="#000000" points="209.5,-180 113.5,-180 113.5,-144 209.5,-144 209.5,-180"/>
<text text-anchor="middle" x="161.5" y="-158.3" font-family="Times" font-size="14.00" fill="#000000">Vala.Lockable</text>
</a>
</g>
</g>
<!-- Vala.Lockable&#45;&gt;Vala.Property -->
<g id="edge4" class="edge">
<title>Vala.Lockable&#45;&gt;Vala.Property</title>
<path fill="none" stroke="#000000" d="M141.4971,-135.8144C134.5563,-126.7282 126.9256,-116.7389 120.5657,-108.4133"/>
<polygon fill="#000000" stroke="#000000" points="138.7694,-138.0093 147.6212,-143.8314 144.3321,-133.76 138.7694,-138.0093"/>
</g>
</g>
</svg>
