<?xml version="1.0" encoding="UTF-8" standalone="no"?>
<!DOCTYPE svg PUBLIC "-//W3C//DTD SVG 1.1//EN"
 "http://www.w3.org/Graphics/SVG/1.1/DTD/svg11.dtd">
<!-- Generated by graphviz version 2.40.1 (20161225.0304)
 -->
<!-- Title: Vala.Tuple Pages: 1 -->
<svg width="112pt" height="188pt"
 viewBox="0.00 0.00 112.00 188.00" xmlns="http://www.w3.org/2000/svg" xmlns:xlink="http://www.w3.org/1999/xlink">
<g id="graph0" class="graph" transform="scale(1 1) rotate(0) translate(4 184)">
<title>Vala.Tuple</title>
<polygon fill="#ffffff" stroke="transparent" points="-4,4 -4,-184 108,-184 108,4 -4,4"/>
<!-- Vala.Tuple -->
<g id="node1" class="node">
<title>Vala.Tuple</title>
<g id="a_node1"><a xlink:href="Vala.Tuple.html" xlink:title="Vala.Tuple">
<polygon fill="none" stroke="#000000" stroke-width="2" points="89,-36 15,-36 15,0 89,0 89,-36"/>
<text text-anchor="middle" x="52" y="-14.3" font-family="Times" font-size="14.00" fill="#000000">Vala.Tuple</text>
</a>
</g>
</g>
<!-- Vala.Expression -->
<g id="node2" class="node">
<title>Vala.Expression</title>
<g id="a_node2"><a xlink:href="Vala.Expression.html" xlink:title="Vala.Expression">
<polygon fill="none" stroke="#000000" stroke-width="2" points="104,-108 0,-108 0,-72 104,-72 104,-108"/>
<text text-anchor="middle" x="52" y="-86.3" font-family="Times" font-size="14.00" fill="#000000">Vala.Expression</text>
</a>
</g>
</g>
<!-- Vala.Expression&#45;&gt;Vala.Tuple -->
<g id="edge1" class="edge">
<title>Vala.Expression&#45;&gt;Vala.Tuple</title>
<path fill="none" stroke="#000000" d="M52,-61.5726C52,-53.1084 52,-44.0593 52,-36.4133"/>
<polygon fill="#000000" stroke="#000000" points="48.5001,-61.8313 52,-71.8314 55.5001,-61.8314 48.5001,-61.8313"/>
</g>
<!-- Vala.CodeNode -->
<g id="node3" class="node">
<title>Vala.CodeNode</title>
<g id="a_node3"><a xlink:href="Vala.CodeNode.html" xlink:title="Vala.CodeNode">
<polygon fill="none" stroke="#000000" stroke-width="2" points="103,-180 1,-180 1,-144 103,-144 103,-180"/>
<text text-anchor="middle" x="52" y="-158.3" font-family="Times" font-size="14.00" fill="#000000">Vala.CodeNode</text>
</a>
</g>
</g>
<!-- Vala.CodeNode&#45;&gt;Vala.Expression -->
<g id="edge2" class="edge">
<title>Vala.CodeNode&#45;&gt;Vala.Expression</title>
<path fill="none" stroke="#000000" d="M52,-133.5726C52,-125.1084 52,-116.0593 52,-108.4133"/>
<polygon fill="#000000" stroke="#000000" points="48.5001,-133.8313 52,-143.8314 55.5001,-133.8314 48.5001,-133.8313"/>
</g>
</g>
</svg>
