<?xml version="1.0" encoding="UTF-8" standalone="no"?>
<!DOCTYPE svg PUBLIC "-//W3C//DTD SVG 1.1//EN"
 "http://www.w3.org/Graphics/SVG/1.1/DTD/svg11.dtd">
<!-- Generated by graphviz version 2.42.3 (0)
 -->
<!-- Title: Vala.RealLiteral Pages: 1 -->
<svg width="114pt" height="260pt"
 viewBox="0.00 0.00 114.00 260.00" xmlns="http://www.w3.org/2000/svg" xmlns:xlink="http://www.w3.org/1999/xlink">
<g id="graph0" class="graph" transform="scale(1 1) rotate(0) translate(4 256)">
<title>Vala.RealLiteral</title>
<polygon fill="white" stroke="transparent" points="-4,4 -4,-256 110,-256 110,4 -4,4"/>
<!-- Vala.RealLiteral -->
<g id="node1" class="node">
<title>Vala.RealLiteral</title>
<g id="a_node1"><a xlink:href="Vala.RealLiteral.html" xlink:title="Vala.RealLiteral">
<polygon fill="none" stroke="black" stroke-width="2" points="106,-36 0,-36 0,0 106,0 106,-36"/>
<text text-anchor="middle" x="53" y="-14.3" font-family="Times" font-size="14.00">Vala.RealLiteral</text>
</a>
</g>
</g>
<!-- Vala.Literal -->
<g id="node2" class="node">
<title>Vala.Literal</title>
<g id="a_node2"><a xlink:href="Vala.Literal.html" xlink:title="Vala.Literal">
<polygon fill="none" stroke="black" stroke-width="2" points="93.5,-108 12.5,-108 12.5,-72 93.5,-72 93.5,-108"/>
<text text-anchor="middle" x="53" y="-86.3" font-family="Times" font-size="14.00">Vala.Literal</text>
</a>
</g>
</g>
<!-- Vala.Literal&#45;&gt;Vala.RealLiteral -->
<g id="edge1" class="edge">
<title>Vala.Literal&#45;&gt;Vala.RealLiteral</title>
<path fill="none" stroke="black" d="M53,-61.67C53,-53.05 53,-43.79 53,-36.1"/>
<polygon fill="black" stroke="black" points="49.5,-61.7 53,-71.7 56.5,-61.7 49.5,-61.7"/>
</g>
<!-- Vala.Expression -->
<g id="node3" class="node">
<title>Vala.Expression</title>
<g id="a_node3"><a xlink:href="Vala.Expression.html" xlink:title="Vala.Expression">
<polygon fill="none" stroke="black" stroke-width="2" points="105.5,-180 0.5,-180 0.5,-144 105.5,-144 105.5,-180"/>
<text text-anchor="middle" x="53" y="-158.3" font-family="Times" font-size="14.00">Vala.Expression</text>
</a>
</g>
</g>
<!-- Vala.Expression&#45;&gt;Vala.Literal -->
<g id="edge2" class="edge">
<title>Vala.Expression&#45;&gt;Vala.Literal</title>
<path fill="none" stroke="black" d="M53,-133.67C53,-125.05 53,-115.79 53,-108.1"/>
<polygon fill="black" stroke="black" points="49.5,-133.7 53,-143.7 56.5,-133.7 49.5,-133.7"/>
</g>
<!-- Vala.CodeNode -->
<g id="node4" class="node">
<title>Vala.CodeNode</title>
<g id="a_node4"><a xlink:href="Vala.CodeNode.html" xlink:title="Vala.CodeNode">
<polygon fill="none" stroke="black" stroke-width="2" points="104.5,-252 1.5,-252 1.5,-216 104.5,-216 104.5,-252"/>
<text text-anchor="middle" x="53" y="-230.3" font-family="Times" font-size="14.00">Vala.CodeNode</text>
</a>
</g>
</g>
<!-- Vala.CodeNode&#45;&gt;Vala.Expression -->
<g id="edge3" class="edge">
<title>Vala.CodeNode&#45;&gt;Vala.Expression</title>
<path fill="none" stroke="black" d="M53,-205.67C53,-197.05 53,-187.79 53,-180.1"/>
<polygon fill="black" stroke="black" points="49.5,-205.7 53,-215.7 56.5,-205.7 49.5,-205.7"/>
</g>
</g>
</svg>
