<?xml version="1.0" encoding="UTF-8" standalone="no"?>
<!DOCTYPE svg PUBLIC "-//W3C//DTD SVG 1.1//EN"
 "http://www.w3.org/Graphics/SVG/1.1/DTD/svg11.dtd">
<!-- Generated by graphviz version 2.40.1 (0)
 -->
<!-- Title: Vala.Block Pages: 1 -->
<svg width="222pt" height="188pt"
 viewBox="0.00 0.00 221.50 188.00" xmlns="http://www.w3.org/2000/svg" xmlns:xlink="http://www.w3.org/1999/xlink">
<g id="graph0" class="graph" transform="scale(1 1) rotate(0) translate(4 184)">
<title>Vala.Block</title>
<polygon fill="#ffffff" stroke="transparent" points="-4,4 -4,-184 217.5,-184 217.5,4 -4,4"/>
<!-- Vala.Block -->
<g id="node1" class="node">
<title>Vala.Block</title>
<g id="a_node1"><a xlink:href="Vala.Block.html" xlink:title="Vala.Block">
<polygon fill="none" stroke="#000000" stroke-width="2" points="146,-36 69,-36 69,0 146,0 146,-36"/>
<text text-anchor="middle" x="107.5" y="-14.3" font-family="Times" font-size="14.00" fill="#000000">Vala.Block</text>
</a>
</g>
</g>
<!-- Vala.Symbol -->
<g id="node2" class="node">
<title>Vala.Symbol</title>
<g id="a_node2"><a xlink:href="Vala.Symbol.html" xlink:title="Vala.Symbol">
<polygon fill="none" stroke="#000000" stroke-width="2" points="95.5,-108 7.5,-108 7.5,-72 95.5,-72 95.5,-108"/>
<text text-anchor="middle" x="51.5" y="-86.3" font-family="Times" font-size="14.00" fill="#000000">Vala.Symbol</text>
</a>
</g>
</g>
<!-- Vala.Symbol&#45;&gt;Vala.Block -->
<g id="edge1" class="edge">
<title>Vala.Symbol&#45;&gt;Vala.Block</title>
<path fill="none" stroke="#000000" d="M71.8666,-63.8144C78.9336,-54.7282 86.7031,-44.7389 93.1786,-36.4133"/>
<polygon fill="#000000" stroke="#000000" points="69.0079,-61.789 65.6312,-71.8314 74.5333,-66.0866 69.0079,-61.789"/>
</g>
<!-- Vala.CodeNode -->
<g id="node3" class="node">
<title>Vala.CodeNode</title>
<g id="a_node3"><a xlink:href="Vala.CodeNode.html" xlink:title="Vala.CodeNode">
<polygon fill="none" stroke="#000000" stroke-width="2" points="103,-180 0,-180 0,-144 103,-144 103,-180"/>
<text text-anchor="middle" x="51.5" y="-158.3" font-family="Times" font-size="14.00" fill="#000000">Vala.CodeNode</text>
</a>
</g>
</g>
<!-- Vala.CodeNode&#45;&gt;Vala.Symbol -->
<g id="edge2" class="edge">
<title>Vala.CodeNode&#45;&gt;Vala.Symbol</title>
<path fill="none" stroke="#000000" d="M51.5,-133.5726C51.5,-125.1084 51.5,-116.0593 51.5,-108.4133"/>
<polygon fill="#000000" stroke="#000000" points="48.0001,-133.8313 51.5,-143.8314 55.0001,-133.8314 48.0001,-133.8313"/>
</g>
<!-- Vala.Statement -->
<g id="node4" class="node">
<title>Vala.Statement</title>
<g id="a_node4"><a xlink:href="Vala.Statement.html" xlink:title="Vala.Statement">
<polygon fill="none" stroke="#000000" points="213.5,-108 113.5,-108 113.5,-72 213.5,-72 213.5,-108"/>
<text text-anchor="middle" x="163.5" y="-86.3" font-family="Times" font-size="14.00" fill="#000000">Vala.Statement</text>
</a>
</g>
</g>
<!-- Vala.Statement&#45;&gt;Vala.Block -->
<g id="edge3" class="edge">
<title>Vala.Statement&#45;&gt;Vala.Block</title>
<path fill="none" stroke="#000000" d="M143.1334,-63.8144C136.0664,-54.7282 128.2969,-44.7389 121.8214,-36.4133"/>
<polygon fill="#000000" stroke="#000000" points="140.4667,-66.0866 149.3688,-71.8314 145.9921,-61.789 140.4667,-66.0866"/>
</g>
</g>
</svg>
