<?xml version="1.0" encoding="UTF-8" standalone="no"?>
<!DOCTYPE svg PUBLIC "-//W3C//DTD SVG 1.1//EN"
 "http://www.w3.org/Graphics/SVG/1.1/DTD/svg11.dtd">
<!-- Generated by graphviz version 2.40.1 (20161225.0304)
 -->
<!-- Title: Vala.Property Pages: 1 -->
<svg width="235pt" height="188pt"
 viewBox="0.00 0.00 234.50 188.00" xmlns="http://www.w3.org/2000/svg" xmlns:xlink="http://www.w3.org/1999/xlink">
<g id="graph0" class="graph" transform="scale(1 1) rotate(0) translate(4 184)">
<title>Vala.Property</title>
<polygon fill="#ffffff" stroke="transparent" points="-4,4 -4,-184 230.5,-184 230.5,4 -4,4"/>
<!-- Vala.Property -->
<g id="node1" class="node">
<title>Vala.Property</title>
<g id="a_node1"><a xlink:href="Vala.Property.html" xlink:title="Vala.Property">
<polygon fill="none" stroke="#000000" stroke-width="2" points="167,-36 64,-36 64,0 167,0 167,-36"/>
<text text-anchor="middle" x="115.5" y="-14.3" font-family="Times" font-size="14.00" fill="#000000">Vala.Property</text>
</a>
</g>
</g>
<!-- Vala.Symbol -->
<g id="node2" class="node">
<title>Vala.Symbol</title>
<g id="a_node2"><a xlink:href="Vala.Symbol.html" xlink:title="Vala.Symbol">
<polygon fill="none" stroke="#000000" stroke-width="2" points="104,-108 9,-108 9,-72 104,-72 104,-108"/>
<text text-anchor="middle" x="56.5" y="-86.3" font-family="Times" font-size="14.00" fill="#000000">Vala.Symbol</text>
</a>
</g>
</g>
<!-- Vala.Symbol&#45;&gt;Vala.Property -->
<g id="edge1" class="edge">
<title>Vala.Symbol&#45;&gt;Vala.Property</title>
<path fill="none" stroke="#000000" d="M77.7299,-64.0923C85.2361,-54.9323 93.5193,-44.8239 100.4114,-36.4133"/>
<polygon fill="#000000" stroke="#000000" points="75.0193,-61.8782 71.3882,-71.8314 80.4336,-66.3149 75.0193,-61.8782"/>
</g>
<!-- Vala.CodeNode -->
<g id="node3" class="node">
<title>Vala.CodeNode</title>
<g id="a_node3"><a xlink:href="Vala.CodeNode.html" xlink:title="Vala.CodeNode">
<polygon fill="none" stroke="#000000" stroke-width="2" points="113,-180 0,-180 0,-144 113,-144 113,-180"/>
<text text-anchor="middle" x="56.5" y="-158.3" font-family="Times" font-size="14.00" fill="#000000">Vala.CodeNode</text>
</a>
</g>
</g>
<!-- Vala.CodeNode&#45;&gt;Vala.Symbol -->
<g id="edge2" class="edge">
<title>Vala.CodeNode&#45;&gt;Vala.Symbol</title>
<path fill="none" stroke="#000000" d="M56.5,-133.5726C56.5,-125.1084 56.5,-116.0593 56.5,-108.4133"/>
<polygon fill="#000000" stroke="#000000" points="53.0001,-133.8313 56.5,-143.8314 60.0001,-133.8314 53.0001,-133.8313"/>
</g>
<!-- Vala.Lockable -->
<g id="node4" class="node">
<title>Vala.Lockable</title>
<g id="a_node4"><a xlink:href="Vala.Lockable.html" xlink:title="Vala.Lockable">
<polygon fill="none" stroke="#000000" points="226.5,-108 122.5,-108 122.5,-72 226.5,-72 226.5,-108"/>
<text text-anchor="middle" x="174.5" y="-86.3" font-family="Times" font-size="14.00" fill="#000000">Vala.Lockable</text>
</a>
</g>
</g>
<!-- Vala.Lockable&#45;&gt;Vala.Property -->
<g id="edge3" class="edge">
<title>Vala.Lockable&#45;&gt;Vala.Property</title>
<path fill="none" stroke="#000000" d="M153.2701,-64.0923C145.7639,-54.9323 137.4807,-44.8239 130.5886,-36.4133"/>
<polygon fill="#000000" stroke="#000000" points="150.5664,-66.3149 159.6118,-71.8314 155.9807,-61.8782 150.5664,-66.3149"/>
</g>
</g>
</svg>
