<?xml version="1.0" encoding="UTF-8" standalone="no"?>
<!DOCTYPE svg PUBLIC "-//W3C//DTD SVG 1.1//EN"
 "http://www.w3.org/Graphics/SVG/1.1/DTD/svg11.dtd">
<!-- Generated by graphviz version 2.40.1 (20161225.0304)
 -->
<!-- Title: Vala.Parameter Pages: 1 -->
<svg width="110pt" height="260pt"
 viewBox="0.00 0.00 110.00 260.00" xmlns="http://www.w3.org/2000/svg" xmlns:xlink="http://www.w3.org/1999/xlink">
<g id="graph0" class="graph" transform="scale(1 1) rotate(0) translate(4 256)">
<title>Vala.Parameter</title>
<polygon fill="#ffffff" stroke="transparent" points="-4,4 -4,-256 106,-256 106,4 -4,4"/>
<!-- Vala.Parameter -->
<g id="node1" class="node">
<title>Vala.Parameter</title>
<g id="a_node1"><a xlink:href="Vala.Parameter.html" xlink:title="Vala.Parameter">
<polygon fill="none" stroke="#000000" stroke-width="2" points="101,-36 1,-36 1,0 101,0 101,-36"/>
<text text-anchor="middle" x="51" y="-14.3" font-family="Times" font-size="14.00" fill="#000000">Vala.Parameter</text>
</a>
</g>
</g>
<!-- Vala.Variable -->
<g id="node2" class="node">
<title>Vala.Variable</title>
<g id="a_node2"><a xlink:href="Vala.Variable.html" xlink:title="Vala.Variable">
<polygon fill="none" stroke="#000000" stroke-width="2" points="95.5,-108 6.5,-108 6.5,-72 95.5,-72 95.5,-108"/>
<text text-anchor="middle" x="51" y="-86.3" font-family="Times" font-size="14.00" fill="#000000">Vala.Variable</text>
</a>
</g>
</g>
<!-- Vala.Variable&#45;&gt;Vala.Parameter -->
<g id="edge1" class="edge">
<title>Vala.Variable&#45;&gt;Vala.Parameter</title>
<path fill="none" stroke="#000000" d="M51,-61.5726C51,-53.1084 51,-44.0593 51,-36.4133"/>
<polygon fill="#000000" stroke="#000000" points="47.5001,-61.8313 51,-71.8314 54.5001,-61.8314 47.5001,-61.8313"/>
</g>
<!-- Vala.Symbol -->
<g id="node3" class="node">
<title>Vala.Symbol</title>
<g id="a_node3"><a xlink:href="Vala.Symbol.html" xlink:title="Vala.Symbol">
<polygon fill="none" stroke="#000000" stroke-width="2" points="94.5,-180 7.5,-180 7.5,-144 94.5,-144 94.5,-180"/>
<text text-anchor="middle" x="51" y="-158.3" font-family="Times" font-size="14.00" fill="#000000">Vala.Symbol</text>
</a>
</g>
</g>
<!-- Vala.Symbol&#45;&gt;Vala.Variable -->
<g id="edge2" class="edge">
<title>Vala.Symbol&#45;&gt;Vala.Variable</title>
<path fill="none" stroke="#000000" d="M51,-133.5726C51,-125.1084 51,-116.0593 51,-108.4133"/>
<polygon fill="#000000" stroke="#000000" points="47.5001,-133.8313 51,-143.8314 54.5001,-133.8314 47.5001,-133.8313"/>
</g>
<!-- Vala.CodeNode -->
<g id="node4" class="node">
<title>Vala.CodeNode</title>
<g id="a_node4"><a xlink:href="Vala.CodeNode.html" xlink:title="Vala.CodeNode">
<polygon fill="none" stroke="#000000" stroke-width="2" points="102,-252 0,-252 0,-216 102,-216 102,-252"/>
<text text-anchor="middle" x="51" y="-230.3" font-family="Times" font-size="14.00" fill="#000000">Vala.CodeNode</text>
</a>
</g>
</g>
<!-- Vala.CodeNode&#45;&gt;Vala.Symbol -->
<g id="edge3" class="edge">
<title>Vala.CodeNode&#45;&gt;Vala.Symbol</title>
<path fill="none" stroke="#000000" d="M51,-205.5726C51,-197.1084 51,-188.0593 51,-180.4133"/>
<polygon fill="#000000" stroke="#000000" points="47.5001,-205.8313 51,-215.8314 54.5001,-205.8314 47.5001,-205.8313"/>
</g>
</g>
</svg>
