<?xml version="1.0" encoding="UTF-8" standalone="no"?>
<!DOCTYPE svg PUBLIC "-//W3C//DTD SVG 1.1//EN"
 "http://www.w3.org/Graphics/SVG/1.1/DTD/svg11.dtd">
<!-- Generated by graphviz version 2.40.1 (20161225.0304)
 -->
<!-- Title: Vala.EnumValue Pages: 1 -->
<svg width="126pt" height="260pt"
 viewBox="0.00 0.00 126.00 260.00" xmlns="http://www.w3.org/2000/svg" xmlns:xlink="http://www.w3.org/1999/xlink">
<g id="graph0" class="graph" transform="scale(1 1) rotate(0) translate(4 256)">
<title>Vala.EnumValue</title>
<polygon fill="#ffffff" stroke="transparent" points="-4,4 -4,-256 122,-256 122,4 -4,4"/>
<!-- Vala.EnumValue -->
<g id="node1" class="node">
<title>Vala.EnumValue</title>
<g id="a_node1"><a xlink:href="Vala.EnumValue.html" xlink:title="Vala.EnumValue">
<polygon fill="none" stroke="#000000" stroke-width="2" points="118,-36 0,-36 0,0 118,0 118,-36"/>
<text text-anchor="middle" x="59" y="-14.3" font-family="Times" font-size="14.00" fill="#000000">Vala.EnumValue</text>
</a>
</g>
</g>
<!-- Vala.Constant -->
<g id="node2" class="node">
<title>Vala.Constant</title>
<g id="a_node2"><a xlink:href="Vala.Constant.html" xlink:title="Vala.Constant">
<polygon fill="none" stroke="#000000" stroke-width="2" points="111.5,-108 6.5,-108 6.5,-72 111.5,-72 111.5,-108"/>
<text text-anchor="middle" x="59" y="-86.3" font-family="Times" font-size="14.00" fill="#000000">Vala.Constant</text>
</a>
</g>
</g>
<!-- Vala.Constant&#45;&gt;Vala.EnumValue -->
<g id="edge1" class="edge">
<title>Vala.Constant&#45;&gt;Vala.EnumValue</title>
<path fill="none" stroke="#000000" d="M59,-61.5726C59,-53.1084 59,-44.0593 59,-36.4133"/>
<polygon fill="#000000" stroke="#000000" points="55.5001,-61.8313 59,-71.8314 62.5001,-61.8314 55.5001,-61.8313"/>
</g>
<!-- Vala.Symbol -->
<g id="node3" class="node">
<title>Vala.Symbol</title>
<g id="a_node3"><a xlink:href="Vala.Symbol.html" xlink:title="Vala.Symbol">
<polygon fill="none" stroke="#000000" stroke-width="2" points="106.5,-180 11.5,-180 11.5,-144 106.5,-144 106.5,-180"/>
<text text-anchor="middle" x="59" y="-158.3" font-family="Times" font-size="14.00" fill="#000000">Vala.Symbol</text>
</a>
</g>
</g>
<!-- Vala.Symbol&#45;&gt;Vala.Constant -->
<g id="edge2" class="edge">
<title>Vala.Symbol&#45;&gt;Vala.Constant</title>
<path fill="none" stroke="#000000" d="M59,-133.5726C59,-125.1084 59,-116.0593 59,-108.4133"/>
<polygon fill="#000000" stroke="#000000" points="55.5001,-133.8313 59,-143.8314 62.5001,-133.8314 55.5001,-133.8313"/>
</g>
<!-- Vala.CodeNode -->
<g id="node4" class="node">
<title>Vala.CodeNode</title>
<g id="a_node4"><a xlink:href="Vala.CodeNode.html" xlink:title="Vala.CodeNode">
<polygon fill="none" stroke="#000000" stroke-width="2" points="115.5,-252 2.5,-252 2.5,-216 115.5,-216 115.5,-252"/>
<text text-anchor="middle" x="59" y="-230.3" font-family="Times" font-size="14.00" fill="#000000">Vala.CodeNode</text>
</a>
</g>
</g>
<!-- Vala.CodeNode&#45;&gt;Vala.Symbol -->
<g id="edge3" class="edge">
<title>Vala.CodeNode&#45;&gt;Vala.Symbol</title>
<path fill="none" stroke="#000000" d="M59,-205.5726C59,-197.1084 59,-188.0593 59,-180.4133"/>
<polygon fill="#000000" stroke="#000000" points="55.5001,-205.8313 59,-215.8314 62.5001,-205.8314 55.5001,-205.8313"/>
</g>
</g>
</svg>
