<?xml version="1.0" encoding="UTF-8" standalone="no"?>
<!DOCTYPE svg PUBLIC "-//W3C//DTD SVG 1.1//EN"
 "http://www.w3.org/Graphics/SVG/1.1/DTD/svg11.dtd">
<!-- Generated by graphviz version 2.40.1 (20161225.0304)
 -->
<!-- Title: Vala.ObjectTypeSymbol Pages: 1 -->
<svg width="175pt" height="260pt"
 viewBox="0.00 0.00 175.00 260.00" xmlns="http://www.w3.org/2000/svg" xmlns:xlink="http://www.w3.org/1999/xlink">
<g id="graph0" class="graph" transform="scale(1 1) rotate(0) translate(4 256)">
<title>Vala.ObjectTypeSymbol</title>
<polygon fill="#ffffff" stroke="transparent" points="-4,4 -4,-256 171,-256 171,4 -4,4"/>
<!-- Vala.ObjectTypeSymbol -->
<g id="node1" class="node">
<title>Vala.ObjectTypeSymbol</title>
<g id="a_node1"><a xlink:href="Vala.ObjectTypeSymbol.html" xlink:title="Vala.ObjectTypeSymbol">
<polygon fill="none" stroke="#000000" stroke-width="2" points="167,-36 0,-36 0,0 167,0 167,-36"/>
<text text-anchor="middle" x="83.5" y="-14.3" font-family="Times" font-size="14.00" fill="#000000">Vala.ObjectTypeSymbol</text>
</a>
</g>
</g>
<!-- Vala.TypeSymbol -->
<g id="node2" class="node">
<title>Vala.TypeSymbol</title>
<g id="a_node2"><a xlink:href="Vala.TypeSymbol.html" xlink:title="Vala.TypeSymbol">
<polygon fill="none" stroke="#000000" stroke-width="2" points="145.5,-108 21.5,-108 21.5,-72 145.5,-72 145.5,-108"/>
<text text-anchor="middle" x="83.5" y="-86.3" font-family="Times" font-size="14.00" fill="#000000">Vala.TypeSymbol</text>
</a>
</g>
</g>
<!-- Vala.TypeSymbol&#45;&gt;Vala.ObjectTypeSymbol -->
<g id="edge1" class="edge">
<title>Vala.TypeSymbol&#45;&gt;Vala.ObjectTypeSymbol</title>
<path fill="none" stroke="#000000" d="M83.5,-61.5726C83.5,-53.1084 83.5,-44.0593 83.5,-36.4133"/>
<polygon fill="#000000" stroke="#000000" points="80.0001,-61.8313 83.5,-71.8314 87.0001,-61.8314 80.0001,-61.8313"/>
</g>
<!-- Vala.Symbol -->
<g id="node3" class="node">
<title>Vala.Symbol</title>
<g id="a_node3"><a xlink:href="Vala.Symbol.html" xlink:title="Vala.Symbol">
<polygon fill="none" stroke="#000000" stroke-width="2" points="131,-180 36,-180 36,-144 131,-144 131,-180"/>
<text text-anchor="middle" x="83.5" y="-158.3" font-family="Times" font-size="14.00" fill="#000000">Vala.Symbol</text>
</a>
</g>
</g>
<!-- Vala.Symbol&#45;&gt;Vala.TypeSymbol -->
<g id="edge2" class="edge">
<title>Vala.Symbol&#45;&gt;Vala.TypeSymbol</title>
<path fill="none" stroke="#000000" d="M83.5,-133.5726C83.5,-125.1084 83.5,-116.0593 83.5,-108.4133"/>
<polygon fill="#000000" stroke="#000000" points="80.0001,-133.8313 83.5,-143.8314 87.0001,-133.8314 80.0001,-133.8313"/>
</g>
<!-- Vala.CodeNode -->
<g id="node4" class="node">
<title>Vala.CodeNode</title>
<g id="a_node4"><a xlink:href="Vala.CodeNode.html" xlink:title="Vala.CodeNode">
<polygon fill="none" stroke="#000000" stroke-width="2" points="140,-252 27,-252 27,-216 140,-216 140,-252"/>
<text text-anchor="middle" x="83.5" y="-230.3" font-family="Times" font-size="14.00" fill="#000000">Vala.CodeNode</text>
</a>
</g>
</g>
<!-- Vala.CodeNode&#45;&gt;Vala.Symbol -->
<g id="edge3" class="edge">
<title>Vala.CodeNode&#45;&gt;Vala.Symbol</title>
<path fill="none" stroke="#000000" d="M83.5,-205.5726C83.5,-197.1084 83.5,-188.0593 83.5,-180.4133"/>
<polygon fill="#000000" stroke="#000000" points="80.0001,-205.8313 83.5,-215.8314 87.0001,-205.8314 80.0001,-205.8313"/>
</g>
</g>
</svg>
