<?xml version="1.0" encoding="UTF-8" standalone="no"?>
<!DOCTYPE svg PUBLIC "-//W3C//DTD SVG 1.1//EN"
 "http://www.w3.org/Graphics/SVG/1.1/DTD/svg11.dtd">
<!-- Generated by graphviz version 2.42.3 (0)
 -->
<!-- Title: Vala.ArrayResizeMethod Pages: 1 -->
<svg width="220pt" height="332pt"
 viewBox="0.00 0.00 220.00 332.00" xmlns="http://www.w3.org/2000/svg" xmlns:xlink="http://www.w3.org/1999/xlink">
<g id="graph0" class="graph" transform="scale(1 1) rotate(0) translate(4 328)">
<title>Vala.ArrayResizeMethod</title>
<polygon fill="white" stroke="transparent" points="-4,4 -4,-328 216,-328 216,4 -4,4"/>
<!-- Vala.ArrayResizeMethod -->
<g id="node1" class="node">
<title>Vala.ArrayResizeMethod</title>
<g id="a_node1"><a xlink:href="Vala.ArrayResizeMethod.html" xlink:title="Vala.ArrayResizeMethod">
<polygon fill="none" stroke="black" stroke-width="2" points="187,-36 31,-36 31,0 187,0 187,-36"/>
<text text-anchor="middle" x="109" y="-14.3" font-family="Times" font-size="14.00">Vala.ArrayResizeMethod</text>
</a>
</g>
</g>
<!-- Vala.Method -->
<g id="node2" class="node">
<title>Vala.Method</title>
<g id="a_node2"><a xlink:href="Vala.Method.html" xlink:title="Vala.Method">
<polygon fill="none" stroke="black" stroke-width="2" points="153,-108 65,-108 65,-72 153,-72 153,-108"/>
<text text-anchor="middle" x="109" y="-86.3" font-family="Times" font-size="14.00">Vala.Method</text>
</a>
</g>
</g>
<!-- Vala.Method&#45;&gt;Vala.ArrayResizeMethod -->
<g id="edge1" class="edge">
<title>Vala.Method&#45;&gt;Vala.ArrayResizeMethod</title>
<path fill="none" stroke="black" d="M109,-61.67C109,-53.05 109,-43.79 109,-36.1"/>
<polygon fill="black" stroke="black" points="105.5,-61.7 109,-71.7 112.5,-61.7 105.5,-61.7"/>
</g>
<!-- Vala.Subroutine -->
<g id="node3" class="node">
<title>Vala.Subroutine</title>
<g id="a_node3"><a xlink:href="Vala.Subroutine.html" xlink:title="Vala.Subroutine">
<polygon fill="none" stroke="black" stroke-width="2" points="104,-180 0,-180 0,-144 104,-144 104,-180"/>
<text text-anchor="middle" x="52" y="-158.3" font-family="Times" font-size="14.00">Vala.Subroutine</text>
</a>
</g>
</g>
<!-- Vala.Subroutine&#45;&gt;Vala.Method -->
<g id="edge2" class="edge">
<title>Vala.Subroutine&#45;&gt;Vala.Method</title>
<path fill="none" stroke="black" d="M72.42,-135.92C79.93,-126.69 88.26,-116.47 95.07,-108.1"/>
<polygon fill="black" stroke="black" points="69.69,-133.73 66.09,-143.7 75.12,-138.15 69.69,-133.73"/>
</g>
<!-- Vala.Symbol -->
<g id="node4" class="node">
<title>Vala.Symbol</title>
<g id="a_node4"><a xlink:href="Vala.Symbol.html" xlink:title="Vala.Symbol">
<polygon fill="none" stroke="black" stroke-width="2" points="96,-252 8,-252 8,-216 96,-216 96,-252"/>
<text text-anchor="middle" x="52" y="-230.3" font-family="Times" font-size="14.00">Vala.Symbol</text>
</a>
</g>
</g>
<!-- Vala.Symbol&#45;&gt;Vala.Subroutine -->
<g id="edge3" class="edge">
<title>Vala.Symbol&#45;&gt;Vala.Subroutine</title>
<path fill="none" stroke="black" d="M52,-205.67C52,-197.05 52,-187.79 52,-180.1"/>
<polygon fill="black" stroke="black" points="48.5,-205.7 52,-215.7 55.5,-205.7 48.5,-205.7"/>
</g>
<!-- Vala.CodeNode -->
<g id="node5" class="node">
<title>Vala.CodeNode</title>
<g id="a_node5"><a xlink:href="Vala.CodeNode.html" xlink:title="Vala.CodeNode">
<polygon fill="none" stroke="black" stroke-width="2" points="103.5,-324 0.5,-324 0.5,-288 103.5,-288 103.5,-324"/>
<text text-anchor="middle" x="52" y="-302.3" font-family="Times" font-size="14.00">Vala.CodeNode</text>
</a>
</g>
</g>
<!-- Vala.CodeNode&#45;&gt;Vala.Symbol -->
<g id="edge4" class="edge">
<title>Vala.CodeNode&#45;&gt;Vala.Symbol</title>
<path fill="none" stroke="black" d="M52,-277.67C52,-269.05 52,-259.79 52,-252.1"/>
<polygon fill="black" stroke="black" points="48.5,-277.7 52,-287.7 55.5,-277.7 48.5,-277.7"/>
</g>
<!-- Vala.Callable -->
<g id="node6" class="node">
<title>Vala.Callable</title>
<g id="a_node6"><a xlink:href="Vala.Callable.html" xlink:title="Vala.Callable">
<polygon fill="none" stroke="black" points="212,-180 122,-180 122,-144 212,-144 212,-180"/>
<text text-anchor="middle" x="167" y="-158.3" font-family="Times" font-size="14.00">Vala.Callable</text>
</a>
</g>
</g>
<!-- Vala.Callable&#45;&gt;Vala.Method -->
<g id="edge5" class="edge">
<title>Vala.Callable&#45;&gt;Vala.Method</title>
<path fill="none" stroke="black" d="M146.22,-135.92C138.58,-126.69 130.1,-116.47 123.17,-108.1"/>
<polygon fill="black" stroke="black" points="143.59,-138.23 152.66,-143.7 148.98,-133.76 143.59,-138.23"/>
</g>
</g>
</svg>
