<?xml version="1.0" encoding="UTF-8" standalone="no"?>
<!DOCTYPE svg PUBLIC "-//W3C//DTD SVG 1.1//EN"
 "http://www.w3.org/Graphics/SVG/1.1/DTD/svg11.dtd">
<!-- Generated by graphviz version 2.40.1 (20161225.0304)
 -->
<!-- Title: Vala.CreationMethod Pages: 1 -->
<svg width="242pt" height="332pt"
 viewBox="0.00 0.00 242.00 332.00" xmlns="http://www.w3.org/2000/svg" xmlns:xlink="http://www.w3.org/1999/xlink">
<g id="graph0" class="graph" transform="scale(1 1) rotate(0) translate(4 328)">
<title>Vala.CreationMethod</title>
<polygon fill="#ffffff" stroke="transparent" points="-4,4 -4,-328 238,-328 238,4 -4,4"/>
<!-- Vala.CreationMethod -->
<g id="node1" class="node">
<title>Vala.CreationMethod</title>
<g id="a_node1"><a xlink:href="Vala.CreationMethod.html" xlink:title="Vala.CreationMethod">
<polygon fill="none" stroke="#000000" stroke-width="2" points="197,-36 47,-36 47,0 197,0 197,-36"/>
<text text-anchor="middle" x="122" y="-14.3" font-family="Times" font-size="14.00" fill="#000000">Vala.CreationMethod</text>
</a>
</g>
</g>
<!-- Vala.Method -->
<g id="node2" class="node">
<title>Vala.Method</title>
<g id="a_node2"><a xlink:href="Vala.Method.html" xlink:title="Vala.Method">
<polygon fill="none" stroke="#000000" stroke-width="2" points="169.5,-108 74.5,-108 74.5,-72 169.5,-72 169.5,-108"/>
<text text-anchor="middle" x="122" y="-86.3" font-family="Times" font-size="14.00" fill="#000000">Vala.Method</text>
</a>
</g>
</g>
<!-- Vala.Method&#45;&gt;Vala.CreationMethod -->
<g id="edge1" class="edge">
<title>Vala.Method&#45;&gt;Vala.CreationMethod</title>
<path fill="none" stroke="#000000" d="M122,-61.5726C122,-53.1084 122,-44.0593 122,-36.4133"/>
<polygon fill="#000000" stroke="#000000" points="118.5001,-61.8313 122,-71.8314 125.5001,-61.8314 118.5001,-61.8313"/>
</g>
<!-- Vala.Subroutine -->
<g id="node3" class="node">
<title>Vala.Subroutine</title>
<g id="a_node3"><a xlink:href="Vala.Subroutine.html" xlink:title="Vala.Subroutine">
<polygon fill="none" stroke="#000000" stroke-width="2" points="118,-180 0,-180 0,-144 118,-144 118,-180"/>
<text text-anchor="middle" x="59" y="-158.3" font-family="Times" font-size="14.00" fill="#000000">Vala.Subroutine</text>
</a>
</g>
</g>
<!-- Vala.Subroutine&#45;&gt;Vala.Method -->
<g id="edge2" class="edge">
<title>Vala.Subroutine&#45;&gt;Vala.Method</title>
<path fill="none" stroke="#000000" d="M81.6693,-136.0923C89.6843,-126.9323 98.5291,-116.8239 105.8884,-108.4133"/>
<polygon fill="#000000" stroke="#000000" points="78.8486,-134.0008 74.8976,-143.8314 84.1167,-138.6103 78.8486,-134.0008"/>
</g>
<!-- Vala.Symbol -->
<g id="node4" class="node">
<title>Vala.Symbol</title>
<g id="a_node4"><a xlink:href="Vala.Symbol.html" xlink:title="Vala.Symbol">
<polygon fill="none" stroke="#000000" stroke-width="2" points="106.5,-252 11.5,-252 11.5,-216 106.5,-216 106.5,-252"/>
<text text-anchor="middle" x="59" y="-230.3" font-family="Times" font-size="14.00" fill="#000000">Vala.Symbol</text>
</a>
</g>
</g>
<!-- Vala.Symbol&#45;&gt;Vala.Subroutine -->
<g id="edge3" class="edge">
<title>Vala.Symbol&#45;&gt;Vala.Subroutine</title>
<path fill="none" stroke="#000000" d="M59,-205.5726C59,-197.1084 59,-188.0593 59,-180.4133"/>
<polygon fill="#000000" stroke="#000000" points="55.5001,-205.8313 59,-215.8314 62.5001,-205.8314 55.5001,-205.8313"/>
</g>
<!-- Vala.CodeNode -->
<g id="node5" class="node">
<title>Vala.CodeNode</title>
<g id="a_node5"><a xlink:href="Vala.CodeNode.html" xlink:title="Vala.CodeNode">
<polygon fill="none" stroke="#000000" stroke-width="2" points="115.5,-324 2.5,-324 2.5,-288 115.5,-288 115.5,-324"/>
<text text-anchor="middle" x="59" y="-302.3" font-family="Times" font-size="14.00" fill="#000000">Vala.CodeNode</text>
</a>
</g>
</g>
<!-- Vala.CodeNode&#45;&gt;Vala.Symbol -->
<g id="edge4" class="edge">
<title>Vala.CodeNode&#45;&gt;Vala.Symbol</title>
<path fill="none" stroke="#000000" d="M59,-277.5726C59,-269.1084 59,-260.0593 59,-252.4133"/>
<polygon fill="#000000" stroke="#000000" points="55.5001,-277.8313 59,-287.8314 62.5001,-277.8314 55.5001,-277.8313"/>
</g>
<!-- Vala.Callable -->
<g id="node6" class="node">
<title>Vala.Callable</title>
<g id="a_node6"><a xlink:href="Vala.Callable.html" xlink:title="Vala.Callable">
<polygon fill="none" stroke="#000000" points="234,-180 136,-180 136,-144 234,-144 234,-180"/>
<text text-anchor="middle" x="185" y="-158.3" font-family="Times" font-size="14.00" fill="#000000">Vala.Callable</text>
</a>
</g>
</g>
<!-- Vala.Callable&#45;&gt;Vala.Method -->
<g id="edge5" class="edge">
<title>Vala.Callable&#45;&gt;Vala.Method</title>
<path fill="none" stroke="#000000" d="M162.3307,-136.0923C154.3157,-126.9323 145.4709,-116.8239 138.1116,-108.4133"/>
<polygon fill="#000000" stroke="#000000" points="159.8833,-138.6103 169.1024,-143.8314 165.1514,-134.0008 159.8833,-138.6103"/>
</g>
</g>
</svg>
