<?xml version="1.0" encoding="UTF-8" standalone="no"?>
<!DOCTYPE svg PUBLIC "-//W3C//DTD SVG 1.1//EN"
 "http://www.w3.org/Graphics/SVG/1.1/DTD/svg11.dtd">
<!-- Generated by graphviz version 2.42.3 (0)
 -->
<!-- Title: Vala.TypeSymbol Pages: 1 -->
<svg width="122pt" height="188pt"
 viewBox="0.00 0.00 122.00 188.00" xmlns="http://www.w3.org/2000/svg" xmlns:xlink="http://www.w3.org/1999/xlink">
<g id="graph0" class="graph" transform="scale(1 1) rotate(0) translate(4 184)">
<title>Vala.TypeSymbol</title>
<polygon fill="white" stroke="transparent" points="-4,4 -4,-184 118,-184 118,4 -4,4"/>
<!-- Vala.TypeSymbol -->
<g id="node1" class="node">
<title>Vala.TypeSymbol</title>
<g id="a_node1"><a xlink:href="Vala.TypeSymbol.html" xlink:title="Vala.TypeSymbol">
<polygon fill="none" stroke="black" stroke-width="2" points="114,-36 0,-36 0,0 114,0 114,-36"/>
<text text-anchor="middle" x="57" y="-14.3" font-family="Times" font-size="14.00">Vala.TypeSymbol</text>
</a>
</g>
</g>
<!-- Vala.Symbol -->
<g id="node2" class="node">
<title>Vala.Symbol</title>
<g id="a_node2"><a xlink:href="Vala.Symbol.html" xlink:title="Vala.Symbol">
<polygon fill="none" stroke="black" stroke-width="2" points="101,-108 13,-108 13,-72 101,-72 101,-108"/>
<text text-anchor="middle" x="57" y="-86.3" font-family="Times" font-size="14.00">Vala.Symbol</text>
</a>
</g>
</g>
<!-- Vala.Symbol&#45;&gt;Vala.TypeSymbol -->
<g id="edge1" class="edge">
<title>Vala.Symbol&#45;&gt;Vala.TypeSymbol</title>
<path fill="none" stroke="black" d="M57,-61.67C57,-53.05 57,-43.79 57,-36.1"/>
<polygon fill="black" stroke="black" points="53.5,-61.7 57,-71.7 60.5,-61.7 53.5,-61.7"/>
</g>
<!-- Vala.CodeNode -->
<g id="node3" class="node">
<title>Vala.CodeNode</title>
<g id="a_node3"><a xlink:href="Vala.CodeNode.html" xlink:title="Vala.CodeNode">
<polygon fill="none" stroke="black" stroke-width="2" points="108.5,-180 5.5,-180 5.5,-144 108.5,-144 108.5,-180"/>
<text text-anchor="middle" x="57" y="-158.3" font-family="Times" font-size="14.00">Vala.CodeNode</text>
</a>
</g>
</g>
<!-- Vala.CodeNode&#45;&gt;Vala.Symbol -->
<g id="edge2" class="edge">
<title>Vala.CodeNode&#45;&gt;Vala.Symbol</title>
<path fill="none" stroke="black" d="M57,-133.67C57,-125.05 57,-115.79 57,-108.1"/>
<polygon fill="black" stroke="black" points="53.5,-133.7 57,-143.7 60.5,-133.7 53.5,-133.7"/>
</g>
</g>
</svg>
