<?xml version="1.0" encoding="UTF-8" standalone="no"?>
<!DOCTYPE svg PUBLIC "-//W3C//DTD SVG 1.1//EN"
 "http://www.w3.org/Graphics/SVG/1.1/DTD/svg11.dtd">
<!-- Generated by graphviz version 2.42.3 (0)
 -->
<!-- Title: Vala.NullLiteral Pages: 1 -->
<svg width="113pt" height="260pt"
 viewBox="0.00 0.00 113.00 260.00" xmlns="http://www.w3.org/2000/svg" xmlns:xlink="http://www.w3.org/1999/xlink">
<g id="graph0" class="graph" transform="scale(1 1) rotate(0) translate(4 256)">
<title>Vala.NullLiteral</title>
<polygon fill="white" stroke="transparent" points="-4,4 -4,-256 109,-256 109,4 -4,4"/>
<!-- Vala.NullLiteral -->
<g id="node1" class="node">
<title>Vala.NullLiteral</title>
<g id="a_node1"><a xlink:href="Vala.NullLiteral.html" xlink:title="Vala.NullLiteral">
<polygon fill="none" stroke="black" stroke-width="2" points="105,-36 0,-36 0,0 105,0 105,-36"/>
<text text-anchor="middle" x="52.5" y="-14.3" font-family="Times" font-size="14.00">Vala.NullLiteral</text>
</a>
</g>
</g>
<!-- Vala.Literal -->
<g id="node2" class="node">
<title>Vala.Literal</title>
<g id="a_node2"><a xlink:href="Vala.Literal.html" xlink:title="Vala.Literal">
<polygon fill="none" stroke="black" stroke-width="2" points="93,-108 12,-108 12,-72 93,-72 93,-108"/>
<text text-anchor="middle" x="52.5" y="-86.3" font-family="Times" font-size="14.00">Vala.Literal</text>
</a>
</g>
</g>
<!-- Vala.Literal&#45;&gt;Vala.NullLiteral -->
<g id="edge1" class="edge">
<title>Vala.Literal&#45;&gt;Vala.NullLiteral</title>
<path fill="none" stroke="black" d="M52.5,-61.67C52.5,-53.05 52.5,-43.79 52.5,-36.1"/>
<polygon fill="black" stroke="black" points="49,-61.7 52.5,-71.7 56,-61.7 49,-61.7"/>
</g>
<!-- Vala.Expression -->
<g id="node3" class="node">
<title>Vala.Expression</title>
<g id="a_node3"><a xlink:href="Vala.Expression.html" xlink:title="Vala.Expression">
<polygon fill="none" stroke="black" stroke-width="2" points="105,-180 0,-180 0,-144 105,-144 105,-180"/>
<text text-anchor="middle" x="52.5" y="-158.3" font-family="Times" font-size="14.00">Vala.Expression</text>
</a>
</g>
</g>
<!-- Vala.Expression&#45;&gt;Vala.Literal -->
<g id="edge2" class="edge">
<title>Vala.Expression&#45;&gt;Vala.Literal</title>
<path fill="none" stroke="black" d="M52.5,-133.67C52.5,-125.05 52.5,-115.79 52.5,-108.1"/>
<polygon fill="black" stroke="black" points="49,-133.7 52.5,-143.7 56,-133.7 49,-133.7"/>
</g>
<!-- Vala.CodeNode -->
<g id="node4" class="node">
<title>Vala.CodeNode</title>
<g id="a_node4"><a xlink:href="Vala.CodeNode.html" xlink:title="Vala.CodeNode">
<polygon fill="none" stroke="black" stroke-width="2" points="104,-252 1,-252 1,-216 104,-216 104,-252"/>
<text text-anchor="middle" x="52.5" y="-230.3" font-family="Times" font-size="14.00">Vala.CodeNode</text>
</a>
</g>
</g>
<!-- Vala.CodeNode&#45;&gt;Vala.Expression -->
<g id="edge3" class="edge">
<title>Vala.CodeNode&#45;&gt;Vala.Expression</title>
<path fill="none" stroke="black" d="M52.5,-205.67C52.5,-197.05 52.5,-187.79 52.5,-180.1"/>
<polygon fill="black" stroke="black" points="49,-205.7 52.5,-215.7 56,-205.7 49,-205.7"/>
</g>
</g>
</svg>
