<?xml version="1.0" encoding="UTF-8" standalone="no"?>
<!DOCTYPE svg PUBLIC "-//W3C//DTD SVG 1.1//EN"
 "http://www.w3.org/Graphics/SVG/1.1/DTD/svg11.dtd">
<!-- Generated by graphviz version 2.40.1 (20161225.0304)
 -->
<!-- Title: Vala.ArrayLengthField Pages: 1 -->
<svg width="217pt" height="332pt"
 viewBox="0.00 0.00 216.50 332.00" xmlns="http://www.w3.org/2000/svg" xmlns:xlink="http://www.w3.org/1999/xlink">
<g id="graph0" class="graph" transform="scale(1 1) rotate(0) translate(4 328)">
<title>Vala.ArrayLengthField</title>
<polygon fill="#ffffff" stroke="transparent" points="-4,4 -4,-328 212.5,-328 212.5,4 -4,4"/>
<!-- Vala.ArrayLengthField -->
<g id="node1" class="node">
<title>Vala.ArrayLengthField</title>
<g id="a_node1"><a xlink:href="Vala.ArrayLengthField.html" xlink:title="Vala.ArrayLengthField">
<polygon fill="none" stroke="#000000" stroke-width="2" points="176.5,-36 35.5,-36 35.5,0 176.5,0 176.5,-36"/>
<text text-anchor="middle" x="106" y="-14.3" font-family="Times" font-size="14.00" fill="#000000">Vala.ArrayLengthField</text>
</a>
</g>
</g>
<!-- Vala.Field -->
<g id="node2" class="node">
<title>Vala.Field</title>
<g id="a_node2"><a xlink:href="Vala.Field.html" xlink:title="Vala.Field">
<polygon fill="none" stroke="#000000" stroke-width="2" points="142,-108 70,-108 70,-72 142,-72 142,-108"/>
<text text-anchor="middle" x="106" y="-86.3" font-family="Times" font-size="14.00" fill="#000000">Vala.Field</text>
</a>
</g>
</g>
<!-- Vala.Field&#45;&gt;Vala.ArrayLengthField -->
<g id="edge1" class="edge">
<title>Vala.Field&#45;&gt;Vala.ArrayLengthField</title>
<path fill="none" stroke="#000000" d="M106,-61.5726C106,-53.1084 106,-44.0593 106,-36.4133"/>
<polygon fill="#000000" stroke="#000000" points="102.5001,-61.8313 106,-71.8314 109.5001,-61.8314 102.5001,-61.8313"/>
</g>
<!-- Vala.Variable -->
<g id="node3" class="node">
<title>Vala.Variable</title>
<g id="a_node3"><a xlink:href="Vala.Variable.html" xlink:title="Vala.Variable">
<polygon fill="none" stroke="#000000" stroke-width="2" points="95.5,-180 6.5,-180 6.5,-144 95.5,-144 95.5,-180"/>
<text text-anchor="middle" x="51" y="-158.3" font-family="Times" font-size="14.00" fill="#000000">Vala.Variable</text>
</a>
</g>
</g>
<!-- Vala.Variable&#45;&gt;Vala.Field -->
<g id="edge2" class="edge">
<title>Vala.Variable&#45;&gt;Vala.Field</title>
<path fill="none" stroke="#000000" d="M71.0029,-135.8144C77.9437,-126.7282 85.5744,-116.7389 91.9343,-108.4133"/>
<polygon fill="#000000" stroke="#000000" points="68.1679,-133.76 64.8788,-143.8314 73.7306,-138.0093 68.1679,-133.76"/>
</g>
<!-- Vala.Symbol -->
<g id="node4" class="node">
<title>Vala.Symbol</title>
<g id="a_node4"><a xlink:href="Vala.Symbol.html" xlink:title="Vala.Symbol">
<polygon fill="none" stroke="#000000" stroke-width="2" points="94.5,-252 7.5,-252 7.5,-216 94.5,-216 94.5,-252"/>
<text text-anchor="middle" x="51" y="-230.3" font-family="Times" font-size="14.00" fill="#000000">Vala.Symbol</text>
</a>
</g>
</g>
<!-- Vala.Symbol&#45;&gt;Vala.Variable -->
<g id="edge3" class="edge">
<title>Vala.Symbol&#45;&gt;Vala.Variable</title>
<path fill="none" stroke="#000000" d="M51,-205.5726C51,-197.1084 51,-188.0593 51,-180.4133"/>
<polygon fill="#000000" stroke="#000000" points="47.5001,-205.8313 51,-215.8314 54.5001,-205.8314 47.5001,-205.8313"/>
</g>
<!-- Vala.CodeNode -->
<g id="node5" class="node">
<title>Vala.CodeNode</title>
<g id="a_node5"><a xlink:href="Vala.CodeNode.html" xlink:title="Vala.CodeNode">
<polygon fill="none" stroke="#000000" stroke-width="2" points="102,-324 0,-324 0,-288 102,-288 102,-324"/>
<text text-anchor="middle" x="51" y="-302.3" font-family="Times" font-size="14.00" fill="#000000">Vala.CodeNode</text>
</a>
</g>
</g>
<!-- Vala.CodeNode&#45;&gt;Vala.Symbol -->
<g id="edge4" class="edge">
<title>Vala.CodeNode&#45;&gt;Vala.Symbol</title>
<path fill="none" stroke="#000000" d="M51,-277.5726C51,-269.1084 51,-260.0593 51,-252.4133"/>
<polygon fill="#000000" stroke="#000000" points="47.5001,-277.8313 51,-287.8314 54.5001,-277.8314 47.5001,-277.8313"/>
</g>
<!-- Vala.Lockable -->
<g id="node6" class="node">
<title>Vala.Lockable</title>
<g id="a_node6"><a xlink:href="Vala.Lockable.html" xlink:title="Vala.Lockable">
<polygon fill="none" stroke="#000000" points="208.5,-180 113.5,-180 113.5,-144 208.5,-144 208.5,-180"/>
<text text-anchor="middle" x="161" y="-158.3" font-family="Times" font-size="14.00" fill="#000000">Vala.Lockable</text>
</a>
</g>
</g>
<!-- Vala.Lockable&#45;&gt;Vala.Field -->
<g id="edge5" class="edge">
<title>Vala.Lockable&#45;&gt;Vala.Field</title>
<path fill="none" stroke="#000000" d="M140.9971,-135.8144C134.0563,-126.7282 126.4256,-116.7389 120.0657,-108.4133"/>
<polygon fill="#000000" stroke="#000000" points="138.2694,-138.0093 147.1212,-143.8314 143.8321,-133.76 138.2694,-138.0093"/>
</g>
</g>
</svg>
