<?xml version="1.0" encoding="UTF-8" standalone="no"?>
<!DOCTYPE svg PUBLIC "-//W3C//DTD SVG 1.1//EN"
 "http://www.w3.org/Graphics/SVG/1.1/DTD/svg11.dtd">
<!-- Generated by graphviz version 2.40.1 (0)
 -->
<!-- Title: Vala.NullType Pages: 1 -->
<svg width="134pt" height="260pt"
 viewBox="0.00 0.00 134.00 260.00" xmlns="http://www.w3.org/2000/svg" xmlns:xlink="http://www.w3.org/1999/xlink">
<g id="graph0" class="graph" transform="scale(1 1) rotate(0) translate(4 256)">
<title>Vala.NullType</title>
<polygon fill="#ffffff" stroke="transparent" points="-4,4 -4,-256 130,-256 130,4 -4,4"/>
<!-- Vala.NullType -->
<g id="node1" class="node">
<title>Vala.NullType</title>
<g id="a_node1"><a xlink:href="Vala.NullType.html" xlink:title="Vala.NullType">
<polygon fill="none" stroke="#000000" stroke-width="2" points="110.5,-36 15.5,-36 15.5,0 110.5,0 110.5,-36"/>
<text text-anchor="middle" x="63" y="-14.3" font-family="Times" font-size="14.00" fill="#000000">Vala.NullType</text>
</a>
</g>
</g>
<!-- Vala.ReferenceType -->
<g id="node2" class="node">
<title>Vala.ReferenceType</title>
<g id="a_node2"><a xlink:href="Vala.ReferenceType.html" xlink:title="Vala.ReferenceType">
<polygon fill="none" stroke="#000000" stroke-width="2" points="126,-108 0,-108 0,-72 126,-72 126,-108"/>
<text text-anchor="middle" x="63" y="-86.3" font-family="Times" font-size="14.00" fill="#000000">Vala.ReferenceType</text>
</a>
</g>
</g>
<!-- Vala.ReferenceType&#45;&gt;Vala.NullType -->
<g id="edge1" class="edge">
<title>Vala.ReferenceType&#45;&gt;Vala.NullType</title>
<path fill="none" stroke="#000000" d="M63,-61.5726C63,-53.1084 63,-44.0593 63,-36.4133"/>
<polygon fill="#000000" stroke="#000000" points="59.5001,-61.8313 63,-71.8314 66.5001,-61.8314 59.5001,-61.8313"/>
</g>
<!-- Vala.DataType -->
<g id="node3" class="node">
<title>Vala.DataType</title>
<g id="a_node3"><a xlink:href="Vala.DataType.html" xlink:title="Vala.DataType">
<polygon fill="none" stroke="#000000" stroke-width="2" points="111.5,-180 14.5,-180 14.5,-144 111.5,-144 111.5,-180"/>
<text text-anchor="middle" x="63" y="-158.3" font-family="Times" font-size="14.00" fill="#000000">Vala.DataType</text>
</a>
</g>
</g>
<!-- Vala.DataType&#45;&gt;Vala.ReferenceType -->
<g id="edge2" class="edge">
<title>Vala.DataType&#45;&gt;Vala.ReferenceType</title>
<path fill="none" stroke="#000000" d="M63,-133.5726C63,-125.1084 63,-116.0593 63,-108.4133"/>
<polygon fill="#000000" stroke="#000000" points="59.5001,-133.8313 63,-143.8314 66.5001,-133.8314 59.5001,-133.8313"/>
</g>
<!-- Vala.CodeNode -->
<g id="node4" class="node">
<title>Vala.CodeNode</title>
<g id="a_node4"><a xlink:href="Vala.CodeNode.html" xlink:title="Vala.CodeNode">
<polygon fill="none" stroke="#000000" stroke-width="2" points="114.5,-252 11.5,-252 11.5,-216 114.5,-216 114.5,-252"/>
<text text-anchor="middle" x="63" y="-230.3" font-family="Times" font-size="14.00" fill="#000000">Vala.CodeNode</text>
</a>
</g>
</g>
<!-- Vala.CodeNode&#45;&gt;Vala.DataType -->
<g id="edge3" class="edge">
<title>Vala.CodeNode&#45;&gt;Vala.DataType</title>
<path fill="none" stroke="#000000" d="M63,-205.5726C63,-197.1084 63,-188.0593 63,-180.4133"/>
<polygon fill="#000000" stroke="#000000" points="59.5001,-205.8313 63,-215.8314 66.5001,-205.8314 59.5001,-205.8313"/>
</g>
</g>
</svg>
